{"asset":{"version":"2.0","generator":"Blockbench 5.1.6 glTF exporter"},"scenes":[{"nodes":[0],"name":"blockbench_export"}],"scene":0,"nodes":[{"name":"barricade_spikes","mesh":0}],"bufferViews":[{"buffer":0,"byteOffset":0,"byteLength":50688,"target":34962,"byteStride":12},{"buffer":0,"byteOffset":50688,"byteLength":50688,"target":34962,"byteStride":12},{"buffer":0,"byteOffset":101376,"byteLength":33792,"target":34962,"byteStride":8},{"buffer":0,"byteOffset":135168,"byteLength":12672,"target":34963}],"buffers":[{"byteLength":147840,"uri":"data:application/octet-stream;base64,"}],"accessors":[{"bufferView":0,"componentType":5126,"count":4224,"max":[1,1.75,0.5],"min":[-1,0,-0.5],"type":"VEC3"},{"bufferView":1,"componentType":5126,"count":4224,"max":[1,1,1],"min":[-1,-1,-1],"type":"VEC3"},{"bufferView":2,"componentType":5126,"count":4224,"max":[0.9921875,0.75],"min":[0,0.2578125],"type":"VEC2"},{"bufferView":3,"componentType":5123,"count":6336,"max":[4223],"min":[0],"type":"SCALAR"}],"materials":[{"pbrMetallicRoughness":{"metallicFactor":0,"roughnessFactor":1,"baseColorTexture":{"index":0}},"alphaMode":"MASK","alphaCutoff":0.05,"doubleSided":false}],"textures":[{"sampler":0,"source":0,"name":"wood_atlas.png"}],"samplers":[{"magFilter":9728,"minFilter":9728,"wrapS":33071,"wrapT":33071}],"images":[{"mimeType":"image/png","name":"wood_atlas.png","uri":"../textures/wood_atlas.png"}],"meshes":[{"primitives":[{"mode":4,"attributes":{"POSITION":0,"NORMAL":1,"TEXCOORD_0":2},"indices":3,"material":0}]}]}