{"asset":{"version":"2.0","generator":"Blockbench 5.1.6 glTF exporter"},"scenes":[{"nodes":[0],"name":"blockbench_export"}],"scene":0,"nodes":[{"name":"roof_corner_outer_straw","mesh":0}],"bufferViews":[{"buffer":0,"byteOffset":0,"byteLength":3984,"target":34962,"byteStride":12},{"buffer":0,"byteOffset":3984,"byteLength":3984,"target":34962,"byteStride":12},{"buffer":0,"byteOffset":7968,"byteLength":2656,"target":34962,"byteStride":8},{"buffer":0,"byteOffset":10624,"byteLength":996,"target":34963}],"buffers":[{"byteLength":11620,"uri":"data:application/octet-stream;base64,"}],"accessors":[{"bufferView":0,"componentType":5126,"count":332,"max":[1,1,1],"min":[-1,0,-1],"type":"VEC3"},{"bufferView":1,"componentType":5126,"count":332,"max":[1,1,1],"min":[-1,-1,-1],"type":"VEC3"},{"bufferView":2,"componentType":5126,"count":332,"max":[0.8515625,0.8359375],"min":[0.5,0],"type":"VEC2"},{"bufferView":3,"componentType":5123,"count":498,"max":[331],"min":[0],"type":"SCALAR"}],"materials":[{"pbrMetallicRoughness":{"metallicFactor":0,"roughnessFactor":1,"baseColorTexture":{"index":0}},"alphaMode":"MASK","alphaCutoff":0.05,"doubleSided":false}],"textures":[{"sampler":0,"source":0,"name":"wood_atlas.png"}],"samplers":[{"magFilter":9728,"minFilter":9728,"wrapS":33071,"wrapT":33071}],"images":[{"mimeType":"image/png","name":"wood_atlas.png","uri":"../textures/wood_atlas.png"}],"meshes":[{"primitives":[{"mode":4,"attributes":{"POSITION":0,"NORMAL":1,"TEXCOORD_0":2},"indices":3,"material":0}]}]}