{"asset":{"version":"2.0","generator":"Blockbench 5.1.6 glTF exporter"},"scenes":[{"nodes":[7,15,23,31,80,89],"name":"blockbench_export"}],"scene":0,"nodes":[{"name":"lug","mesh":0},{"name":"lug","mesh":1},{"name":"lug","mesh":2},{"name":"lug","mesh":3},{"name":"tire","mesh":4},{"name":"steel_rim","mesh":5},{"name":"hub","mesh":6},{"name":"round_wheel_-16.0_-25.0","children":[0,1,2,3,4,5,6]},{"name":"lug","mesh":7},{"name":"lug","mesh":8},{"name":"lug","mesh":9},{"name":"lug","mesh":10},{"name":"tire","mesh":11},{"name":"steel_rim","mesh":12},{"name":"hub","mesh":13},{"name":"round_wheel_-16.0_25.0","children":[8,9,10,11,12,13,14]},{"name":"lug","mesh":14},{"name":"lug","mesh":15},{"name":"lug","mesh":16},{"name":"lug","mesh":17},{"name":"tire","mesh":18},{"name":"steel_rim","mesh":19},{"name":"hub","mesh":20},{"name":"round_wheel_16.0_-25.0","children":[16,17,18,19,20,21,22]},{"name":"lug","mesh":21},{"name":"lug","mesh":22},{"name":"lug","mesh":23},{"name":"lug","mesh":24},{"name":"tire","mesh":25},{"name":"steel_rim","mesh":26},{"name":"hub","mesh":27},{"name":"round_wheel_16.0_25.0","children":[24,25,26,27,28,29,30]},{"name":"underbody","mesh":28},{"name":"belt_body","mesh":29},{"name":"fender_lower","mesh":30},{"name":"fender_lower","mesh":31},{"name":"fender_lower","mesh":32},{"name":"sill_trim","mesh":33},{"name":"belt_trim","mesh":34},{"name":"front_door_seam","mesh":35},{"name":"door_handle","mesh":36},{"name":"mirror","mesh":37},{"name":"mirror_mount","mesh":38},{"name":"fender_lower","mesh":39},{"name":"fender_lower","mesh":40},{"name":"fender_lower","mesh":41},{"name":"sill_trim","mesh":42},{"name":"belt_trim","mesh":43},{"name":"front_door_seam","mesh":44},{"name":"door_handle","mesh":45},{"name":"mirror","mesh":46},{"name":"mirror_mount","mesh":47},{"name":"cargo_panel","mesh":48},{"name":"cargo_door_split","mesh":49},{"name":"cargo_handle","mesh":50},{"name":"rescue_stripe","mesh":51},{"name":"rescue_vertical","mesh":52},{"name":"rescue_horizontal","mesh":53},{"name":"cargo_panel","mesh":54},{"name":"cargo_door_split","mesh":55},{"name":"cargo_handle","mesh":56},{"name":"rescue_stripe","mesh":57},{"name":"rescue_vertical","mesh":58},{"name":"rescue_horizontal","mesh":59},{"name":"rear_door_seam","mesh":60},{"name":"rear_door_window","mesh":61},{"name":"rear_door_window","mesh":62},{"name":"roof_cap","mesh":63},{"name":"lightbar_mount","mesh":64},{"name":"lightbar","mesh":65},{"name":"bumper_-1","mesh":66},{"name":"lamp_-1","mesh":67},{"name":"lamp_-1","mesh":68},{"name":"bumper_1","mesh":69},{"name":"lamp_1","mesh":70},{"name":"lamp_1","mesh":71},{"name":"grille","mesh":72},{"name":"grille_bar","mesh":73},{"name":"grille_bar","mesh":74},{"name":"license_plate","mesh":75},{"name":"body","children":[32,33,34,35,36,37,38,39,40,41,42,43,44,45,46,47,48,49,50,51,52,53,54,55,56,57,58,59,60,61,62,63,64,65,66,67,68,69,70,71,72,73,74,75,76,77,78,79]},{"name":"raked_windscreen_surround","mesh":76},{"name":"rear_cabin","mesh":77},{"name":"roof","mesh":78},{"name":"cabin_side_-1","mesh":79},{"name":"cabin_side_1","mesh":80},{"name":"windshield","mesh":81},{"name":"side_glass_-1_0","mesh":82},{"name":"side_glass_1_0","mesh":83},{"name":"coachwork","children":[81,82,83,84,85,86,87,88]}],"bufferViews":[{"buffer":0,"byteOffset":0,"byteLength":288,"target":34962,"byteStride":12},{"buffer":0,"byteOffset":288,"byteLength":288,"target":34962,"byteStride":12},{"buffer":0,"byteOffset":576,"byteLength":192,"target":34962,"byteStride":8},{"buffer":0,"byteOffset":768,"byteLength":72,"target":34963},{"buffer":0,"byteOffset":840,"byteLength":288,"target":34962,"byteStride":12},{"buffer":0,"byteOffset":1128,"byteLength":288,"target":34962,"byteStride":12},{"buffer":0,"byteOffset":1416,"byteLength":192,"target":34962,"byteStride":8},{"buffer":0,"byteOffset":1608,"byteLength":72,"target":34963},{"buffer":0,"byteOffset":1680,"byteLength":288,"target":34962,"byteStride":12},{"buffer":0,"byteOffset":1968,"byteLength":288,"target":34962,"byteStride":12},{"buffer":0,"byteOffset":2256,"byteLength":192,"target":34962,"byteStride":8},{"buffer":0,"byteOffset":2448,"byteLength":72,"target":34963},{"buffer":0,"byteOffset":2520,"byteLength":288,"target":34962,"byteStride":12},{"buffer":0,"byteOffset":2808,"byteLength":288,"target":34962,"byteStride":12},{"buffer":0,"byteOffset":3096,"byteLength":192,"target":34962,"byteStride":8},{"buffer":0,"byteOffset":3288,"byteLength":72,"target":34963},{"buffer":0,"byteOffset":3360,"byteLength":1440,"target":34962,"byteStride":12},{"buffer":0,"byteOffset":4800,"byteLength":1440,"target":34962,"byteStride":12},{"buffer":0,"byteOffset":6240,"byteLength":960,"target":34962,"byteStride":8},{"buffer":0,"byteOffset":7200,"byteLength":288,"target":34963},{"buffer":0,"byteOffset":7488,"byteLength":1440,"target":34962,"byteStride":12},{"buffer":0,"byteOffset":8928,"byteLength":1440,"target":34962,"byteStride":12},{"buffer":0,"byteOffset":10368,"byteLength":960,"target":34962,"byteStride":8},{"buffer":0,"byteOffset":11328,"byteLength":288,"target":34963},{"buffer":0,"byteOffset":11616,"byteLength":1440,"target":34962,"byteStride":12},{"buffer":0,"byteOffset":13056,"byteLength":1440,"target":34962,"byteStride":12},{"buffer":0,"byteOffset":14496,"byteLength":960,"target":34962,"byteStride":8},{"buffer":0,"byteOffset":15456,"byteLength":288,"target":34963},{"buffer":0,"byteOffset":15744,"byteLength":288,"target":34962,"byteStride":12},{"buffer":0,"byteOffset":16032,"byteLength":288,"target":34962,"byteStride":12},{"buffer":0,"byteOffset":16320,"byteLength":192,"target":34962,"byteStride":8},{"buffer":0,"byteOffset":16512,"byteLength":72,"target":34963},{"buffer":0,"byteOffset":16584,"byteLength":288,"target":34962,"byteStride":12},{"buffer":0,"byteOffset":16872,"byteLength":288,"target":34962,"byteStride":12},{"buffer":0,"byteOffset":17160,"byteLength":192,"target":34962,"byteStride":8},{"buffer":0,"byteOffset":17352,"byteLength":72,"target":34963},{"buffer":0,"byteOffset":17424,"byteLength":288,"target":34962,"byteStride":12},{"buffer":0,"byteOffset":17712,"byteLength":288,"target":34962,"byteStride":12},{"buffer":0,"byteOffset":18000,"byteLength":192,"target":34962,"byteStride":8},{"buffer":0,"byteOffset":18192,"byteLength":72,"target":34963},{"buffer":0,"byteOffset":18264,"byteLength":288,"target":34962,"byteStride":12},{"buffer":0,"byteOffset":18552,"byteLength":288,"target":34962,"byteStride":12},{"buffer":0,"byteOffset":18840,"byteLength":192,"target":34962,"byteStride":8},{"buffer":0,"byteOffset":19032,"byteLength":72,"target":34963},{"buffer":0,"byteOffset":19104,"byteLength":1440,"target":34962,"byteStride":12},{"buffer":0,"byteOffset":20544,"byteLength":1440,"target":34962,"byteStride":12},{"buffer":0,"byteOffset":21984,"byteLength":960,"target":34962,"byteStride":8},{"buffer":0,"byteOffset":22944,"byteLength":288,"target":34963},{"buffer":0,"byteOffset":23232,"byteLength":1440,"target":34962,"byteStride":12},{"buffer":0,"byteOffset":24672,"byteLength":1440,"target":34962,"byteStride":12},{"buffer":0,"byteOffset":26112,"byteLength":960,"target":34962,"byteStride":8},{"buffer":0,"byteOffset":27072,"byteLength":288,"target":34963},{"buffer":0,"byteOffset":27360,"byteLength":1440,"target":34962,"byteStride":12},{"buffer":0,"byteOffset":28800,"byteLength":1440,"target":34962,"byteStride":12},{"buffer":0,"byteOffset":30240,"byteLength":960,"target":34962,"byteStride":8},{"buffer":0,"byteOffset":31200,"byteLength":288,"target":34963},{"buffer":0,"byteOffset":31488,"byteLength":288,"target":34962,"byteStride":12},{"buffer":0,"byteOffset":31776,"byteLength":288,"target":34962,"byteStride":12},{"buffer":0,"byteOffset":32064,"byteLength":192,"target":34962,"byteStride":8},{"buffer":0,"byteOffset":32256,"byteLength":72,"target":34963},{"buffer":0,"byteOffset":32328,"byteLength":288,"target":34962,"byteStride":12},{"buffer":0,"byteOffset":32616,"byteLength":288,"target":34962,"byteStride":12},{"buffer":0,"byteOffset":32904,"byteLength":192,"target":34962,"byteStride":8},{"buffer":0,"byteOffset":33096,"byteLength":72,"target":34963},{"buffer":0,"byteOffset":33168,"byteLength":288,"target":34962,"byteStride":12},{"buffer":0,"byteOffset":33456,"byteLength":288,"target":34962,"byteStride":12},{"buffer":0,"byteOffset":33744,"byteLength":192,"target":34962,"byteStride":8},{"buffer":0,"byteOffset":33936,"byteLength":72,"target":34963},{"buffer":0,"byteOffset":34008,"byteLength":288,"target":34962,"byteStride":12},{"buffer":0,"byteOffset":34296,"byteLength":288,"target":34962,"byteStride":12},{"buffer":0,"byteOffset":34584,"byteLength":192,"target":34962,"byteStride":8},{"buffer":0,"byteOffset":34776,"byteLength":72,"target":34963},{"buffer":0,"byteOffset":34848,"byteLength":1440,"target":34962,"byteStride":12},{"buffer":0,"byteOffset":36288,"byteLength":1440,"target":34962,"byteStride":12},{"buffer":0,"byteOffset":37728,"byteLength":960,"target":34962,"byteStride":8},{"buffer":0,"byteOffset":38688,"byteLength":288,"target":34963},{"buffer":0,"byteOffset":38976,"byteLength":1440,"target":34962,"byteStride":12},{"buffer":0,"byteOffset":40416,"byteLength":1440,"target":34962,"byteStride":12},{"buffer":0,"byteOffset":41856,"byteLength":960,"target":34962,"byteStride":8},{"buffer":0,"byteOffset":42816,"byteLength":288,"target":34963},{"buffer":0,"byteOffset":43104,"byteLength":1440,"target":34962,"byteStride":12},{"buffer":0,"byteOffset":44544,"byteLength":1440,"target":34962,"byteStride":12},{"buffer":0,"byteOffset":45984,"byteLength":960,"target":34962,"byteStride":8},{"buffer":0,"byteOffset":46944,"byteLength":288,"target":34963},{"buffer":0,"byteOffset":47232,"byteLength":288,"target":34962,"byteStride":12},{"buffer":0,"byteOffset":47520,"byteLength":288,"target":34962,"byteStride":12},{"buffer":0,"byteOffset":47808,"byteLength":192,"target":34962,"byteStride":8},{"buffer":0,"byteOffset":48000,"byteLength":72,"target":34963},{"buffer":0,"byteOffset":48072,"byteLength":288,"target":34962,"byteStride":12},{"buffer":0,"byteOffset":48360,"byteLength":288,"target":34962,"byteStride":12},{"buffer":0,"byteOffset":48648,"byteLength":192,"target":34962,"byteStride":8},{"buffer":0,"byteOffset":48840,"byteLength":72,"target":34963},{"buffer":0,"byteOffset":48912,"byteLength":288,"target":34962,"byteStride":12},{"buffer":0,"byteOffset":49200,"byteLength":288,"target":34962,"byteStride":12},{"buffer":0,"byteOffset":49488,"byteLength":192,"target":34962,"byteStride":8},{"buffer":0,"byteOffset":49680,"byteLength":72,"target":34963},{"buffer":0,"byteOffset":49752,"byteLength":288,"target":34962,"byteStride":12},{"buffer":0,"byteOffset":50040,"byteLength":288,"target":34962,"byteStride":12},{"buffer":0,"byteOffset":50328,"byteLength":192,"target":34962,"byteStride":8},{"buffer":0,"byteOffset":50520,"byteLength":72,"target":34963},{"buffer":0,"byteOffset":50592,"byteLength":1440,"target":34962,"byteStride":12},{"buffer":0,"byteOffset":52032,"byteLength":1440,"target":34962,"byteStride":12},{"buffer":0,"byteOffset":53472,"byteLength":960,"target":34962,"byteStride":8},{"buffer":0,"byteOffset":54432,"byteLength":288,"target":34963},{"buffer":0,"byteOffset":54720,"byteLength":1440,"target":34962,"byteStride":12},{"buffer":0,"byteOffset":56160,"byteLength":1440,"target":34962,"byteStride":12},{"buffer":0,"byteOffset":57600,"byteLength":960,"target":34962,"byteStride":8},{"buffer":0,"byteOffset":58560,"byteLength":288,"target":34963},{"buffer":0,"byteOffset":58848,"byteLength":1440,"target":34962,"byteStride":12},{"buffer":0,"byteOffset":60288,"byteLength":1440,"target":34962,"byteStride":12},{"buffer":0,"byteOffset":61728,"byteLength":960,"target":34962,"byteStride":8},{"buffer":0,"byteOffset":62688,"byteLength":288,"target":34963},{"buffer":0,"byteOffset":62976,"byteLength":912,"target":34962,"byteStride":12},{"buffer":0,"byteOffset":63888,"byteLength":912,"target":34962,"byteStride":12},{"buffer":0,"byteOffset":64800,"byteLength":608,"target":34962,"byteStride":8},{"buffer":0,"byteOffset":65408,"byteLength":228,"target":34963},{"buffer":0,"byteOffset":65636,"byteLength":1152,"target":34962,"byteStride":12},{"buffer":0,"byteOffset":66788,"byteLength":1152,"target":34962,"byteStride":12},{"buffer":0,"byteOffset":67940,"byteLength":768,"target":34962,"byteStride":8},{"buffer":0,"byteOffset":68708,"byteLength":288,"target":34963},{"buffer":0,"byteOffset":68996,"byteLength":288,"target":34962,"byteStride":12},{"buffer":0,"byteOffset":69284,"byteLength":288,"target":34962,"byteStride":12},{"buffer":0,"byteOffset":69572,"byteLength":192,"target":34962,"byteStride":8},{"buffer":0,"byteOffset":69764,"byteLength":72,"target":34963},{"buffer":0,"byteOffset":69836,"byteLength":240,"target":34962,"byteStride":12},{"buffer":0,"byteOffset":70076,"byteLength":240,"target":34962,"byteStride":12},{"buffer":0,"byteOffset":70316,"byteLength":160,"target":34962,"byteStride":8},{"buffer":0,"byteOffset":70476,"byteLength":60,"target":34963},{"buffer":0,"byteOffset":70536,"byteLength":288,"target":34962,"byteStride":12},{"buffer":0,"byteOffset":70824,"byteLength":288,"target":34962,"byteStride":12},{"buffer":0,"byteOffset":71112,"byteLength":192,"target":34962,"byteStride":8},{"buffer":0,"byteOffset":71304,"byteLength":72,"target":34963},{"buffer":0,"byteOffset":71376,"byteLength":336,"target":34962,"byteStride":12},{"buffer":0,"byteOffset":71712,"byteLength":336,"target":34962,"byteStride":12},{"buffer":0,"byteOffset":72048,"byteLength":224,"target":34962,"byteStride":8},{"buffer":0,"byteOffset":72272,"byteLength":84,"target":34963},{"buffer":0,"byteOffset":72356,"byteLength":288,"target":34962,"byteStride":12},{"buffer":0,"byteOffset":72644,"byteLength":288,"target":34962,"byteStride":12},{"buffer":0,"byteOffset":72932,"byteLength":192,"target":34962,"byteStride":8},{"buffer":0,"byteOffset":73124,"byteLength":72,"target":34963},{"buffer":0,"byteOffset":73196,"byteLength":144,"target":34962,"byteStride":12},{"buffer":0,"byteOffset":73340,"byteLength":144,"target":34962,"byteStride":12},{"buffer":0,"byteOffset":73484,"byteLength":96,"target":34962,"byteStride":8},{"buffer":0,"byteOffset":73580,"byteLength":36,"target":34963},{"buffer":0,"byteOffset":73616,"byteLength":240,"target":34962,"byteStride":12},{"buffer":0,"byteOffset":73856,"byteLength":240,"target":34962,"byteStride":12},{"buffer":0,"byteOffset":74096,"byteLength":160,"target":34962,"byteStride":8},{"buffer":0,"byteOffset":74256,"byteLength":60,"target":34963},{"buffer":0,"byteOffset":74316,"byteLength":384,"target":34962,"byteStride":12},{"buffer":0,"byteOffset":74700,"byteLength":384,"target":34962,"byteStride":12},{"buffer":0,"byteOffset":75084,"byteLength":256,"target":34962,"byteStride":8},{"buffer":0,"byteOffset":75340,"byteLength":96,"target":34963},{"buffer":0,"byteOffset":75436,"byteLength":240,"target":34962,"byteStride":12},{"buffer":0,"byteOffset":75676,"byteLength":240,"target":34962,"byteStride":12},{"buffer":0,"byteOffset":75916,"byteLength":160,"target":34962,"byteStride":8},{"buffer":0,"byteOffset":76076,"byteLength":60,"target":34963},{"buffer":0,"byteOffset":76136,"byteLength":288,"target":34962,"byteStride":12},{"buffer":0,"byteOffset":76424,"byteLength":288,"target":34962,"byteStride":12},{"buffer":0,"byteOffset":76712,"byteLength":192,"target":34962,"byteStride":8},{"buffer":0,"byteOffset":76904,"byteLength":72,"target":34963},{"buffer":0,"byteOffset":76976,"byteLength":240,"target":34962,"byteStride":12},{"buffer":0,"byteOffset":77216,"byteLength":240,"target":34962,"byteStride":12},{"buffer":0,"byteOffset":77456,"byteLength":160,"target":34962,"byteStride":8},{"buffer":0,"byteOffset":77616,"byteLength":60,"target":34963},{"buffer":0,"byteOffset":77676,"byteLength":288,"target":34962,"byteStride":12},{"buffer":0,"byteOffset":77964,"byteLength":288,"target":34962,"byteStride":12},{"buffer":0,"byteOffset":78252,"byteLength":192,"target":34962,"byteStride":8},{"buffer":0,"byteOffset":78444,"byteLength":72,"target":34963},{"buffer":0,"byteOffset":78516,"byteLength":336,"target":34962,"byteStride":12},{"buffer":0,"byteOffset":78852,"byteLength":336,"target":34962,"byteStride":12},{"buffer":0,"byteOffset":79188,"byteLength":224,"target":34962,"byteStride":8},{"buffer":0,"byteOffset":79412,"byteLength":84,"target":34963},{"buffer":0,"byteOffset":79496,"byteLength":288,"target":34962,"byteStride":12},{"buffer":0,"byteOffset":79784,"byteLength":288,"target":34962,"byteStride":12},{"buffer":0,"byteOffset":80072,"byteLength":192,"target":34962,"byteStride":8},{"buffer":0,"byteOffset":80264,"byteLength":72,"target":34963},{"buffer":0,"byteOffset":80336,"byteLength":144,"target":34962,"byteStride":12},{"buffer":0,"byteOffset":80480,"byteLength":144,"target":34962,"byteStride":12},{"buffer":0,"byteOffset":80624,"byteLength":96,"target":34962,"byteStride":8},{"buffer":0,"byteOffset":80720,"byteLength":36,"target":34963},{"buffer":0,"byteOffset":80756,"byteLength":240,"target":34962,"byteStride":12},{"buffer":0,"byteOffset":80996,"byteLength":240,"target":34962,"byteStride":12},{"buffer":0,"byteOffset":81236,"byteLength":160,"target":34962,"byteStride":8},{"buffer":0,"byteOffset":81396,"byteLength":60,"target":34963},{"buffer":0,"byteOffset":81456,"byteLength":384,"target":34962,"byteStride":12},{"buffer":0,"byteOffset":81840,"byteLength":384,"target":34962,"byteStride":12},{"buffer":0,"byteOffset":82224,"byteLength":256,"target":34962,"byteStride":8},{"buffer":0,"byteOffset":82480,"byteLength":96,"target":34963},{"buffer":0,"byteOffset":82576,"byteLength":240,"target":34962,"byteStride":12},{"buffer":0,"byteOffset":82816,"byteLength":240,"target":34962,"byteStride":12},{"buffer":0,"byteOffset":83056,"byteLength":160,"target":34962,"byteStride":8},{"buffer":0,"byteOffset":83216,"byteLength":60,"target":34963},{"buffer":0,"byteOffset":83276,"byteLength":1344,"target":34962,"byteStride":12},{"buffer":0,"byteOffset":84620,"byteLength":1344,"target":34962,"byteStride":12},{"buffer":0,"byteOffset":85964,"byteLength":896,"target":34962,"byteStride":8},{"buffer":0,"byteOffset":86860,"byteLength":336,"target":34963},{"buffer":0,"byteOffset":87196,"byteLength":240,"target":34962,"byteStride":12},{"buffer":0,"byteOffset":87436,"byteLength":240,"target":34962,"byteStride":12},{"buffer":0,"byteOffset":87676,"byteLength":160,"target":34962,"byteStride":8},{"buffer":0,"byteOffset":87836,"byteLength":60,"target":34963},{"buffer":0,"byteOffset":87896,"byteLength":96,"target":34962,"byteStride":12},{"buffer":0,"byteOffset":87992,"byteLength":96,"target":34962,"byteStride":12},{"buffer":0,"byteOffset":88088,"byteLength":64,"target":34962,"byteStride":8},{"buffer":0,"byteOffset":88152,"byteLength":24,"target":34963},{"buffer":0,"byteOffset":88176,"byteLength":432,"target":34962,"byteStride":12},{"buffer":0,"byteOffset":88608,"byteLength":432,"target":34962,"byteStride":12},{"buffer":0,"byteOffset":89040,"byteLength":288,"target":34962,"byteStride":8},{"buffer":0,"byteOffset":89328,"byteLength":108,"target":34963},{"buffer":0,"byteOffset":89436,"byteLength":192,"target":34962,"byteStride":12},{"buffer":0,"byteOffset":89628,"byteLength":192,"target":34962,"byteStride":12},{"buffer":0,"byteOffset":89820,"byteLength":128,"target":34962,"byteStride":8},{"buffer":0,"byteOffset":89948,"byteLength":48,"target":34963},{"buffer":0,"byteOffset":89996,"byteLength":96,"target":34962,"byteStride":12},{"buffer":0,"byteOffset":90092,"byteLength":96,"target":34962,"byteStride":12},{"buffer":0,"byteOffset":90188,"byteLength":64,"target":34962,"byteStride":8},{"buffer":0,"byteOffset":90252,"byteLength":24,"target":34963},{"buffer":0,"byteOffset":90276,"byteLength":1344,"target":34962,"byteStride":12},{"buffer":0,"byteOffset":91620,"byteLength":1344,"target":34962,"byteStride":12},{"buffer":0,"byteOffset":92964,"byteLength":896,"target":34962,"byteStride":8},{"buffer":0,"byteOffset":93860,"byteLength":336,"target":34963},{"buffer":0,"byteOffset":94196,"byteLength":240,"target":34962,"byteStride":12},{"buffer":0,"byteOffset":94436,"byteLength":240,"target":34962,"byteStride":12},{"buffer":0,"byteOffset":94676,"byteLength":160,"target":34962,"byteStride":8},{"buffer":0,"byteOffset":94836,"byteLength":60,"target":34963},{"buffer":0,"byteOffset":94896,"byteLength":96,"target":34962,"byteStride":12},{"buffer":0,"byteOffset":94992,"byteLength":96,"target":34962,"byteStride":12},{"buffer":0,"byteOffset":95088,"byteLength":64,"target":34962,"byteStride":8},{"buffer":0,"byteOffset":95152,"byteLength":24,"target":34963},{"buffer":0,"byteOffset":95176,"byteLength":432,"target":34962,"byteStride":12},{"buffer":0,"byteOffset":95608,"byteLength":432,"target":34962,"byteStride":12},{"buffer":0,"byteOffset":96040,"byteLength":288,"target":34962,"byteStride":8},{"buffer":0,"byteOffset":96328,"byteLength":108,"target":34963},{"buffer":0,"byteOffset":96436,"byteLength":192,"target":34962,"byteStride":12},{"buffer":0,"byteOffset":96628,"byteLength":192,"target":34962,"byteStride":12},{"buffer":0,"byteOffset":96820,"byteLength":128,"target":34962,"byteStride":8},{"buffer":0,"byteOffset":96948,"byteLength":48,"target":34963},{"buffer":0,"byteOffset":96996,"byteLength":96,"target":34962,"byteStride":12},{"buffer":0,"byteOffset":97092,"byteLength":96,"target":34962,"byteStride":12},{"buffer":0,"byteOffset":97188,"byteLength":64,"target":34962,"byteStride":8},{"buffer":0,"byteOffset":97252,"byteLength":24,"target":34963},{"buffer":0,"byteOffset":97276,"byteLength":240,"target":34962,"byteStride":12},{"buffer":0,"byteOffset":97516,"byteLength":240,"target":34962,"byteStride":12},{"buffer":0,"byteOffset":97756,"byteLength":160,"target":34962,"byteStride":8},{"buffer":0,"byteOffset":97916,"byteLength":60,"target":34963},{"buffer":0,"byteOffset":97976,"byteLength":288,"target":34962,"byteStride":12},{"buffer":0,"byteOffset":98264,"byteLength":288,"target":34962,"byteStride":12},{"buffer":0,"byteOffset":98552,"byteLength":192,"target":34962,"byteStride":8},{"buffer":0,"byteOffset":98744,"byteLength":72,"target":34963},{"buffer":0,"byteOffset":98816,"byteLength":288,"target":34962,"byteStride":12},{"buffer":0,"byteOffset":99104,"byteLength":288,"target":34962,"byteStride":12},{"buffer":0,"byteOffset":99392,"byteLength":192,"target":34962,"byteStride":8},{"buffer":0,"byteOffset":99584,"byteLength":72,"target":34963},{"buffer":0,"byteOffset":99656,"byteLength":432,"target":34962,"byteStride":12},{"buffer":0,"byteOffset":100088,"byteLength":432,"target":34962,"byteStride":12},{"buffer":0,"byteOffset":100520,"byteLength":288,"target":34962,"byteStride":8},{"buffer":0,"byteOffset":100808,"byteLength":108,"target":34963},{"buffer":0,"byteOffset":100916,"byteLength":288,"target":34962,"byteStride":12},{"buffer":0,"byteOffset":101204,"byteLength":288,"target":34962,"byteStride":12},{"buffer":0,"byteOffset":101492,"byteLength":192,"target":34962,"byteStride":8},{"buffer":0,"byteOffset":101684,"byteLength":72,"target":34963},{"buffer":0,"byteOffset":101756,"byteLength":240,"target":34962,"byteStride":12},{"buffer":0,"byteOffset":101996,"byteLength":240,"target":34962,"byteStride":12},{"buffer":0,"byteOffset":102236,"byteLength":160,"target":34962,"byteStride":8},{"buffer":0,"byteOffset":102396,"byteLength":60,"target":34963},{"buffer":0,"byteOffset":102456,"byteLength":480,"target":34962,"byteStride":12},{"buffer":0,"byteOffset":102936,"byteLength":480,"target":34962,"byteStride":12},{"buffer":0,"byteOffset":103416,"byteLength":320,"target":34962,"byteStride":8},{"buffer":0,"byteOffset":103736,"byteLength":120,"target":34963},{"buffer":0,"byteOffset":103856,"byteLength":240,"target":34962,"byteStride":12},{"buffer":0,"byteOffset":104096,"byteLength":240,"target":34962,"byteStride":12},{"buffer":0,"byteOffset":104336,"byteLength":160,"target":34962,"byteStride":8},{"buffer":0,"byteOffset":104496,"byteLength":60,"target":34963},{"buffer":0,"byteOffset":104556,"byteLength":240,"target":34962,"byteStride":12},{"buffer":0,"byteOffset":104796,"byteLength":240,"target":34962,"byteStride":12},{"buffer":0,"byteOffset":105036,"byteLength":160,"target":34962,"byteStride":8},{"buffer":0,"byteOffset":105196,"byteLength":60,"target":34963},{"buffer":0,"byteOffset":105256,"byteLength":336,"target":34962,"byteStride":12},{"buffer":0,"byteOffset":105592,"byteLength":336,"target":34962,"byteStride":12},{"buffer":0,"byteOffset":105928,"byteLength":224,"target":34962,"byteStride":8},{"buffer":0,"byteOffset":106152,"byteLength":84,"target":34963},{"buffer":0,"byteOffset":106236,"byteLength":240,"target":34962,"byteStride":12},{"buffer":0,"byteOffset":106476,"byteLength":240,"target":34962,"byteStride":12},{"buffer":0,"byteOffset":106716,"byteLength":160,"target":34962,"byteStride":8},{"buffer":0,"byteOffset":106876,"byteLength":60,"target":34963},{"buffer":0,"byteOffset":106936,"byteLength":240,"target":34962,"byteStride":12},{"buffer":0,"byteOffset":107176,"byteLength":240,"target":34962,"byteStride":12},{"buffer":0,"byteOffset":107416,"byteLength":160,"target":34962,"byteStride":8},{"buffer":0,"byteOffset":107576,"byteLength":60,"target":34963},{"buffer":0,"byteOffset":107636,"byteLength":432,"target":34962,"byteStride":12},{"buffer":0,"byteOffset":108068,"byteLength":432,"target":34962,"byteStride":12},{"buffer":0,"byteOffset":108500,"byteLength":288,"target":34962,"byteStride":8},{"buffer":0,"byteOffset":108788,"byteLength":108,"target":34963},{"buffer":0,"byteOffset":108896,"byteLength":240,"target":34962,"byteStride":12},{"buffer":0,"byteOffset":109136,"byteLength":240,"target":34962,"byteStride":12},{"buffer":0,"byteOffset":109376,"byteLength":160,"target":34962,"byteStride":8},{"buffer":0,"byteOffset":109536,"byteLength":60,"target":34963},{"buffer":0,"byteOffset":109596,"byteLength":240,"target":34962,"byteStride":12},{"buffer":0,"byteOffset":109836,"byteLength":240,"target":34962,"byteStride":12},{"buffer":0,"byteOffset":110076,"byteLength":160,"target":34962,"byteStride":8},{"buffer":0,"byteOffset":110236,"byteLength":60,"target":34963},{"buffer":0,"byteOffset":110296,"byteLength":240,"target":34962,"byteStride":12},{"buffer":0,"byteOffset":110536,"byteLength":240,"target":34962,"byteStride":12},{"buffer":0,"byteOffset":110776,"byteLength":160,"target":34962,"byteStride":8},{"buffer":0,"byteOffset":110936,"byteLength":60,"target":34963},{"buffer":0,"byteOffset":110996,"byteLength":48,"target":34962,"byteStride":12},{"buffer":0,"byteOffset":111044,"byteLength":48,"target":34962,"byteStride":12},{"buffer":0,"byteOffset":111092,"byteLength":32,"target":34962,"byteStride":8},{"buffer":0,"byteOffset":111124,"byteLength":12,"target":34963},{"buffer":0,"byteOffset":111136,"byteLength":48,"target":34962,"byteStride":12},{"buffer":0,"byteOffset":111184,"byteLength":48,"target":34962,"byteStride":12},{"buffer":0,"byteOffset":111232,"byteLength":32,"target":34962,"byteStride":8},{"buffer":0,"byteOffset":111264,"byteLength":12,"target":34963},{"buffer":0,"byteOffset":111276,"byteLength":48,"target":34962,"byteStride":12},{"buffer":0,"byteOffset":111324,"byteLength":48,"target":34962,"byteStride":12},{"buffer":0,"byteOffset":111372,"byteLength":32,"target":34962,"byteStride":8},{"buffer":0,"byteOffset":111404,"byteLength":12,"target":34963},{"buffer":0,"byteOffset":111416,"byteLength":48,"target":34962,"byteStride":12},{"buffer":0,"byteOffset":111464,"byteLength":48,"target":34962,"byteStride":12},{"buffer":0,"byteOffset":111512,"byteLength":32,"target":34962,"byteStride":8},{"buffer":0,"byteOffset":111544,"byteLength":12,"target":34963},{"buffer":0,"byteOffset":111556,"byteLength":48,"target":34962,"byteStride":12},{"buffer":0,"byteOffset":111604,"byteLength":48,"target":34962,"byteStride":12},{"buffer":0,"byteOffset":111652,"byteLength":32,"target":34962,"byteStride":8},{"buffer":0,"byteOffset":111684,"byteLength":12,"target":34963},{"buffer":0,"byteOffset":111696,"byteLength":48,"target":34962,"byteStride":12},{"buffer":0,"byteOffset":111744,"byteLength":48,"target":34962,"byteStride":12},{"buffer":0,"byteOffset":111792,"byteLength":32,"target":34962,"byteStride":8},{"buffer":0,"byteOffset":111824,"byteLength":12,"target":34963},{"buffer":0,"byteOffset":111836,"byteLength":48,"target":34962,"byteStride":12},{"buffer":0,"byteOffset":111884,"byteLength":48,"target":34962,"byteStride":12},{"buffer":0,"byteOffset":111932,"byteLength":32,"target":34962,"byteStride":8},{"buffer":0,"byteOffset":111964,"byteLength":12,"target":34963},{"buffer":0,"byteOffset":111976,"byteLength":48,"target":34962,"byteStride":12},{"buffer":0,"byteOffset":112024,"byteLength":48,"target":34962,"byteStride":12},{"buffer":0,"byteOffset":112072,"byteLength":32,"target":34962,"byteStride":8},{"buffer":0,"byteOffset":112104,"byteLength":12,"target":34963}],"buffers":[{"byteLength":112116,"uri":"data:application/octet-stream;base64,"}],"accessors":[{"bufferView":0,"componentType":5126,"count":24,"max":[-1.1875,0.59375,-1.537500023841858],"min":[-1.212499976158142,0.543749988079071,-1.587499976158142],"type":"VEC3"},{"bufferView":1,"componentType":5126,"count":24,"max":[1,1,1],"min":[-1,-1,-1],"type":"VEC3"},{"bufferView":2,"componentType":5126,"count":24,"max":[0.02500000037252903,0.02499997615814209],"min":[0,0],"type":"VEC2"},{"bufferView":3,"componentType":5123,"count":36,"max":[23],"min":[0],"type":"SCALAR"},{"bufferView":4,"componentType":5126,"count":24,"max":[-1.1875,0.4625000059604645,-1.40625],"min":[-1.212499976158142,0.4124999940395355,-1.4562499523162842],"type":"VEC3"},{"bufferView":5,"componentType":5126,"count":24,"max":[1,1,1],"min":[-1,-1,-1],"type":"VEC3"},{"bufferView":6,"componentType":5126,"count":24,"max":[0.02500000037252903,0.02499997615814209],"min":[0,0],"type":"VEC2"},{"bufferView":7,"componentType":5123,"count":36,"max":[23],"min":[0],"type":"SCALAR"},{"bufferView":8,"componentType":5126,"count":24,"max":[-1.1875,0.33125001192092896,-1.537500023841858],"min":[-1.212499976158142,0.28125,-1.587499976158142],"type":"VEC3"},{"bufferView":9,"componentType":5126,"count":24,"max":[1,1,1],"min":[-1,-1,-1],"type":"VEC3"},{"bufferView":10,"componentType":5126,"count":24,"max":[0.02500000037252903,0.02499997615814209],"min":[0,0],"type":"VEC2"},{"bufferView":11,"componentType":5123,"count":36,"max":[23],"min":[0],"type":"SCALAR"},{"bufferView":12,"componentType":5126,"count":24,"max":[-1.1875,0.4625000059604645,-1.6687500476837158],"min":[-1.212499976158142,0.4124999940395355,-1.71875],"type":"VEC3"},{"bufferView":13,"componentType":5126,"count":24,"max":[1,1,1],"min":[-1,-1,-1],"type":"VEC3"},{"bufferView":14,"componentType":5126,"count":24,"max":[0.02500000037252903,0.02499997615814209],"min":[0,0],"type":"VEC2"},{"bufferView":15,"componentType":5123,"count":36,"max":[23],"min":[0],"type":"SCALAR"},{"bufferView":16,"componentType":5126,"count":120,"max":[-0.84375,0.875,-1.125],"min":[-1.15625,0,-2],"type":"VEC3"},{"bufferView":17,"componentType":5126,"count":120,"max":[1,0.9659258127212524,0.9659258127212524],"min":[-1,-0.9659258127212524,-0.9659258127212524],"type":"VEC3"},{"bufferView":18,"componentType":5126,"count":120,"max":[0.4375,0.4375],"min":[0,0],"type":"VEC2"},{"bufferView":19,"componentType":5123,"count":144,"max":[119],"min":[0],"type":"SCALAR"},{"bufferView":20,"componentType":5126,"count":120,"max":[-1.1515624523162842,0.6650000214576721,-1.3350000381469727],"min":[-1.173437476158142,0.20999999344348907,-1.7899999618530273],"type":"VEC3"},{"bufferView":21,"componentType":5126,"count":120,"max":[1,0.9659258127212524,0.9659258127212524],"min":[-1,-0.9659258127212524,-0.9659258127212524],"type":"VEC3"},{"bufferView":22,"componentType":5126,"count":120,"max":[0.22750000655651093,0.22750002145767212],"min":[0,0],"type":"VEC2"},{"bufferView":23,"componentType":5123,"count":144,"max":[119],"min":[0],"type":"SCALAR"},{"bufferView":24,"componentType":5126,"count":120,"max":[-1.1640625,0.5293750166893005,-1.4706250429153442],"min":[-1.1921875476837158,0.34562501311302185,-1.6543749570846558],"type":"VEC3"},{"bufferView":25,"componentType":5126,"count":120,"max":[1,0.9659258127212524,0.9659258127212524],"min":[-1,-0.9659258127212524,-0.9659258127212524],"type":"VEC3"},{"bufferView":26,"componentType":5126,"count":120,"max":[0.09187500178813934,0.09187501668930054],"min":[0,0],"type":"VEC2"},{"bufferView":27,"componentType":5123,"count":144,"max":[119],"min":[0],"type":"SCALAR"},{"bufferView":28,"componentType":5126,"count":24,"max":[-1.1875,0.59375,1.587499976158142],"min":[-1.212499976158142,0.543749988079071,1.537500023841858],"type":"VEC3"},{"bufferView":29,"componentType":5126,"count":24,"max":[1,1,1],"min":[-1,-1,-1],"type":"VEC3"},{"bufferView":30,"componentType":5126,"count":24,"max":[0.02500000037252903,0.02499997615814209],"min":[0,0],"type":"VEC2"},{"bufferView":31,"componentType":5123,"count":36,"max":[23],"min":[0],"type":"SCALAR"},{"bufferView":32,"componentType":5126,"count":24,"max":[-1.1875,0.4625000059604645,1.71875],"min":[-1.212499976158142,0.4124999940395355,1.6687500476837158],"type":"VEC3"},{"bufferView":33,"componentType":5126,"count":24,"max":[1,1,1],"min":[-1,-1,-1],"type":"VEC3"},{"bufferView":34,"componentType":5126,"count":24,"max":[0.02500000037252903,0.02499997615814209],"min":[0,0],"type":"VEC2"},{"bufferView":35,"componentType":5123,"count":36,"max":[23],"min":[0],"type":"SCALAR"},{"bufferView":36,"componentType":5126,"count":24,"max":[-1.1875,0.33125001192092896,1.587499976158142],"min":[-1.212499976158142,0.28125,1.537500023841858],"type":"VEC3"},{"bufferView":37,"componentType":5126,"count":24,"max":[1,1,1],"min":[-1,-1,-1],"type":"VEC3"},{"bufferView":38,"componentType":5126,"count":24,"max":[0.02500000037252903,0.02499997615814209],"min":[0,0],"type":"VEC2"},{"bufferView":39,"componentType":5123,"count":36,"max":[23],"min":[0],"type":"SCALAR"},{"bufferView":40,"componentType":5126,"count":24,"max":[-1.1875,0.4625000059604645,1.4562499523162842],"min":[-1.212499976158142,0.4124999940395355,1.40625],"type":"VEC3"},{"bufferView":41,"componentType":5126,"count":24,"max":[1,1,1],"min":[-1,-1,-1],"type":"VEC3"},{"bufferView":42,"componentType":5126,"count":24,"max":[0.02500000037252903,0.02499997615814209],"min":[0,0],"type":"VEC2"},{"bufferView":43,"componentType":5123,"count":36,"max":[23],"min":[0],"type":"SCALAR"},{"bufferView":44,"componentType":5126,"count":120,"max":[-0.84375,0.875,2],"min":[-1.15625,0,1.125],"type":"VEC3"},{"bufferView":45,"componentType":5126,"count":120,"max":[1,0.9659258127212524,0.9659258127212524],"min":[-1,-0.9659258127212524,-0.9659258127212524],"type":"VEC3"},{"bufferView":46,"componentType":5126,"count":120,"max":[0.4375,0.4375],"min":[0,0],"type":"VEC2"},{"bufferView":47,"componentType":5123,"count":144,"max":[119],"min":[0],"type":"SCALAR"},{"bufferView":48,"componentType":5126,"count":120,"max":[-1.1515624523162842,0.6650000214576721,1.7899999618530273],"min":[-1.173437476158142,0.20999999344348907,1.3350000381469727],"type":"VEC3"},{"bufferView":49,"componentType":5126,"count":120,"max":[1,0.9659258127212524,0.9659258127212524],"min":[-1,-0.9659258127212524,-0.9659258127212524],"type":"VEC3"},{"bufferView":50,"componentType":5126,"count":120,"max":[0.22750000655651093,0.22750002145767212],"min":[0,0],"type":"VEC2"},{"bufferView":51,"componentType":5123,"count":144,"max":[119],"min":[0],"type":"SCALAR"},{"bufferView":52,"componentType":5126,"count":120,"max":[-1.1640625,0.5293750166893005,1.6543749570846558],"min":[-1.1921875476837158,0.34562501311302185,1.4706250429153442],"type":"VEC3"},{"bufferView":53,"componentType":5126,"count":120,"max":[1,0.9659258127212524,0.9659258127212524],"min":[-1,-0.9659258127212524,-0.9659258127212524],"type":"VEC3"},{"bufferView":54,"componentType":5126,"count":120,"max":[0.09187500178813934,0.09187501668930054],"min":[0,0],"type":"VEC2"},{"bufferView":55,"componentType":5123,"count":144,"max":[119],"min":[0],"type":"SCALAR"},{"bufferView":56,"componentType":5126,"count":24,"max":[1.212499976158142,0.59375,-1.537500023841858],"min":[1.1875,0.543749988079071,-1.587499976158142],"type":"VEC3"},{"bufferView":57,"componentType":5126,"count":24,"max":[1,1,1],"min":[-1,-1,-1],"type":"VEC3"},{"bufferView":58,"componentType":5126,"count":24,"max":[0.02500000037252903,0.02499997615814209],"min":[0,0],"type":"VEC2"},{"bufferView":59,"componentType":5123,"count":36,"max":[23],"min":[0],"type":"SCALAR"},{"bufferView":60,"componentType":5126,"count":24,"max":[1.212499976158142,0.4625000059604645,-1.40625],"min":[1.1875,0.4124999940395355,-1.4562499523162842],"type":"VEC3"},{"bufferView":61,"componentType":5126,"count":24,"max":[1,1,1],"min":[-1,-1,-1],"type":"VEC3"},{"bufferView":62,"componentType":5126,"count":24,"max":[0.02500000037252903,0.02499997615814209],"min":[0,0],"type":"VEC2"},{"bufferView":63,"componentType":5123,"count":36,"max":[23],"min":[0],"type":"SCALAR"},{"bufferView":64,"componentType":5126,"count":24,"max":[1.212499976158142,0.33125001192092896,-1.537500023841858],"min":[1.1875,0.28125,-1.587499976158142],"type":"VEC3"},{"bufferView":65,"componentType":5126,"count":24,"max":[1,1,1],"min":[-1,-1,-1],"type":"VEC3"},{"bufferView":66,"componentType":5126,"count":24,"max":[0.02500000037252903,0.02499997615814209],"min":[0,0],"type":"VEC2"},{"bufferView":67,"componentType":5123,"count":36,"max":[23],"min":[0],"type":"SCALAR"},{"bufferView":68,"componentType":5126,"count":24,"max":[1.212499976158142,0.4625000059604645,-1.6687500476837158],"min":[1.1875,0.4124999940395355,-1.71875],"type":"VEC3"},{"bufferView":69,"componentType":5126,"count":24,"max":[1,1,1],"min":[-1,-1,-1],"type":"VEC3"},{"bufferView":70,"componentType":5126,"count":24,"max":[0.02500000037252903,0.02499997615814209],"min":[0,0],"type":"VEC2"},{"bufferView":71,"componentType":5123,"count":36,"max":[23],"min":[0],"type":"SCALAR"},{"bufferView":72,"componentType":5126,"count":120,"max":[1.15625,0.875,-1.125],"min":[0.84375,0,-2],"type":"VEC3"},{"bufferView":73,"componentType":5126,"count":120,"max":[1,0.9659258127212524,0.9659258127212524],"min":[-1,-0.9659258127212524,-0.9659258127212524],"type":"VEC3"},{"bufferView":74,"componentType":5126,"count":120,"max":[0.4375,0.4375],"min":[0,0],"type":"VEC2"},{"bufferView":75,"componentType":5123,"count":144,"max":[119],"min":[0],"type":"SCALAR"},{"bufferView":76,"componentType":5126,"count":120,"max":[1.173437476158142,0.6650000214576721,-1.3350000381469727],"min":[1.1515624523162842,0.20999999344348907,-1.7899999618530273],"type":"VEC3"},{"bufferView":77,"componentType":5126,"count":120,"max":[1,0.9659258127212524,0.9659258127212524],"min":[-1,-0.9659258127212524,-0.9659258127212524],"type":"VEC3"},{"bufferView":78,"componentType":5126,"count":120,"max":[0.22750000655651093,0.22750002145767212],"min":[0,0],"type":"VEC2"},{"bufferView":79,"componentType":5123,"count":144,"max":[119],"min":[0],"type":"SCALAR"},{"bufferView":80,"componentType":5126,"count":120,"max":[1.1921875476837158,0.5293750166893005,-1.4706250429153442],"min":[1.1640625,0.34562501311302185,-1.6543749570846558],"type":"VEC3"},{"bufferView":81,"componentType":5126,"count":120,"max":[1,0.9659258127212524,0.9659258127212524],"min":[-1,-0.9659258127212524,-0.9659258127212524],"type":"VEC3"},{"bufferView":82,"componentType":5126,"count":120,"max":[0.09187500178813934,0.09187501668930054],"min":[0,0],"type":"VEC2"},{"bufferView":83,"componentType":5123,"count":144,"max":[119],"min":[0],"type":"SCALAR"},{"bufferView":84,"componentType":5126,"count":24,"max":[1.212499976158142,0.59375,1.587499976158142],"min":[1.1875,0.543749988079071,1.537500023841858],"type":"VEC3"},{"bufferView":85,"componentType":5126,"count":24,"max":[1,1,1],"min":[-1,-1,-1],"type":"VEC3"},{"bufferView":86,"componentType":5126,"count":24,"max":[0.02500000037252903,0.02499997615814209],"min":[0,0],"type":"VEC2"},{"bufferView":87,"componentType":5123,"count":36,"max":[23],"min":[0],"type":"SCALAR"},{"bufferView":88,"componentType":5126,"count":24,"max":[1.212499976158142,0.4625000059604645,1.71875],"min":[1.1875,0.4124999940395355,1.6687500476837158],"type":"VEC3"},{"bufferView":89,"componentType":5126,"count":24,"max":[1,1,1],"min":[-1,-1,-1],"type":"VEC3"},{"bufferView":90,"componentType":5126,"count":24,"max":[0.02500000037252903,0.02499997615814209],"min":[0,0],"type":"VEC2"},{"bufferView":91,"componentType":5123,"count":36,"max":[23],"min":[0],"type":"SCALAR"},{"bufferView":92,"componentType":5126,"count":24,"max":[1.212499976158142,0.33125001192092896,1.587499976158142],"min":[1.1875,0.28125,1.537500023841858],"type":"VEC3"},{"bufferView":93,"componentType":5126,"count":24,"max":[1,1,1],"min":[-1,-1,-1],"type":"VEC3"},{"bufferView":94,"componentType":5126,"count":24,"max":[0.02500000037252903,0.02499997615814209],"min":[0,0],"type":"VEC2"},{"bufferView":95,"componentType":5123,"count":36,"max":[23],"min":[0],"type":"SCALAR"},{"bufferView":96,"componentType":5126,"count":24,"max":[1.212499976158142,0.4625000059604645,1.4562499523162842],"min":[1.1875,0.4124999940395355,1.40625],"type":"VEC3"},{"bufferView":97,"componentType":5126,"count":24,"max":[1,1,1],"min":[-1,-1,-1],"type":"VEC3"},{"bufferView":98,"componentType":5126,"count":24,"max":[0.02500000037252903,0.02499997615814209],"min":[0,0],"type":"VEC2"},{"bufferView":99,"componentType":5123,"count":36,"max":[23],"min":[0],"type":"SCALAR"},{"bufferView":100,"componentType":5126,"count":120,"max":[1.15625,0.875,2],"min":[0.84375,0,1.125],"type":"VEC3"},{"bufferView":101,"componentType":5126,"count":120,"max":[1,0.9659258127212524,0.9659258127212524],"min":[-1,-0.9659258127212524,-0.9659258127212524],"type":"VEC3"},{"bufferView":102,"componentType":5126,"count":120,"max":[0.4375,0.4375],"min":[0,0],"type":"VEC2"},{"bufferView":103,"componentType":5123,"count":144,"max":[119],"min":[0],"type":"SCALAR"},{"bufferView":104,"componentType":5126,"count":120,"max":[1.173437476158142,0.6650000214576721,1.7899999618530273],"min":[1.1515624523162842,0.20999999344348907,1.3350000381469727],"type":"VEC3"},{"bufferView":105,"componentType":5126,"count":120,"max":[1,0.9659258127212524,0.9659258127212524],"min":[-1,-0.9659258127212524,-0.9659258127212524],"type":"VEC3"},{"bufferView":106,"componentType":5126,"count":120,"max":[0.22750000655651093,0.22750002145767212],"min":[0,0],"type":"VEC2"},{"bufferView":107,"componentType":5123,"count":144,"max":[119],"min":[0],"type":"SCALAR"},{"bufferView":108,"componentType":5126,"count":120,"max":[1.1921875476837158,0.5293750166893005,1.6543749570846558],"min":[1.1640625,0.34562501311302185,1.4706250429153442],"type":"VEC3"},{"bufferView":109,"componentType":5126,"count":120,"max":[1,0.9659258127212524,0.9659258127212524],"min":[-1,-0.9659258127212524,-0.9659258127212524],"type":"VEC3"},{"bufferView":110,"componentType":5126,"count":120,"max":[0.09187500178813934,0.09187501668930054],"min":[0,0],"type":"VEC2"},{"bufferView":111,"componentType":5123,"count":144,"max":[119],"min":[0],"type":"SCALAR"},{"bufferView":112,"componentType":5126,"count":76,"max":[0.8125,0.875,2.375],"min":[-0.8125,0.3125,-2.375],"type":"VEC3"},{"bufferView":113,"componentType":5126,"count":76,"max":[1,0,1],"min":[-1,-1,-1],"type":"VEC3"},{"bufferView":114,"componentType":5126,"count":76,"max":[2.375,2.375],"min":[0,0],"type":"VEC2"},{"bufferView":115,"componentType":5123,"count":114,"max":[75],"min":[0],"type":"SCALAR"},{"bufferView":116,"componentType":5126,"count":96,"max":[1,1.125,2.375],"min":[-1,0.875,-2.375],"type":"VEC3"},{"bufferView":117,"componentType":5126,"count":96,"max":[1,1,1],"min":[-1,-1,-1],"type":"VEC3"},{"bufferView":118,"componentType":5126,"count":96,"max":[2.375,2.375],"min":[0,0],"type":"VEC2"},{"bufferView":119,"componentType":5123,"count":144,"max":[95],"min":[0],"type":"SCALAR"},{"bufferView":120,"componentType":5126,"count":24,"max":[-0.8125,0.875,-2.0625],"min":[-1,0.375,-2.375],"type":"VEC3"},{"bufferView":121,"componentType":5126,"count":24,"max":[0,0,1],"min":[-1,-1,-1],"type":"VEC3"},{"bufferView":122,"componentType":5126,"count":24,"max":[0.15625,0.25],"min":[0,0],"type":"VEC2"},{"bufferView":123,"componentType":5123,"count":36,"max":[23],"min":[0],"type":"SCALAR"},{"bufferView":124,"componentType":5126,"count":20,"max":[-0.8125,0.875,1.0625],"min":[-1,0.375,-1.0625],"type":"VEC3"},{"bufferView":125,"componentType":5126,"count":20,"max":[0,0,1],"min":[-1,-1,-1],"type":"VEC3"},{"bufferView":126,"componentType":5126,"count":20,"max":[1.0625,1.0625],"min":[0,0],"type":"VEC2"},{"bufferView":127,"componentType":5123,"count":30,"max":[19],"min":[0],"type":"SCALAR"},{"bufferView":128,"componentType":5126,"count":24,"max":[-0.8125,0.875,2.375],"min":[-1,0.375,2.0625],"type":"VEC3"},{"bufferView":129,"componentType":5126,"count":24,"max":[0,0,1],"min":[-1,-1,-1],"type":"VEC3"},{"bufferView":130,"componentType":5126,"count":24,"max":[0.15625,0.25],"min":[0,0],"type":"VEC2"},{"bufferView":131,"componentType":5123,"count":36,"max":[23],"min":[0],"type":"SCALAR"},{"bufferView":132,"componentType":5126,"count":28,"max":[-1,0.4375,1.0625],"min":[-1.03125,0.3125,-1.0625],"type":"VEC3"},{"bufferView":133,"componentType":5126,"count":28,"max":[1,1,1],"min":[-1,-1,-1],"type":"VEC3"},{"bufferView":134,"componentType":5126,"count":28,"max":[1.0625,1.0625],"min":[0,0],"type":"VEC2"},{"bufferView":135,"componentType":5123,"count":42,"max":[27],"min":[0],"type":"SCALAR"},{"bufferView":136,"componentType":5126,"count":24,"max":[-1,1.0625,2.3125],"min":[-1.03125,1,-2.3125],"type":"VEC3"},{"bufferView":137,"componentType":5126,"count":24,"max":[0,1,1],"min":[-1,-1,-1],"type":"VEC3"},{"bufferView":138,"componentType":5126,"count":24,"max":[2.3125,2.3125],"min":[0,0],"type":"VEC2"},{"bufferView":139,"componentType":5123,"count":36,"max":[23],"min":[0],"type":"SCALAR"},{"bufferView":140,"componentType":5126,"count":12,"max":[-1,1,0.09375],"min":[-1.03125,0.4375,0.0625],"type":"VEC3"},{"bufferView":141,"componentType":5126,"count":12,"max":[0,0,1],"min":[-1,0,-1],"type":"VEC3"},{"bufferView":142,"componentType":5126,"count":12,"max":[0.015625,0.28125],"min":[0,0],"type":"VEC2"},{"bufferView":143,"componentType":5123,"count":18,"max":[11],"min":[0],"type":"SCALAR"},{"bufferView":144,"componentType":5126,"count":20,"max":[-1.015625,1.1875,0.0625],"min":[-1.03125,1.125,-0.125],"type":"VEC3"},{"bufferView":145,"componentType":5126,"count":20,"max":[0,1,1],"min":[-1,-1,-1],"type":"VEC3"},{"bufferView":146,"componentType":5126,"count":20,"max":[0.09375,0.09375],"min":[0,0],"type":"VEC2"},{"bufferView":147,"componentType":5123,"count":30,"max":[19],"min":[0],"type":"SCALAR"},{"bufferView":148,"componentType":5126,"count":32,"max":[-1,1.5,-0.875],"min":[-1.125,1.375,-1.0625],"type":"VEC3"},{"bufferView":149,"componentType":5126,"count":32,"max":[1,1,1],"min":[-1,-1,-1],"type":"VEC3"},{"bufferView":150,"componentType":5126,"count":32,"max":[0.09375,0.09375],"min":[0,0],"type":"VEC2"},{"bufferView":151,"componentType":5123,"count":48,"max":[31],"min":[0],"type":"SCALAR"},{"bufferView":152,"componentType":5126,"count":20,"max":[-0.859375,1.421875,-0.9375],"min":[-1,1.375,-1],"type":"VEC3"},{"bufferView":153,"componentType":5126,"count":20,"max":[1,1,1],"min":[0,-1,-1],"type":"VEC3"},{"bufferView":154,"componentType":5126,"count":20,"max":[0.0703125,0.03125],"min":[0,0],"type":"VEC2"},{"bufferView":155,"componentType":5123,"count":30,"max":[19],"min":[0],"type":"SCALAR"},{"bufferView":156,"componentType":5126,"count":24,"max":[1,0.875,-2.0625],"min":[0.8125,0.375,-2.375],"type":"VEC3"},{"bufferView":157,"componentType":5126,"count":24,"max":[1,0,1],"min":[0,-1,-1],"type":"VEC3"},{"bufferView":158,"componentType":5126,"count":24,"max":[0.15625,0.25],"min":[0,0],"type":"VEC2"},{"bufferView":159,"componentType":5123,"count":36,"max":[23],"min":[0],"type":"SCALAR"},{"bufferView":160,"componentType":5126,"count":20,"max":[1,0.875,1.0625],"min":[0.8125,0.375,-1.0625],"type":"VEC3"},{"bufferView":161,"componentType":5126,"count":20,"max":[1,0,1],"min":[0,-1,-1],"type":"VEC3"},{"bufferView":162,"componentType":5126,"count":20,"max":[1.0625,1.0625],"min":[0,0],"type":"VEC2"},{"bufferView":163,"componentType":5123,"count":30,"max":[19],"min":[0],"type":"SCALAR"},{"bufferView":164,"componentType":5126,"count":24,"max":[1,0.875,2.375],"min":[0.8125,0.375,2.0625],"type":"VEC3"},{"bufferView":165,"componentType":5126,"count":24,"max":[1,0,1],"min":[0,-1,-1],"type":"VEC3"},{"bufferView":166,"componentType":5126,"count":24,"max":[0.15625,0.25],"min":[0,0],"type":"VEC2"},{"bufferView":167,"componentType":5123,"count":36,"max":[23],"min":[0],"type":"SCALAR"},{"bufferView":168,"componentType":5126,"count":28,"max":[1.03125,0.4375,1.0625],"min":[1,0.3125,-1.0625],"type":"VEC3"},{"bufferView":169,"componentType":5126,"count":28,"max":[1,1,1],"min":[-1,-1,-1],"type":"VEC3"},{"bufferView":170,"componentType":5126,"count":28,"max":[1.0625,1.0625],"min":[0,0],"type":"VEC2"},{"bufferView":171,"componentType":5123,"count":42,"max":[27],"min":[0],"type":"SCALAR"},{"bufferView":172,"componentType":5126,"count":24,"max":[1.03125,1.0625,2.3125],"min":[1,1,-2.3125],"type":"VEC3"},{"bufferView":173,"componentType":5126,"count":24,"max":[1,1,1],"min":[0,-1,-1],"type":"VEC3"},{"bufferView":174,"componentType":5126,"count":24,"max":[2.3125,2.3125],"min":[0,0],"type":"VEC2"},{"bufferView":175,"componentType":5123,"count":36,"max":[23],"min":[0],"type":"SCALAR"},{"bufferView":176,"componentType":5126,"count":12,"max":[1.03125,1,0.09375],"min":[1,0.4375,0.0625],"type":"VEC3"},{"bufferView":177,"componentType":5126,"count":12,"max":[1,0,1],"min":[0,0,-1],"type":"VEC3"},{"bufferView":178,"componentType":5126,"count":12,"max":[0.015625,0.28125],"min":[0,0],"type":"VEC2"},{"bufferView":179,"componentType":5123,"count":18,"max":[11],"min":[0],"type":"SCALAR"},{"bufferView":180,"componentType":5126,"count":20,"max":[1.03125,1.1875,0.0625],"min":[1.015625,1.125,-0.125],"type":"VEC3"},{"bufferView":181,"componentType":5126,"count":20,"max":[1,1,1],"min":[0,-1,-1],"type":"VEC3"},{"bufferView":182,"componentType":5126,"count":20,"max":[0.09375,0.09375],"min":[0,0],"type":"VEC2"},{"bufferView":183,"componentType":5123,"count":30,"max":[19],"min":[0],"type":"SCALAR"},{"bufferView":184,"componentType":5126,"count":32,"max":[1.125,1.5,-0.875],"min":[1,1.375,-1.0625],"type":"VEC3"},{"bufferView":185,"componentType":5126,"count":32,"max":[1,1,1],"min":[-1,-1,-1],"type":"VEC3"},{"bufferView":186,"componentType":5126,"count":32,"max":[0.09375,0.09375],"min":[0,0],"type":"VEC2"},{"bufferView":187,"componentType":5123,"count":48,"max":[31],"min":[0],"type":"SCALAR"},{"bufferView":188,"componentType":5126,"count":20,"max":[1,1.421875,-0.9375],"min":[0.859375,1.375,-1],"type":"VEC3"},{"bufferView":189,"componentType":5126,"count":20,"max":[0,1,1],"min":[-1,-1,-1],"type":"VEC3"},{"bufferView":190,"componentType":5126,"count":20,"max":[0.0703125,0.03125],"min":[0,0],"type":"VEC2"},{"bufferView":191,"componentType":5123,"count":30,"max":[19],"min":[0],"type":"SCALAR"},{"bufferView":192,"componentType":5126,"count":112,"max":[-0.921875,2.1875,2.1875],"min":[-1.015625,1.25,-0.625],"type":"VEC3"},{"bufferView":193,"componentType":5126,"count":112,"max":[1,1,1],"min":[-1,0,-1],"type":"VEC3"},{"bufferView":194,"componentType":5126,"count":112,"max":[1.40625,1.40625],"min":[0,0],"type":"VEC2"},{"bufferView":195,"componentType":5123,"count":168,"max":[111],"min":[0],"type":"SCALAR"},{"bufferView":196,"componentType":5126,"count":20,"max":[-0.921875,2.1875,0.90625],"min":[-1.015625,1.25,0.875],"type":"VEC3"},{"bufferView":197,"componentType":5126,"count":20,"max":[1,1,0],"min":[-1,0,0],"type":"VEC3"},{"bufferView":198,"componentType":5126,"count":20,"max":[0.046875,0.46875],"min":[0,0],"type":"VEC2"},{"bufferView":199,"componentType":5123,"count":30,"max":[19],"min":[0],"type":"SCALAR"},{"bufferView":200,"componentType":5126,"count":8,"max":[-0.921875,1.5,0.9375],"min":[-1.015625,1.4375,0.75],"type":"VEC3"},{"bufferView":201,"componentType":5126,"count":8,"max":[1,0,0],"min":[-1,0,0],"type":"VEC3"},{"bufferView":202,"componentType":5126,"count":8,"max":[0.09375,0.03125],"min":[0,0],"type":"VEC2"},{"bufferView":203,"componentType":5123,"count":12,"max":[7],"min":[0],"type":"SCALAR"},{"bufferView":204,"componentType":5126,"count":36,"max":[-0.921875,1.25,2.25],"min":[-1.015625,1.125,-2.125],"type":"VEC3"},{"bufferView":205,"componentType":5126,"count":36,"max":[1,1,1],"min":[-1,-1,-1],"type":"VEC3"},{"bufferView":206,"componentType":5126,"count":36,"max":[2.1875,2.1875],"min":[0,0],"type":"VEC2"},{"bufferView":207,"componentType":5123,"count":54,"max":[35],"min":[0],"type":"SCALAR"},{"bufferView":208,"componentType":5126,"count":16,"max":[-0.921875,2,0.3125],"min":[-1.015625,1.5,0.1875],"type":"VEC3"},{"bufferView":209,"componentType":5126,"count":16,"max":[1,0,0],"min":[-1,0,0],"type":"VEC3"},{"bufferView":210,"componentType":5126,"count":16,"max":[0.0625,0.25],"min":[0,0],"type":"VEC2"},{"bufferView":211,"componentType":5123,"count":24,"max":[15],"min":[0],"type":"SCALAR"},{"bufferView":212,"componentType":5126,"count":8,"max":[-0.921875,1.8125,0.5],"min":[-1.015625,1.6875,0],"type":"VEC3"},{"bufferView":213,"componentType":5126,"count":8,"max":[1,0,0],"min":[-1,0,0],"type":"VEC3"},{"bufferView":214,"componentType":5126,"count":8,"max":[0.25,0.0625],"min":[0,0],"type":"VEC2"},{"bufferView":215,"componentType":5123,"count":12,"max":[7],"min":[0],"type":"SCALAR"},{"bufferView":216,"componentType":5126,"count":112,"max":[1.015625,2.1875,2.1875],"min":[0.921875,1.25,-0.625],"type":"VEC3"},{"bufferView":217,"componentType":5126,"count":112,"max":[1,1,1],"min":[-1,0,-1],"type":"VEC3"},{"bufferView":218,"componentType":5126,"count":112,"max":[1.40625,1.40625],"min":[0,0],"type":"VEC2"},{"bufferView":219,"componentType":5123,"count":168,"max":[111],"min":[0],"type":"SCALAR"},{"bufferView":220,"componentType":5126,"count":20,"max":[1.015625,2.1875,0.90625],"min":[0.921875,1.25,0.875],"type":"VEC3"},{"bufferView":221,"componentType":5126,"count":20,"max":[1,1,0],"min":[-1,0,0],"type":"VEC3"},{"bufferView":222,"componentType":5126,"count":20,"max":[0.046875,0.46875],"min":[0,0],"type":"VEC2"},{"bufferView":223,"componentType":5123,"count":30,"max":[19],"min":[0],"type":"SCALAR"},{"bufferView":224,"componentType":5126,"count":8,"max":[1.015625,1.5,0.9375],"min":[0.921875,1.4375,0.75],"type":"VEC3"},{"bufferView":225,"componentType":5126,"count":8,"max":[1,0,0],"min":[-1,0,0],"type":"VEC3"},{"bufferView":226,"componentType":5126,"count":8,"max":[0.09375,0.03125],"min":[0,0],"type":"VEC2"},{"bufferView":227,"componentType":5123,"count":12,"max":[7],"min":[0],"type":"SCALAR"},{"bufferView":228,"componentType":5126,"count":36,"max":[1.015625,1.25,2.25],"min":[0.921875,1.125,-2.125],"type":"VEC3"},{"bufferView":229,"componentType":5126,"count":36,"max":[1,1,1],"min":[-1,-1,-1],"type":"VEC3"},{"bufferView":230,"componentType":5126,"count":36,"max":[2.1875,2.1875],"min":[0,0],"type":"VEC2"},{"bufferView":231,"componentType":5123,"count":54,"max":[35],"min":[0],"type":"SCALAR"},{"bufferView":232,"componentType":5126,"count":16,"max":[1.015625,2,0.3125],"min":[0.921875,1.5,0.1875],"type":"VEC3"},{"bufferView":233,"componentType":5126,"count":16,"max":[1,0,0],"min":[-1,0,0],"type":"VEC3"},{"bufferView":234,"componentType":5126,"count":16,"max":[0.0625,0.25],"min":[0,0],"type":"VEC2"},{"bufferView":235,"componentType":5123,"count":24,"max":[15],"min":[0],"type":"SCALAR"},{"bufferView":236,"componentType":5126,"count":8,"max":[1.015625,1.8125,0.5],"min":[0.921875,1.6875,0],"type":"VEC3"},{"bufferView":237,"componentType":5126,"count":8,"max":[1,0,0],"min":[-1,0,0],"type":"VEC3"},{"bufferView":238,"componentType":5126,"count":8,"max":[0.25,0.0625],"min":[0,0],"type":"VEC2"},{"bufferView":239,"componentType":5123,"count":12,"max":[7],"min":[0],"type":"SCALAR"},{"bufferView":240,"componentType":5126,"count":20,"max":[0.015625,2.25,2.34375],"min":[-0.015625,1.125,2.3203125],"type":"VEC3"},{"bufferView":241,"componentType":5126,"count":20,"max":[1,1,1],"min":[-1,0,-1],"type":"VEC3"},{"bufferView":242,"componentType":5126,"count":20,"max":[0.015625,0.5625],"min":[0,0],"type":"VEC2"},{"bufferView":243,"componentType":5123,"count":30,"max":[19],"min":[0],"type":"SCALAR"},{"bufferView":244,"componentType":5126,"count":24,"max":[-0.09375,2.125,2.34375],"min":[-0.8125,1.5,2.3203125],"type":"VEC3"},{"bufferView":245,"componentType":5126,"count":24,"max":[1,1,1],"min":[-1,-1,-1],"type":"VEC3"},{"bufferView":246,"componentType":5126,"count":24,"max":[0.359375,0.3125],"min":[0,0],"type":"VEC2"},{"bufferView":247,"componentType":5123,"count":36,"max":[23],"min":[0],"type":"SCALAR"},{"bufferView":248,"componentType":5126,"count":24,"max":[0.8125,2.125,2.34375],"min":[0.09375,1.5,2.3203125],"type":"VEC3"},{"bufferView":249,"componentType":5126,"count":24,"max":[1,1,1],"min":[-1,-1,-1],"type":"VEC3"},{"bufferView":250,"componentType":5126,"count":24,"max":[0.359375,0.3125],"min":[0,0],"type":"VEC2"},{"bufferView":251,"componentType":5123,"count":36,"max":[23],"min":[0],"type":"SCALAR"},{"bufferView":252,"componentType":5126,"count":36,"max":[1,2.375,2.375],"min":[-1,2.3203125,-1.625],"type":"VEC3"},{"bufferView":253,"componentType":5126,"count":36,"max":[1,1,1],"min":[-1,-1,-1],"type":"VEC3"},{"bufferView":254,"componentType":5126,"count":36,"max":[2,2],"min":[0,0],"type":"VEC2"},{"bufferView":255,"componentType":5123,"count":54,"max":[35],"min":[0],"type":"SCALAR"},{"bufferView":256,"componentType":5126,"count":24,"max":[0.625,2.4375,-1.125],"min":[-0.625,2.375,-1.4375],"type":"VEC3"},{"bufferView":257,"componentType":5126,"count":24,"max":[1,1,1],"min":[-1,0,-1],"type":"VEC3"},{"bufferView":258,"componentType":5126,"count":24,"max":[0.625,0.15625],"min":[0,0],"type":"VEC2"},{"bufferView":259,"componentType":5123,"count":36,"max":[23],"min":[0],"type":"SCALAR"},{"bufferView":260,"componentType":5126,"count":20,"max":[0.5625,2.5625,-1.125],"min":[-0.5625,2.4375,-1.4375],"type":"VEC3"},{"bufferView":261,"componentType":5126,"count":20,"max":[1,1,1],"min":[-1,0,-1],"type":"VEC3"},{"bufferView":262,"componentType":5126,"count":20,"max":[0.5625,0.15625],"min":[0,0],"type":"VEC2"},{"bufferView":263,"componentType":5123,"count":30,"max":[19],"min":[0],"type":"SCALAR"},{"bufferView":264,"componentType":5126,"count":40,"max":[1,0.5,-2.375],"min":[-1,0.3125,-2.4375],"type":"VEC3"},{"bufferView":265,"componentType":5126,"count":40,"max":[1,1,1],"min":[-1,-1,-1],"type":"VEC3"},{"bufferView":266,"componentType":5126,"count":40,"max":[1,0.09375],"min":[0,0],"type":"VEC2"},{"bufferView":267,"componentType":5123,"count":60,"max":[39],"min":[0],"type":"SCALAR"},{"bufferView":268,"componentType":5126,"count":20,"max":[-0.5625,0.8125,-2.375],"min":[-0.875,0.625,-2.4375],"type":"VEC3"},{"bufferView":269,"componentType":5126,"count":20,"max":[1,1,0],"min":[-1,-1,-1],"type":"VEC3"},{"bufferView":270,"componentType":5126,"count":20,"max":[0.15625,0.09375],"min":[0,0],"type":"VEC2"},{"bufferView":271,"componentType":5123,"count":30,"max":[19],"min":[0],"type":"SCALAR"},{"bufferView":272,"componentType":5126,"count":20,"max":[0.875,0.8125,-2.375],"min":[0.5625,0.625,-2.4375],"type":"VEC3"},{"bufferView":273,"componentType":5126,"count":20,"max":[1,1,0],"min":[-1,-1,-1],"type":"VEC3"},{"bufferView":274,"componentType":5126,"count":20,"max":[0.15625,0.09375],"min":[0,0],"type":"VEC2"},{"bufferView":275,"componentType":5123,"count":30,"max":[19],"min":[0],"type":"SCALAR"},{"bufferView":276,"componentType":5126,"count":28,"max":[1,0.5,2.4375],"min":[-1,0.3125,2.375],"type":"VEC3"},{"bufferView":277,"componentType":5126,"count":28,"max":[1,1,1],"min":[-1,-1,-1],"type":"VEC3"},{"bufferView":278,"componentType":5126,"count":28,"max":[1,0.09375],"min":[0,0],"type":"VEC2"},{"bufferView":279,"componentType":5123,"count":42,"max":[27],"min":[0],"type":"SCALAR"},{"bufferView":280,"componentType":5126,"count":20,"max":[-0.5625,0.8125,2.4375],"min":[-0.875,0.625,2.375],"type":"VEC3"},{"bufferView":281,"componentType":5126,"count":20,"max":[1,1,1],"min":[-1,-1,0],"type":"VEC3"},{"bufferView":282,"componentType":5126,"count":20,"max":[0.15625,0.09375],"min":[0,0],"type":"VEC2"},{"bufferView":283,"componentType":5123,"count":30,"max":[19],"min":[0],"type":"SCALAR"},{"bufferView":284,"componentType":5126,"count":20,"max":[0.875,0.8125,2.4375],"min":[0.5625,0.625,2.375],"type":"VEC3"},{"bufferView":285,"componentType":5126,"count":20,"max":[1,1,1],"min":[-1,-1,0],"type":"VEC3"},{"bufferView":286,"componentType":5126,"count":20,"max":[0.15625,0.09375],"min":[0,0],"type":"VEC2"},{"bufferView":287,"componentType":5123,"count":30,"max":[19],"min":[0],"type":"SCALAR"},{"bufferView":288,"componentType":5126,"count":36,"max":[0.375,0.875,-2.375],"min":[-0.375,0.5625,-2.40625],"type":"VEC3"},{"bufferView":289,"componentType":5126,"count":36,"max":[1,1,0],"min":[-1,-1,-1],"type":"VEC3"},{"bufferView":290,"componentType":5126,"count":36,"max":[0.375,0.15625],"min":[0,0],"type":"VEC2"},{"bufferView":291,"componentType":5123,"count":54,"max":[35],"min":[0],"type":"SCALAR"},{"bufferView":292,"componentType":5126,"count":20,"max":[0.3125,0.65625,-2.40625],"min":[-0.3125,0.625,-2.421875],"type":"VEC3"},{"bufferView":293,"componentType":5126,"count":20,"max":[1,1,0],"min":[-1,-1,-1],"type":"VEC3"},{"bufferView":294,"componentType":5126,"count":20,"max":[0.3125,0.015625],"min":[0,0],"type":"VEC2"},{"bufferView":295,"componentType":5123,"count":30,"max":[19],"min":[0],"type":"SCALAR"},{"bufferView":296,"componentType":5126,"count":20,"max":[0.3125,0.78125,-2.40625],"min":[-0.3125,0.75,-2.421875],"type":"VEC3"},{"bufferView":297,"componentType":5126,"count":20,"max":[1,1,0],"min":[-1,-1,-1],"type":"VEC3"},{"bufferView":298,"componentType":5126,"count":20,"max":[0.3125,0.015625],"min":[0,0],"type":"VEC2"},{"bufferView":299,"componentType":5123,"count":30,"max":[19],"min":[0],"type":"SCALAR"},{"bufferView":300,"componentType":5126,"count":20,"max":[0.1875,0.46875,-2.4375],"min":[-0.1875,0.34375,-2.453125],"type":"VEC3"},{"bufferView":301,"componentType":5126,"count":20,"max":[1,1,0],"min":[-1,-1,-1],"type":"VEC3"},{"bufferView":302,"componentType":5126,"count":20,"max":[0.1875,0.0625],"min":[0,0],"type":"VEC2"},{"bufferView":303,"componentType":5123,"count":30,"max":[19],"min":[0],"type":"SCALAR"},{"bufferView":304,"componentType":5126,"count":4,"max":[0.9375,2.3125,-1.625],"min":[-0.9375,1.125,-2.0625],"type":"VEC3"},{"bufferView":305,"componentType":5126,"count":4,"max":[0,0.3457053601741791,-0.9383431077003479],"min":[0,0.3457053601741791,-0.9383431077003479],"type":"VEC3"},{"bufferView":306,"componentType":5126,"count":4,"max":[0.9375,0.6327642798423767],"min":[0,0],"type":"VEC2"},{"bufferView":307,"componentType":5123,"count":6,"max":[3],"min":[0],"type":"SCALAR"},{"bufferView":308,"componentType":5126,"count":4,"max":[0.9375,2.3125,2.3125],"min":[-0.9375,1.125,2.3125],"type":"VEC3"},{"bufferView":309,"componentType":5126,"count":4,"max":[0,0,1],"min":[0,0,1],"type":"VEC3"},{"bufferView":310,"componentType":5126,"count":4,"max":[0.9375,0.59375],"min":[0,0],"type":"VEC2"},{"bufferView":311,"componentType":5123,"count":6,"max":[3],"min":[0],"type":"SCALAR"},{"bufferView":312,"componentType":5126,"count":4,"max":[0.9375,2.3125,2.3125],"min":[-0.9375,2.3125,-1.625],"type":"VEC3"},{"bufferView":313,"componentType":5126,"count":4,"max":[0,1,0],"min":[0,1,0],"type":"VEC3"},{"bufferView":314,"componentType":5126,"count":4,"max":[0.9375,1.96875],"min":[0,0],"type":"VEC2"},{"bufferView":315,"componentType":5123,"count":6,"max":[3],"min":[0],"type":"SCALAR"},{"bufferView":316,"componentType":5126,"count":4,"max":[-0.9375,2.3125,2.3125],"min":[-0.9375,1.125,-2.0625],"type":"VEC3"},{"bufferView":317,"componentType":5126,"count":4,"max":[-1,0,0],"min":[-1,0,0],"type":"VEC3"},{"bufferView":318,"componentType":5126,"count":4,"max":[2.1875,0.59375],"min":[0,0],"type":"VEC2"},{"bufferView":319,"componentType":5123,"count":6,"max":[3],"min":[0],"type":"SCALAR"},{"bufferView":320,"componentType":5126,"count":4,"max":[0.9375,2.3125,2.3125],"min":[0.9375,1.125,-2.0625],"type":"VEC3"},{"bufferView":321,"componentType":5126,"count":4,"max":[1,0,0],"min":[1,0,0],"type":"VEC3"},{"bufferView":322,"componentType":5126,"count":4,"max":[1.96875,0.59375],"min":[0,0],"type":"VEC2"},{"bufferView":323,"componentType":5123,"count":6,"max":[3],"min":[0],"type":"SCALAR"},{"bufferView":324,"componentType":5126,"count":4,"max":[0.8125,2.098750114440918,-1.7193750143051147],"min":[-0.8125,1.3268749713897705,-2.0037500858306885],"type":"VEC3"},{"bufferView":325,"componentType":5126,"count":4,"max":[0,0.3457053601741791,-0.9383431077003479],"min":[0,0.3457053601741791,-0.9383431077003479],"type":"VEC3"},{"bufferView":326,"componentType":5126,"count":4,"max":[0.8125,0.4112967848777771],"min":[0,0],"type":"VEC2"},{"bufferView":327,"componentType":5123,"count":6,"max":[3],"min":[0],"type":"SCALAR"},{"bufferView":328,"componentType":5126,"count":4,"max":[-0.953125,2.1875,-0.75],"min":[-0.953125,1.25,-1.9539474248886108],"type":"VEC3"},{"bufferView":329,"componentType":5126,"count":4,"max":[-1,0,0],"min":[-1,0,0],"type":"VEC3"},{"bufferView":330,"componentType":5126,"count":4,"max":[0.6019737124443054,0.46875],"min":[0,0],"type":"VEC2"},{"bufferView":331,"componentType":5123,"count":6,"max":[3],"min":[0],"type":"SCALAR"},{"bufferView":332,"componentType":5126,"count":4,"max":[0.953125,2.1875,-0.75],"min":[0.953125,1.25,-1.9539474248886108],"type":"VEC3"},{"bufferView":333,"componentType":5126,"count":4,"max":[1,0,0],"min":[1,0,0],"type":"VEC3"},{"bufferView":334,"componentType":5126,"count":4,"max":[0.42927631735801697,0.46875],"min":[0,0],"type":"VEC2"},{"bufferView":335,"componentType":5123,"count":6,"max":[3],"min":[0],"type":"SCALAR"}],"materials":[{"pbrMetallicRoughness":{"metallicFactor":0,"roughnessFactor":1,"baseColorTexture":{"index":0}},"alphaMode":"MASK","alphaCutoff":0.05,"doubleSided":true},{"pbrMetallicRoughness":{"metallicFactor":0,"roughnessFactor":1,"baseColorTexture":{"index":1}},"alphaMode":"MASK","alphaCutoff":0.05,"doubleSided":true},{"pbrMetallicRoughness":{"metallicFactor":0,"roughnessFactor":1,"baseColorTexture":{"index":2}},"alphaMode":"MASK","alphaCutoff":0.05,"doubleSided":true},{"pbrMetallicRoughness":{"metallicFactor":0,"roughnessFactor":1,"baseColorTexture":{"index":3}},"alphaMode":"MASK","alphaCutoff":0.05,"doubleSided":true},{"pbrMetallicRoughness":{"metallicFactor":0,"roughnessFactor":1,"baseColorTexture":{"index":4}},"alphaMode":"MASK","alphaCutoff":0.05,"doubleSided":true}],"textures":[{"sampler":0,"source":0,"name":"vehicle_metal.png"},{"sampler":1,"source":1,"name":"vehicle_trim.png"},{"sampler":2,"source":2,"name":"vehicle_cream.png"},{"sampler":3,"source":3,"name":"vehicle_rust.png"},{"sampler":4,"source":4,"name":"vehicle_glass.png"}],"samplers":[{"magFilter":9728,"minFilter":9728,"wrapS":10497,"wrapT":10497},{"magFilter":9728,"minFilter":9728,"wrapS":10497,"wrapT":10497},{"magFilter":9728,"minFilter":9728,"wrapS":10497,"wrapT":10497},{"magFilter":9728,"minFilter":9728,"wrapS":10497,"wrapT":10497},{"magFilter":9728,"minFilter":9728,"wrapS":10497,"wrapT":10497}],"images":[{"mimeType":"image/png","uri":"../textures/vehicle_metal.png","name":"vehicle_metal"},{"mimeType":"image/png","uri":"../textures/vehicle_trim.png","name":"vehicle_trim"},{"mimeType":"image/png","uri":"../textures/vehicle_cream.png","name":"vehicle_cream"},{"mimeType":"image/png","uri":"../textures/vehicle_rust.png","name":"vehicle_rust"},{"mimeType":"image/png","uri":"../textures/vehicle_glass.png","name":"vehicle_glass"}],"meshes":[{"primitives":[{"mode":4,"attributes":{"POSITION":0,"NORMAL":1,"TEXCOORD_0":2},"indices":3,"material":0}]},{"primitives":[{"mode":4,"attributes":{"POSITION":4,"NORMAL":5,"TEXCOORD_0":6},"indices":7,"material":0}]},{"primitives":[{"mode":4,"attributes":{"POSITION":8,"NORMAL":9,"TEXCOORD_0":10},"indices":11,"material":0}]},{"primitives":[{"mode":4,"attributes":{"POSITION":12,"NORMAL":13,"TEXCOORD_0":14},"indices":15,"material":0}]},{"primitives":[{"mode":4,"attributes":{"POSITION":16,"NORMAL":17,"TEXCOORD_0":18},"indices":19,"material":1}]},{"primitives":[{"mode":4,"attributes":{"POSITION":20,"NORMAL":21,"TEXCOORD_0":22},"indices":23,"material":0}]},{"primitives":[{"mode":4,"attributes":{"POSITION":24,"NORMAL":25,"TEXCOORD_0":26},"indices":27,"material":1}]},{"primitives":[{"mode":4,"attributes":{"POSITION":28,"NORMAL":29,"TEXCOORD_0":30},"indices":31,"material":0}]},{"primitives":[{"mode":4,"attributes":{"POSITION":32,"NORMAL":33,"TEXCOORD_0":34},"indices":35,"material":0}]},{"primitives":[{"mode":4,"attributes":{"POSITION":36,"NORMAL":37,"TEXCOORD_0":38},"indices":39,"material":0}]},{"primitives":[{"mode":4,"attributes":{"POSITION":40,"NORMAL":41,"TEXCOORD_0":42},"indices":43,"material":0}]},{"primitives":[{"mode":4,"attributes":{"POSITION":44,"NORMAL":45,"TEXCOORD_0":46},"indices":47,"material":1}]},{"primitives":[{"mode":4,"attributes":{"POSITION":48,"NORMAL":49,"TEXCOORD_0":50},"indices":51,"material":0}]},{"primitives":[{"mode":4,"attributes":{"POSITION":52,"NORMAL":53,"TEXCOORD_0":54},"indices":55,"material":1}]},{"primitives":[{"mode":4,"attributes":{"POSITION":56,"NORMAL":57,"TEXCOORD_0":58},"indices":59,"material":0}]},{"primitives":[{"mode":4,"attributes":{"POSITION":60,"NORMAL":61,"TEXCOORD_0":62},"indices":63,"material":0}]},{"primitives":[{"mode":4,"attributes":{"POSITION":64,"NORMAL":65,"TEXCOORD_0":66},"indices":67,"material":0}]},{"primitives":[{"mode":4,"attributes":{"POSITION":68,"NORMAL":69,"TEXCOORD_0":70},"indices":71,"material":0}]},{"primitives":[{"mode":4,"attributes":{"POSITION":72,"NORMAL":73,"TEXCOORD_0":74},"indices":75,"material":1}]},{"primitives":[{"mode":4,"attributes":{"POSITION":76,"NORMAL":77,"TEXCOORD_0":78},"indices":79,"material":0}]},{"primitives":[{"mode":4,"attributes":{"POSITION":80,"NORMAL":81,"TEXCOORD_0":82},"indices":83,"material":1}]},{"primitives":[{"mode":4,"attributes":{"POSITION":84,"NORMAL":85,"TEXCOORD_0":86},"indices":87,"material":0}]},{"primitives":[{"mode":4,"attributes":{"POSITION":88,"NORMAL":89,"TEXCOORD_0":90},"indices":91,"material":0}]},{"primitives":[{"mode":4,"attributes":{"POSITION":92,"NORMAL":93,"TEXCOORD_0":94},"indices":95,"material":0}]},{"primitives":[{"mode":4,"attributes":{"POSITION":96,"NORMAL":97,"TEXCOORD_0":98},"indices":99,"material":0}]},{"primitives":[{"mode":4,"attributes":{"POSITION":100,"NORMAL":101,"TEXCOORD_0":102},"indices":103,"material":1}]},{"primitives":[{"mode":4,"attributes":{"POSITION":104,"NORMAL":105,"TEXCOORD_0":106},"indices":107,"material":0}]},{"primitives":[{"mode":4,"attributes":{"POSITION":108,"NORMAL":109,"TEXCOORD_0":110},"indices":111,"material":1}]},{"primitives":[{"mode":4,"attributes":{"POSITION":112,"NORMAL":113,"TEXCOORD_0":114},"indices":115,"material":1}]},{"primitives":[{"mode":4,"attributes":{"POSITION":116,"NORMAL":117,"TEXCOORD_0":118},"indices":119,"material":2}]},{"primitives":[{"mode":4,"attributes":{"POSITION":120,"NORMAL":121,"TEXCOORD_0":122},"indices":123,"material":2}]},{"primitives":[{"mode":4,"attributes":{"POSITION":124,"NORMAL":125,"TEXCOORD_0":126},"indices":127,"material":2}]},{"primitives":[{"mode":4,"attributes":{"POSITION":128,"NORMAL":129,"TEXCOORD_0":130},"indices":131,"material":2}]},{"primitives":[{"mode":4,"attributes":{"POSITION":132,"NORMAL":133,"TEXCOORD_0":134},"indices":135,"material":1}]},{"primitives":[{"mode":4,"attributes":{"POSITION":136,"NORMAL":137,"TEXCOORD_0":138},"indices":139,"material":1}]},{"primitives":[{"mode":4,"attributes":{"POSITION":140,"NORMAL":141,"TEXCOORD_0":142},"indices":143,"material":1}]},{"primitives":[{"mode":4,"attributes":{"POSITION":144,"NORMAL":145,"TEXCOORD_0":146},"indices":147,"material":0}]},{"primitives":[{"mode":4,"attributes":{"POSITION":148,"NORMAL":149,"TEXCOORD_0":150},"indices":151,"material":1}]},{"primitives":[{"mode":4,"attributes":{"POSITION":152,"NORMAL":153,"TEXCOORD_0":154},"indices":155,"material":1}]},{"primitives":[{"mode":4,"attributes":{"POSITION":156,"NORMAL":157,"TEXCOORD_0":158},"indices":159,"material":2}]},{"primitives":[{"mode":4,"attributes":{"POSITION":160,"NORMAL":161,"TEXCOORD_0":162},"indices":163,"material":2}]},{"primitives":[{"mode":4,"attributes":{"POSITION":164,"NORMAL":165,"TEXCOORD_0":166},"indices":167,"material":2}]},{"primitives":[{"mode":4,"attributes":{"POSITION":168,"NORMAL":169,"TEXCOORD_0":170},"indices":171,"material":1}]},{"primitives":[{"mode":4,"attributes":{"POSITION":172,"NORMAL":173,"TEXCOORD_0":174},"indices":175,"material":1}]},{"primitives":[{"mode":4,"attributes":{"POSITION":176,"NORMAL":177,"TEXCOORD_0":178},"indices":179,"material":1}]},{"primitives":[{"mode":4,"attributes":{"POSITION":180,"NORMAL":181,"TEXCOORD_0":182},"indices":183,"material":0}]},{"primitives":[{"mode":4,"attributes":{"POSITION":184,"NORMAL":185,"TEXCOORD_0":186},"indices":187,"material":1}]},{"primitives":[{"mode":4,"attributes":{"POSITION":188,"NORMAL":189,"TEXCOORD_0":190},"indices":191,"material":1}]},{"primitives":[{"mode":4,"attributes":{"POSITION":192,"NORMAL":193,"TEXCOORD_0":194},"indices":195,"material":2}]},{"primitives":[{"mode":4,"attributes":{"POSITION":196,"NORMAL":197,"TEXCOORD_0":198},"indices":199,"material":1}]},{"primitives":[{"mode":4,"attributes":{"POSITION":200,"NORMAL":201,"TEXCOORD_0":202},"indices":203,"material":0}]},{"primitives":[{"mode":4,"attributes":{"POSITION":204,"NORMAL":205,"TEXCOORD_0":206},"indices":207,"material":3}]},{"primitives":[{"mode":4,"attributes":{"POSITION":208,"NORMAL":209,"TEXCOORD_0":210},"indices":211,"material":3}]},{"primitives":[{"mode":4,"attributes":{"POSITION":212,"NORMAL":213,"TEXCOORD_0":214},"indices":215,"material":3}]},{"primitives":[{"mode":4,"attributes":{"POSITION":216,"NORMAL":217,"TEXCOORD_0":218},"indices":219,"material":2}]},{"primitives":[{"mode":4,"attributes":{"POSITION":220,"NORMAL":221,"TEXCOORD_0":222},"indices":223,"material":1}]},{"primitives":[{"mode":4,"attributes":{"POSITION":224,"NORMAL":225,"TEXCOORD_0":226},"indices":227,"material":0}]},{"primitives":[{"mode":4,"attributes":{"POSITION":228,"NORMAL":229,"TEXCOORD_0":230},"indices":231,"material":3}]},{"primitives":[{"mode":4,"attributes":{"POSITION":232,"NORMAL":233,"TEXCOORD_0":234},"indices":235,"material":3}]},{"primitives":[{"mode":4,"attributes":{"POSITION":236,"NORMAL":237,"TEXCOORD_0":238},"indices":239,"material":3}]},{"primitives":[{"mode":4,"attributes":{"POSITION":240,"NORMAL":241,"TEXCOORD_0":242},"indices":243,"material":1}]},{"primitives":[{"mode":4,"attributes":{"POSITION":244,"NORMAL":245,"TEXCOORD_0":246},"indices":247,"material":4}]},{"primitives":[{"mode":4,"attributes":{"POSITION":248,"NORMAL":249,"TEXCOORD_0":250},"indices":251,"material":4}]},{"primitives":[{"mode":4,"attributes":{"POSITION":252,"NORMAL":253,"TEXCOORD_0":254},"indices":255,"material":2}]},{"primitives":[{"mode":4,"attributes":{"POSITION":256,"NORMAL":257,"TEXCOORD_0":258},"indices":259,"material":1}]},{"primitives":[{"mode":4,"attributes":{"POSITION":260,"NORMAL":261,"TEXCOORD_0":262},"indices":263,"material":3}]},{"primitives":[{"mode":4,"attributes":{"POSITION":264,"NORMAL":265,"TEXCOORD_0":266},"indices":267,"material":0}]},{"primitives":[{"mode":4,"attributes":{"POSITION":268,"NORMAL":269,"TEXCOORD_0":270},"indices":271,"material":2}]},{"primitives":[{"mode":4,"attributes":{"POSITION":272,"NORMAL":273,"TEXCOORD_0":274},"indices":275,"material":2}]},{"primitives":[{"mode":4,"attributes":{"POSITION":276,"NORMAL":277,"TEXCOORD_0":278},"indices":279,"material":0}]},{"primitives":[{"mode":4,"attributes":{"POSITION":280,"NORMAL":281,"TEXCOORD_0":282},"indices":283,"material":3}]},{"primitives":[{"mode":4,"attributes":{"POSITION":284,"NORMAL":285,"TEXCOORD_0":286},"indices":287,"material":3}]},{"primitives":[{"mode":4,"attributes":{"POSITION":288,"NORMAL":289,"TEXCOORD_0":290},"indices":291,"material":1}]},{"primitives":[{"mode":4,"attributes":{"POSITION":292,"NORMAL":293,"TEXCOORD_0":294},"indices":295,"material":0}]},{"primitives":[{"mode":4,"attributes":{"POSITION":296,"NORMAL":297,"TEXCOORD_0":298},"indices":299,"material":0}]},{"primitives":[{"mode":4,"attributes":{"POSITION":300,"NORMAL":301,"TEXCOORD_0":302},"indices":303,"material":2}]},{"primitives":[{"mode":4,"attributes":{"POSITION":304,"NORMAL":305,"TEXCOORD_0":306},"indices":307,"material":2}]},{"primitives":[{"mode":4,"attributes":{"POSITION":308,"NORMAL":309,"TEXCOORD_0":310},"indices":311,"material":2}]},{"primitives":[{"mode":4,"attributes":{"POSITION":312,"NORMAL":313,"TEXCOORD_0":314},"indices":315,"material":2}]},{"primitives":[{"mode":4,"attributes":{"POSITION":316,"NORMAL":317,"TEXCOORD_0":318},"indices":319,"material":2}]},{"primitives":[{"mode":4,"attributes":{"POSITION":320,"NORMAL":321,"TEXCOORD_0":322},"indices":323,"material":2}]},{"primitives":[{"mode":4,"attributes":{"POSITION":324,"NORMAL":325,"TEXCOORD_0":326},"indices":327,"material":4}]},{"primitives":[{"mode":4,"attributes":{"POSITION":328,"NORMAL":329,"TEXCOORD_0":330},"indices":331,"material":4}]},{"primitives":[{"mode":4,"attributes":{"POSITION":332,"NORMAL":333,"TEXCOORD_0":334},"indices":335,"material":4}]}]}