{"asset":{"version":"2.0","generator":"Blockbench 5.1.6 glTF exporter"},"scenes":[{"nodes":[1,4],"name":"blockbench_export"}],"scene":0,"nodes":[{"name":"body","mesh":0},{"name":"body","children":[0]},{"name":"band","mesh":1},{"name":"band","mesh":2},{"name":"band","children":[2,3]}],"bufferViews":[{"buffer":0,"byteOffset":0,"byteLength":672,"target":34962,"byteStride":12},{"buffer":0,"byteOffset":672,"byteLength":672,"target":34962,"byteStride":12},{"buffer":0,"byteOffset":1344,"byteLength":448,"target":34962,"byteStride":8},{"buffer":0,"byteOffset":1792,"byteLength":168,"target":34963},{"buffer":0,"byteOffset":1960,"byteLength":576,"target":34962,"byteStride":12},{"buffer":0,"byteOffset":2536,"byteLength":576,"target":34962,"byteStride":12},{"buffer":0,"byteOffset":3112,"byteLength":384,"target":34962,"byteStride":8},{"buffer":0,"byteOffset":3496,"byteLength":144,"target":34963},{"buffer":0,"byteOffset":3640,"byteLength":576,"target":34962,"byteStride":12},{"buffer":0,"byteOffset":4216,"byteLength":576,"target":34962,"byteStride":12},{"buffer":0,"byteOffset":4792,"byteLength":384,"target":34962,"byteStride":8},{"buffer":0,"byteOffset":5176,"byteLength":144,"target":34963}],"buffers":[{"byteLength":5320,"uri":"data:application/octet-stream;base64,"}],"accessors":[{"bufferView":0,"componentType":5126,"count":56,"max":[0.4375,1.375,0.4375],"min":[-0.4375,0,-0.4375],"type":"VEC3"},{"bufferView":1,"componentType":5126,"count":56,"max":[1,1,1],"min":[-1,-1,-1],"type":"VEC3"},{"bufferView":2,"componentType":5126,"count":56,"max":[0.4375,0.6875],"min":[0,0],"type":"VEC2"},{"bufferView":3,"componentType":5123,"count":84,"max":[55],"min":[0],"type":"SCALAR"},{"bufferView":4,"componentType":5126,"count":48,"max":[0.46875,0.25,0.46875],"min":[-0.46875,0.125,-0.46875],"type":"VEC3"},{"bufferView":5,"componentType":5126,"count":48,"max":[1,1,1],"min":[-1,-1,-1],"type":"VEC3"},{"bufferView":6,"componentType":5126,"count":48,"max":[0.46875,0.46875],"min":[0,0],"type":"VEC2"},{"bufferView":7,"componentType":5123,"count":72,"max":[47],"min":[0],"type":"SCALAR"},{"bufferView":8,"componentType":5126,"count":48,"max":[0.46875,1.25,0.46875],"min":[-0.46875,1.125,-0.46875],"type":"VEC3"},{"bufferView":9,"componentType":5126,"count":48,"max":[1,1,1],"min":[-1,-1,-1],"type":"VEC3"},{"bufferView":10,"componentType":5126,"count":48,"max":[0.46875,0.46875],"min":[0,0],"type":"VEC2"},{"bufferView":11,"componentType":5123,"count":72,"max":[47],"min":[0],"type":"SCALAR"}],"materials":[{"pbrMetallicRoughness":{"metallicFactor":0,"roughnessFactor":1,"baseColorTexture":{"index":0}},"alphaMode":"MASK","alphaCutoff":0.05,"doubleSided":true},{"pbrMetallicRoughness":{"metallicFactor":0,"roughnessFactor":1,"baseColorTexture":{"index":1}},"alphaMode":"MASK","alphaCutoff":0.05,"doubleSided":true}],"textures":[{"sampler":0,"source":0,"name":"rust.png"},{"sampler":1,"source":1,"name":"metal.png"}],"samplers":[{"magFilter":9728,"minFilter":9728,"wrapS":10497,"wrapT":10497},{"magFilter":9728,"minFilter":9728,"wrapS":10497,"wrapT":10497}],"images":[{"mimeType":"image/png","uri":"../textures/rust.png","name":"rust"},{"mimeType":"image/png","uri":"../textures/metal.png","name":"metal"}],"meshes":[{"primitives":[{"mode":4,"attributes":{"POSITION":0,"NORMAL":1,"TEXCOORD_0":2},"indices":3,"material":0}]},{"primitives":[{"mode":4,"attributes":{"POSITION":4,"NORMAL":5,"TEXCOORD_0":6},"indices":7,"material":1}]},{"primitives":[{"mode":4,"attributes":{"POSITION":8,"NORMAL":9,"TEXCOORD_0":10},"indices":11,"material":1}]}]}