{"asset":{"version":"2.0","generator":"Blockbench 5.1.6 glTF exporter"},"scenes":[{"nodes":[1,4,7,9],"name":"blockbench_export"}],"scene":0,"nodes":[{"name":"base","mesh":0},{"name":"base","children":[0]},{"name":"side","mesh":1},{"name":"side","mesh":2},{"name":"side","children":[2,3]},{"name":"end","mesh":3},{"name":"end","mesh":4},{"name":"end","children":[5,6]},{"name":"drain","mesh":5},{"name":"drain","children":[8]}],"bufferViews":[{"buffer":0,"byteOffset":0,"byteLength":432,"target":34962,"byteStride":12},{"buffer":0,"byteOffset":432,"byteLength":432,"target":34962,"byteStride":12},{"buffer":0,"byteOffset":864,"byteLength":288,"target":34962,"byteStride":8},{"buffer":0,"byteOffset":1152,"byteLength":108,"target":34963},{"buffer":0,"byteOffset":1260,"byteLength":240,"target":34962,"byteStride":12},{"buffer":0,"byteOffset":1500,"byteLength":240,"target":34962,"byteStride":12},{"buffer":0,"byteOffset":1740,"byteLength":160,"target":34962,"byteStride":8},{"buffer":0,"byteOffset":1900,"byteLength":60,"target":34963},{"buffer":0,"byteOffset":1960,"byteLength":240,"target":34962,"byteStride":12},{"buffer":0,"byteOffset":2200,"byteLength":240,"target":34962,"byteStride":12},{"buffer":0,"byteOffset":2440,"byteLength":160,"target":34962,"byteStride":8},{"buffer":0,"byteOffset":2600,"byteLength":60,"target":34963},{"buffer":0,"byteOffset":2660,"byteLength":144,"target":34962,"byteStride":12},{"buffer":0,"byteOffset":2804,"byteLength":144,"target":34962,"byteStride":12},{"buffer":0,"byteOffset":2948,"byteLength":96,"target":34962,"byteStride":8},{"buffer":0,"byteOffset":3044,"byteLength":36,"target":34963},{"buffer":0,"byteOffset":3080,"byteLength":144,"target":34962,"byteStride":12},{"buffer":0,"byteOffset":3224,"byteLength":144,"target":34962,"byteStride":12},{"buffer":0,"byteOffset":3368,"byteLength":96,"target":34962,"byteStride":8},{"buffer":0,"byteOffset":3464,"byteLength":36,"target":34963},{"buffer":0,"byteOffset":3500,"byteLength":240,"target":34962,"byteStride":12},{"buffer":0,"byteOffset":3740,"byteLength":240,"target":34962,"byteStride":12},{"buffer":0,"byteOffset":3980,"byteLength":160,"target":34962,"byteStride":8},{"buffer":0,"byteOffset":4140,"byteLength":60,"target":34963}],"buffers":[{"byteLength":4200,"uri":"data:application/octet-stream;base64,"}],"accessors":[{"bufferView":0,"componentType":5126,"count":36,"max":[0.8125,0.1875,1.5625],"min":[-0.8125,0,-1.5625],"type":"VEC3"},{"bufferView":1,"componentType":5126,"count":36,"max":[1,1,1],"min":[-1,-1,-1],"type":"VEC3"},{"bufferView":2,"componentType":5126,"count":36,"max":[1.5625,1.5625],"min":[0,0],"type":"VEC2"},{"bufferView":3,"componentType":5123,"count":54,"max":[35],"min":[0],"type":"SCALAR"},{"bufferView":4,"componentType":5126,"count":20,"max":[-0.625,0.875,1.5625],"min":[-0.8125,0.1875,-1.5625],"type":"VEC3"},{"bufferView":5,"componentType":5126,"count":20,"max":[1,1,1],"min":[-1,0,-1],"type":"VEC3"},{"bufferView":6,"componentType":5126,"count":20,"max":[1.5625,1.5625],"min":[0,0],"type":"VEC2"},{"bufferView":7,"componentType":5123,"count":30,"max":[19],"min":[0],"type":"SCALAR"},{"bufferView":8,"componentType":5126,"count":20,"max":[0.8125,0.875,1.5625],"min":[0.625,0.1875,-1.5625],"type":"VEC3"},{"bufferView":9,"componentType":5126,"count":20,"max":[1,1,1],"min":[-1,0,-1],"type":"VEC3"},{"bufferView":10,"componentType":5126,"count":20,"max":[1.5625,1.5625],"min":[0,0],"type":"VEC2"},{"bufferView":11,"componentType":5123,"count":30,"max":[19],"min":[0],"type":"SCALAR"},{"bufferView":12,"componentType":5126,"count":12,"max":[0.625,0.875,-1.375],"min":[-0.625,0.1875,-1.5625],"type":"VEC3"},{"bufferView":13,"componentType":5126,"count":12,"max":[0,1,1],"min":[0,0,-1],"type":"VEC3"},{"bufferView":14,"componentType":5126,"count":12,"max":[0.625,0.34375],"min":[0,0],"type":"VEC2"},{"bufferView":15,"componentType":5123,"count":18,"max":[11],"min":[0],"type":"SCALAR"},{"bufferView":16,"componentType":5126,"count":12,"max":[0.625,0.875,1.5625],"min":[-0.625,0.1875,1.375],"type":"VEC3"},{"bufferView":17,"componentType":5126,"count":12,"max":[0,1,1],"min":[0,0,-1],"type":"VEC3"},{"bufferView":18,"componentType":5126,"count":12,"max":[0.625,0.34375],"min":[0,0],"type":"VEC2"},{"bufferView":19,"componentType":5123,"count":18,"max":[11],"min":[0],"type":"SCALAR"},{"bufferView":20,"componentType":5126,"count":20,"max":[0.0625,0.1953125,-1.125],"min":[-0.0625,0.1875,-1.25],"type":"VEC3"},{"bufferView":21,"componentType":5126,"count":20,"max":[1,1,1],"min":[-1,0,-1],"type":"VEC3"},{"bufferView":22,"componentType":5126,"count":20,"max":[0.0625,0.0625],"min":[0,0],"type":"VEC2"},{"bufferView":23,"componentType":5123,"count":30,"max":[19],"min":[0],"type":"SCALAR"}],"materials":[{"pbrMetallicRoughness":{"metallicFactor":0,"roughnessFactor":1,"baseColorTexture":{"index":0}},"alphaMode":"MASK","alphaCutoff":0.05,"doubleSided":true},{"pbrMetallicRoughness":{"metallicFactor":0,"roughnessFactor":1,"baseColorTexture":{"index":1}},"alphaMode":"MASK","alphaCutoff":0.05,"doubleSided":true}],"textures":[{"sampler":0,"source":0,"name":"cream.png"},{"sampler":1,"source":1,"name":"metal.png"}],"samplers":[{"magFilter":9728,"minFilter":9728,"wrapS":10497,"wrapT":10497},{"magFilter":9728,"minFilter":9728,"wrapS":10497,"wrapT":10497}],"images":[{"mimeType":"image/png","uri":"../textures/cream.png","name":"cream"},{"mimeType":"image/png","uri":"../textures/metal.png","name":"metal"}],"meshes":[{"primitives":[{"mode":4,"attributes":{"POSITION":0,"NORMAL":1,"TEXCOORD_0":2},"indices":3,"material":0}]},{"primitives":[{"mode":4,"attributes":{"POSITION":4,"NORMAL":5,"TEXCOORD_0":6},"indices":7,"material":0}]},{"primitives":[{"mode":4,"attributes":{"POSITION":8,"NORMAL":9,"TEXCOORD_0":10},"indices":11,"material":0}]},{"primitives":[{"mode":4,"attributes":{"POSITION":12,"NORMAL":13,"TEXCOORD_0":14},"indices":15,"material":0}]},{"primitives":[{"mode":4,"attributes":{"POSITION":16,"NORMAL":17,"TEXCOORD_0":18},"indices":19,"material":0}]},{"primitives":[{"mode":4,"attributes":{"POSITION":20,"NORMAL":21,"TEXCOORD_0":22},"indices":23,"material":1}]}]}