{"asset":{"version":"2.0","generator":"Blockbench 5.1.6 glTF exporter"},"scenes":[{"nodes":[4,6,8,10,12,14],"name":"blockbench_export"}],"scene":0,"nodes":[{"name":"leg","mesh":0},{"name":"leg","mesh":1},{"name":"leg","mesh":2},{"name":"leg","mesh":3},{"name":"leg","children":[0,1,2,3]},{"name":"frame","mesh":4},{"name":"frame","children":[5]},{"name":"mattress","mesh":5},{"name":"mattress","children":[7]},{"name":"blanket","mesh":6},{"name":"blanket","children":[9]},{"name":"pillow","mesh":7},{"name":"pillow","children":[11]},{"name":"headboard","mesh":8},{"name":"headboard","children":[13]}],"bufferViews":[{"buffer":0,"byteOffset":0,"byteLength":240,"target":34962,"byteStride":12},{"buffer":0,"byteOffset":240,"byteLength":240,"target":34962,"byteStride":12},{"buffer":0,"byteOffset":480,"byteLength":160,"target":34962,"byteStride":8},{"buffer":0,"byteOffset":640,"byteLength":60,"target":34963},{"buffer":0,"byteOffset":700,"byteLength":240,"target":34962,"byteStride":12},{"buffer":0,"byteOffset":940,"byteLength":240,"target":34962,"byteStride":12},{"buffer":0,"byteOffset":1180,"byteLength":160,"target":34962,"byteStride":8},{"buffer":0,"byteOffset":1340,"byteLength":60,"target":34963},{"buffer":0,"byteOffset":1400,"byteLength":240,"target":34962,"byteStride":12},{"buffer":0,"byteOffset":1640,"byteLength":240,"target":34962,"byteStride":12},{"buffer":0,"byteOffset":1880,"byteLength":160,"target":34962,"byteStride":8},{"buffer":0,"byteOffset":2040,"byteLength":60,"target":34963},{"buffer":0,"byteOffset":2100,"byteLength":240,"target":34962,"byteStride":12},{"buffer":0,"byteOffset":2340,"byteLength":240,"target":34962,"byteStride":12},{"buffer":0,"byteOffset":2580,"byteLength":160,"target":34962,"byteStride":8},{"buffer":0,"byteOffset":2740,"byteLength":60,"target":34963},{"buffer":0,"byteOffset":2800,"byteLength":624,"target":34962,"byteStride":12},{"buffer":0,"byteOffset":3424,"byteLength":624,"target":34962,"byteStride":12},{"buffer":0,"byteOffset":4048,"byteLength":416,"target":34962,"byteStride":8},{"buffer":0,"byteOffset":4464,"byteLength":156,"target":34963},{"buffer":0,"byteOffset":4620,"byteLength":336,"target":34962,"byteStride":12},{"buffer":0,"byteOffset":4956,"byteLength":336,"target":34962,"byteStride":12},{"buffer":0,"byteOffset":5292,"byteLength":224,"target":34962,"byteStride":8},{"buffer":0,"byteOffset":5516,"byteLength":84,"target":34963},{"buffer":0,"byteOffset":5600,"byteLength":240,"target":34962,"byteStride":12},{"buffer":0,"byteOffset":5840,"byteLength":240,"target":34962,"byteStride":12},{"buffer":0,"byteOffset":6080,"byteLength":160,"target":34962,"byteStride":8},{"buffer":0,"byteOffset":6240,"byteLength":60,"target":34963},{"buffer":0,"byteOffset":6300,"byteLength":240,"target":34962,"byteStride":12},{"buffer":0,"byteOffset":6540,"byteLength":240,"target":34962,"byteStride":12},{"buffer":0,"byteOffset":6780,"byteLength":160,"target":34962,"byteStride":8},{"buffer":0,"byteOffset":6940,"byteLength":60,"target":34963},{"buffer":0,"byteOffset":7000,"byteLength":576,"target":34962,"byteStride":12},{"buffer":0,"byteOffset":7576,"byteLength":576,"target":34962,"byteStride":12},{"buffer":0,"byteOffset":8152,"byteLength":384,"target":34962,"byteStride":8},{"buffer":0,"byteOffset":8536,"byteLength":144,"target":34963}],"buffers":[{"byteLength":8680,"uri":"data:application/octet-stream;base64,"}],"accessors":[{"bufferView":0,"componentType":5126,"count":20,"max":[-0.625,0.3125,-1.5],"min":[-0.75,0,-1.625],"type":"VEC3"},{"bufferView":1,"componentType":5126,"count":20,"max":[1,0,1],"min":[-1,-1,-1],"type":"VEC3"},{"bufferView":2,"componentType":5126,"count":20,"max":[0.0625,0.15625],"min":[0,0],"type":"VEC2"},{"bufferView":3,"componentType":5123,"count":30,"max":[19],"min":[0],"type":"SCALAR"},{"bufferView":4,"componentType":5126,"count":20,"max":[-0.625,0.3125,1.625],"min":[-0.75,0,1.5],"type":"VEC3"},{"bufferView":5,"componentType":5126,"count":20,"max":[1,0,1],"min":[-1,-1,-1],"type":"VEC3"},{"bufferView":6,"componentType":5126,"count":20,"max":[0.0625,0.15625],"min":[0,0],"type":"VEC2"},{"bufferView":7,"componentType":5123,"count":30,"max":[19],"min":[0],"type":"SCALAR"},{"bufferView":8,"componentType":5126,"count":20,"max":[0.75,0.3125,-1.5],"min":[0.625,0,-1.625],"type":"VEC3"},{"bufferView":9,"componentType":5126,"count":20,"max":[1,0,1],"min":[-1,-1,-1],"type":"VEC3"},{"bufferView":10,"componentType":5126,"count":20,"max":[0.0625,0.15625],"min":[0,0],"type":"VEC2"},{"bufferView":11,"componentType":5123,"count":30,"max":[19],"min":[0],"type":"SCALAR"},{"bufferView":12,"componentType":5126,"count":20,"max":[0.75,0.3125,1.625],"min":[0.625,0,1.5],"type":"VEC3"},{"bufferView":13,"componentType":5126,"count":20,"max":[1,0,1],"min":[-1,-1,-1],"type":"VEC3"},{"bufferView":14,"componentType":5126,"count":20,"max":[0.0625,0.15625],"min":[0,0],"type":"VEC2"},{"bufferView":15,"componentType":5123,"count":30,"max":[19],"min":[0],"type":"SCALAR"},{"bufferView":16,"componentType":5126,"count":52,"max":[0.8125,0.5625,1.6875],"min":[-0.8125,0.3125,-1.5625],"type":"VEC3"},{"bufferView":17,"componentType":5126,"count":52,"max":[1,1,1],"min":[-1,-1,0],"type":"VEC3"},{"bufferView":18,"componentType":5126,"count":52,"max":[1.6875,1.6875],"min":[0,0],"type":"VEC2"},{"bufferView":19,"componentType":5123,"count":78,"max":[51],"min":[0],"type":"SCALAR"},{"bufferView":20,"componentType":5126,"count":28,"max":[0.75,0.875,1.625],"min":[-0.75,0.5625,-1.5625],"type":"VEC3"},{"bufferView":21,"componentType":5126,"count":28,"max":[1,1,1],"min":[-1,0,0],"type":"VEC3"},{"bufferView":22,"componentType":5126,"count":28,"max":[1.625,0.5],"min":[0,0],"type":"VEC2"},{"bufferView":23,"componentType":5123,"count":42,"max":[27],"min":[0],"type":"SCALAR"},{"bufferView":24,"componentType":5126,"count":20,"max":[0.75,1,1.625],"min":[-0.75,0.875,-0.625],"type":"VEC3"},{"bufferView":25,"componentType":5126,"count":20,"max":[1,1,1],"min":[-1,0,-1],"type":"VEC3"},{"bufferView":26,"componentType":5126,"count":20,"max":[1.125,1.125],"min":[0,0],"type":"VEC2"},{"bufferView":27,"componentType":5123,"count":30,"max":[19],"min":[0],"type":"SCALAR"},{"bufferView":28,"componentType":5126,"count":20,"max":[0.625,1.0625,-0.875],"min":[-0.625,0.875,-1.5],"type":"VEC3"},{"bufferView":29,"componentType":5126,"count":20,"max":[1,1,1],"min":[-1,0,-1],"type":"VEC3"},{"bufferView":30,"componentType":5126,"count":20,"max":[0.625,0.3125],"min":[0,0],"type":"VEC2"},{"bufferView":31,"componentType":5123,"count":30,"max":[19],"min":[0],"type":"SCALAR"},{"bufferView":32,"componentType":5126,"count":48,"max":[0.8125,1.4375,-1.5625],"min":[-0.8125,0.3125,-1.75],"type":"VEC3"},{"bufferView":33,"componentType":5126,"count":48,"max":[1,1,1],"min":[-1,-1,-1],"type":"VEC3"},{"bufferView":34,"componentType":5126,"count":48,"max":[0.8125,0.5625],"min":[0,0],"type":"VEC2"},{"bufferView":35,"componentType":5123,"count":72,"max":[47],"min":[0],"type":"SCALAR"}],"materials":[{"pbrMetallicRoughness":{"metallicFactor":0,"roughnessFactor":1,"baseColorTexture":{"index":0}},"alphaMode":"MASK","alphaCutoff":0.05,"doubleSided":true},{"pbrMetallicRoughness":{"metallicFactor":0,"roughnessFactor":1,"baseColorTexture":{"index":1}},"alphaMode":"MASK","alphaCutoff":0.05,"doubleSided":true},{"pbrMetallicRoughness":{"metallicFactor":0,"roughnessFactor":1,"baseColorTexture":{"index":2}},"alphaMode":"MASK","alphaCutoff":0.05,"doubleSided":true},{"pbrMetallicRoughness":{"metallicFactor":0,"roughnessFactor":1,"baseColorTexture":{"index":3}},"alphaMode":"MASK","alphaCutoff":0.05,"doubleSided":true}],"textures":[{"sampler":0,"source":0,"name":"wood.png"},{"sampler":1,"source":1,"name":"wood_dark.png"},{"sampler":2,"source":2,"name":"cream.png"},{"sampler":3,"source":3,"name":"fabric.png"}],"samplers":[{"magFilter":9728,"minFilter":9728,"wrapS":10497,"wrapT":10497},{"magFilter":9728,"minFilter":9728,"wrapS":10497,"wrapT":10497},{"magFilter":9728,"minFilter":9728,"wrapS":10497,"wrapT":10497},{"magFilter":9728,"minFilter":9728,"wrapS":10497,"wrapT":10497}],"images":[{"mimeType":"image/png","uri":"../textures/wood.png","name":"wood"},{"mimeType":"image/png","uri":"../textures/wood_dark.png","name":"wood_dark"},{"mimeType":"image/png","uri":"../textures/cream.png","name":"cream"},{"mimeType":"image/png","uri":"../textures/fabric.png","name":"fabric"}],"meshes":[{"primitives":[{"mode":4,"attributes":{"POSITION":0,"NORMAL":1,"TEXCOORD_0":2},"indices":3,"material":0}]},{"primitives":[{"mode":4,"attributes":{"POSITION":4,"NORMAL":5,"TEXCOORD_0":6},"indices":7,"material":0}]},{"primitives":[{"mode":4,"attributes":{"POSITION":8,"NORMAL":9,"TEXCOORD_0":10},"indices":11,"material":0}]},{"primitives":[{"mode":4,"attributes":{"POSITION":12,"NORMAL":13,"TEXCOORD_0":14},"indices":15,"material":0}]},{"primitives":[{"mode":4,"attributes":{"POSITION":16,"NORMAL":17,"TEXCOORD_0":18},"indices":19,"material":1}]},{"primitives":[{"mode":4,"attributes":{"POSITION":20,"NORMAL":21,"TEXCOORD_0":22},"indices":23,"material":2}]},{"primitives":[{"mode":4,"attributes":{"POSITION":24,"NORMAL":25,"TEXCOORD_0":26},"indices":27,"material":3}]},{"primitives":[{"mode":4,"attributes":{"POSITION":28,"NORMAL":29,"TEXCOORD_0":30},"indices":31,"material":2}]},{"primitives":[{"mode":4,"attributes":{"POSITION":32,"NORMAL":33,"TEXCOORD_0":34},"indices":35,"material":0}]}]}