{"asset":{"version":"2.0","generator":"Blockbench 5.1.6 glTF exporter"},"scenes":[{"nodes":[1,3,5],"name":"blockbench_export"}],"scene":0,"nodes":[{"name":"base","mesh":0},{"name":"base","children":[0]},{"name":"post","mesh":1},{"name":"post","children":[2]},{"name":"band","mesh":2},{"name":"band","children":[4]}],"bufferViews":[{"buffer":0,"byteOffset":0,"byteLength":432,"target":34962,"byteStride":12},{"buffer":0,"byteOffset":432,"byteLength":432,"target":34962,"byteStride":12},{"buffer":0,"byteOffset":864,"byteLength":288,"target":34962,"byteStride":8},{"buffer":0,"byteOffset":1152,"byteLength":108,"target":34963},{"buffer":0,"byteOffset":1260,"byteLength":432,"target":34962,"byteStride":12},{"buffer":0,"byteOffset":1692,"byteLength":432,"target":34962,"byteStride":12},{"buffer":0,"byteOffset":2124,"byteLength":288,"target":34962,"byteStride":8},{"buffer":0,"byteOffset":2412,"byteLength":108,"target":34963},{"buffer":0,"byteOffset":2520,"byteLength":576,"target":34962,"byteStride":12},{"buffer":0,"byteOffset":3096,"byteLength":576,"target":34962,"byteStride":12},{"buffer":0,"byteOffset":3672,"byteLength":384,"target":34962,"byteStride":8},{"buffer":0,"byteOffset":4056,"byteLength":144,"target":34963}],"buffers":[{"byteLength":4200,"uri":"data:application/octet-stream;base64,"}],"accessors":[{"bufferView":0,"componentType":5126,"count":36,"max":[0.25,0.125,0.25],"min":[-0.25,0,-0.25],"type":"VEC3"},{"bufferView":1,"componentType":5126,"count":36,"max":[1,1,1],"min":[-1,-1,-1],"type":"VEC3"},{"bufferView":2,"componentType":5126,"count":36,"max":[0.25,0.25],"min":[0,0],"type":"VEC2"},{"bufferView":3,"componentType":5123,"count":54,"max":[35],"min":[0],"type":"SCALAR"},{"bufferView":4,"componentType":5126,"count":36,"max":[0.125,1.25,0.125],"min":[-0.125,0.125,-0.125],"type":"VEC3"},{"bufferView":5,"componentType":5126,"count":36,"max":[1,1,1],"min":[-1,0,-1],"type":"VEC3"},{"bufferView":6,"componentType":5126,"count":36,"max":[0.125,0.5625],"min":[0,0],"type":"VEC2"},{"bufferView":7,"componentType":5123,"count":54,"max":[35],"min":[0],"type":"SCALAR"},{"bufferView":8,"componentType":5126,"count":48,"max":[0.13750000298023224,0.9375,0.13750000298023224],"min":[-0.13750000298023224,0.75,-0.13750000298023224],"type":"VEC3"},{"bufferView":9,"componentType":5126,"count":48,"max":[1,1,1],"min":[-1,-1,-1],"type":"VEC3"},{"bufferView":10,"componentType":5126,"count":48,"max":[0.13750000298023224,0.13749998807907104],"min":[0,0],"type":"VEC2"},{"bufferView":11,"componentType":5123,"count":72,"max":[47],"min":[0],"type":"SCALAR"}],"materials":[{"pbrMetallicRoughness":{"metallicFactor":0,"roughnessFactor":1,"baseColorTexture":{"index":0}},"alphaMode":"MASK","alphaCutoff":0.05,"doubleSided":true},{"pbrMetallicRoughness":{"metallicFactor":0,"roughnessFactor":1,"baseColorTexture":{"index":1}},"alphaMode":"MASK","alphaCutoff":0.05,"doubleSided":true},{"pbrMetallicRoughness":{"metallicFactor":0,"roughnessFactor":1,"baseColorTexture":{"index":2}},"alphaMode":"MASK","alphaCutoff":0.05,"doubleSided":true}],"textures":[{"sampler":0,"source":0,"name":"concrete.png"},{"sampler":1,"source":1,"name":"yellow.png"},{"sampler":2,"source":2,"name":"rubber.png"}],"samplers":[{"magFilter":9728,"minFilter":9728,"wrapS":10497,"wrapT":10497},{"magFilter":9728,"minFilter":9728,"wrapS":10497,"wrapT":10497},{"magFilter":9728,"minFilter":9728,"wrapS":10497,"wrapT":10497}],"images":[{"mimeType":"image/png","uri":"../textures/concrete.png","name":"concrete"},{"mimeType":"image/png","uri":"../textures/yellow.png","name":"yellow"},{"mimeType":"image/png","uri":"../textures/rubber.png","name":"rubber"}],"meshes":[{"primitives":[{"mode":4,"attributes":{"POSITION":0,"NORMAL":1,"TEXCOORD_0":2},"indices":3,"material":0}]},{"primitives":[{"mode":4,"attributes":{"POSITION":4,"NORMAL":5,"TEXCOORD_0":6},"indices":7,"material":1}]},{"primitives":[{"mode":4,"attributes":{"POSITION":8,"NORMAL":9,"TEXCOORD_0":10},"indices":11,"material":2}]}]}