{"asset":{"version":"2.0","generator":"Blockbench 5.1.6 glTF exporter"},"scenes":[{"nodes":[6,31],"name":"blockbench_export"}],"scene":0,"nodes":[{"name":"upright","mesh":0},{"name":"upright","mesh":1},{"name":"shelf","mesh":2},{"name":"shelf","mesh":3},{"name":"shelf","mesh":4},{"name":"shelf","mesh":5},{"name":"shelf_0_0_0_0","children":[0,1,2,3,4,5]},{"name":"book","mesh":6},{"name":"book","mesh":7},{"name":"book","mesh":8},{"name":"book","mesh":9},{"name":"book","mesh":10},{"name":"book","mesh":11},{"name":"book","mesh":12},{"name":"book","mesh":13},{"name":"book","mesh":14},{"name":"book","mesh":15},{"name":"book","mesh":16},{"name":"book","mesh":17},{"name":"book","mesh":18},{"name":"book","mesh":19},{"name":"book","mesh":20},{"name":"book","mesh":21},{"name":"book","mesh":22},{"name":"book","mesh":23},{"name":"book","mesh":24},{"name":"book","mesh":25},{"name":"book","mesh":26},{"name":"book","mesh":27},{"name":"book","mesh":28},{"name":"book","mesh":29},{"name":"book","children":[7,8,9,10,11,12,13,14,15,16,17,18,19,20,21,22,23,24,25,26,27,28,29,30]}],"bufferViews":[{"buffer":0,"byteOffset":0,"byteLength":384,"target":34962,"byteStride":12},{"buffer":0,"byteOffset":384,"byteLength":384,"target":34962,"byteStride":12},{"buffer":0,"byteOffset":768,"byteLength":256,"target":34962,"byteStride":8},{"buffer":0,"byteOffset":1024,"byteLength":96,"target":34963},{"buffer":0,"byteOffset":1120,"byteLength":384,"target":34962,"byteStride":12},{"buffer":0,"byteOffset":1504,"byteLength":384,"target":34962,"byteStride":12},{"buffer":0,"byteOffset":1888,"byteLength":256,"target":34962,"byteStride":8},{"buffer":0,"byteOffset":2144,"byteLength":96,"target":34963},{"buffer":0,"byteOffset":2240,"byteLength":1344,"target":34962,"byteStride":12},{"buffer":0,"byteOffset":3584,"byteLength":1344,"target":34962,"byteStride":12},{"buffer":0,"byteOffset":4928,"byteLength":896,"target":34962,"byteStride":8},{"buffer":0,"byteOffset":5824,"byteLength":336,"target":34963},{"buffer":0,"byteOffset":6160,"byteLength":1344,"target":34962,"byteStride":12},{"buffer":0,"byteOffset":7504,"byteLength":1344,"target":34962,"byteStride":12},{"buffer":0,"byteOffset":8848,"byteLength":896,"target":34962,"byteStride":8},{"buffer":0,"byteOffset":9744,"byteLength":336,"target":34963},{"buffer":0,"byteOffset":10080,"byteLength":1344,"target":34962,"byteStride":12},{"buffer":0,"byteOffset":11424,"byteLength":1344,"target":34962,"byteStride":12},{"buffer":0,"byteOffset":12768,"byteLength":896,"target":34962,"byteStride":8},{"buffer":0,"byteOffset":13664,"byteLength":336,"target":34963},{"buffer":0,"byteOffset":14000,"byteLength":192,"target":34962,"byteStride":12},{"buffer":0,"byteOffset":14192,"byteLength":192,"target":34962,"byteStride":12},{"buffer":0,"byteOffset":14384,"byteLength":128,"target":34962,"byteStride":8},{"buffer":0,"byteOffset":14512,"byteLength":48,"target":34963},{"buffer":0,"byteOffset":14560,"byteLength":240,"target":34962,"byteStride":12},{"buffer":0,"byteOffset":14800,"byteLength":240,"target":34962,"byteStride":12},{"buffer":0,"byteOffset":15040,"byteLength":160,"target":34962,"byteStride":8},{"buffer":0,"byteOffset":15200,"byteLength":60,"target":34963},{"buffer":0,"byteOffset":15260,"byteLength":240,"target":34962,"byteStride":12},{"buffer":0,"byteOffset":15500,"byteLength":240,"target":34962,"byteStride":12},{"buffer":0,"byteOffset":15740,"byteLength":160,"target":34962,"byteStride":8},{"buffer":0,"byteOffset":15900,"byteLength":60,"target":34963},{"buffer":0,"byteOffset":15960,"byteLength":240,"target":34962,"byteStride":12},{"buffer":0,"byteOffset":16200,"byteLength":240,"target":34962,"byteStride":12},{"buffer":0,"byteOffset":16440,"byteLength":160,"target":34962,"byteStride":8},{"buffer":0,"byteOffset":16600,"byteLength":60,"target":34963},{"buffer":0,"byteOffset":16660,"byteLength":240,"target":34962,"byteStride":12},{"buffer":0,"byteOffset":16900,"byteLength":240,"target":34962,"byteStride":12},{"buffer":0,"byteOffset":17140,"byteLength":160,"target":34962,"byteStride":8},{"buffer":0,"byteOffset":17300,"byteLength":60,"target":34963},{"buffer":0,"byteOffset":17360,"byteLength":240,"target":34962,"byteStride":12},{"buffer":0,"byteOffset":17600,"byteLength":240,"target":34962,"byteStride":12},{"buffer":0,"byteOffset":17840,"byteLength":160,"target":34962,"byteStride":8},{"buffer":0,"byteOffset":18000,"byteLength":60,"target":34963},{"buffer":0,"byteOffset":18060,"byteLength":240,"target":34962,"byteStride":12},{"buffer":0,"byteOffset":18300,"byteLength":240,"target":34962,"byteStride":12},{"buffer":0,"byteOffset":18540,"byteLength":160,"target":34962,"byteStride":8},{"buffer":0,"byteOffset":18700,"byteLength":60,"target":34963},{"buffer":0,"byteOffset":18760,"byteLength":240,"target":34962,"byteStride":12},{"buffer":0,"byteOffset":19000,"byteLength":240,"target":34962,"byteStride":12},{"buffer":0,"byteOffset":19240,"byteLength":160,"target":34962,"byteStride":8},{"buffer":0,"byteOffset":19400,"byteLength":60,"target":34963},{"buffer":0,"byteOffset":19460,"byteLength":240,"target":34962,"byteStride":12},{"buffer":0,"byteOffset":19700,"byteLength":240,"target":34962,"byteStride":12},{"buffer":0,"byteOffset":19940,"byteLength":160,"target":34962,"byteStride":8},{"buffer":0,"byteOffset":20100,"byteLength":60,"target":34963},{"buffer":0,"byteOffset":20160,"byteLength":240,"target":34962,"byteStride":12},{"buffer":0,"byteOffset":20400,"byteLength":240,"target":34962,"byteStride":12},{"buffer":0,"byteOffset":20640,"byteLength":160,"target":34962,"byteStride":8},{"buffer":0,"byteOffset":20800,"byteLength":60,"target":34963},{"buffer":0,"byteOffset":20860,"byteLength":240,"target":34962,"byteStride":12},{"buffer":0,"byteOffset":21100,"byteLength":240,"target":34962,"byteStride":12},{"buffer":0,"byteOffset":21340,"byteLength":160,"target":34962,"byteStride":8},{"buffer":0,"byteOffset":21500,"byteLength":60,"target":34963},{"buffer":0,"byteOffset":21560,"byteLength":240,"target":34962,"byteStride":12},{"buffer":0,"byteOffset":21800,"byteLength":240,"target":34962,"byteStride":12},{"buffer":0,"byteOffset":22040,"byteLength":160,"target":34962,"byteStride":8},{"buffer":0,"byteOffset":22200,"byteLength":60,"target":34963},{"buffer":0,"byteOffset":22260,"byteLength":240,"target":34962,"byteStride":12},{"buffer":0,"byteOffset":22500,"byteLength":240,"target":34962,"byteStride":12},{"buffer":0,"byteOffset":22740,"byteLength":160,"target":34962,"byteStride":8},{"buffer":0,"byteOffset":22900,"byteLength":60,"target":34963},{"buffer":0,"byteOffset":22960,"byteLength":240,"target":34962,"byteStride":12},{"buffer":0,"byteOffset":23200,"byteLength":240,"target":34962,"byteStride":12},{"buffer":0,"byteOffset":23440,"byteLength":160,"target":34962,"byteStride":8},{"buffer":0,"byteOffset":23600,"byteLength":60,"target":34963},{"buffer":0,"byteOffset":23660,"byteLength":240,"target":34962,"byteStride":12},{"buffer":0,"byteOffset":23900,"byteLength":240,"target":34962,"byteStride":12},{"buffer":0,"byteOffset":24140,"byteLength":160,"target":34962,"byteStride":8},{"buffer":0,"byteOffset":24300,"byteLength":60,"target":34963},{"buffer":0,"byteOffset":24360,"byteLength":240,"target":34962,"byteStride":12},{"buffer":0,"byteOffset":24600,"byteLength":240,"target":34962,"byteStride":12},{"buffer":0,"byteOffset":24840,"byteLength":160,"target":34962,"byteStride":8},{"buffer":0,"byteOffset":25000,"byteLength":60,"target":34963},{"buffer":0,"byteOffset":25060,"byteLength":240,"target":34962,"byteStride":12},{"buffer":0,"byteOffset":25300,"byteLength":240,"target":34962,"byteStride":12},{"buffer":0,"byteOffset":25540,"byteLength":160,"target":34962,"byteStride":8},{"buffer":0,"byteOffset":25700,"byteLength":60,"target":34963},{"buffer":0,"byteOffset":25760,"byteLength":240,"target":34962,"byteStride":12},{"buffer":0,"byteOffset":26000,"byteLength":240,"target":34962,"byteStride":12},{"buffer":0,"byteOffset":26240,"byteLength":160,"target":34962,"byteStride":8},{"buffer":0,"byteOffset":26400,"byteLength":60,"target":34963},{"buffer":0,"byteOffset":26460,"byteLength":240,"target":34962,"byteStride":12},{"buffer":0,"byteOffset":26700,"byteLength":240,"target":34962,"byteStride":12},{"buffer":0,"byteOffset":26940,"byteLength":160,"target":34962,"byteStride":8},{"buffer":0,"byteOffset":27100,"byteLength":60,"target":34963},{"buffer":0,"byteOffset":27160,"byteLength":240,"target":34962,"byteStride":12},{"buffer":0,"byteOffset":27400,"byteLength":240,"target":34962,"byteStride":12},{"buffer":0,"byteOffset":27640,"byteLength":160,"target":34962,"byteStride":8},{"buffer":0,"byteOffset":27800,"byteLength":60,"target":34963},{"buffer":0,"byteOffset":27860,"byteLength":240,"target":34962,"byteStride":12},{"buffer":0,"byteOffset":28100,"byteLength":240,"target":34962,"byteStride":12},{"buffer":0,"byteOffset":28340,"byteLength":160,"target":34962,"byteStride":8},{"buffer":0,"byteOffset":28500,"byteLength":60,"target":34963},{"buffer":0,"byteOffset":28560,"byteLength":240,"target":34962,"byteStride":12},{"buffer":0,"byteOffset":28800,"byteLength":240,"target":34962,"byteStride":12},{"buffer":0,"byteOffset":29040,"byteLength":160,"target":34962,"byteStride":8},{"buffer":0,"byteOffset":29200,"byteLength":60,"target":34963},{"buffer":0,"byteOffset":29260,"byteLength":240,"target":34962,"byteStride":12},{"buffer":0,"byteOffset":29500,"byteLength":240,"target":34962,"byteStride":12},{"buffer":0,"byteOffset":29740,"byteLength":160,"target":34962,"byteStride":8},{"buffer":0,"byteOffset":29900,"byteLength":60,"target":34963},{"buffer":0,"byteOffset":29960,"byteLength":240,"target":34962,"byteStride":12},{"buffer":0,"byteOffset":30200,"byteLength":240,"target":34962,"byteStride":12},{"buffer":0,"byteOffset":30440,"byteLength":160,"target":34962,"byteStride":8},{"buffer":0,"byteOffset":30600,"byteLength":60,"target":34963},{"buffer":0,"byteOffset":30660,"byteLength":240,"target":34962,"byteStride":12},{"buffer":0,"byteOffset":30900,"byteLength":240,"target":34962,"byteStride":12},{"buffer":0,"byteOffset":31140,"byteLength":160,"target":34962,"byteStride":8},{"buffer":0,"byteOffset":31300,"byteLength":60,"target":34963}],"buffers":[{"byteLength":31360,"uri":"data:application/octet-stream;base64,"}],"accessors":[{"bufferView":0,"componentType":5126,"count":32,"max":[-0.75,2,0.4375],"min":[-0.875,0,-0.4375],"type":"VEC3"},{"bufferView":1,"componentType":5126,"count":32,"max":[1,1,1],"min":[-1,-1,-1],"type":"VEC3"},{"bufferView":2,"componentType":5126,"count":32,"max":[0.4375,1],"min":[0,0],"type":"VEC2"},{"bufferView":3,"componentType":5123,"count":48,"max":[31],"min":[0],"type":"SCALAR"},{"bufferView":4,"componentType":5126,"count":32,"max":[0.875,2,0.4375],"min":[0.75,0,-0.4375],"type":"VEC3"},{"bufferView":5,"componentType":5126,"count":32,"max":[1,1,1],"min":[-1,-1,-1],"type":"VEC3"},{"bufferView":6,"componentType":5126,"count":32,"max":[0.4375,1],"min":[0,0],"type":"VEC2"},{"bufferView":7,"componentType":5123,"count":48,"max":[31],"min":[0],"type":"SCALAR"},{"bufferView":8,"componentType":5126,"count":112,"max":[0.75,0.125,0.4375],"min":[-0.75,0,-0.4375],"type":"VEC3"},{"bufferView":9,"componentType":5126,"count":112,"max":[0,1,1],"min":[0,-1,-1],"type":"VEC3"},{"bufferView":10,"componentType":5126,"count":112,"max":[0.75,0.4375],"min":[0,0],"type":"VEC2"},{"bufferView":11,"componentType":5123,"count":168,"max":[111],"min":[0],"type":"SCALAR"},{"bufferView":12,"componentType":5126,"count":112,"max":[0.75,0.75,0.4375],"min":[-0.75,0.625,-0.4375],"type":"VEC3"},{"bufferView":13,"componentType":5126,"count":112,"max":[0,1,1],"min":[0,-1,-1],"type":"VEC3"},{"bufferView":14,"componentType":5126,"count":112,"max":[0.75,0.4375],"min":[0,0],"type":"VEC2"},{"bufferView":15,"componentType":5123,"count":168,"max":[111],"min":[0],"type":"SCALAR"},{"bufferView":16,"componentType":5126,"count":112,"max":[0.75,1.375,0.4375],"min":[-0.75,1.25,-0.4375],"type":"VEC3"},{"bufferView":17,"componentType":5126,"count":112,"max":[0,1,1],"min":[0,-1,-1],"type":"VEC3"},{"bufferView":18,"componentType":5126,"count":112,"max":[0.75,0.4375],"min":[0,0],"type":"VEC2"},{"bufferView":19,"componentType":5123,"count":168,"max":[111],"min":[0],"type":"SCALAR"},{"bufferView":20,"componentType":5126,"count":16,"max":[0.75,2,0.4375],"min":[-0.75,1.875,-0.4375],"type":"VEC3"},{"bufferView":21,"componentType":5126,"count":16,"max":[0,1,1],"min":[0,-1,-1],"type":"VEC3"},{"bufferView":22,"componentType":5126,"count":16,"max":[0.75,0.4375],"min":[0,0],"type":"VEC2"},{"bufferView":23,"componentType":5123,"count":24,"max":[15],"min":[0],"type":"SCALAR"},{"bufferView":24,"componentType":5126,"count":20,"max":[-0.5625,0.4375,0.1875],"min":[-0.6875,0.125,-0.3125],"type":"VEC3"},{"bufferView":25,"componentType":5126,"count":20,"max":[1,1,1],"min":[-1,0,-1],"type":"VEC3"},{"bufferView":26,"componentType":5126,"count":20,"max":[0.25,0.25],"min":[0,0],"type":"VEC2"},{"bufferView":27,"componentType":5123,"count":30,"max":[19],"min":[0],"type":"SCALAR"},{"bufferView":28,"componentType":5126,"count":20,"max":[-0.39375001192092896,0.5,0.1875],"min":[-0.518750011920929,0.125,-0.3125],"type":"VEC3"},{"bufferView":29,"componentType":5126,"count":20,"max":[1,1,1],"min":[-1,0,-1],"type":"VEC3"},{"bufferView":30,"componentType":5126,"count":20,"max":[0.25,0.25],"min":[0,0],"type":"VEC2"},{"bufferView":31,"componentType":5123,"count":30,"max":[19],"min":[0],"type":"SCALAR"},{"bufferView":32,"componentType":5126,"count":20,"max":[-0.22499999403953552,0.5625,0.1875],"min":[-0.3499999940395355,0.125,-0.3125],"type":"VEC3"},{"bufferView":33,"componentType":5126,"count":20,"max":[1,1,1],"min":[-1,0,-1],"type":"VEC3"},{"bufferView":34,"componentType":5126,"count":20,"max":[0.25,0.25],"min":[0,0],"type":"VEC2"},{"bufferView":35,"componentType":5123,"count":30,"max":[19],"min":[0],"type":"SCALAR"},{"bufferView":36,"componentType":5126,"count":20,"max":[-0.05624999850988388,0.4375,0.1875],"min":[-0.18125000596046448,0.125,-0.3125],"type":"VEC3"},{"bufferView":37,"componentType":5126,"count":20,"max":[1,1,1],"min":[-1,0,-1],"type":"VEC3"},{"bufferView":38,"componentType":5126,"count":20,"max":[0.25,0.25],"min":[0,0],"type":"VEC2"},{"bufferView":39,"componentType":5123,"count":30,"max":[19],"min":[0],"type":"SCALAR"},{"bufferView":40,"componentType":5126,"count":20,"max":[0.11249999701976776,0.5,0.1875],"min":[-0.012500000186264515,0.125,-0.3125],"type":"VEC3"},{"bufferView":41,"componentType":5126,"count":20,"max":[1,1,1],"min":[-1,0,-1],"type":"VEC3"},{"bufferView":42,"componentType":5126,"count":20,"max":[0.25,0.25],"min":[0,0],"type":"VEC2"},{"bufferView":43,"componentType":5123,"count":30,"max":[19],"min":[0],"type":"SCALAR"},{"bufferView":44,"componentType":5126,"count":20,"max":[0.28125,0.5625,0.1875],"min":[0.15625,0.125,-0.3125],"type":"VEC3"},{"bufferView":45,"componentType":5126,"count":20,"max":[1,1,1],"min":[-1,0,-1],"type":"VEC3"},{"bufferView":46,"componentType":5126,"count":20,"max":[0.25,0.25],"min":[0,0],"type":"VEC2"},{"bufferView":47,"componentType":5123,"count":30,"max":[19],"min":[0],"type":"SCALAR"},{"bufferView":48,"componentType":5126,"count":20,"max":[0.44999998807907104,0.4375,0.1875],"min":[0.32499998807907104,0.125,-0.3125],"type":"VEC3"},{"bufferView":49,"componentType":5126,"count":20,"max":[1,1,1],"min":[-1,0,-1],"type":"VEC3"},{"bufferView":50,"componentType":5126,"count":20,"max":[0.25,0.25],"min":[0,0],"type":"VEC2"},{"bufferView":51,"componentType":5123,"count":30,"max":[19],"min":[0],"type":"SCALAR"},{"bufferView":52,"componentType":5126,"count":20,"max":[0.6187499761581421,0.5,0.1875],"min":[0.4937500059604645,0.125,-0.3125],"type":"VEC3"},{"bufferView":53,"componentType":5126,"count":20,"max":[1,1,1],"min":[-1,0,-1],"type":"VEC3"},{"bufferView":54,"componentType":5126,"count":20,"max":[0.25,0.25],"min":[0,0],"type":"VEC2"},{"bufferView":55,"componentType":5123,"count":30,"max":[19],"min":[0],"type":"SCALAR"},{"bufferView":56,"componentType":5126,"count":20,"max":[-0.5625,1.0625,0.1875],"min":[-0.6875,0.75,-0.3125],"type":"VEC3"},{"bufferView":57,"componentType":5126,"count":20,"max":[1,1,1],"min":[-1,0,-1],"type":"VEC3"},{"bufferView":58,"componentType":5126,"count":20,"max":[0.25,0.25],"min":[0,0],"type":"VEC2"},{"bufferView":59,"componentType":5123,"count":30,"max":[19],"min":[0],"type":"SCALAR"},{"bufferView":60,"componentType":5126,"count":20,"max":[-0.39375001192092896,1.125,0.1875],"min":[-0.518750011920929,0.75,-0.3125],"type":"VEC3"},{"bufferView":61,"componentType":5126,"count":20,"max":[1,1,1],"min":[-1,0,-1],"type":"VEC3"},{"bufferView":62,"componentType":5126,"count":20,"max":[0.25,0.25],"min":[0,0],"type":"VEC2"},{"bufferView":63,"componentType":5123,"count":30,"max":[19],"min":[0],"type":"SCALAR"},{"bufferView":64,"componentType":5126,"count":20,"max":[-0.22499999403953552,1.1875,0.1875],"min":[-0.3499999940395355,0.75,-0.3125],"type":"VEC3"},{"bufferView":65,"componentType":5126,"count":20,"max":[1,1,1],"min":[-1,0,-1],"type":"VEC3"},{"bufferView":66,"componentType":5126,"count":20,"max":[0.25,0.25],"min":[0,0],"type":"VEC2"},{"bufferView":67,"componentType":5123,"count":30,"max":[19],"min":[0],"type":"SCALAR"},{"bufferView":68,"componentType":5126,"count":20,"max":[-0.05624999850988388,1.0625,0.1875],"min":[-0.18125000596046448,0.75,-0.3125],"type":"VEC3"},{"bufferView":69,"componentType":5126,"count":20,"max":[1,1,1],"min":[-1,0,-1],"type":"VEC3"},{"bufferView":70,"componentType":5126,"count":20,"max":[0.25,0.25],"min":[0,0],"type":"VEC2"},{"bufferView":71,"componentType":5123,"count":30,"max":[19],"min":[0],"type":"SCALAR"},{"bufferView":72,"componentType":5126,"count":20,"max":[0.11249999701976776,1.125,0.1875],"min":[-0.012500000186264515,0.75,-0.3125],"type":"VEC3"},{"bufferView":73,"componentType":5126,"count":20,"max":[1,1,1],"min":[-1,0,-1],"type":"VEC3"},{"bufferView":74,"componentType":5126,"count":20,"max":[0.25,0.25],"min":[0,0],"type":"VEC2"},{"bufferView":75,"componentType":5123,"count":30,"max":[19],"min":[0],"type":"SCALAR"},{"bufferView":76,"componentType":5126,"count":20,"max":[0.28125,1.1875,0.1875],"min":[0.15625,0.75,-0.3125],"type":"VEC3"},{"bufferView":77,"componentType":5126,"count":20,"max":[1,1,1],"min":[-1,0,-1],"type":"VEC3"},{"bufferView":78,"componentType":5126,"count":20,"max":[0.25,0.25],"min":[0,0],"type":"VEC2"},{"bufferView":79,"componentType":5123,"count":30,"max":[19],"min":[0],"type":"SCALAR"},{"bufferView":80,"componentType":5126,"count":20,"max":[0.44999998807907104,1.0625,0.1875],"min":[0.32499998807907104,0.75,-0.3125],"type":"VEC3"},{"bufferView":81,"componentType":5126,"count":20,"max":[1,1,1],"min":[-1,0,-1],"type":"VEC3"},{"bufferView":82,"componentType":5126,"count":20,"max":[0.25,0.25],"min":[0,0],"type":"VEC2"},{"bufferView":83,"componentType":5123,"count":30,"max":[19],"min":[0],"type":"SCALAR"},{"bufferView":84,"componentType":5126,"count":20,"max":[0.6187499761581421,1.125,0.1875],"min":[0.4937500059604645,0.75,-0.3125],"type":"VEC3"},{"bufferView":85,"componentType":5126,"count":20,"max":[1,1,1],"min":[-1,0,-1],"type":"VEC3"},{"bufferView":86,"componentType":5126,"count":20,"max":[0.25,0.25],"min":[0,0],"type":"VEC2"},{"bufferView":87,"componentType":5123,"count":30,"max":[19],"min":[0],"type":"SCALAR"},{"bufferView":88,"componentType":5126,"count":20,"max":[-0.5625,1.6875,0.1875],"min":[-0.6875,1.375,-0.3125],"type":"VEC3"},{"bufferView":89,"componentType":5126,"count":20,"max":[1,1,1],"min":[-1,0,-1],"type":"VEC3"},{"bufferView":90,"componentType":5126,"count":20,"max":[0.25,0.25],"min":[0,0],"type":"VEC2"},{"bufferView":91,"componentType":5123,"count":30,"max":[19],"min":[0],"type":"SCALAR"},{"bufferView":92,"componentType":5126,"count":20,"max":[-0.39375001192092896,1.75,0.1875],"min":[-0.518750011920929,1.375,-0.3125],"type":"VEC3"},{"bufferView":93,"componentType":5126,"count":20,"max":[1,1,1],"min":[-1,0,-1],"type":"VEC3"},{"bufferView":94,"componentType":5126,"count":20,"max":[0.25,0.25],"min":[0,0],"type":"VEC2"},{"bufferView":95,"componentType":5123,"count":30,"max":[19],"min":[0],"type":"SCALAR"},{"bufferView":96,"componentType":5126,"count":20,"max":[-0.22499999403953552,1.8125,0.1875],"min":[-0.3499999940395355,1.375,-0.3125],"type":"VEC3"},{"bufferView":97,"componentType":5126,"count":20,"max":[1,1,1],"min":[-1,0,-1],"type":"VEC3"},{"bufferView":98,"componentType":5126,"count":20,"max":[0.25,0.25],"min":[0,0],"type":"VEC2"},{"bufferView":99,"componentType":5123,"count":30,"max":[19],"min":[0],"type":"SCALAR"},{"bufferView":100,"componentType":5126,"count":20,"max":[-0.05624999850988388,1.6875,0.1875],"min":[-0.18125000596046448,1.375,-0.3125],"type":"VEC3"},{"bufferView":101,"componentType":5126,"count":20,"max":[1,1,1],"min":[-1,0,-1],"type":"VEC3"},{"bufferView":102,"componentType":5126,"count":20,"max":[0.25,0.25],"min":[0,0],"type":"VEC2"},{"bufferView":103,"componentType":5123,"count":30,"max":[19],"min":[0],"type":"SCALAR"},{"bufferView":104,"componentType":5126,"count":20,"max":[0.11249999701976776,1.75,0.1875],"min":[-0.012500000186264515,1.375,-0.3125],"type":"VEC3"},{"bufferView":105,"componentType":5126,"count":20,"max":[1,1,1],"min":[-1,0,-1],"type":"VEC3"},{"bufferView":106,"componentType":5126,"count":20,"max":[0.25,0.25],"min":[0,0],"type":"VEC2"},{"bufferView":107,"componentType":5123,"count":30,"max":[19],"min":[0],"type":"SCALAR"},{"bufferView":108,"componentType":5126,"count":20,"max":[0.28125,1.8125,0.1875],"min":[0.15625,1.375,-0.3125],"type":"VEC3"},{"bufferView":109,"componentType":5126,"count":20,"max":[1,1,1],"min":[-1,0,-1],"type":"VEC3"},{"bufferView":110,"componentType":5126,"count":20,"max":[0.25,0.25],"min":[0,0],"type":"VEC2"},{"bufferView":111,"componentType":5123,"count":30,"max":[19],"min":[0],"type":"SCALAR"},{"bufferView":112,"componentType":5126,"count":20,"max":[0.44999998807907104,1.6875,0.1875],"min":[0.32499998807907104,1.375,-0.3125],"type":"VEC3"},{"bufferView":113,"componentType":5126,"count":20,"max":[1,1,1],"min":[-1,0,-1],"type":"VEC3"},{"bufferView":114,"componentType":5126,"count":20,"max":[0.25,0.25],"min":[0,0],"type":"VEC2"},{"bufferView":115,"componentType":5123,"count":30,"max":[19],"min":[0],"type":"SCALAR"},{"bufferView":116,"componentType":5126,"count":20,"max":[0.6187499761581421,1.75,0.1875],"min":[0.4937500059604645,1.375,-0.3125],"type":"VEC3"},{"bufferView":117,"componentType":5126,"count":20,"max":[1,1,1],"min":[-1,0,-1],"type":"VEC3"},{"bufferView":118,"componentType":5126,"count":20,"max":[0.25,0.25],"min":[0,0],"type":"VEC2"},{"bufferView":119,"componentType":5123,"count":30,"max":[19],"min":[0],"type":"SCALAR"}],"materials":[{"pbrMetallicRoughness":{"metallicFactor":0,"roughnessFactor":1,"baseColorTexture":{"index":0}},"alphaMode":"MASK","alphaCutoff":0.05,"doubleSided":true},{"pbrMetallicRoughness":{"metallicFactor":0,"roughnessFactor":1,"baseColorTexture":{"index":1}},"alphaMode":"MASK","alphaCutoff":0.05,"doubleSided":true},{"pbrMetallicRoughness":{"metallicFactor":0,"roughnessFactor":1,"baseColorTexture":{"index":2}},"alphaMode":"MASK","alphaCutoff":0.05,"doubleSided":true},{"pbrMetallicRoughness":{"metallicFactor":0,"roughnessFactor":1,"baseColorTexture":{"index":3}},"alphaMode":"MASK","alphaCutoff":0.05,"doubleSided":true},{"pbrMetallicRoughness":{"metallicFactor":0,"roughnessFactor":1,"baseColorTexture":{"index":4}},"alphaMode":"MASK","alphaCutoff":0.05,"doubleSided":true},{"pbrMetallicRoughness":{"metallicFactor":0,"roughnessFactor":1,"baseColorTexture":{"index":5}},"alphaMode":"MASK","alphaCutoff":0.05,"doubleSided":true}],"textures":[{"sampler":0,"source":0,"name":"wood_dark.png"},{"sampler":1,"source":1,"name":"wood.png"},{"sampler":2,"source":2,"name":"fabric.png"},{"sampler":3,"source":3,"name":"rust.png"},{"sampler":4,"source":4,"name":"fabric_blue.png"},{"sampler":5,"source":5,"name":"cream.png"}],"samplers":[{"magFilter":9728,"minFilter":9728,"wrapS":10497,"wrapT":10497},{"magFilter":9728,"minFilter":9728,"wrapS":10497,"wrapT":10497},{"magFilter":9728,"minFilter":9728,"wrapS":10497,"wrapT":10497},{"magFilter":9728,"minFilter":9728,"wrapS":10497,"wrapT":10497},{"magFilter":9728,"minFilter":9728,"wrapS":10497,"wrapT":10497},{"magFilter":9728,"minFilter":9728,"wrapS":10497,"wrapT":10497}],"images":[{"mimeType":"image/png","uri":"../textures/wood_dark.png","name":"wood_dark"},{"mimeType":"image/png","uri":"../textures/wood.png","name":"wood"},{"mimeType":"image/png","uri":"../textures/fabric.png","name":"fabric"},{"mimeType":"image/png","uri":"../textures/rust.png","name":"rust"},{"mimeType":"image/png","uri":"../textures/fabric_blue.png","name":"fabric_blue"},{"mimeType":"image/png","uri":"../textures/cream.png","name":"cream"}],"meshes":[{"primitives":[{"mode":4,"attributes":{"POSITION":0,"NORMAL":1,"TEXCOORD_0":2},"indices":3,"material":0}]},{"primitives":[{"mode":4,"attributes":{"POSITION":4,"NORMAL":5,"TEXCOORD_0":6},"indices":7,"material":0}]},{"primitives":[{"mode":4,"attributes":{"POSITION":8,"NORMAL":9,"TEXCOORD_0":10},"indices":11,"material":1}]},{"primitives":[{"mode":4,"attributes":{"POSITION":12,"NORMAL":13,"TEXCOORD_0":14},"indices":15,"material":1}]},{"primitives":[{"mode":4,"attributes":{"POSITION":16,"NORMAL":17,"TEXCOORD_0":18},"indices":19,"material":1}]},{"primitives":[{"mode":4,"attributes":{"POSITION":20,"NORMAL":21,"TEXCOORD_0":22},"indices":23,"material":1}]},{"primitives":[{"mode":4,"attributes":{"POSITION":24,"NORMAL":25,"TEXCOORD_0":26},"indices":27,"material":2}]},{"primitives":[{"mode":4,"attributes":{"POSITION":28,"NORMAL":29,"TEXCOORD_0":30},"indices":31,"material":3}]},{"primitives":[{"mode":4,"attributes":{"POSITION":32,"NORMAL":33,"TEXCOORD_0":34},"indices":35,"material":4}]},{"primitives":[{"mode":4,"attributes":{"POSITION":36,"NORMAL":37,"TEXCOORD_0":38},"indices":39,"material":5}]},{"primitives":[{"mode":4,"attributes":{"POSITION":40,"NORMAL":41,"TEXCOORD_0":42},"indices":43,"material":2}]},{"primitives":[{"mode":4,"attributes":{"POSITION":44,"NORMAL":45,"TEXCOORD_0":46},"indices":47,"material":3}]},{"primitives":[{"mode":4,"attributes":{"POSITION":48,"NORMAL":49,"TEXCOORD_0":50},"indices":51,"material":4}]},{"primitives":[{"mode":4,"attributes":{"POSITION":52,"NORMAL":53,"TEXCOORD_0":54},"indices":55,"material":5}]},{"primitives":[{"mode":4,"attributes":{"POSITION":56,"NORMAL":57,"TEXCOORD_0":58},"indices":59,"material":2}]},{"primitives":[{"mode":4,"attributes":{"POSITION":60,"NORMAL":61,"TEXCOORD_0":62},"indices":63,"material":3}]},{"primitives":[{"mode":4,"attributes":{"POSITION":64,"NORMAL":65,"TEXCOORD_0":66},"indices":67,"material":4}]},{"primitives":[{"mode":4,"attributes":{"POSITION":68,"NORMAL":69,"TEXCOORD_0":70},"indices":71,"material":5}]},{"primitives":[{"mode":4,"attributes":{"POSITION":72,"NORMAL":73,"TEXCOORD_0":74},"indices":75,"material":2}]},{"primitives":[{"mode":4,"attributes":{"POSITION":76,"NORMAL":77,"TEXCOORD_0":78},"indices":79,"material":3}]},{"primitives":[{"mode":4,"attributes":{"POSITION":80,"NORMAL":81,"TEXCOORD_0":82},"indices":83,"material":4}]},{"primitives":[{"mode":4,"attributes":{"POSITION":84,"NORMAL":85,"TEXCOORD_0":86},"indices":87,"material":5}]},{"primitives":[{"mode":4,"attributes":{"POSITION":88,"NORMAL":89,"TEXCOORD_0":90},"indices":91,"material":2}]},{"primitives":[{"mode":4,"attributes":{"POSITION":92,"NORMAL":93,"TEXCOORD_0":94},"indices":95,"material":3}]},{"primitives":[{"mode":4,"attributes":{"POSITION":96,"NORMAL":97,"TEXCOORD_0":98},"indices":99,"material":4}]},{"primitives":[{"mode":4,"attributes":{"POSITION":100,"NORMAL":101,"TEXCOORD_0":102},"indices":103,"material":5}]},{"primitives":[{"mode":4,"attributes":{"POSITION":104,"NORMAL":105,"TEXCOORD_0":106},"indices":107,"material":2}]},{"primitives":[{"mode":4,"attributes":{"POSITION":108,"NORMAL":109,"TEXCOORD_0":110},"indices":111,"material":3}]},{"primitives":[{"mode":4,"attributes":{"POSITION":112,"NORMAL":113,"TEXCOORD_0":114},"indices":115,"material":4}]},{"primitives":[{"mode":4,"attributes":{"POSITION":116,"NORMAL":117,"TEXCOORD_0":118},"indices":119,"material":5}]}]}