{"asset":{"version":"2.0","generator":"Blockbench 5.1.6 glTF exporter"},"scenes":[{"nodes":[1,3,5,7,20,23,25,33,41,49,57,60,62,65,68,71,73,75,79,85],"name":"blockbench_export"}],"scene":0,"nodes":[{"name":"chassis","mesh":0},{"name":"chassis","children":[0]},{"name":"cabin","mesh":1},{"name":"cabin","children":[2]},{"name":"windshield","mesh":2},{"name":"windshield","children":[4]},{"name":"rear_window","mesh":3},{"name":"rear_window","children":[6]},{"name":"side_window","mesh":4},{"name":"side_window","mesh":5},{"name":"side_window","mesh":6},{"name":"side_window","mesh":7},{"name":"side_window","mesh":8},{"name":"side_window","mesh":9},{"name":"side_window","mesh":10},{"name":"side_window","mesh":11},{"name":"side_window","mesh":12},{"name":"side_window","mesh":13},{"name":"side_window","mesh":14},{"name":"side_window","mesh":15},{"name":"side_window","children":[8,9,10,11,12,13,14,15,16,17,18,19]},{"name":"headlight","mesh":16},{"name":"headlight","mesh":17},{"name":"headlight","children":[21,22]},{"name":"bumper","mesh":18},{"name":"bumper","children":[24]},{"name":"lug","mesh":19},{"name":"lug","mesh":20},{"name":"lug","mesh":21},{"name":"lug","mesh":22},{"name":"tire","mesh":23},{"name":"steel_rim","mesh":24},{"name":"hub","mesh":25},{"name":"round_wheel_-17.0_-47.0","children":[26,27,28,29,30,31,32]},{"name":"lug","mesh":26},{"name":"lug","mesh":27},{"name":"lug","mesh":28},{"name":"lug","mesh":29},{"name":"tire","mesh":30},{"name":"steel_rim","mesh":31},{"name":"hub","mesh":32},{"name":"round_wheel_-17.0_47.0","children":[34,35,36,37,38,39,40]},{"name":"lug","mesh":33},{"name":"lug","mesh":34},{"name":"lug","mesh":35},{"name":"lug","mesh":36},{"name":"tire","mesh":37},{"name":"steel_rim","mesh":38},{"name":"hub","mesh":39},{"name":"round_wheel_17.0_-47.0","children":[42,43,44,45,46,47,48]},{"name":"lug","mesh":40},{"name":"lug","mesh":41},{"name":"lug","mesh":42},{"name":"lug","mesh":43},{"name":"tire","mesh":44},{"name":"steel_rim","mesh":45},{"name":"hub","mesh":46},{"name":"round_wheel_17.0_47.0","children":[50,51,52,53,54,55,56]},{"name":"side_mirror","mesh":47},{"name":"side_mirror","mesh":48},{"name":"side_mirror","children":[58,59]},{"name":"front_grille","mesh":49},{"name":"front_grille","children":[61]},{"name":"tail_lamp","mesh":50},{"name":"tail_lamp","mesh":51},{"name":"tail_lamp","children":[63,64]},{"name":"door_handle","mesh":52},{"name":"door_handle","mesh":53},{"name":"door_handle","children":[66,67]},{"name":"door_seam","mesh":54},{"name":"door_seam","mesh":55},{"name":"door_seam","children":[69,70]},{"name":"license_plate","mesh":56},{"name":"license_plate","children":[72]},{"name":"route_display","mesh":57},{"name":"route_display","children":[74]},{"name":"roof_vent","mesh":58},{"name":"roof_vent","mesh":59},{"name":"roof_vent","mesh":60},{"name":"roof_vent","children":[76,77,78]},{"name":"side_rub_rail","mesh":61},{"name":"side_rub_rail","mesh":62},{"name":"side_rub_rail","mesh":63},{"name":"side_rub_rail","mesh":64},{"name":"roof_edge","mesh":65},{"name":"body","children":[80,81,82,83,84]}],"bufferViews":[{"buffer":0,"byteOffset":0,"byteLength":1104,"target":34962,"byteStride":12},{"buffer":0,"byteOffset":1104,"byteLength":1104,"target":34962,"byteStride":12},{"buffer":0,"byteOffset":2208,"byteLength":736,"target":34962,"byteStride":8},{"buffer":0,"byteOffset":2944,"byteLength":276,"target":34963},{"buffer":0,"byteOffset":3220,"byteLength":1728,"target":34962,"byteStride":12},{"buffer":0,"byteOffset":4948,"byteLength":1728,"target":34962,"byteStride":12},{"buffer":0,"byteOffset":6676,"byteLength":1152,"target":34962,"byteStride":8},{"buffer":0,"byteOffset":7828,"byteLength":432,"target":34963},{"buffer":0,"byteOffset":8260,"byteLength":240,"target":34962,"byteStride":12},{"buffer":0,"byteOffset":8500,"byteLength":240,"target":34962,"byteStride":12},{"buffer":0,"byteOffset":8740,"byteLength":160,"target":34962,"byteStride":8},{"buffer":0,"byteOffset":8900,"byteLength":60,"target":34963},{"buffer":0,"byteOffset":8960,"byteLength":240,"target":34962,"byteStride":12},{"buffer":0,"byteOffset":9200,"byteLength":240,"target":34962,"byteStride":12},{"buffer":0,"byteOffset":9440,"byteLength":160,"target":34962,"byteStride":8},{"buffer":0,"byteOffset":9600,"byteLength":60,"target":34963},{"buffer":0,"byteOffset":9660,"byteLength":384,"target":34962,"byteStride":12},{"buffer":0,"byteOffset":10044,"byteLength":384,"target":34962,"byteStride":12},{"buffer":0,"byteOffset":10428,"byteLength":256,"target":34962,"byteStride":8},{"buffer":0,"byteOffset":10684,"byteLength":96,"target":34963},{"buffer":0,"byteOffset":10780,"byteLength":240,"target":34962,"byteStride":12},{"buffer":0,"byteOffset":11020,"byteLength":240,"target":34962,"byteStride":12},{"buffer":0,"byteOffset":11260,"byteLength":160,"target":34962,"byteStride":8},{"buffer":0,"byteOffset":11420,"byteLength":60,"target":34963},{"buffer":0,"byteOffset":11480,"byteLength":240,"target":34962,"byteStride":12},{"buffer":0,"byteOffset":11720,"byteLength":240,"target":34962,"byteStride":12},{"buffer":0,"byteOffset":11960,"byteLength":160,"target":34962,"byteStride":8},{"buffer":0,"byteOffset":12120,"byteLength":60,"target":34963},{"buffer":0,"byteOffset":12180,"byteLength":240,"target":34962,"byteStride":12},{"buffer":0,"byteOffset":12420,"byteLength":240,"target":34962,"byteStride":12},{"buffer":0,"byteOffset":12660,"byteLength":160,"target":34962,"byteStride":8},{"buffer":0,"byteOffset":12820,"byteLength":60,"target":34963},{"buffer":0,"byteOffset":12880,"byteLength":240,"target":34962,"byteStride":12},{"buffer":0,"byteOffset":13120,"byteLength":240,"target":34962,"byteStride":12},{"buffer":0,"byteOffset":13360,"byteLength":160,"target":34962,"byteStride":8},{"buffer":0,"byteOffset":13520,"byteLength":60,"target":34963},{"buffer":0,"byteOffset":13580,"byteLength":240,"target":34962,"byteStride":12},{"buffer":0,"byteOffset":13820,"byteLength":240,"target":34962,"byteStride":12},{"buffer":0,"byteOffset":14060,"byteLength":160,"target":34962,"byteStride":8},{"buffer":0,"byteOffset":14220,"byteLength":60,"target":34963},{"buffer":0,"byteOffset":14280,"byteLength":384,"target":34962,"byteStride":12},{"buffer":0,"byteOffset":14664,"byteLength":384,"target":34962,"byteStride":12},{"buffer":0,"byteOffset":15048,"byteLength":256,"target":34962,"byteStride":8},{"buffer":0,"byteOffset":15304,"byteLength":96,"target":34963},{"buffer":0,"byteOffset":15400,"byteLength":240,"target":34962,"byteStride":12},{"buffer":0,"byteOffset":15640,"byteLength":240,"target":34962,"byteStride":12},{"buffer":0,"byteOffset":15880,"byteLength":160,"target":34962,"byteStride":8},{"buffer":0,"byteOffset":16040,"byteLength":60,"target":34963},{"buffer":0,"byteOffset":16100,"byteLength":240,"target":34962,"byteStride":12},{"buffer":0,"byteOffset":16340,"byteLength":240,"target":34962,"byteStride":12},{"buffer":0,"byteOffset":16580,"byteLength":160,"target":34962,"byteStride":8},{"buffer":0,"byteOffset":16740,"byteLength":60,"target":34963},{"buffer":0,"byteOffset":16800,"byteLength":240,"target":34962,"byteStride":12},{"buffer":0,"byteOffset":17040,"byteLength":240,"target":34962,"byteStride":12},{"buffer":0,"byteOffset":17280,"byteLength":160,"target":34962,"byteStride":8},{"buffer":0,"byteOffset":17440,"byteLength":60,"target":34963},{"buffer":0,"byteOffset":17500,"byteLength":240,"target":34962,"byteStride":12},{"buffer":0,"byteOffset":17740,"byteLength":240,"target":34962,"byteStride":12},{"buffer":0,"byteOffset":17980,"byteLength":160,"target":34962,"byteStride":8},{"buffer":0,"byteOffset":18140,"byteLength":60,"target":34963},{"buffer":0,"byteOffset":18200,"byteLength":240,"target":34962,"byteStride":12},{"buffer":0,"byteOffset":18440,"byteLength":240,"target":34962,"byteStride":12},{"buffer":0,"byteOffset":18680,"byteLength":160,"target":34962,"byteStride":8},{"buffer":0,"byteOffset":18840,"byteLength":60,"target":34963},{"buffer":0,"byteOffset":18900,"byteLength":192,"target":34962,"byteStride":12},{"buffer":0,"byteOffset":19092,"byteLength":192,"target":34962,"byteStride":12},{"buffer":0,"byteOffset":19284,"byteLength":128,"target":34962,"byteStride":8},{"buffer":0,"byteOffset":19412,"byteLength":48,"target":34963},{"buffer":0,"byteOffset":19460,"byteLength":192,"target":34962,"byteStride":12},{"buffer":0,"byteOffset":19652,"byteLength":192,"target":34962,"byteStride":12},{"buffer":0,"byteOffset":19844,"byteLength":128,"target":34962,"byteStride":8},{"buffer":0,"byteOffset":19972,"byteLength":48,"target":34963},{"buffer":0,"byteOffset":20020,"byteLength":672,"target":34962,"byteStride":12},{"buffer":0,"byteOffset":20692,"byteLength":672,"target":34962,"byteStride":12},{"buffer":0,"byteOffset":21364,"byteLength":448,"target":34962,"byteStride":8},{"buffer":0,"byteOffset":21812,"byteLength":168,"target":34963},{"buffer":0,"byteOffset":21980,"byteLength":288,"target":34962,"byteStride":12},{"buffer":0,"byteOffset":22268,"byteLength":288,"target":34962,"byteStride":12},{"buffer":0,"byteOffset":22556,"byteLength":192,"target":34962,"byteStride":8},{"buffer":0,"byteOffset":22748,"byteLength":72,"target":34963},{"buffer":0,"byteOffset":22820,"byteLength":288,"target":34962,"byteStride":12},{"buffer":0,"byteOffset":23108,"byteLength":288,"target":34962,"byteStride":12},{"buffer":0,"byteOffset":23396,"byteLength":192,"target":34962,"byteStride":8},{"buffer":0,"byteOffset":23588,"byteLength":72,"target":34963},{"buffer":0,"byteOffset":23660,"byteLength":288,"target":34962,"byteStride":12},{"buffer":0,"byteOffset":23948,"byteLength":288,"target":34962,"byteStride":12},{"buffer":0,"byteOffset":24236,"byteLength":192,"target":34962,"byteStride":8},{"buffer":0,"byteOffset":24428,"byteLength":72,"target":34963},{"buffer":0,"byteOffset":24500,"byteLength":288,"target":34962,"byteStride":12},{"buffer":0,"byteOffset":24788,"byteLength":288,"target":34962,"byteStride":12},{"buffer":0,"byteOffset":25076,"byteLength":192,"target":34962,"byteStride":8},{"buffer":0,"byteOffset":25268,"byteLength":72,"target":34963},{"buffer":0,"byteOffset":25340,"byteLength":1440,"target":34962,"byteStride":12},{"buffer":0,"byteOffset":26780,"byteLength":1440,"target":34962,"byteStride":12},{"buffer":0,"byteOffset":28220,"byteLength":960,"target":34962,"byteStride":8},{"buffer":0,"byteOffset":29180,"byteLength":288,"target":34963},{"buffer":0,"byteOffset":29468,"byteLength":1440,"target":34962,"byteStride":12},{"buffer":0,"byteOffset":30908,"byteLength":1440,"target":34962,"byteStride":12},{"buffer":0,"byteOffset":32348,"byteLength":960,"target":34962,"byteStride":8},{"buffer":0,"byteOffset":33308,"byteLength":288,"target":34963},{"buffer":0,"byteOffset":33596,"byteLength":1440,"target":34962,"byteStride":12},{"buffer":0,"byteOffset":35036,"byteLength":1440,"target":34962,"byteStride":12},{"buffer":0,"byteOffset":36476,"byteLength":960,"target":34962,"byteStride":8},{"buffer":0,"byteOffset":37436,"byteLength":288,"target":34963},{"buffer":0,"byteOffset":37724,"byteLength":288,"target":34962,"byteStride":12},{"buffer":0,"byteOffset":38012,"byteLength":288,"target":34962,"byteStride":12},{"buffer":0,"byteOffset":38300,"byteLength":192,"target":34962,"byteStride":8},{"buffer":0,"byteOffset":38492,"byteLength":72,"target":34963},{"buffer":0,"byteOffset":38564,"byteLength":288,"target":34962,"byteStride":12},{"buffer":0,"byteOffset":38852,"byteLength":288,"target":34962,"byteStride":12},{"buffer":0,"byteOffset":39140,"byteLength":192,"target":34962,"byteStride":8},{"buffer":0,"byteOffset":39332,"byteLength":72,"target":34963},{"buffer":0,"byteOffset":39404,"byteLength":288,"target":34962,"byteStride":12},{"buffer":0,"byteOffset":39692,"byteLength":288,"target":34962,"byteStride":12},{"buffer":0,"byteOffset":39980,"byteLength":192,"target":34962,"byteStride":8},{"buffer":0,"byteOffset":40172,"byteLength":72,"target":34963},{"buffer":0,"byteOffset":40244,"byteLength":288,"target":34962,"byteStride":12},{"buffer":0,"byteOffset":40532,"byteLength":288,"target":34962,"byteStride":12},{"buffer":0,"byteOffset":40820,"byteLength":192,"target":34962,"byteStride":8},{"buffer":0,"byteOffset":41012,"byteLength":72,"target":34963},{"buffer":0,"byteOffset":41084,"byteLength":1440,"target":34962,"byteStride":12},{"buffer":0,"byteOffset":42524,"byteLength":1440,"target":34962,"byteStride":12},{"buffer":0,"byteOffset":43964,"byteLength":960,"target":34962,"byteStride":8},{"buffer":0,"byteOffset":44924,"byteLength":288,"target":34963},{"buffer":0,"byteOffset":45212,"byteLength":1440,"target":34962,"byteStride":12},{"buffer":0,"byteOffset":46652,"byteLength":1440,"target":34962,"byteStride":12},{"buffer":0,"byteOffset":48092,"byteLength":960,"target":34962,"byteStride":8},{"buffer":0,"byteOffset":49052,"byteLength":288,"target":34963},{"buffer":0,"byteOffset":49340,"byteLength":1440,"target":34962,"byteStride":12},{"buffer":0,"byteOffset":50780,"byteLength":1440,"target":34962,"byteStride":12},{"buffer":0,"byteOffset":52220,"byteLength":960,"target":34962,"byteStride":8},{"buffer":0,"byteOffset":53180,"byteLength":288,"target":34963},{"buffer":0,"byteOffset":53468,"byteLength":288,"target":34962,"byteStride":12},{"buffer":0,"byteOffset":53756,"byteLength":288,"target":34962,"byteStride":12},{"buffer":0,"byteOffset":54044,"byteLength":192,"target":34962,"byteStride":8},{"buffer":0,"byteOffset":54236,"byteLength":72,"target":34963},{"buffer":0,"byteOffset":54308,"byteLength":288,"target":34962,"byteStride":12},{"buffer":0,"byteOffset":54596,"byteLength":288,"target":34962,"byteStride":12},{"buffer":0,"byteOffset":54884,"byteLength":192,"target":34962,"byteStride":8},{"buffer":0,"byteOffset":55076,"byteLength":72,"target":34963},{"buffer":0,"byteOffset":55148,"byteLength":288,"target":34962,"byteStride":12},{"buffer":0,"byteOffset":55436,"byteLength":288,"target":34962,"byteStride":12},{"buffer":0,"byteOffset":55724,"byteLength":192,"target":34962,"byteStride":8},{"buffer":0,"byteOffset":55916,"byteLength":72,"target":34963},{"buffer":0,"byteOffset":55988,"byteLength":288,"target":34962,"byteStride":12},{"buffer":0,"byteOffset":56276,"byteLength":288,"target":34962,"byteStride":12},{"buffer":0,"byteOffset":56564,"byteLength":192,"target":34962,"byteStride":8},{"buffer":0,"byteOffset":56756,"byteLength":72,"target":34963},{"buffer":0,"byteOffset":56828,"byteLength":1440,"target":34962,"byteStride":12},{"buffer":0,"byteOffset":58268,"byteLength":1440,"target":34962,"byteStride":12},{"buffer":0,"byteOffset":59708,"byteLength":960,"target":34962,"byteStride":8},{"buffer":0,"byteOffset":60668,"byteLength":288,"target":34963},{"buffer":0,"byteOffset":60956,"byteLength":1440,"target":34962,"byteStride":12},{"buffer":0,"byteOffset":62396,"byteLength":1440,"target":34962,"byteStride":12},{"buffer":0,"byteOffset":63836,"byteLength":960,"target":34962,"byteStride":8},{"buffer":0,"byteOffset":64796,"byteLength":288,"target":34963},{"buffer":0,"byteOffset":65084,"byteLength":1440,"target":34962,"byteStride":12},{"buffer":0,"byteOffset":66524,"byteLength":1440,"target":34962,"byteStride":12},{"buffer":0,"byteOffset":67964,"byteLength":960,"target":34962,"byteStride":8},{"buffer":0,"byteOffset":68924,"byteLength":288,"target":34963},{"buffer":0,"byteOffset":69212,"byteLength":288,"target":34962,"byteStride":12},{"buffer":0,"byteOffset":69500,"byteLength":288,"target":34962,"byteStride":12},{"buffer":0,"byteOffset":69788,"byteLength":192,"target":34962,"byteStride":8},{"buffer":0,"byteOffset":69980,"byteLength":72,"target":34963},{"buffer":0,"byteOffset":70052,"byteLength":288,"target":34962,"byteStride":12},{"buffer":0,"byteOffset":70340,"byteLength":288,"target":34962,"byteStride":12},{"buffer":0,"byteOffset":70628,"byteLength":192,"target":34962,"byteStride":8},{"buffer":0,"byteOffset":70820,"byteLength":72,"target":34963},{"buffer":0,"byteOffset":70892,"byteLength":288,"target":34962,"byteStride":12},{"buffer":0,"byteOffset":71180,"byteLength":288,"target":34962,"byteStride":12},{"buffer":0,"byteOffset":71468,"byteLength":192,"target":34962,"byteStride":8},{"buffer":0,"byteOffset":71660,"byteLength":72,"target":34963},{"buffer":0,"byteOffset":71732,"byteLength":288,"target":34962,"byteStride":12},{"buffer":0,"byteOffset":72020,"byteLength":288,"target":34962,"byteStride":12},{"buffer":0,"byteOffset":72308,"byteLength":192,"target":34962,"byteStride":8},{"buffer":0,"byteOffset":72500,"byteLength":72,"target":34963},{"buffer":0,"byteOffset":72572,"byteLength":1440,"target":34962,"byteStride":12},{"buffer":0,"byteOffset":74012,"byteLength":1440,"target":34962,"byteStride":12},{"buffer":0,"byteOffset":75452,"byteLength":960,"target":34962,"byteStride":8},{"buffer":0,"byteOffset":76412,"byteLength":288,"target":34963},{"buffer":0,"byteOffset":76700,"byteLength":1440,"target":34962,"byteStride":12},{"buffer":0,"byteOffset":78140,"byteLength":1440,"target":34962,"byteStride":12},{"buffer":0,"byteOffset":79580,"byteLength":960,"target":34962,"byteStride":8},{"buffer":0,"byteOffset":80540,"byteLength":288,"target":34963},{"buffer":0,"byteOffset":80828,"byteLength":1440,"target":34962,"byteStride":12},{"buffer":0,"byteOffset":82268,"byteLength":1440,"target":34962,"byteStride":12},{"buffer":0,"byteOffset":83708,"byteLength":960,"target":34962,"byteStride":8},{"buffer":0,"byteOffset":84668,"byteLength":288,"target":34963},{"buffer":0,"byteOffset":84956,"byteLength":336,"target":34962,"byteStride":12},{"buffer":0,"byteOffset":85292,"byteLength":336,"target":34962,"byteStride":12},{"buffer":0,"byteOffset":85628,"byteLength":224,"target":34962,"byteStride":8},{"buffer":0,"byteOffset":85852,"byteLength":84,"target":34963},{"buffer":0,"byteOffset":85936,"byteLength":336,"target":34962,"byteStride":12},{"buffer":0,"byteOffset":86272,"byteLength":336,"target":34962,"byteStride":12},{"buffer":0,"byteOffset":86608,"byteLength":224,"target":34962,"byteStride":8},{"buffer":0,"byteOffset":86832,"byteLength":84,"target":34963},{"buffer":0,"byteOffset":86916,"byteLength":432,"target":34962,"byteStride":12},{"buffer":0,"byteOffset":87348,"byteLength":432,"target":34962,"byteStride":12},{"buffer":0,"byteOffset":87780,"byteLength":288,"target":34962,"byteStride":8},{"buffer":0,"byteOffset":88068,"byteLength":108,"target":34963},{"buffer":0,"byteOffset":88176,"byteLength":240,"target":34962,"byteStride":12},{"buffer":0,"byteOffset":88416,"byteLength":240,"target":34962,"byteStride":12},{"buffer":0,"byteOffset":88656,"byteLength":160,"target":34962,"byteStride":8},{"buffer":0,"byteOffset":88816,"byteLength":60,"target":34963},{"buffer":0,"byteOffset":88876,"byteLength":240,"target":34962,"byteStride":12},{"buffer":0,"byteOffset":89116,"byteLength":240,"target":34962,"byteStride":12},{"buffer":0,"byteOffset":89356,"byteLength":160,"target":34962,"byteStride":8},{"buffer":0,"byteOffset":89516,"byteLength":60,"target":34963},{"buffer":0,"byteOffset":89576,"byteLength":240,"target":34962,"byteStride":12},{"buffer":0,"byteOffset":89816,"byteLength":240,"target":34962,"byteStride":12},{"buffer":0,"byteOffset":90056,"byteLength":160,"target":34962,"byteStride":8},{"buffer":0,"byteOffset":90216,"byteLength":60,"target":34963},{"buffer":0,"byteOffset":90276,"byteLength":240,"target":34962,"byteStride":12},{"buffer":0,"byteOffset":90516,"byteLength":240,"target":34962,"byteStride":12},{"buffer":0,"byteOffset":90756,"byteLength":160,"target":34962,"byteStride":8},{"buffer":0,"byteOffset":90916,"byteLength":60,"target":34963},{"buffer":0,"byteOffset":90976,"byteLength":192,"target":34962,"byteStride":12},{"buffer":0,"byteOffset":91168,"byteLength":192,"target":34962,"byteStride":12},{"buffer":0,"byteOffset":91360,"byteLength":128,"target":34962,"byteStride":8},{"buffer":0,"byteOffset":91488,"byteLength":48,"target":34963},{"buffer":0,"byteOffset":91536,"byteLength":192,"target":34962,"byteStride":12},{"buffer":0,"byteOffset":91728,"byteLength":192,"target":34962,"byteStride":12},{"buffer":0,"byteOffset":91920,"byteLength":128,"target":34962,"byteStride":8},{"buffer":0,"byteOffset":92048,"byteLength":48,"target":34963},{"buffer":0,"byteOffset":92096,"byteLength":240,"target":34962,"byteStride":12},{"buffer":0,"byteOffset":92336,"byteLength":240,"target":34962,"byteStride":12},{"buffer":0,"byteOffset":92576,"byteLength":160,"target":34962,"byteStride":8},{"buffer":0,"byteOffset":92736,"byteLength":60,"target":34963},{"buffer":0,"byteOffset":92796,"byteLength":288,"target":34962,"byteStride":12},{"buffer":0,"byteOffset":93084,"byteLength":288,"target":34962,"byteStride":12},{"buffer":0,"byteOffset":93372,"byteLength":192,"target":34962,"byteStride":8},{"buffer":0,"byteOffset":93564,"byteLength":72,"target":34963},{"buffer":0,"byteOffset":93636,"byteLength":240,"target":34962,"byteStride":12},{"buffer":0,"byteOffset":93876,"byteLength":240,"target":34962,"byteStride":12},{"buffer":0,"byteOffset":94116,"byteLength":160,"target":34962,"byteStride":8},{"buffer":0,"byteOffset":94276,"byteLength":60,"target":34963},{"buffer":0,"byteOffset":94336,"byteLength":240,"target":34962,"byteStride":12},{"buffer":0,"byteOffset":94576,"byteLength":240,"target":34962,"byteStride":12},{"buffer":0,"byteOffset":94816,"byteLength":160,"target":34962,"byteStride":8},{"buffer":0,"byteOffset":94976,"byteLength":60,"target":34963},{"buffer":0,"byteOffset":95036,"byteLength":240,"target":34962,"byteStride":12},{"buffer":0,"byteOffset":95276,"byteLength":240,"target":34962,"byteStride":12},{"buffer":0,"byteOffset":95516,"byteLength":160,"target":34962,"byteStride":8},{"buffer":0,"byteOffset":95676,"byteLength":60,"target":34963},{"buffer":0,"byteOffset":95736,"byteLength":384,"target":34962,"byteStride":12},{"buffer":0,"byteOffset":96120,"byteLength":384,"target":34962,"byteStride":12},{"buffer":0,"byteOffset":96504,"byteLength":256,"target":34962,"byteStride":8},{"buffer":0,"byteOffset":96760,"byteLength":96,"target":34963},{"buffer":0,"byteOffset":96856,"byteLength":288,"target":34962,"byteStride":12},{"buffer":0,"byteOffset":97144,"byteLength":288,"target":34962,"byteStride":12},{"buffer":0,"byteOffset":97432,"byteLength":192,"target":34962,"byteStride":8},{"buffer":0,"byteOffset":97624,"byteLength":72,"target":34963},{"buffer":0,"byteOffset":97696,"byteLength":384,"target":34962,"byteStride":12},{"buffer":0,"byteOffset":98080,"byteLength":384,"target":34962,"byteStride":12},{"buffer":0,"byteOffset":98464,"byteLength":256,"target":34962,"byteStride":8},{"buffer":0,"byteOffset":98720,"byteLength":96,"target":34963},{"buffer":0,"byteOffset":98816,"byteLength":288,"target":34962,"byteStride":12},{"buffer":0,"byteOffset":99104,"byteLength":288,"target":34962,"byteStride":12},{"buffer":0,"byteOffset":99392,"byteLength":192,"target":34962,"byteStride":8},{"buffer":0,"byteOffset":99584,"byteLength":72,"target":34963},{"buffer":0,"byteOffset":99656,"byteLength":624,"target":34962,"byteStride":12},{"buffer":0,"byteOffset":100280,"byteLength":624,"target":34962,"byteStride":12},{"buffer":0,"byteOffset":100904,"byteLength":416,"target":34962,"byteStride":8},{"buffer":0,"byteOffset":101320,"byteLength":156,"target":34963}],"buffers":[{"byteLength":101476,"uri":"data:application/octet-stream;base64,"}],"accessors":[{"bufferView":0,"componentType":5126,"count":92,"max":[1.0625,0.875,3.75],"min":[-1.0625,0.3125,-3.75],"type":"VEC3"},{"bufferView":1,"componentType":5126,"count":92,"max":[1,1,1],"min":[-1,-1,-1],"type":"VEC3"},{"bufferView":2,"componentType":5126,"count":92,"max":[3.75,3.75],"min":[0,0],"type":"VEC2"},{"bufferView":3,"componentType":5123,"count":138,"max":[91],"min":[0],"type":"SCALAR"},{"bufferView":4,"componentType":5126,"count":144,"max":[1,2.4375,2.9375],"min":[-1,0.875,-2.75],"type":"VEC3"},{"bufferView":5,"componentType":5126,"count":144,"max":[1,0,1],"min":[-1,0,-1],"type":"VEC3"},{"bufferView":6,"componentType":5126,"count":144,"max":[2.84375,0.8125],"min":[0,0.03125],"type":"VEC2"},{"bufferView":7,"componentType":5123,"count":216,"max":[143],"min":[0],"type":"SCALAR"},{"bufferView":8,"componentType":5126,"count":20,"max":[0.875,2.3125,-2.75],"min":[-0.875,1.0625,-2.8125],"type":"VEC3"},{"bufferView":9,"componentType":5126,"count":20,"max":[1,1,0],"min":[-1,-1,-1],"type":"VEC3"},{"bufferView":10,"componentType":5126,"count":20,"max":[0.875,0.625],"min":[0,0],"type":"VEC2"},{"bufferView":11,"componentType":5123,"count":30,"max":[19],"min":[0],"type":"SCALAR"},{"bufferView":12,"componentType":5126,"count":20,"max":[0.875,2.3125,3],"min":[-0.875,1.0625,2.9375],"type":"VEC3"},{"bufferView":13,"componentType":5126,"count":20,"max":[1,1,1],"min":[-1,-1,0],"type":"VEC3"},{"bufferView":14,"componentType":5126,"count":20,"max":[0.875,0.625],"min":[0,0],"type":"VEC2"},{"bufferView":15,"componentType":5123,"count":30,"max":[19],"min":[0],"type":"SCALAR"},{"bufferView":16,"componentType":5126,"count":32,"max":[-1,2.3125,-1.8125],"min":[-1.015625,1.0625,-2.5],"type":"VEC3"},{"bufferView":17,"componentType":5126,"count":32,"max":[0,1,1],"min":[-1,-1,-1],"type":"VEC3"},{"bufferView":18,"componentType":5126,"count":32,"max":[0.34375,0.625],"min":[0,0],"type":"VEC2"},{"bufferView":19,"componentType":5123,"count":48,"max":[31],"min":[0],"type":"SCALAR"},{"bufferView":20,"componentType":5126,"count":20,"max":[-1,2.3125,-0.9375],"min":[-1.015625,1.0625,-1.625],"type":"VEC3"},{"bufferView":21,"componentType":5126,"count":20,"max":[0,1,1],"min":[-1,-1,-1],"type":"VEC3"},{"bufferView":22,"componentType":5126,"count":20,"max":[0.34375,0.625],"min":[0,0],"type":"VEC2"},{"bufferView":23,"componentType":5123,"count":30,"max":[19],"min":[0],"type":"SCALAR"},{"bufferView":24,"componentType":5126,"count":20,"max":[-1,2.3125,-0.0625],"min":[-1.015625,1.0625,-0.75],"type":"VEC3"},{"bufferView":25,"componentType":5126,"count":20,"max":[0,1,1],"min":[-1,-1,-1],"type":"VEC3"},{"bufferView":26,"componentType":5126,"count":20,"max":[0.34375,0.625],"min":[0,0],"type":"VEC2"},{"bufferView":27,"componentType":5123,"count":30,"max":[19],"min":[0],"type":"SCALAR"},{"bufferView":28,"componentType":5126,"count":20,"max":[-1,2.3125,0.8125],"min":[-1.015625,1.0625,0.125],"type":"VEC3"},{"bufferView":29,"componentType":5126,"count":20,"max":[0,1,1],"min":[-1,-1,-1],"type":"VEC3"},{"bufferView":30,"componentType":5126,"count":20,"max":[0.34375,0.625],"min":[0,0],"type":"VEC2"},{"bufferView":31,"componentType":5123,"count":30,"max":[19],"min":[0],"type":"SCALAR"},{"bufferView":32,"componentType":5126,"count":20,"max":[-1,2.3125,1.6875],"min":[-1.015625,1.0625,1],"type":"VEC3"},{"bufferView":33,"componentType":5126,"count":20,"max":[0,1,1],"min":[-1,-1,-1],"type":"VEC3"},{"bufferView":34,"componentType":5126,"count":20,"max":[0.34375,0.625],"min":[0,0],"type":"VEC2"},{"bufferView":35,"componentType":5123,"count":30,"max":[19],"min":[0],"type":"SCALAR"},{"bufferView":36,"componentType":5126,"count":20,"max":[-1,2.3125,2.5625],"min":[-1.015625,1.0625,1.875],"type":"VEC3"},{"bufferView":37,"componentType":5126,"count":20,"max":[0,1,1],"min":[-1,-1,-1],"type":"VEC3"},{"bufferView":38,"componentType":5126,"count":20,"max":[0.34375,0.625],"min":[0,0],"type":"VEC2"},{"bufferView":39,"componentType":5123,"count":30,"max":[19],"min":[0],"type":"SCALAR"},{"bufferView":40,"componentType":5126,"count":32,"max":[1.015625,2.3125,-1.8125],"min":[1,1.0625,-2.5],"type":"VEC3"},{"bufferView":41,"componentType":5126,"count":32,"max":[1,1,1],"min":[0,-1,-1],"type":"VEC3"},{"bufferView":42,"componentType":5126,"count":32,"max":[0.34375,0.625],"min":[0,0],"type":"VEC2"},{"bufferView":43,"componentType":5123,"count":48,"max":[31],"min":[0],"type":"SCALAR"},{"bufferView":44,"componentType":5126,"count":20,"max":[1.015625,2.3125,-0.9375],"min":[1,1.0625,-1.625],"type":"VEC3"},{"bufferView":45,"componentType":5126,"count":20,"max":[1,1,1],"min":[0,-1,-1],"type":"VEC3"},{"bufferView":46,"componentType":5126,"count":20,"max":[0.34375,0.625],"min":[0,0],"type":"VEC2"},{"bufferView":47,"componentType":5123,"count":30,"max":[19],"min":[0],"type":"SCALAR"},{"bufferView":48,"componentType":5126,"count":20,"max":[1.015625,2.3125,-0.0625],"min":[1,1.0625,-0.75],"type":"VEC3"},{"bufferView":49,"componentType":5126,"count":20,"max":[1,1,1],"min":[0,-1,-1],"type":"VEC3"},{"bufferView":50,"componentType":5126,"count":20,"max":[0.34375,0.625],"min":[0,0],"type":"VEC2"},{"bufferView":51,"componentType":5123,"count":30,"max":[19],"min":[0],"type":"SCALAR"},{"bufferView":52,"componentType":5126,"count":20,"max":[1.015625,2.3125,0.8125],"min":[1,1.0625,0.125],"type":"VEC3"},{"bufferView":53,"componentType":5126,"count":20,"max":[1,1,1],"min":[0,-1,-1],"type":"VEC3"},{"bufferView":54,"componentType":5126,"count":20,"max":[0.34375,0.625],"min":[0,0],"type":"VEC2"},{"bufferView":55,"componentType":5123,"count":30,"max":[19],"min":[0],"type":"SCALAR"},{"bufferView":56,"componentType":5126,"count":20,"max":[1.015625,2.3125,1.6875],"min":[1,1.0625,1],"type":"VEC3"},{"bufferView":57,"componentType":5126,"count":20,"max":[1,1,1],"min":[0,-1,-1],"type":"VEC3"},{"bufferView":58,"componentType":5126,"count":20,"max":[0.34375,0.625],"min":[0,0],"type":"VEC2"},{"bufferView":59,"componentType":5123,"count":30,"max":[19],"min":[0],"type":"SCALAR"},{"bufferView":60,"componentType":5126,"count":20,"max":[1.015625,2.3125,2.5625],"min":[1,1.0625,1.875],"type":"VEC3"},{"bufferView":61,"componentType":5126,"count":20,"max":[1,1,1],"min":[0,-1,-1],"type":"VEC3"},{"bufferView":62,"componentType":5126,"count":20,"max":[0.34375,0.625],"min":[0,0],"type":"VEC2"},{"bufferView":63,"componentType":5123,"count":30,"max":[19],"min":[0],"type":"SCALAR"},{"bufferView":64,"componentType":5126,"count":16,"max":[-0.5625,0.6875,-3.75],"min":[-0.875,0.5,-3.78125],"type":"VEC3"},{"bufferView":65,"componentType":5126,"count":16,"max":[1,1,0],"min":[-1,0,-1],"type":"VEC3"},{"bufferView":66,"componentType":5126,"count":16,"max":[0.15625,0.09375],"min":[0,0],"type":"VEC2"},{"bufferView":67,"componentType":5123,"count":24,"max":[15],"min":[0],"type":"SCALAR"},{"bufferView":68,"componentType":5126,"count":16,"max":[0.875,0.6875,-3.75],"min":[0.5625,0.5,-3.78125],"type":"VEC3"},{"bufferView":69,"componentType":5126,"count":16,"max":[1,1,0],"min":[-1,0,-1],"type":"VEC3"},{"bufferView":70,"componentType":5126,"count":16,"max":[0.15625,0.09375],"min":[0,0],"type":"VEC2"},{"bufferView":71,"componentType":5123,"count":24,"max":[15],"min":[0],"type":"SCALAR"},{"bufferView":72,"componentType":5126,"count":56,"max":[1.0625,0.5,-3.75],"min":[-1.0625,0.3125,-3.8125],"type":"VEC3"},{"bufferView":73,"componentType":5126,"count":56,"max":[1,1,0],"min":[-1,-1,-1],"type":"VEC3"},{"bufferView":74,"componentType":5126,"count":56,"max":[1.0625,0.09375],"min":[0,0],"type":"VEC2"},{"bufferView":75,"componentType":5123,"count":84,"max":[55],"min":[0],"type":"SCALAR"},{"bufferView":76,"componentType":5126,"count":24,"max":[-1.25,0.59375,-2.9124999046325684],"min":[-1.274999976158142,0.543749988079071,-2.9625000953674316],"type":"VEC3"},{"bufferView":77,"componentType":5126,"count":24,"max":[1,1,1],"min":[-1,-1,-1],"type":"VEC3"},{"bufferView":78,"componentType":5126,"count":24,"max":[0.02500000037252903,0.02499997615814209],"min":[0,0],"type":"VEC2"},{"bufferView":79,"componentType":5123,"count":36,"max":[23],"min":[0],"type":"SCALAR"},{"bufferView":80,"componentType":5126,"count":24,"max":[-1.25,0.4625000059604645,-2.78125],"min":[-1.274999976158142,0.4124999940395355,-2.831249952316284],"type":"VEC3"},{"bufferView":81,"componentType":5126,"count":24,"max":[1,1,1],"min":[-1,-1,-1],"type":"VEC3"},{"bufferView":82,"componentType":5126,"count":24,"max":[0.02500000037252903,0.02499997615814209],"min":[0,0],"type":"VEC2"},{"bufferView":83,"componentType":5123,"count":36,"max":[23],"min":[0],"type":"SCALAR"},{"bufferView":84,"componentType":5126,"count":24,"max":[-1.25,0.33125001192092896,-2.9124999046325684],"min":[-1.274999976158142,0.28125,-2.9625000953674316],"type":"VEC3"},{"bufferView":85,"componentType":5126,"count":24,"max":[1,1,1],"min":[-1,-1,-1],"type":"VEC3"},{"bufferView":86,"componentType":5126,"count":24,"max":[0.02500000037252903,0.02499997615814209],"min":[0,0],"type":"VEC2"},{"bufferView":87,"componentType":5123,"count":36,"max":[23],"min":[0],"type":"SCALAR"},{"bufferView":88,"componentType":5126,"count":24,"max":[-1.25,0.4625000059604645,-3.043750047683716],"min":[-1.274999976158142,0.4124999940395355,-3.09375],"type":"VEC3"},{"bufferView":89,"componentType":5126,"count":24,"max":[1,1,1],"min":[-1,-1,-1],"type":"VEC3"},{"bufferView":90,"componentType":5126,"count":24,"max":[0.02500000037252903,0.02499997615814209],"min":[0,0],"type":"VEC2"},{"bufferView":91,"componentType":5123,"count":36,"max":[23],"min":[0],"type":"SCALAR"},{"bufferView":92,"componentType":5126,"count":120,"max":[-0.90625,0.875,-2.5],"min":[-1.21875,0,-3.375],"type":"VEC3"},{"bufferView":93,"componentType":5126,"count":120,"max":[1,0.9659258127212524,0.9659258127212524],"min":[-1,-0.9659258127212524,-0.9659258127212524],"type":"VEC3"},{"bufferView":94,"componentType":5126,"count":120,"max":[0.4375,0.4375],"min":[0,0],"type":"VEC2"},{"bufferView":95,"componentType":5123,"count":144,"max":[119],"min":[0],"type":"SCALAR"},{"bufferView":96,"componentType":5126,"count":120,"max":[-1.2140624523162842,0.6650000214576721,-2.7100000381469727],"min":[-1.235937476158142,0.20999999344348907,-3.1649999618530273],"type":"VEC3"},{"bufferView":97,"componentType":5126,"count":120,"max":[1,0.9659258127212524,0.9659258127212524],"min":[-1,-0.9659258127212524,-0.9659258127212524],"type":"VEC3"},{"bufferView":98,"componentType":5126,"count":120,"max":[0.22750000655651093,0.22750002145767212],"min":[0,0],"type":"VEC2"},{"bufferView":99,"componentType":5123,"count":144,"max":[119],"min":[0],"type":"SCALAR"},{"bufferView":100,"componentType":5126,"count":120,"max":[-1.2265625,0.5293750166893005,-2.8456249237060547],"min":[-1.2546875476837158,0.34562501311302185,-3.0293750762939453],"type":"VEC3"},{"bufferView":101,"componentType":5126,"count":120,"max":[1,0.9659258127212524,0.9659258127212524],"min":[-1,-0.9659258127212524,-0.9659258127212524],"type":"VEC3"},{"bufferView":102,"componentType":5126,"count":120,"max":[0.09187500178813934,0.09187501668930054],"min":[0,0],"type":"VEC2"},{"bufferView":103,"componentType":5123,"count":144,"max":[119],"min":[0],"type":"SCALAR"},{"bufferView":104,"componentType":5126,"count":24,"max":[-1.25,0.59375,2.9625000953674316],"min":[-1.274999976158142,0.543749988079071,2.9124999046325684],"type":"VEC3"},{"bufferView":105,"componentType":5126,"count":24,"max":[1,1,1],"min":[-1,-1,-1],"type":"VEC3"},{"bufferView":106,"componentType":5126,"count":24,"max":[0.02500000037252903,0.02499997615814209],"min":[0,0],"type":"VEC2"},{"bufferView":107,"componentType":5123,"count":36,"max":[23],"min":[0],"type":"SCALAR"},{"bufferView":108,"componentType":5126,"count":24,"max":[-1.25,0.4625000059604645,3.09375],"min":[-1.274999976158142,0.4124999940395355,3.043750047683716],"type":"VEC3"},{"bufferView":109,"componentType":5126,"count":24,"max":[1,1,1],"min":[-1,-1,-1],"type":"VEC3"},{"bufferView":110,"componentType":5126,"count":24,"max":[0.02500000037252903,0.02499997615814209],"min":[0,0],"type":"VEC2"},{"bufferView":111,"componentType":5123,"count":36,"max":[23],"min":[0],"type":"SCALAR"},{"bufferView":112,"componentType":5126,"count":24,"max":[-1.25,0.33125001192092896,2.9625000953674316],"min":[-1.274999976158142,0.28125,2.9124999046325684],"type":"VEC3"},{"bufferView":113,"componentType":5126,"count":24,"max":[1,1,1],"min":[-1,-1,-1],"type":"VEC3"},{"bufferView":114,"componentType":5126,"count":24,"max":[0.02500000037252903,0.02499997615814209],"min":[0,0],"type":"VEC2"},{"bufferView":115,"componentType":5123,"count":36,"max":[23],"min":[0],"type":"SCALAR"},{"bufferView":116,"componentType":5126,"count":24,"max":[-1.25,0.4625000059604645,2.831249952316284],"min":[-1.274999976158142,0.4124999940395355,2.78125],"type":"VEC3"},{"bufferView":117,"componentType":5126,"count":24,"max":[1,1,1],"min":[-1,-1,-1],"type":"VEC3"},{"bufferView":118,"componentType":5126,"count":24,"max":[0.02500000037252903,0.02499997615814209],"min":[0,0],"type":"VEC2"},{"bufferView":119,"componentType":5123,"count":36,"max":[23],"min":[0],"type":"SCALAR"},{"bufferView":120,"componentType":5126,"count":120,"max":[-0.90625,0.875,3.375],"min":[-1.21875,0,2.5],"type":"VEC3"},{"bufferView":121,"componentType":5126,"count":120,"max":[1,0.9659258127212524,0.9659258127212524],"min":[-1,-0.9659258127212524,-0.9659258127212524],"type":"VEC3"},{"bufferView":122,"componentType":5126,"count":120,"max":[0.4375,0.4375],"min":[0,0],"type":"VEC2"},{"bufferView":123,"componentType":5123,"count":144,"max":[119],"min":[0],"type":"SCALAR"},{"bufferView":124,"componentType":5126,"count":120,"max":[-1.2140624523162842,0.6650000214576721,3.1649999618530273],"min":[-1.235937476158142,0.20999999344348907,2.7100000381469727],"type":"VEC3"},{"bufferView":125,"componentType":5126,"count":120,"max":[1,0.9659258127212524,0.9659258127212524],"min":[-1,-0.9659258127212524,-0.9659258127212524],"type":"VEC3"},{"bufferView":126,"componentType":5126,"count":120,"max":[0.22750000655651093,0.22750002145767212],"min":[0,0],"type":"VEC2"},{"bufferView":127,"componentType":5123,"count":144,"max":[119],"min":[0],"type":"SCALAR"},{"bufferView":128,"componentType":5126,"count":120,"max":[-1.2265625,0.5293750166893005,3.0293750762939453],"min":[-1.2546875476837158,0.34562501311302185,2.8456249237060547],"type":"VEC3"},{"bufferView":129,"componentType":5126,"count":120,"max":[1,0.9659258127212524,0.9659258127212524],"min":[-1,-0.9659258127212524,-0.9659258127212524],"type":"VEC3"},{"bufferView":130,"componentType":5126,"count":120,"max":[0.09187500178813934,0.09187501668930054],"min":[0,0],"type":"VEC2"},{"bufferView":131,"componentType":5123,"count":144,"max":[119],"min":[0],"type":"SCALAR"},{"bufferView":132,"componentType":5126,"count":24,"max":[1.274999976158142,0.59375,-2.9124999046325684],"min":[1.25,0.543749988079071,-2.9625000953674316],"type":"VEC3"},{"bufferView":133,"componentType":5126,"count":24,"max":[1,1,1],"min":[-1,-1,-1],"type":"VEC3"},{"bufferView":134,"componentType":5126,"count":24,"max":[0.02500000037252903,0.02499997615814209],"min":[0,0],"type":"VEC2"},{"bufferView":135,"componentType":5123,"count":36,"max":[23],"min":[0],"type":"SCALAR"},{"bufferView":136,"componentType":5126,"count":24,"max":[1.274999976158142,0.4625000059604645,-2.78125],"min":[1.25,0.4124999940395355,-2.831249952316284],"type":"VEC3"},{"bufferView":137,"componentType":5126,"count":24,"max":[1,1,1],"min":[-1,-1,-1],"type":"VEC3"},{"bufferView":138,"componentType":5126,"count":24,"max":[0.02500000037252903,0.02499997615814209],"min":[0,0],"type":"VEC2"},{"bufferView":139,"componentType":5123,"count":36,"max":[23],"min":[0],"type":"SCALAR"},{"bufferView":140,"componentType":5126,"count":24,"max":[1.274999976158142,0.33125001192092896,-2.9124999046325684],"min":[1.25,0.28125,-2.9625000953674316],"type":"VEC3"},{"bufferView":141,"componentType":5126,"count":24,"max":[1,1,1],"min":[-1,-1,-1],"type":"VEC3"},{"bufferView":142,"componentType":5126,"count":24,"max":[0.02500000037252903,0.02499997615814209],"min":[0,0],"type":"VEC2"},{"bufferView":143,"componentType":5123,"count":36,"max":[23],"min":[0],"type":"SCALAR"},{"bufferView":144,"componentType":5126,"count":24,"max":[1.274999976158142,0.4625000059604645,-3.043750047683716],"min":[1.25,0.4124999940395355,-3.09375],"type":"VEC3"},{"bufferView":145,"componentType":5126,"count":24,"max":[1,1,1],"min":[-1,-1,-1],"type":"VEC3"},{"bufferView":146,"componentType":5126,"count":24,"max":[0.02500000037252903,0.02499997615814209],"min":[0,0],"type":"VEC2"},{"bufferView":147,"componentType":5123,"count":36,"max":[23],"min":[0],"type":"SCALAR"},{"bufferView":148,"componentType":5126,"count":120,"max":[1.21875,0.875,-2.5],"min":[0.90625,0,-3.375],"type":"VEC3"},{"bufferView":149,"componentType":5126,"count":120,"max":[1,0.9659258127212524,0.9659258127212524],"min":[-1,-0.9659258127212524,-0.9659258127212524],"type":"VEC3"},{"bufferView":150,"componentType":5126,"count":120,"max":[0.4375,0.4375],"min":[0,0],"type":"VEC2"},{"bufferView":151,"componentType":5123,"count":144,"max":[119],"min":[0],"type":"SCALAR"},{"bufferView":152,"componentType":5126,"count":120,"max":[1.235937476158142,0.6650000214576721,-2.7100000381469727],"min":[1.2140624523162842,0.20999999344348907,-3.1649999618530273],"type":"VEC3"},{"bufferView":153,"componentType":5126,"count":120,"max":[1,0.9659258127212524,0.9659258127212524],"min":[-1,-0.9659258127212524,-0.9659258127212524],"type":"VEC3"},{"bufferView":154,"componentType":5126,"count":120,"max":[0.22750000655651093,0.22750002145767212],"min":[0,0],"type":"VEC2"},{"bufferView":155,"componentType":5123,"count":144,"max":[119],"min":[0],"type":"SCALAR"},{"bufferView":156,"componentType":5126,"count":120,"max":[1.2546875476837158,0.5293750166893005,-2.8456249237060547],"min":[1.2265625,0.34562501311302185,-3.0293750762939453],"type":"VEC3"},{"bufferView":157,"componentType":5126,"count":120,"max":[1,0.9659258127212524,0.9659258127212524],"min":[-1,-0.9659258127212524,-0.9659258127212524],"type":"VEC3"},{"bufferView":158,"componentType":5126,"count":120,"max":[0.09187500178813934,0.09187501668930054],"min":[0,0],"type":"VEC2"},{"bufferView":159,"componentType":5123,"count":144,"max":[119],"min":[0],"type":"SCALAR"},{"bufferView":160,"componentType":5126,"count":24,"max":[1.274999976158142,0.59375,2.9625000953674316],"min":[1.25,0.543749988079071,2.9124999046325684],"type":"VEC3"},{"bufferView":161,"componentType":5126,"count":24,"max":[1,1,1],"min":[-1,-1,-1],"type":"VEC3"},{"bufferView":162,"componentType":5126,"count":24,"max":[0.02500000037252903,0.02499997615814209],"min":[0,0],"type":"VEC2"},{"bufferView":163,"componentType":5123,"count":36,"max":[23],"min":[0],"type":"SCALAR"},{"bufferView":164,"componentType":5126,"count":24,"max":[1.274999976158142,0.4625000059604645,3.09375],"min":[1.25,0.4124999940395355,3.043750047683716],"type":"VEC3"},{"bufferView":165,"componentType":5126,"count":24,"max":[1,1,1],"min":[-1,-1,-1],"type":"VEC3"},{"bufferView":166,"componentType":5126,"count":24,"max":[0.02500000037252903,0.02499997615814209],"min":[0,0],"type":"VEC2"},{"bufferView":167,"componentType":5123,"count":36,"max":[23],"min":[0],"type":"SCALAR"},{"bufferView":168,"componentType":5126,"count":24,"max":[1.274999976158142,0.33125001192092896,2.9625000953674316],"min":[1.25,0.28125,2.9124999046325684],"type":"VEC3"},{"bufferView":169,"componentType":5126,"count":24,"max":[1,1,1],"min":[-1,-1,-1],"type":"VEC3"},{"bufferView":170,"componentType":5126,"count":24,"max":[0.02500000037252903,0.02499997615814209],"min":[0,0],"type":"VEC2"},{"bufferView":171,"componentType":5123,"count":36,"max":[23],"min":[0],"type":"SCALAR"},{"bufferView":172,"componentType":5126,"count":24,"max":[1.274999976158142,0.4625000059604645,2.831249952316284],"min":[1.25,0.4124999940395355,2.78125],"type":"VEC3"},{"bufferView":173,"componentType":5126,"count":24,"max":[1,1,1],"min":[-1,-1,-1],"type":"VEC3"},{"bufferView":174,"componentType":5126,"count":24,"max":[0.02500000037252903,0.02499997615814209],"min":[0,0],"type":"VEC2"},{"bufferView":175,"componentType":5123,"count":36,"max":[23],"min":[0],"type":"SCALAR"},{"bufferView":176,"componentType":5126,"count":120,"max":[1.21875,0.875,3.375],"min":[0.90625,0,2.5],"type":"VEC3"},{"bufferView":177,"componentType":5126,"count":120,"max":[1,0.9659258127212524,0.9659258127212524],"min":[-1,-0.9659258127212524,-0.9659258127212524],"type":"VEC3"},{"bufferView":178,"componentType":5126,"count":120,"max":[0.4375,0.4375],"min":[0,0],"type":"VEC2"},{"bufferView":179,"componentType":5123,"count":144,"max":[119],"min":[0],"type":"SCALAR"},{"bufferView":180,"componentType":5126,"count":120,"max":[1.235937476158142,0.6650000214576721,3.1649999618530273],"min":[1.2140624523162842,0.20999999344348907,2.7100000381469727],"type":"VEC3"},{"bufferView":181,"componentType":5126,"count":120,"max":[1,0.9659258127212524,0.9659258127212524],"min":[-1,-0.9659258127212524,-0.9659258127212524],"type":"VEC3"},{"bufferView":182,"componentType":5126,"count":120,"max":[0.22750000655651093,0.22750002145767212],"min":[0,0],"type":"VEC2"},{"bufferView":183,"componentType":5123,"count":144,"max":[119],"min":[0],"type":"SCALAR"},{"bufferView":184,"componentType":5126,"count":120,"max":[1.2546875476837158,0.5293750166893005,3.0293750762939453],"min":[1.2265625,0.34562501311302185,2.8456249237060547],"type":"VEC3"},{"bufferView":185,"componentType":5126,"count":120,"max":[1,0.9659258127212524,0.9659258127212524],"min":[-1,-0.9659258127212524,-0.9659258127212524],"type":"VEC3"},{"bufferView":186,"componentType":5126,"count":120,"max":[0.09187500178813934,0.09187501668930054],"min":[0,0],"type":"VEC2"},{"bufferView":187,"componentType":5123,"count":144,"max":[119],"min":[0],"type":"SCALAR"},{"bufferView":188,"componentType":5126,"count":28,"max":[-1,1.375,-2.4375],"min":[-1.25,1.1875,-2.6875],"type":"VEC3"},{"bufferView":189,"componentType":5126,"count":28,"max":[0,1,1],"min":[-1,-1,-1],"type":"VEC3"},{"bufferView":190,"componentType":5126,"count":28,"max":[0.125,0.125],"min":[0,0],"type":"VEC2"},{"bufferView":191,"componentType":5123,"count":42,"max":[27],"min":[0],"type":"SCALAR"},{"bufferView":192,"componentType":5126,"count":28,"max":[1.25,1.375,-2.4375],"min":[1,1.1875,-2.6875],"type":"VEC3"},{"bufferView":193,"componentType":5126,"count":28,"max":[1,1,1],"min":[0,-1,-1],"type":"VEC3"},{"bufferView":194,"componentType":5126,"count":28,"max":[0.125,0.125],"min":[0,0],"type":"VEC2"},{"bufferView":195,"componentType":5123,"count":42,"max":[27],"min":[0],"type":"SCALAR"},{"bufferView":196,"componentType":5126,"count":36,"max":[0.4375,0.6875,-3.793750047683716],"min":[-0.4375,0.4375,-3.825000047683716],"type":"VEC3"},{"bufferView":197,"componentType":5126,"count":36,"max":[1,1,1],"min":[-1,-1,-1],"type":"VEC3"},{"bufferView":198,"componentType":5126,"count":36,"max":[0.4375,0.125],"min":[0,0],"type":"VEC2"},{"bufferView":199,"componentType":5123,"count":54,"max":[35],"min":[0],"type":"SCALAR"},{"bufferView":200,"componentType":5126,"count":20,"max":[-0.5625,0.75,3.78125],"min":[-0.875,0.5625,3.75],"type":"VEC3"},{"bufferView":201,"componentType":5126,"count":20,"max":[1,1,1],"min":[-1,-1,0],"type":"VEC3"},{"bufferView":202,"componentType":5126,"count":20,"max":[0.15625,0.09375],"min":[0,0],"type":"VEC2"},{"bufferView":203,"componentType":5123,"count":30,"max":[19],"min":[0],"type":"SCALAR"},{"bufferView":204,"componentType":5126,"count":20,"max":[0.875,0.75,3.78125],"min":[0.5625,0.5625,3.75],"type":"VEC3"},{"bufferView":205,"componentType":5126,"count":20,"max":[1,1,1],"min":[-1,-1,0],"type":"VEC3"},{"bufferView":206,"componentType":5126,"count":20,"max":[0.15625,0.09375],"min":[0,0],"type":"VEC2"},{"bufferView":207,"componentType":5123,"count":30,"max":[19],"min":[0],"type":"SCALAR"},{"bufferView":208,"componentType":5126,"count":20,"max":[-1,1,0.125],"min":[-1.021875023841858,0.9375,-0.125],"type":"VEC3"},{"bufferView":209,"componentType":5126,"count":20,"max":[0,1,1],"min":[-1,-1,-1],"type":"VEC3"},{"bufferView":210,"componentType":5126,"count":20,"max":[0.125,0.125],"min":[0,0],"type":"VEC2"},{"bufferView":211,"componentType":5123,"count":30,"max":[19],"min":[0],"type":"SCALAR"},{"bufferView":212,"componentType":5126,"count":20,"max":[1.021875023841858,1,0.125],"min":[1,0.9375,-0.125],"type":"VEC3"},{"bufferView":213,"componentType":5126,"count":20,"max":[1,1,1],"min":[0,-1,-1],"type":"VEC3"},{"bufferView":214,"componentType":5126,"count":20,"max":[0.125,0.125],"min":[0,0],"type":"VEC2"},{"bufferView":215,"componentType":5123,"count":30,"max":[19],"min":[0],"type":"SCALAR"},{"bufferView":216,"componentType":5126,"count":16,"max":[-1.0625,0.875,0.21250000596046448],"min":[-1.0812499523162842,0.4375,0.1875],"type":"VEC3"},{"bufferView":217,"componentType":5126,"count":16,"max":[0,0,1],"min":[-1,-1,-1],"type":"VEC3"},{"bufferView":218,"componentType":5126,"count":16,"max":[0.012500000186264515,0.21875],"min":[0,0],"type":"VEC2"},{"bufferView":219,"componentType":5123,"count":24,"max":[15],"min":[0],"type":"SCALAR"},{"bufferView":220,"componentType":5126,"count":16,"max":[1.0812499523162842,0.875,0.21250000596046448],"min":[1.0625,0.4375,0.1875],"type":"VEC3"},{"bufferView":221,"componentType":5126,"count":16,"max":[1,0,1],"min":[0,-1,-1],"type":"VEC3"},{"bufferView":222,"componentType":5126,"count":16,"max":[0.012500000186264515,0.21875],"min":[0,0],"type":"VEC2"},{"bufferView":223,"componentType":5123,"count":24,"max":[15],"min":[0],"type":"SCALAR"},{"bufferView":224,"componentType":5126,"count":20,"max":[0.25,0.4375,-3.8125],"min":[-0.25,0.3125,-3.828125],"type":"VEC3"},{"bufferView":225,"componentType":5126,"count":20,"max":[1,1,0],"min":[-1,-1,-1],"type":"VEC3"},{"bufferView":226,"componentType":5126,"count":20,"max":[0.25,0.0625],"min":[0,0],"type":"VEC2"},{"bufferView":227,"componentType":5123,"count":30,"max":[19],"min":[0],"type":"SCALAR"},{"bufferView":228,"componentType":5126,"count":24,"max":[0.75,2.0625,-2.8187499046325684],"min":[-0.75,1.75,-2.84375],"type":"VEC3"},{"bufferView":229,"componentType":5126,"count":24,"max":[1,1,1],"min":[-1,-1,-1],"type":"VEC3"},{"bufferView":230,"componentType":5126,"count":24,"max":[0.75,0.15625],"min":[0,0],"type":"VEC2"},{"bufferView":231,"componentType":5123,"count":36,"max":[23],"min":[0],"type":"SCALAR"},{"bufferView":232,"componentType":5126,"count":20,"max":[0.3125,2.625,-1.5],"min":[-0.3125,2.5625,-2],"type":"VEC3"},{"bufferView":233,"componentType":5126,"count":20,"max":[1,1,1],"min":[-1,0,-1],"type":"VEC3"},{"bufferView":234,"componentType":5126,"count":20,"max":[0.3125,0.25],"min":[0,0],"type":"VEC2"},{"bufferView":235,"componentType":5123,"count":30,"max":[19],"min":[0],"type":"SCALAR"},{"bufferView":236,"componentType":5126,"count":20,"max":[0.3125,2.625,0.5],"min":[-0.3125,2.5625,0],"type":"VEC3"},{"bufferView":237,"componentType":5126,"count":20,"max":[1,1,1],"min":[-1,0,-1],"type":"VEC3"},{"bufferView":238,"componentType":5126,"count":20,"max":[0.3125,0.25],"min":[0,0],"type":"VEC2"},{"bufferView":239,"componentType":5123,"count":30,"max":[19],"min":[0],"type":"SCALAR"},{"bufferView":240,"componentType":5126,"count":20,"max":[0.3125,2.625,2.5],"min":[-0.3125,2.5625,2],"type":"VEC3"},{"bufferView":241,"componentType":5126,"count":20,"max":[1,1,1],"min":[-1,0,-1],"type":"VEC3"},{"bufferView":242,"componentType":5126,"count":20,"max":[0.3125,0.25],"min":[0,0],"type":"VEC2"},{"bufferView":243,"componentType":5123,"count":30,"max":[19],"min":[0],"type":"SCALAR"},{"bufferView":244,"componentType":5126,"count":32,"max":[-1.0625,0.9375,3.5],"min":[-1.09375,0.875,-3.5],"type":"VEC3"},{"bufferView":245,"componentType":5126,"count":32,"max":[1,1,1],"min":[-1,-1,-1],"type":"VEC3"},{"bufferView":246,"componentType":5126,"count":32,"max":[3.5,3.5],"min":[0,0],"type":"VEC2"},{"bufferView":247,"componentType":5123,"count":48,"max":[31],"min":[0],"type":"SCALAR"},{"bufferView":248,"componentType":5126,"count":24,"max":[-1.0625,1.125,3.5],"min":[-1.09375,1.0625,-3.5],"type":"VEC3"},{"bufferView":249,"componentType":5126,"count":24,"max":[1,1,1],"min":[-1,-1,-1],"type":"VEC3"},{"bufferView":250,"componentType":5126,"count":24,"max":[3.5,3.5],"min":[0,0],"type":"VEC2"},{"bufferView":251,"componentType":5123,"count":36,"max":[23],"min":[0],"type":"SCALAR"},{"bufferView":252,"componentType":5126,"count":32,"max":[1.09375,0.9375,3.5],"min":[1.0625,0.875,-3.5],"type":"VEC3"},{"bufferView":253,"componentType":5126,"count":32,"max":[1,1,1],"min":[-1,-1,-1],"type":"VEC3"},{"bufferView":254,"componentType":5126,"count":32,"max":[3.5,3.5],"min":[0,0],"type":"VEC2"},{"bufferView":255,"componentType":5123,"count":48,"max":[31],"min":[0],"type":"SCALAR"},{"bufferView":256,"componentType":5126,"count":24,"max":[1.09375,1.125,3.5],"min":[1.0625,1.0625,-3.5],"type":"VEC3"},{"bufferView":257,"componentType":5126,"count":24,"max":[1,1,1],"min":[-1,-1,-1],"type":"VEC3"},{"bufferView":258,"componentType":5126,"count":24,"max":[3.5,3.5],"min":[0,0],"type":"VEC2"},{"bufferView":259,"componentType":5123,"count":36,"max":[23],"min":[0],"type":"SCALAR"},{"bufferView":260,"componentType":5126,"count":52,"max":[1.0625,2.5625,3],"min":[-1.0625,2.4375,-2.75],"type":"VEC3"},{"bufferView":261,"componentType":5126,"count":52,"max":[1,1,1],"min":[-1,-1,-1],"type":"VEC3"},{"bufferView":262,"componentType":5126,"count":52,"max":[2.875,2.875],"min":[0,0],"type":"VEC2"},{"bufferView":263,"componentType":5123,"count":78,"max":[51],"min":[0],"type":"SCALAR"}],"materials":[{"pbrMetallicRoughness":{"metallicFactor":0,"roughnessFactor":1,"baseColorTexture":{"index":0}},"alphaMode":"MASK","alphaCutoff":0.05,"doubleSided":true},{"pbrMetallicRoughness":{"metallicFactor":0,"roughnessFactor":1,"baseColorTexture":{"index":1}},"alphaMode":"MASK","alphaCutoff":0.05,"doubleSided":true},{"pbrMetallicRoughness":{"metallicFactor":0,"roughnessFactor":1,"baseColorTexture":{"index":2}},"alphaMode":"MASK","alphaCutoff":0.05,"doubleSided":true},{"pbrMetallicRoughness":{"metallicFactor":0,"roughnessFactor":1,"baseColorTexture":{"index":3}},"alphaMode":"MASK","alphaCutoff":0.05,"doubleSided":true},{"pbrMetallicRoughness":{"metallicFactor":0,"roughnessFactor":1,"baseColorTexture":{"index":4}},"alphaMode":"MASK","alphaCutoff":0.05,"doubleSided":true},{"pbrMetallicRoughness":{"metallicFactor":0,"roughnessFactor":1,"baseColorTexture":{"index":5}},"alphaMode":"MASK","alphaCutoff":0.05,"doubleSided":true}],"textures":[{"sampler":0,"source":0,"name":"vehicle_ochre.png"},{"sampler":1,"source":1,"name":"vehicle_glass.png"},{"sampler":2,"source":2,"name":"vehicle_cream.png"},{"sampler":3,"source":3,"name":"vehicle_metal.png"},{"sampler":4,"source":4,"name":"vehicle_trim.png"},{"sampler":5,"source":5,"name":"vehicle_rust.png"}],"samplers":[{"magFilter":9728,"minFilter":9728,"wrapS":10497,"wrapT":10497},{"magFilter":9728,"minFilter":9728,"wrapS":10497,"wrapT":10497},{"magFilter":9728,"minFilter":9728,"wrapS":10497,"wrapT":10497},{"magFilter":9728,"minFilter":9728,"wrapS":10497,"wrapT":10497},{"magFilter":9728,"minFilter":9728,"wrapS":10497,"wrapT":10497},{"magFilter":9728,"minFilter":9728,"wrapS":10497,"wrapT":10497}],"images":[{"mimeType":"image/png","uri":"../textures/vehicle_ochre.png","name":"vehicle_ochre"},{"mimeType":"image/png","uri":"../textures/vehicle_glass.png","name":"vehicle_glass"},{"mimeType":"image/png","uri":"../textures/vehicle_cream.png","name":"vehicle_cream"},{"mimeType":"image/png","uri":"../textures/vehicle_metal.png","name":"vehicle_metal"},{"mimeType":"image/png","uri":"../textures/vehicle_trim.png","name":"vehicle_trim"},{"mimeType":"image/png","uri":"../textures/vehicle_rust.png","name":"vehicle_rust"}],"meshes":[{"primitives":[{"mode":4,"attributes":{"POSITION":0,"NORMAL":1,"TEXCOORD_0":2},"indices":3,"material":0}]},{"primitives":[{"mode":4,"attributes":{"POSITION":4,"NORMAL":5,"TEXCOORD_0":6},"indices":7,"material":0}]},{"primitives":[{"mode":4,"attributes":{"POSITION":8,"NORMAL":9,"TEXCOORD_0":10},"indices":11,"material":1}]},{"primitives":[{"mode":4,"attributes":{"POSITION":12,"NORMAL":13,"TEXCOORD_0":14},"indices":15,"material":1}]},{"primitives":[{"mode":4,"attributes":{"POSITION":16,"NORMAL":17,"TEXCOORD_0":18},"indices":19,"material":1}]},{"primitives":[{"mode":4,"attributes":{"POSITION":20,"NORMAL":21,"TEXCOORD_0":22},"indices":23,"material":1}]},{"primitives":[{"mode":4,"attributes":{"POSITION":24,"NORMAL":25,"TEXCOORD_0":26},"indices":27,"material":1}]},{"primitives":[{"mode":4,"attributes":{"POSITION":28,"NORMAL":29,"TEXCOORD_0":30},"indices":31,"material":1}]},{"primitives":[{"mode":4,"attributes":{"POSITION":32,"NORMAL":33,"TEXCOORD_0":34},"indices":35,"material":1}]},{"primitives":[{"mode":4,"attributes":{"POSITION":36,"NORMAL":37,"TEXCOORD_0":38},"indices":39,"material":1}]},{"primitives":[{"mode":4,"attributes":{"POSITION":40,"NORMAL":41,"TEXCOORD_0":42},"indices":43,"material":1}]},{"primitives":[{"mode":4,"attributes":{"POSITION":44,"NORMAL":45,"TEXCOORD_0":46},"indices":47,"material":1}]},{"primitives":[{"mode":4,"attributes":{"POSITION":48,"NORMAL":49,"TEXCOORD_0":50},"indices":51,"material":1}]},{"primitives":[{"mode":4,"attributes":{"POSITION":52,"NORMAL":53,"TEXCOORD_0":54},"indices":55,"material":1}]},{"primitives":[{"mode":4,"attributes":{"POSITION":56,"NORMAL":57,"TEXCOORD_0":58},"indices":59,"material":1}]},{"primitives":[{"mode":4,"attributes":{"POSITION":60,"NORMAL":61,"TEXCOORD_0":62},"indices":63,"material":1}]},{"primitives":[{"mode":4,"attributes":{"POSITION":64,"NORMAL":65,"TEXCOORD_0":66},"indices":67,"material":2}]},{"primitives":[{"mode":4,"attributes":{"POSITION":68,"NORMAL":69,"TEXCOORD_0":70},"indices":71,"material":2}]},{"primitives":[{"mode":4,"attributes":{"POSITION":72,"NORMAL":73,"TEXCOORD_0":74},"indices":75,"material":3}]},{"primitives":[{"mode":4,"attributes":{"POSITION":76,"NORMAL":77,"TEXCOORD_0":78},"indices":79,"material":3}]},{"primitives":[{"mode":4,"attributes":{"POSITION":80,"NORMAL":81,"TEXCOORD_0":82},"indices":83,"material":3}]},{"primitives":[{"mode":4,"attributes":{"POSITION":84,"NORMAL":85,"TEXCOORD_0":86},"indices":87,"material":3}]},{"primitives":[{"mode":4,"attributes":{"POSITION":88,"NORMAL":89,"TEXCOORD_0":90},"indices":91,"material":3}]},{"primitives":[{"mode":4,"attributes":{"POSITION":92,"NORMAL":93,"TEXCOORD_0":94},"indices":95,"material":4}]},{"primitives":[{"mode":4,"attributes":{"POSITION":96,"NORMAL":97,"TEXCOORD_0":98},"indices":99,"material":3}]},{"primitives":[{"mode":4,"attributes":{"POSITION":100,"NORMAL":101,"TEXCOORD_0":102},"indices":103,"material":4}]},{"primitives":[{"mode":4,"attributes":{"POSITION":104,"NORMAL":105,"TEXCOORD_0":106},"indices":107,"material":3}]},{"primitives":[{"mode":4,"attributes":{"POSITION":108,"NORMAL":109,"TEXCOORD_0":110},"indices":111,"material":3}]},{"primitives":[{"mode":4,"attributes":{"POSITION":112,"NORMAL":113,"TEXCOORD_0":114},"indices":115,"material":3}]},{"primitives":[{"mode":4,"attributes":{"POSITION":116,"NORMAL":117,"TEXCOORD_0":118},"indices":119,"material":3}]},{"primitives":[{"mode":4,"attributes":{"POSITION":120,"NORMAL":121,"TEXCOORD_0":122},"indices":123,"material":4}]},{"primitives":[{"mode":4,"attributes":{"POSITION":124,"NORMAL":125,"TEXCOORD_0":126},"indices":127,"material":3}]},{"primitives":[{"mode":4,"attributes":{"POSITION":128,"NORMAL":129,"TEXCOORD_0":130},"indices":131,"material":4}]},{"primitives":[{"mode":4,"attributes":{"POSITION":132,"NORMAL":133,"TEXCOORD_0":134},"indices":135,"material":3}]},{"primitives":[{"mode":4,"attributes":{"POSITION":136,"NORMAL":137,"TEXCOORD_0":138},"indices":139,"material":3}]},{"primitives":[{"mode":4,"attributes":{"POSITION":140,"NORMAL":141,"TEXCOORD_0":142},"indices":143,"material":3}]},{"primitives":[{"mode":4,"attributes":{"POSITION":144,"NORMAL":145,"TEXCOORD_0":146},"indices":147,"material":3}]},{"primitives":[{"mode":4,"attributes":{"POSITION":148,"NORMAL":149,"TEXCOORD_0":150},"indices":151,"material":4}]},{"primitives":[{"mode":4,"attributes":{"POSITION":152,"NORMAL":153,"TEXCOORD_0":154},"indices":155,"material":3}]},{"primitives":[{"mode":4,"attributes":{"POSITION":156,"NORMAL":157,"TEXCOORD_0":158},"indices":159,"material":4}]},{"primitives":[{"mode":4,"attributes":{"POSITION":160,"NORMAL":161,"TEXCOORD_0":162},"indices":163,"material":3}]},{"primitives":[{"mode":4,"attributes":{"POSITION":164,"NORMAL":165,"TEXCOORD_0":166},"indices":167,"material":3}]},{"primitives":[{"mode":4,"attributes":{"POSITION":168,"NORMAL":169,"TEXCOORD_0":170},"indices":171,"material":3}]},{"primitives":[{"mode":4,"attributes":{"POSITION":172,"NORMAL":173,"TEXCOORD_0":174},"indices":175,"material":3}]},{"primitives":[{"mode":4,"attributes":{"POSITION":176,"NORMAL":177,"TEXCOORD_0":178},"indices":179,"material":4}]},{"primitives":[{"mode":4,"attributes":{"POSITION":180,"NORMAL":181,"TEXCOORD_0":182},"indices":183,"material":3}]},{"primitives":[{"mode":4,"attributes":{"POSITION":184,"NORMAL":185,"TEXCOORD_0":186},"indices":187,"material":4}]},{"primitives":[{"mode":4,"attributes":{"POSITION":188,"NORMAL":189,"TEXCOORD_0":190},"indices":191,"material":3}]},{"primitives":[{"mode":4,"attributes":{"POSITION":192,"NORMAL":193,"TEXCOORD_0":194},"indices":195,"material":3}]},{"primitives":[{"mode":4,"attributes":{"POSITION":196,"NORMAL":197,"TEXCOORD_0":198},"indices":199,"material":4}]},{"primitives":[{"mode":4,"attributes":{"POSITION":200,"NORMAL":201,"TEXCOORD_0":202},"indices":203,"material":5}]},{"primitives":[{"mode":4,"attributes":{"POSITION":204,"NORMAL":205,"TEXCOORD_0":206},"indices":207,"material":5}]},{"primitives":[{"mode":4,"attributes":{"POSITION":208,"NORMAL":209,"TEXCOORD_0":210},"indices":211,"material":2}]},{"primitives":[{"mode":4,"attributes":{"POSITION":212,"NORMAL":213,"TEXCOORD_0":214},"indices":215,"material":2}]},{"primitives":[{"mode":4,"attributes":{"POSITION":216,"NORMAL":217,"TEXCOORD_0":218},"indices":219,"material":4}]},{"primitives":[{"mode":4,"attributes":{"POSITION":220,"NORMAL":221,"TEXCOORD_0":222},"indices":223,"material":4}]},{"primitives":[{"mode":4,"attributes":{"POSITION":224,"NORMAL":225,"TEXCOORD_0":226},"indices":227,"material":2}]},{"primitives":[{"mode":4,"attributes":{"POSITION":228,"NORMAL":229,"TEXCOORD_0":230},"indices":231,"material":4}]},{"primitives":[{"mode":4,"attributes":{"POSITION":232,"NORMAL":233,"TEXCOORD_0":234},"indices":235,"material":3}]},{"primitives":[{"mode":4,"attributes":{"POSITION":236,"NORMAL":237,"TEXCOORD_0":238},"indices":239,"material":3}]},{"primitives":[{"mode":4,"attributes":{"POSITION":240,"NORMAL":241,"TEXCOORD_0":242},"indices":243,"material":3}]},{"primitives":[{"mode":4,"attributes":{"POSITION":244,"NORMAL":245,"TEXCOORD_0":246},"indices":247,"material":4}]},{"primitives":[{"mode":4,"attributes":{"POSITION":248,"NORMAL":249,"TEXCOORD_0":250},"indices":251,"material":4}]},{"primitives":[{"mode":4,"attributes":{"POSITION":252,"NORMAL":253,"TEXCOORD_0":254},"indices":255,"material":4}]},{"primitives":[{"mode":4,"attributes":{"POSITION":256,"NORMAL":257,"TEXCOORD_0":258},"indices":259,"material":4}]},{"primitives":[{"mode":4,"attributes":{"POSITION":260,"NORMAL":261,"TEXCOORD_0":262},"indices":263,"material":2}]}]}