{"asset":{"version":"2.0","generator":"Blockbench 5.1.6 glTF exporter"},"scenes":[{"nodes":[2,4,6,16],"name":"blockbench_export"}],"scene":0,"nodes":[{"name":"post","mesh":0},{"name":"post","mesh":1},{"name":"post","children":[0,1]},{"name":"back","mesh":2},{"name":"back","children":[3]},{"name":"roof","mesh":3},{"name":"roof","children":[5]},{"name":"leg","mesh":4},{"name":"leg","mesh":5},{"name":"leg","mesh":6},{"name":"leg","mesh":7},{"name":"seat","mesh":8},{"name":"seat","mesh":9},{"name":"seat","mesh":10},{"name":"back","mesh":11},{"name":"back","mesh":12},{"name":"bench_0_0_0_0","children":[7,8,9,10,11,12,13,14,15]}],"bufferViews":[{"buffer":0,"byteOffset":0,"byteLength":288,"target":34962,"byteStride":12},{"buffer":0,"byteOffset":288,"byteLength":288,"target":34962,"byteStride":12},{"buffer":0,"byteOffset":576,"byteLength":192,"target":34962,"byteStride":8},{"buffer":0,"byteOffset":768,"byteLength":72,"target":34963},{"buffer":0,"byteOffset":840,"byteLength":288,"target":34962,"byteStride":12},{"buffer":0,"byteOffset":1128,"byteLength":288,"target":34962,"byteStride":12},{"buffer":0,"byteOffset":1416,"byteLength":192,"target":34962,"byteStride":8},{"buffer":0,"byteOffset":1608,"byteLength":72,"target":34963},{"buffer":0,"byteOffset":1680,"byteLength":576,"target":34962,"byteStride":12},{"buffer":0,"byteOffset":2256,"byteLength":576,"target":34962,"byteStride":12},{"buffer":0,"byteOffset":2832,"byteLength":384,"target":34962,"byteStride":8},{"buffer":0,"byteOffset":3216,"byteLength":144,"target":34963},{"buffer":0,"byteOffset":3360,"byteLength":576,"target":34962,"byteStride":12},{"buffer":0,"byteOffset":3936,"byteLength":576,"target":34962,"byteStride":12},{"buffer":0,"byteOffset":4512,"byteLength":384,"target":34962,"byteStride":8},{"buffer":0,"byteOffset":4896,"byteLength":144,"target":34963},{"buffer":0,"byteOffset":5040,"byteLength":240,"target":34962,"byteStride":12},{"buffer":0,"byteOffset":5280,"byteLength":240,"target":34962,"byteStride":12},{"buffer":0,"byteOffset":5520,"byteLength":160,"target":34962,"byteStride":8},{"buffer":0,"byteOffset":5680,"byteLength":60,"target":34963},{"buffer":0,"byteOffset":5740,"byteLength":240,"target":34962,"byteStride":12},{"buffer":0,"byteOffset":5980,"byteLength":240,"target":34962,"byteStride":12},{"buffer":0,"byteOffset":6220,"byteLength":160,"target":34962,"byteStride":8},{"buffer":0,"byteOffset":6380,"byteLength":60,"target":34963},{"buffer":0,"byteOffset":6440,"byteLength":240,"target":34962,"byteStride":12},{"buffer":0,"byteOffset":6680,"byteLength":240,"target":34962,"byteStride":12},{"buffer":0,"byteOffset":6920,"byteLength":160,"target":34962,"byteStride":8},{"buffer":0,"byteOffset":7080,"byteLength":60,"target":34963},{"buffer":0,"byteOffset":7140,"byteLength":240,"target":34962,"byteStride":12},{"buffer":0,"byteOffset":7380,"byteLength":240,"target":34962,"byteStride":12},{"buffer":0,"byteOffset":7620,"byteLength":160,"target":34962,"byteStride":8},{"buffer":0,"byteOffset":7780,"byteLength":60,"target":34963},{"buffer":0,"byteOffset":7840,"byteLength":480,"target":34962,"byteStride":12},{"buffer":0,"byteOffset":8320,"byteLength":480,"target":34962,"byteStride":12},{"buffer":0,"byteOffset":8800,"byteLength":320,"target":34962,"byteStride":8},{"buffer":0,"byteOffset":9120,"byteLength":120,"target":34963},{"buffer":0,"byteOffset":9240,"byteLength":480,"target":34962,"byteStride":12},{"buffer":0,"byteOffset":9720,"byteLength":480,"target":34962,"byteStride":12},{"buffer":0,"byteOffset":10200,"byteLength":320,"target":34962,"byteStride":8},{"buffer":0,"byteOffset":10520,"byteLength":120,"target":34963},{"buffer":0,"byteOffset":10640,"byteLength":480,"target":34962,"byteStride":12},{"buffer":0,"byteOffset":11120,"byteLength":480,"target":34962,"byteStride":12},{"buffer":0,"byteOffset":11600,"byteLength":320,"target":34962,"byteStride":8},{"buffer":0,"byteOffset":11920,"byteLength":120,"target":34963},{"buffer":0,"byteOffset":12040,"byteLength":288,"target":34962,"byteStride":12},{"buffer":0,"byteOffset":12328,"byteLength":288,"target":34962,"byteStride":12},{"buffer":0,"byteOffset":12616,"byteLength":192,"target":34962,"byteStride":8},{"buffer":0,"byteOffset":12808,"byteLength":72,"target":34963},{"buffer":0,"byteOffset":12880,"byteLength":288,"target":34962,"byteStride":12},{"buffer":0,"byteOffset":13168,"byteLength":288,"target":34962,"byteStride":12},{"buffer":0,"byteOffset":13456,"byteLength":192,"target":34962,"byteStride":8},{"buffer":0,"byteOffset":13648,"byteLength":72,"target":34963}],"buffers":[{"byteLength":13720,"uri":"data:application/octet-stream;base64,"}],"accessors":[{"bufferView":0,"componentType":5126,"count":24,"max":[-1.875,2.25,0.0625],"min":[-2,0,-0.0625],"type":"VEC3"},{"bufferView":1,"componentType":5126,"count":24,"max":[1,0,1],"min":[-1,-1,-1],"type":"VEC3"},{"bufferView":2,"componentType":5126,"count":24,"max":[0.0625,1.125],"min":[0,0],"type":"VEC2"},{"bufferView":3,"componentType":5123,"count":36,"max":[23],"min":[0],"type":"SCALAR"},{"bufferView":4,"componentType":5126,"count":24,"max":[2,2.25,0.0625],"min":[1.875,0,-0.0625],"type":"VEC3"},{"bufferView":5,"componentType":5126,"count":24,"max":[1,0,1],"min":[-1,-1,-1],"type":"VEC3"},{"bufferView":6,"componentType":5126,"count":24,"max":[0.0625,1.125],"min":[0,0],"type":"VEC2"},{"bufferView":7,"componentType":5123,"count":36,"max":[23],"min":[0],"type":"SCALAR"},{"bufferView":8,"componentType":5126,"count":48,"max":[2,2.0625,0.125],"min":[-2,0.5,0.0625],"type":"VEC3"},{"bufferView":9,"componentType":5126,"count":48,"max":[1,1,1],"min":[-1,-1,-1],"type":"VEC3"},{"bufferView":10,"componentType":5126,"count":48,"max":[2,0.78125],"min":[0,0],"type":"VEC2"},{"bufferView":11,"componentType":5123,"count":72,"max":[47],"min":[0],"type":"SCALAR"},{"bufferView":12,"componentType":5126,"count":48,"max":[2.125,2.4375,1],"min":[-2.125,2.25,-1],"type":"VEC3"},{"bufferView":13,"componentType":5126,"count":48,"max":[1,1,1],"min":[-1,-1,-1],"type":"VEC3"},{"bufferView":14,"componentType":5126,"count":48,"max":[2.125,1],"min":[0,0],"type":"VEC2"},{"bufferView":15,"componentType":5123,"count":72,"max":[47],"min":[0],"type":"SCALAR"},{"bufferView":16,"componentType":5126,"count":20,"max":[-1.0625,0.5625,-0.25],"min":[-1.1875,0,-0.375],"type":"VEC3"},{"bufferView":17,"componentType":5126,"count":20,"max":[1,0,1],"min":[-1,-1,-1],"type":"VEC3"},{"bufferView":18,"componentType":5126,"count":20,"max":[0.0625,0.28125],"min":[0,0],"type":"VEC2"},{"bufferView":19,"componentType":5123,"count":30,"max":[19],"min":[0],"type":"SCALAR"},{"bufferView":20,"componentType":5126,"count":20,"max":[-1.0625,0.5625,0.375],"min":[-1.1875,0,0.25],"type":"VEC3"},{"bufferView":21,"componentType":5126,"count":20,"max":[1,0,1],"min":[-1,-1,-1],"type":"VEC3"},{"bufferView":22,"componentType":5126,"count":20,"max":[0.0625,0.28125],"min":[0,0],"type":"VEC2"},{"bufferView":23,"componentType":5123,"count":30,"max":[19],"min":[0],"type":"SCALAR"},{"bufferView":24,"componentType":5126,"count":20,"max":[1.1875,0.5625,-0.25],"min":[1.0625,0,-0.375],"type":"VEC3"},{"bufferView":25,"componentType":5126,"count":20,"max":[1,0,1],"min":[-1,-1,-1],"type":"VEC3"},{"bufferView":26,"componentType":5126,"count":20,"max":[0.0625,0.28125],"min":[0,0],"type":"VEC2"},{"bufferView":27,"componentType":5123,"count":30,"max":[19],"min":[0],"type":"SCALAR"},{"bufferView":28,"componentType":5126,"count":20,"max":[1.1875,0.5625,0.375],"min":[1.0625,0,0.25],"type":"VEC3"},{"bufferView":29,"componentType":5126,"count":20,"max":[1,0,1],"min":[-1,-1,-1],"type":"VEC3"},{"bufferView":30,"componentType":5126,"count":20,"max":[0.0625,0.28125],"min":[0,0],"type":"VEC2"},{"bufferView":31,"componentType":5123,"count":30,"max":[19],"min":[0],"type":"SCALAR"},{"bufferView":32,"componentType":5126,"count":40,"max":[1.25,0.6875,-0.125],"min":[-1.25,0.5625,-0.375],"type":"VEC3"},{"bufferView":33,"componentType":5126,"count":40,"max":[1,1,1],"min":[-1,-1,-1],"type":"VEC3"},{"bufferView":34,"componentType":5126,"count":40,"max":[1.25,0.125],"min":[0,0],"type":"VEC2"},{"bufferView":35,"componentType":5123,"count":60,"max":[39],"min":[0],"type":"SCALAR"},{"bufferView":36,"componentType":5126,"count":40,"max":[1.25,0.6875,0.1875],"min":[-1.25,0.5625,-0.0625],"type":"VEC3"},{"bufferView":37,"componentType":5126,"count":40,"max":[1,1,1],"min":[-1,-1,-1],"type":"VEC3"},{"bufferView":38,"componentType":5126,"count":40,"max":[1.25,0.125],"min":[0,0],"type":"VEC2"},{"bufferView":39,"componentType":5123,"count":60,"max":[39],"min":[0],"type":"SCALAR"},{"bufferView":40,"componentType":5126,"count":40,"max":[1.25,0.6875,0.5],"min":[-1.25,0.5625,0.25],"type":"VEC3"},{"bufferView":41,"componentType":5126,"count":40,"max":[1,1,1],"min":[-1,-1,-1],"type":"VEC3"},{"bufferView":42,"componentType":5126,"count":40,"max":[1.25,0.125],"min":[0,0],"type":"VEC2"},{"bufferView":43,"componentType":5123,"count":60,"max":[39],"min":[0],"type":"SCALAR"},{"bufferView":44,"componentType":5126,"count":24,"max":[1.25,1.125,0.5],"min":[-1.25,0.9375,0.375],"type":"VEC3"},{"bufferView":45,"componentType":5126,"count":24,"max":[1,1,1],"min":[-1,-1,-1],"type":"VEC3"},{"bufferView":46,"componentType":5126,"count":24,"max":[1.25,0.09375],"min":[0,0],"type":"VEC2"},{"bufferView":47,"componentType":5123,"count":36,"max":[23],"min":[0],"type":"SCALAR"},{"bufferView":48,"componentType":5126,"count":24,"max":[1.25,1.5,0.5],"min":[-1.25,1.3125,0.375],"type":"VEC3"},{"bufferView":49,"componentType":5126,"count":24,"max":[1,1,1],"min":[-1,-1,-1],"type":"VEC3"},{"bufferView":50,"componentType":5126,"count":24,"max":[1.25,0.09375],"min":[0,0],"type":"VEC2"},{"bufferView":51,"componentType":5123,"count":36,"max":[23],"min":[0],"type":"SCALAR"}],"materials":[{"pbrMetallicRoughness":{"metallicFactor":0,"roughnessFactor":1,"baseColorTexture":{"index":0}},"alphaMode":"MASK","alphaCutoff":0.05,"doubleSided":true},{"pbrMetallicRoughness":{"metallicFactor":0,"roughnessFactor":1,"baseColorTexture":{"index":1}},"alphaMode":"MASK","alphaCutoff":0.05,"doubleSided":true},{"pbrMetallicRoughness":{"metallicFactor":0,"roughnessFactor":1,"baseColorTexture":{"index":2}},"alphaMode":"MASK","alphaCutoff":0.05,"doubleSided":true}],"textures":[{"sampler":0,"source":0,"name":"metal.png"},{"sampler":1,"source":1,"name":"glass.png"},{"sampler":2,"source":2,"name":"wood.png"}],"samplers":[{"magFilter":9728,"minFilter":9728,"wrapS":10497,"wrapT":10497},{"magFilter":9728,"minFilter":9728,"wrapS":10497,"wrapT":10497},{"magFilter":9728,"minFilter":9728,"wrapS":10497,"wrapT":10497}],"images":[{"mimeType":"image/png","uri":"../textures/metal.png","name":"metal"},{"mimeType":"image/png","uri":"../textures/glass.png","name":"glass"},{"mimeType":"image/png","uri":"../textures/wood.png","name":"wood"}],"meshes":[{"primitives":[{"mode":4,"attributes":{"POSITION":0,"NORMAL":1,"TEXCOORD_0":2},"indices":3,"material":0}]},{"primitives":[{"mode":4,"attributes":{"POSITION":4,"NORMAL":5,"TEXCOORD_0":6},"indices":7,"material":0}]},{"primitives":[{"mode":4,"attributes":{"POSITION":8,"NORMAL":9,"TEXCOORD_0":10},"indices":11,"material":1}]},{"primitives":[{"mode":4,"attributes":{"POSITION":12,"NORMAL":13,"TEXCOORD_0":14},"indices":15,"material":0}]},{"primitives":[{"mode":4,"attributes":{"POSITION":16,"NORMAL":17,"TEXCOORD_0":18},"indices":19,"material":0}]},{"primitives":[{"mode":4,"attributes":{"POSITION":20,"NORMAL":21,"TEXCOORD_0":22},"indices":23,"material":0}]},{"primitives":[{"mode":4,"attributes":{"POSITION":24,"NORMAL":25,"TEXCOORD_0":26},"indices":27,"material":0}]},{"primitives":[{"mode":4,"attributes":{"POSITION":28,"NORMAL":29,"TEXCOORD_0":30},"indices":31,"material":0}]},{"primitives":[{"mode":4,"attributes":{"POSITION":32,"NORMAL":33,"TEXCOORD_0":34},"indices":35,"material":2}]},{"primitives":[{"mode":4,"attributes":{"POSITION":36,"NORMAL":37,"TEXCOORD_0":38},"indices":39,"material":2}]},{"primitives":[{"mode":4,"attributes":{"POSITION":40,"NORMAL":41,"TEXCOORD_0":42},"indices":43,"material":2}]},{"primitives":[{"mode":4,"attributes":{"POSITION":44,"NORMAL":45,"TEXCOORD_0":46},"indices":47,"material":2}]},{"primitives":[{"mode":4,"attributes":{"POSITION":48,"NORMAL":49,"TEXCOORD_0":50},"indices":51,"material":2}]}]}