{"asset":{"version":"2.0","generator":"Blockbench 5.1.6 glTF exporter"},"scenes":[{"nodes":[1,3,5],"name":"blockbench_export"}],"scene":0,"nodes":[{"name":"panel","mesh":0},{"name":"panel","children":[0]},{"name":"cross_v","mesh":1},{"name":"cross_v","children":[2]},{"name":"cross_h","mesh":2},{"name":"cross_h","children":[4]}],"bufferViews":[{"buffer":0,"byteOffset":0,"byteLength":624,"target":34962,"byteStride":12},{"buffer":0,"byteOffset":624,"byteLength":624,"target":34962,"byteStride":12},{"buffer":0,"byteOffset":1248,"byteLength":416,"target":34962,"byteStride":8},{"buffer":0,"byteOffset":1664,"byteLength":156,"target":34963},{"buffer":0,"byteOffset":1820,"byteLength":384,"target":34962,"byteStride":12},{"buffer":0,"byteOffset":2204,"byteLength":384,"target":34962,"byteStride":12},{"buffer":0,"byteOffset":2588,"byteLength":256,"target":34962,"byteStride":8},{"buffer":0,"byteOffset":2844,"byteLength":96,"target":34963},{"buffer":0,"byteOffset":2940,"byteLength":336,"target":34962,"byteStride":12},{"buffer":0,"byteOffset":3276,"byteLength":336,"target":34962,"byteStride":12},{"buffer":0,"byteOffset":3612,"byteLength":224,"target":34962,"byteStride":8},{"buffer":0,"byteOffset":3836,"byteLength":84,"target":34963}],"buffers":[{"byteLength":3920,"uri":"data:application/octet-stream;base64,"}],"accessors":[{"bufferView":0,"componentType":5126,"count":52,"max":[0.625,1.25,0.0625],"min":[-0.625,0,-0.0625],"type":"VEC3"},{"bufferView":1,"componentType":5126,"count":52,"max":[1,1,1],"min":[-1,-1,-1],"type":"VEC3"},{"bufferView":2,"componentType":5126,"count":52,"max":[0.625,0.625],"min":[0,0],"type":"VEC2"},{"bufferView":3,"componentType":5123,"count":78,"max":[51],"min":[0],"type":"SCALAR"},{"bufferView":4,"componentType":5126,"count":32,"max":[0.125,1.0625,-0.0625],"min":[-0.125,0.1875,-0.09375],"type":"VEC3"},{"bufferView":5,"componentType":5126,"count":32,"max":[1,1,0],"min":[-1,-1,-1],"type":"VEC3"},{"bufferView":6,"componentType":5126,"count":32,"max":[0.125,0.4375],"min":[0,0],"type":"VEC2"},{"bufferView":7,"componentType":5123,"count":48,"max":[31],"min":[0],"type":"SCALAR"},{"bufferView":8,"componentType":5126,"count":28,"max":[0.4375,0.75,-0.0625],"min":[-0.4375,0.5,-0.09375],"type":"VEC3"},{"bufferView":9,"componentType":5126,"count":28,"max":[1,1,0],"min":[-1,-1,-1],"type":"VEC3"},{"bufferView":10,"componentType":5126,"count":28,"max":[0.4375,0.125],"min":[0,0],"type":"VEC2"},{"bufferView":11,"componentType":5123,"count":42,"max":[27],"min":[0],"type":"SCALAR"}],"materials":[{"pbrMetallicRoughness":{"metallicFactor":0,"roughnessFactor":1,"baseColorTexture":{"index":0}},"alphaMode":"MASK","alphaCutoff":0.05,"doubleSided":true},{"pbrMetallicRoughness":{"metallicFactor":0,"roughnessFactor":1,"baseColorTexture":{"index":1}},"alphaMode":"MASK","alphaCutoff":0.05,"doubleSided":true}],"textures":[{"sampler":0,"source":0,"name":"cream.png"},{"sampler":1,"source":1,"name":"rust.png"}],"samplers":[{"magFilter":9728,"minFilter":9728,"wrapS":10497,"wrapT":10497},{"magFilter":9728,"minFilter":9728,"wrapS":10497,"wrapT":10497}],"images":[{"mimeType":"image/png","uri":"../textures/cream.png","name":"cream"},{"mimeType":"image/png","uri":"../textures/rust.png","name":"rust"}],"meshes":[{"primitives":[{"mode":4,"attributes":{"POSITION":0,"NORMAL":1,"TEXCOORD_0":2},"indices":3,"material":0}]},{"primitives":[{"mode":4,"attributes":{"POSITION":4,"NORMAL":5,"TEXCOORD_0":6},"indices":7,"material":1}]},{"primitives":[{"mode":4,"attributes":{"POSITION":8,"NORMAL":9,"TEXCOORD_0":10},"indices":11,"material":1}]}]}