{"asset":{"version":"2.0","generator":"Blockbench 5.1.6 glTF exporter"},"scenes":[{"nodes":[1,3,5,7],"name":"blockbench_export"}],"scene":0,"nodes":[{"name":"base","mesh":0},{"name":"base","children":[0]},{"name":"post","mesh":1},{"name":"post","children":[2]},{"name":"hooks","mesh":2},{"name":"hooks","children":[4]},{"name":"coat","mesh":3},{"name":"coat","children":[6]}],"bufferViews":[{"buffer":0,"byteOffset":0,"byteLength":432,"target":34962,"byteStride":12},{"buffer":0,"byteOffset":432,"byteLength":432,"target":34962,"byteStride":12},{"buffer":0,"byteOffset":864,"byteLength":288,"target":34962,"byteStride":8},{"buffer":0,"byteOffset":1152,"byteLength":108,"target":34963},{"buffer":0,"byteOffset":1260,"byteLength":432,"target":34962,"byteStride":12},{"buffer":0,"byteOffset":1692,"byteLength":432,"target":34962,"byteStride":12},{"buffer":0,"byteOffset":2124,"byteLength":288,"target":34962,"byteStride":8},{"buffer":0,"byteOffset":2412,"byteLength":108,"target":34963},{"buffer":0,"byteOffset":2520,"byteLength":336,"target":34962,"byteStride":12},{"buffer":0,"byteOffset":2856,"byteLength":336,"target":34962,"byteStride":12},{"buffer":0,"byteOffset":3192,"byteLength":224,"target":34962,"byteStride":8},{"buffer":0,"byteOffset":3416,"byteLength":84,"target":34963},{"buffer":0,"byteOffset":3500,"byteLength":384,"target":34962,"byteStride":12},{"buffer":0,"byteOffset":3884,"byteLength":384,"target":34962,"byteStride":12},{"buffer":0,"byteOffset":4268,"byteLength":256,"target":34962,"byteStride":8},{"buffer":0,"byteOffset":4524,"byteLength":96,"target":34963}],"buffers":[{"byteLength":4620,"uri":"data:application/octet-stream;base64,"}],"accessors":[{"bufferView":0,"componentType":5126,"count":36,"max":[0.4375,0.125,0.3125],"min":[-0.4375,0,-0.3125],"type":"VEC3"},{"bufferView":1,"componentType":5126,"count":36,"max":[1,1,1],"min":[-1,-1,-1],"type":"VEC3"},{"bufferView":2,"componentType":5126,"count":36,"max":[0.4375,0.3125],"min":[0,0],"type":"VEC2"},{"bufferView":3,"componentType":5123,"count":54,"max":[35],"min":[0],"type":"SCALAR"},{"bufferView":4,"componentType":5126,"count":36,"max":[0.0625,1.8125,0.0625],"min":[-0.0625,0.125,-0.0625],"type":"VEC3"},{"bufferView":5,"componentType":5126,"count":36,"max":[1,1,1],"min":[-1,0,-1],"type":"VEC3"},{"bufferView":6,"componentType":5126,"count":36,"max":[0.0625,0.84375],"min":[0,0],"type":"VEC2"},{"bufferView":7,"componentType":5123,"count":54,"max":[35],"min":[0],"type":"SCALAR"},{"bufferView":8,"componentType":5126,"count":28,"max":[0.125,1.625,0.0625],"min":[-0.375,1.5,-0.0625],"type":"VEC3"},{"bufferView":9,"componentType":5126,"count":28,"max":[0,1,1],"min":[-1,-1,-1],"type":"VEC3"},{"bufferView":10,"componentType":5126,"count":28,"max":[0.25,0.0625],"min":[0,0],"type":"VEC2"},{"bufferView":11,"componentType":5123,"count":42,"max":[27],"min":[0],"type":"SCALAR"},{"bufferView":12,"componentType":5126,"count":32,"max":[0.5,1.625,0.125],"min":[0.125,0.8125,-0.125],"type":"VEC3"},{"bufferView":13,"componentType":5126,"count":32,"max":[1,1,1],"min":[-1,-1,-1],"type":"VEC3"},{"bufferView":14,"componentType":5126,"count":32,"max":[0.1875,0.40625],"min":[0,0],"type":"VEC2"},{"bufferView":15,"componentType":5123,"count":48,"max":[31],"min":[0],"type":"SCALAR"}],"materials":[{"pbrMetallicRoughness":{"metallicFactor":0,"roughnessFactor":1,"baseColorTexture":{"index":0}},"alphaMode":"MASK","alphaCutoff":0.05,"doubleSided":true},{"pbrMetallicRoughness":{"metallicFactor":0,"roughnessFactor":1,"baseColorTexture":{"index":1}},"alphaMode":"MASK","alphaCutoff":0.05,"doubleSided":true},{"pbrMetallicRoughness":{"metallicFactor":0,"roughnessFactor":1,"baseColorTexture":{"index":2}},"alphaMode":"MASK","alphaCutoff":0.05,"doubleSided":true},{"pbrMetallicRoughness":{"metallicFactor":0,"roughnessFactor":1,"baseColorTexture":{"index":3}},"alphaMode":"MASK","alphaCutoff":0.05,"doubleSided":true}],"textures":[{"sampler":0,"source":0,"name":"wood_dark.png"},{"sampler":1,"source":1,"name":"wood.png"},{"sampler":2,"source":2,"name":"metal.png"},{"sampler":3,"source":3,"name":"fabric_blue.png"}],"samplers":[{"magFilter":9728,"minFilter":9728,"wrapS":10497,"wrapT":10497},{"magFilter":9728,"minFilter":9728,"wrapS":10497,"wrapT":10497},{"magFilter":9728,"minFilter":9728,"wrapS":10497,"wrapT":10497},{"magFilter":9728,"minFilter":9728,"wrapS":10497,"wrapT":10497}],"images":[{"mimeType":"image/png","uri":"../textures/wood_dark.png","name":"wood_dark"},{"mimeType":"image/png","uri":"../textures/wood.png","name":"wood"},{"mimeType":"image/png","uri":"../textures/metal.png","name":"metal"},{"mimeType":"image/png","uri":"../textures/fabric_blue.png","name":"fabric_blue"}],"meshes":[{"primitives":[{"mode":4,"attributes":{"POSITION":0,"NORMAL":1,"TEXCOORD_0":2},"indices":3,"material":0}]},{"primitives":[{"mode":4,"attributes":{"POSITION":4,"NORMAL":5,"TEXCOORD_0":6},"indices":7,"material":1}]},{"primitives":[{"mode":4,"attributes":{"POSITION":8,"NORMAL":9,"TEXCOORD_0":10},"indices":11,"material":2}]},{"primitives":[{"mode":4,"attributes":{"POSITION":12,"NORMAL":13,"TEXCOORD_0":14},"indices":15,"material":3}]}]}