{"asset":{"version":"2.0","generator":"Blockbench 5.1.6 glTF exporter"},"scenes":[{"nodes":[1,3,7],"name":"blockbench_export"}],"scene":0,"nodes":[{"name":"base","mesh":0},{"name":"base","children":[0]},{"name":"body","mesh":1},{"name":"body","children":[2]},{"name":"reflector","mesh":2},{"name":"reflector","mesh":3},{"name":"reflector","mesh":4},{"name":"reflector","children":[4,5,6]}],"bufferViews":[{"buffer":0,"byteOffset":0,"byteLength":336,"target":34962,"byteStride":12},{"buffer":0,"byteOffset":336,"byteLength":336,"target":34962,"byteStride":12},{"buffer":0,"byteOffset":672,"byteLength":224,"target":34962,"byteStride":8},{"buffer":0,"byteOffset":896,"byteLength":84,"target":34963},{"buffer":0,"byteOffset":980,"byteLength":672,"target":34962,"byteStride":12},{"buffer":0,"byteOffset":1652,"byteLength":672,"target":34962,"byteStride":12},{"buffer":0,"byteOffset":2324,"byteLength":448,"target":34962,"byteStride":8},{"buffer":0,"byteOffset":2772,"byteLength":168,"target":34963},{"buffer":0,"byteOffset":2940,"byteLength":240,"target":34962,"byteStride":12},{"buffer":0,"byteOffset":3180,"byteLength":240,"target":34962,"byteStride":12},{"buffer":0,"byteOffset":3420,"byteLength":160,"target":34962,"byteStride":8},{"buffer":0,"byteOffset":3580,"byteLength":60,"target":34963},{"buffer":0,"byteOffset":3640,"byteLength":240,"target":34962,"byteStride":12},{"buffer":0,"byteOffset":3880,"byteLength":240,"target":34962,"byteStride":12},{"buffer":0,"byteOffset":4120,"byteLength":160,"target":34962,"byteStride":8},{"buffer":0,"byteOffset":4280,"byteLength":60,"target":34963},{"buffer":0,"byteOffset":4340,"byteLength":240,"target":34962,"byteStride":12},{"buffer":0,"byteOffset":4580,"byteLength":240,"target":34962,"byteStride":12},{"buffer":0,"byteOffset":4820,"byteLength":160,"target":34962,"byteStride":8},{"buffer":0,"byteOffset":4980,"byteLength":60,"target":34963}],"buffers":[{"byteLength":5040,"uri":"data:application/octet-stream;base64,"}],"accessors":[{"bufferView":0,"componentType":5126,"count":28,"max":[1.5,0.1875,0.375],"min":[-1.5,0,-0.375],"type":"VEC3"},{"bufferView":1,"componentType":5126,"count":28,"max":[1,1,1],"min":[-1,-1,-1],"type":"VEC3"},{"bufferView":2,"componentType":5126,"count":28,"max":[1.5,0.375],"min":[0,0],"type":"VEC2"},{"bufferView":3,"componentType":5123,"count":42,"max":[27],"min":[0],"type":"SCALAR"},{"bufferView":4,"componentType":5126,"count":56,"max":[1.5,1.125,0.25],"min":[-1.5,0.1875,-0.25],"type":"VEC3"},{"bufferView":5,"componentType":5126,"count":56,"max":[1,1,1],"min":[-1,0,-1],"type":"VEC3"},{"bufferView":6,"componentType":5126,"count":56,"max":[1.5,0.46875],"min":[0,0],"type":"VEC2"},{"bufferView":7,"componentType":5123,"count":84,"max":[55],"min":[0],"type":"SCALAR"},{"bufferView":8,"componentType":5126,"count":20,"max":[-0.8125,0.875,-0.25],"min":[-1.125,0.625,-0.265625],"type":"VEC3"},{"bufferView":9,"componentType":5126,"count":20,"max":[1,1,0],"min":[-1,-1,-1],"type":"VEC3"},{"bufferView":10,"componentType":5126,"count":20,"max":[0.15625,0.125],"min":[0,0],"type":"VEC2"},{"bufferView":11,"componentType":5123,"count":30,"max":[19],"min":[0],"type":"SCALAR"},{"bufferView":12,"componentType":5126,"count":20,"max":[0.1875,0.875,-0.25],"min":[-0.125,0.625,-0.265625],"type":"VEC3"},{"bufferView":13,"componentType":5126,"count":20,"max":[1,1,0],"min":[-1,-1,-1],"type":"VEC3"},{"bufferView":14,"componentType":5126,"count":20,"max":[0.15625,0.125],"min":[0,0],"type":"VEC2"},{"bufferView":15,"componentType":5123,"count":30,"max":[19],"min":[0],"type":"SCALAR"},{"bufferView":16,"componentType":5126,"count":20,"max":[1.1875,0.875,-0.25],"min":[0.875,0.625,-0.265625],"type":"VEC3"},{"bufferView":17,"componentType":5126,"count":20,"max":[1,1,0],"min":[-1,-1,-1],"type":"VEC3"},{"bufferView":18,"componentType":5126,"count":20,"max":[0.15625,0.125],"min":[0,0],"type":"VEC2"},{"bufferView":19,"componentType":5123,"count":30,"max":[19],"min":[0],"type":"SCALAR"}],"materials":[{"pbrMetallicRoughness":{"metallicFactor":0,"roughnessFactor":1,"baseColorTexture":{"index":0}},"alphaMode":"MASK","alphaCutoff":0.05,"doubleSided":true},{"pbrMetallicRoughness":{"metallicFactor":0,"roughnessFactor":1,"baseColorTexture":{"index":1}},"alphaMode":"MASK","alphaCutoff":0.05,"doubleSided":true}],"textures":[{"sampler":0,"source":0,"name":"concrete.png"},{"sampler":1,"source":1,"name":"yellow.png"}],"samplers":[{"magFilter":9728,"minFilter":9728,"wrapS":10497,"wrapT":10497},{"magFilter":9728,"minFilter":9728,"wrapS":10497,"wrapT":10497}],"images":[{"mimeType":"image/png","uri":"../textures/concrete.png","name":"concrete"},{"mimeType":"image/png","uri":"../textures/yellow.png","name":"yellow"}],"meshes":[{"primitives":[{"mode":4,"attributes":{"POSITION":0,"NORMAL":1,"TEXCOORD_0":2},"indices":3,"material":0}]},{"primitives":[{"mode":4,"attributes":{"POSITION":4,"NORMAL":5,"TEXCOORD_0":6},"indices":7,"material":0}]},{"primitives":[{"mode":4,"attributes":{"POSITION":8,"NORMAL":9,"TEXCOORD_0":10},"indices":11,"material":1}]},{"primitives":[{"mode":4,"attributes":{"POSITION":12,"NORMAL":13,"TEXCOORD_0":14},"indices":15,"material":1}]},{"primitives":[{"mode":4,"attributes":{"POSITION":16,"NORMAL":17,"TEXCOORD_0":18},"indices":19,"material":1}]}]}