{"asset":{"version":"2.0","generator":"Blockbench 5.1.6 glTF exporter"},"scenes":[{"nodes":[1,3,5,7,9],"name":"blockbench_export"}],"scene":0,"nodes":[{"name":"trunk","mesh":0},{"name":"trunk","children":[0]},{"name":"left_branch","mesh":1},{"name":"left_branch","children":[2]},{"name":"left_tip","mesh":2},{"name":"left_tip","children":[4]},{"name":"right_branch","mesh":3},{"name":"right_branch","children":[6]},{"name":"right_tip","mesh":4},{"name":"right_tip","children":[8]}],"bufferViews":[{"buffer":0,"byteOffset":0,"byteLength":576,"target":34962,"byteStride":12},{"buffer":0,"byteOffset":576,"byteLength":576,"target":34962,"byteStride":12},{"buffer":0,"byteOffset":1152,"byteLength":384,"target":34962,"byteStride":8},{"buffer":0,"byteOffset":1536,"byteLength":144,"target":34963},{"buffer":0,"byteOffset":1680,"byteLength":192,"target":34962,"byteStride":12},{"buffer":0,"byteOffset":1872,"byteLength":192,"target":34962,"byteStride":12},{"buffer":0,"byteOffset":2064,"byteLength":128,"target":34962,"byteStride":8},{"buffer":0,"byteOffset":2192,"byteLength":48,"target":34963},{"buffer":0,"byteOffset":2240,"byteLength":288,"target":34962,"byteStride":12},{"buffer":0,"byteOffset":2528,"byteLength":288,"target":34962,"byteStride":12},{"buffer":0,"byteOffset":2816,"byteLength":192,"target":34962,"byteStride":8},{"buffer":0,"byteOffset":3008,"byteLength":72,"target":34963},{"buffer":0,"byteOffset":3080,"byteLength":192,"target":34962,"byteStride":12},{"buffer":0,"byteOffset":3272,"byteLength":192,"target":34962,"byteStride":12},{"buffer":0,"byteOffset":3464,"byteLength":128,"target":34962,"byteStride":8},{"buffer":0,"byteOffset":3592,"byteLength":48,"target":34963},{"buffer":0,"byteOffset":3640,"byteLength":288,"target":34962,"byteStride":12},{"buffer":0,"byteOffset":3928,"byteLength":288,"target":34962,"byteStride":12},{"buffer":0,"byteOffset":4216,"byteLength":192,"target":34962,"byteStride":8},{"buffer":0,"byteOffset":4408,"byteLength":72,"target":34963}],"buffers":[{"byteLength":4480,"uri":"data:application/octet-stream;base64,"}],"accessors":[{"bufferView":0,"componentType":5126,"count":48,"max":[0.1875,2.5,0.1875],"min":[-0.1875,0,-0.1875],"type":"VEC3"},{"bufferView":1,"componentType":5126,"count":48,"max":[1,1,1],"min":[-1,-1,-1],"type":"VEC3"},{"bufferView":2,"componentType":5126,"count":48,"max":[0.1875,1.25],"min":[0,0],"type":"VEC2"},{"bufferView":3,"componentType":5123,"count":72,"max":[47],"min":[0],"type":"SCALAR"},{"bufferView":4,"componentType":5126,"count":16,"max":[-0.1875,1.6875,0.125],"min":[-0.75,1.5,-0.125],"type":"VEC3"},{"bufferView":5,"componentType":5126,"count":16,"max":[0,1,1],"min":[0,-1,-1],"type":"VEC3"},{"bufferView":6,"componentType":5126,"count":16,"max":[0.375,0.125],"min":[0.09375,0],"type":"VEC2"},{"bufferView":7,"componentType":5123,"count":24,"max":[15],"min":[0],"type":"SCALAR"},{"bufferView":8,"componentType":5126,"count":24,"max":[-0.75,2.4375,0.125],"min":[-0.9375,1.5,-0.125],"type":"VEC3"},{"bufferView":9,"componentType":5126,"count":24,"max":[1,1,1],"min":[-1,-1,-1],"type":"VEC3"},{"bufferView":10,"componentType":5126,"count":24,"max":[0.125,0.46875],"min":[0,0],"type":"VEC2"},{"bufferView":11,"componentType":5123,"count":36,"max":[23],"min":[0],"type":"SCALAR"},{"bufferView":12,"componentType":5126,"count":16,"max":[0.8125,2.125,0.125],"min":[0.1875,1.9375,-0.125],"type":"VEC3"},{"bufferView":13,"componentType":5126,"count":16,"max":[0,1,1],"min":[0,-1,-1],"type":"VEC3"},{"bufferView":14,"componentType":5126,"count":16,"max":[0.3125,0.125],"min":[0,0],"type":"VEC2"},{"bufferView":15,"componentType":5123,"count":24,"max":[15],"min":[0],"type":"SCALAR"},{"bufferView":16,"componentType":5126,"count":24,"max":[1,2.75,0.125],"min":[0.8125,1.9375,-0.125],"type":"VEC3"},{"bufferView":17,"componentType":5126,"count":24,"max":[1,1,1],"min":[-1,-1,-1],"type":"VEC3"},{"bufferView":18,"componentType":5126,"count":24,"max":[0.125,0.40625],"min":[0,0],"type":"VEC2"},{"bufferView":19,"componentType":5123,"count":36,"max":[23],"min":[0],"type":"SCALAR"}],"materials":[{"pbrMetallicRoughness":{"metallicFactor":0,"roughnessFactor":1,"baseColorTexture":{"index":0}},"alphaMode":"MASK","alphaCutoff":0.05,"doubleSided":true}],"textures":[{"sampler":0,"source":0,"name":"wood_dark.png"}],"samplers":[{"magFilter":9728,"minFilter":9728,"wrapS":10497,"wrapT":10497}],"images":[{"mimeType":"image/png","uri":"../textures/wood_dark.png","name":"wood_dark"}],"meshes":[{"primitives":[{"mode":4,"attributes":{"POSITION":0,"NORMAL":1,"TEXCOORD_0":2},"indices":3,"material":0}]},{"primitives":[{"mode":4,"attributes":{"POSITION":4,"NORMAL":5,"TEXCOORD_0":6},"indices":7,"material":0}]},{"primitives":[{"mode":4,"attributes":{"POSITION":8,"NORMAL":9,"TEXCOORD_0":10},"indices":11,"material":0}]},{"primitives":[{"mode":4,"attributes":{"POSITION":12,"NORMAL":13,"TEXCOORD_0":14},"indices":15,"material":0}]},{"primitives":[{"mode":4,"attributes":{"POSITION":16,"NORMAL":17,"TEXCOORD_0":18},"indices":19,"material":0}]}]}