{"asset":{"version":"2.0","generator":"Blockbench 5.1.6 glTF exporter"},"scenes":[{"nodes":[3],"name":"blockbench_export"}],"scene":0,"nodes":[{"name":"plate","mesh":0},{"name":"plate","mesh":1},{"name":"plate","mesh":2},{"name":"plate","children":[0,1,2]}],"bufferViews":[{"buffer":0,"byteOffset":0,"byteLength":1440,"target":34962,"byteStride":12},{"buffer":0,"byteOffset":1440,"byteLength":1440,"target":34962,"byteStride":12},{"buffer":0,"byteOffset":2880,"byteLength":960,"target":34962,"byteStride":8},{"buffer":0,"byteOffset":3840,"byteLength":288,"target":34963},{"buffer":0,"byteOffset":4128,"byteLength":1440,"target":34962,"byteStride":12},{"buffer":0,"byteOffset":5568,"byteLength":1440,"target":34962,"byteStride":12},{"buffer":0,"byteOffset":7008,"byteLength":960,"target":34962,"byteStride":8},{"buffer":0,"byteOffset":7968,"byteLength":288,"target":34963},{"buffer":0,"byteOffset":8256,"byteLength":1440,"target":34962,"byteStride":12},{"buffer":0,"byteOffset":9696,"byteLength":1440,"target":34962,"byteStride":12},{"buffer":0,"byteOffset":11136,"byteLength":960,"target":34962,"byteStride":8},{"buffer":0,"byteOffset":12096,"byteLength":288,"target":34963}],"buffers":[{"byteLength":12384,"uri":"data:application/octet-stream;base64,"}],"accessors":[{"bufferView":0,"componentType":5126,"count":120,"max":[0.25,0.02500000037252903,0.25],"min":[-0.25,0,-0.25],"type":"VEC3"},{"bufferView":1,"componentType":5126,"count":120,"max":[0.9659258127212524,1,0.9659258127212524],"min":[-0.9659258127212524,-1,-0.9659258127212524],"type":"VEC3"},{"bufferView":2,"componentType":5126,"count":120,"max":[0.25,0.25],"min":[0,0],"type":"VEC2"},{"bufferView":3,"componentType":5123,"count":144,"max":[119],"min":[0],"type":"SCALAR"},{"bufferView":4,"componentType":5126,"count":120,"max":[0.25,0.0625,0.25],"min":[-0.25,0.03750000149011612,-0.25],"type":"VEC3"},{"bufferView":5,"componentType":5126,"count":120,"max":[0.9659258127212524,1,0.9659258127212524],"min":[-0.9659258127212524,-1,-0.9659258127212524],"type":"VEC3"},{"bufferView":6,"componentType":5126,"count":120,"max":[0.25,0.25],"min":[0,0],"type":"VEC2"},{"bufferView":7,"componentType":5123,"count":144,"max":[119],"min":[0],"type":"SCALAR"},{"bufferView":8,"componentType":5126,"count":120,"max":[0.25,0.10000000149011612,0.25],"min":[-0.25,0.07500000298023224,-0.25],"type":"VEC3"},{"bufferView":9,"componentType":5126,"count":120,"max":[0.9659258127212524,1,0.9659258127212524],"min":[-0.9659258127212524,-1,-0.9659258127212524],"type":"VEC3"},{"bufferView":10,"componentType":5126,"count":120,"max":[0.25,0.25],"min":[0,0],"type":"VEC2"},{"bufferView":11,"componentType":5123,"count":144,"max":[119],"min":[0],"type":"SCALAR"}],"materials":[{"pbrMetallicRoughness":{"metallicFactor":0,"roughnessFactor":1,"baseColorTexture":{"index":0}},"alphaMode":"MASK","alphaCutoff":0.05,"doubleSided":true}],"textures":[{"sampler":0,"source":0,"name":"cream.png"}],"samplers":[{"magFilter":9728,"minFilter":9728,"wrapS":10497,"wrapT":10497}],"images":[{"mimeType":"image/png","uri":"../textures/cream.png","name":"cream"}],"meshes":[{"primitives":[{"mode":4,"attributes":{"POSITION":0,"NORMAL":1,"TEXCOORD_0":2},"indices":3,"material":0}]},{"primitives":[{"mode":4,"attributes":{"POSITION":4,"NORMAL":5,"TEXCOORD_0":6},"indices":7,"material":0}]},{"primitives":[{"mode":4,"attributes":{"POSITION":8,"NORMAL":9,"TEXCOORD_0":10},"indices":11,"material":0}]}]}