{"asset":{"version":"2.0","generator":"Blockbench 5.1.6 glTF exporter"},"scenes":[{"nodes":[9,27],"name":"blockbench_export"}],"scene":0,"nodes":[{"name":"frame_side_-1","mesh":0},{"name":"trim_side_-1_-1","mesh":1},{"name":"trim_side_-1_1","mesh":2},{"name":"frame_side_1","mesh":3},{"name":"trim_side_1_-1","mesh":4},{"name":"trim_side_1_1","mesh":5},{"name":"frame_lintel","mesh":6},{"name":"trim_lintel_-1","mesh":7},{"name":"trim_lintel_1","mesh":8},{"name":"frame","children":[0,1,2,3,4,5,6,7,8]},{"name":"hinge_stile","mesh":9},{"name":"latch_stile","mesh":10},{"name":"bottom_rail","mesh":11},{"name":"middle_rail","mesh":12},{"name":"top_rail","mesh":13},{"name":"center_mullion","mesh":14},{"name":"recessed_panel_-7.75_2.625","mesh":15},{"name":"recessed_panel_-7.75_15.5","mesh":16},{"name":"recessed_panel_0.625_2.625","mesh":17},{"name":"recessed_panel_0.625_15.5","mesh":18},{"name":"handle_plate_-1","mesh":19},{"name":"handle_lever_-1","mesh":20},{"name":"handle_plate_1","mesh":21},{"name":"handle_lever_1","mesh":22},{"name":"hinge_4","mesh":23},{"name":"hinge_23","mesh":24},{"translation":[0.609375,0,0],"name":"door_leaf","children":[10,11,12,13,14,15,16,17,18,19,20,21,22,23,24,25]},{"translation":[-0.609375,0,0],"name":"door_hinge","children":[26]}],"bufferViews":[{"buffer":0,"byteOffset":0,"byteLength":288,"target":34962,"byteStride":12},{"buffer":0,"byteOffset":288,"byteLength":288,"target":34962,"byteStride":12},{"buffer":0,"byteOffset":576,"byteLength":192,"target":34962,"byteStride":8},{"buffer":0,"byteOffset":768,"byteLength":72,"target":34963},{"buffer":0,"byteOffset":840,"byteLength":192,"target":34962,"byteStride":12},{"buffer":0,"byteOffset":1032,"byteLength":192,"target":34962,"byteStride":12},{"buffer":0,"byteOffset":1224,"byteLength":128,"target":34962,"byteStride":8},{"buffer":0,"byteOffset":1352,"byteLength":48,"target":34963},{"buffer":0,"byteOffset":1400,"byteLength":192,"target":34962,"byteStride":12},{"buffer":0,"byteOffset":1592,"byteLength":192,"target":34962,"byteStride":12},{"buffer":0,"byteOffset":1784,"byteLength":128,"target":34962,"byteStride":8},{"buffer":0,"byteOffset":1912,"byteLength":48,"target":34963},{"buffer":0,"byteOffset":1960,"byteLength":288,"target":34962,"byteStride":12},{"buffer":0,"byteOffset":2248,"byteLength":288,"target":34962,"byteStride":12},{"buffer":0,"byteOffset":2536,"byteLength":192,"target":34962,"byteStride":8},{"buffer":0,"byteOffset":2728,"byteLength":72,"target":34963},{"buffer":0,"byteOffset":2800,"byteLength":192,"target":34962,"byteStride":12},{"buffer":0,"byteOffset":2992,"byteLength":192,"target":34962,"byteStride":12},{"buffer":0,"byteOffset":3184,"byteLength":128,"target":34962,"byteStride":8},{"buffer":0,"byteOffset":3312,"byteLength":48,"target":34963},{"buffer":0,"byteOffset":3360,"byteLength":192,"target":34962,"byteStride":12},{"buffer":0,"byteOffset":3552,"byteLength":192,"target":34962,"byteStride":12},{"buffer":0,"byteOffset":3744,"byteLength":128,"target":34962,"byteStride":8},{"buffer":0,"byteOffset":3872,"byteLength":48,"target":34963},{"buffer":0,"byteOffset":3920,"byteLength":192,"target":34962,"byteStride":12},{"buffer":0,"byteOffset":4112,"byteLength":192,"target":34962,"byteStride":12},{"buffer":0,"byteOffset":4304,"byteLength":128,"target":34962,"byteStride":8},{"buffer":0,"byteOffset":4432,"byteLength":48,"target":34963},{"buffer":0,"byteOffset":4480,"byteLength":240,"target":34962,"byteStride":12},{"buffer":0,"byteOffset":4720,"byteLength":240,"target":34962,"byteStride":12},{"buffer":0,"byteOffset":4960,"byteLength":160,"target":34962,"byteStride":8},{"buffer":0,"byteOffset":5120,"byteLength":60,"target":34963},{"buffer":0,"byteOffset":5180,"byteLength":240,"target":34962,"byteStride":12},{"buffer":0,"byteOffset":5420,"byteLength":240,"target":34962,"byteStride":12},{"buffer":0,"byteOffset":5660,"byteLength":160,"target":34962,"byteStride":8},{"buffer":0,"byteOffset":5820,"byteLength":60,"target":34963},{"buffer":0,"byteOffset":5880,"byteLength":576,"target":34962,"byteStride":12},{"buffer":0,"byteOffset":6456,"byteLength":576,"target":34962,"byteStride":12},{"buffer":0,"byteOffset":7032,"byteLength":384,"target":34962,"byteStride":8},{"buffer":0,"byteOffset":7416,"byteLength":144,"target":34963},{"buffer":0,"byteOffset":7560,"byteLength":720,"target":34962,"byteStride":12},{"buffer":0,"byteOffset":8280,"byteLength":720,"target":34962,"byteStride":12},{"buffer":0,"byteOffset":9000,"byteLength":480,"target":34962,"byteStride":8},{"buffer":0,"byteOffset":9480,"byteLength":180,"target":34963},{"buffer":0,"byteOffset":9660,"byteLength":336,"target":34962,"byteStride":12},{"buffer":0,"byteOffset":9996,"byteLength":336,"target":34962,"byteStride":12},{"buffer":0,"byteOffset":10332,"byteLength":224,"target":34962,"byteStride":8},{"buffer":0,"byteOffset":10556,"byteLength":84,"target":34963},{"buffer":0,"byteOffset":10640,"byteLength":576,"target":34962,"byteStride":12},{"buffer":0,"byteOffset":11216,"byteLength":576,"target":34962,"byteStride":12},{"buffer":0,"byteOffset":11792,"byteLength":384,"target":34962,"byteStride":8},{"buffer":0,"byteOffset":12176,"byteLength":144,"target":34963},{"buffer":0,"byteOffset":12320,"byteLength":336,"target":34962,"byteStride":12},{"buffer":0,"byteOffset":12656,"byteLength":336,"target":34962,"byteStride":12},{"buffer":0,"byteOffset":12992,"byteLength":224,"target":34962,"byteStride":8},{"buffer":0,"byteOffset":13216,"byteLength":84,"target":34963},{"buffer":0,"byteOffset":13300,"byteLength":480,"target":34962,"byteStride":12},{"buffer":0,"byteOffset":13780,"byteLength":480,"target":34962,"byteStride":12},{"buffer":0,"byteOffset":14260,"byteLength":320,"target":34962,"byteStride":8},{"buffer":0,"byteOffset":14580,"byteLength":120,"target":34963},{"buffer":0,"byteOffset":14700,"byteLength":96,"target":34962,"byteStride":12},{"buffer":0,"byteOffset":14796,"byteLength":96,"target":34962,"byteStride":12},{"buffer":0,"byteOffset":14892,"byteLength":64,"target":34962,"byteStride":8},{"buffer":0,"byteOffset":14956,"byteLength":24,"target":34963},{"buffer":0,"byteOffset":14980,"byteLength":96,"target":34962,"byteStride":12},{"buffer":0,"byteOffset":15076,"byteLength":96,"target":34962,"byteStride":12},{"buffer":0,"byteOffset":15172,"byteLength":64,"target":34962,"byteStride":8},{"buffer":0,"byteOffset":15236,"byteLength":24,"target":34963},{"buffer":0,"byteOffset":15260,"byteLength":96,"target":34962,"byteStride":12},{"buffer":0,"byteOffset":15356,"byteLength":96,"target":34962,"byteStride":12},{"buffer":0,"byteOffset":15452,"byteLength":64,"target":34962,"byteStride":8},{"buffer":0,"byteOffset":15516,"byteLength":24,"target":34963},{"buffer":0,"byteOffset":15540,"byteLength":96,"target":34962,"byteStride":12},{"buffer":0,"byteOffset":15636,"byteLength":96,"target":34962,"byteStride":12},{"buffer":0,"byteOffset":15732,"byteLength":64,"target":34962,"byteStride":8},{"buffer":0,"byteOffset":15796,"byteLength":24,"target":34963},{"buffer":0,"byteOffset":15820,"byteLength":336,"target":34962,"byteStride":12},{"buffer":0,"byteOffset":16156,"byteLength":336,"target":34962,"byteStride":12},{"buffer":0,"byteOffset":16492,"byteLength":224,"target":34962,"byteStride":8},{"buffer":0,"byteOffset":16716,"byteLength":84,"target":34963},{"buffer":0,"byteOffset":16800,"byteLength":288,"target":34962,"byteStride":12},{"buffer":0,"byteOffset":17088,"byteLength":288,"target":34962,"byteStride":12},{"buffer":0,"byteOffset":17376,"byteLength":192,"target":34962,"byteStride":8},{"buffer":0,"byteOffset":17568,"byteLength":72,"target":34963},{"buffer":0,"byteOffset":17640,"byteLength":336,"target":34962,"byteStride":12},{"buffer":0,"byteOffset":17976,"byteLength":336,"target":34962,"byteStride":12},{"buffer":0,"byteOffset":18312,"byteLength":224,"target":34962,"byteStride":8},{"buffer":0,"byteOffset":18536,"byteLength":84,"target":34963},{"buffer":0,"byteOffset":18620,"byteLength":288,"target":34962,"byteStride":12},{"buffer":0,"byteOffset":18908,"byteLength":288,"target":34962,"byteStride":12},{"buffer":0,"byteOffset":19196,"byteLength":192,"target":34962,"byteStride":8},{"buffer":0,"byteOffset":19388,"byteLength":72,"target":34963},{"buffer":0,"byteOffset":19460,"byteLength":240,"target":34962,"byteStride":12},{"buffer":0,"byteOffset":19700,"byteLength":240,"target":34962,"byteStride":12},{"buffer":0,"byteOffset":19940,"byteLength":160,"target":34962,"byteStride":8},{"buffer":0,"byteOffset":20100,"byteLength":60,"target":34963},{"buffer":0,"byteOffset":20160,"byteLength":240,"target":34962,"byteStride":12},{"buffer":0,"byteOffset":20400,"byteLength":240,"target":34962,"byteStride":12},{"buffer":0,"byteOffset":20640,"byteLength":160,"target":34962,"byteStride":8},{"buffer":0,"byteOffset":20800,"byteLength":60,"target":34963}],"buffers":[{"byteLength":20860,"uri":"data:application/octet-stream;base64,"}],"accessors":[{"bufferView":0,"componentType":5126,"count":24,"max":[-0.625,2,0.125],"min":[-1,0,-0.125],"type":"VEC3"},{"bufferView":1,"componentType":5126,"count":24,"max":[1,1,1],"min":[-1,-1,-1],"type":"VEC3"},{"bufferView":2,"componentType":5126,"count":24,"max":[0.1875,1],"min":[0,0],"type":"VEC2"},{"bufferView":3,"componentType":5123,"count":36,"max":[23],"min":[0],"type":"SCALAR"},{"bufferView":4,"componentType":5126,"count":16,"max":[-0.625,1.875,-0.125],"min":[-0.75,0,-0.1875],"type":"VEC3"},{"bufferView":5,"componentType":5126,"count":16,"max":[1,0,0],"min":[-1,-1,-1],"type":"VEC3"},{"bufferView":6,"componentType":5126,"count":16,"max":[0.0625,0.9375],"min":[0,0],"type":"VEC2"},{"bufferView":7,"componentType":5123,"count":24,"max":[15],"min":[0],"type":"SCALAR"},{"bufferView":8,"componentType":5126,"count":16,"max":[-0.625,1.875,0.1875],"min":[-0.75,0,0.125],"type":"VEC3"},{"bufferView":9,"componentType":5126,"count":16,"max":[1,0,1],"min":[-1,-1,0],"type":"VEC3"},{"bufferView":10,"componentType":5126,"count":16,"max":[0.0625,0.9375],"min":[0,0],"type":"VEC2"},{"bufferView":11,"componentType":5123,"count":24,"max":[15],"min":[0],"type":"SCALAR"},{"bufferView":12,"componentType":5126,"count":24,"max":[1,2,0.125],"min":[0.625,0,-0.125],"type":"VEC3"},{"bufferView":13,"componentType":5126,"count":24,"max":[1,1,1],"min":[-1,-1,-1],"type":"VEC3"},{"bufferView":14,"componentType":5126,"count":24,"max":[0.1875,1],"min":[0,0],"type":"VEC2"},{"bufferView":15,"componentType":5123,"count":36,"max":[23],"min":[0],"type":"SCALAR"},{"bufferView":16,"componentType":5126,"count":16,"max":[0.75,1.875,-0.125],"min":[0.625,0,-0.1875],"type":"VEC3"},{"bufferView":17,"componentType":5126,"count":16,"max":[1,0,0],"min":[-1,-1,-1],"type":"VEC3"},{"bufferView":18,"componentType":5126,"count":16,"max":[0.0625,0.9375],"min":[0,0],"type":"VEC2"},{"bufferView":19,"componentType":5123,"count":24,"max":[15],"min":[0],"type":"SCALAR"},{"bufferView":20,"componentType":5126,"count":16,"max":[0.75,1.875,0.1875],"min":[0.625,0,0.125],"type":"VEC3"},{"bufferView":21,"componentType":5126,"count":16,"max":[1,0,1],"min":[-1,-1,0],"type":"VEC3"},{"bufferView":22,"componentType":5126,"count":16,"max":[0.0625,0.9375],"min":[0,0],"type":"VEC2"},{"bufferView":23,"componentType":5123,"count":24,"max":[15],"min":[0],"type":"SCALAR"},{"bufferView":24,"componentType":5126,"count":16,"max":[0.625,2,0.125],"min":[-0.625,1.84375,-0.125],"type":"VEC3"},{"bufferView":25,"componentType":5126,"count":16,"max":[0,1,1],"min":[0,-1,-1],"type":"VEC3"},{"bufferView":26,"componentType":5126,"count":16,"max":[0.625,0.125],"min":[0,0],"type":"VEC2"},{"bufferView":27,"componentType":5123,"count":24,"max":[15],"min":[0],"type":"SCALAR"},{"bufferView":28,"componentType":5126,"count":20,"max":[0.75,2,-0.125],"min":[-0.75,1.875,-0.1875],"type":"VEC3"},{"bufferView":29,"componentType":5126,"count":20,"max":[1,1,0],"min":[-1,-1,-1],"type":"VEC3"},{"bufferView":30,"componentType":5126,"count":20,"max":[0.75,0.0625],"min":[0,0],"type":"VEC2"},{"bufferView":31,"componentType":5123,"count":30,"max":[19],"min":[0],"type":"SCALAR"},{"bufferView":32,"componentType":5126,"count":20,"max":[0.75,2,0.1875],"min":[-0.75,1.875,0.125],"type":"VEC3"},{"bufferView":33,"componentType":5126,"count":20,"max":[1,1,1],"min":[-1,-1,0],"type":"VEC3"},{"bufferView":34,"componentType":5126,"count":20,"max":[0.75,0.0625],"min":[0,0],"type":"VEC2"},{"bufferView":35,"componentType":5123,"count":30,"max":[19],"min":[0],"type":"SCALAR"},{"bufferView":36,"componentType":5126,"count":48,"max":[-0.484375,1.828125,0.0625],"min":[-0.609375,0.0078125,-0.0625],"type":"VEC3"},{"bufferView":37,"componentType":5126,"count":48,"max":[1,1,1],"min":[-1,-1,-1],"type":"VEC3"},{"bufferView":38,"componentType":5126,"count":48,"max":[0.91015625,0.0625],"min":[0,0],"type":"VEC2"},{"bufferView":39,"componentType":5123,"count":72,"max":[47],"min":[0],"type":"SCALAR"},{"bufferView":40,"componentType":5126,"count":60,"max":[0.609375,1.828125,0.0625],"min":[0.484375,0.0078125,-0.0625],"type":"VEC3"},{"bufferView":41,"componentType":5126,"count":60,"max":[1,1,1],"min":[-1,-1,-1],"type":"VEC3"},{"bufferView":42,"componentType":5126,"count":60,"max":[0.91015625,0.0625],"min":[0,0],"type":"VEC2"},{"bufferView":43,"componentType":5123,"count":90,"max":[59],"min":[0],"type":"SCALAR"},{"bufferView":44,"componentType":5126,"count":28,"max":[0.484375,0.1640625,0.0625],"min":[-0.484375,0.0078125,-0.0625],"type":"VEC3"},{"bufferView":45,"componentType":5126,"count":28,"max":[0,1,1],"min":[0,-1,-1],"type":"VEC3"},{"bufferView":46,"componentType":5126,"count":28,"max":[0.078125,0.484375],"min":[0,0],"type":"VEC2"},{"bufferView":47,"componentType":5123,"count":42,"max":[27],"min":[0],"type":"SCALAR"},{"bufferView":48,"componentType":5126,"count":48,"max":[0.484375,0.96875,0.0625],"min":[-0.484375,0.84375,-0.0625],"type":"VEC3"},{"bufferView":49,"componentType":5126,"count":48,"max":[0,1,1],"min":[0,-1,-1],"type":"VEC3"},{"bufferView":50,"componentType":5126,"count":48,"max":[0.0625,0.484375],"min":[0,0],"type":"VEC2"},{"bufferView":51,"componentType":5123,"count":72,"max":[47],"min":[0],"type":"SCALAR"},{"bufferView":52,"componentType":5126,"count":28,"max":[0.484375,1.828125,0.0625],"min":[-0.484375,1.671875,-0.0625],"type":"VEC3"},{"bufferView":53,"componentType":5126,"count":28,"max":[0,1,1],"min":[0,-1,-1],"type":"VEC3"},{"bufferView":54,"componentType":5126,"count":28,"max":[0.078125,0.484375],"min":[0,0],"type":"VEC2"},{"bufferView":55,"componentType":5123,"count":42,"max":[27],"min":[0],"type":"SCALAR"},{"bufferView":56,"componentType":5126,"count":40,"max":[0.0390625,1.671875,0.0625],"min":[-0.0390625,0.1640625,-0.0625],"type":"VEC3"},{"bufferView":57,"componentType":5126,"count":40,"max":[1,0,1],"min":[-1,0,-1],"type":"VEC3"},{"bufferView":58,"componentType":5126,"count":40,"max":[0.75390625,0.0625],"min":[0,0],"type":"VEC2"},{"bufferView":59,"componentType":5123,"count":60,"max":[39],"min":[0],"type":"SCALAR"},{"bufferView":60,"componentType":5126,"count":8,"max":[-0.0390625,0.84375,0.0390625],"min":[-0.484375,0.1640625,-0.0390625],"type":"VEC3"},{"bufferView":61,"componentType":5126,"count":8,"max":[0,0,1],"min":[0,0,-1],"type":"VEC3"},{"bufferView":62,"componentType":5126,"count":8,"max":[0.33984375,0.22265625],"min":[0,0],"type":"VEC2"},{"bufferView":63,"componentType":5123,"count":12,"max":[7],"min":[0],"type":"SCALAR"},{"bufferView":64,"componentType":5126,"count":8,"max":[-0.0390625,1.671875,0.0390625],"min":[-0.484375,0.96875,-0.0390625],"type":"VEC3"},{"bufferView":65,"componentType":5126,"count":8,"max":[0,0,1],"min":[0,0,-1],"type":"VEC3"},{"bufferView":66,"componentType":5126,"count":8,"max":[0.3515625,0.22265625],"min":[0,0],"type":"VEC2"},{"bufferView":67,"componentType":5123,"count":12,"max":[7],"min":[0],"type":"SCALAR"},{"bufferView":68,"componentType":5126,"count":8,"max":[0.484375,0.84375,0.0390625],"min":[0.0390625,0.1640625,-0.0390625],"type":"VEC3"},{"bufferView":69,"componentType":5126,"count":8,"max":[0,0,1],"min":[0,0,-1],"type":"VEC3"},{"bufferView":70,"componentType":5126,"count":8,"max":[0.33984375,0.22265625],"min":[0,0],"type":"VEC2"},{"bufferView":71,"componentType":5123,"count":12,"max":[7],"min":[0],"type":"SCALAR"},{"bufferView":72,"componentType":5126,"count":8,"max":[0.484375,1.671875,0.0390625],"min":[0.0390625,0.96875,-0.0390625],"type":"VEC3"},{"bufferView":73,"componentType":5126,"count":8,"max":[0,0,1],"min":[0,0,-1],"type":"VEC3"},{"bufferView":74,"componentType":5126,"count":8,"max":[0.3515625,0.22265625],"min":[0,0],"type":"VEC2"},{"bufferView":75,"componentType":5123,"count":12,"max":[7],"min":[0],"type":"SCALAR"},{"bufferView":76,"componentType":5126,"count":28,"max":[0.5874999761581421,1,-0.0625],"min":[0.48750001192092896,0.75,-0.09375],"type":"VEC3"},{"bufferView":77,"componentType":5126,"count":28,"max":[1,1,0],"min":[-1,-1,-1],"type":"VEC3"},{"bufferView":78,"componentType":5126,"count":28,"max":[0.05000000074505806,0.125],"min":[0,0],"type":"VEC2"},{"bufferView":79,"componentType":5123,"count":42,"max":[27],"min":[0],"type":"SCALAR"},{"bufferView":80,"componentType":5126,"count":24,"max":[0.5562499761581421,0.90625,-0.09375],"min":[0.359375,0.859375,-0.140625],"type":"VEC3"},{"bufferView":81,"componentType":5126,"count":24,"max":[1,1,1],"min":[-1,-1,-1],"type":"VEC3"},{"bufferView":82,"componentType":5126,"count":24,"max":[0.09843750298023224,0.0234375],"min":[0,0],"type":"VEC2"},{"bufferView":83,"componentType":5123,"count":36,"max":[23],"min":[0],"type":"SCALAR"},{"bufferView":84,"componentType":5126,"count":28,"max":[0.5874999761581421,1,0.09375],"min":[0.48750001192092896,0.75,0.0625],"type":"VEC3"},{"bufferView":85,"componentType":5126,"count":28,"max":[1,1,1],"min":[-1,-1,0],"type":"VEC3"},{"bufferView":86,"componentType":5126,"count":28,"max":[0.05000000074505806,0.125],"min":[0,0],"type":"VEC2"},{"bufferView":87,"componentType":5123,"count":42,"max":[27],"min":[0],"type":"SCALAR"},{"bufferView":88,"componentType":5126,"count":24,"max":[0.5562499761581421,0.90625,0.140625],"min":[0.359375,0.859375,0.09375],"type":"VEC3"},{"bufferView":89,"componentType":5126,"count":24,"max":[1,1,1],"min":[-1,-1,-1],"type":"VEC3"},{"bufferView":90,"componentType":5126,"count":24,"max":[0.09843750298023224,0.0234375],"min":[0,0],"type":"VEC2"},{"bufferView":91,"componentType":5123,"count":36,"max":[23],"min":[0],"type":"SCALAR"},{"bufferView":92,"componentType":5126,"count":20,"max":[-0.546875,0.4375,-0.0625],"min":[-0.609375,0.25,-0.09375],"type":"VEC3"},{"bufferView":93,"componentType":5126,"count":20,"max":[1,1,0],"min":[-1,-1,-1],"type":"VEC3"},{"bufferView":94,"componentType":5126,"count":20,"max":[0.03125,0.09375],"min":[0,0],"type":"VEC2"},{"bufferView":95,"componentType":5123,"count":30,"max":[19],"min":[0],"type":"SCALAR"},{"bufferView":96,"componentType":5126,"count":20,"max":[-0.546875,1.625,-0.0625],"min":[-0.609375,1.4375,-0.09375],"type":"VEC3"},{"bufferView":97,"componentType":5126,"count":20,"max":[1,1,0],"min":[-1,-1,-1],"type":"VEC3"},{"bufferView":98,"componentType":5126,"count":20,"max":[0.03125,0.09375],"min":[0,0],"type":"VEC2"},{"bufferView":99,"componentType":5123,"count":30,"max":[19],"min":[0],"type":"SCALAR"}],"materials":[{"pbrMetallicRoughness":{"metallicFactor":0,"roughnessFactor":1,"baseColorTexture":{"index":0}},"alphaMode":"MASK","alphaCutoff":0.05,"doubleSided":true},{"pbrMetallicRoughness":{"metallicFactor":0,"roughnessFactor":1,"baseColorTexture":{"index":1}},"alphaMode":"MASK","alphaCutoff":0.05,"doubleSided":true},{"pbrMetallicRoughness":{"metallicFactor":0,"roughnessFactor":1,"baseColorTexture":{"index":2}},"alphaMode":"MASK","alphaCutoff":0.05,"doubleSided":true},{"pbrMetallicRoughness":{"metallicFactor":0,"roughnessFactor":1,"baseColorTexture":{"index":3}},"alphaMode":"MASK","alphaCutoff":0.05,"doubleSided":true}],"textures":[{"sampler":0,"source":0,"name":"wood.png"},{"sampler":1,"source":1,"name":"wood_dark.png"},{"sampler":2,"source":2,"name":"metal.png"},{"sampler":3,"source":3,"name":"brass.png"}],"samplers":[{"magFilter":9728,"minFilter":9728,"wrapS":10497,"wrapT":10497},{"magFilter":9728,"minFilter":9728,"wrapS":10497,"wrapT":10497},{"magFilter":9728,"minFilter":9728,"wrapS":10497,"wrapT":10497},{"magFilter":9728,"minFilter":9728,"wrapS":10497,"wrapT":10497}],"images":[{"mimeType":"image/png","uri":"../textures/wood.png","name":"wood"},{"mimeType":"image/png","uri":"../textures/wood_dark.png","name":"wood_dark"},{"mimeType":"image/png","uri":"../textures/metal.png","name":"metal"},{"mimeType":"image/png","uri":"../textures/brass.png","name":"brass"}],"meshes":[{"primitives":[{"mode":4,"attributes":{"POSITION":0,"NORMAL":1,"TEXCOORD_0":2},"indices":3,"material":0}]},{"primitives":[{"mode":4,"attributes":{"POSITION":4,"NORMAL":5,"TEXCOORD_0":6},"indices":7,"material":1}]},{"primitives":[{"mode":4,"attributes":{"POSITION":8,"NORMAL":9,"TEXCOORD_0":10},"indices":11,"material":1}]},{"primitives":[{"mode":4,"attributes":{"POSITION":12,"NORMAL":13,"TEXCOORD_0":14},"indices":15,"material":0}]},{"primitives":[{"mode":4,"attributes":{"POSITION":16,"NORMAL":17,"TEXCOORD_0":18},"indices":19,"material":1}]},{"primitives":[{"mode":4,"attributes":{"POSITION":20,"NORMAL":21,"TEXCOORD_0":22},"indices":23,"material":1}]},{"primitives":[{"mode":4,"attributes":{"POSITION":24,"NORMAL":25,"TEXCOORD_0":26},"indices":27,"material":0}]},{"primitives":[{"mode":4,"attributes":{"POSITION":28,"NORMAL":29,"TEXCOORD_0":30},"indices":31,"material":1}]},{"primitives":[{"mode":4,"attributes":{"POSITION":32,"NORMAL":33,"TEXCOORD_0":34},"indices":35,"material":1}]},{"primitives":[{"mode":4,"attributes":{"POSITION":36,"NORMAL":37,"TEXCOORD_0":38},"indices":39,"material":1}]},{"primitives":[{"mode":4,"attributes":{"POSITION":40,"NORMAL":41,"TEXCOORD_0":42},"indices":43,"material":1}]},{"primitives":[{"mode":4,"attributes":{"POSITION":44,"NORMAL":45,"TEXCOORD_0":46},"indices":47,"material":1}]},{"primitives":[{"mode":4,"attributes":{"POSITION":48,"NORMAL":49,"TEXCOORD_0":50},"indices":51,"material":1}]},{"primitives":[{"mode":4,"attributes":{"POSITION":52,"NORMAL":53,"TEXCOORD_0":54},"indices":55,"material":1}]},{"primitives":[{"mode":4,"attributes":{"POSITION":56,"NORMAL":57,"TEXCOORD_0":58},"indices":59,"material":1}]},{"primitives":[{"mode":4,"attributes":{"POSITION":60,"NORMAL":61,"TEXCOORD_0":62},"indices":63,"material":0}]},{"primitives":[{"mode":4,"attributes":{"POSITION":64,"NORMAL":65,"TEXCOORD_0":66},"indices":67,"material":0}]},{"primitives":[{"mode":4,"attributes":{"POSITION":68,"NORMAL":69,"TEXCOORD_0":70},"indices":71,"material":0}]},{"primitives":[{"mode":4,"attributes":{"POSITION":72,"NORMAL":73,"TEXCOORD_0":74},"indices":75,"material":0}]},{"primitives":[{"mode":4,"attributes":{"POSITION":76,"NORMAL":77,"TEXCOORD_0":78},"indices":79,"material":2}]},{"primitives":[{"mode":4,"attributes":{"POSITION":80,"NORMAL":81,"TEXCOORD_0":82},"indices":83,"material":3}]},{"primitives":[{"mode":4,"attributes":{"POSITION":84,"NORMAL":85,"TEXCOORD_0":86},"indices":87,"material":2}]},{"primitives":[{"mode":4,"attributes":{"POSITION":88,"NORMAL":89,"TEXCOORD_0":90},"indices":91,"material":3}]},{"primitives":[{"mode":4,"attributes":{"POSITION":92,"NORMAL":93,"TEXCOORD_0":94},"indices":95,"material":2}]},{"primitives":[{"mode":4,"attributes":{"POSITION":96,"NORMAL":97,"TEXCOORD_0":98},"indices":99,"material":2}]}]}