{"asset":{"version":"2.0","generator":"Blockbench 5.1.6 glTF exporter"},"scenes":[{"nodes":[1,7],"name":"blockbench_export"}],"scene":0,"nodes":[{"name":"frame","mesh":0},{"name":"frame","children":[0]},{"name":"slot","mesh":1},{"name":"slot","mesh":2},{"name":"slot","mesh":3},{"name":"slot","mesh":4},{"name":"slot","mesh":5},{"name":"slot","children":[2,3,4,5,6]}],"bufferViews":[{"buffer":0,"byteOffset":0,"byteLength":960,"target":34962,"byteStride":12},{"buffer":0,"byteOffset":960,"byteLength":960,"target":34962,"byteStride":12},{"buffer":0,"byteOffset":1920,"byteLength":640,"target":34962,"byteStride":8},{"buffer":0,"byteOffset":2560,"byteLength":240,"target":34963},{"buffer":0,"byteOffset":2800,"byteLength":240,"target":34962,"byteStride":12},{"buffer":0,"byteOffset":3040,"byteLength":240,"target":34962,"byteStride":12},{"buffer":0,"byteOffset":3280,"byteLength":160,"target":34962,"byteStride":8},{"buffer":0,"byteOffset":3440,"byteLength":60,"target":34963},{"buffer":0,"byteOffset":3500,"byteLength":240,"target":34962,"byteStride":12},{"buffer":0,"byteOffset":3740,"byteLength":240,"target":34962,"byteStride":12},{"buffer":0,"byteOffset":3980,"byteLength":160,"target":34962,"byteStride":8},{"buffer":0,"byteOffset":4140,"byteLength":60,"target":34963},{"buffer":0,"byteOffset":4200,"byteLength":240,"target":34962,"byteStride":12},{"buffer":0,"byteOffset":4440,"byteLength":240,"target":34962,"byteStride":12},{"buffer":0,"byteOffset":4680,"byteLength":160,"target":34962,"byteStride":8},{"buffer":0,"byteOffset":4840,"byteLength":60,"target":34963},{"buffer":0,"byteOffset":4900,"byteLength":240,"target":34962,"byteStride":12},{"buffer":0,"byteOffset":5140,"byteLength":240,"target":34962,"byteStride":12},{"buffer":0,"byteOffset":5380,"byteLength":160,"target":34962,"byteStride":8},{"buffer":0,"byteOffset":5540,"byteLength":60,"target":34963},{"buffer":0,"byteOffset":5600,"byteLength":240,"target":34962,"byteStride":12},{"buffer":0,"byteOffset":5840,"byteLength":240,"target":34962,"byteStride":12},{"buffer":0,"byteOffset":6080,"byteLength":160,"target":34962,"byteStride":8},{"buffer":0,"byteOffset":6240,"byteLength":60,"target":34963}],"buffers":[{"byteLength":6300,"uri":"data:application/octet-stream;base64,"}],"accessors":[{"bufferView":0,"componentType":5126,"count":80,"max":[0.625,0.0625,0.375],"min":[-0.625,0,-0.375],"type":"VEC3"},{"bufferView":1,"componentType":5126,"count":80,"max":[1,1,1],"min":[-1,-1,-1],"type":"VEC3"},{"bufferView":2,"componentType":5126,"count":80,"max":[0.625,0.375],"min":[0,0],"type":"VEC2"},{"bufferView":3,"componentType":5123,"count":120,"max":[79],"min":[0],"type":"SCALAR"},{"bufferView":4,"componentType":5126,"count":20,"max":[-0.375,0.0703125,0.25],"min":[-0.5,0.0625,-0.25],"type":"VEC3"},{"bufferView":5,"componentType":5126,"count":20,"max":[1,1,1],"min":[-1,0,-1],"type":"VEC3"},{"bufferView":6,"componentType":5126,"count":20,"max":[0.25,0.25],"min":[0,0],"type":"VEC2"},{"bufferView":7,"componentType":5123,"count":30,"max":[19],"min":[0],"type":"SCALAR"},{"bufferView":8,"componentType":5126,"count":20,"max":[-0.125,0.0703125,0.25],"min":[-0.25,0.0625,-0.25],"type":"VEC3"},{"bufferView":9,"componentType":5126,"count":20,"max":[1,1,1],"min":[-1,0,-1],"type":"VEC3"},{"bufferView":10,"componentType":5126,"count":20,"max":[0.25,0.25],"min":[0,0],"type":"VEC2"},{"bufferView":11,"componentType":5123,"count":30,"max":[19],"min":[0],"type":"SCALAR"},{"bufferView":12,"componentType":5126,"count":20,"max":[0.125,0.0703125,0.25],"min":[0,0.0625,-0.25],"type":"VEC3"},{"bufferView":13,"componentType":5126,"count":20,"max":[1,1,1],"min":[-1,0,-1],"type":"VEC3"},{"bufferView":14,"componentType":5126,"count":20,"max":[0.25,0.25],"min":[0,0],"type":"VEC2"},{"bufferView":15,"componentType":5123,"count":30,"max":[19],"min":[0],"type":"SCALAR"},{"bufferView":16,"componentType":5126,"count":20,"max":[0.375,0.0703125,0.25],"min":[0.25,0.0625,-0.25],"type":"VEC3"},{"bufferView":17,"componentType":5126,"count":20,"max":[1,1,1],"min":[-1,0,-1],"type":"VEC3"},{"bufferView":18,"componentType":5126,"count":20,"max":[0.25,0.25],"min":[0,0],"type":"VEC2"},{"bufferView":19,"componentType":5123,"count":30,"max":[19],"min":[0],"type":"SCALAR"},{"bufferView":20,"componentType":5126,"count":20,"max":[0.625,0.0703125,0.25],"min":[0.5,0.0625,-0.25],"type":"VEC3"},{"bufferView":21,"componentType":5126,"count":20,"max":[1,1,1],"min":[-1,0,-1],"type":"VEC3"},{"bufferView":22,"componentType":5126,"count":20,"max":[0.25,0.25],"min":[0,0],"type":"VEC2"},{"bufferView":23,"componentType":5123,"count":30,"max":[19],"min":[0],"type":"SCALAR"}],"materials":[{"pbrMetallicRoughness":{"metallicFactor":0,"roughnessFactor":1,"baseColorTexture":{"index":0}},"alphaMode":"MASK","alphaCutoff":0.05,"doubleSided":true},{"pbrMetallicRoughness":{"metallicFactor":0,"roughnessFactor":1,"baseColorTexture":{"index":1}},"alphaMode":"MASK","alphaCutoff":0.05,"doubleSided":true}],"textures":[{"sampler":0,"source":0,"name":"metal.png"},{"sampler":1,"source":1,"name":"rubber.png"}],"samplers":[{"magFilter":9728,"minFilter":9728,"wrapS":10497,"wrapT":10497},{"magFilter":9728,"minFilter":9728,"wrapS":10497,"wrapT":10497}],"images":[{"mimeType":"image/png","uri":"../textures/metal.png","name":"metal"},{"mimeType":"image/png","uri":"../textures/rubber.png","name":"rubber"}],"meshes":[{"primitives":[{"mode":4,"attributes":{"POSITION":0,"NORMAL":1,"TEXCOORD_0":2},"indices":3,"material":0}]},{"primitives":[{"mode":4,"attributes":{"POSITION":4,"NORMAL":5,"TEXCOORD_0":6},"indices":7,"material":1}]},{"primitives":[{"mode":4,"attributes":{"POSITION":8,"NORMAL":9,"TEXCOORD_0":10},"indices":11,"material":1}]},{"primitives":[{"mode":4,"attributes":{"POSITION":12,"NORMAL":13,"TEXCOORD_0":14},"indices":15,"material":1}]},{"primitives":[{"mode":4,"attributes":{"POSITION":16,"NORMAL":17,"TEXCOORD_0":18},"indices":19,"material":1}]},{"primitives":[{"mode":4,"attributes":{"POSITION":20,"NORMAL":21,"TEXCOORD_0":22},"indices":23,"material":1}]}]}