{"asset":{"version":"2.0","generator":"Blockbench 5.1.6 glTF exporter"},"scenes":[{"nodes":[1,6,8,10,12],"name":"blockbench_export"}],"scene":0,"nodes":[{"name":"base","mesh":0},{"name":"base","children":[0]},{"name":"rim","mesh":1},{"name":"rim","mesh":2},{"name":"rim","mesh":3},{"name":"rim","mesh":4},{"name":"rim","children":[2,3,4,5]},{"name":"pedestal","mesh":5},{"name":"pedestal","children":[7]},{"name":"bowl","mesh":6},{"name":"bowl","children":[9]},{"name":"finial","mesh":7},{"name":"finial","children":[11]}],"bufferViews":[{"buffer":0,"byteOffset":0,"byteLength":432,"target":34962,"byteStride":12},{"buffer":0,"byteOffset":432,"byteLength":432,"target":34962,"byteStride":12},{"buffer":0,"byteOffset":864,"byteLength":288,"target":34962,"byteStride":8},{"buffer":0,"byteOffset":1152,"byteLength":108,"target":34963},{"buffer":0,"byteOffset":1260,"byteLength":240,"target":34962,"byteStride":12},{"buffer":0,"byteOffset":1500,"byteLength":240,"target":34962,"byteStride":12},{"buffer":0,"byteOffset":1740,"byteLength":160,"target":34962,"byteStride":8},{"buffer":0,"byteOffset":1900,"byteLength":60,"target":34963},{"buffer":0,"byteOffset":1960,"byteLength":240,"target":34962,"byteStride":12},{"buffer":0,"byteOffset":2200,"byteLength":240,"target":34962,"byteStride":12},{"buffer":0,"byteOffset":2440,"byteLength":160,"target":34962,"byteStride":8},{"buffer":0,"byteOffset":2600,"byteLength":60,"target":34963},{"buffer":0,"byteOffset":2660,"byteLength":144,"target":34962,"byteStride":12},{"buffer":0,"byteOffset":2804,"byteLength":144,"target":34962,"byteStride":12},{"buffer":0,"byteOffset":2948,"byteLength":96,"target":34962,"byteStride":8},{"buffer":0,"byteOffset":3044,"byteLength":36,"target":34963},{"buffer":0,"byteOffset":3080,"byteLength":144,"target":34962,"byteStride":12},{"buffer":0,"byteOffset":3224,"byteLength":144,"target":34962,"byteStride":12},{"buffer":0,"byteOffset":3368,"byteLength":96,"target":34962,"byteStride":8},{"buffer":0,"byteOffset":3464,"byteLength":36,"target":34963},{"buffer":0,"byteOffset":3500,"byteLength":192,"target":34962,"byteStride":12},{"buffer":0,"byteOffset":3692,"byteLength":192,"target":34962,"byteStride":12},{"buffer":0,"byteOffset":3884,"byteLength":128,"target":34962,"byteStride":8},{"buffer":0,"byteOffset":4012,"byteLength":48,"target":34963},{"buffer":0,"byteOffset":4060,"byteLength":576,"target":34962,"byteStride":12},{"buffer":0,"byteOffset":4636,"byteLength":576,"target":34962,"byteStride":12},{"buffer":0,"byteOffset":5212,"byteLength":384,"target":34962,"byteStride":8},{"buffer":0,"byteOffset":5596,"byteLength":144,"target":34963},{"buffer":0,"byteOffset":5740,"byteLength":240,"target":34962,"byteStride":12},{"buffer":0,"byteOffset":5980,"byteLength":240,"target":34962,"byteStride":12},{"buffer":0,"byteOffset":6220,"byteLength":160,"target":34962,"byteStride":8},{"buffer":0,"byteOffset":6380,"byteLength":60,"target":34963}],"buffers":[{"byteLength":6440,"uri":"data:application/octet-stream;base64,"}],"accessors":[{"bufferView":0,"componentType":5126,"count":36,"max":[1.75,0.1875,1.75],"min":[-1.75,0,-1.75],"type":"VEC3"},{"bufferView":1,"componentType":5126,"count":36,"max":[1,1,1],"min":[-1,-1,-1],"type":"VEC3"},{"bufferView":2,"componentType":5126,"count":36,"max":[1.75,1.75],"min":[0,0],"type":"VEC2"},{"bufferView":3,"componentType":5123,"count":54,"max":[35],"min":[0],"type":"SCALAR"},{"bufferView":4,"componentType":5126,"count":20,"max":[-1.5,0.625,1.75],"min":[-1.75,0.1875,-1.75],"type":"VEC3"},{"bufferView":5,"componentType":5126,"count":20,"max":[1,1,1],"min":[-1,0,-1],"type":"VEC3"},{"bufferView":6,"componentType":5126,"count":20,"max":[1.75,1.75],"min":[0,0],"type":"VEC2"},{"bufferView":7,"componentType":5123,"count":30,"max":[19],"min":[0],"type":"SCALAR"},{"bufferView":8,"componentType":5126,"count":20,"max":[1.75,0.625,1.75],"min":[1.5,0.1875,-1.75],"type":"VEC3"},{"bufferView":9,"componentType":5126,"count":20,"max":[1,1,1],"min":[-1,0,-1],"type":"VEC3"},{"bufferView":10,"componentType":5126,"count":20,"max":[1.75,1.75],"min":[0,0],"type":"VEC2"},{"bufferView":11,"componentType":5123,"count":30,"max":[19],"min":[0],"type":"SCALAR"},{"bufferView":12,"componentType":5126,"count":12,"max":[1.5,0.625,-1.5],"min":[-1.5,0.1875,-1.75],"type":"VEC3"},{"bufferView":13,"componentType":5126,"count":12,"max":[0,1,1],"min":[0,0,-1],"type":"VEC3"},{"bufferView":14,"componentType":5126,"count":12,"max":[1.5,0.21875],"min":[0,0],"type":"VEC2"},{"bufferView":15,"componentType":5123,"count":18,"max":[11],"min":[0],"type":"SCALAR"},{"bufferView":16,"componentType":5126,"count":12,"max":[1.5,0.625,1.75],"min":[-1.5,0.1875,1.5],"type":"VEC3"},{"bufferView":17,"componentType":5126,"count":12,"max":[0,1,1],"min":[0,0,-1],"type":"VEC3"},{"bufferView":18,"componentType":5126,"count":12,"max":[1.5,0.21875],"min":[0,0],"type":"VEC2"},{"bufferView":19,"componentType":5123,"count":18,"max":[11],"min":[0],"type":"SCALAR"},{"bufferView":20,"componentType":5126,"count":16,"max":[0.3125,1.4375,0.3125],"min":[-0.3125,0.1875,-0.3125],"type":"VEC3"},{"bufferView":21,"componentType":5126,"count":16,"max":[1,0,1],"min":[-1,0,-1],"type":"VEC3"},{"bufferView":22,"componentType":5126,"count":16,"max":[0.3125,0.75],"min":[0,0.125],"type":"VEC2"},{"bufferView":23,"componentType":5123,"count":24,"max":[15],"min":[0],"type":"SCALAR"},{"bufferView":24,"componentType":5126,"count":48,"max":[0.8125,1.6875,0.8125],"min":[-0.8125,1.4375,-0.8125],"type":"VEC3"},{"bufferView":25,"componentType":5126,"count":48,"max":[1,1,1],"min":[-1,-1,-1],"type":"VEC3"},{"bufferView":26,"componentType":5126,"count":48,"max":[0.8125,0.8125],"min":[0,0],"type":"VEC2"},{"bufferView":27,"componentType":5123,"count":72,"max":[47],"min":[0],"type":"SCALAR"},{"bufferView":28,"componentType":5126,"count":20,"max":[0.1875,2.25,0.1875],"min":[-0.1875,1.6875,-0.1875],"type":"VEC3"},{"bufferView":29,"componentType":5126,"count":20,"max":[1,1,1],"min":[-1,0,-1],"type":"VEC3"},{"bufferView":30,"componentType":5126,"count":20,"max":[0.1875,0.28125],"min":[0,0],"type":"VEC2"},{"bufferView":31,"componentType":5123,"count":30,"max":[19],"min":[0],"type":"SCALAR"}],"materials":[{"pbrMetallicRoughness":{"metallicFactor":0,"roughnessFactor":1,"baseColorTexture":{"index":0}},"alphaMode":"MASK","alphaCutoff":0.05,"doubleSided":true}],"textures":[{"sampler":0,"source":0,"name":"stone.png"}],"samplers":[{"magFilter":9728,"minFilter":9728,"wrapS":10497,"wrapT":10497}],"images":[{"mimeType":"image/png","uri":"../textures/stone.png","name":"stone"}],"meshes":[{"primitives":[{"mode":4,"attributes":{"POSITION":0,"NORMAL":1,"TEXCOORD_0":2},"indices":3,"material":0}]},{"primitives":[{"mode":4,"attributes":{"POSITION":4,"NORMAL":5,"TEXCOORD_0":6},"indices":7,"material":0}]},{"primitives":[{"mode":4,"attributes":{"POSITION":8,"NORMAL":9,"TEXCOORD_0":10},"indices":11,"material":0}]},{"primitives":[{"mode":4,"attributes":{"POSITION":12,"NORMAL":13,"TEXCOORD_0":14},"indices":15,"material":0}]},{"primitives":[{"mode":4,"attributes":{"POSITION":16,"NORMAL":17,"TEXCOORD_0":18},"indices":19,"material":0}]},{"primitives":[{"mode":4,"attributes":{"POSITION":20,"NORMAL":21,"TEXCOORD_0":22},"indices":23,"material":0}]},{"primitives":[{"mode":4,"attributes":{"POSITION":24,"NORMAL":25,"TEXCOORD_0":26},"indices":27,"material":0}]},{"primitives":[{"mode":4,"attributes":{"POSITION":28,"NORMAL":29,"TEXCOORD_0":30},"indices":31,"material":0}]}]}