{"asset":{"version":"2.0","generator":"Blockbench 5.1.6 glTF exporter"},"scenes":[{"nodes":[1,3,6],"name":"blockbench_export"}],"scene":0,"nodes":[{"name":"bin","mesh":0},{"name":"bin","children":[0]},{"name":"lid","mesh":1},{"name":"lid","children":[2]},{"name":"wheel","mesh":2},{"name":"wheel","mesh":3},{"name":"wheel","children":[4,5]}],"bufferViews":[{"buffer":0,"byteOffset":0,"byteLength":528,"target":34962,"byteStride":12},{"buffer":0,"byteOffset":528,"byteLength":528,"target":34962,"byteStride":12},{"buffer":0,"byteOffset":1056,"byteLength":352,"target":34962,"byteStride":8},{"buffer":0,"byteOffset":1408,"byteLength":132,"target":34963},{"buffer":0,"byteOffset":1540,"byteLength":432,"target":34962,"byteStride":12},{"buffer":0,"byteOffset":1972,"byteLength":432,"target":34962,"byteStride":12},{"buffer":0,"byteOffset":2404,"byteLength":288,"target":34962,"byteStride":8},{"buffer":0,"byteOffset":2692,"byteLength":108,"target":34963},{"buffer":0,"byteOffset":2800,"byteLength":240,"target":34962,"byteStride":12},{"buffer":0,"byteOffset":3040,"byteLength":240,"target":34962,"byteStride":12},{"buffer":0,"byteOffset":3280,"byteLength":160,"target":34962,"byteStride":8},{"buffer":0,"byteOffset":3440,"byteLength":60,"target":34963},{"buffer":0,"byteOffset":3500,"byteLength":240,"target":34962,"byteStride":12},{"buffer":0,"byteOffset":3740,"byteLength":240,"target":34962,"byteStride":12},{"buffer":0,"byteOffset":3980,"byteLength":160,"target":34962,"byteStride":8},{"buffer":0,"byteOffset":4140,"byteLength":60,"target":34963}],"buffers":[{"byteLength":4200,"uri":"data:application/octet-stream;base64,"}],"accessors":[{"bufferView":0,"componentType":5126,"count":44,"max":[1.125,1.625,0.75],"min":[-1.125,0.125,-0.75],"type":"VEC3"},{"bufferView":1,"componentType":5126,"count":44,"max":[1,0,1],"min":[-1,-1,-1],"type":"VEC3"},{"bufferView":2,"componentType":5126,"count":44,"max":[1.125,0.75],"min":[0,0],"type":"VEC2"},{"bufferView":3,"componentType":5123,"count":66,"max":[43],"min":[0],"type":"SCALAR"},{"bufferView":4,"componentType":5126,"count":36,"max":[1.1875,1.8125,0.8125],"min":[-1.1875,1.625,-0.8125],"type":"VEC3"},{"bufferView":5,"componentType":5126,"count":36,"max":[1,1,1],"min":[-1,-1,-1],"type":"VEC3"},{"bufferView":6,"componentType":5126,"count":36,"max":[1.1875,0.8125],"min":[0,0],"type":"VEC2"},{"bufferView":7,"componentType":5123,"count":54,"max":[35],"min":[0],"type":"SCALAR"},{"bufferView":8,"componentType":5126,"count":20,"max":[-0.75,0.125,0.5],"min":[-1,0,-0.5],"type":"VEC3"},{"bufferView":9,"componentType":5126,"count":20,"max":[1,0,1],"min":[-1,-1,-1],"type":"VEC3"},{"bufferView":10,"componentType":5126,"count":20,"max":[0.5,0.5],"min":[0,0],"type":"VEC2"},{"bufferView":11,"componentType":5123,"count":30,"max":[19],"min":[0],"type":"SCALAR"},{"bufferView":12,"componentType":5126,"count":20,"max":[1,0.125,0.5],"min":[0.75,0,-0.5],"type":"VEC3"},{"bufferView":13,"componentType":5126,"count":20,"max":[1,0,1],"min":[-1,-1,-1],"type":"VEC3"},{"bufferView":14,"componentType":5126,"count":20,"max":[0.5,0.5],"min":[0,0],"type":"VEC2"},{"bufferView":15,"componentType":5123,"count":30,"max":[19],"min":[0],"type":"SCALAR"}],"materials":[{"pbrMetallicRoughness":{"metallicFactor":0,"roughnessFactor":1,"baseColorTexture":{"index":0}},"alphaMode":"MASK","alphaCutoff":0.05,"doubleSided":true},{"pbrMetallicRoughness":{"metallicFactor":0,"roughnessFactor":1,"baseColorTexture":{"index":1}},"alphaMode":"MASK","alphaCutoff":0.05,"doubleSided":true},{"pbrMetallicRoughness":{"metallicFactor":0,"roughnessFactor":1,"baseColorTexture":{"index":2}},"alphaMode":"MASK","alphaCutoff":0.05,"doubleSided":true}],"textures":[{"sampler":0,"source":0,"name":"paint.png"},{"sampler":1,"source":1,"name":"metal.png"},{"sampler":2,"source":2,"name":"rubber.png"}],"samplers":[{"magFilter":9728,"minFilter":9728,"wrapS":10497,"wrapT":10497},{"magFilter":9728,"minFilter":9728,"wrapS":10497,"wrapT":10497},{"magFilter":9728,"minFilter":9728,"wrapS":10497,"wrapT":10497}],"images":[{"mimeType":"image/png","uri":"../textures/paint.png","name":"paint"},{"mimeType":"image/png","uri":"../textures/metal.png","name":"metal"},{"mimeType":"image/png","uri":"../textures/rubber.png","name":"rubber"}],"meshes":[{"primitives":[{"mode":4,"attributes":{"POSITION":0,"NORMAL":1,"TEXCOORD_0":2},"indices":3,"material":0}]},{"primitives":[{"mode":4,"attributes":{"POSITION":4,"NORMAL":5,"TEXCOORD_0":6},"indices":7,"material":1}]},{"primitives":[{"mode":4,"attributes":{"POSITION":8,"NORMAL":9,"TEXCOORD_0":10},"indices":11,"material":2}]},{"primitives":[{"mode":4,"attributes":{"POSITION":12,"NORMAL":13,"TEXCOORD_0":14},"indices":15,"material":2}]}]}