{"asset":{"version":"2.0","generator":"Blockbench 5.1.6 glTF exporter"},"scenes":[{"nodes":[2,15],"name":"blockbench_export"}],"scene":0,"nodes":[{"name":"post","mesh":0},{"name":"post","mesh":1},{"name":"post","children":[0,1]},{"name":"wire","mesh":2},{"name":"wire","mesh":3},{"name":"wire","mesh":4},{"name":"wire","mesh":5},{"name":"wire","mesh":6},{"name":"wire","mesh":7},{"name":"wire","mesh":8},{"name":"wire","mesh":9},{"name":"wire","mesh":10},{"name":"wire","mesh":11},{"name":"wire","mesh":12},{"name":"wire","mesh":13},{"name":"wire","children":[3,4,5,6,7,8,9,10,11,12,13,14]}],"bufferViews":[{"buffer":0,"byteOffset":0,"byteLength":768,"target":34962,"byteStride":12},{"buffer":0,"byteOffset":768,"byteLength":768,"target":34962,"byteStride":12},{"buffer":0,"byteOffset":1536,"byteLength":512,"target":34962,"byteStride":8},{"buffer":0,"byteOffset":2048,"byteLength":192,"target":34963},{"buffer":0,"byteOffset":2240,"byteLength":768,"target":34962,"byteStride":12},{"buffer":0,"byteOffset":3008,"byteLength":768,"target":34962,"byteStride":12},{"buffer":0,"byteOffset":3776,"byteLength":512,"target":34962,"byteStride":8},{"buffer":0,"byteOffset":4288,"byteLength":192,"target":34963},{"buffer":0,"byteOffset":4480,"byteLength":1248,"target":34962,"byteStride":12},{"buffer":0,"byteOffset":5728,"byteLength":1248,"target":34962,"byteStride":12},{"buffer":0,"byteOffset":6976,"byteLength":832,"target":34962,"byteStride":8},{"buffer":0,"byteOffset":7808,"byteLength":312,"target":34963},{"buffer":0,"byteOffset":8120,"byteLength":1248,"target":34962,"byteStride":12},{"buffer":0,"byteOffset":9368,"byteLength":1248,"target":34962,"byteStride":12},{"buffer":0,"byteOffset":10616,"byteLength":832,"target":34962,"byteStride":8},{"buffer":0,"byteOffset":11448,"byteLength":312,"target":34963},{"buffer":0,"byteOffset":11760,"byteLength":1248,"target":34962,"byteStride":12},{"buffer":0,"byteOffset":13008,"byteLength":1248,"target":34962,"byteStride":12},{"buffer":0,"byteOffset":14256,"byteLength":832,"target":34962,"byteStride":8},{"buffer":0,"byteOffset":15088,"byteLength":312,"target":34963},{"buffer":0,"byteOffset":15400,"byteLength":1248,"target":34962,"byteStride":12},{"buffer":0,"byteOffset":16648,"byteLength":1248,"target":34962,"byteStride":12},{"buffer":0,"byteOffset":17896,"byteLength":832,"target":34962,"byteStride":8},{"buffer":0,"byteOffset":18728,"byteLength":312,"target":34963},{"buffer":0,"byteOffset":19040,"byteLength":1248,"target":34962,"byteStride":12},{"buffer":0,"byteOffset":20288,"byteLength":1248,"target":34962,"byteStride":12},{"buffer":0,"byteOffset":21536,"byteLength":832,"target":34962,"byteStride":8},{"buffer":0,"byteOffset":22368,"byteLength":312,"target":34963},{"buffer":0,"byteOffset":22680,"byteLength":1248,"target":34962,"byteStride":12},{"buffer":0,"byteOffset":23928,"byteLength":1248,"target":34962,"byteStride":12},{"buffer":0,"byteOffset":25176,"byteLength":832,"target":34962,"byteStride":8},{"buffer":0,"byteOffset":26008,"byteLength":312,"target":34963},{"buffer":0,"byteOffset":26320,"byteLength":1248,"target":34962,"byteStride":12},{"buffer":0,"byteOffset":27568,"byteLength":1248,"target":34962,"byteStride":12},{"buffer":0,"byteOffset":28816,"byteLength":832,"target":34962,"byteStride":8},{"buffer":0,"byteOffset":29648,"byteLength":312,"target":34963},{"buffer":0,"byteOffset":29960,"byteLength":864,"target":34962,"byteStride":12},{"buffer":0,"byteOffset":30824,"byteLength":864,"target":34962,"byteStride":12},{"buffer":0,"byteOffset":31688,"byteLength":576,"target":34962,"byteStride":8},{"buffer":0,"byteOffset":32264,"byteLength":216,"target":34963},{"buffer":0,"byteOffset":32480,"byteLength":864,"target":34962,"byteStride":12},{"buffer":0,"byteOffset":33344,"byteLength":864,"target":34962,"byteStride":12},{"buffer":0,"byteOffset":34208,"byteLength":576,"target":34962,"byteStride":8},{"buffer":0,"byteOffset":34784,"byteLength":216,"target":34963},{"buffer":0,"byteOffset":35000,"byteLength":864,"target":34962,"byteStride":12},{"buffer":0,"byteOffset":35864,"byteLength":864,"target":34962,"byteStride":12},{"buffer":0,"byteOffset":36728,"byteLength":576,"target":34962,"byteStride":8},{"buffer":0,"byteOffset":37304,"byteLength":216,"target":34963},{"buffer":0,"byteOffset":37520,"byteLength":864,"target":34962,"byteStride":12},{"buffer":0,"byteOffset":38384,"byteLength":864,"target":34962,"byteStride":12},{"buffer":0,"byteOffset":39248,"byteLength":576,"target":34962,"byteStride":8},{"buffer":0,"byteOffset":39824,"byteLength":216,"target":34963},{"buffer":0,"byteOffset":40040,"byteLength":864,"target":34962,"byteStride":12},{"buffer":0,"byteOffset":40904,"byteLength":864,"target":34962,"byteStride":12},{"buffer":0,"byteOffset":41768,"byteLength":576,"target":34962,"byteStride":8},{"buffer":0,"byteOffset":42344,"byteLength":216,"target":34963}],"buffers":[{"byteLength":42560,"uri":"data:application/octet-stream;base64,"}],"accessors":[{"bufferView":0,"componentType":5126,"count":64,"max":[-0.875,1.5,0.0625],"min":[-1,0,-0.0625],"type":"VEC3"},{"bufferView":1,"componentType":5126,"count":64,"max":[1,1,1],"min":[-1,-1,-1],"type":"VEC3"},{"bufferView":2,"componentType":5126,"count":64,"max":[0.0625,0.75],"min":[0,0],"type":"VEC2"},{"bufferView":3,"componentType":5123,"count":96,"max":[63],"min":[0],"type":"SCALAR"},{"bufferView":4,"componentType":5126,"count":64,"max":[1,1.5,0.0625],"min":[0.875,0,-0.0625],"type":"VEC3"},{"bufferView":5,"componentType":5126,"count":64,"max":[1,1,1],"min":[-1,-1,-1],"type":"VEC3"},{"bufferView":6,"componentType":5126,"count":64,"max":[0.0625,0.75],"min":[0,0],"type":"VEC2"},{"bufferView":7,"componentType":5123,"count":96,"max":[63],"min":[0],"type":"SCALAR"},{"bufferView":8,"componentType":5126,"count":104,"max":[-0.6875,1.4375,0.0625],"min":[-0.75,0.125,0],"type":"VEC3"},{"bufferView":9,"componentType":5126,"count":104,"max":[1,1,1],"min":[-1,-1,-1],"type":"VEC3"},{"bufferView":10,"componentType":5126,"count":104,"max":[0.03125,0.65625],"min":[0,0],"type":"VEC2"},{"bufferView":11,"componentType":5123,"count":156,"max":[103],"min":[0],"type":"SCALAR"},{"bufferView":12,"componentType":5126,"count":104,"max":[-0.4375,1.4375,0.0625],"min":[-0.5,0.125,0],"type":"VEC3"},{"bufferView":13,"componentType":5126,"count":104,"max":[1,1,1],"min":[-1,-1,-1],"type":"VEC3"},{"bufferView":14,"componentType":5126,"count":104,"max":[0.03125,0.65625],"min":[0,0],"type":"VEC2"},{"bufferView":15,"componentType":5123,"count":156,"max":[103],"min":[0],"type":"SCALAR"},{"bufferView":16,"componentType":5126,"count":104,"max":[-0.1875,1.4375,0.0625],"min":[-0.25,0.125,0],"type":"VEC3"},{"bufferView":17,"componentType":5126,"count":104,"max":[1,1,1],"min":[-1,-1,-1],"type":"VEC3"},{"bufferView":18,"componentType":5126,"count":104,"max":[0.03125,0.65625],"min":[0,0],"type":"VEC2"},{"bufferView":19,"componentType":5123,"count":156,"max":[103],"min":[0],"type":"SCALAR"},{"bufferView":20,"componentType":5126,"count":104,"max":[0.0625,1.4375,0.0625],"min":[0,0.125,0],"type":"VEC3"},{"bufferView":21,"componentType":5126,"count":104,"max":[1,1,1],"min":[-1,-1,-1],"type":"VEC3"},{"bufferView":22,"componentType":5126,"count":104,"max":[0.03125,0.65625],"min":[0,0],"type":"VEC2"},{"bufferView":23,"componentType":5123,"count":156,"max":[103],"min":[0],"type":"SCALAR"},{"bufferView":24,"componentType":5126,"count":104,"max":[0.3125,1.4375,0.0625],"min":[0.25,0.125,0],"type":"VEC3"},{"bufferView":25,"componentType":5126,"count":104,"max":[1,1,1],"min":[-1,-1,-1],"type":"VEC3"},{"bufferView":26,"componentType":5126,"count":104,"max":[0.03125,0.65625],"min":[0,0],"type":"VEC2"},{"bufferView":27,"componentType":5123,"count":156,"max":[103],"min":[0],"type":"SCALAR"},{"bufferView":28,"componentType":5126,"count":104,"max":[0.5625,1.4375,0.0625],"min":[0.5,0.125,0],"type":"VEC3"},{"bufferView":29,"componentType":5126,"count":104,"max":[1,1,1],"min":[-1,-1,-1],"type":"VEC3"},{"bufferView":30,"componentType":5126,"count":104,"max":[0.03125,0.65625],"min":[0,0],"type":"VEC2"},{"bufferView":31,"componentType":5123,"count":156,"max":[103],"min":[0],"type":"SCALAR"},{"bufferView":32,"componentType":5126,"count":104,"max":[0.8125,1.4375,0.0625],"min":[0.75,0.125,0],"type":"VEC3"},{"bufferView":33,"componentType":5126,"count":104,"max":[1,1,1],"min":[-1,-1,-1],"type":"VEC3"},{"bufferView":34,"componentType":5126,"count":104,"max":[0.03125,0.65625],"min":[0,0],"type":"VEC2"},{"bufferView":35,"componentType":5123,"count":156,"max":[103],"min":[0],"type":"SCALAR"},{"bufferView":36,"componentType":5126,"count":72,"max":[0.875,0.3125,0.0625],"min":[-0.875,0.25,0],"type":"VEC3"},{"bufferView":37,"componentType":5126,"count":72,"max":[0,1,1],"min":[0,-1,-1],"type":"VEC3"},{"bufferView":38,"componentType":5126,"count":72,"max":[0.875,0.03125],"min":[0,0],"type":"VEC2"},{"bufferView":39,"componentType":5123,"count":108,"max":[71],"min":[0],"type":"SCALAR"},{"bufferView":40,"componentType":5126,"count":72,"max":[0.875,0.5625,0.0625],"min":[-0.875,0.5,0],"type":"VEC3"},{"bufferView":41,"componentType":5126,"count":72,"max":[0,1,1],"min":[0,-1,-1],"type":"VEC3"},{"bufferView":42,"componentType":5126,"count":72,"max":[0.875,0.03125],"min":[0,0],"type":"VEC2"},{"bufferView":43,"componentType":5123,"count":108,"max":[71],"min":[0],"type":"SCALAR"},{"bufferView":44,"componentType":5126,"count":72,"max":[0.875,0.8125,0.0625],"min":[-0.875,0.75,0],"type":"VEC3"},{"bufferView":45,"componentType":5126,"count":72,"max":[0,1,1],"min":[0,-1,-1],"type":"VEC3"},{"bufferView":46,"componentType":5126,"count":72,"max":[0.875,0.03125],"min":[0,0],"type":"VEC2"},{"bufferView":47,"componentType":5123,"count":108,"max":[71],"min":[0],"type":"SCALAR"},{"bufferView":48,"componentType":5126,"count":72,"max":[0.875,1.0625,0.0625],"min":[-0.875,1,0],"type":"VEC3"},{"bufferView":49,"componentType":5126,"count":72,"max":[0,1,1],"min":[0,-1,-1],"type":"VEC3"},{"bufferView":50,"componentType":5126,"count":72,"max":[0.875,0.03125],"min":[0,0],"type":"VEC2"},{"bufferView":51,"componentType":5123,"count":108,"max":[71],"min":[0],"type":"SCALAR"},{"bufferView":52,"componentType":5126,"count":72,"max":[0.875,1.3125,0.0625],"min":[-0.875,1.25,0],"type":"VEC3"},{"bufferView":53,"componentType":5126,"count":72,"max":[0,1,1],"min":[0,-1,-1],"type":"VEC3"},{"bufferView":54,"componentType":5126,"count":72,"max":[0.875,0.03125],"min":[0,0],"type":"VEC2"},{"bufferView":55,"componentType":5123,"count":108,"max":[71],"min":[0],"type":"SCALAR"}],"materials":[{"pbrMetallicRoughness":{"metallicFactor":0,"roughnessFactor":1,"baseColorTexture":{"index":0}},"alphaMode":"MASK","alphaCutoff":0.05,"doubleSided":true}],"textures":[{"sampler":0,"source":0,"name":"metal.png"}],"samplers":[{"magFilter":9728,"minFilter":9728,"wrapS":10497,"wrapT":10497}],"images":[{"mimeType":"image/png","uri":"../textures/metal.png","name":"metal"}],"meshes":[{"primitives":[{"mode":4,"attributes":{"POSITION":0,"NORMAL":1,"TEXCOORD_0":2},"indices":3,"material":0}]},{"primitives":[{"mode":4,"attributes":{"POSITION":4,"NORMAL":5,"TEXCOORD_0":6},"indices":7,"material":0}]},{"primitives":[{"mode":4,"attributes":{"POSITION":8,"NORMAL":9,"TEXCOORD_0":10},"indices":11,"material":0}]},{"primitives":[{"mode":4,"attributes":{"POSITION":12,"NORMAL":13,"TEXCOORD_0":14},"indices":15,"material":0}]},{"primitives":[{"mode":4,"attributes":{"POSITION":16,"NORMAL":17,"TEXCOORD_0":18},"indices":19,"material":0}]},{"primitives":[{"mode":4,"attributes":{"POSITION":20,"NORMAL":21,"TEXCOORD_0":22},"indices":23,"material":0}]},{"primitives":[{"mode":4,"attributes":{"POSITION":24,"NORMAL":25,"TEXCOORD_0":26},"indices":27,"material":0}]},{"primitives":[{"mode":4,"attributes":{"POSITION":28,"NORMAL":29,"TEXCOORD_0":30},"indices":31,"material":0}]},{"primitives":[{"mode":4,"attributes":{"POSITION":32,"NORMAL":33,"TEXCOORD_0":34},"indices":35,"material":0}]},{"primitives":[{"mode":4,"attributes":{"POSITION":36,"NORMAL":37,"TEXCOORD_0":38},"indices":39,"material":0}]},{"primitives":[{"mode":4,"attributes":{"POSITION":40,"NORMAL":41,"TEXCOORD_0":42},"indices":43,"material":0}]},{"primitives":[{"mode":4,"attributes":{"POSITION":44,"NORMAL":45,"TEXCOORD_0":46},"indices":47,"material":0}]},{"primitives":[{"mode":4,"attributes":{"POSITION":48,"NORMAL":49,"TEXCOORD_0":50},"indices":51,"material":0}]},{"primitives":[{"mode":4,"attributes":{"POSITION":52,"NORMAL":53,"TEXCOORD_0":54},"indices":55,"material":0}]}]}