{"asset":{"version":"2.0","generator":"Blockbench 5.1.6 glTF exporter"},"scenes":[{"nodes":[6,10,14],"name":"blockbench_export"}],"scene":0,"nodes":[{"name":"body","mesh":0},{"name":"panel","mesh":1},{"name":"handle","mesh":2},{"name":"vent","mesh":3},{"name":"vent","mesh":4},{"name":"vent","mesh":5},{"name":"locker_0_0_0_0","children":[0,1,2,3,4,5]},{"name":"drawer_seam","mesh":6},{"name":"drawer_seam","mesh":7},{"name":"drawer_seam","mesh":8},{"name":"drawer_seam","children":[7,8,9]},{"name":"label","mesh":9},{"name":"label","mesh":10},{"name":"label","mesh":11},{"name":"label","children":[11,12,13]}],"bufferViews":[{"buffer":0,"byteOffset":0,"byteLength":432,"target":34962,"byteStride":12},{"buffer":0,"byteOffset":432,"byteLength":432,"target":34962,"byteStride":12},{"buffer":0,"byteOffset":864,"byteLength":288,"target":34962,"byteStride":8},{"buffer":0,"byteOffset":1152,"byteLength":108,"target":34963},{"buffer":0,"byteOffset":1260,"byteLength":1056,"target":34962,"byteStride":12},{"buffer":0,"byteOffset":2316,"byteLength":1056,"target":34962,"byteStride":12},{"buffer":0,"byteOffset":3372,"byteLength":704,"target":34962,"byteStride":8},{"buffer":0,"byteOffset":4076,"byteLength":264,"target":34963},{"buffer":0,"byteOffset":4340,"byteLength":528,"target":34962,"byteStride":12},{"buffer":0,"byteOffset":4868,"byteLength":528,"target":34962,"byteStride":12},{"buffer":0,"byteOffset":5396,"byteLength":352,"target":34962,"byteStride":8},{"buffer":0,"byteOffset":5748,"byteLength":132,"target":34963},{"buffer":0,"byteOffset":5880,"byteLength":192,"target":34962,"byteStride":12},{"buffer":0,"byteOffset":6072,"byteLength":192,"target":34962,"byteStride":12},{"buffer":0,"byteOffset":6264,"byteLength":128,"target":34962,"byteStride":8},{"buffer":0,"byteOffset":6392,"byteLength":48,"target":34963},{"buffer":0,"byteOffset":6440,"byteLength":192,"target":34962,"byteStride":12},{"buffer":0,"byteOffset":6632,"byteLength":192,"target":34962,"byteStride":12},{"buffer":0,"byteOffset":6824,"byteLength":128,"target":34962,"byteStride":8},{"buffer":0,"byteOffset":6952,"byteLength":48,"target":34963},{"buffer":0,"byteOffset":7000,"byteLength":240,"target":34962,"byteStride":12},{"buffer":0,"byteOffset":7240,"byteLength":240,"target":34962,"byteStride":12},{"buffer":0,"byteOffset":7480,"byteLength":160,"target":34962,"byteStride":8},{"buffer":0,"byteOffset":7640,"byteLength":60,"target":34963},{"buffer":0,"byteOffset":7700,"byteLength":240,"target":34962,"byteStride":12},{"buffer":0,"byteOffset":7940,"byteLength":240,"target":34962,"byteStride":12},{"buffer":0,"byteOffset":8180,"byteLength":160,"target":34962,"byteStride":8},{"buffer":0,"byteOffset":8340,"byteLength":60,"target":34963},{"buffer":0,"byteOffset":8400,"byteLength":384,"target":34962,"byteStride":12},{"buffer":0,"byteOffset":8784,"byteLength":384,"target":34962,"byteStride":12},{"buffer":0,"byteOffset":9168,"byteLength":256,"target":34962,"byteStride":8},{"buffer":0,"byteOffset":9424,"byteLength":96,"target":34963},{"buffer":0,"byteOffset":9520,"byteLength":288,"target":34962,"byteStride":12},{"buffer":0,"byteOffset":9808,"byteLength":288,"target":34962,"byteStride":12},{"buffer":0,"byteOffset":10096,"byteLength":192,"target":34962,"byteStride":8},{"buffer":0,"byteOffset":10288,"byteLength":72,"target":34963},{"buffer":0,"byteOffset":10360,"byteLength":288,"target":34962,"byteStride":12},{"buffer":0,"byteOffset":10648,"byteLength":288,"target":34962,"byteStride":12},{"buffer":0,"byteOffset":10936,"byteLength":192,"target":34962,"byteStride":8},{"buffer":0,"byteOffset":11128,"byteLength":72,"target":34963},{"buffer":0,"byteOffset":11200,"byteLength":288,"target":34962,"byteStride":12},{"buffer":0,"byteOffset":11488,"byteLength":288,"target":34962,"byteStride":12},{"buffer":0,"byteOffset":11776,"byteLength":192,"target":34962,"byteStride":8},{"buffer":0,"byteOffset":11968,"byteLength":72,"target":34963},{"buffer":0,"byteOffset":12040,"byteLength":288,"target":34962,"byteStride":12},{"buffer":0,"byteOffset":12328,"byteLength":288,"target":34962,"byteStride":12},{"buffer":0,"byteOffset":12616,"byteLength":192,"target":34962,"byteStride":8},{"buffer":0,"byteOffset":12808,"byteLength":72,"target":34963}],"buffers":[{"byteLength":12880,"uri":"data:application/octet-stream;base64,"}],"accessors":[{"bufferView":0,"componentType":5126,"count":36,"max":[0.5,2,0.4375],"min":[-0.5,0,-0.4375],"type":"VEC3"},{"bufferView":1,"componentType":5126,"count":36,"max":[1,1,1],"min":[-1,-1,-1],"type":"VEC3"},{"bufferView":2,"componentType":5126,"count":36,"max":[0.5,1],"min":[0,0],"type":"VEC2"},{"bufferView":3,"componentType":5123,"count":54,"max":[35],"min":[0],"type":"SCALAR"},{"bufferView":4,"componentType":5126,"count":88,"max":[0.4375,1.9375,-0.4375],"min":[-0.4375,0.0625,-0.5],"type":"VEC3"},{"bufferView":5,"componentType":5126,"count":88,"max":[1,1,0],"min":[-1,-1,-1],"type":"VEC3"},{"bufferView":6,"componentType":5126,"count":88,"max":[0.4375,0.9375],"min":[0,0],"type":"VEC2"},{"bufferView":7,"componentType":5123,"count":132,"max":[87],"min":[0],"type":"SCALAR"},{"bufferView":8,"componentType":5126,"count":44,"max":[0.3125,1.125,-0.5],"min":[0.25,0.875,-0.5625],"type":"VEC3"},{"bufferView":9,"componentType":5126,"count":44,"max":[1,1,0],"min":[-1,-1,-1],"type":"VEC3"},{"bufferView":10,"componentType":5126,"count":44,"max":[0.03125,0.125],"min":[0,0],"type":"VEC2"},{"bufferView":11,"componentType":5123,"count":66,"max":[43],"min":[0],"type":"SCALAR"},{"bufferView":12,"componentType":5126,"count":16,"max":[0.25,1.625,-0.5],"min":[-0.25,1.5625,-0.515625],"type":"VEC3"},{"bufferView":13,"componentType":5126,"count":16,"max":[1,0,0],"min":[-1,-1,-1],"type":"VEC3"},{"bufferView":14,"componentType":5126,"count":16,"max":[0.25,0.03125],"min":[0,0],"type":"VEC2"},{"bufferView":15,"componentType":5123,"count":24,"max":[15],"min":[0],"type":"SCALAR"},{"bufferView":16,"componentType":5126,"count":16,"max":[0.25,1.75,-0.5],"min":[-0.25,1.6875,-0.515625],"type":"VEC3"},{"bufferView":17,"componentType":5126,"count":16,"max":[1,1,0],"min":[-1,-1,0],"type":"VEC3"},{"bufferView":18,"componentType":5126,"count":16,"max":[0.25,0.03125],"min":[0,0],"type":"VEC2"},{"bufferView":19,"componentType":5123,"count":24,"max":[15],"min":[0],"type":"SCALAR"},{"bufferView":20,"componentType":5126,"count":20,"max":[0.25,1.875,-0.5],"min":[-0.25,1.8125,-0.515625],"type":"VEC3"},{"bufferView":21,"componentType":5126,"count":20,"max":[1,1,0],"min":[-1,-1,-1],"type":"VEC3"},{"bufferView":22,"componentType":5126,"count":20,"max":[0.25,0.03125],"min":[0,0],"type":"VEC2"},{"bufferView":23,"componentType":5123,"count":30,"max":[19],"min":[0],"type":"SCALAR"},{"bufferView":24,"componentType":5126,"count":20,"max":[0.4375,0.40625,-0.5],"min":[-0.4375,0.375,-0.515625],"type":"VEC3"},{"bufferView":25,"componentType":5126,"count":20,"max":[1,1,0],"min":[-1,-1,-1],"type":"VEC3"},{"bufferView":26,"componentType":5126,"count":20,"max":[0.4375,0.015625],"min":[0,0],"type":"VEC2"},{"bufferView":27,"componentType":5123,"count":30,"max":[19],"min":[0],"type":"SCALAR"},{"bufferView":28,"componentType":5126,"count":32,"max":[0.4375,1.03125,-0.5],"min":[-0.4375,1,-0.515625],"type":"VEC3"},{"bufferView":29,"componentType":5126,"count":32,"max":[1,1,0],"min":[-1,-1,-1],"type":"VEC3"},{"bufferView":30,"componentType":5126,"count":32,"max":[0.4375,0.015625],"min":[0,0],"type":"VEC2"},{"bufferView":31,"componentType":5123,"count":48,"max":[31],"min":[0],"type":"SCALAR"},{"bufferView":32,"componentType":5126,"count":24,"max":[0.4375,1.65625,-0.5],"min":[-0.4375,1.625,-0.515625],"type":"VEC3"},{"bufferView":33,"componentType":5126,"count":24,"max":[1,1,0],"min":[-1,-1,-1],"type":"VEC3"},{"bufferView":34,"componentType":5126,"count":24,"max":[0.4375,0.015625],"min":[0,0],"type":"VEC2"},{"bufferView":35,"componentType":5123,"count":36,"max":[23],"min":[0],"type":"SCALAR"},{"bufferView":36,"componentType":5126,"count":24,"max":[0.25,0.5625,-0.515625],"min":[-0.25,0.4375,-0.53125],"type":"VEC3"},{"bufferView":37,"componentType":5126,"count":24,"max":[1,1,1],"min":[-1,-1,-1],"type":"VEC3"},{"bufferView":38,"componentType":5126,"count":24,"max":[0.25,0.0625],"min":[0,0],"type":"VEC2"},{"bufferView":39,"componentType":5123,"count":36,"max":[23],"min":[0],"type":"SCALAR"},{"bufferView":40,"componentType":5126,"count":24,"max":[0.25,1.1875,-0.515625],"min":[-0.25,1.0625,-0.53125],"type":"VEC3"},{"bufferView":41,"componentType":5126,"count":24,"max":[1,1,1],"min":[-1,-1,-1],"type":"VEC3"},{"bufferView":42,"componentType":5126,"count":24,"max":[0.25,0.0625],"min":[0,0],"type":"VEC2"},{"bufferView":43,"componentType":5123,"count":36,"max":[23],"min":[0],"type":"SCALAR"},{"bufferView":44,"componentType":5126,"count":24,"max":[0.25,1.8125,-0.515625],"min":[-0.25,1.6875,-0.53125],"type":"VEC3"},{"bufferView":45,"componentType":5126,"count":24,"max":[1,1,1],"min":[-1,-1,-1],"type":"VEC3"},{"bufferView":46,"componentType":5126,"count":24,"max":[0.25,0.0625],"min":[0,0],"type":"VEC2"},{"bufferView":47,"componentType":5123,"count":36,"max":[23],"min":[0],"type":"SCALAR"}],"materials":[{"pbrMetallicRoughness":{"metallicFactor":0,"roughnessFactor":1,"baseColorTexture":{"index":0}},"alphaMode":"MASK","alphaCutoff":0.05,"doubleSided":true},{"pbrMetallicRoughness":{"metallicFactor":0,"roughnessFactor":1,"baseColorTexture":{"index":1}},"alphaMode":"MASK","alphaCutoff":0.05,"doubleSided":true},{"pbrMetallicRoughness":{"metallicFactor":0,"roughnessFactor":1,"baseColorTexture":{"index":2}},"alphaMode":"MASK","alphaCutoff":0.05,"doubleSided":true},{"pbrMetallicRoughness":{"metallicFactor":0,"roughnessFactor":1,"baseColorTexture":{"index":3}},"alphaMode":"MASK","alphaCutoff":0.05,"doubleSided":true}],"textures":[{"sampler":0,"source":0,"name":"metal.png"},{"sampler":1,"source":1,"name":"paint.png"},{"sampler":2,"source":2,"name":"rubber.png"},{"sampler":3,"source":3,"name":"paper.png"}],"samplers":[{"magFilter":9728,"minFilter":9728,"wrapS":10497,"wrapT":10497},{"magFilter":9728,"minFilter":9728,"wrapS":10497,"wrapT":10497},{"magFilter":9728,"minFilter":9728,"wrapS":10497,"wrapT":10497},{"magFilter":9728,"minFilter":9728,"wrapS":10497,"wrapT":10497}],"images":[{"mimeType":"image/png","uri":"../textures/metal.png","name":"metal"},{"mimeType":"image/png","uri":"../textures/paint.png","name":"paint"},{"mimeType":"image/png","uri":"../textures/rubber.png","name":"rubber"},{"mimeType":"image/png","uri":"../textures/paper.png","name":"paper"}],"meshes":[{"primitives":[{"mode":4,"attributes":{"POSITION":0,"NORMAL":1,"TEXCOORD_0":2},"indices":3,"material":0}]},{"primitives":[{"mode":4,"attributes":{"POSITION":4,"NORMAL":5,"TEXCOORD_0":6},"indices":7,"material":1}]},{"primitives":[{"mode":4,"attributes":{"POSITION":8,"NORMAL":9,"TEXCOORD_0":10},"indices":11,"material":0}]},{"primitives":[{"mode":4,"attributes":{"POSITION":12,"NORMAL":13,"TEXCOORD_0":14},"indices":15,"material":2}]},{"primitives":[{"mode":4,"attributes":{"POSITION":16,"NORMAL":17,"TEXCOORD_0":18},"indices":19,"material":2}]},{"primitives":[{"mode":4,"attributes":{"POSITION":20,"NORMAL":21,"TEXCOORD_0":22},"indices":23,"material":2}]},{"primitives":[{"mode":4,"attributes":{"POSITION":24,"NORMAL":25,"TEXCOORD_0":26},"indices":27,"material":2}]},{"primitives":[{"mode":4,"attributes":{"POSITION":28,"NORMAL":29,"TEXCOORD_0":30},"indices":31,"material":2}]},{"primitives":[{"mode":4,"attributes":{"POSITION":32,"NORMAL":33,"TEXCOORD_0":34},"indices":35,"material":2}]},{"primitives":[{"mode":4,"attributes":{"POSITION":36,"NORMAL":37,"TEXCOORD_0":38},"indices":39,"material":3}]},{"primitives":[{"mode":4,"attributes":{"POSITION":40,"NORMAL":41,"TEXCOORD_0":42},"indices":43,"material":3}]},{"primitives":[{"mode":4,"attributes":{"POSITION":44,"NORMAL":45,"TEXCOORD_0":46},"indices":47,"material":3}]}]}