{"asset":{"version":"2.0","generator":"Blockbench 5.1.6 glTF exporter"},"scenes":[{"nodes":[6,8,10,13,16,24,32,40,48,53,55],"name":"blockbench_export"}],"scene":0,"nodes":[{"name":"body","mesh":0},{"name":"rear_counterweight","mesh":1},{"name":"rear_vent","mesh":2},{"name":"rear_vent","mesh":3},{"name":"rear_vent","mesh":4},{"name":"rear_vent","mesh":5},{"name":"body","children":[0,1,2,3,4,5]},{"name":"seat","mesh":6},{"name":"seat","children":[7]},{"name":"back","mesh":7},{"name":"back","children":[9]},{"name":"mast","mesh":8},{"name":"mast","mesh":9},{"name":"mast","children":[11,12]},{"name":"fork","mesh":10},{"name":"fork","mesh":11},{"name":"fork","children":[14,15]},{"name":"lug","mesh":12},{"name":"lug","mesh":13},{"name":"lug","mesh":14},{"name":"lug","mesh":15},{"name":"tire","mesh":16},{"name":"steel_rim","mesh":17},{"name":"hub","mesh":18},{"name":"round_wheel_-12_-7","children":[17,18,19,20,21,22,23]},{"name":"lug","mesh":19},{"name":"lug","mesh":20},{"name":"lug","mesh":21},{"name":"lug","mesh":22},{"name":"tire","mesh":23},{"name":"steel_rim","mesh":24},{"name":"hub","mesh":25},{"name":"round_wheel_-12_13","children":[25,26,27,28,29,30,31]},{"name":"lug","mesh":26},{"name":"lug","mesh":27},{"name":"lug","mesh":28},{"name":"lug","mesh":29},{"name":"tire","mesh":30},{"name":"steel_rim","mesh":31},{"name":"hub","mesh":32},{"name":"round_wheel_12_-7","children":[33,34,35,36,37,38,39]},{"name":"lug","mesh":33},{"name":"lug","mesh":34},{"name":"lug","mesh":35},{"name":"lug","mesh":36},{"name":"tire","mesh":37},{"name":"steel_rim","mesh":38},{"name":"hub","mesh":39},{"name":"round_wheel_12_13","children":[41,42,43,44,45,46,47]},{"name":"overhead_guard_post","mesh":40},{"name":"overhead_guard_post","mesh":41},{"name":"overhead_guard_post","mesh":42},{"name":"overhead_guard_post","mesh":43},{"name":"overhead_guard_post","children":[49,50,51,52]},{"name":"overhead_guard","mesh":44},{"name":"overhead_guard","children":[54]}],"bufferViews":[{"buffer":0,"byteOffset":0,"byteLength":816,"target":34962,"byteStride":12},{"buffer":0,"byteOffset":816,"byteLength":816,"target":34962,"byteStride":12},{"buffer":0,"byteOffset":1632,"byteLength":544,"target":34962,"byteStride":8},{"buffer":0,"byteOffset":2176,"byteLength":204,"target":34963},{"buffer":0,"byteOffset":2380,"byteLength":960,"target":34962,"byteStride":12},{"buffer":0,"byteOffset":3340,"byteLength":960,"target":34962,"byteStride":12},{"buffer":0,"byteOffset":4300,"byteLength":640,"target":34962,"byteStride":8},{"buffer":0,"byteOffset":4940,"byteLength":240,"target":34963},{"buffer":0,"byteOffset":5180,"byteLength":240,"target":34962,"byteStride":12},{"buffer":0,"byteOffset":5420,"byteLength":240,"target":34962,"byteStride":12},{"buffer":0,"byteOffset":5660,"byteLength":160,"target":34962,"byteStride":8},{"buffer":0,"byteOffset":5820,"byteLength":60,"target":34963},{"buffer":0,"byteOffset":5880,"byteLength":240,"target":34962,"byteStride":12},{"buffer":0,"byteOffset":6120,"byteLength":240,"target":34962,"byteStride":12},{"buffer":0,"byteOffset":6360,"byteLength":160,"target":34962,"byteStride":8},{"buffer":0,"byteOffset":6520,"byteLength":60,"target":34963},{"buffer":0,"byteOffset":6580,"byteLength":240,"target":34962,"byteStride":12},{"buffer":0,"byteOffset":6820,"byteLength":240,"target":34962,"byteStride":12},{"buffer":0,"byteOffset":7060,"byteLength":160,"target":34962,"byteStride":8},{"buffer":0,"byteOffset":7220,"byteLength":60,"target":34963},{"buffer":0,"byteOffset":7280,"byteLength":240,"target":34962,"byteStride":12},{"buffer":0,"byteOffset":7520,"byteLength":240,"target":34962,"byteStride":12},{"buffer":0,"byteOffset":7760,"byteLength":160,"target":34962,"byteStride":8},{"buffer":0,"byteOffset":7920,"byteLength":60,"target":34963},{"buffer":0,"byteOffset":7980,"byteLength":240,"target":34962,"byteStride":12},{"buffer":0,"byteOffset":8220,"byteLength":240,"target":34962,"byteStride":12},{"buffer":0,"byteOffset":8460,"byteLength":160,"target":34962,"byteStride":8},{"buffer":0,"byteOffset":8620,"byteLength":60,"target":34963},{"buffer":0,"byteOffset":8680,"byteLength":240,"target":34962,"byteStride":12},{"buffer":0,"byteOffset":8920,"byteLength":240,"target":34962,"byteStride":12},{"buffer":0,"byteOffset":9160,"byteLength":160,"target":34962,"byteStride":8},{"buffer":0,"byteOffset":9320,"byteLength":60,"target":34963},{"buffer":0,"byteOffset":9380,"byteLength":528,"target":34962,"byteStride":12},{"buffer":0,"byteOffset":9908,"byteLength":528,"target":34962,"byteStride":12},{"buffer":0,"byteOffset":10436,"byteLength":352,"target":34962,"byteStride":8},{"buffer":0,"byteOffset":10788,"byteLength":132,"target":34963},{"buffer":0,"byteOffset":10920,"byteLength":528,"target":34962,"byteStride":12},{"buffer":0,"byteOffset":11448,"byteLength":528,"target":34962,"byteStride":12},{"buffer":0,"byteOffset":11976,"byteLength":352,"target":34962,"byteStride":8},{"buffer":0,"byteOffset":12328,"byteLength":132,"target":34963},{"buffer":0,"byteOffset":12460,"byteLength":240,"target":34962,"byteStride":12},{"buffer":0,"byteOffset":12700,"byteLength":240,"target":34962,"byteStride":12},{"buffer":0,"byteOffset":12940,"byteLength":160,"target":34962,"byteStride":8},{"buffer":0,"byteOffset":13100,"byteLength":60,"target":34963},{"buffer":0,"byteOffset":13160,"byteLength":240,"target":34962,"byteStride":12},{"buffer":0,"byteOffset":13400,"byteLength":240,"target":34962,"byteStride":12},{"buffer":0,"byteOffset":13640,"byteLength":160,"target":34962,"byteStride":8},{"buffer":0,"byteOffset":13800,"byteLength":60,"target":34963},{"buffer":0,"byteOffset":13860,"byteLength":288,"target":34962,"byteStride":12},{"buffer":0,"byteOffset":14148,"byteLength":288,"target":34962,"byteStride":12},{"buffer":0,"byteOffset":14436,"byteLength":192,"target":34962,"byteStride":8},{"buffer":0,"byteOffset":14628,"byteLength":72,"target":34963},{"buffer":0,"byteOffset":14700,"byteLength":288,"target":34962,"byteStride":12},{"buffer":0,"byteOffset":14988,"byteLength":288,"target":34962,"byteStride":12},{"buffer":0,"byteOffset":15276,"byteLength":192,"target":34962,"byteStride":8},{"buffer":0,"byteOffset":15468,"byteLength":72,"target":34963},{"buffer":0,"byteOffset":15540,"byteLength":288,"target":34962,"byteStride":12},{"buffer":0,"byteOffset":15828,"byteLength":288,"target":34962,"byteStride":12},{"buffer":0,"byteOffset":16116,"byteLength":192,"target":34962,"byteStride":8},{"buffer":0,"byteOffset":16308,"byteLength":72,"target":34963},{"buffer":0,"byteOffset":16380,"byteLength":288,"target":34962,"byteStride":12},{"buffer":0,"byteOffset":16668,"byteLength":288,"target":34962,"byteStride":12},{"buffer":0,"byteOffset":16956,"byteLength":192,"target":34962,"byteStride":8},{"buffer":0,"byteOffset":17148,"byteLength":72,"target":34963},{"buffer":0,"byteOffset":17220,"byteLength":1440,"target":34962,"byteStride":12},{"buffer":0,"byteOffset":18660,"byteLength":1440,"target":34962,"byteStride":12},{"buffer":0,"byteOffset":20100,"byteLength":960,"target":34962,"byteStride":8},{"buffer":0,"byteOffset":21060,"byteLength":288,"target":34963},{"buffer":0,"byteOffset":21348,"byteLength":1440,"target":34962,"byteStride":12},{"buffer":0,"byteOffset":22788,"byteLength":1440,"target":34962,"byteStride":12},{"buffer":0,"byteOffset":24228,"byteLength":960,"target":34962,"byteStride":8},{"buffer":0,"byteOffset":25188,"byteLength":288,"target":34963},{"buffer":0,"byteOffset":25476,"byteLength":1440,"target":34962,"byteStride":12},{"buffer":0,"byteOffset":26916,"byteLength":1440,"target":34962,"byteStride":12},{"buffer":0,"byteOffset":28356,"byteLength":960,"target":34962,"byteStride":8},{"buffer":0,"byteOffset":29316,"byteLength":288,"target":34963},{"buffer":0,"byteOffset":29604,"byteLength":288,"target":34962,"byteStride":12},{"buffer":0,"byteOffset":29892,"byteLength":288,"target":34962,"byteStride":12},{"buffer":0,"byteOffset":30180,"byteLength":192,"target":34962,"byteStride":8},{"buffer":0,"byteOffset":30372,"byteLength":72,"target":34963},{"buffer":0,"byteOffset":30444,"byteLength":288,"target":34962,"byteStride":12},{"buffer":0,"byteOffset":30732,"byteLength":288,"target":34962,"byteStride":12},{"buffer":0,"byteOffset":31020,"byteLength":192,"target":34962,"byteStride":8},{"buffer":0,"byteOffset":31212,"byteLength":72,"target":34963},{"buffer":0,"byteOffset":31284,"byteLength":288,"target":34962,"byteStride":12},{"buffer":0,"byteOffset":31572,"byteLength":288,"target":34962,"byteStride":12},{"buffer":0,"byteOffset":31860,"byteLength":192,"target":34962,"byteStride":8},{"buffer":0,"byteOffset":32052,"byteLength":72,"target":34963},{"buffer":0,"byteOffset":32124,"byteLength":288,"target":34962,"byteStride":12},{"buffer":0,"byteOffset":32412,"byteLength":288,"target":34962,"byteStride":12},{"buffer":0,"byteOffset":32700,"byteLength":192,"target":34962,"byteStride":8},{"buffer":0,"byteOffset":32892,"byteLength":72,"target":34963},{"buffer":0,"byteOffset":32964,"byteLength":1440,"target":34962,"byteStride":12},{"buffer":0,"byteOffset":34404,"byteLength":1440,"target":34962,"byteStride":12},{"buffer":0,"byteOffset":35844,"byteLength":960,"target":34962,"byteStride":8},{"buffer":0,"byteOffset":36804,"byteLength":288,"target":34963},{"buffer":0,"byteOffset":37092,"byteLength":1440,"target":34962,"byteStride":12},{"buffer":0,"byteOffset":38532,"byteLength":1440,"target":34962,"byteStride":12},{"buffer":0,"byteOffset":39972,"byteLength":960,"target":34962,"byteStride":8},{"buffer":0,"byteOffset":40932,"byteLength":288,"target":34963},{"buffer":0,"byteOffset":41220,"byteLength":1440,"target":34962,"byteStride":12},{"buffer":0,"byteOffset":42660,"byteLength":1440,"target":34962,"byteStride":12},{"buffer":0,"byteOffset":44100,"byteLength":960,"target":34962,"byteStride":8},{"buffer":0,"byteOffset":45060,"byteLength":288,"target":34963},{"buffer":0,"byteOffset":45348,"byteLength":288,"target":34962,"byteStride":12},{"buffer":0,"byteOffset":45636,"byteLength":288,"target":34962,"byteStride":12},{"buffer":0,"byteOffset":45924,"byteLength":192,"target":34962,"byteStride":8},{"buffer":0,"byteOffset":46116,"byteLength":72,"target":34963},{"buffer":0,"byteOffset":46188,"byteLength":288,"target":34962,"byteStride":12},{"buffer":0,"byteOffset":46476,"byteLength":288,"target":34962,"byteStride":12},{"buffer":0,"byteOffset":46764,"byteLength":192,"target":34962,"byteStride":8},{"buffer":0,"byteOffset":46956,"byteLength":72,"target":34963},{"buffer":0,"byteOffset":47028,"byteLength":288,"target":34962,"byteStride":12},{"buffer":0,"byteOffset":47316,"byteLength":288,"target":34962,"byteStride":12},{"buffer":0,"byteOffset":47604,"byteLength":192,"target":34962,"byteStride":8},{"buffer":0,"byteOffset":47796,"byteLength":72,"target":34963},{"buffer":0,"byteOffset":47868,"byteLength":288,"target":34962,"byteStride":12},{"buffer":0,"byteOffset":48156,"byteLength":288,"target":34962,"byteStride":12},{"buffer":0,"byteOffset":48444,"byteLength":192,"target":34962,"byteStride":8},{"buffer":0,"byteOffset":48636,"byteLength":72,"target":34963},{"buffer":0,"byteOffset":48708,"byteLength":1440,"target":34962,"byteStride":12},{"buffer":0,"byteOffset":50148,"byteLength":1440,"target":34962,"byteStride":12},{"buffer":0,"byteOffset":51588,"byteLength":960,"target":34962,"byteStride":8},{"buffer":0,"byteOffset":52548,"byteLength":288,"target":34963},{"buffer":0,"byteOffset":52836,"byteLength":1440,"target":34962,"byteStride":12},{"buffer":0,"byteOffset":54276,"byteLength":1440,"target":34962,"byteStride":12},{"buffer":0,"byteOffset":55716,"byteLength":960,"target":34962,"byteStride":8},{"buffer":0,"byteOffset":56676,"byteLength":288,"target":34963},{"buffer":0,"byteOffset":56964,"byteLength":1440,"target":34962,"byteStride":12},{"buffer":0,"byteOffset":58404,"byteLength":1440,"target":34962,"byteStride":12},{"buffer":0,"byteOffset":59844,"byteLength":960,"target":34962,"byteStride":8},{"buffer":0,"byteOffset":60804,"byteLength":288,"target":34963},{"buffer":0,"byteOffset":61092,"byteLength":288,"target":34962,"byteStride":12},{"buffer":0,"byteOffset":61380,"byteLength":288,"target":34962,"byteStride":12},{"buffer":0,"byteOffset":61668,"byteLength":192,"target":34962,"byteStride":8},{"buffer":0,"byteOffset":61860,"byteLength":72,"target":34963},{"buffer":0,"byteOffset":61932,"byteLength":288,"target":34962,"byteStride":12},{"buffer":0,"byteOffset":62220,"byteLength":288,"target":34962,"byteStride":12},{"buffer":0,"byteOffset":62508,"byteLength":192,"target":34962,"byteStride":8},{"buffer":0,"byteOffset":62700,"byteLength":72,"target":34963},{"buffer":0,"byteOffset":62772,"byteLength":288,"target":34962,"byteStride":12},{"buffer":0,"byteOffset":63060,"byteLength":288,"target":34962,"byteStride":12},{"buffer":0,"byteOffset":63348,"byteLength":192,"target":34962,"byteStride":8},{"buffer":0,"byteOffset":63540,"byteLength":72,"target":34963},{"buffer":0,"byteOffset":63612,"byteLength":288,"target":34962,"byteStride":12},{"buffer":0,"byteOffset":63900,"byteLength":288,"target":34962,"byteStride":12},{"buffer":0,"byteOffset":64188,"byteLength":192,"target":34962,"byteStride":8},{"buffer":0,"byteOffset":64380,"byteLength":72,"target":34963},{"buffer":0,"byteOffset":64452,"byteLength":1440,"target":34962,"byteStride":12},{"buffer":0,"byteOffset":65892,"byteLength":1440,"target":34962,"byteStride":12},{"buffer":0,"byteOffset":67332,"byteLength":960,"target":34962,"byteStride":8},{"buffer":0,"byteOffset":68292,"byteLength":288,"target":34963},{"buffer":0,"byteOffset":68580,"byteLength":1440,"target":34962,"byteStride":12},{"buffer":0,"byteOffset":70020,"byteLength":1440,"target":34962,"byteStride":12},{"buffer":0,"byteOffset":71460,"byteLength":960,"target":34962,"byteStride":8},{"buffer":0,"byteOffset":72420,"byteLength":288,"target":34963},{"buffer":0,"byteOffset":72708,"byteLength":1440,"target":34962,"byteStride":12},{"buffer":0,"byteOffset":74148,"byteLength":1440,"target":34962,"byteStride":12},{"buffer":0,"byteOffset":75588,"byteLength":960,"target":34962,"byteStride":8},{"buffer":0,"byteOffset":76548,"byteLength":288,"target":34963},{"buffer":0,"byteOffset":76836,"byteLength":192,"target":34962,"byteStride":12},{"buffer":0,"byteOffset":77028,"byteLength":192,"target":34962,"byteStride":12},{"buffer":0,"byteOffset":77220,"byteLength":128,"target":34962,"byteStride":8},{"buffer":0,"byteOffset":77348,"byteLength":48,"target":34963},{"buffer":0,"byteOffset":77396,"byteLength":192,"target":34962,"byteStride":12},{"buffer":0,"byteOffset":77588,"byteLength":192,"target":34962,"byteStride":12},{"buffer":0,"byteOffset":77780,"byteLength":128,"target":34962,"byteStride":8},{"buffer":0,"byteOffset":77908,"byteLength":48,"target":34963},{"buffer":0,"byteOffset":77956,"byteLength":192,"target":34962,"byteStride":12},{"buffer":0,"byteOffset":78148,"byteLength":192,"target":34962,"byteStride":12},{"buffer":0,"byteOffset":78340,"byteLength":128,"target":34962,"byteStride":8},{"buffer":0,"byteOffset":78468,"byteLength":48,"target":34963},{"buffer":0,"byteOffset":78516,"byteLength":192,"target":34962,"byteStride":12},{"buffer":0,"byteOffset":78708,"byteLength":192,"target":34962,"byteStride":12},{"buffer":0,"byteOffset":78900,"byteLength":128,"target":34962,"byteStride":8},{"buffer":0,"byteOffset":79028,"byteLength":48,"target":34963},{"buffer":0,"byteOffset":79076,"byteLength":672,"target":34962,"byteStride":12},{"buffer":0,"byteOffset":79748,"byteLength":672,"target":34962,"byteStride":12},{"buffer":0,"byteOffset":80420,"byteLength":448,"target":34962,"byteStride":8},{"buffer":0,"byteOffset":80868,"byteLength":168,"target":34963}],"buffers":[{"byteLength":81036,"uri":"data:application/octet-stream;base64,"}],"accessors":[{"bufferView":0,"componentType":5126,"count":68,"max":[0.75,1.125,1],"min":[-0.75,0.3125,-1],"type":"VEC3"},{"bufferView":1,"componentType":5126,"count":68,"max":[1,1,1],"min":[-1,-1,-1],"type":"VEC3"},{"bufferView":2,"componentType":5126,"count":68,"max":[1,1],"min":[0,0],"type":"VEC2"},{"bufferView":3,"componentType":5123,"count":102,"max":[67],"min":[0],"type":"SCALAR"},{"bufferView":4,"componentType":5126,"count":80,"max":[0.75,1.25,1.125],"min":[-0.75,0.4375,0.875],"type":"VEC3"},{"bufferView":5,"componentType":5126,"count":80,"max":[1,1,1],"min":[-1,-1,-1],"type":"VEC3"},{"bufferView":6,"componentType":5126,"count":80,"max":[0.75,0.40625],"min":[0,0],"type":"VEC2"},{"bufferView":7,"componentType":5123,"count":120,"max":[79],"min":[0],"type":"SCALAR"},{"bufferView":8,"componentType":5126,"count":20,"max":[-0.375,1.0625,1.140625],"min":[-0.4375,0.6875,1.125],"type":"VEC3"},{"bufferView":9,"componentType":5126,"count":20,"max":[1,1,1],"min":[-1,-1,0],"type":"VEC3"},{"bufferView":10,"componentType":5126,"count":20,"max":[0.03125,0.1875],"min":[0,0],"type":"VEC2"},{"bufferView":11,"componentType":5123,"count":30,"max":[19],"min":[0],"type":"SCALAR"},{"bufferView":12,"componentType":5126,"count":20,"max":[-0.125,1.0625,1.140625],"min":[-0.1875,0.6875,1.125],"type":"VEC3"},{"bufferView":13,"componentType":5126,"count":20,"max":[1,1,1],"min":[-1,-1,0],"type":"VEC3"},{"bufferView":14,"componentType":5126,"count":20,"max":[0.03125,0.1875],"min":[0,0],"type":"VEC2"},{"bufferView":15,"componentType":5123,"count":30,"max":[19],"min":[0],"type":"SCALAR"},{"bufferView":16,"componentType":5126,"count":20,"max":[0.125,1.0625,1.140625],"min":[0.0625,0.6875,1.125],"type":"VEC3"},{"bufferView":17,"componentType":5126,"count":20,"max":[1,1,1],"min":[-1,-1,0],"type":"VEC3"},{"bufferView":18,"componentType":5126,"count":20,"max":[0.03125,0.1875],"min":[0,0],"type":"VEC2"},{"bufferView":19,"componentType":5123,"count":30,"max":[19],"min":[0],"type":"SCALAR"},{"bufferView":20,"componentType":5126,"count":20,"max":[0.375,1.0625,1.140625],"min":[0.3125,0.6875,1.125],"type":"VEC3"},{"bufferView":21,"componentType":5126,"count":20,"max":[1,1,1],"min":[-1,-1,0],"type":"VEC3"},{"bufferView":22,"componentType":5126,"count":20,"max":[0.03125,0.1875],"min":[0,0],"type":"VEC2"},{"bufferView":23,"componentType":5123,"count":30,"max":[19],"min":[0],"type":"SCALAR"},{"bufferView":24,"componentType":5126,"count":20,"max":[0.3125,1.3125,0.5],"min":[-0.3125,1.125,0],"type":"VEC3"},{"bufferView":25,"componentType":5126,"count":20,"max":[1,1,1],"min":[-1,0,-1],"type":"VEC3"},{"bufferView":26,"componentType":5126,"count":20,"max":[0.3125,0.1875],"min":[0,0],"type":"VEC2"},{"bufferView":27,"componentType":5123,"count":30,"max":[19],"min":[0],"type":"SCALAR"},{"bufferView":28,"componentType":5126,"count":20,"max":[0.3125,1.8125,0.5],"min":[-0.3125,1.3125,0.375],"type":"VEC3"},{"bufferView":29,"componentType":5126,"count":20,"max":[1,1,1],"min":[-1,0,-1],"type":"VEC3"},{"bufferView":30,"componentType":5126,"count":20,"max":[0.3125,0.25],"min":[0,0],"type":"VEC2"},{"bufferView":31,"componentType":5123,"count":30,"max":[19],"min":[0],"type":"SCALAR"},{"bufferView":32,"componentType":5126,"count":44,"max":[-0.4375,2.625,-1.0625],"min":[-0.5625,0,-1.25],"type":"VEC3"},{"bufferView":33,"componentType":5126,"count":44,"max":[1,1,1],"min":[-1,-1,-1],"type":"VEC3"},{"bufferView":34,"componentType":5126,"count":44,"max":[0.09375,1.3125],"min":[0,0],"type":"VEC2"},{"bufferView":35,"componentType":5123,"count":66,"max":[43],"min":[0],"type":"SCALAR"},{"bufferView":36,"componentType":5126,"count":44,"max":[0.5625,2.625,-1.0625],"min":[0.4375,0,-1.25],"type":"VEC3"},{"bufferView":37,"componentType":5126,"count":44,"max":[1,1,1],"min":[-1,-1,-1],"type":"VEC3"},{"bufferView":38,"componentType":5126,"count":44,"max":[0.09375,1.3125],"min":[0,0],"type":"VEC2"},{"bufferView":39,"componentType":5123,"count":66,"max":[43],"min":[0],"type":"SCALAR"},{"bufferView":40,"componentType":5126,"count":20,"max":[-0.4375,0.1875,-1.1875],"min":[-0.5625,0.0625,-2.75],"type":"VEC3"},{"bufferView":41,"componentType":5126,"count":20,"max":[1,1,0],"min":[-1,-1,-1],"type":"VEC3"},{"bufferView":42,"componentType":5126,"count":20,"max":[0.78125,0.75],"min":[0,0],"type":"VEC2"},{"bufferView":43,"componentType":5123,"count":30,"max":[19],"min":[0],"type":"SCALAR"},{"bufferView":44,"componentType":5126,"count":20,"max":[0.5625,0.1875,-1.1875],"min":[0.4375,0.0625,-2.75],"type":"VEC3"},{"bufferView":45,"componentType":5126,"count":20,"max":[1,1,0],"min":[-1,-1,-1],"type":"VEC3"},{"bufferView":46,"componentType":5126,"count":20,"max":[0.78125,0.75],"min":[0,0],"type":"VEC2"},{"bufferView":47,"componentType":5123,"count":30,"max":[19],"min":[0],"type":"SCALAR"},{"bufferView":48,"componentType":5126,"count":24,"max":[-0.90625,0.512499988079071,-0.4124999940395355],"min":[-0.9312499761581421,0.4625000059604645,-0.4625000059604645],"type":"VEC3"},{"bufferView":49,"componentType":5126,"count":24,"max":[1,1,1],"min":[-1,-1,-1],"type":"VEC3"},{"bufferView":50,"componentType":5126,"count":24,"max":[0.02500000037252903,0.02499997615814209],"min":[0,0],"type":"VEC2"},{"bufferView":51,"componentType":5123,"count":36,"max":[23],"min":[0],"type":"SCALAR"},{"bufferView":52,"componentType":5126,"count":24,"max":[-0.90625,0.4000000059604645,-0.30000001192092896],"min":[-0.9312499761581421,0.3499999940395355,-0.3499999940395355],"type":"VEC3"},{"bufferView":53,"componentType":5126,"count":24,"max":[1,1,1],"min":[-1,-1,-1],"type":"VEC3"},{"bufferView":54,"componentType":5126,"count":24,"max":[0.02500000037252903,0.02499997615814209],"min":[0,0],"type":"VEC2"},{"bufferView":55,"componentType":5123,"count":36,"max":[23],"min":[0],"type":"SCALAR"},{"bufferView":56,"componentType":5126,"count":24,"max":[-0.90625,0.2874999940395355,-0.4124999940395355],"min":[-0.9312499761581421,0.23749999701976776,-0.4625000059604645],"type":"VEC3"},{"bufferView":57,"componentType":5126,"count":24,"max":[1,1,1],"min":[-1,-1,-1],"type":"VEC3"},{"bufferView":58,"componentType":5126,"count":24,"max":[0.02500000037252903,0.02499997615814209],"min":[0,0],"type":"VEC2"},{"bufferView":59,"componentType":5123,"count":36,"max":[23],"min":[0],"type":"SCALAR"},{"bufferView":60,"componentType":5126,"count":24,"max":[-0.90625,0.4000000059604645,-0.5249999761581421],"min":[-0.9312499761581421,0.3499999940395355,-0.574999988079071],"type":"VEC3"},{"bufferView":61,"componentType":5126,"count":24,"max":[1,1,1],"min":[-1,-1,-1],"type":"VEC3"},{"bufferView":62,"componentType":5126,"count":24,"max":[0.02500000037252903,0.02499997615814209],"min":[0,0],"type":"VEC2"},{"bufferView":63,"componentType":5123,"count":36,"max":[23],"min":[0],"type":"SCALAR"},{"bufferView":64,"componentType":5126,"count":120,"max":[-0.625,0.75,-0.0625],"min":[-0.875,0,-0.8125],"type":"VEC3"},{"bufferView":65,"componentType":5126,"count":120,"max":[1,0.9659258127212524,0.9659258127212524],"min":[-1,-0.9659258127212524,-0.9659258127212524],"type":"VEC3"},{"bufferView":66,"componentType":5126,"count":120,"max":[0.375,0.375],"min":[0,0],"type":"VEC2"},{"bufferView":67,"componentType":5123,"count":144,"max":[119],"min":[0],"type":"SCALAR"},{"bufferView":68,"componentType":5126,"count":120,"max":[-0.870312511920929,0.5699999928474426,-0.24250000715255737],"min":[-0.8921874761581421,0.18000000715255737,-0.6324999928474426],"type":"VEC3"},{"bufferView":69,"componentType":5126,"count":120,"max":[1,0.9659258127212524,0.9659258127212524],"min":[-1,-0.9659258127212524,-0.9659258127212524],"type":"VEC3"},{"bufferView":70,"componentType":5126,"count":120,"max":[0.19499999284744263,0.19499999284744263],"min":[0,0],"type":"VEC2"},{"bufferView":71,"componentType":5123,"count":144,"max":[119],"min":[0],"type":"SCALAR"},{"bufferView":72,"componentType":5126,"count":120,"max":[-0.8828125,0.45375001430511475,-0.35874998569488525],"min":[-0.910937488079071,0.29624998569488525,-0.5162500143051147],"type":"VEC3"},{"bufferView":73,"componentType":5126,"count":120,"max":[1,0.9659258127212524,0.9659258127212524],"min":[-1,-0.9659258127212524,-0.9659258127212524],"type":"VEC3"},{"bufferView":74,"componentType":5126,"count":120,"max":[0.07874999940395355,0.07875001430511475],"min":[0,0],"type":"VEC2"},{"bufferView":75,"componentType":5123,"count":144,"max":[119],"min":[0],"type":"SCALAR"},{"bufferView":76,"componentType":5126,"count":24,"max":[-0.90625,0.512499988079071,0.8374999761581421],"min":[-0.9312499761581421,0.4625000059604645,0.7875000238418579],"type":"VEC3"},{"bufferView":77,"componentType":5126,"count":24,"max":[1,1,1],"min":[-1,-1,-1],"type":"VEC3"},{"bufferView":78,"componentType":5126,"count":24,"max":[0.02500000037252903,0.02499997615814209],"min":[0,0],"type":"VEC2"},{"bufferView":79,"componentType":5123,"count":36,"max":[23],"min":[0],"type":"SCALAR"},{"bufferView":80,"componentType":5126,"count":24,"max":[-0.90625,0.4000000059604645,0.949999988079071],"min":[-0.9312499761581421,0.3499999940395355,0.8999999761581421],"type":"VEC3"},{"bufferView":81,"componentType":5126,"count":24,"max":[1,1,1],"min":[-1,-1,-1],"type":"VEC3"},{"bufferView":82,"componentType":5126,"count":24,"max":[0.02500000037252903,0.02499997615814209],"min":[0,0],"type":"VEC2"},{"bufferView":83,"componentType":5123,"count":36,"max":[23],"min":[0],"type":"SCALAR"},{"bufferView":84,"componentType":5126,"count":24,"max":[-0.90625,0.2874999940395355,0.8374999761581421],"min":[-0.9312499761581421,0.23749999701976776,0.7875000238418579],"type":"VEC3"},{"bufferView":85,"componentType":5126,"count":24,"max":[1,1,1],"min":[-1,-1,-1],"type":"VEC3"},{"bufferView":86,"componentType":5126,"count":24,"max":[0.02500000037252903,0.02499997615814209],"min":[0,0],"type":"VEC2"},{"bufferView":87,"componentType":5123,"count":36,"max":[23],"min":[0],"type":"SCALAR"},{"bufferView":88,"componentType":5126,"count":24,"max":[-0.90625,0.4000000059604645,0.7250000238418579],"min":[-0.9312499761581421,0.3499999940395355,0.675000011920929],"type":"VEC3"},{"bufferView":89,"componentType":5126,"count":24,"max":[1,1,1],"min":[-1,-1,-1],"type":"VEC3"},{"bufferView":90,"componentType":5126,"count":24,"max":[0.02500000037252903,0.02499997615814209],"min":[0,0],"type":"VEC2"},{"bufferView":91,"componentType":5123,"count":36,"max":[23],"min":[0],"type":"SCALAR"},{"bufferView":92,"componentType":5126,"count":120,"max":[-0.625,0.75,1.1875],"min":[-0.875,0,0.4375],"type":"VEC3"},{"bufferView":93,"componentType":5126,"count":120,"max":[1,0.9659258127212524,0.9659258127212524],"min":[-1,-0.9659258127212524,-0.9659258127212524],"type":"VEC3"},{"bufferView":94,"componentType":5126,"count":120,"max":[0.375,0.375],"min":[0,0],"type":"VEC2"},{"bufferView":95,"componentType":5123,"count":144,"max":[119],"min":[0],"type":"SCALAR"},{"bufferView":96,"componentType":5126,"count":120,"max":[-0.870312511920929,0.5699999928474426,1.0075000524520874],"min":[-0.8921874761581421,0.18000000715255737,0.6175000071525574],"type":"VEC3"},{"bufferView":97,"componentType":5126,"count":120,"max":[1,0.9659258127212524,0.9659258127212524],"min":[-1,-0.9659258127212524,-0.9659258127212524],"type":"VEC3"},{"bufferView":98,"componentType":5126,"count":120,"max":[0.19499999284744263,0.19499999284744263],"min":[0,0],"type":"VEC2"},{"bufferView":99,"componentType":5123,"count":144,"max":[119],"min":[0],"type":"SCALAR"},{"bufferView":100,"componentType":5126,"count":120,"max":[-0.8828125,0.45375001430511475,0.8912500143051147],"min":[-0.910937488079071,0.29624998569488525,0.7337499856948853],"type":"VEC3"},{"bufferView":101,"componentType":5126,"count":120,"max":[1,0.9659258127212524,0.9659258127212524],"min":[-1,-0.9659258127212524,-0.9659258127212524],"type":"VEC3"},{"bufferView":102,"componentType":5126,"count":120,"max":[0.07874999940395355,0.07875001430511475],"min":[0,0],"type":"VEC2"},{"bufferView":103,"componentType":5123,"count":144,"max":[119],"min":[0],"type":"SCALAR"},{"bufferView":104,"componentType":5126,"count":24,"max":[0.9312499761581421,0.512499988079071,-0.4124999940395355],"min":[0.90625,0.4625000059604645,-0.4625000059604645],"type":"VEC3"},{"bufferView":105,"componentType":5126,"count":24,"max":[1,1,1],"min":[-1,-1,-1],"type":"VEC3"},{"bufferView":106,"componentType":5126,"count":24,"max":[0.02500000037252903,0.02499997615814209],"min":[0,0],"type":"VEC2"},{"bufferView":107,"componentType":5123,"count":36,"max":[23],"min":[0],"type":"SCALAR"},{"bufferView":108,"componentType":5126,"count":24,"max":[0.9312499761581421,0.4000000059604645,-0.30000001192092896],"min":[0.90625,0.3499999940395355,-0.3499999940395355],"type":"VEC3"},{"bufferView":109,"componentType":5126,"count":24,"max":[1,1,1],"min":[-1,-1,-1],"type":"VEC3"},{"bufferView":110,"componentType":5126,"count":24,"max":[0.02500000037252903,0.02499997615814209],"min":[0,0],"type":"VEC2"},{"bufferView":111,"componentType":5123,"count":36,"max":[23],"min":[0],"type":"SCALAR"},{"bufferView":112,"componentType":5126,"count":24,"max":[0.9312499761581421,0.2874999940395355,-0.4124999940395355],"min":[0.90625,0.23749999701976776,-0.4625000059604645],"type":"VEC3"},{"bufferView":113,"componentType":5126,"count":24,"max":[1,1,1],"min":[-1,-1,-1],"type":"VEC3"},{"bufferView":114,"componentType":5126,"count":24,"max":[0.02500000037252903,0.02499997615814209],"min":[0,0],"type":"VEC2"},{"bufferView":115,"componentType":5123,"count":36,"max":[23],"min":[0],"type":"SCALAR"},{"bufferView":116,"componentType":5126,"count":24,"max":[0.9312499761581421,0.4000000059604645,-0.5249999761581421],"min":[0.90625,0.3499999940395355,-0.574999988079071],"type":"VEC3"},{"bufferView":117,"componentType":5126,"count":24,"max":[1,1,1],"min":[-1,-1,-1],"type":"VEC3"},{"bufferView":118,"componentType":5126,"count":24,"max":[0.02500000037252903,0.02499997615814209],"min":[0,0],"type":"VEC2"},{"bufferView":119,"componentType":5123,"count":36,"max":[23],"min":[0],"type":"SCALAR"},{"bufferView":120,"componentType":5126,"count":120,"max":[0.875,0.75,-0.0625],"min":[0.625,0,-0.8125],"type":"VEC3"},{"bufferView":121,"componentType":5126,"count":120,"max":[1,0.9659258127212524,0.9659258127212524],"min":[-1,-0.9659258127212524,-0.9659258127212524],"type":"VEC3"},{"bufferView":122,"componentType":5126,"count":120,"max":[0.375,0.375],"min":[0,0],"type":"VEC2"},{"bufferView":123,"componentType":5123,"count":144,"max":[119],"min":[0],"type":"SCALAR"},{"bufferView":124,"componentType":5126,"count":120,"max":[0.8921874761581421,0.5699999928474426,-0.24250000715255737],"min":[0.870312511920929,0.18000000715255737,-0.6324999928474426],"type":"VEC3"},{"bufferView":125,"componentType":5126,"count":120,"max":[1,0.9659258127212524,0.9659258127212524],"min":[-1,-0.9659258127212524,-0.9659258127212524],"type":"VEC3"},{"bufferView":126,"componentType":5126,"count":120,"max":[0.19499999284744263,0.19499999284744263],"min":[0,0],"type":"VEC2"},{"bufferView":127,"componentType":5123,"count":144,"max":[119],"min":[0],"type":"SCALAR"},{"bufferView":128,"componentType":5126,"count":120,"max":[0.910937488079071,0.45375001430511475,-0.35874998569488525],"min":[0.8828125,0.29624998569488525,-0.5162500143051147],"type":"VEC3"},{"bufferView":129,"componentType":5126,"count":120,"max":[1,0.9659258127212524,0.9659258127212524],"min":[-1,-0.9659258127212524,-0.9659258127212524],"type":"VEC3"},{"bufferView":130,"componentType":5126,"count":120,"max":[0.07874999940395355,0.07875001430511475],"min":[0,0],"type":"VEC2"},{"bufferView":131,"componentType":5123,"count":144,"max":[119],"min":[0],"type":"SCALAR"},{"bufferView":132,"componentType":5126,"count":24,"max":[0.9312499761581421,0.512499988079071,0.8374999761581421],"min":[0.90625,0.4625000059604645,0.7875000238418579],"type":"VEC3"},{"bufferView":133,"componentType":5126,"count":24,"max":[1,1,1],"min":[-1,-1,-1],"type":"VEC3"},{"bufferView":134,"componentType":5126,"count":24,"max":[0.02500000037252903,0.02499997615814209],"min":[0,0],"type":"VEC2"},{"bufferView":135,"componentType":5123,"count":36,"max":[23],"min":[0],"type":"SCALAR"},{"bufferView":136,"componentType":5126,"count":24,"max":[0.9312499761581421,0.4000000059604645,0.949999988079071],"min":[0.90625,0.3499999940395355,0.8999999761581421],"type":"VEC3"},{"bufferView":137,"componentType":5126,"count":24,"max":[1,1,1],"min":[-1,-1,-1],"type":"VEC3"},{"bufferView":138,"componentType":5126,"count":24,"max":[0.02500000037252903,0.02499997615814209],"min":[0,0],"type":"VEC2"},{"bufferView":139,"componentType":5123,"count":36,"max":[23],"min":[0],"type":"SCALAR"},{"bufferView":140,"componentType":5126,"count":24,"max":[0.9312499761581421,0.2874999940395355,0.8374999761581421],"min":[0.90625,0.23749999701976776,0.7875000238418579],"type":"VEC3"},{"bufferView":141,"componentType":5126,"count":24,"max":[1,1,1],"min":[-1,-1,-1],"type":"VEC3"},{"bufferView":142,"componentType":5126,"count":24,"max":[0.02500000037252903,0.02499997615814209],"min":[0,0],"type":"VEC2"},{"bufferView":143,"componentType":5123,"count":36,"max":[23],"min":[0],"type":"SCALAR"},{"bufferView":144,"componentType":5126,"count":24,"max":[0.9312499761581421,0.4000000059604645,0.7250000238418579],"min":[0.90625,0.3499999940395355,0.675000011920929],"type":"VEC3"},{"bufferView":145,"componentType":5126,"count":24,"max":[1,1,1],"min":[-1,-1,-1],"type":"VEC3"},{"bufferView":146,"componentType":5126,"count":24,"max":[0.02500000037252903,0.02499997615814209],"min":[0,0],"type":"VEC2"},{"bufferView":147,"componentType":5123,"count":36,"max":[23],"min":[0],"type":"SCALAR"},{"bufferView":148,"componentType":5126,"count":120,"max":[0.875,0.75,1.1875],"min":[0.625,0,0.4375],"type":"VEC3"},{"bufferView":149,"componentType":5126,"count":120,"max":[1,0.9659258127212524,0.9659258127212524],"min":[-1,-0.9659258127212524,-0.9659258127212524],"type":"VEC3"},{"bufferView":150,"componentType":5126,"count":120,"max":[0.375,0.375],"min":[0,0],"type":"VEC2"},{"bufferView":151,"componentType":5123,"count":144,"max":[119],"min":[0],"type":"SCALAR"},{"bufferView":152,"componentType":5126,"count":120,"max":[0.8921874761581421,0.5699999928474426,1.0075000524520874],"min":[0.870312511920929,0.18000000715255737,0.6175000071525574],"type":"VEC3"},{"bufferView":153,"componentType":5126,"count":120,"max":[1,0.9659258127212524,0.9659258127212524],"min":[-1,-0.9659258127212524,-0.9659258127212524],"type":"VEC3"},{"bufferView":154,"componentType":5126,"count":120,"max":[0.19499999284744263,0.19499999284744263],"min":[0,0],"type":"VEC2"},{"bufferView":155,"componentType":5123,"count":144,"max":[119],"min":[0],"type":"SCALAR"},{"bufferView":156,"componentType":5126,"count":120,"max":[0.910937488079071,0.45375001430511475,0.8912500143051147],"min":[0.8828125,0.29624998569488525,0.7337499856948853],"type":"VEC3"},{"bufferView":157,"componentType":5126,"count":120,"max":[1,0.9659258127212524,0.9659258127212524],"min":[-1,-0.9659258127212524,-0.9659258127212524],"type":"VEC3"},{"bufferView":158,"componentType":5126,"count":120,"max":[0.07874999940395355,0.07875001430511475],"min":[0,0],"type":"VEC2"},{"bufferView":159,"componentType":5123,"count":144,"max":[119],"min":[0],"type":"SCALAR"},{"bufferView":160,"componentType":5126,"count":16,"max":[-0.5625,2.5,-0.375],"min":[-0.6875,1.125,-0.5],"type":"VEC3"},{"bufferView":161,"componentType":5126,"count":16,"max":[1,0,1],"min":[-1,0,-1],"type":"VEC3"},{"bufferView":162,"componentType":5126,"count":16,"max":[0.0625,0.6875],"min":[0,0],"type":"VEC2"},{"bufferView":163,"componentType":5123,"count":24,"max":[15],"min":[0],"type":"SCALAR"},{"bufferView":164,"componentType":5126,"count":16,"max":[-0.5625,2.5,0.875],"min":[-0.6875,1.125,0.75],"type":"VEC3"},{"bufferView":165,"componentType":5126,"count":16,"max":[1,0,1],"min":[-1,0,-1],"type":"VEC3"},{"bufferView":166,"componentType":5126,"count":16,"max":[0.0625,0.6875],"min":[0,0],"type":"VEC2"},{"bufferView":167,"componentType":5123,"count":24,"max":[15],"min":[0],"type":"SCALAR"},{"bufferView":168,"componentType":5126,"count":16,"max":[0.6875,2.5,-0.375],"min":[0.5625,1.125,-0.5],"type":"VEC3"},{"bufferView":169,"componentType":5126,"count":16,"max":[1,0,1],"min":[-1,0,-1],"type":"VEC3"},{"bufferView":170,"componentType":5126,"count":16,"max":[0.0625,0.6875],"min":[0,0],"type":"VEC2"},{"bufferView":171,"componentType":5123,"count":24,"max":[15],"min":[0],"type":"SCALAR"},{"bufferView":172,"componentType":5126,"count":16,"max":[0.6875,2.5,0.875],"min":[0.5625,1.125,0.75],"type":"VEC3"},{"bufferView":173,"componentType":5126,"count":16,"max":[1,0,1],"min":[-1,0,-1],"type":"VEC3"},{"bufferView":174,"componentType":5126,"count":16,"max":[0.0625,0.6875],"min":[0,0],"type":"VEC2"},{"bufferView":175,"componentType":5123,"count":24,"max":[15],"min":[0],"type":"SCALAR"},{"bufferView":176,"componentType":5126,"count":56,"max":[0.75,2.625,1],"min":[-0.75,2.5,-0.5625],"type":"VEC3"},{"bufferView":177,"componentType":5126,"count":56,"max":[1,1,1],"min":[-1,-1,-1],"type":"VEC3"},{"bufferView":178,"componentType":5126,"count":56,"max":[0.78125,0.78125],"min":[0,0],"type":"VEC2"},{"bufferView":179,"componentType":5123,"count":84,"max":[55],"min":[0],"type":"SCALAR"}],"materials":[{"pbrMetallicRoughness":{"metallicFactor":0,"roughnessFactor":1,"baseColorTexture":{"index":0}},"alphaMode":"MASK","alphaCutoff":0.05,"doubleSided":true},{"pbrMetallicRoughness":{"metallicFactor":0,"roughnessFactor":1,"baseColorTexture":{"index":1}},"alphaMode":"MASK","alphaCutoff":0.05,"doubleSided":true},{"pbrMetallicRoughness":{"metallicFactor":0,"roughnessFactor":1,"baseColorTexture":{"index":2}},"alphaMode":"MASK","alphaCutoff":0.05,"doubleSided":true},{"pbrMetallicRoughness":{"metallicFactor":0,"roughnessFactor":1,"baseColorTexture":{"index":3}},"alphaMode":"MASK","alphaCutoff":0.05,"doubleSided":true}],"textures":[{"sampler":0,"source":0,"name":"vehicle_ochre.png"},{"sampler":1,"source":1,"name":"vehicle_trim.png"},{"sampler":2,"source":2,"name":"vehicle_metal.png"},{"sampler":3,"source":3,"name":"vehicle_olive.png"}],"samplers":[{"magFilter":9728,"minFilter":9728,"wrapS":10497,"wrapT":10497},{"magFilter":9728,"minFilter":9728,"wrapS":10497,"wrapT":10497},{"magFilter":9728,"minFilter":9728,"wrapS":10497,"wrapT":10497},{"magFilter":9728,"minFilter":9728,"wrapS":10497,"wrapT":10497}],"images":[{"mimeType":"image/png","uri":"../textures/vehicle_ochre.png","name":"vehicle_ochre"},{"mimeType":"image/png","uri":"../textures/vehicle_trim.png","name":"vehicle_trim"},{"mimeType":"image/png","uri":"../textures/vehicle_metal.png","name":"vehicle_metal"},{"mimeType":"image/png","uri":"../textures/vehicle_olive.png","name":"vehicle_olive"}],"meshes":[{"primitives":[{"mode":4,"attributes":{"POSITION":0,"NORMAL":1,"TEXCOORD_0":2},"indices":3,"material":0}]},{"primitives":[{"mode":4,"attributes":{"POSITION":4,"NORMAL":5,"TEXCOORD_0":6},"indices":7,"material":0}]},{"primitives":[{"mode":4,"attributes":{"POSITION":8,"NORMAL":9,"TEXCOORD_0":10},"indices":11,"material":1}]},{"primitives":[{"mode":4,"attributes":{"POSITION":12,"NORMAL":13,"TEXCOORD_0":14},"indices":15,"material":1}]},{"primitives":[{"mode":4,"attributes":{"POSITION":16,"NORMAL":17,"TEXCOORD_0":18},"indices":19,"material":1}]},{"primitives":[{"mode":4,"attributes":{"POSITION":20,"NORMAL":21,"TEXCOORD_0":22},"indices":23,"material":1}]},{"primitives":[{"mode":4,"attributes":{"POSITION":24,"NORMAL":25,"TEXCOORD_0":26},"indices":27,"material":1}]},{"primitives":[{"mode":4,"attributes":{"POSITION":28,"NORMAL":29,"TEXCOORD_0":30},"indices":31,"material":1}]},{"primitives":[{"mode":4,"attributes":{"POSITION":32,"NORMAL":33,"TEXCOORD_0":34},"indices":35,"material":2}]},{"primitives":[{"mode":4,"attributes":{"POSITION":36,"NORMAL":37,"TEXCOORD_0":38},"indices":39,"material":2}]},{"primitives":[{"mode":4,"attributes":{"POSITION":40,"NORMAL":41,"TEXCOORD_0":42},"indices":43,"material":2}]},{"primitives":[{"mode":4,"attributes":{"POSITION":44,"NORMAL":45,"TEXCOORD_0":46},"indices":47,"material":2}]},{"primitives":[{"mode":4,"attributes":{"POSITION":48,"NORMAL":49,"TEXCOORD_0":50},"indices":51,"material":2}]},{"primitives":[{"mode":4,"attributes":{"POSITION":52,"NORMAL":53,"TEXCOORD_0":54},"indices":55,"material":2}]},{"primitives":[{"mode":4,"attributes":{"POSITION":56,"NORMAL":57,"TEXCOORD_0":58},"indices":59,"material":2}]},{"primitives":[{"mode":4,"attributes":{"POSITION":60,"NORMAL":61,"TEXCOORD_0":62},"indices":63,"material":2}]},{"primitives":[{"mode":4,"attributes":{"POSITION":64,"NORMAL":65,"TEXCOORD_0":66},"indices":67,"material":1}]},{"primitives":[{"mode":4,"attributes":{"POSITION":68,"NORMAL":69,"TEXCOORD_0":70},"indices":71,"material":2}]},{"primitives":[{"mode":4,"attributes":{"POSITION":72,"NORMAL":73,"TEXCOORD_0":74},"indices":75,"material":1}]},{"primitives":[{"mode":4,"attributes":{"POSITION":76,"NORMAL":77,"TEXCOORD_0":78},"indices":79,"material":2}]},{"primitives":[{"mode":4,"attributes":{"POSITION":80,"NORMAL":81,"TEXCOORD_0":82},"indices":83,"material":2}]},{"primitives":[{"mode":4,"attributes":{"POSITION":84,"NORMAL":85,"TEXCOORD_0":86},"indices":87,"material":2}]},{"primitives":[{"mode":4,"attributes":{"POSITION":88,"NORMAL":89,"TEXCOORD_0":90},"indices":91,"material":2}]},{"primitives":[{"mode":4,"attributes":{"POSITION":92,"NORMAL":93,"TEXCOORD_0":94},"indices":95,"material":1}]},{"primitives":[{"mode":4,"attributes":{"POSITION":96,"NORMAL":97,"TEXCOORD_0":98},"indices":99,"material":2}]},{"primitives":[{"mode":4,"attributes":{"POSITION":100,"NORMAL":101,"TEXCOORD_0":102},"indices":103,"material":1}]},{"primitives":[{"mode":4,"attributes":{"POSITION":104,"NORMAL":105,"TEXCOORD_0":106},"indices":107,"material":2}]},{"primitives":[{"mode":4,"attributes":{"POSITION":108,"NORMAL":109,"TEXCOORD_0":110},"indices":111,"material":2}]},{"primitives":[{"mode":4,"attributes":{"POSITION":112,"NORMAL":113,"TEXCOORD_0":114},"indices":115,"material":2}]},{"primitives":[{"mode":4,"attributes":{"POSITION":116,"NORMAL":117,"TEXCOORD_0":118},"indices":119,"material":2}]},{"primitives":[{"mode":4,"attributes":{"POSITION":120,"NORMAL":121,"TEXCOORD_0":122},"indices":123,"material":1}]},{"primitives":[{"mode":4,"attributes":{"POSITION":124,"NORMAL":125,"TEXCOORD_0":126},"indices":127,"material":2}]},{"primitives":[{"mode":4,"attributes":{"POSITION":128,"NORMAL":129,"TEXCOORD_0":130},"indices":131,"material":1}]},{"primitives":[{"mode":4,"attributes":{"POSITION":132,"NORMAL":133,"TEXCOORD_0":134},"indices":135,"material":2}]},{"primitives":[{"mode":4,"attributes":{"POSITION":136,"NORMAL":137,"TEXCOORD_0":138},"indices":139,"material":2}]},{"primitives":[{"mode":4,"attributes":{"POSITION":140,"NORMAL":141,"TEXCOORD_0":142},"indices":143,"material":2}]},{"primitives":[{"mode":4,"attributes":{"POSITION":144,"NORMAL":145,"TEXCOORD_0":146},"indices":147,"material":2}]},{"primitives":[{"mode":4,"attributes":{"POSITION":148,"NORMAL":149,"TEXCOORD_0":150},"indices":151,"material":1}]},{"primitives":[{"mode":4,"attributes":{"POSITION":152,"NORMAL":153,"TEXCOORD_0":154},"indices":155,"material":2}]},{"primitives":[{"mode":4,"attributes":{"POSITION":156,"NORMAL":157,"TEXCOORD_0":158},"indices":159,"material":1}]},{"primitives":[{"mode":4,"attributes":{"POSITION":160,"NORMAL":161,"TEXCOORD_0":162},"indices":163,"material":3}]},{"primitives":[{"mode":4,"attributes":{"POSITION":164,"NORMAL":165,"TEXCOORD_0":166},"indices":167,"material":3}]},{"primitives":[{"mode":4,"attributes":{"POSITION":168,"NORMAL":169,"TEXCOORD_0":170},"indices":171,"material":3}]},{"primitives":[{"mode":4,"attributes":{"POSITION":172,"NORMAL":173,"TEXCOORD_0":174},"indices":175,"material":3}]},{"primitives":[{"mode":4,"attributes":{"POSITION":176,"NORMAL":177,"TEXCOORD_0":178},"indices":179,"material":3}]}]}