{"asset":{"version":"2.0","generator":"Blockbench 5.1.6 glTF exporter"},"scenes":[{"nodes":[2,4,6],"name":"blockbench_export"}],"scene":0,"nodes":[{"name":"post","mesh":0},{"name":"post","mesh":1},{"name":"post","children":[0,1]},{"name":"roof","mesh":2},{"name":"roof","children":[3]},{"name":"trim","mesh":3},{"name":"trim","children":[5]}],"bufferViews":[{"buffer":0,"byteOffset":0,"byteLength":240,"target":34962,"byteStride":12},{"buffer":0,"byteOffset":240,"byteLength":240,"target":34962,"byteStride":12},{"buffer":0,"byteOffset":480,"byteLength":160,"target":34962,"byteStride":8},{"buffer":0,"byteOffset":640,"byteLength":60,"target":34963},{"buffer":0,"byteOffset":700,"byteLength":240,"target":34962,"byteStride":12},{"buffer":0,"byteOffset":940,"byteLength":240,"target":34962,"byteStride":12},{"buffer":0,"byteOffset":1180,"byteLength":160,"target":34962,"byteStride":8},{"buffer":0,"byteOffset":1340,"byteLength":60,"target":34963},{"buffer":0,"byteOffset":1400,"byteLength":576,"target":34962,"byteStride":12},{"buffer":0,"byteOffset":1976,"byteLength":576,"target":34962,"byteStride":12},{"buffer":0,"byteOffset":2552,"byteLength":384,"target":34962,"byteStride":8},{"buffer":0,"byteOffset":2936,"byteLength":144,"target":34963},{"buffer":0,"byteOffset":3080,"byteLength":240,"target":34962,"byteStride":12},{"buffer":0,"byteOffset":3320,"byteLength":240,"target":34962,"byteStride":12},{"buffer":0,"byteOffset":3560,"byteLength":160,"target":34962,"byteStride":8},{"buffer":0,"byteOffset":3720,"byteLength":60,"target":34963}],"buffers":[{"byteLength":3780,"uri":"data:application/octet-stream;base64,"}],"accessors":[{"bufferView":0,"componentType":5126,"count":20,"max":[-2.875,3.5,0.0625],"min":[-3,0,-0.0625],"type":"VEC3"},{"bufferView":1,"componentType":5126,"count":20,"max":[1,0,1],"min":[-1,-1,-1],"type":"VEC3"},{"bufferView":2,"componentType":5126,"count":20,"max":[0.0625,1.75],"min":[0,0],"type":"VEC2"},{"bufferView":3,"componentType":5123,"count":30,"max":[19],"min":[0],"type":"SCALAR"},{"bufferView":4,"componentType":5126,"count":20,"max":[3,3.5,0.0625],"min":[2.875,0,-0.0625],"type":"VEC3"},{"bufferView":5,"componentType":5126,"count":20,"max":[1,0,1],"min":[-1,-1,-1],"type":"VEC3"},{"bufferView":6,"componentType":5126,"count":20,"max":[0.0625,1.75],"min":[0,0],"type":"VEC2"},{"bufferView":7,"componentType":5123,"count":30,"max":[19],"min":[0],"type":"SCALAR"},{"bufferView":8,"componentType":5126,"count":48,"max":[4,3.75,2],"min":[-4,3.5,-2],"type":"VEC3"},{"bufferView":9,"componentType":5126,"count":48,"max":[1,1,1],"min":[-1,-1,-1],"type":"VEC3"},{"bufferView":10,"componentType":5126,"count":48,"max":[4,2],"min":[0,0],"type":"VEC2"},{"bufferView":11,"componentType":5123,"count":72,"max":[47],"min":[0],"type":"SCALAR"},{"bufferView":12,"componentType":5126,"count":20,"max":[4,3.6875,-2],"min":[-4,3.5,-2.0625],"type":"VEC3"},{"bufferView":13,"componentType":5126,"count":20,"max":[1,1,0],"min":[-1,-1,-1],"type":"VEC3"},{"bufferView":14,"componentType":5126,"count":20,"max":[4,0.09375],"min":[0,0],"type":"VEC2"},{"bufferView":15,"componentType":5123,"count":30,"max":[19],"min":[0],"type":"SCALAR"}],"materials":[{"pbrMetallicRoughness":{"metallicFactor":0,"roughnessFactor":1,"baseColorTexture":{"index":0}},"alphaMode":"MASK","alphaCutoff":0.05,"doubleSided":true},{"pbrMetallicRoughness":{"metallicFactor":0,"roughnessFactor":1,"baseColorTexture":{"index":1}},"alphaMode":"MASK","alphaCutoff":0.05,"doubleSided":true},{"pbrMetallicRoughness":{"metallicFactor":0,"roughnessFactor":1,"baseColorTexture":{"index":2}},"alphaMode":"MASK","alphaCutoff":0.05,"doubleSided":true}],"textures":[{"sampler":0,"source":0,"name":"metal.png"},{"sampler":1,"source":1,"name":"cream.png"},{"sampler":2,"source":2,"name":"rust.png"}],"samplers":[{"magFilter":9728,"minFilter":9728,"wrapS":10497,"wrapT":10497},{"magFilter":9728,"minFilter":9728,"wrapS":10497,"wrapT":10497},{"magFilter":9728,"minFilter":9728,"wrapS":10497,"wrapT":10497}],"images":[{"mimeType":"image/png","uri":"../textures/metal.png","name":"metal"},{"mimeType":"image/png","uri":"../textures/cream.png","name":"cream"},{"mimeType":"image/png","uri":"../textures/rust.png","name":"rust"}],"meshes":[{"primitives":[{"mode":4,"attributes":{"POSITION":0,"NORMAL":1,"TEXCOORD_0":2},"indices":3,"material":0}]},{"primitives":[{"mode":4,"attributes":{"POSITION":4,"NORMAL":5,"TEXCOORD_0":6},"indices":7,"material":0}]},{"primitives":[{"mode":4,"attributes":{"POSITION":8,"NORMAL":9,"TEXCOORD_0":10},"indices":11,"material":1}]},{"primitives":[{"mode":4,"attributes":{"POSITION":12,"NORMAL":13,"TEXCOORD_0":14},"indices":15,"material":2}]}]}