{"asset":{"version":"2.0","generator":"Blockbench 5.1.6 glTF exporter"},"scenes":[{"nodes":[1,3,5,7,9,11],"name":"blockbench_export"}],"scene":0,"nodes":[{"name":"base","mesh":0},{"name":"base","children":[0]},{"name":"body","mesh":1},{"name":"body","children":[2]},{"name":"stripe","mesh":2},{"name":"stripe","children":[4]},{"name":"display","mesh":3},{"name":"display","children":[6]},{"name":"hose","mesh":4},{"name":"hose","children":[8]},{"name":"nozzle","mesh":5},{"name":"nozzle","children":[10]}],"bufferViews":[{"buffer":0,"byteOffset":0,"byteLength":432,"target":34962,"byteStride":12},{"buffer":0,"byteOffset":432,"byteLength":432,"target":34962,"byteStride":12},{"buffer":0,"byteOffset":864,"byteLength":288,"target":34962,"byteStride":8},{"buffer":0,"byteOffset":1152,"byteLength":108,"target":34963},{"buffer":0,"byteOffset":1260,"byteLength":576,"target":34962,"byteStride":12},{"buffer":0,"byteOffset":1836,"byteLength":576,"target":34962,"byteStride":12},{"buffer":0,"byteOffset":2412,"byteLength":384,"target":34962,"byteStride":8},{"buffer":0,"byteOffset":2796,"byteLength":144,"target":34963},{"buffer":0,"byteOffset":2940,"byteLength":240,"target":34962,"byteStride":12},{"buffer":0,"byteOffset":3180,"byteLength":240,"target":34962,"byteStride":12},{"buffer":0,"byteOffset":3420,"byteLength":160,"target":34962,"byteStride":8},{"buffer":0,"byteOffset":3580,"byteLength":60,"target":34963},{"buffer":0,"byteOffset":3640,"byteLength":240,"target":34962,"byteStride":12},{"buffer":0,"byteOffset":3880,"byteLength":240,"target":34962,"byteStride":12},{"buffer":0,"byteOffset":4120,"byteLength":160,"target":34962,"byteStride":8},{"buffer":0,"byteOffset":4280,"byteLength":60,"target":34963},{"buffer":0,"byteOffset":4340,"byteLength":288,"target":34962,"byteStride":12},{"buffer":0,"byteOffset":4628,"byteLength":288,"target":34962,"byteStride":12},{"buffer":0,"byteOffset":4916,"byteLength":192,"target":34962,"byteStride":8},{"buffer":0,"byteOffset":5108,"byteLength":72,"target":34963},{"buffer":0,"byteOffset":5180,"byteLength":288,"target":34962,"byteStride":12},{"buffer":0,"byteOffset":5468,"byteLength":288,"target":34962,"byteStride":12},{"buffer":0,"byteOffset":5756,"byteLength":192,"target":34962,"byteStride":8},{"buffer":0,"byteOffset":5948,"byteLength":72,"target":34963}],"buffers":[{"byteLength":6020,"uri":"data:application/octet-stream;base64,"}],"accessors":[{"bufferView":0,"componentType":5126,"count":36,"max":[0.625,0.1875,0.4375],"min":[-0.625,0,-0.4375],"type":"VEC3"},{"bufferView":1,"componentType":5126,"count":36,"max":[1,1,1],"min":[-1,-1,-1],"type":"VEC3"},{"bufferView":2,"componentType":5126,"count":36,"max":[0.625,0.4375],"min":[0,0],"type":"VEC2"},{"bufferView":3,"componentType":5123,"count":54,"max":[35],"min":[0],"type":"SCALAR"},{"bufferView":4,"componentType":5126,"count":48,"max":[0.4375,1.8125,0.3125],"min":[-0.4375,0.1875,-0.3125],"type":"VEC3"},{"bufferView":5,"componentType":5126,"count":48,"max":[1,1,1],"min":[-1,0,-1],"type":"VEC3"},{"bufferView":6,"componentType":5126,"count":48,"max":[0.4375,0.8125],"min":[0,0],"type":"VEC2"},{"bufferView":7,"componentType":5123,"count":72,"max":[47],"min":[0],"type":"SCALAR"},{"bufferView":8,"componentType":5126,"count":20,"max":[0.4375,0.875,-0.3125],"min":[-0.4375,0.5,-0.34375],"type":"VEC3"},{"bufferView":9,"componentType":5126,"count":20,"max":[1,1,0],"min":[-1,-1,-1],"type":"VEC3"},{"bufferView":10,"componentType":5126,"count":20,"max":[0.4375,0.1875],"min":[0,0],"type":"VEC2"},{"bufferView":11,"componentType":5123,"count":30,"max":[19],"min":[0],"type":"SCALAR"},{"bufferView":12,"componentType":5126,"count":20,"max":[0.3125,1.625,-0.3125],"min":[-0.3125,1.3125,-0.34375],"type":"VEC3"},{"bufferView":13,"componentType":5126,"count":20,"max":[1,1,0],"min":[-1,-1,-1],"type":"VEC3"},{"bufferView":14,"componentType":5126,"count":20,"max":[0.3125,0.15625],"min":[0,0],"type":"VEC2"},{"bufferView":15,"componentType":5123,"count":30,"max":[19],"min":[0],"type":"SCALAR"},{"bufferView":16,"componentType":5126,"count":24,"max":[0.625,1.5625,0.125],"min":[0.5,0.4375,0],"type":"VEC3"},{"bufferView":17,"componentType":5126,"count":24,"max":[1,1,1],"min":[-1,-1,-1],"type":"VEC3"},{"bufferView":18,"componentType":5126,"count":24,"max":[0.0625,0.5625],"min":[0,0],"type":"VEC2"},{"bufferView":19,"componentType":5123,"count":36,"max":[23],"min":[0],"type":"SCALAR"},{"bufferView":20,"componentType":5126,"count":24,"max":[0.625,1.625,0],"min":[0.4375,1.3125,-0.125],"type":"VEC3"},{"bufferView":21,"componentType":5126,"count":24,"max":[1,1,1],"min":[0,-1,-1],"type":"VEC3"},{"bufferView":22,"componentType":5126,"count":24,"max":[0.09375,0.15625],"min":[0,0],"type":"VEC2"},{"bufferView":23,"componentType":5123,"count":36,"max":[23],"min":[0],"type":"SCALAR"}],"materials":[{"pbrMetallicRoughness":{"metallicFactor":0,"roughnessFactor":1,"baseColorTexture":{"index":0}},"alphaMode":"MASK","alphaCutoff":0.05,"doubleSided":true},{"pbrMetallicRoughness":{"metallicFactor":0,"roughnessFactor":1,"baseColorTexture":{"index":1}},"alphaMode":"MASK","alphaCutoff":0.05,"doubleSided":true},{"pbrMetallicRoughness":{"metallicFactor":0,"roughnessFactor":1,"baseColorTexture":{"index":2}},"alphaMode":"MASK","alphaCutoff":0.05,"doubleSided":true},{"pbrMetallicRoughness":{"metallicFactor":0,"roughnessFactor":1,"baseColorTexture":{"index":3}},"alphaMode":"MASK","alphaCutoff":0.05,"doubleSided":true},{"pbrMetallicRoughness":{"metallicFactor":0,"roughnessFactor":1,"baseColorTexture":{"index":4}},"alphaMode":"MASK","alphaCutoff":0.05,"doubleSided":true}],"textures":[{"sampler":0,"source":0,"name":"concrete.png"},{"sampler":1,"source":1,"name":"cream.png"},{"sampler":2,"source":2,"name":"rust.png"},{"sampler":3,"source":3,"name":"rubber.png"},{"sampler":4,"source":4,"name":"metal.png"}],"samplers":[{"magFilter":9728,"minFilter":9728,"wrapS":10497,"wrapT":10497},{"magFilter":9728,"minFilter":9728,"wrapS":10497,"wrapT":10497},{"magFilter":9728,"minFilter":9728,"wrapS":10497,"wrapT":10497},{"magFilter":9728,"minFilter":9728,"wrapS":10497,"wrapT":10497},{"magFilter":9728,"minFilter":9728,"wrapS":10497,"wrapT":10497}],"images":[{"mimeType":"image/png","uri":"../textures/concrete.png","name":"concrete"},{"mimeType":"image/png","uri":"../textures/cream.png","name":"cream"},{"mimeType":"image/png","uri":"../textures/rust.png","name":"rust"},{"mimeType":"image/png","uri":"../textures/rubber.png","name":"rubber"},{"mimeType":"image/png","uri":"../textures/metal.png","name":"metal"}],"meshes":[{"primitives":[{"mode":4,"attributes":{"POSITION":0,"NORMAL":1,"TEXCOORD_0":2},"indices":3,"material":0}]},{"primitives":[{"mode":4,"attributes":{"POSITION":4,"NORMAL":5,"TEXCOORD_0":6},"indices":7,"material":1}]},{"primitives":[{"mode":4,"attributes":{"POSITION":8,"NORMAL":9,"TEXCOORD_0":10},"indices":11,"material":2}]},{"primitives":[{"mode":4,"attributes":{"POSITION":12,"NORMAL":13,"TEXCOORD_0":14},"indices":15,"material":3}]},{"primitives":[{"mode":4,"attributes":{"POSITION":16,"NORMAL":17,"TEXCOORD_0":18},"indices":19,"material":3}]},{"primitives":[{"mode":4,"attributes":{"POSITION":20,"NORMAL":21,"TEXCOORD_0":22},"indices":23,"material":4}]}]}