{"asset":{"version":"2.0","generator":"Blockbench 5.1.6 glTF exporter"},"scenes":[{"nodes":[1,3,6,21,36,38,46],"name":"blockbench_export"}],"scene":0,"nodes":[{"name":"base","mesh":0},{"name":"base","children":[0]},{"name":"back","mesh":1},{"name":"back","children":[2]},{"name":"shelf","mesh":2},{"name":"shelf","mesh":3},{"name":"shelf","children":[4,5]},{"name":"pack","mesh":4},{"name":"pack","mesh":5},{"name":"pack","mesh":6},{"name":"pack","mesh":7},{"name":"pack","mesh":8},{"name":"pack","mesh":9},{"name":"pack","mesh":10},{"name":"pack","mesh":11},{"name":"pack","mesh":12},{"name":"pack","mesh":13},{"name":"pack","mesh":14},{"name":"pack","mesh":15},{"name":"pack","mesh":16},{"name":"pack","mesh":17},{"name":"pack","children":[7,8,9,10,11,12,13,14,15,16,17,18,19,20]},{"name":"label","mesh":18},{"name":"label","mesh":19},{"name":"label","mesh":20},{"name":"label","mesh":21},{"name":"label","mesh":22},{"name":"label","mesh":23},{"name":"label","mesh":24},{"name":"label","mesh":25},{"name":"label","mesh":26},{"name":"label","mesh":27},{"name":"label","mesh":28},{"name":"label","mesh":29},{"name":"label","mesh":30},{"name":"label","mesh":31},{"name":"label","children":[22,23,24,25,26,27,28,29,30,31,32,33,34,35]},{"name":"top_stock_tray","mesh":32},{"name":"top_stock_tray","children":[37]},{"name":"top_carton","mesh":33},{"name":"top_carton","mesh":34},{"name":"top_carton","mesh":35},{"name":"top_carton","mesh":36},{"name":"top_carton","mesh":37},{"name":"top_carton","mesh":38},{"name":"top_carton","mesh":39},{"name":"top_carton","children":[39,40,41,42,43,44,45]}],"bufferViews":[{"buffer":0,"byteOffset":0,"byteLength":240,"target":34962,"byteStride":12},{"buffer":0,"byteOffset":240,"byteLength":240,"target":34962,"byteStride":12},{"buffer":0,"byteOffset":480,"byteLength":160,"target":34962,"byteStride":8},{"buffer":0,"byteOffset":640,"byteLength":60,"target":34963},{"buffer":0,"byteOffset":700,"byteLength":432,"target":34962,"byteStride":12},{"buffer":0,"byteOffset":1132,"byteLength":432,"target":34962,"byteStride":12},{"buffer":0,"byteOffset":1564,"byteLength":288,"target":34962,"byteStride":8},{"buffer":0,"byteOffset":1852,"byteLength":108,"target":34963},{"buffer":0,"byteOffset":1960,"byteLength":1296,"target":34962,"byteStride":12},{"buffer":0,"byteOffset":3256,"byteLength":1296,"target":34962,"byteStride":12},{"buffer":0,"byteOffset":4552,"byteLength":864,"target":34962,"byteStride":8},{"buffer":0,"byteOffset":5416,"byteLength":324,"target":34963},{"buffer":0,"byteOffset":5740,"byteLength":1392,"target":34962,"byteStride":12},{"buffer":0,"byteOffset":7132,"byteLength":1392,"target":34962,"byteStride":12},{"buffer":0,"byteOffset":8524,"byteLength":928,"target":34962,"byteStride":8},{"buffer":0,"byteOffset":9452,"byteLength":348,"target":34963},{"buffer":0,"byteOffset":9800,"byteLength":384,"target":34962,"byteStride":12},{"buffer":0,"byteOffset":10184,"byteLength":384,"target":34962,"byteStride":12},{"buffer":0,"byteOffset":10568,"byteLength":256,"target":34962,"byteStride":8},{"buffer":0,"byteOffset":10824,"byteLength":96,"target":34963},{"buffer":0,"byteOffset":10920,"byteLength":384,"target":34962,"byteStride":12},{"buffer":0,"byteOffset":11304,"byteLength":384,"target":34962,"byteStride":12},{"buffer":0,"byteOffset":11688,"byteLength":256,"target":34962,"byteStride":8},{"buffer":0,"byteOffset":11944,"byteLength":96,"target":34963},{"buffer":0,"byteOffset":12040,"byteLength":384,"target":34962,"byteStride":12},{"buffer":0,"byteOffset":12424,"byteLength":384,"target":34962,"byteStride":12},{"buffer":0,"byteOffset":12808,"byteLength":256,"target":34962,"byteStride":8},{"buffer":0,"byteOffset":13064,"byteLength":96,"target":34963},{"buffer":0,"byteOffset":13160,"byteLength":384,"target":34962,"byteStride":12},{"buffer":0,"byteOffset":13544,"byteLength":384,"target":34962,"byteStride":12},{"buffer":0,"byteOffset":13928,"byteLength":256,"target":34962,"byteStride":8},{"buffer":0,"byteOffset":14184,"byteLength":96,"target":34963},{"buffer":0,"byteOffset":14280,"byteLength":384,"target":34962,"byteStride":12},{"buffer":0,"byteOffset":14664,"byteLength":384,"target":34962,"byteStride":12},{"buffer":0,"byteOffset":15048,"byteLength":256,"target":34962,"byteStride":8},{"buffer":0,"byteOffset":15304,"byteLength":96,"target":34963},{"buffer":0,"byteOffset":15400,"byteLength":384,"target":34962,"byteStride":12},{"buffer":0,"byteOffset":15784,"byteLength":384,"target":34962,"byteStride":12},{"buffer":0,"byteOffset":16168,"byteLength":256,"target":34962,"byteStride":8},{"buffer":0,"byteOffset":16424,"byteLength":96,"target":34963},{"buffer":0,"byteOffset":16520,"byteLength":384,"target":34962,"byteStride":12},{"buffer":0,"byteOffset":16904,"byteLength":384,"target":34962,"byteStride":12},{"buffer":0,"byteOffset":17288,"byteLength":256,"target":34962,"byteStride":8},{"buffer":0,"byteOffset":17544,"byteLength":96,"target":34963},{"buffer":0,"byteOffset":17640,"byteLength":384,"target":34962,"byteStride":12},{"buffer":0,"byteOffset":18024,"byteLength":384,"target":34962,"byteStride":12},{"buffer":0,"byteOffset":18408,"byteLength":256,"target":34962,"byteStride":8},{"buffer":0,"byteOffset":18664,"byteLength":96,"target":34963},{"buffer":0,"byteOffset":18760,"byteLength":384,"target":34962,"byteStride":12},{"buffer":0,"byteOffset":19144,"byteLength":384,"target":34962,"byteStride":12},{"buffer":0,"byteOffset":19528,"byteLength":256,"target":34962,"byteStride":8},{"buffer":0,"byteOffset":19784,"byteLength":96,"target":34963},{"buffer":0,"byteOffset":19880,"byteLength":384,"target":34962,"byteStride":12},{"buffer":0,"byteOffset":20264,"byteLength":384,"target":34962,"byteStride":12},{"buffer":0,"byteOffset":20648,"byteLength":256,"target":34962,"byteStride":8},{"buffer":0,"byteOffset":20904,"byteLength":96,"target":34963},{"buffer":0,"byteOffset":21000,"byteLength":384,"target":34962,"byteStride":12},{"buffer":0,"byteOffset":21384,"byteLength":384,"target":34962,"byteStride":12},{"buffer":0,"byteOffset":21768,"byteLength":256,"target":34962,"byteStride":8},{"buffer":0,"byteOffset":22024,"byteLength":96,"target":34963},{"buffer":0,"byteOffset":22120,"byteLength":384,"target":34962,"byteStride":12},{"buffer":0,"byteOffset":22504,"byteLength":384,"target":34962,"byteStride":12},{"buffer":0,"byteOffset":22888,"byteLength":256,"target":34962,"byteStride":8},{"buffer":0,"byteOffset":23144,"byteLength":96,"target":34963},{"buffer":0,"byteOffset":23240,"byteLength":384,"target":34962,"byteStride":12},{"buffer":0,"byteOffset":23624,"byteLength":384,"target":34962,"byteStride":12},{"buffer":0,"byteOffset":24008,"byteLength":256,"target":34962,"byteStride":8},{"buffer":0,"byteOffset":24264,"byteLength":96,"target":34963},{"buffer":0,"byteOffset":24360,"byteLength":384,"target":34962,"byteStride":12},{"buffer":0,"byteOffset":24744,"byteLength":384,"target":34962,"byteStride":12},{"buffer":0,"byteOffset":25128,"byteLength":256,"target":34962,"byteStride":8},{"buffer":0,"byteOffset":25384,"byteLength":96,"target":34963},{"buffer":0,"byteOffset":25480,"byteLength":240,"target":34962,"byteStride":12},{"buffer":0,"byteOffset":25720,"byteLength":240,"target":34962,"byteStride":12},{"buffer":0,"byteOffset":25960,"byteLength":160,"target":34962,"byteStride":8},{"buffer":0,"byteOffset":26120,"byteLength":60,"target":34963},{"buffer":0,"byteOffset":26180,"byteLength":240,"target":34962,"byteStride":12},{"buffer":0,"byteOffset":26420,"byteLength":240,"target":34962,"byteStride":12},{"buffer":0,"byteOffset":26660,"byteLength":160,"target":34962,"byteStride":8},{"buffer":0,"byteOffset":26820,"byteLength":60,"target":34963},{"buffer":0,"byteOffset":26880,"byteLength":240,"target":34962,"byteStride":12},{"buffer":0,"byteOffset":27120,"byteLength":240,"target":34962,"byteStride":12},{"buffer":0,"byteOffset":27360,"byteLength":160,"target":34962,"byteStride":8},{"buffer":0,"byteOffset":27520,"byteLength":60,"target":34963},{"buffer":0,"byteOffset":27580,"byteLength":240,"target":34962,"byteStride":12},{"buffer":0,"byteOffset":27820,"byteLength":240,"target":34962,"byteStride":12},{"buffer":0,"byteOffset":28060,"byteLength":160,"target":34962,"byteStride":8},{"buffer":0,"byteOffset":28220,"byteLength":60,"target":34963},{"buffer":0,"byteOffset":28280,"byteLength":240,"target":34962,"byteStride":12},{"buffer":0,"byteOffset":28520,"byteLength":240,"target":34962,"byteStride":12},{"buffer":0,"byteOffset":28760,"byteLength":160,"target":34962,"byteStride":8},{"buffer":0,"byteOffset":28920,"byteLength":60,"target":34963},{"buffer":0,"byteOffset":28980,"byteLength":240,"target":34962,"byteStride":12},{"buffer":0,"byteOffset":29220,"byteLength":240,"target":34962,"byteStride":12},{"buffer":0,"byteOffset":29460,"byteLength":160,"target":34962,"byteStride":8},{"buffer":0,"byteOffset":29620,"byteLength":60,"target":34963},{"buffer":0,"byteOffset":29680,"byteLength":240,"target":34962,"byteStride":12},{"buffer":0,"byteOffset":29920,"byteLength":240,"target":34962,"byteStride":12},{"buffer":0,"byteOffset":30160,"byteLength":160,"target":34962,"byteStride":8},{"buffer":0,"byteOffset":30320,"byteLength":60,"target":34963},{"buffer":0,"byteOffset":30380,"byteLength":240,"target":34962,"byteStride":12},{"buffer":0,"byteOffset":30620,"byteLength":240,"target":34962,"byteStride":12},{"buffer":0,"byteOffset":30860,"byteLength":160,"target":34962,"byteStride":8},{"buffer":0,"byteOffset":31020,"byteLength":60,"target":34963},{"buffer":0,"byteOffset":31080,"byteLength":240,"target":34962,"byteStride":12},{"buffer":0,"byteOffset":31320,"byteLength":240,"target":34962,"byteStride":12},{"buffer":0,"byteOffset":31560,"byteLength":160,"target":34962,"byteStride":8},{"buffer":0,"byteOffset":31720,"byteLength":60,"target":34963},{"buffer":0,"byteOffset":31780,"byteLength":240,"target":34962,"byteStride":12},{"buffer":0,"byteOffset":32020,"byteLength":240,"target":34962,"byteStride":12},{"buffer":0,"byteOffset":32260,"byteLength":160,"target":34962,"byteStride":8},{"buffer":0,"byteOffset":32420,"byteLength":60,"target":34963},{"buffer":0,"byteOffset":32480,"byteLength":240,"target":34962,"byteStride":12},{"buffer":0,"byteOffset":32720,"byteLength":240,"target":34962,"byteStride":12},{"buffer":0,"byteOffset":32960,"byteLength":160,"target":34962,"byteStride":8},{"buffer":0,"byteOffset":33120,"byteLength":60,"target":34963},{"buffer":0,"byteOffset":33180,"byteLength":240,"target":34962,"byteStride":12},{"buffer":0,"byteOffset":33420,"byteLength":240,"target":34962,"byteStride":12},{"buffer":0,"byteOffset":33660,"byteLength":160,"target":34962,"byteStride":8},{"buffer":0,"byteOffset":33820,"byteLength":60,"target":34963},{"buffer":0,"byteOffset":33880,"byteLength":240,"target":34962,"byteStride":12},{"buffer":0,"byteOffset":34120,"byteLength":240,"target":34962,"byteStride":12},{"buffer":0,"byteOffset":34360,"byteLength":160,"target":34962,"byteStride":8},{"buffer":0,"byteOffset":34520,"byteLength":60,"target":34963},{"buffer":0,"byteOffset":34580,"byteLength":240,"target":34962,"byteStride":12},{"buffer":0,"byteOffset":34820,"byteLength":240,"target":34962,"byteStride":12},{"buffer":0,"byteOffset":35060,"byteLength":160,"target":34962,"byteStride":8},{"buffer":0,"byteOffset":35220,"byteLength":60,"target":34963},{"buffer":0,"byteOffset":35280,"byteLength":1296,"target":34962,"byteStride":12},{"buffer":0,"byteOffset":36576,"byteLength":1296,"target":34962,"byteStride":12},{"buffer":0,"byteOffset":37872,"byteLength":864,"target":34962,"byteStride":8},{"buffer":0,"byteOffset":38736,"byteLength":324,"target":34963},{"buffer":0,"byteOffset":39060,"byteLength":240,"target":34962,"byteStride":12},{"buffer":0,"byteOffset":39300,"byteLength":240,"target":34962,"byteStride":12},{"buffer":0,"byteOffset":39540,"byteLength":160,"target":34962,"byteStride":8},{"buffer":0,"byteOffset":39700,"byteLength":60,"target":34963},{"buffer":0,"byteOffset":39760,"byteLength":240,"target":34962,"byteStride":12},{"buffer":0,"byteOffset":40000,"byteLength":240,"target":34962,"byteStride":12},{"buffer":0,"byteOffset":40240,"byteLength":160,"target":34962,"byteStride":8},{"buffer":0,"byteOffset":40400,"byteLength":60,"target":34963},{"buffer":0,"byteOffset":40460,"byteLength":240,"target":34962,"byteStride":12},{"buffer":0,"byteOffset":40700,"byteLength":240,"target":34962,"byteStride":12},{"buffer":0,"byteOffset":40940,"byteLength":160,"target":34962,"byteStride":8},{"buffer":0,"byteOffset":41100,"byteLength":60,"target":34963},{"buffer":0,"byteOffset":41160,"byteLength":240,"target":34962,"byteStride":12},{"buffer":0,"byteOffset":41400,"byteLength":240,"target":34962,"byteStride":12},{"buffer":0,"byteOffset":41640,"byteLength":160,"target":34962,"byteStride":8},{"buffer":0,"byteOffset":41800,"byteLength":60,"target":34963},{"buffer":0,"byteOffset":41860,"byteLength":240,"target":34962,"byteStride":12},{"buffer":0,"byteOffset":42100,"byteLength":240,"target":34962,"byteStride":12},{"buffer":0,"byteOffset":42340,"byteLength":160,"target":34962,"byteStride":8},{"buffer":0,"byteOffset":42500,"byteLength":60,"target":34963},{"buffer":0,"byteOffset":42560,"byteLength":240,"target":34962,"byteStride":12},{"buffer":0,"byteOffset":42800,"byteLength":240,"target":34962,"byteStride":12},{"buffer":0,"byteOffset":43040,"byteLength":160,"target":34962,"byteStride":8},{"buffer":0,"byteOffset":43200,"byteLength":60,"target":34963},{"buffer":0,"byteOffset":43260,"byteLength":240,"target":34962,"byteStride":12},{"buffer":0,"byteOffset":43500,"byteLength":240,"target":34962,"byteStride":12},{"buffer":0,"byteOffset":43740,"byteLength":160,"target":34962,"byteStride":8},{"buffer":0,"byteOffset":43900,"byteLength":60,"target":34963}],"buffers":[{"byteLength":43960,"uri":"data:application/octet-stream;base64,"}],"accessors":[{"bufferView":0,"componentType":5126,"count":20,"max":[0.875,0.125,0.5625],"min":[-0.875,0,-0.5625],"type":"VEC3"},{"bufferView":1,"componentType":5126,"count":20,"max":[1,0,1],"min":[-1,-1,-1],"type":"VEC3"},{"bufferView":2,"componentType":5126,"count":20,"max":[0.875,0.5625],"min":[0,0],"type":"VEC2"},{"bufferView":3,"componentType":5123,"count":30,"max":[19],"min":[0],"type":"SCALAR"},{"bufferView":4,"componentType":5126,"count":36,"max":[0.875,1.0625,0.5],"min":[-0.875,0.21875,0.375],"type":"VEC3"},{"bufferView":5,"componentType":5126,"count":36,"max":[1,1,1],"min":[-1,0,-1],"type":"VEC3"},{"bufferView":6,"componentType":5126,"count":36,"max":[0.875,0.421875],"min":[0,0],"type":"VEC2"},{"bufferView":7,"componentType":5123,"count":54,"max":[35],"min":[0],"type":"SCALAR"},{"bufferView":8,"componentType":5126,"count":108,"max":[0.875,0.21875,0.5625],"min":[-0.875,0.125,-0.5625],"type":"VEC3"},{"bufferView":9,"componentType":5126,"count":108,"max":[1,1,1],"min":[-1,0,-1],"type":"VEC3"},{"bufferView":10,"componentType":5126,"count":108,"max":[0.875,0.5625],"min":[0,0],"type":"VEC2"},{"bufferView":11,"componentType":5123,"count":162,"max":[107],"min":[0],"type":"SCALAR"},{"bufferView":12,"componentType":5126,"count":116,"max":[0.875,0.71875,0.5625],"min":[-0.875,0.625,-0.5625],"type":"VEC3"},{"bufferView":13,"componentType":5126,"count":116,"max":[1,1,1],"min":[-1,-1,-1],"type":"VEC3"},{"bufferView":14,"componentType":5126,"count":116,"max":[0.875,0.5625],"min":[0,0],"type":"VEC2"},{"bufferView":15,"componentType":5123,"count":174,"max":[115],"min":[0],"type":"SCALAR"},{"bufferView":16,"componentType":5126,"count":32,"max":[-0.5625,0.53125,0],"min":[-0.75,0.21875,-0.4375],"type":"VEC3"},{"bufferView":17,"componentType":5126,"count":32,"max":[1,1,1],"min":[-1,0,-1],"type":"VEC3"},{"bufferView":18,"componentType":5126,"count":32,"max":[0.21875,0.21875],"min":[0,0],"type":"VEC2"},{"bufferView":19,"componentType":5123,"count":48,"max":[31],"min":[0],"type":"SCALAR"},{"bufferView":20,"componentType":5126,"count":32,"max":[-0.33125001192092896,0.59375,0],"min":[-0.518750011920929,0.21875,-0.4375],"type":"VEC3"},{"bufferView":21,"componentType":5126,"count":32,"max":[1,1,1],"min":[-1,0,-1],"type":"VEC3"},{"bufferView":22,"componentType":5126,"count":32,"max":[0.21875,0.21875],"min":[0,0],"type":"VEC2"},{"bufferView":23,"componentType":5123,"count":48,"max":[31],"min":[0],"type":"SCALAR"},{"bufferView":24,"componentType":5126,"count":32,"max":[-0.10000000149011612,0.53125,0],"min":[-0.2874999940395355,0.21875,-0.4375],"type":"VEC3"},{"bufferView":25,"componentType":5126,"count":32,"max":[1,1,1],"min":[-1,0,-1],"type":"VEC3"},{"bufferView":26,"componentType":5126,"count":32,"max":[0.21875,0.21875],"min":[0,0],"type":"VEC2"},{"bufferView":27,"componentType":5123,"count":48,"max":[31],"min":[0],"type":"SCALAR"},{"bufferView":28,"componentType":5126,"count":32,"max":[0.13124999403953552,0.59375,0],"min":[-0.05624999850988388,0.21875,-0.4375],"type":"VEC3"},{"bufferView":29,"componentType":5126,"count":32,"max":[1,1,1],"min":[-1,0,-1],"type":"VEC3"},{"bufferView":30,"componentType":5126,"count":32,"max":[0.21875,0.21875],"min":[0,0],"type":"VEC2"},{"bufferView":31,"componentType":5123,"count":48,"max":[31],"min":[0],"type":"SCALAR"},{"bufferView":32,"componentType":5126,"count":32,"max":[0.36250001192092896,0.53125,0],"min":[0.17499999701976776,0.21875,-0.4375],"type":"VEC3"},{"bufferView":33,"componentType":5126,"count":32,"max":[1,1,1],"min":[-1,0,-1],"type":"VEC3"},{"bufferView":34,"componentType":5126,"count":32,"max":[0.21875,0.21875],"min":[0,0],"type":"VEC2"},{"bufferView":35,"componentType":5123,"count":48,"max":[31],"min":[0],"type":"SCALAR"},{"bufferView":36,"componentType":5126,"count":32,"max":[0.59375,0.59375,0],"min":[0.40625,0.21875,-0.4375],"type":"VEC3"},{"bufferView":37,"componentType":5126,"count":32,"max":[1,1,1],"min":[-1,0,-1],"type":"VEC3"},{"bufferView":38,"componentType":5126,"count":32,"max":[0.21875,0.21875],"min":[0,0],"type":"VEC2"},{"bufferView":39,"componentType":5123,"count":48,"max":[31],"min":[0],"type":"SCALAR"},{"bufferView":40,"componentType":5126,"count":32,"max":[0.824999988079071,0.53125,0],"min":[0.637499988079071,0.21875,-0.4375],"type":"VEC3"},{"bufferView":41,"componentType":5126,"count":32,"max":[1,1,1],"min":[-1,0,-1],"type":"VEC3"},{"bufferView":42,"componentType":5126,"count":32,"max":[0.21875,0.21875],"min":[0,0],"type":"VEC2"},{"bufferView":43,"componentType":5123,"count":48,"max":[31],"min":[0],"type":"SCALAR"},{"bufferView":44,"componentType":5126,"count":32,"max":[-0.5625,1.03125,0],"min":[-0.75,0.71875,-0.4375],"type":"VEC3"},{"bufferView":45,"componentType":5126,"count":32,"max":[1,1,1],"min":[-1,0,-1],"type":"VEC3"},{"bufferView":46,"componentType":5126,"count":32,"max":[0.21875,0.21875],"min":[0,0],"type":"VEC2"},{"bufferView":47,"componentType":5123,"count":48,"max":[31],"min":[0],"type":"SCALAR"},{"bufferView":48,"componentType":5126,"count":32,"max":[-0.33125001192092896,1.09375,0],"min":[-0.518750011920929,0.71875,-0.4375],"type":"VEC3"},{"bufferView":49,"componentType":5126,"count":32,"max":[1,1,1],"min":[-1,0,-1],"type":"VEC3"},{"bufferView":50,"componentType":5126,"count":32,"max":[0.21875,0.21875],"min":[0,0],"type":"VEC2"},{"bufferView":51,"componentType":5123,"count":48,"max":[31],"min":[0],"type":"SCALAR"},{"bufferView":52,"componentType":5126,"count":32,"max":[-0.10000000149011612,1.03125,0],"min":[-0.2874999940395355,0.71875,-0.4375],"type":"VEC3"},{"bufferView":53,"componentType":5126,"count":32,"max":[1,1,1],"min":[-1,0,-1],"type":"VEC3"},{"bufferView":54,"componentType":5126,"count":32,"max":[0.21875,0.21875],"min":[0,0],"type":"VEC2"},{"bufferView":55,"componentType":5123,"count":48,"max":[31],"min":[0],"type":"SCALAR"},{"bufferView":56,"componentType":5126,"count":32,"max":[0.13124999403953552,1.09375,0],"min":[-0.05624999850988388,0.71875,-0.4375],"type":"VEC3"},{"bufferView":57,"componentType":5126,"count":32,"max":[1,1,1],"min":[-1,0,-1],"type":"VEC3"},{"bufferView":58,"componentType":5126,"count":32,"max":[0.21875,0.21875],"min":[0,0],"type":"VEC2"},{"bufferView":59,"componentType":5123,"count":48,"max":[31],"min":[0],"type":"SCALAR"},{"bufferView":60,"componentType":5126,"count":32,"max":[0.36250001192092896,1.03125,0],"min":[0.17499999701976776,0.71875,-0.4375],"type":"VEC3"},{"bufferView":61,"componentType":5126,"count":32,"max":[1,1,1],"min":[-1,0,-1],"type":"VEC3"},{"bufferView":62,"componentType":5126,"count":32,"max":[0.21875,0.21875],"min":[0,0],"type":"VEC2"},{"bufferView":63,"componentType":5123,"count":48,"max":[31],"min":[0],"type":"SCALAR"},{"bufferView":64,"componentType":5126,"count":32,"max":[0.59375,1.09375,0],"min":[0.40625,0.71875,-0.4375],"type":"VEC3"},{"bufferView":65,"componentType":5126,"count":32,"max":[1,1,1],"min":[-1,0,-1],"type":"VEC3"},{"bufferView":66,"componentType":5126,"count":32,"max":[0.21875,0.21875],"min":[0,0],"type":"VEC2"},{"bufferView":67,"componentType":5123,"count":48,"max":[31],"min":[0],"type":"SCALAR"},{"bufferView":68,"componentType":5126,"count":32,"max":[0.824999988079071,1.03125,0],"min":[0.637499988079071,0.71875,-0.4375],"type":"VEC3"},{"bufferView":69,"componentType":5126,"count":32,"max":[1,1,1],"min":[-1,0,-1],"type":"VEC3"},{"bufferView":70,"componentType":5126,"count":32,"max":[0.21875,0.21875],"min":[0,0],"type":"VEC2"},{"bufferView":71,"componentType":5123,"count":48,"max":[31],"min":[0],"type":"SCALAR"},{"bufferView":72,"componentType":5126,"count":20,"max":[-0.59375,0.40625,-0.4375],"min":[-0.71875,0.3125,-0.453125],"type":"VEC3"},{"bufferView":73,"componentType":5126,"count":20,"max":[1,1,0],"min":[-1,-1,-1],"type":"VEC3"},{"bufferView":74,"componentType":5126,"count":20,"max":[0.0625,0.046875],"min":[0,0],"type":"VEC2"},{"bufferView":75,"componentType":5123,"count":30,"max":[19],"min":[0],"type":"SCALAR"},{"bufferView":76,"componentType":5126,"count":20,"max":[-0.36250001192092896,0.40625,-0.4375],"min":[-0.48750001192092896,0.3125,-0.453125],"type":"VEC3"},{"bufferView":77,"componentType":5126,"count":20,"max":[1,1,0],"min":[-1,-1,-1],"type":"VEC3"},{"bufferView":78,"componentType":5126,"count":20,"max":[0.0625,0.046875],"min":[0,0],"type":"VEC2"},{"bufferView":79,"componentType":5123,"count":30,"max":[19],"min":[0],"type":"SCALAR"},{"bufferView":80,"componentType":5126,"count":20,"max":[-0.13124999403953552,0.40625,-0.4375],"min":[-0.2562499940395355,0.3125,-0.453125],"type":"VEC3"},{"bufferView":81,"componentType":5126,"count":20,"max":[1,1,0],"min":[-1,-1,-1],"type":"VEC3"},{"bufferView":82,"componentType":5126,"count":20,"max":[0.0625,0.046875],"min":[0,0],"type":"VEC2"},{"bufferView":83,"componentType":5123,"count":30,"max":[19],"min":[0],"type":"SCALAR"},{"bufferView":84,"componentType":5126,"count":20,"max":[0.10000000149011612,0.40625,-0.4375],"min":[-0.02500000037252903,0.3125,-0.453125],"type":"VEC3"},{"bufferView":85,"componentType":5126,"count":20,"max":[1,1,0],"min":[-1,-1,-1],"type":"VEC3"},{"bufferView":86,"componentType":5126,"count":20,"max":[0.0625,0.046875],"min":[0,0],"type":"VEC2"},{"bufferView":87,"componentType":5123,"count":30,"max":[19],"min":[0],"type":"SCALAR"},{"bufferView":88,"componentType":5126,"count":20,"max":[0.33125001192092896,0.40625,-0.4375],"min":[0.20624999701976776,0.3125,-0.453125],"type":"VEC3"},{"bufferView":89,"componentType":5126,"count":20,"max":[1,1,0],"min":[-1,-1,-1],"type":"VEC3"},{"bufferView":90,"componentType":5126,"count":20,"max":[0.0625,0.046875],"min":[0,0],"type":"VEC2"},{"bufferView":91,"componentType":5123,"count":30,"max":[19],"min":[0],"type":"SCALAR"},{"bufferView":92,"componentType":5126,"count":20,"max":[0.5625,0.40625,-0.4375],"min":[0.4375,0.3125,-0.453125],"type":"VEC3"},{"bufferView":93,"componentType":5126,"count":20,"max":[1,1,0],"min":[-1,-1,-1],"type":"VEC3"},{"bufferView":94,"componentType":5126,"count":20,"max":[0.0625,0.046875],"min":[0,0],"type":"VEC2"},{"bufferView":95,"componentType":5123,"count":30,"max":[19],"min":[0],"type":"SCALAR"},{"bufferView":96,"componentType":5126,"count":20,"max":[0.793749988079071,0.40625,-0.4375],"min":[0.668749988079071,0.3125,-0.453125],"type":"VEC3"},{"bufferView":97,"componentType":5126,"count":20,"max":[1,1,0],"min":[-1,-1,-1],"type":"VEC3"},{"bufferView":98,"componentType":5126,"count":20,"max":[0.0625,0.046875],"min":[0,0],"type":"VEC2"},{"bufferView":99,"componentType":5123,"count":30,"max":[19],"min":[0],"type":"SCALAR"},{"bufferView":100,"componentType":5126,"count":20,"max":[-0.59375,0.90625,-0.4375],"min":[-0.71875,0.8125,-0.453125],"type":"VEC3"},{"bufferView":101,"componentType":5126,"count":20,"max":[1,1,0],"min":[-1,-1,-1],"type":"VEC3"},{"bufferView":102,"componentType":5126,"count":20,"max":[0.0625,0.046875],"min":[0,0],"type":"VEC2"},{"bufferView":103,"componentType":5123,"count":30,"max":[19],"min":[0],"type":"SCALAR"},{"bufferView":104,"componentType":5126,"count":20,"max":[-0.36250001192092896,0.90625,-0.4375],"min":[-0.48750001192092896,0.8125,-0.453125],"type":"VEC3"},{"bufferView":105,"componentType":5126,"count":20,"max":[1,1,0],"min":[-1,-1,-1],"type":"VEC3"},{"bufferView":106,"componentType":5126,"count":20,"max":[0.0625,0.046875],"min":[0,0],"type":"VEC2"},{"bufferView":107,"componentType":5123,"count":30,"max":[19],"min":[0],"type":"SCALAR"},{"bufferView":108,"componentType":5126,"count":20,"max":[-0.13124999403953552,0.90625,-0.4375],"min":[-0.2562499940395355,0.8125,-0.453125],"type":"VEC3"},{"bufferView":109,"componentType":5126,"count":20,"max":[1,1,0],"min":[-1,-1,-1],"type":"VEC3"},{"bufferView":110,"componentType":5126,"count":20,"max":[0.0625,0.046875],"min":[0,0],"type":"VEC2"},{"bufferView":111,"componentType":5123,"count":30,"max":[19],"min":[0],"type":"SCALAR"},{"bufferView":112,"componentType":5126,"count":20,"max":[0.10000000149011612,0.90625,-0.4375],"min":[-0.02500000037252903,0.8125,-0.453125],"type":"VEC3"},{"bufferView":113,"componentType":5126,"count":20,"max":[1,1,0],"min":[-1,-1,-1],"type":"VEC3"},{"bufferView":114,"componentType":5126,"count":20,"max":[0.0625,0.046875],"min":[0,0],"type":"VEC2"},{"bufferView":115,"componentType":5123,"count":30,"max":[19],"min":[0],"type":"SCALAR"},{"bufferView":116,"componentType":5126,"count":20,"max":[0.33125001192092896,0.90625,-0.4375],"min":[0.20624999701976776,0.8125,-0.453125],"type":"VEC3"},{"bufferView":117,"componentType":5126,"count":20,"max":[1,1,0],"min":[-1,-1,-1],"type":"VEC3"},{"bufferView":118,"componentType":5126,"count":20,"max":[0.0625,0.046875],"min":[0,0],"type":"VEC2"},{"bufferView":119,"componentType":5123,"count":30,"max":[19],"min":[0],"type":"SCALAR"},{"bufferView":120,"componentType":5126,"count":20,"max":[0.5625,0.90625,-0.4375],"min":[0.4375,0.8125,-0.453125],"type":"VEC3"},{"bufferView":121,"componentType":5126,"count":20,"max":[1,1,0],"min":[-1,-1,-1],"type":"VEC3"},{"bufferView":122,"componentType":5126,"count":20,"max":[0.0625,0.046875],"min":[0,0],"type":"VEC2"},{"bufferView":123,"componentType":5123,"count":30,"max":[19],"min":[0],"type":"SCALAR"},{"bufferView":124,"componentType":5126,"count":20,"max":[0.793749988079071,0.90625,-0.4375],"min":[0.668749988079071,0.8125,-0.453125],"type":"VEC3"},{"bufferView":125,"componentType":5126,"count":20,"max":[1,1,0],"min":[-1,-1,-1],"type":"VEC3"},{"bufferView":126,"componentType":5126,"count":20,"max":[0.0625,0.046875],"min":[0,0],"type":"VEC2"},{"bufferView":127,"componentType":5123,"count":30,"max":[19],"min":[0],"type":"SCALAR"},{"bufferView":128,"componentType":5126,"count":108,"max":[0.875,1.25,0.5625],"min":[-0.875,1.125,-0.5625],"type":"VEC3"},{"bufferView":129,"componentType":5126,"count":108,"max":[1,1,1],"min":[-1,-1,-1],"type":"VEC3"},{"bufferView":130,"componentType":5126,"count":108,"max":[0.875,0.5625],"min":[0,0],"type":"VEC2"},{"bufferView":131,"componentType":5123,"count":162,"max":[107],"min":[0],"type":"SCALAR"},{"bufferView":132,"componentType":5126,"count":20,"max":[-0.5625,1.5625,0.25],"min":[-0.75,1.25,-0.375],"type":"VEC3"},{"bufferView":133,"componentType":5126,"count":20,"max":[1,1,1],"min":[-1,0,-1],"type":"VEC3"},{"bufferView":134,"componentType":5126,"count":20,"max":[0.3125,0.3125],"min":[0,0],"type":"VEC2"},{"bufferView":135,"componentType":5123,"count":30,"max":[19],"min":[0],"type":"SCALAR"},{"bufferView":136,"componentType":5126,"count":20,"max":[-0.33125001192092896,1.5625,0.25],"min":[-0.518750011920929,1.25,-0.375],"type":"VEC3"},{"bufferView":137,"componentType":5126,"count":20,"max":[1,1,1],"min":[-1,0,-1],"type":"VEC3"},{"bufferView":138,"componentType":5126,"count":20,"max":[0.3125,0.3125],"min":[0,0],"type":"VEC2"},{"bufferView":139,"componentType":5123,"count":30,"max":[19],"min":[0],"type":"SCALAR"},{"bufferView":140,"componentType":5126,"count":20,"max":[-0.10000000149011612,1.5625,0.25],"min":[-0.2874999940395355,1.25,-0.375],"type":"VEC3"},{"bufferView":141,"componentType":5126,"count":20,"max":[1,1,1],"min":[-1,0,-1],"type":"VEC3"},{"bufferView":142,"componentType":5126,"count":20,"max":[0.3125,0.3125],"min":[0,0],"type":"VEC2"},{"bufferView":143,"componentType":5123,"count":30,"max":[19],"min":[0],"type":"SCALAR"},{"bufferView":144,"componentType":5126,"count":20,"max":[0.13124999403953552,1.5625,0.25],"min":[-0.05624999850988388,1.25,-0.375],"type":"VEC3"},{"bufferView":145,"componentType":5126,"count":20,"max":[1,1,1],"min":[-1,0,-1],"type":"VEC3"},{"bufferView":146,"componentType":5126,"count":20,"max":[0.3125,0.3125],"min":[0,0],"type":"VEC2"},{"bufferView":147,"componentType":5123,"count":30,"max":[19],"min":[0],"type":"SCALAR"},{"bufferView":148,"componentType":5126,"count":20,"max":[0.36250001192092896,1.5625,0.25],"min":[0.17499999701976776,1.25,-0.375],"type":"VEC3"},{"bufferView":149,"componentType":5126,"count":20,"max":[1,1,1],"min":[-1,0,-1],"type":"VEC3"},{"bufferView":150,"componentType":5126,"count":20,"max":[0.3125,0.3125],"min":[0,0],"type":"VEC2"},{"bufferView":151,"componentType":5123,"count":30,"max":[19],"min":[0],"type":"SCALAR"},{"bufferView":152,"componentType":5126,"count":20,"max":[0.59375,1.5625,0.25],"min":[0.40625,1.25,-0.375],"type":"VEC3"},{"bufferView":153,"componentType":5126,"count":20,"max":[1,1,1],"min":[-1,0,-1],"type":"VEC3"},{"bufferView":154,"componentType":5126,"count":20,"max":[0.3125,0.3125],"min":[0,0],"type":"VEC2"},{"bufferView":155,"componentType":5123,"count":30,"max":[19],"min":[0],"type":"SCALAR"},{"bufferView":156,"componentType":5126,"count":20,"max":[0.824999988079071,1.5625,0.25],"min":[0.637499988079071,1.25,-0.375],"type":"VEC3"},{"bufferView":157,"componentType":5126,"count":20,"max":[1,1,1],"min":[-1,0,-1],"type":"VEC3"},{"bufferView":158,"componentType":5126,"count":20,"max":[0.3125,0.3125],"min":[0,0],"type":"VEC2"},{"bufferView":159,"componentType":5123,"count":30,"max":[19],"min":[0],"type":"SCALAR"}],"materials":[{"pbrMetallicRoughness":{"metallicFactor":0,"roughnessFactor":1,"baseColorTexture":{"index":0}},"alphaMode":"MASK","alphaCutoff":0.05,"doubleSided":true},{"pbrMetallicRoughness":{"metallicFactor":0,"roughnessFactor":1,"baseColorTexture":{"index":1}},"alphaMode":"MASK","alphaCutoff":0.05,"doubleSided":true},{"pbrMetallicRoughness":{"metallicFactor":0,"roughnessFactor":1,"baseColorTexture":{"index":2}},"alphaMode":"MASK","alphaCutoff":0.05,"doubleSided":true},{"pbrMetallicRoughness":{"metallicFactor":0,"roughnessFactor":1,"baseColorTexture":{"index":3}},"alphaMode":"MASK","alphaCutoff":0.05,"doubleSided":true},{"pbrMetallicRoughness":{"metallicFactor":0,"roughnessFactor":1,"baseColorTexture":{"index":4}},"alphaMode":"MASK","alphaCutoff":0.05,"doubleSided":true},{"pbrMetallicRoughness":{"metallicFactor":0,"roughnessFactor":1,"baseColorTexture":{"index":5}},"alphaMode":"MASK","alphaCutoff":0.05,"doubleSided":true},{"pbrMetallicRoughness":{"metallicFactor":0,"roughnessFactor":1,"baseColorTexture":{"index":6}},"alphaMode":"MASK","alphaCutoff":0.05,"doubleSided":true},{"pbrMetallicRoughness":{"metallicFactor":0,"roughnessFactor":1,"baseColorTexture":{"index":7}},"alphaMode":"MASK","alphaCutoff":0.05,"doubleSided":true},{"pbrMetallicRoughness":{"metallicFactor":0,"roughnessFactor":1,"baseColorTexture":{"index":8}},"alphaMode":"MASK","alphaCutoff":0.05,"doubleSided":true}],"textures":[{"sampler":0,"source":0,"name":"metal.png"},{"sampler":1,"source":1,"name":"paint.png"},{"sampler":2,"source":2,"name":"wood_floor.png"},{"sampler":3,"source":3,"name":"cream.png"},{"sampler":4,"source":4,"name":"rust.png"},{"sampler":5,"source":5,"name":"fabric.png"},{"sampler":6,"source":6,"name":"cardboard.png"},{"sampler":7,"source":7,"name":"paper.png"},{"sampler":8,"source":8,"name":"wood.png"}],"samplers":[{"magFilter":9728,"minFilter":9728,"wrapS":10497,"wrapT":10497},{"magFilter":9728,"minFilter":9728,"wrapS":10497,"wrapT":10497},{"magFilter":9728,"minFilter":9728,"wrapS":10497,"wrapT":10497},{"magFilter":9728,"minFilter":9728,"wrapS":10497,"wrapT":10497},{"magFilter":9728,"minFilter":9728,"wrapS":10497,"wrapT":10497},{"magFilter":9728,"minFilter":9728,"wrapS":10497,"wrapT":10497},{"magFilter":9728,"minFilter":9728,"wrapS":10497,"wrapT":10497},{"magFilter":9728,"minFilter":9728,"wrapS":10497,"wrapT":10497},{"magFilter":9728,"minFilter":9728,"wrapS":10497,"wrapT":10497}],"images":[{"mimeType":"image/png","uri":"../textures/metal.png","name":"metal"},{"mimeType":"image/png","uri":"../textures/paint.png","name":"paint"},{"mimeType":"image/png","uri":"../textures/wood_floor.png","name":"wood_floor"},{"mimeType":"image/png","uri":"../textures/cream.png","name":"cream"},{"mimeType":"image/png","uri":"../textures/rust.png","name":"rust"},{"mimeType":"image/png","uri":"../textures/fabric.png","name":"fabric"},{"mimeType":"image/png","uri":"../textures/cardboard.png","name":"cardboard"},{"mimeType":"image/png","uri":"../textures/paper.png","name":"paper"},{"mimeType":"image/png","uri":"../textures/wood.png","name":"wood"}],"meshes":[{"primitives":[{"mode":4,"attributes":{"POSITION":0,"NORMAL":1,"TEXCOORD_0":2},"indices":3,"material":0}]},{"primitives":[{"mode":4,"attributes":{"POSITION":4,"NORMAL":5,"TEXCOORD_0":6},"indices":7,"material":1}]},{"primitives":[{"mode":4,"attributes":{"POSITION":8,"NORMAL":9,"TEXCOORD_0":10},"indices":11,"material":2}]},{"primitives":[{"mode":4,"attributes":{"POSITION":12,"NORMAL":13,"TEXCOORD_0":14},"indices":15,"material":2}]},{"primitives":[{"mode":4,"attributes":{"POSITION":16,"NORMAL":17,"TEXCOORD_0":18},"indices":19,"material":3}]},{"primitives":[{"mode":4,"attributes":{"POSITION":20,"NORMAL":21,"TEXCOORD_0":22},"indices":23,"material":4}]},{"primitives":[{"mode":4,"attributes":{"POSITION":24,"NORMAL":25,"TEXCOORD_0":26},"indices":27,"material":5}]},{"primitives":[{"mode":4,"attributes":{"POSITION":28,"NORMAL":29,"TEXCOORD_0":30},"indices":31,"material":6}]},{"primitives":[{"mode":4,"attributes":{"POSITION":32,"NORMAL":33,"TEXCOORD_0":34},"indices":35,"material":3}]},{"primitives":[{"mode":4,"attributes":{"POSITION":36,"NORMAL":37,"TEXCOORD_0":38},"indices":39,"material":4}]},{"primitives":[{"mode":4,"attributes":{"POSITION":40,"NORMAL":41,"TEXCOORD_0":42},"indices":43,"material":5}]},{"primitives":[{"mode":4,"attributes":{"POSITION":44,"NORMAL":45,"TEXCOORD_0":46},"indices":47,"material":3}]},{"primitives":[{"mode":4,"attributes":{"POSITION":48,"NORMAL":49,"TEXCOORD_0":50},"indices":51,"material":4}]},{"primitives":[{"mode":4,"attributes":{"POSITION":52,"NORMAL":53,"TEXCOORD_0":54},"indices":55,"material":5}]},{"primitives":[{"mode":4,"attributes":{"POSITION":56,"NORMAL":57,"TEXCOORD_0":58},"indices":59,"material":6}]},{"primitives":[{"mode":4,"attributes":{"POSITION":60,"NORMAL":61,"TEXCOORD_0":62},"indices":63,"material":3}]},{"primitives":[{"mode":4,"attributes":{"POSITION":64,"NORMAL":65,"TEXCOORD_0":66},"indices":67,"material":4}]},{"primitives":[{"mode":4,"attributes":{"POSITION":68,"NORMAL":69,"TEXCOORD_0":70},"indices":71,"material":5}]},{"primitives":[{"mode":4,"attributes":{"POSITION":72,"NORMAL":73,"TEXCOORD_0":74},"indices":75,"material":7}]},{"primitives":[{"mode":4,"attributes":{"POSITION":76,"NORMAL":77,"TEXCOORD_0":78},"indices":79,"material":7}]},{"primitives":[{"mode":4,"attributes":{"POSITION":80,"NORMAL":81,"TEXCOORD_0":82},"indices":83,"material":7}]},{"primitives":[{"mode":4,"attributes":{"POSITION":84,"NORMAL":85,"TEXCOORD_0":86},"indices":87,"material":7}]},{"primitives":[{"mode":4,"attributes":{"POSITION":88,"NORMAL":89,"TEXCOORD_0":90},"indices":91,"material":7}]},{"primitives":[{"mode":4,"attributes":{"POSITION":92,"NORMAL":93,"TEXCOORD_0":94},"indices":95,"material":7}]},{"primitives":[{"mode":4,"attributes":{"POSITION":96,"NORMAL":97,"TEXCOORD_0":98},"indices":99,"material":7}]},{"primitives":[{"mode":4,"attributes":{"POSITION":100,"NORMAL":101,"TEXCOORD_0":102},"indices":103,"material":7}]},{"primitives":[{"mode":4,"attributes":{"POSITION":104,"NORMAL":105,"TEXCOORD_0":106},"indices":107,"material":7}]},{"primitives":[{"mode":4,"attributes":{"POSITION":108,"NORMAL":109,"TEXCOORD_0":110},"indices":111,"material":7}]},{"primitives":[{"mode":4,"attributes":{"POSITION":112,"NORMAL":113,"TEXCOORD_0":114},"indices":115,"material":7}]},{"primitives":[{"mode":4,"attributes":{"POSITION":116,"NORMAL":117,"TEXCOORD_0":118},"indices":119,"material":7}]},{"primitives":[{"mode":4,"attributes":{"POSITION":120,"NORMAL":121,"TEXCOORD_0":122},"indices":123,"material":7}]},{"primitives":[{"mode":4,"attributes":{"POSITION":124,"NORMAL":125,"TEXCOORD_0":126},"indices":127,"material":7}]},{"primitives":[{"mode":4,"attributes":{"POSITION":128,"NORMAL":129,"TEXCOORD_0":130},"indices":131,"material":8}]},{"primitives":[{"mode":4,"attributes":{"POSITION":132,"NORMAL":133,"TEXCOORD_0":134},"indices":135,"material":5}]},{"primitives":[{"mode":4,"attributes":{"POSITION":136,"NORMAL":137,"TEXCOORD_0":138},"indices":139,"material":6}]},{"primitives":[{"mode":4,"attributes":{"POSITION":140,"NORMAL":141,"TEXCOORD_0":142},"indices":143,"material":4}]},{"primitives":[{"mode":4,"attributes":{"POSITION":144,"NORMAL":145,"TEXCOORD_0":146},"indices":147,"material":5}]},{"primitives":[{"mode":4,"attributes":{"POSITION":148,"NORMAL":149,"TEXCOORD_0":150},"indices":151,"material":6}]},{"primitives":[{"mode":4,"attributes":{"POSITION":152,"NORMAL":153,"TEXCOORD_0":154},"indices":155,"material":4}]},{"primitives":[{"mode":4,"attributes":{"POSITION":156,"NORMAL":157,"TEXCOORD_0":158},"indices":159,"material":5}]}]}