{"asset":{"version":"2.0","generator":"Blockbench 5.1.6 glTF exporter"},"scenes":[{"nodes":[1,3,5,7,9],"name":"blockbench_export"}],"scene":0,"nodes":[{"name":"base","mesh":0},{"name":"base","children":[0]},{"name":"post","mesh":1},{"name":"post","children":[2]},{"name":"hook","mesh":2},{"name":"hook","children":[4]},{"name":"bag","mesh":3},{"name":"bag","children":[6]},{"name":"tube","mesh":4},{"name":"tube","children":[8]}],"bufferViews":[{"buffer":0,"byteOffset":0,"byteLength":432,"target":34962,"byteStride":12},{"buffer":0,"byteOffset":432,"byteLength":432,"target":34962,"byteStride":12},{"buffer":0,"byteOffset":864,"byteLength":288,"target":34962,"byteStride":8},{"buffer":0,"byteOffset":1152,"byteLength":108,"target":34963},{"buffer":0,"byteOffset":1260,"byteLength":192,"target":34962,"byteStride":12},{"buffer":0,"byteOffset":1452,"byteLength":192,"target":34962,"byteStride":12},{"buffer":0,"byteOffset":1644,"byteLength":128,"target":34962,"byteStride":8},{"buffer":0,"byteOffset":1772,"byteLength":48,"target":34963},{"buffer":0,"byteOffset":1820,"byteLength":336,"target":34962,"byteStride":12},{"buffer":0,"byteOffset":2156,"byteLength":336,"target":34962,"byteStride":12},{"buffer":0,"byteOffset":2492,"byteLength":224,"target":34962,"byteStride":8},{"buffer":0,"byteOffset":2716,"byteLength":84,"target":34963},{"buffer":0,"byteOffset":2800,"byteLength":336,"target":34962,"byteStride":12},{"buffer":0,"byteOffset":3136,"byteLength":336,"target":34962,"byteStride":12},{"buffer":0,"byteOffset":3472,"byteLength":224,"target":34962,"byteStride":8},{"buffer":0,"byteOffset":3696,"byteLength":84,"target":34963},{"buffer":0,"byteOffset":3780,"byteLength":240,"target":34962,"byteStride":12},{"buffer":0,"byteOffset":4020,"byteLength":240,"target":34962,"byteStride":12},{"buffer":0,"byteOffset":4260,"byteLength":160,"target":34962,"byteStride":8},{"buffer":0,"byteOffset":4420,"byteLength":60,"target":34963}],"buffers":[{"byteLength":4480,"uri":"data:application/octet-stream;base64,"}],"accessors":[{"bufferView":0,"componentType":5126,"count":36,"max":[0.4375,0.0625,0.125],"min":[-0.4375,0,-0.125],"type":"VEC3"},{"bufferView":1,"componentType":5126,"count":36,"max":[1,1,1],"min":[-1,-1,-1],"type":"VEC3"},{"bufferView":2,"componentType":5126,"count":36,"max":[0.4375,0.125],"min":[0,0],"type":"VEC2"},{"bufferView":3,"componentType":5123,"count":54,"max":[35],"min":[0],"type":"SCALAR"},{"bufferView":4,"componentType":5126,"count":16,"max":[0.0625,1.6875,0.0625],"min":[-0.0625,0.0625,-0.0625],"type":"VEC3"},{"bufferView":5,"componentType":5126,"count":16,"max":[1,0,1],"min":[-1,0,-1],"type":"VEC3"},{"bufferView":6,"componentType":5126,"count":16,"max":[0.0625,0.84375],"min":[0,0.03125],"type":"VEC2"},{"bufferView":7,"componentType":5123,"count":24,"max":[15],"min":[0],"type":"SCALAR"},{"bufferView":8,"componentType":5126,"count":28,"max":[0.3125,1.75,0.0625],"min":[-0.3125,1.6875,-0.0625],"type":"VEC3"},{"bufferView":9,"componentType":5126,"count":28,"max":[1,1,1],"min":[-1,-1,-1],"type":"VEC3"},{"bufferView":10,"componentType":5126,"count":28,"max":[0.3125,0.0625],"min":[0,0],"type":"VEC2"},{"bufferView":11,"componentType":5123,"count":42,"max":[27],"min":[0],"type":"SCALAR"},{"bufferView":12,"componentType":5126,"count":28,"max":[0.375,1.625,0.0625],"min":[0.125,1.1875,-0.0625],"type":"VEC3"},{"bufferView":13,"componentType":5126,"count":28,"max":[1,1,1],"min":[-1,-1,-1],"type":"VEC3"},{"bufferView":14,"componentType":5126,"count":28,"max":[0.125,0.21875],"min":[0,0],"type":"VEC2"},{"bufferView":15,"componentType":5123,"count":42,"max":[27],"min":[0],"type":"SCALAR"},{"bufferView":16,"componentType":5126,"count":20,"max":[0.1875,1.1875,0],"min":[0.125,0.4375,-0.0625],"type":"VEC3"},{"bufferView":17,"componentType":5126,"count":20,"max":[1,0,1],"min":[-1,-1,-1],"type":"VEC3"},{"bufferView":18,"componentType":5126,"count":20,"max":[0.03125,0.375],"min":[0,0],"type":"VEC2"},{"bufferView":19,"componentType":5123,"count":30,"max":[19],"min":[0],"type":"SCALAR"}],"materials":[{"pbrMetallicRoughness":{"metallicFactor":0,"roughnessFactor":1,"baseColorTexture":{"index":0}},"alphaMode":"MASK","alphaCutoff":0.05,"doubleSided":true},{"pbrMetallicRoughness":{"metallicFactor":0,"roughnessFactor":1,"baseColorTexture":{"index":1}},"alphaMode":"MASK","alphaCutoff":0.05,"doubleSided":true},{"pbrMetallicRoughness":{"metallicFactor":0,"roughnessFactor":1,"baseColorTexture":{"index":2}},"alphaMode":"MASK","alphaCutoff":0.05,"doubleSided":true}],"textures":[{"sampler":0,"source":0,"name":"metal.png"},{"sampler":1,"source":1,"name":"cream.png"},{"sampler":2,"source":2,"name":"glass.png"}],"samplers":[{"magFilter":9728,"minFilter":9728,"wrapS":10497,"wrapT":10497},{"magFilter":9728,"minFilter":9728,"wrapS":10497,"wrapT":10497},{"magFilter":9728,"minFilter":9728,"wrapS":10497,"wrapT":10497}],"images":[{"mimeType":"image/png","uri":"../textures/metal.png","name":"metal"},{"mimeType":"image/png","uri":"../textures/cream.png","name":"cream"},{"mimeType":"image/png","uri":"../textures/glass.png","name":"glass"}],"meshes":[{"primitives":[{"mode":4,"attributes":{"POSITION":0,"NORMAL":1,"TEXCOORD_0":2},"indices":3,"material":0}]},{"primitives":[{"mode":4,"attributes":{"POSITION":4,"NORMAL":5,"TEXCOORD_0":6},"indices":7,"material":0}]},{"primitives":[{"mode":4,"attributes":{"POSITION":8,"NORMAL":9,"TEXCOORD_0":10},"indices":11,"material":0}]},{"primitives":[{"mode":4,"attributes":{"POSITION":12,"NORMAL":13,"TEXCOORD_0":14},"indices":15,"material":1}]},{"primitives":[{"mode":4,"attributes":{"POSITION":16,"NORMAL":17,"TEXCOORD_0":18},"indices":19,"material":2}]}]}