{"asset":{"version":"2.0","generator":"Blockbench 5.1.6 glTF exporter"},"scenes":[{"nodes":[1,3,6,9],"name":"blockbench_export"}],"scene":0,"nodes":[{"name":"cabinet","mesh":0},{"name":"cabinet","children":[0]},{"name":"worktop","mesh":1},{"name":"worktop","children":[2]},{"name":"door_panel","mesh":2},{"name":"door_panel","mesh":3},{"name":"door_panel","children":[4,5]},{"name":"pull","mesh":4},{"name":"pull","mesh":5},{"name":"pull","children":[7,8]}],"bufferViews":[{"buffer":0,"byteOffset":0,"byteLength":528,"target":34962,"byteStride":12},{"buffer":0,"byteOffset":528,"byteLength":528,"target":34962,"byteStride":12},{"buffer":0,"byteOffset":1056,"byteLength":352,"target":34962,"byteStride":8},{"buffer":0,"byteOffset":1408,"byteLength":132,"target":34963},{"buffer":0,"byteOffset":1540,"byteLength":336,"target":34962,"byteStride":12},{"buffer":0,"byteOffset":1876,"byteLength":336,"target":34962,"byteStride":12},{"buffer":0,"byteOffset":2212,"byteLength":224,"target":34962,"byteStride":8},{"buffer":0,"byteOffset":2436,"byteLength":84,"target":34963},{"buffer":0,"byteOffset":2520,"byteLength":384,"target":34962,"byteStride":12},{"buffer":0,"byteOffset":2904,"byteLength":384,"target":34962,"byteStride":12},{"buffer":0,"byteOffset":3288,"byteLength":256,"target":34962,"byteStride":8},{"buffer":0,"byteOffset":3544,"byteLength":96,"target":34963},{"buffer":0,"byteOffset":3640,"byteLength":384,"target":34962,"byteStride":12},{"buffer":0,"byteOffset":4024,"byteLength":384,"target":34962,"byteStride":12},{"buffer":0,"byteOffset":4408,"byteLength":256,"target":34962,"byteStride":8},{"buffer":0,"byteOffset":4664,"byteLength":96,"target":34963},{"buffer":0,"byteOffset":4760,"byteLength":240,"target":34962,"byteStride":12},{"buffer":0,"byteOffset":5000,"byteLength":240,"target":34962,"byteStride":12},{"buffer":0,"byteOffset":5240,"byteLength":160,"target":34962,"byteStride":8},{"buffer":0,"byteOffset":5400,"byteLength":60,"target":34963},{"buffer":0,"byteOffset":5460,"byteLength":240,"target":34962,"byteStride":12},{"buffer":0,"byteOffset":5700,"byteLength":240,"target":34962,"byteStride":12},{"buffer":0,"byteOffset":5940,"byteLength":160,"target":34962,"byteStride":8},{"buffer":0,"byteOffset":6100,"byteLength":60,"target":34963}],"buffers":[{"byteLength":6160,"uri":"data:application/octet-stream;base64,"}],"accessors":[{"bufferView":0,"componentType":5126,"count":44,"max":[1,1,0.5],"min":[-1,0,-0.5],"type":"VEC3"},{"bufferView":1,"componentType":5126,"count":44,"max":[1,0,1],"min":[-1,-1,-1],"type":"VEC3"},{"bufferView":2,"componentType":5126,"count":44,"max":[1,0.5],"min":[0,0],"type":"VEC2"},{"bufferView":3,"componentType":5123,"count":66,"max":[43],"min":[0],"type":"SCALAR"},{"bufferView":4,"componentType":5126,"count":28,"max":[1,1.125,0.5625],"min":[-1,1,-0.5625],"type":"VEC3"},{"bufferView":5,"componentType":5126,"count":28,"max":[1,1,1],"min":[-1,-1,-1],"type":"VEC3"},{"bufferView":6,"componentType":5126,"count":28,"max":[1,0.5625],"min":[0,0],"type":"VEC2"},{"bufferView":7,"componentType":5123,"count":42,"max":[27],"min":[0],"type":"SCALAR"},{"bufferView":8,"componentType":5126,"count":32,"max":[-0.125,0.875,-0.5],"min":[-0.8125,0.125,-0.5625],"type":"VEC3"},{"bufferView":9,"componentType":5126,"count":32,"max":[1,1,0],"min":[-1,-1,-1],"type":"VEC3"},{"bufferView":10,"componentType":5126,"count":32,"max":[0.34375,0.375],"min":[0,0],"type":"VEC2"},{"bufferView":11,"componentType":5123,"count":48,"max":[31],"min":[0],"type":"SCALAR"},{"bufferView":12,"componentType":5126,"count":32,"max":[0.875,0.875,-0.5],"min":[0.1875,0.125,-0.5625],"type":"VEC3"},{"bufferView":13,"componentType":5126,"count":32,"max":[1,1,0],"min":[-1,-1,-1],"type":"VEC3"},{"bufferView":14,"componentType":5126,"count":32,"max":[0.34375,0.375],"min":[0,0],"type":"VEC2"},{"bufferView":15,"componentType":5123,"count":48,"max":[31],"min":[0],"type":"SCALAR"},{"bufferView":16,"componentType":5126,"count":20,"max":[-0.25,0.8125,-0.5625],"min":[-0.4375,0.75,-0.625],"type":"VEC3"},{"bufferView":17,"componentType":5126,"count":20,"max":[1,1,0],"min":[-1,-1,-1],"type":"VEC3"},{"bufferView":18,"componentType":5126,"count":20,"max":[0.09375,0.03125],"min":[0,0],"type":"VEC2"},{"bufferView":19,"componentType":5123,"count":30,"max":[19],"min":[0],"type":"SCALAR"},{"bufferView":20,"componentType":5126,"count":20,"max":[0.75,0.8125,-0.5625],"min":[0.5625,0.75,-0.625],"type":"VEC3"},{"bufferView":21,"componentType":5126,"count":20,"max":[1,1,0],"min":[-1,-1,-1],"type":"VEC3"},{"bufferView":22,"componentType":5126,"count":20,"max":[0.09375,0.03125],"min":[0,0],"type":"VEC2"},{"bufferView":23,"componentType":5123,"count":30,"max":[19],"min":[0],"type":"SCALAR"}],"materials":[{"pbrMetallicRoughness":{"metallicFactor":0,"roughnessFactor":1,"baseColorTexture":{"index":0}},"alphaMode":"MASK","alphaCutoff":0.05,"doubleSided":true},{"pbrMetallicRoughness":{"metallicFactor":0,"roughnessFactor":1,"baseColorTexture":{"index":1}},"alphaMode":"MASK","alphaCutoff":0.05,"doubleSided":true},{"pbrMetallicRoughness":{"metallicFactor":0,"roughnessFactor":1,"baseColorTexture":{"index":2}},"alphaMode":"MASK","alphaCutoff":0.05,"doubleSided":true},{"pbrMetallicRoughness":{"metallicFactor":0,"roughnessFactor":1,"baseColorTexture":{"index":3}},"alphaMode":"MASK","alphaCutoff":0.05,"doubleSided":true}],"textures":[{"sampler":0,"source":0,"name":"wood.png"},{"sampler":1,"source":1,"name":"stone.png"},{"sampler":2,"source":2,"name":"wood_floor.png"},{"sampler":3,"source":3,"name":"metal.png"}],"samplers":[{"magFilter":9728,"minFilter":9728,"wrapS":10497,"wrapT":10497},{"magFilter":9728,"minFilter":9728,"wrapS":10497,"wrapT":10497},{"magFilter":9728,"minFilter":9728,"wrapS":10497,"wrapT":10497},{"magFilter":9728,"minFilter":9728,"wrapS":10497,"wrapT":10497}],"images":[{"mimeType":"image/png","uri":"../textures/wood.png","name":"wood"},{"mimeType":"image/png","uri":"../textures/stone.png","name":"stone"},{"mimeType":"image/png","uri":"../textures/wood_floor.png","name":"wood_floor"},{"mimeType":"image/png","uri":"../textures/metal.png","name":"metal"}],"meshes":[{"primitives":[{"mode":4,"attributes":{"POSITION":0,"NORMAL":1,"TEXCOORD_0":2},"indices":3,"material":0}]},{"primitives":[{"mode":4,"attributes":{"POSITION":4,"NORMAL":5,"TEXCOORD_0":6},"indices":7,"material":1}]},{"primitives":[{"mode":4,"attributes":{"POSITION":8,"NORMAL":9,"TEXCOORD_0":10},"indices":11,"material":2}]},{"primitives":[{"mode":4,"attributes":{"POSITION":12,"NORMAL":13,"TEXCOORD_0":14},"indices":15,"material":2}]},{"primitives":[{"mode":4,"attributes":{"POSITION":16,"NORMAL":17,"TEXCOORD_0":18},"indices":19,"material":3}]},{"primitives":[{"mode":4,"attributes":{"POSITION":20,"NORMAL":21,"TEXCOORD_0":22},"indices":23,"material":3}]}]}