{"asset":{"version":"2.0","generator":"Blockbench 5.1.6 glTF exporter"},"scenes":[{"nodes":[1,6],"name":"blockbench_export"}],"scene":0,"nodes":[{"name":"cover","mesh":0},{"name":"cover","children":[0]},{"name":"ridge","mesh":1},{"name":"ridge","mesh":2},{"name":"ridge","mesh":3},{"name":"ridge","mesh":4},{"name":"ridge","children":[2,3,4,5]}],"bufferViews":[{"buffer":0,"byteOffset":0,"byteLength":576,"target":34962,"byteStride":12},{"buffer":0,"byteOffset":576,"byteLength":576,"target":34962,"byteStride":12},{"buffer":0,"byteOffset":1152,"byteLength":384,"target":34962,"byteStride":8},{"buffer":0,"byteOffset":1536,"byteLength":144,"target":34963},{"buffer":0,"byteOffset":1680,"byteLength":240,"target":34962,"byteStride":12},{"buffer":0,"byteOffset":1920,"byteLength":240,"target":34962,"byteStride":12},{"buffer":0,"byteOffset":2160,"byteLength":160,"target":34962,"byteStride":8},{"buffer":0,"byteOffset":2320,"byteLength":60,"target":34963},{"buffer":0,"byteOffset":2380,"byteLength":240,"target":34962,"byteStride":12},{"buffer":0,"byteOffset":2620,"byteLength":240,"target":34962,"byteStride":12},{"buffer":0,"byteOffset":2860,"byteLength":160,"target":34962,"byteStride":8},{"buffer":0,"byteOffset":3020,"byteLength":60,"target":34963},{"buffer":0,"byteOffset":3080,"byteLength":240,"target":34962,"byteStride":12},{"buffer":0,"byteOffset":3320,"byteLength":240,"target":34962,"byteStride":12},{"buffer":0,"byteOffset":3560,"byteLength":160,"target":34962,"byteStride":8},{"buffer":0,"byteOffset":3720,"byteLength":60,"target":34963},{"buffer":0,"byteOffset":3780,"byteLength":240,"target":34962,"byteStride":12},{"buffer":0,"byteOffset":4020,"byteLength":240,"target":34962,"byteStride":12},{"buffer":0,"byteOffset":4260,"byteLength":160,"target":34962,"byteStride":8},{"buffer":0,"byteOffset":4420,"byteLength":60,"target":34963}],"buffers":[{"byteLength":4480,"uri":"data:application/octet-stream;base64,"}],"accessors":[{"bufferView":0,"componentType":5126,"count":48,"max":[0.5625,0.0625,0.5625],"min":[-0.5625,0,-0.5625],"type":"VEC3"},{"bufferView":1,"componentType":5126,"count":48,"max":[1,1,1],"min":[-1,-1,-1],"type":"VEC3"},{"bufferView":2,"componentType":5126,"count":48,"max":[0.5625,0.5625],"min":[0,0],"type":"VEC2"},{"bufferView":3,"componentType":5123,"count":72,"max":[47],"min":[0],"type":"SCALAR"},{"bufferView":4,"componentType":5126,"count":20,"max":[0.4375,0.078125,-0.3125],"min":[-0.4375,0.0625,-0.375],"type":"VEC3"},{"bufferView":5,"componentType":5126,"count":20,"max":[1,1,1],"min":[-1,0,-1],"type":"VEC3"},{"bufferView":6,"componentType":5126,"count":20,"max":[0.4375,0.03125],"min":[0,0],"type":"VEC2"},{"bufferView":7,"componentType":5123,"count":30,"max":[19],"min":[0],"type":"SCALAR"},{"bufferView":8,"componentType":5126,"count":20,"max":[0.4375,0.078125,-0.0625],"min":[-0.4375,0.0625,-0.125],"type":"VEC3"},{"bufferView":9,"componentType":5126,"count":20,"max":[1,1,1],"min":[-1,0,-1],"type":"VEC3"},{"bufferView":10,"componentType":5126,"count":20,"max":[0.4375,0.03125],"min":[0,0],"type":"VEC2"},{"bufferView":11,"componentType":5123,"count":30,"max":[19],"min":[0],"type":"SCALAR"},{"bufferView":12,"componentType":5126,"count":20,"max":[0.4375,0.078125,0.1875],"min":[-0.4375,0.0625,0.125],"type":"VEC3"},{"bufferView":13,"componentType":5126,"count":20,"max":[1,1,1],"min":[-1,0,-1],"type":"VEC3"},{"bufferView":14,"componentType":5126,"count":20,"max":[0.4375,0.03125],"min":[0,0],"type":"VEC2"},{"bufferView":15,"componentType":5123,"count":30,"max":[19],"min":[0],"type":"SCALAR"},{"bufferView":16,"componentType":5126,"count":20,"max":[0.4375,0.078125,0.4375],"min":[-0.4375,0.0625,0.375],"type":"VEC3"},{"bufferView":17,"componentType":5126,"count":20,"max":[1,1,1],"min":[-1,0,-1],"type":"VEC3"},{"bufferView":18,"componentType":5126,"count":20,"max":[0.4375,0.03125],"min":[0,0],"type":"VEC2"},{"bufferView":19,"componentType":5123,"count":30,"max":[19],"min":[0],"type":"SCALAR"}],"materials":[{"pbrMetallicRoughness":{"metallicFactor":0,"roughnessFactor":1,"baseColorTexture":{"index":0}},"alphaMode":"MASK","alphaCutoff":0.05,"doubleSided":true},{"pbrMetallicRoughness":{"metallicFactor":0,"roughnessFactor":1,"baseColorTexture":{"index":1}},"alphaMode":"MASK","alphaCutoff":0.05,"doubleSided":true}],"textures":[{"sampler":0,"source":0,"name":"metal.png"},{"sampler":1,"source":1,"name":"rubber.png"}],"samplers":[{"magFilter":9728,"minFilter":9728,"wrapS":10497,"wrapT":10497},{"magFilter":9728,"minFilter":9728,"wrapS":10497,"wrapT":10497}],"images":[{"mimeType":"image/png","uri":"../textures/metal.png","name":"metal"},{"mimeType":"image/png","uri":"../textures/rubber.png","name":"rubber"}],"meshes":[{"primitives":[{"mode":4,"attributes":{"POSITION":0,"NORMAL":1,"TEXCOORD_0":2},"indices":3,"material":0}]},{"primitives":[{"mode":4,"attributes":{"POSITION":4,"NORMAL":5,"TEXCOORD_0":6},"indices":7,"material":1}]},{"primitives":[{"mode":4,"attributes":{"POSITION":8,"NORMAL":9,"TEXCOORD_0":10},"indices":11,"material":1}]},{"primitives":[{"mode":4,"attributes":{"POSITION":12,"NORMAL":13,"TEXCOORD_0":14},"indices":15,"material":1}]},{"primitives":[{"mode":4,"attributes":{"POSITION":16,"NORMAL":17,"TEXCOORD_0":18},"indices":19,"material":1}]}]}