{"asset":{"version":"2.0","generator":"Blockbench 5.1.6 glTF exporter"},"scenes":[{"nodes":[6,22,24],"name":"blockbench_export"}],"scene":0,"nodes":[{"name":"upright","mesh":0},{"name":"upright","mesh":1},{"name":"shelf","mesh":2},{"name":"shelf","mesh":3},{"name":"shelf","mesh":4},{"name":"shelf","mesh":5},{"name":"shelf_0_0_0_0","children":[0,1,2,3,4,5]},{"name":"stock","mesh":6},{"name":"stock","mesh":7},{"name":"stock","mesh":8},{"name":"stock","mesh":9},{"name":"stock","mesh":10},{"name":"stock","mesh":11},{"name":"stock","mesh":12},{"name":"stock","mesh":13},{"name":"stock","mesh":14},{"name":"stock","mesh":15},{"name":"stock","mesh":16},{"name":"stock","mesh":17},{"name":"stock","mesh":18},{"name":"stock","mesh":19},{"name":"stock","mesh":20},{"name":"stock","children":[7,8,9,10,11,12,13,14,15,16,17,18,19,20,21]},{"name":"back","mesh":21},{"name":"back","children":[23]}],"bufferViews":[{"buffer":0,"byteOffset":0,"byteLength":336,"target":34962,"byteStride":12},{"buffer":0,"byteOffset":336,"byteLength":336,"target":34962,"byteStride":12},{"buffer":0,"byteOffset":672,"byteLength":224,"target":34962,"byteStride":8},{"buffer":0,"byteOffset":896,"byteLength":84,"target":34963},{"buffer":0,"byteOffset":980,"byteLength":336,"target":34962,"byteStride":12},{"buffer":0,"byteOffset":1316,"byteLength":336,"target":34962,"byteStride":12},{"buffer":0,"byteOffset":1652,"byteLength":224,"target":34962,"byteStride":8},{"buffer":0,"byteOffset":1876,"byteLength":84,"target":34963},{"buffer":0,"byteOffset":1960,"byteLength":864,"target":34962,"byteStride":12},{"buffer":0,"byteOffset":2824,"byteLength":864,"target":34962,"byteStride":12},{"buffer":0,"byteOffset":3688,"byteLength":576,"target":34962,"byteStride":8},{"buffer":0,"byteOffset":4264,"byteLength":216,"target":34963},{"buffer":0,"byteOffset":4480,"byteLength":864,"target":34962,"byteStride":12},{"buffer":0,"byteOffset":5344,"byteLength":864,"target":34962,"byteStride":12},{"buffer":0,"byteOffset":6208,"byteLength":576,"target":34962,"byteStride":8},{"buffer":0,"byteOffset":6784,"byteLength":216,"target":34963},{"buffer":0,"byteOffset":7000,"byteLength":864,"target":34962,"byteStride":12},{"buffer":0,"byteOffset":7864,"byteLength":864,"target":34962,"byteStride":12},{"buffer":0,"byteOffset":8728,"byteLength":576,"target":34962,"byteStride":8},{"buffer":0,"byteOffset":9304,"byteLength":216,"target":34963},{"buffer":0,"byteOffset":9520,"byteLength":144,"target":34962,"byteStride":12},{"buffer":0,"byteOffset":9664,"byteLength":144,"target":34962,"byteStride":12},{"buffer":0,"byteOffset":9808,"byteLength":96,"target":34962,"byteStride":8},{"buffer":0,"byteOffset":9904,"byteLength":36,"target":34963},{"buffer":0,"byteOffset":9940,"byteLength":240,"target":34962,"byteStride":12},{"buffer":0,"byteOffset":10180,"byteLength":240,"target":34962,"byteStride":12},{"buffer":0,"byteOffset":10420,"byteLength":160,"target":34962,"byteStride":8},{"buffer":0,"byteOffset":10580,"byteLength":60,"target":34963},{"buffer":0,"byteOffset":10640,"byteLength":240,"target":34962,"byteStride":12},{"buffer":0,"byteOffset":10880,"byteLength":240,"target":34962,"byteStride":12},{"buffer":0,"byteOffset":11120,"byteLength":160,"target":34962,"byteStride":8},{"buffer":0,"byteOffset":11280,"byteLength":60,"target":34963},{"buffer":0,"byteOffset":11340,"byteLength":240,"target":34962,"byteStride":12},{"buffer":0,"byteOffset":11580,"byteLength":240,"target":34962,"byteStride":12},{"buffer":0,"byteOffset":11820,"byteLength":160,"target":34962,"byteStride":8},{"buffer":0,"byteOffset":11980,"byteLength":60,"target":34963},{"buffer":0,"byteOffset":12040,"byteLength":240,"target":34962,"byteStride":12},{"buffer":0,"byteOffset":12280,"byteLength":240,"target":34962,"byteStride":12},{"buffer":0,"byteOffset":12520,"byteLength":160,"target":34962,"byteStride":8},{"buffer":0,"byteOffset":12680,"byteLength":60,"target":34963},{"buffer":0,"byteOffset":12740,"byteLength":240,"target":34962,"byteStride":12},{"buffer":0,"byteOffset":12980,"byteLength":240,"target":34962,"byteStride":12},{"buffer":0,"byteOffset":13220,"byteLength":160,"target":34962,"byteStride":8},{"buffer":0,"byteOffset":13380,"byteLength":60,"target":34963},{"buffer":0,"byteOffset":13440,"byteLength":240,"target":34962,"byteStride":12},{"buffer":0,"byteOffset":13680,"byteLength":240,"target":34962,"byteStride":12},{"buffer":0,"byteOffset":13920,"byteLength":160,"target":34962,"byteStride":8},{"buffer":0,"byteOffset":14080,"byteLength":60,"target":34963},{"buffer":0,"byteOffset":14140,"byteLength":240,"target":34962,"byteStride":12},{"buffer":0,"byteOffset":14380,"byteLength":240,"target":34962,"byteStride":12},{"buffer":0,"byteOffset":14620,"byteLength":160,"target":34962,"byteStride":8},{"buffer":0,"byteOffset":14780,"byteLength":60,"target":34963},{"buffer":0,"byteOffset":14840,"byteLength":240,"target":34962,"byteStride":12},{"buffer":0,"byteOffset":15080,"byteLength":240,"target":34962,"byteStride":12},{"buffer":0,"byteOffset":15320,"byteLength":160,"target":34962,"byteStride":8},{"buffer":0,"byteOffset":15480,"byteLength":60,"target":34963},{"buffer":0,"byteOffset":15540,"byteLength":240,"target":34962,"byteStride":12},{"buffer":0,"byteOffset":15780,"byteLength":240,"target":34962,"byteStride":12},{"buffer":0,"byteOffset":16020,"byteLength":160,"target":34962,"byteStride":8},{"buffer":0,"byteOffset":16180,"byteLength":60,"target":34963},{"buffer":0,"byteOffset":16240,"byteLength":240,"target":34962,"byteStride":12},{"buffer":0,"byteOffset":16480,"byteLength":240,"target":34962,"byteStride":12},{"buffer":0,"byteOffset":16720,"byteLength":160,"target":34962,"byteStride":8},{"buffer":0,"byteOffset":16880,"byteLength":60,"target":34963},{"buffer":0,"byteOffset":16940,"byteLength":240,"target":34962,"byteStride":12},{"buffer":0,"byteOffset":17180,"byteLength":240,"target":34962,"byteStride":12},{"buffer":0,"byteOffset":17420,"byteLength":160,"target":34962,"byteStride":8},{"buffer":0,"byteOffset":17580,"byteLength":60,"target":34963},{"buffer":0,"byteOffset":17640,"byteLength":240,"target":34962,"byteStride":12},{"buffer":0,"byteOffset":17880,"byteLength":240,"target":34962,"byteStride":12},{"buffer":0,"byteOffset":18120,"byteLength":160,"target":34962,"byteStride":8},{"buffer":0,"byteOffset":18280,"byteLength":60,"target":34963},{"buffer":0,"byteOffset":18340,"byteLength":240,"target":34962,"byteStride":12},{"buffer":0,"byteOffset":18580,"byteLength":240,"target":34962,"byteStride":12},{"buffer":0,"byteOffset":18820,"byteLength":160,"target":34962,"byteStride":8},{"buffer":0,"byteOffset":18980,"byteLength":60,"target":34963},{"buffer":0,"byteOffset":19040,"byteLength":240,"target":34962,"byteStride":12},{"buffer":0,"byteOffset":19280,"byteLength":240,"target":34962,"byteStride":12},{"buffer":0,"byteOffset":19520,"byteLength":160,"target":34962,"byteStride":8},{"buffer":0,"byteOffset":19680,"byteLength":60,"target":34963},{"buffer":0,"byteOffset":19740,"byteLength":240,"target":34962,"byteStride":12},{"buffer":0,"byteOffset":19980,"byteLength":240,"target":34962,"byteStride":12},{"buffer":0,"byteOffset":20220,"byteLength":160,"target":34962,"byteStride":8},{"buffer":0,"byteOffset":20380,"byteLength":60,"target":34963},{"buffer":0,"byteOffset":20440,"byteLength":384,"target":34962,"byteStride":12},{"buffer":0,"byteOffset":20824,"byteLength":384,"target":34962,"byteStride":12},{"buffer":0,"byteOffset":21208,"byteLength":256,"target":34962,"byteStride":8},{"buffer":0,"byteOffset":21464,"byteLength":96,"target":34963}],"buffers":[{"byteLength":21560,"uri":"data:application/octet-stream;base64,"}],"accessors":[{"bufferView":0,"componentType":5126,"count":28,"max":[-0.75,2,0.375],"min":[-0.875,0,-0.4375],"type":"VEC3"},{"bufferView":1,"componentType":5126,"count":28,"max":[1,1,0],"min":[-1,-1,-1],"type":"VEC3"},{"bufferView":2,"componentType":5126,"count":28,"max":[0.40625,1],"min":[0,0],"type":"VEC2"},{"bufferView":3,"componentType":5123,"count":42,"max":[27],"min":[0],"type":"SCALAR"},{"bufferView":4,"componentType":5126,"count":28,"max":[0.875,2,0.375],"min":[0.75,0,-0.4375],"type":"VEC3"},{"bufferView":5,"componentType":5126,"count":28,"max":[1,1,0],"min":[-1,-1,-1],"type":"VEC3"},{"bufferView":6,"componentType":5126,"count":28,"max":[0.40625,1],"min":[0,0],"type":"VEC2"},{"bufferView":7,"componentType":5123,"count":42,"max":[27],"min":[0],"type":"SCALAR"},{"bufferView":8,"componentType":5126,"count":72,"max":[0.75,0.125,0.375],"min":[-0.75,0,-0.4375],"type":"VEC3"},{"bufferView":9,"componentType":5126,"count":72,"max":[0,1,0],"min":[0,-1,-1],"type":"VEC3"},{"bufferView":10,"componentType":5126,"count":72,"max":[0.75,0.40625],"min":[0,0],"type":"VEC2"},{"bufferView":11,"componentType":5123,"count":108,"max":[71],"min":[0],"type":"SCALAR"},{"bufferView":12,"componentType":5126,"count":72,"max":[0.75,0.75,0.375],"min":[-0.75,0.625,-0.4375],"type":"VEC3"},{"bufferView":13,"componentType":5126,"count":72,"max":[0,1,0],"min":[0,-1,-1],"type":"VEC3"},{"bufferView":14,"componentType":5126,"count":72,"max":[0.75,0.40625],"min":[0,0],"type":"VEC2"},{"bufferView":15,"componentType":5123,"count":108,"max":[71],"min":[0],"type":"SCALAR"},{"bufferView":16,"componentType":5126,"count":72,"max":[0.75,1.375,0.375],"min":[-0.75,1.25,-0.4375],"type":"VEC3"},{"bufferView":17,"componentType":5126,"count":72,"max":[0,1,0],"min":[0,-1,-1],"type":"VEC3"},{"bufferView":18,"componentType":5126,"count":72,"max":[0.75,0.40625],"min":[0,0],"type":"VEC2"},{"bufferView":19,"componentType":5123,"count":108,"max":[71],"min":[0],"type":"SCALAR"},{"bufferView":20,"componentType":5126,"count":12,"max":[0.75,2,0.375],"min":[-0.75,1.875,-0.4375],"type":"VEC3"},{"bufferView":21,"componentType":5126,"count":12,"max":[0,1,0],"min":[0,-1,-1],"type":"VEC3"},{"bufferView":22,"componentType":5126,"count":12,"max":[0.75,0.40625],"min":[0,0],"type":"VEC2"},{"bufferView":23,"componentType":5123,"count":18,"max":[11],"min":[0],"type":"SCALAR"},{"bufferView":24,"componentType":5126,"count":20,"max":[-0.4375,0.5,0.1875],"min":[-0.625,0.125,-0.25],"type":"VEC3"},{"bufferView":25,"componentType":5126,"count":20,"max":[1,1,1],"min":[-1,0,-1],"type":"VEC3"},{"bufferView":26,"componentType":5126,"count":20,"max":[0.21875,0.21875],"min":[0,0],"type":"VEC2"},{"bufferView":27,"componentType":5123,"count":30,"max":[19],"min":[0],"type":"SCALAR"},{"bufferView":28,"componentType":5126,"count":20,"max":[-0.1875,0.5,0.1875],"min":[-0.375,0.125,-0.25],"type":"VEC3"},{"bufferView":29,"componentType":5126,"count":20,"max":[1,1,1],"min":[-1,0,-1],"type":"VEC3"},{"bufferView":30,"componentType":5126,"count":20,"max":[0.21875,0.21875],"min":[0,0],"type":"VEC2"},{"bufferView":31,"componentType":5123,"count":30,"max":[19],"min":[0],"type":"SCALAR"},{"bufferView":32,"componentType":5126,"count":20,"max":[0.0625,0.5,0.1875],"min":[-0.125,0.125,-0.25],"type":"VEC3"},{"bufferView":33,"componentType":5126,"count":20,"max":[1,1,1],"min":[-1,0,-1],"type":"VEC3"},{"bufferView":34,"componentType":5126,"count":20,"max":[0.21875,0.21875],"min":[0,0],"type":"VEC2"},{"bufferView":35,"componentType":5123,"count":30,"max":[19],"min":[0],"type":"SCALAR"},{"bufferView":36,"componentType":5126,"count":20,"max":[0.3125,0.5,0.1875],"min":[0.125,0.125,-0.25],"type":"VEC3"},{"bufferView":37,"componentType":5126,"count":20,"max":[1,1,1],"min":[-1,0,-1],"type":"VEC3"},{"bufferView":38,"componentType":5126,"count":20,"max":[0.21875,0.21875],"min":[0,0],"type":"VEC2"},{"bufferView":39,"componentType":5123,"count":30,"max":[19],"min":[0],"type":"SCALAR"},{"bufferView":40,"componentType":5126,"count":20,"max":[0.5625,0.5,0.1875],"min":[0.375,0.125,-0.25],"type":"VEC3"},{"bufferView":41,"componentType":5126,"count":20,"max":[1,1,1],"min":[-1,0,-1],"type":"VEC3"},{"bufferView":42,"componentType":5126,"count":20,"max":[0.21875,0.21875],"min":[0,0],"type":"VEC2"},{"bufferView":43,"componentType":5123,"count":30,"max":[19],"min":[0],"type":"SCALAR"},{"bufferView":44,"componentType":5126,"count":20,"max":[-0.4375,1.125,0.1875],"min":[-0.625,0.75,-0.25],"type":"VEC3"},{"bufferView":45,"componentType":5126,"count":20,"max":[1,1,1],"min":[-1,0,-1],"type":"VEC3"},{"bufferView":46,"componentType":5126,"count":20,"max":[0.21875,0.21875],"min":[0,0],"type":"VEC2"},{"bufferView":47,"componentType":5123,"count":30,"max":[19],"min":[0],"type":"SCALAR"},{"bufferView":48,"componentType":5126,"count":20,"max":[-0.1875,1.125,0.1875],"min":[-0.375,0.75,-0.25],"type":"VEC3"},{"bufferView":49,"componentType":5126,"count":20,"max":[1,1,1],"min":[-1,0,-1],"type":"VEC3"},{"bufferView":50,"componentType":5126,"count":20,"max":[0.21875,0.21875],"min":[0,0],"type":"VEC2"},{"bufferView":51,"componentType":5123,"count":30,"max":[19],"min":[0],"type":"SCALAR"},{"bufferView":52,"componentType":5126,"count":20,"max":[0.0625,1.125,0.1875],"min":[-0.125,0.75,-0.25],"type":"VEC3"},{"bufferView":53,"componentType":5126,"count":20,"max":[1,1,1],"min":[-1,0,-1],"type":"VEC3"},{"bufferView":54,"componentType":5126,"count":20,"max":[0.21875,0.21875],"min":[0,0],"type":"VEC2"},{"bufferView":55,"componentType":5123,"count":30,"max":[19],"min":[0],"type":"SCALAR"},{"bufferView":56,"componentType":5126,"count":20,"max":[0.3125,1.125,0.1875],"min":[0.125,0.75,-0.25],"type":"VEC3"},{"bufferView":57,"componentType":5126,"count":20,"max":[1,1,1],"min":[-1,0,-1],"type":"VEC3"},{"bufferView":58,"componentType":5126,"count":20,"max":[0.21875,0.21875],"min":[0,0],"type":"VEC2"},{"bufferView":59,"componentType":5123,"count":30,"max":[19],"min":[0],"type":"SCALAR"},{"bufferView":60,"componentType":5126,"count":20,"max":[0.5625,1.125,0.1875],"min":[0.375,0.75,-0.25],"type":"VEC3"},{"bufferView":61,"componentType":5126,"count":20,"max":[1,1,1],"min":[-1,0,-1],"type":"VEC3"},{"bufferView":62,"componentType":5126,"count":20,"max":[0.21875,0.21875],"min":[0,0],"type":"VEC2"},{"bufferView":63,"componentType":5123,"count":30,"max":[19],"min":[0],"type":"SCALAR"},{"bufferView":64,"componentType":5126,"count":20,"max":[-0.4375,1.75,0.1875],"min":[-0.625,1.375,-0.25],"type":"VEC3"},{"bufferView":65,"componentType":5126,"count":20,"max":[1,1,1],"min":[-1,0,-1],"type":"VEC3"},{"bufferView":66,"componentType":5126,"count":20,"max":[0.21875,0.21875],"min":[0,0],"type":"VEC2"},{"bufferView":67,"componentType":5123,"count":30,"max":[19],"min":[0],"type":"SCALAR"},{"bufferView":68,"componentType":5126,"count":20,"max":[-0.1875,1.75,0.1875],"min":[-0.375,1.375,-0.25],"type":"VEC3"},{"bufferView":69,"componentType":5126,"count":20,"max":[1,1,1],"min":[-1,0,-1],"type":"VEC3"},{"bufferView":70,"componentType":5126,"count":20,"max":[0.21875,0.21875],"min":[0,0],"type":"VEC2"},{"bufferView":71,"componentType":5123,"count":30,"max":[19],"min":[0],"type":"SCALAR"},{"bufferView":72,"componentType":5126,"count":20,"max":[0.0625,1.75,0.1875],"min":[-0.125,1.375,-0.25],"type":"VEC3"},{"bufferView":73,"componentType":5126,"count":20,"max":[1,1,1],"min":[-1,0,-1],"type":"VEC3"},{"bufferView":74,"componentType":5126,"count":20,"max":[0.21875,0.21875],"min":[0,0],"type":"VEC2"},{"bufferView":75,"componentType":5123,"count":30,"max":[19],"min":[0],"type":"SCALAR"},{"bufferView":76,"componentType":5126,"count":20,"max":[0.3125,1.75,0.1875],"min":[0.125,1.375,-0.25],"type":"VEC3"},{"bufferView":77,"componentType":5126,"count":20,"max":[1,1,1],"min":[-1,0,-1],"type":"VEC3"},{"bufferView":78,"componentType":5126,"count":20,"max":[0.21875,0.21875],"min":[0,0],"type":"VEC2"},{"bufferView":79,"componentType":5123,"count":30,"max":[19],"min":[0],"type":"SCALAR"},{"bufferView":80,"componentType":5126,"count":20,"max":[0.5625,1.75,0.1875],"min":[0.375,1.375,-0.25],"type":"VEC3"},{"bufferView":81,"componentType":5126,"count":20,"max":[1,1,1],"min":[-1,0,-1],"type":"VEC3"},{"bufferView":82,"componentType":5126,"count":20,"max":[0.21875,0.21875],"min":[0,0],"type":"VEC2"},{"bufferView":83,"componentType":5123,"count":30,"max":[19],"min":[0],"type":"SCALAR"},{"bufferView":84,"componentType":5126,"count":32,"max":[0.875,2,0.5],"min":[-0.875,0,0.375],"type":"VEC3"},{"bufferView":85,"componentType":5126,"count":32,"max":[1,1,1],"min":[-1,-1,-1],"type":"VEC3"},{"bufferView":86,"componentType":5126,"count":32,"max":[0.875,1],"min":[0,0],"type":"VEC2"},{"bufferView":87,"componentType":5123,"count":48,"max":[31],"min":[0],"type":"SCALAR"}],"materials":[{"pbrMetallicRoughness":{"metallicFactor":0,"roughnessFactor":1,"baseColorTexture":{"index":0}},"alphaMode":"MASK","alphaCutoff":0.05,"doubleSided":true},{"pbrMetallicRoughness":{"metallicFactor":0,"roughnessFactor":1,"baseColorTexture":{"index":1}},"alphaMode":"MASK","alphaCutoff":0.05,"doubleSided":true},{"pbrMetallicRoughness":{"metallicFactor":0,"roughnessFactor":1,"baseColorTexture":{"index":2}},"alphaMode":"MASK","alphaCutoff":0.05,"doubleSided":true},{"pbrMetallicRoughness":{"metallicFactor":0,"roughnessFactor":1,"baseColorTexture":{"index":3}},"alphaMode":"MASK","alphaCutoff":0.05,"doubleSided":true},{"pbrMetallicRoughness":{"metallicFactor":0,"roughnessFactor":1,"baseColorTexture":{"index":4}},"alphaMode":"MASK","alphaCutoff":0.05,"doubleSided":true},{"pbrMetallicRoughness":{"metallicFactor":0,"roughnessFactor":1,"baseColorTexture":{"index":5}},"alphaMode":"MASK","alphaCutoff":0.05,"doubleSided":true}],"textures":[{"sampler":0,"source":0,"name":"wood_dark.png"},{"sampler":1,"source":1,"name":"wood.png"},{"sampler":2,"source":2,"name":"cream.png"},{"sampler":3,"source":3,"name":"fabric.png"},{"sampler":4,"source":4,"name":"rust.png"},{"sampler":5,"source":5,"name":"fabric_blue.png"}],"samplers":[{"magFilter":9728,"minFilter":9728,"wrapS":10497,"wrapT":10497},{"magFilter":9728,"minFilter":9728,"wrapS":10497,"wrapT":10497},{"magFilter":9728,"minFilter":9728,"wrapS":10497,"wrapT":10497},{"magFilter":9728,"minFilter":9728,"wrapS":10497,"wrapT":10497},{"magFilter":9728,"minFilter":9728,"wrapS":10497,"wrapT":10497},{"magFilter":9728,"minFilter":9728,"wrapS":10497,"wrapT":10497}],"images":[{"mimeType":"image/png","uri":"../textures/wood_dark.png","name":"wood_dark"},{"mimeType":"image/png","uri":"../textures/wood.png","name":"wood"},{"mimeType":"image/png","uri":"../textures/cream.png","name":"cream"},{"mimeType":"image/png","uri":"../textures/fabric.png","name":"fabric"},{"mimeType":"image/png","uri":"../textures/rust.png","name":"rust"},{"mimeType":"image/png","uri":"../textures/fabric_blue.png","name":"fabric_blue"}],"meshes":[{"primitives":[{"mode":4,"attributes":{"POSITION":0,"NORMAL":1,"TEXCOORD_0":2},"indices":3,"material":0}]},{"primitives":[{"mode":4,"attributes":{"POSITION":4,"NORMAL":5,"TEXCOORD_0":6},"indices":7,"material":0}]},{"primitives":[{"mode":4,"attributes":{"POSITION":8,"NORMAL":9,"TEXCOORD_0":10},"indices":11,"material":1}]},{"primitives":[{"mode":4,"attributes":{"POSITION":12,"NORMAL":13,"TEXCOORD_0":14},"indices":15,"material":1}]},{"primitives":[{"mode":4,"attributes":{"POSITION":16,"NORMAL":17,"TEXCOORD_0":18},"indices":19,"material":1}]},{"primitives":[{"mode":4,"attributes":{"POSITION":20,"NORMAL":21,"TEXCOORD_0":22},"indices":23,"material":1}]},{"primitives":[{"mode":4,"attributes":{"POSITION":24,"NORMAL":25,"TEXCOORD_0":26},"indices":27,"material":2}]},{"primitives":[{"mode":4,"attributes":{"POSITION":28,"NORMAL":29,"TEXCOORD_0":30},"indices":31,"material":3}]},{"primitives":[{"mode":4,"attributes":{"POSITION":32,"NORMAL":33,"TEXCOORD_0":34},"indices":35,"material":4}]},{"primitives":[{"mode":4,"attributes":{"POSITION":36,"NORMAL":37,"TEXCOORD_0":38},"indices":39,"material":5}]},{"primitives":[{"mode":4,"attributes":{"POSITION":40,"NORMAL":41,"TEXCOORD_0":42},"indices":43,"material":1}]},{"primitives":[{"mode":4,"attributes":{"POSITION":44,"NORMAL":45,"TEXCOORD_0":46},"indices":47,"material":2}]},{"primitives":[{"mode":4,"attributes":{"POSITION":48,"NORMAL":49,"TEXCOORD_0":50},"indices":51,"material":3}]},{"primitives":[{"mode":4,"attributes":{"POSITION":52,"NORMAL":53,"TEXCOORD_0":54},"indices":55,"material":4}]},{"primitives":[{"mode":4,"attributes":{"POSITION":56,"NORMAL":57,"TEXCOORD_0":58},"indices":59,"material":5}]},{"primitives":[{"mode":4,"attributes":{"POSITION":60,"NORMAL":61,"TEXCOORD_0":62},"indices":63,"material":1}]},{"primitives":[{"mode":4,"attributes":{"POSITION":64,"NORMAL":65,"TEXCOORD_0":66},"indices":67,"material":2}]},{"primitives":[{"mode":4,"attributes":{"POSITION":68,"NORMAL":69,"TEXCOORD_0":70},"indices":71,"material":3}]},{"primitives":[{"mode":4,"attributes":{"POSITION":72,"NORMAL":73,"TEXCOORD_0":74},"indices":75,"material":4}]},{"primitives":[{"mode":4,"attributes":{"POSITION":76,"NORMAL":77,"TEXCOORD_0":78},"indices":79,"material":5}]},{"primitives":[{"mode":4,"attributes":{"POSITION":80,"NORMAL":81,"TEXCOORD_0":82},"indices":83,"material":1}]},{"primitives":[{"mode":4,"attributes":{"POSITION":84,"NORMAL":85,"TEXCOORD_0":86},"indices":87,"material":2}]}]}