{"asset":{"version":"2.0","generator":"Blockbench 5.1.6 glTF exporter"},"scenes":[{"nodes":[7,9,11,13],"name":"blockbench_export"}],"scene":0,"nodes":[{"name":"leg","mesh":0},{"name":"leg","mesh":1},{"name":"leg","mesh":2},{"name":"leg","mesh":3},{"name":"top","mesh":4},{"name":"drawer","mesh":5},{"name":"pull","mesh":6},{"name":"workbench_0_0_0_0","children":[0,1,2,3,4,5,6]},{"name":"tray","mesh":7},{"name":"tray","children":[8]},{"name":"bottle","mesh":8},{"name":"bottle","children":[10]},{"name":"supplies","mesh":9},{"name":"supplies","children":[12]}],"bufferViews":[{"buffer":0,"byteOffset":0,"byteLength":240,"target":34962,"byteStride":12},{"buffer":0,"byteOffset":240,"byteLength":240,"target":34962,"byteStride":12},{"buffer":0,"byteOffset":480,"byteLength":160,"target":34962,"byteStride":8},{"buffer":0,"byteOffset":640,"byteLength":60,"target":34963},{"buffer":0,"byteOffset":700,"byteLength":240,"target":34962,"byteStride":12},{"buffer":0,"byteOffset":940,"byteLength":240,"target":34962,"byteStride":12},{"buffer":0,"byteOffset":1180,"byteLength":160,"target":34962,"byteStride":8},{"buffer":0,"byteOffset":1340,"byteLength":60,"target":34963},{"buffer":0,"byteOffset":1400,"byteLength":336,"target":34962,"byteStride":12},{"buffer":0,"byteOffset":1736,"byteLength":336,"target":34962,"byteStride":12},{"buffer":0,"byteOffset":2072,"byteLength":224,"target":34962,"byteStride":8},{"buffer":0,"byteOffset":2296,"byteLength":84,"target":34963},{"buffer":0,"byteOffset":2380,"byteLength":336,"target":34962,"byteStride":12},{"buffer":0,"byteOffset":2716,"byteLength":336,"target":34962,"byteStride":12},{"buffer":0,"byteOffset":3052,"byteLength":224,"target":34962,"byteStride":8},{"buffer":0,"byteOffset":3276,"byteLength":84,"target":34963},{"buffer":0,"byteOffset":3360,"byteLength":912,"target":34962,"byteStride":12},{"buffer":0,"byteOffset":4272,"byteLength":912,"target":34962,"byteStride":12},{"buffer":0,"byteOffset":5184,"byteLength":608,"target":34962,"byteStride":8},{"buffer":0,"byteOffset":5792,"byteLength":228,"target":34963},{"buffer":0,"byteOffset":6020,"byteLength":432,"target":34962,"byteStride":12},{"buffer":0,"byteOffset":6452,"byteLength":432,"target":34962,"byteStride":12},{"buffer":0,"byteOffset":6884,"byteLength":288,"target":34962,"byteStride":8},{"buffer":0,"byteOffset":7172,"byteLength":108,"target":34963},{"buffer":0,"byteOffset":7280,"byteLength":240,"target":34962,"byteStride":12},{"buffer":0,"byteOffset":7520,"byteLength":240,"target":34962,"byteStride":12},{"buffer":0,"byteOffset":7760,"byteLength":160,"target":34962,"byteStride":8},{"buffer":0,"byteOffset":7920,"byteLength":60,"target":34963},{"buffer":0,"byteOffset":7980,"byteLength":528,"target":34962,"byteStride":12},{"buffer":0,"byteOffset":8508,"byteLength":528,"target":34962,"byteStride":12},{"buffer":0,"byteOffset":9036,"byteLength":352,"target":34962,"byteStride":8},{"buffer":0,"byteOffset":9388,"byteLength":132,"target":34963},{"buffer":0,"byteOffset":9520,"byteLength":240,"target":34962,"byteStride":12},{"buffer":0,"byteOffset":9760,"byteLength":240,"target":34962,"byteStride":12},{"buffer":0,"byteOffset":10000,"byteLength":160,"target":34962,"byteStride":8},{"buffer":0,"byteOffset":10160,"byteLength":60,"target":34963},{"buffer":0,"byteOffset":10220,"byteLength":240,"target":34962,"byteStride":12},{"buffer":0,"byteOffset":10460,"byteLength":240,"target":34962,"byteStride":12},{"buffer":0,"byteOffset":10700,"byteLength":160,"target":34962,"byteStride":8},{"buffer":0,"byteOffset":10860,"byteLength":60,"target":34963}],"buffers":[{"byteLength":10920,"uri":"data:application/octet-stream;base64,"}],"accessors":[{"bufferView":0,"componentType":5126,"count":20,"max":[-0.8125,0.875,-0.3125],"min":[-0.9375,0,-0.4375],"type":"VEC3"},{"bufferView":1,"componentType":5126,"count":20,"max":[1,0,1],"min":[-1,-1,-1],"type":"VEC3"},{"bufferView":2,"componentType":5126,"count":20,"max":[0.0625,0.4375],"min":[0,0],"type":"VEC2"},{"bufferView":3,"componentType":5123,"count":30,"max":[19],"min":[0],"type":"SCALAR"},{"bufferView":4,"componentType":5126,"count":20,"max":[-0.8125,0.875,0.4375],"min":[-0.9375,0,0.3125],"type":"VEC3"},{"bufferView":5,"componentType":5126,"count":20,"max":[1,0,1],"min":[-1,-1,-1],"type":"VEC3"},{"bufferView":6,"componentType":5126,"count":20,"max":[0.0625,0.4375],"min":[0,0],"type":"VEC2"},{"bufferView":7,"componentType":5123,"count":30,"max":[19],"min":[0],"type":"SCALAR"},{"bufferView":8,"componentType":5126,"count":28,"max":[0.9375,0.875,-0.3125],"min":[0.8125,0,-0.4375],"type":"VEC3"},{"bufferView":9,"componentType":5126,"count":28,"max":[1,0,1],"min":[-1,-1,-1],"type":"VEC3"},{"bufferView":10,"componentType":5126,"count":28,"max":[0.0625,0.4375],"min":[0,0],"type":"VEC2"},{"bufferView":11,"componentType":5123,"count":42,"max":[27],"min":[0],"type":"SCALAR"},{"bufferView":12,"componentType":5126,"count":28,"max":[0.9375,0.875,0.4375],"min":[0.8125,0,0.3125],"type":"VEC3"},{"bufferView":13,"componentType":5126,"count":28,"max":[1,0,1],"min":[-1,-1,-1],"type":"VEC3"},{"bufferView":14,"componentType":5126,"count":28,"max":[0.0625,0.4375],"min":[0,0],"type":"VEC2"},{"bufferView":15,"componentType":5123,"count":42,"max":[27],"min":[0],"type":"SCALAR"},{"bufferView":16,"componentType":5126,"count":76,"max":[1,1.0625,0.5],"min":[-1,0.875,-0.5],"type":"VEC3"},{"bufferView":17,"componentType":5126,"count":76,"max":[1,1,1],"min":[-1,-1,-1],"type":"VEC3"},{"bufferView":18,"componentType":5126,"count":76,"max":[1,0.5],"min":[0,0],"type":"VEC2"},{"bufferView":19,"componentType":5123,"count":114,"max":[75],"min":[0],"type":"SCALAR"},{"bufferView":20,"componentType":5126,"count":36,"max":[0.875,0.875,0.4375],"min":[0.375,0.3125,-0.4375],"type":"VEC3"},{"bufferView":21,"componentType":5126,"count":36,"max":[1,0,1],"min":[-1,-1,-1],"type":"VEC3"},{"bufferView":22,"componentType":5126,"count":36,"max":[0.4375,0.4375],"min":[0,0],"type":"VEC2"},{"bufferView":23,"componentType":5123,"count":54,"max":[35],"min":[0],"type":"SCALAR"},{"bufferView":24,"componentType":5126,"count":20,"max":[0.75,0.6875,-0.4375],"min":[0.5625,0.625,-0.5],"type":"VEC3"},{"bufferView":25,"componentType":5126,"count":20,"max":[1,1,0],"min":[-1,-1,-1],"type":"VEC3"},{"bufferView":26,"componentType":5126,"count":20,"max":[0.09375,0.03125],"min":[0,0],"type":"VEC2"},{"bufferView":27,"componentType":5123,"count":30,"max":[19],"min":[0],"type":"SCALAR"},{"bufferView":28,"componentType":5126,"count":44,"max":[0.75,1.125,0.3125],"min":[-0.75,1.0625,-0.3125],"type":"VEC3"},{"bufferView":29,"componentType":5126,"count":44,"max":[1,1,1],"min":[-1,0,-1],"type":"VEC3"},{"bufferView":30,"componentType":5126,"count":44,"max":[0.75,0.3125],"min":[0,0],"type":"VEC2"},{"bufferView":31,"componentType":5123,"count":66,"max":[43],"min":[0],"type":"SCALAR"},{"bufferView":32,"componentType":5126,"count":20,"max":[-0.3125,1.4375,0],"min":[-0.5,1.125,-0.1875],"type":"VEC3"},{"bufferView":33,"componentType":5126,"count":20,"max":[1,1,1],"min":[-1,0,-1],"type":"VEC3"},{"bufferView":34,"componentType":5126,"count":20,"max":[0.09375,0.15625],"min":[0,0],"type":"VEC2"},{"bufferView":35,"componentType":5123,"count":30,"max":[19],"min":[0],"type":"SCALAR"},{"bufferView":36,"componentType":5126,"count":20,"max":[0.5625,1.3125,0.25],"min":[0,1.125,-0.1875],"type":"VEC3"},{"bufferView":37,"componentType":5126,"count":20,"max":[1,1,1],"min":[-1,0,-1],"type":"VEC3"},{"bufferView":38,"componentType":5126,"count":20,"max":[0.28125,0.21875],"min":[0,0],"type":"VEC2"},{"bufferView":39,"componentType":5123,"count":30,"max":[19],"min":[0],"type":"SCALAR"}],"materials":[{"pbrMetallicRoughness":{"metallicFactor":0,"roughnessFactor":1,"baseColorTexture":{"index":0}},"alphaMode":"MASK","alphaCutoff":0.05,"doubleSided":true},{"pbrMetallicRoughness":{"metallicFactor":0,"roughnessFactor":1,"baseColorTexture":{"index":1}},"alphaMode":"MASK","alphaCutoff":0.05,"doubleSided":true},{"pbrMetallicRoughness":{"metallicFactor":0,"roughnessFactor":1,"baseColorTexture":{"index":2}},"alphaMode":"MASK","alphaCutoff":0.05,"doubleSided":true},{"pbrMetallicRoughness":{"metallicFactor":0,"roughnessFactor":1,"baseColorTexture":{"index":3}},"alphaMode":"MASK","alphaCutoff":0.05,"doubleSided":true}],"textures":[{"sampler":0,"source":0,"name":"metal.png"},{"sampler":1,"source":1,"name":"cream.png"},{"sampler":2,"source":2,"name":"glass.png"},{"sampler":3,"source":3,"name":"paper.png"}],"samplers":[{"magFilter":9728,"minFilter":9728,"wrapS":10497,"wrapT":10497},{"magFilter":9728,"minFilter":9728,"wrapS":10497,"wrapT":10497},{"magFilter":9728,"minFilter":9728,"wrapS":10497,"wrapT":10497},{"magFilter":9728,"minFilter":9728,"wrapS":10497,"wrapT":10497}],"images":[{"mimeType":"image/png","uri":"../textures/metal.png","name":"metal"},{"mimeType":"image/png","uri":"../textures/cream.png","name":"cream"},{"mimeType":"image/png","uri":"../textures/glass.png","name":"glass"},{"mimeType":"image/png","uri":"../textures/paper.png","name":"paper"}],"meshes":[{"primitives":[{"mode":4,"attributes":{"POSITION":0,"NORMAL":1,"TEXCOORD_0":2},"indices":3,"material":0}]},{"primitives":[{"mode":4,"attributes":{"POSITION":4,"NORMAL":5,"TEXCOORD_0":6},"indices":7,"material":0}]},{"primitives":[{"mode":4,"attributes":{"POSITION":8,"NORMAL":9,"TEXCOORD_0":10},"indices":11,"material":0}]},{"primitives":[{"mode":4,"attributes":{"POSITION":12,"NORMAL":13,"TEXCOORD_0":14},"indices":15,"material":0}]},{"primitives":[{"mode":4,"attributes":{"POSITION":16,"NORMAL":17,"TEXCOORD_0":18},"indices":19,"material":0}]},{"primitives":[{"mode":4,"attributes":{"POSITION":20,"NORMAL":21,"TEXCOORD_0":22},"indices":23,"material":0}]},{"primitives":[{"mode":4,"attributes":{"POSITION":24,"NORMAL":25,"TEXCOORD_0":26},"indices":27,"material":0}]},{"primitives":[{"mode":4,"attributes":{"POSITION":28,"NORMAL":29,"TEXCOORD_0":30},"indices":31,"material":1}]},{"primitives":[{"mode":4,"attributes":{"POSITION":32,"NORMAL":33,"TEXCOORD_0":34},"indices":35,"material":2}]},{"primitives":[{"mode":4,"attributes":{"POSITION":36,"NORMAL":37,"TEXCOORD_0":38},"indices":39,"material":3}]}]}