{"asset":{"version":"2.0","generator":"Blockbench 5.1.6 glTF exporter"},"scenes":[{"nodes":[1,3,5,7,9,11],"name":"blockbench_export"}],"scene":0,"nodes":[{"name":"cabinet","mesh":0},{"name":"cabinet","children":[0]},{"name":"drawer","mesh":1},{"name":"drawer","children":[2]},{"name":"pull","mesh":2},{"name":"pull","children":[4]},{"name":"lamp_base","mesh":3},{"name":"lamp_base","children":[6]},{"name":"lamp_stem","mesh":4},{"name":"lamp_stem","children":[8]},{"name":"shade","mesh":5},{"name":"shade","children":[10]}],"bufferViews":[{"buffer":0,"byteOffset":0,"byteLength":576,"target":34962,"byteStride":12},{"buffer":0,"byteOffset":576,"byteLength":576,"target":34962,"byteStride":12},{"buffer":0,"byteOffset":1152,"byteLength":384,"target":34962,"byteStride":8},{"buffer":0,"byteOffset":1536,"byteLength":144,"target":34963},{"buffer":0,"byteOffset":1680,"byteLength":240,"target":34962,"byteStride":12},{"buffer":0,"byteOffset":1920,"byteLength":240,"target":34962,"byteStride":12},{"buffer":0,"byteOffset":2160,"byteLength":160,"target":34962,"byteStride":8},{"buffer":0,"byteOffset":2320,"byteLength":60,"target":34963},{"buffer":0,"byteOffset":2380,"byteLength":288,"target":34962,"byteStride":12},{"buffer":0,"byteOffset":2668,"byteLength":288,"target":34962,"byteStride":12},{"buffer":0,"byteOffset":2956,"byteLength":192,"target":34962,"byteStride":8},{"buffer":0,"byteOffset":3148,"byteLength":72,"target":34963},{"buffer":0,"byteOffset":3220,"byteLength":384,"target":34962,"byteStride":12},{"buffer":0,"byteOffset":3604,"byteLength":384,"target":34962,"byteStride":12},{"buffer":0,"byteOffset":3988,"byteLength":256,"target":34962,"byteStride":8},{"buffer":0,"byteOffset":4244,"byteLength":96,"target":34963},{"buffer":0,"byteOffset":4340,"byteLength":192,"target":34962,"byteStride":12},{"buffer":0,"byteOffset":4532,"byteLength":192,"target":34962,"byteStride":12},{"buffer":0,"byteOffset":4724,"byteLength":128,"target":34962,"byteStride":8},{"buffer":0,"byteOffset":4852,"byteLength":48,"target":34963},{"buffer":0,"byteOffset":4900,"byteLength":432,"target":34962,"byteStride":12},{"buffer":0,"byteOffset":5332,"byteLength":432,"target":34962,"byteStride":12},{"buffer":0,"byteOffset":5764,"byteLength":288,"target":34962,"byteStride":8},{"buffer":0,"byteOffset":6052,"byteLength":108,"target":34963}],"buffers":[{"byteLength":6160,"uri":"data:application/octet-stream;base64,"}],"accessors":[{"bufferView":0,"componentType":5126,"count":48,"max":[0.375,0.6875,0.375],"min":[-0.375,0,-0.375],"type":"VEC3"},{"bufferView":1,"componentType":5126,"count":48,"max":[1,1,1],"min":[-1,-1,-1],"type":"VEC3"},{"bufferView":2,"componentType":5126,"count":48,"max":[0.375,0.375],"min":[0,0],"type":"VEC2"},{"bufferView":3,"componentType":5123,"count":72,"max":[47],"min":[0],"type":"SCALAR"},{"bufferView":4,"componentType":5126,"count":20,"max":[0.3125,0.5625,-0.375],"min":[-0.3125,0.3125,-0.390625],"type":"VEC3"},{"bufferView":5,"componentType":5126,"count":20,"max":[1,1,0],"min":[-1,-1,-1],"type":"VEC3"},{"bufferView":6,"componentType":5126,"count":20,"max":[0.3125,0.125],"min":[0,0],"type":"VEC2"},{"bufferView":7,"componentType":5123,"count":30,"max":[19],"min":[0],"type":"SCALAR"},{"bufferView":8,"componentType":5126,"count":24,"max":[0.125,0.5,-0.40625],"min":[-0.125,0.4375,-0.4375],"type":"VEC3"},{"bufferView":9,"componentType":5126,"count":24,"max":[1,1,1],"min":[-1,-1,-1],"type":"VEC3"},{"bufferView":10,"componentType":5126,"count":24,"max":[0.125,0.03125],"min":[0,0],"type":"VEC2"},{"bufferView":11,"componentType":5123,"count":36,"max":[23],"min":[0],"type":"SCALAR"},{"bufferView":12,"componentType":5126,"count":32,"max":[0.1875,0.75,0.1875],"min":[-0.1875,0.6875,-0.1875],"type":"VEC3"},{"bufferView":13,"componentType":5126,"count":32,"max":[1,1,1],"min":[-1,0,-1],"type":"VEC3"},{"bufferView":14,"componentType":5126,"count":32,"max":[0.1875,0.1875],"min":[0,0],"type":"VEC2"},{"bufferView":15,"componentType":5123,"count":48,"max":[31],"min":[0],"type":"SCALAR"},{"bufferView":16,"componentType":5126,"count":16,"max":[0.0625,1.125,0.0625],"min":[-0.0625,0.75,-0.0625],"type":"VEC3"},{"bufferView":17,"componentType":5126,"count":16,"max":[1,0,1],"min":[-1,0,-1],"type":"VEC3"},{"bufferView":18,"componentType":5126,"count":16,"max":[0.0625,0.1875],"min":[0,0],"type":"VEC2"},{"bufferView":19,"componentType":5123,"count":24,"max":[15],"min":[0],"type":"SCALAR"},{"bufferView":20,"componentType":5126,"count":36,"max":[0.25,1.4375,0.25],"min":[-0.25,1.125,-0.25],"type":"VEC3"},{"bufferView":21,"componentType":5126,"count":36,"max":[1,1,1],"min":[-1,-1,-1],"type":"VEC3"},{"bufferView":22,"componentType":5126,"count":36,"max":[0.25,0.25],"min":[0,0],"type":"VEC2"},{"bufferView":23,"componentType":5123,"count":54,"max":[35],"min":[0],"type":"SCALAR"}],"materials":[{"pbrMetallicRoughness":{"metallicFactor":0,"roughnessFactor":1,"baseColorTexture":{"index":0}},"alphaMode":"MASK","alphaCutoff":0.05,"doubleSided":true},{"pbrMetallicRoughness":{"metallicFactor":0,"roughnessFactor":1,"baseColorTexture":{"index":1}},"alphaMode":"MASK","alphaCutoff":0.05,"doubleSided":true},{"pbrMetallicRoughness":{"metallicFactor":0,"roughnessFactor":1,"baseColorTexture":{"index":2}},"alphaMode":"MASK","alphaCutoff":0.05,"doubleSided":true},{"pbrMetallicRoughness":{"metallicFactor":0,"roughnessFactor":1,"baseColorTexture":{"index":3}},"alphaMode":"MASK","alphaCutoff":0.05,"doubleSided":true}],"textures":[{"sampler":0,"source":0,"name":"wood.png"},{"sampler":1,"source":1,"name":"wood_dark.png"},{"sampler":2,"source":2,"name":"metal.png"},{"sampler":3,"source":3,"name":"cream.png"}],"samplers":[{"magFilter":9728,"minFilter":9728,"wrapS":10497,"wrapT":10497},{"magFilter":9728,"minFilter":9728,"wrapS":10497,"wrapT":10497},{"magFilter":9728,"minFilter":9728,"wrapS":10497,"wrapT":10497},{"magFilter":9728,"minFilter":9728,"wrapS":10497,"wrapT":10497}],"images":[{"mimeType":"image/png","uri":"../textures/wood.png","name":"wood"},{"mimeType":"image/png","uri":"../textures/wood_dark.png","name":"wood_dark"},{"mimeType":"image/png","uri":"../textures/metal.png","name":"metal"},{"mimeType":"image/png","uri":"../textures/cream.png","name":"cream"}],"meshes":[{"primitives":[{"mode":4,"attributes":{"POSITION":0,"NORMAL":1,"TEXCOORD_0":2},"indices":3,"material":0}]},{"primitives":[{"mode":4,"attributes":{"POSITION":4,"NORMAL":5,"TEXCOORD_0":6},"indices":7,"material":1}]},{"primitives":[{"mode":4,"attributes":{"POSITION":8,"NORMAL":9,"TEXCOORD_0":10},"indices":11,"material":2}]},{"primitives":[{"mode":4,"attributes":{"POSITION":12,"NORMAL":13,"TEXCOORD_0":14},"indices":15,"material":2}]},{"primitives":[{"mode":4,"attributes":{"POSITION":16,"NORMAL":17,"TEXCOORD_0":18},"indices":19,"material":2}]},{"primitives":[{"mode":4,"attributes":{"POSITION":20,"NORMAL":21,"TEXCOORD_0":22},"indices":23,"material":3}]}]}