{"asset":{"version":"2.0","generator":"Blockbench 5.1.6 glTF exporter"},"scenes":[{"nodes":[3,9],"name":"blockbench_export"}],"scene":0,"nodes":[{"name":"runner","mesh":0},{"name":"runner","mesh":1},{"name":"runner","mesh":2},{"name":"runner","children":[0,1,2]},{"name":"slat","mesh":3},{"name":"slat","mesh":4},{"name":"slat","mesh":5},{"name":"slat","mesh":6},{"name":"slat","mesh":7},{"name":"slat","children":[4,5,6,7,8]}],"bufferViews":[{"buffer":0,"byteOffset":0,"byteLength":432,"target":34962,"byteStride":12},{"buffer":0,"byteOffset":432,"byteLength":432,"target":34962,"byteStride":12},{"buffer":0,"byteOffset":864,"byteLength":288,"target":34962,"byteStride":8},{"buffer":0,"byteOffset":1152,"byteLength":108,"target":34963},{"buffer":0,"byteOffset":1260,"byteLength":432,"target":34962,"byteStride":12},{"buffer":0,"byteOffset":1692,"byteLength":432,"target":34962,"byteStride":12},{"buffer":0,"byteOffset":2124,"byteLength":288,"target":34962,"byteStride":8},{"buffer":0,"byteOffset":2412,"byteLength":108,"target":34963},{"buffer":0,"byteOffset":2520,"byteLength":432,"target":34962,"byteStride":12},{"buffer":0,"byteOffset":2952,"byteLength":432,"target":34962,"byteStride":12},{"buffer":0,"byteOffset":3384,"byteLength":288,"target":34962,"byteStride":8},{"buffer":0,"byteOffset":3672,"byteLength":108,"target":34963},{"buffer":0,"byteOffset":3780,"byteLength":432,"target":34962,"byteStride":12},{"buffer":0,"byteOffset":4212,"byteLength":432,"target":34962,"byteStride":12},{"buffer":0,"byteOffset":4644,"byteLength":288,"target":34962,"byteStride":8},{"buffer":0,"byteOffset":4932,"byteLength":108,"target":34963},{"buffer":0,"byteOffset":5040,"byteLength":432,"target":34962,"byteStride":12},{"buffer":0,"byteOffset":5472,"byteLength":432,"target":34962,"byteStride":12},{"buffer":0,"byteOffset":5904,"byteLength":288,"target":34962,"byteStride":8},{"buffer":0,"byteOffset":6192,"byteLength":108,"target":34963},{"buffer":0,"byteOffset":6300,"byteLength":432,"target":34962,"byteStride":12},{"buffer":0,"byteOffset":6732,"byteLength":432,"target":34962,"byteStride":12},{"buffer":0,"byteOffset":7164,"byteLength":288,"target":34962,"byteStride":8},{"buffer":0,"byteOffset":7452,"byteLength":108,"target":34963},{"buffer":0,"byteOffset":7560,"byteLength":432,"target":34962,"byteStride":12},{"buffer":0,"byteOffset":7992,"byteLength":432,"target":34962,"byteStride":12},{"buffer":0,"byteOffset":8424,"byteLength":288,"target":34962,"byteStride":8},{"buffer":0,"byteOffset":8712,"byteLength":108,"target":34963},{"buffer":0,"byteOffset":8820,"byteLength":432,"target":34962,"byteStride":12},{"buffer":0,"byteOffset":9252,"byteLength":432,"target":34962,"byteStride":12},{"buffer":0,"byteOffset":9684,"byteLength":288,"target":34962,"byteStride":8},{"buffer":0,"byteOffset":9972,"byteLength":108,"target":34963}],"buffers":[{"byteLength":10080,"uri":"data:application/octet-stream;base64,"}],"accessors":[{"bufferView":0,"componentType":5126,"count":36,"max":[-0.6875,0.1875,0.875],"min":[-0.8125,0,-0.875],"type":"VEC3"},{"bufferView":1,"componentType":5126,"count":36,"max":[1,1,1],"min":[-1,-1,-1],"type":"VEC3"},{"bufferView":2,"componentType":5126,"count":36,"max":[0.875,0.875],"min":[0,0],"type":"VEC2"},{"bufferView":3,"componentType":5123,"count":54,"max":[35],"min":[0],"type":"SCALAR"},{"bufferView":4,"componentType":5126,"count":36,"max":[0.0625,0.1875,0.875],"min":[-0.0625,0,-0.875],"type":"VEC3"},{"bufferView":5,"componentType":5126,"count":36,"max":[1,1,1],"min":[-1,-1,-1],"type":"VEC3"},{"bufferView":6,"componentType":5126,"count":36,"max":[0.875,0.875],"min":[0,0],"type":"VEC2"},{"bufferView":7,"componentType":5123,"count":54,"max":[35],"min":[0],"type":"SCALAR"},{"bufferView":8,"componentType":5126,"count":36,"max":[0.8125,0.1875,0.875],"min":[0.6875,0,-0.875],"type":"VEC3"},{"bufferView":9,"componentType":5126,"count":36,"max":[1,1,1],"min":[-1,-1,-1],"type":"VEC3"},{"bufferView":10,"componentType":5126,"count":36,"max":[0.875,0.875],"min":[0,0],"type":"VEC2"},{"bufferView":11,"componentType":5123,"count":54,"max":[35],"min":[0],"type":"SCALAR"},{"bufferView":12,"componentType":5126,"count":36,"max":[0.875,0.3125,-0.625],"min":[-0.875,0.1875,-0.875],"type":"VEC3"},{"bufferView":13,"componentType":5126,"count":36,"max":[1,1,1],"min":[-1,-1,-1],"type":"VEC3"},{"bufferView":14,"componentType":5126,"count":36,"max":[0.875,0.125],"min":[0,0],"type":"VEC2"},{"bufferView":15,"componentType":5123,"count":54,"max":[35],"min":[0],"type":"SCALAR"},{"bufferView":16,"componentType":5126,"count":36,"max":[0.875,0.3125,-0.25],"min":[-0.875,0.1875,-0.5],"type":"VEC3"},{"bufferView":17,"componentType":5126,"count":36,"max":[1,1,1],"min":[-1,-1,-1],"type":"VEC3"},{"bufferView":18,"componentType":5126,"count":36,"max":[0.875,0.125],"min":[0,0],"type":"VEC2"},{"bufferView":19,"componentType":5123,"count":54,"max":[35],"min":[0],"type":"SCALAR"},{"bufferView":20,"componentType":5126,"count":36,"max":[0.875,0.3125,0.125],"min":[-0.875,0.1875,-0.125],"type":"VEC3"},{"bufferView":21,"componentType":5126,"count":36,"max":[1,1,1],"min":[-1,-1,-1],"type":"VEC3"},{"bufferView":22,"componentType":5126,"count":36,"max":[0.875,0.125],"min":[0,0],"type":"VEC2"},{"bufferView":23,"componentType":5123,"count":54,"max":[35],"min":[0],"type":"SCALAR"},{"bufferView":24,"componentType":5126,"count":36,"max":[0.875,0.3125,0.5],"min":[-0.875,0.1875,0.25],"type":"VEC3"},{"bufferView":25,"componentType":5126,"count":36,"max":[1,1,1],"min":[-1,-1,-1],"type":"VEC3"},{"bufferView":26,"componentType":5126,"count":36,"max":[0.875,0.125],"min":[0,0],"type":"VEC2"},{"bufferView":27,"componentType":5123,"count":54,"max":[35],"min":[0],"type":"SCALAR"},{"bufferView":28,"componentType":5126,"count":36,"max":[0.875,0.3125,0.875],"min":[-0.875,0.1875,0.625],"type":"VEC3"},{"bufferView":29,"componentType":5126,"count":36,"max":[1,1,1],"min":[-1,-1,-1],"type":"VEC3"},{"bufferView":30,"componentType":5126,"count":36,"max":[0.875,0.125],"min":[0,0],"type":"VEC2"},{"bufferView":31,"componentType":5123,"count":54,"max":[35],"min":[0],"type":"SCALAR"}],"materials":[{"pbrMetallicRoughness":{"metallicFactor":0,"roughnessFactor":1,"baseColorTexture":{"index":0}},"alphaMode":"MASK","alphaCutoff":0.05,"doubleSided":true},{"pbrMetallicRoughness":{"metallicFactor":0,"roughnessFactor":1,"baseColorTexture":{"index":1}},"alphaMode":"MASK","alphaCutoff":0.05,"doubleSided":true}],"textures":[{"sampler":0,"source":0,"name":"wood_dark.png"},{"sampler":1,"source":1,"name":"wood.png"}],"samplers":[{"magFilter":9728,"minFilter":9728,"wrapS":10497,"wrapT":10497},{"magFilter":9728,"minFilter":9728,"wrapS":10497,"wrapT":10497}],"images":[{"mimeType":"image/png","uri":"../textures/wood_dark.png","name":"wood_dark"},{"mimeType":"image/png","uri":"../textures/wood.png","name":"wood"}],"meshes":[{"primitives":[{"mode":4,"attributes":{"POSITION":0,"NORMAL":1,"TEXCOORD_0":2},"indices":3,"material":0}]},{"primitives":[{"mode":4,"attributes":{"POSITION":4,"NORMAL":5,"TEXCOORD_0":6},"indices":7,"material":0}]},{"primitives":[{"mode":4,"attributes":{"POSITION":8,"NORMAL":9,"TEXCOORD_0":10},"indices":11,"material":0}]},{"primitives":[{"mode":4,"attributes":{"POSITION":12,"NORMAL":13,"TEXCOORD_0":14},"indices":15,"material":1}]},{"primitives":[{"mode":4,"attributes":{"POSITION":16,"NORMAL":17,"TEXCOORD_0":18},"indices":19,"material":1}]},{"primitives":[{"mode":4,"attributes":{"POSITION":20,"NORMAL":21,"TEXCOORD_0":22},"indices":23,"material":1}]},{"primitives":[{"mode":4,"attributes":{"POSITION":24,"NORMAL":25,"TEXCOORD_0":26},"indices":27,"material":1}]},{"primitives":[{"mode":4,"attributes":{"POSITION":28,"NORMAL":29,"TEXCOORD_0":30},"indices":31,"material":1}]}]}