{"asset":{"version":"2.0","generator":"Blockbench 5.1.6 glTF exporter"},"scenes":[{"nodes":[2,5,7],"name":"blockbench_export"}],"scene":0,"nodes":[{"name":"stand","mesh":0},{"name":"stand","mesh":1},{"name":"stand","children":[0,1]},{"name":"post","mesh":2},{"name":"post","mesh":3},{"name":"post","children":[3,4]},{"name":"curtain","mesh":4},{"name":"curtain","children":[6]}],"bufferViews":[{"buffer":0,"byteOffset":0,"byteLength":480,"target":34962,"byteStride":12},{"buffer":0,"byteOffset":480,"byteLength":480,"target":34962,"byteStride":12},{"buffer":0,"byteOffset":960,"byteLength":320,"target":34962,"byteStride":8},{"buffer":0,"byteOffset":1280,"byteLength":120,"target":34963},{"buffer":0,"byteOffset":1400,"byteLength":480,"target":34962,"byteStride":12},{"buffer":0,"byteOffset":1880,"byteLength":480,"target":34962,"byteStride":12},{"buffer":0,"byteOffset":2360,"byteLength":320,"target":34962,"byteStride":8},{"buffer":0,"byteOffset":2680,"byteLength":120,"target":34963},{"buffer":0,"byteOffset":2800,"byteLength":336,"target":34962,"byteStride":12},{"buffer":0,"byteOffset":3136,"byteLength":336,"target":34962,"byteStride":12},{"buffer":0,"byteOffset":3472,"byteLength":224,"target":34962,"byteStride":8},{"buffer":0,"byteOffset":3696,"byteLength":84,"target":34963},{"buffer":0,"byteOffset":3780,"byteLength":336,"target":34962,"byteStride":12},{"buffer":0,"byteOffset":4116,"byteLength":336,"target":34962,"byteStride":12},{"buffer":0,"byteOffset":4452,"byteLength":224,"target":34962,"byteStride":8},{"buffer":0,"byteOffset":4676,"byteLength":84,"target":34963},{"buffer":0,"byteOffset":4760,"byteLength":192,"target":34962,"byteStride":12},{"buffer":0,"byteOffset":4952,"byteLength":192,"target":34962,"byteStride":12},{"buffer":0,"byteOffset":5144,"byteLength":128,"target":34962,"byteStride":8},{"buffer":0,"byteOffset":5272,"byteLength":48,"target":34963}],"buffers":[{"byteLength":5320,"uri":"data:application/octet-stream;base64,"}],"accessors":[{"bufferView":0,"componentType":5126,"count":40,"max":[-0.875,0.0625,0.3125],"min":[-1,0,-0.3125],"type":"VEC3"},{"bufferView":1,"componentType":5126,"count":40,"max":[1,1,1],"min":[-1,-1,-1],"type":"VEC3"},{"bufferView":2,"componentType":5126,"count":40,"max":[0.3125,0.3125],"min":[0,0],"type":"VEC2"},{"bufferView":3,"componentType":5123,"count":60,"max":[39],"min":[0],"type":"SCALAR"},{"bufferView":4,"componentType":5126,"count":40,"max":[1,0.0625,0.3125],"min":[0.875,0,-0.3125],"type":"VEC3"},{"bufferView":5,"componentType":5126,"count":40,"max":[1,1,1],"min":[-1,-1,-1],"type":"VEC3"},{"bufferView":6,"componentType":5126,"count":40,"max":[0.3125,0.3125],"min":[0,0],"type":"VEC2"},{"bufferView":7,"componentType":5123,"count":60,"max":[39],"min":[0],"type":"SCALAR"},{"bufferView":8,"componentType":5126,"count":28,"max":[-0.875,1.875,0.0625],"min":[-1,0,-0.0625],"type":"VEC3"},{"bufferView":9,"componentType":5126,"count":28,"max":[1,1,1],"min":[-1,-1,-1],"type":"VEC3"},{"bufferView":10,"componentType":5126,"count":28,"max":[0.0625,0.9375],"min":[0,0],"type":"VEC2"},{"bufferView":11,"componentType":5123,"count":42,"max":[27],"min":[0],"type":"SCALAR"},{"bufferView":12,"componentType":5126,"count":28,"max":[1,1.875,0.0625],"min":[0.875,0,-0.0625],"type":"VEC3"},{"bufferView":13,"componentType":5126,"count":28,"max":[1,1,1],"min":[-1,-1,-1],"type":"VEC3"},{"bufferView":14,"componentType":5126,"count":28,"max":[0.0625,0.9375],"min":[0,0],"type":"VEC2"},{"bufferView":15,"componentType":5123,"count":42,"max":[27],"min":[0],"type":"SCALAR"},{"bufferView":16,"componentType":5126,"count":16,"max":[0.875,1.8125,0.0625],"min":[-0.875,0.5,-0.0625],"type":"VEC3"},{"bufferView":17,"componentType":5126,"count":16,"max":[0,1,1],"min":[0,-1,-1],"type":"VEC3"},{"bufferView":18,"componentType":5126,"count":16,"max":[0.875,0.65625],"min":[0,0],"type":"VEC2"},{"bufferView":19,"componentType":5123,"count":24,"max":[15],"min":[0],"type":"SCALAR"}],"materials":[{"pbrMetallicRoughness":{"metallicFactor":0,"roughnessFactor":1,"baseColorTexture":{"index":0}},"alphaMode":"MASK","alphaCutoff":0.05,"doubleSided":true},{"pbrMetallicRoughness":{"metallicFactor":0,"roughnessFactor":1,"baseColorTexture":{"index":1}},"alphaMode":"MASK","alphaCutoff":0.05,"doubleSided":true}],"textures":[{"sampler":0,"source":0,"name":"metal.png"},{"sampler":1,"source":1,"name":"fabric_blue.png"}],"samplers":[{"magFilter":9728,"minFilter":9728,"wrapS":10497,"wrapT":10497},{"magFilter":9728,"minFilter":9728,"wrapS":10497,"wrapT":10497}],"images":[{"mimeType":"image/png","uri":"../textures/metal.png","name":"metal"},{"mimeType":"image/png","uri":"../textures/fabric_blue.png","name":"fabric_blue"}],"meshes":[{"primitives":[{"mode":4,"attributes":{"POSITION":0,"NORMAL":1,"TEXCOORD_0":2},"indices":3,"material":0}]},{"primitives":[{"mode":4,"attributes":{"POSITION":4,"NORMAL":5,"TEXCOORD_0":6},"indices":7,"material":0}]},{"primitives":[{"mode":4,"attributes":{"POSITION":8,"NORMAL":9,"TEXCOORD_0":10},"indices":11,"material":0}]},{"primitives":[{"mode":4,"attributes":{"POSITION":12,"NORMAL":13,"TEXCOORD_0":14},"indices":15,"material":0}]},{"primitives":[{"mode":4,"attributes":{"POSITION":16,"NORMAL":17,"TEXCOORD_0":18},"indices":19,"material":1}]}]}