{"asset":{"version":"2.0","generator":"Blockbench 5.1.6 glTF exporter"},"scenes":[{"nodes":[1,3,28],"name":"blockbench_export"}],"scene":0,"nodes":[{"name":"bin","mesh":0},{"name":"bin","children":[0]},{"name":"fill","mesh":1},{"name":"fill","children":[2]},{"name":"produce","mesh":2},{"name":"produce","mesh":3},{"name":"produce","mesh":4},{"name":"produce","mesh":5},{"name":"produce","mesh":6},{"name":"produce","mesh":7},{"name":"produce","mesh":8},{"name":"produce","mesh":9},{"name":"produce","mesh":10},{"name":"produce","mesh":11},{"name":"produce","mesh":12},{"name":"produce","mesh":13},{"name":"produce","mesh":14},{"name":"produce","mesh":15},{"name":"produce","mesh":16},{"name":"produce","mesh":17},{"name":"produce","mesh":18},{"name":"produce","mesh":19},{"name":"produce","mesh":20},{"name":"produce","mesh":21},{"name":"produce","mesh":22},{"name":"produce","mesh":23},{"name":"produce","mesh":24},{"name":"produce","mesh":25},{"name":"produce","children":[4,5,6,7,8,9,10,11,12,13,14,15,16,17,18,19,20,21,22,23,24,25,26,27]}],"bufferViews":[{"buffer":0,"byteOffset":0,"byteLength":432,"target":34962,"byteStride":12},{"buffer":0,"byteOffset":432,"byteLength":432,"target":34962,"byteStride":12},{"buffer":0,"byteOffset":864,"byteLength":288,"target":34962,"byteStride":8},{"buffer":0,"byteOffset":1152,"byteLength":108,"target":34963},{"buffer":0,"byteOffset":1260,"byteLength":1344,"target":34962,"byteStride":12},{"buffer":0,"byteOffset":2604,"byteLength":1344,"target":34962,"byteStride":12},{"buffer":0,"byteOffset":3948,"byteLength":896,"target":34962,"byteStride":8},{"buffer":0,"byteOffset":4844,"byteLength":336,"target":34963},{"buffer":0,"byteOffset":5180,"byteLength":240,"target":34962,"byteStride":12},{"buffer":0,"byteOffset":5420,"byteLength":240,"target":34962,"byteStride":12},{"buffer":0,"byteOffset":5660,"byteLength":160,"target":34962,"byteStride":8},{"buffer":0,"byteOffset":5820,"byteLength":60,"target":34963},{"buffer":0,"byteOffset":5880,"byteLength":288,"target":34962,"byteStride":12},{"buffer":0,"byteOffset":6168,"byteLength":288,"target":34962,"byteStride":12},{"buffer":0,"byteOffset":6456,"byteLength":192,"target":34962,"byteStride":8},{"buffer":0,"byteOffset":6648,"byteLength":72,"target":34963},{"buffer":0,"byteOffset":6720,"byteLength":240,"target":34962,"byteStride":12},{"buffer":0,"byteOffset":6960,"byteLength":240,"target":34962,"byteStride":12},{"buffer":0,"byteOffset":7200,"byteLength":160,"target":34962,"byteStride":8},{"buffer":0,"byteOffset":7360,"byteLength":60,"target":34963},{"buffer":0,"byteOffset":7420,"byteLength":288,"target":34962,"byteStride":12},{"buffer":0,"byteOffset":7708,"byteLength":288,"target":34962,"byteStride":12},{"buffer":0,"byteOffset":7996,"byteLength":192,"target":34962,"byteStride":8},{"buffer":0,"byteOffset":8188,"byteLength":72,"target":34963},{"buffer":0,"byteOffset":8260,"byteLength":288,"target":34962,"byteStride":12},{"buffer":0,"byteOffset":8548,"byteLength":288,"target":34962,"byteStride":12},{"buffer":0,"byteOffset":8836,"byteLength":192,"target":34962,"byteStride":8},{"buffer":0,"byteOffset":9028,"byteLength":72,"target":34963},{"buffer":0,"byteOffset":9100,"byteLength":240,"target":34962,"byteStride":12},{"buffer":0,"byteOffset":9340,"byteLength":240,"target":34962,"byteStride":12},{"buffer":0,"byteOffset":9580,"byteLength":160,"target":34962,"byteStride":8},{"buffer":0,"byteOffset":9740,"byteLength":60,"target":34963},{"buffer":0,"byteOffset":9800,"byteLength":288,"target":34962,"byteStride":12},{"buffer":0,"byteOffset":10088,"byteLength":288,"target":34962,"byteStride":12},{"buffer":0,"byteOffset":10376,"byteLength":192,"target":34962,"byteStride":8},{"buffer":0,"byteOffset":10568,"byteLength":72,"target":34963},{"buffer":0,"byteOffset":10640,"byteLength":240,"target":34962,"byteStride":12},{"buffer":0,"byteOffset":10880,"byteLength":240,"target":34962,"byteStride":12},{"buffer":0,"byteOffset":11120,"byteLength":160,"target":34962,"byteStride":8},{"buffer":0,"byteOffset":11280,"byteLength":60,"target":34963},{"buffer":0,"byteOffset":11340,"byteLength":240,"target":34962,"byteStride":12},{"buffer":0,"byteOffset":11580,"byteLength":240,"target":34962,"byteStride":12},{"buffer":0,"byteOffset":11820,"byteLength":160,"target":34962,"byteStride":8},{"buffer":0,"byteOffset":11980,"byteLength":60,"target":34963},{"buffer":0,"byteOffset":12040,"byteLength":288,"target":34962,"byteStride":12},{"buffer":0,"byteOffset":12328,"byteLength":288,"target":34962,"byteStride":12},{"buffer":0,"byteOffset":12616,"byteLength":192,"target":34962,"byteStride":8},{"buffer":0,"byteOffset":12808,"byteLength":72,"target":34963},{"buffer":0,"byteOffset":12880,"byteLength":240,"target":34962,"byteStride":12},{"buffer":0,"byteOffset":13120,"byteLength":240,"target":34962,"byteStride":12},{"buffer":0,"byteOffset":13360,"byteLength":160,"target":34962,"byteStride":8},{"buffer":0,"byteOffset":13520,"byteLength":60,"target":34963},{"buffer":0,"byteOffset":13580,"byteLength":288,"target":34962,"byteStride":12},{"buffer":0,"byteOffset":13868,"byteLength":288,"target":34962,"byteStride":12},{"buffer":0,"byteOffset":14156,"byteLength":192,"target":34962,"byteStride":8},{"buffer":0,"byteOffset":14348,"byteLength":72,"target":34963},{"buffer":0,"byteOffset":14420,"byteLength":288,"target":34962,"byteStride":12},{"buffer":0,"byteOffset":14708,"byteLength":288,"target":34962,"byteStride":12},{"buffer":0,"byteOffset":14996,"byteLength":192,"target":34962,"byteStride":8},{"buffer":0,"byteOffset":15188,"byteLength":72,"target":34963},{"buffer":0,"byteOffset":15260,"byteLength":240,"target":34962,"byteStride":12},{"buffer":0,"byteOffset":15500,"byteLength":240,"target":34962,"byteStride":12},{"buffer":0,"byteOffset":15740,"byteLength":160,"target":34962,"byteStride":8},{"buffer":0,"byteOffset":15900,"byteLength":60,"target":34963},{"buffer":0,"byteOffset":15960,"byteLength":288,"target":34962,"byteStride":12},{"buffer":0,"byteOffset":16248,"byteLength":288,"target":34962,"byteStride":12},{"buffer":0,"byteOffset":16536,"byteLength":192,"target":34962,"byteStride":8},{"buffer":0,"byteOffset":16728,"byteLength":72,"target":34963},{"buffer":0,"byteOffset":16800,"byteLength":240,"target":34962,"byteStride":12},{"buffer":0,"byteOffset":17040,"byteLength":240,"target":34962,"byteStride":12},{"buffer":0,"byteOffset":17280,"byteLength":160,"target":34962,"byteStride":8},{"buffer":0,"byteOffset":17440,"byteLength":60,"target":34963},{"buffer":0,"byteOffset":17500,"byteLength":240,"target":34962,"byteStride":12},{"buffer":0,"byteOffset":17740,"byteLength":240,"target":34962,"byteStride":12},{"buffer":0,"byteOffset":17980,"byteLength":160,"target":34962,"byteStride":8},{"buffer":0,"byteOffset":18140,"byteLength":60,"target":34963},{"buffer":0,"byteOffset":18200,"byteLength":288,"target":34962,"byteStride":12},{"buffer":0,"byteOffset":18488,"byteLength":288,"target":34962,"byteStride":12},{"buffer":0,"byteOffset":18776,"byteLength":192,"target":34962,"byteStride":8},{"buffer":0,"byteOffset":18968,"byteLength":72,"target":34963},{"buffer":0,"byteOffset":19040,"byteLength":240,"target":34962,"byteStride":12},{"buffer":0,"byteOffset":19280,"byteLength":240,"target":34962,"byteStride":12},{"buffer":0,"byteOffset":19520,"byteLength":160,"target":34962,"byteStride":8},{"buffer":0,"byteOffset":19680,"byteLength":60,"target":34963},{"buffer":0,"byteOffset":19740,"byteLength":288,"target":34962,"byteStride":12},{"buffer":0,"byteOffset":20028,"byteLength":288,"target":34962,"byteStride":12},{"buffer":0,"byteOffset":20316,"byteLength":192,"target":34962,"byteStride":8},{"buffer":0,"byteOffset":20508,"byteLength":72,"target":34963},{"buffer":0,"byteOffset":20580,"byteLength":288,"target":34962,"byteStride":12},{"buffer":0,"byteOffset":20868,"byteLength":288,"target":34962,"byteStride":12},{"buffer":0,"byteOffset":21156,"byteLength":192,"target":34962,"byteStride":8},{"buffer":0,"byteOffset":21348,"byteLength":72,"target":34963},{"buffer":0,"byteOffset":21420,"byteLength":240,"target":34962,"byteStride":12},{"buffer":0,"byteOffset":21660,"byteLength":240,"target":34962,"byteStride":12},{"buffer":0,"byteOffset":21900,"byteLength":160,"target":34962,"byteStride":8},{"buffer":0,"byteOffset":22060,"byteLength":60,"target":34963},{"buffer":0,"byteOffset":22120,"byteLength":288,"target":34962,"byteStride":12},{"buffer":0,"byteOffset":22408,"byteLength":288,"target":34962,"byteStride":12},{"buffer":0,"byteOffset":22696,"byteLength":192,"target":34962,"byteStride":8},{"buffer":0,"byteOffset":22888,"byteLength":72,"target":34963},{"buffer":0,"byteOffset":22960,"byteLength":240,"target":34962,"byteStride":12},{"buffer":0,"byteOffset":23200,"byteLength":240,"target":34962,"byteStride":12},{"buffer":0,"byteOffset":23440,"byteLength":160,"target":34962,"byteStride":8},{"buffer":0,"byteOffset":23600,"byteLength":60,"target":34963}],"buffers":[{"byteLength":23660,"uri":"data:application/octet-stream;base64,"}],"accessors":[{"bufferView":0,"componentType":5126,"count":36,"max":[0.875,0.75,0.75],"min":[-0.875,0,-0.75],"type":"VEC3"},{"bufferView":1,"componentType":5126,"count":36,"max":[1,1,1],"min":[-1,-1,-1],"type":"VEC3"},{"bufferView":2,"componentType":5126,"count":36,"max":[0.875,0.75],"min":[0,0],"type":"VEC2"},{"bufferView":3,"componentType":5123,"count":54,"max":[35],"min":[0],"type":"SCALAR"},{"bufferView":4,"componentType":5126,"count":112,"max":[0.75,0.8125,0.625],"min":[-0.75,0.75,-0.625],"type":"VEC3"},{"bufferView":5,"componentType":5126,"count":112,"max":[1,1,1],"min":[-1,0,-1],"type":"VEC3"},{"bufferView":6,"componentType":5126,"count":112,"max":[0.75,0.625],"min":[0,0],"type":"VEC2"},{"bufferView":7,"componentType":5123,"count":168,"max":[111],"min":[0],"type":"SCALAR"},{"bufferView":8,"componentType":5126,"count":20,"max":[-0.5,1,-0.3125],"min":[-0.6875,0.8125,-0.5],"type":"VEC3"},{"bufferView":9,"componentType":5126,"count":20,"max":[1,1,1],"min":[-1,0,-1],"type":"VEC3"},{"bufferView":10,"componentType":5126,"count":20,"max":[0.09375,0.09375],"min":[0,0],"type":"VEC2"},{"bufferView":11,"componentType":5123,"count":30,"max":[19],"min":[0],"type":"SCALAR"},{"bufferView":12,"componentType":5126,"count":24,"max":[-0.5,1.0625,-0.0625],"min":[-0.6875,0.875,-0.25],"type":"VEC3"},{"bufferView":13,"componentType":5126,"count":24,"max":[1,1,1],"min":[-1,-1,-1],"type":"VEC3"},{"bufferView":14,"componentType":5126,"count":24,"max":[0.09375,0.09375],"min":[0,0],"type":"VEC2"},{"bufferView":15,"componentType":5123,"count":36,"max":[23],"min":[0],"type":"SCALAR"},{"bufferView":16,"componentType":5126,"count":20,"max":[-0.5,1,0.1875],"min":[-0.6875,0.8125,0],"type":"VEC3"},{"bufferView":17,"componentType":5126,"count":20,"max":[1,1,1],"min":[-1,0,-1],"type":"VEC3"},{"bufferView":18,"componentType":5126,"count":20,"max":[0.09375,0.09375],"min":[0,0],"type":"VEC2"},{"bufferView":19,"componentType":5123,"count":30,"max":[19],"min":[0],"type":"SCALAR"},{"bufferView":20,"componentType":5126,"count":24,"max":[-0.5,1.0625,0.4375],"min":[-0.6875,0.875,0.25],"type":"VEC3"},{"bufferView":21,"componentType":5126,"count":24,"max":[1,1,1],"min":[-1,-1,-1],"type":"VEC3"},{"bufferView":22,"componentType":5126,"count":24,"max":[0.09375,0.09375],"min":[0,0],"type":"VEC2"},{"bufferView":23,"componentType":5123,"count":36,"max":[23],"min":[0],"type":"SCALAR"},{"bufferView":24,"componentType":5126,"count":24,"max":[-0.25,1.0625,-0.3125],"min":[-0.4375,0.875,-0.5],"type":"VEC3"},{"bufferView":25,"componentType":5126,"count":24,"max":[1,1,1],"min":[-1,-1,-1],"type":"VEC3"},{"bufferView":26,"componentType":5126,"count":24,"max":[0.09375,0.09375],"min":[0,0],"type":"VEC2"},{"bufferView":27,"componentType":5123,"count":36,"max":[23],"min":[0],"type":"SCALAR"},{"bufferView":28,"componentType":5126,"count":20,"max":[-0.25,1,-0.0625],"min":[-0.4375,0.8125,-0.25],"type":"VEC3"},{"bufferView":29,"componentType":5126,"count":20,"max":[1,1,1],"min":[-1,0,-1],"type":"VEC3"},{"bufferView":30,"componentType":5126,"count":20,"max":[0.09375,0.09375],"min":[0,0],"type":"VEC2"},{"bufferView":31,"componentType":5123,"count":30,"max":[19],"min":[0],"type":"SCALAR"},{"bufferView":32,"componentType":5126,"count":24,"max":[-0.25,1.0625,0.1875],"min":[-0.4375,0.875,0],"type":"VEC3"},{"bufferView":33,"componentType":5126,"count":24,"max":[1,1,1],"min":[-1,-1,-1],"type":"VEC3"},{"bufferView":34,"componentType":5126,"count":24,"max":[0.09375,0.09375],"min":[0,0],"type":"VEC2"},{"bufferView":35,"componentType":5123,"count":36,"max":[23],"min":[0],"type":"SCALAR"},{"bufferView":36,"componentType":5126,"count":20,"max":[-0.25,1,0.4375],"min":[-0.4375,0.8125,0.25],"type":"VEC3"},{"bufferView":37,"componentType":5126,"count":20,"max":[1,1,1],"min":[-1,0,-1],"type":"VEC3"},{"bufferView":38,"componentType":5126,"count":20,"max":[0.09375,0.09375],"min":[0,0],"type":"VEC2"},{"bufferView":39,"componentType":5123,"count":30,"max":[19],"min":[0],"type":"SCALAR"},{"bufferView":40,"componentType":5126,"count":20,"max":[0,1,-0.3125],"min":[-0.1875,0.8125,-0.5],"type":"VEC3"},{"bufferView":41,"componentType":5126,"count":20,"max":[1,1,1],"min":[-1,0,-1],"type":"VEC3"},{"bufferView":42,"componentType":5126,"count":20,"max":[0.09375,0.09375],"min":[0,0],"type":"VEC2"},{"bufferView":43,"componentType":5123,"count":30,"max":[19],"min":[0],"type":"SCALAR"},{"bufferView":44,"componentType":5126,"count":24,"max":[0,1.0625,-0.0625],"min":[-0.1875,0.875,-0.25],"type":"VEC3"},{"bufferView":45,"componentType":5126,"count":24,"max":[1,1,1],"min":[-1,-1,-1],"type":"VEC3"},{"bufferView":46,"componentType":5126,"count":24,"max":[0.09375,0.09375],"min":[0,0],"type":"VEC2"},{"bufferView":47,"componentType":5123,"count":36,"max":[23],"min":[0],"type":"SCALAR"},{"bufferView":48,"componentType":5126,"count":20,"max":[0,1,0.1875],"min":[-0.1875,0.8125,0],"type":"VEC3"},{"bufferView":49,"componentType":5126,"count":20,"max":[1,1,1],"min":[-1,0,-1],"type":"VEC3"},{"bufferView":50,"componentType":5126,"count":20,"max":[0.09375,0.09375],"min":[0,0],"type":"VEC2"},{"bufferView":51,"componentType":5123,"count":30,"max":[19],"min":[0],"type":"SCALAR"},{"bufferView":52,"componentType":5126,"count":24,"max":[0,1.0625,0.4375],"min":[-0.1875,0.875,0.25],"type":"VEC3"},{"bufferView":53,"componentType":5126,"count":24,"max":[1,1,1],"min":[-1,-1,-1],"type":"VEC3"},{"bufferView":54,"componentType":5126,"count":24,"max":[0.09375,0.09375],"min":[0,0],"type":"VEC2"},{"bufferView":55,"componentType":5123,"count":36,"max":[23],"min":[0],"type":"SCALAR"},{"bufferView":56,"componentType":5126,"count":24,"max":[0.25,1.0625,-0.3125],"min":[0.0625,0.875,-0.5],"type":"VEC3"},{"bufferView":57,"componentType":5126,"count":24,"max":[1,1,1],"min":[-1,-1,-1],"type":"VEC3"},{"bufferView":58,"componentType":5126,"count":24,"max":[0.09375,0.09375],"min":[0,0],"type":"VEC2"},{"bufferView":59,"componentType":5123,"count":36,"max":[23],"min":[0],"type":"SCALAR"},{"bufferView":60,"componentType":5126,"count":20,"max":[0.25,1,-0.0625],"min":[0.0625,0.8125,-0.25],"type":"VEC3"},{"bufferView":61,"componentType":5126,"count":20,"max":[1,1,1],"min":[-1,0,-1],"type":"VEC3"},{"bufferView":62,"componentType":5126,"count":20,"max":[0.09375,0.09375],"min":[0,0],"type":"VEC2"},{"bufferView":63,"componentType":5123,"count":30,"max":[19],"min":[0],"type":"SCALAR"},{"bufferView":64,"componentType":5126,"count":24,"max":[0.25,1.0625,0.1875],"min":[0.0625,0.875,0],"type":"VEC3"},{"bufferView":65,"componentType":5126,"count":24,"max":[1,1,1],"min":[-1,-1,-1],"type":"VEC3"},{"bufferView":66,"componentType":5126,"count":24,"max":[0.09375,0.09375],"min":[0,0],"type":"VEC2"},{"bufferView":67,"componentType":5123,"count":36,"max":[23],"min":[0],"type":"SCALAR"},{"bufferView":68,"componentType":5126,"count":20,"max":[0.25,1,0.4375],"min":[0.0625,0.8125,0.25],"type":"VEC3"},{"bufferView":69,"componentType":5126,"count":20,"max":[1,1,1],"min":[-1,0,-1],"type":"VEC3"},{"bufferView":70,"componentType":5126,"count":20,"max":[0.09375,0.09375],"min":[0,0],"type":"VEC2"},{"bufferView":71,"componentType":5123,"count":30,"max":[19],"min":[0],"type":"SCALAR"},{"bufferView":72,"componentType":5126,"count":20,"max":[0.5,1,-0.3125],"min":[0.3125,0.8125,-0.5],"type":"VEC3"},{"bufferView":73,"componentType":5126,"count":20,"max":[1,1,1],"min":[-1,0,-1],"type":"VEC3"},{"bufferView":74,"componentType":5126,"count":20,"max":[0.09375,0.09375],"min":[0,0],"type":"VEC2"},{"bufferView":75,"componentType":5123,"count":30,"max":[19],"min":[0],"type":"SCALAR"},{"bufferView":76,"componentType":5126,"count":24,"max":[0.5,1.0625,-0.0625],"min":[0.3125,0.875,-0.25],"type":"VEC3"},{"bufferView":77,"componentType":5126,"count":24,"max":[1,1,1],"min":[-1,-1,-1],"type":"VEC3"},{"bufferView":78,"componentType":5126,"count":24,"max":[0.09375,0.09375],"min":[0,0],"type":"VEC2"},{"bufferView":79,"componentType":5123,"count":36,"max":[23],"min":[0],"type":"SCALAR"},{"bufferView":80,"componentType":5126,"count":20,"max":[0.5,1,0.1875],"min":[0.3125,0.8125,0],"type":"VEC3"},{"bufferView":81,"componentType":5126,"count":20,"max":[1,1,1],"min":[-1,0,-1],"type":"VEC3"},{"bufferView":82,"componentType":5126,"count":20,"max":[0.09375,0.09375],"min":[0,0],"type":"VEC2"},{"bufferView":83,"componentType":5123,"count":30,"max":[19],"min":[0],"type":"SCALAR"},{"bufferView":84,"componentType":5126,"count":24,"max":[0.5,1.0625,0.4375],"min":[0.3125,0.875,0.25],"type":"VEC3"},{"bufferView":85,"componentType":5126,"count":24,"max":[1,1,1],"min":[-1,-1,-1],"type":"VEC3"},{"bufferView":86,"componentType":5126,"count":24,"max":[0.09375,0.09375],"min":[0,0],"type":"VEC2"},{"bufferView":87,"componentType":5123,"count":36,"max":[23],"min":[0],"type":"SCALAR"},{"bufferView":88,"componentType":5126,"count":24,"max":[0.75,1.0625,-0.3125],"min":[0.5625,0.875,-0.5],"type":"VEC3"},{"bufferView":89,"componentType":5126,"count":24,"max":[1,1,1],"min":[-1,-1,-1],"type":"VEC3"},{"bufferView":90,"componentType":5126,"count":24,"max":[0.09375,0.09375],"min":[0,0],"type":"VEC2"},{"bufferView":91,"componentType":5123,"count":36,"max":[23],"min":[0],"type":"SCALAR"},{"bufferView":92,"componentType":5126,"count":20,"max":[0.75,1,-0.0625],"min":[0.5625,0.8125,-0.25],"type":"VEC3"},{"bufferView":93,"componentType":5126,"count":20,"max":[1,1,1],"min":[-1,0,-1],"type":"VEC3"},{"bufferView":94,"componentType":5126,"count":20,"max":[0.09375,0.09375],"min":[0,0],"type":"VEC2"},{"bufferView":95,"componentType":5123,"count":30,"max":[19],"min":[0],"type":"SCALAR"},{"bufferView":96,"componentType":5126,"count":24,"max":[0.75,1.0625,0.1875],"min":[0.5625,0.875,0],"type":"VEC3"},{"bufferView":97,"componentType":5126,"count":24,"max":[1,1,1],"min":[-1,-1,-1],"type":"VEC3"},{"bufferView":98,"componentType":5126,"count":24,"max":[0.09375,0.09375],"min":[0,0],"type":"VEC2"},{"bufferView":99,"componentType":5123,"count":36,"max":[23],"min":[0],"type":"SCALAR"},{"bufferView":100,"componentType":5126,"count":20,"max":[0.75,1,0.4375],"min":[0.5625,0.8125,0.25],"type":"VEC3"},{"bufferView":101,"componentType":5126,"count":20,"max":[1,1,1],"min":[-1,0,-1],"type":"VEC3"},{"bufferView":102,"componentType":5126,"count":20,"max":[0.09375,0.09375],"min":[0,0],"type":"VEC2"},{"bufferView":103,"componentType":5123,"count":30,"max":[19],"min":[0],"type":"SCALAR"}],"materials":[{"pbrMetallicRoughness":{"metallicFactor":0,"roughnessFactor":1,"baseColorTexture":{"index":0}},"alphaMode":"MASK","alphaCutoff":0.05,"doubleSided":true},{"pbrMetallicRoughness":{"metallicFactor":0,"roughnessFactor":1,"baseColorTexture":{"index":1}},"alphaMode":"MASK","alphaCutoff":0.05,"doubleSided":true},{"pbrMetallicRoughness":{"metallicFactor":0,"roughnessFactor":1,"baseColorTexture":{"index":2}},"alphaMode":"MASK","alphaCutoff":0.05,"doubleSided":true},{"pbrMetallicRoughness":{"metallicFactor":0,"roughnessFactor":1,"baseColorTexture":{"index":3}},"alphaMode":"MASK","alphaCutoff":0.05,"doubleSided":true}],"textures":[{"sampler":0,"source":0,"name":"wood_dark.png"},{"sampler":1,"source":1,"name":"wood.png"},{"sampler":2,"source":2,"name":"rust.png"},{"sampler":3,"source":3,"name":"fabric.png"}],"samplers":[{"magFilter":9728,"minFilter":9728,"wrapS":10497,"wrapT":10497},{"magFilter":9728,"minFilter":9728,"wrapS":10497,"wrapT":10497},{"magFilter":9728,"minFilter":9728,"wrapS":10497,"wrapT":10497},{"magFilter":9728,"minFilter":9728,"wrapS":10497,"wrapT":10497}],"images":[{"mimeType":"image/png","uri":"../textures/wood_dark.png","name":"wood_dark"},{"mimeType":"image/png","uri":"../textures/wood.png","name":"wood"},{"mimeType":"image/png","uri":"../textures/rust.png","name":"rust"},{"mimeType":"image/png","uri":"../textures/fabric.png","name":"fabric"}],"meshes":[{"primitives":[{"mode":4,"attributes":{"POSITION":0,"NORMAL":1,"TEXCOORD_0":2},"indices":3,"material":0}]},{"primitives":[{"mode":4,"attributes":{"POSITION":4,"NORMAL":5,"TEXCOORD_0":6},"indices":7,"material":1}]},{"primitives":[{"mode":4,"attributes":{"POSITION":8,"NORMAL":9,"TEXCOORD_0":10},"indices":11,"material":2}]},{"primitives":[{"mode":4,"attributes":{"POSITION":12,"NORMAL":13,"TEXCOORD_0":14},"indices":15,"material":2}]},{"primitives":[{"mode":4,"attributes":{"POSITION":16,"NORMAL":17,"TEXCOORD_0":18},"indices":19,"material":2}]},{"primitives":[{"mode":4,"attributes":{"POSITION":20,"NORMAL":21,"TEXCOORD_0":22},"indices":23,"material":2}]},{"primitives":[{"mode":4,"attributes":{"POSITION":24,"NORMAL":25,"TEXCOORD_0":26},"indices":27,"material":2}]},{"primitives":[{"mode":4,"attributes":{"POSITION":28,"NORMAL":29,"TEXCOORD_0":30},"indices":31,"material":2}]},{"primitives":[{"mode":4,"attributes":{"POSITION":32,"NORMAL":33,"TEXCOORD_0":34},"indices":35,"material":2}]},{"primitives":[{"mode":4,"attributes":{"POSITION":36,"NORMAL":37,"TEXCOORD_0":38},"indices":39,"material":2}]},{"primitives":[{"mode":4,"attributes":{"POSITION":40,"NORMAL":41,"TEXCOORD_0":42},"indices":43,"material":2}]},{"primitives":[{"mode":4,"attributes":{"POSITION":44,"NORMAL":45,"TEXCOORD_0":46},"indices":47,"material":2}]},{"primitives":[{"mode":4,"attributes":{"POSITION":48,"NORMAL":49,"TEXCOORD_0":50},"indices":51,"material":2}]},{"primitives":[{"mode":4,"attributes":{"POSITION":52,"NORMAL":53,"TEXCOORD_0":54},"indices":55,"material":2}]},{"primitives":[{"mode":4,"attributes":{"POSITION":56,"NORMAL":57,"TEXCOORD_0":58},"indices":59,"material":3}]},{"primitives":[{"mode":4,"attributes":{"POSITION":60,"NORMAL":61,"TEXCOORD_0":62},"indices":63,"material":3}]},{"primitives":[{"mode":4,"attributes":{"POSITION":64,"NORMAL":65,"TEXCOORD_0":66},"indices":67,"material":3}]},{"primitives":[{"mode":4,"attributes":{"POSITION":68,"NORMAL":69,"TEXCOORD_0":70},"indices":71,"material":3}]},{"primitives":[{"mode":4,"attributes":{"POSITION":72,"NORMAL":73,"TEXCOORD_0":74},"indices":75,"material":3}]},{"primitives":[{"mode":4,"attributes":{"POSITION":76,"NORMAL":77,"TEXCOORD_0":78},"indices":79,"material":3}]},{"primitives":[{"mode":4,"attributes":{"POSITION":80,"NORMAL":81,"TEXCOORD_0":82},"indices":83,"material":3}]},{"primitives":[{"mode":4,"attributes":{"POSITION":84,"NORMAL":85,"TEXCOORD_0":86},"indices":87,"material":3}]},{"primitives":[{"mode":4,"attributes":{"POSITION":88,"NORMAL":89,"TEXCOORD_0":90},"indices":91,"material":3}]},{"primitives":[{"mode":4,"attributes":{"POSITION":92,"NORMAL":93,"TEXCOORD_0":94},"indices":95,"material":3}]},{"primitives":[{"mode":4,"attributes":{"POSITION":96,"NORMAL":97,"TEXCOORD_0":98},"indices":99,"material":3}]},{"primitives":[{"mode":4,"attributes":{"POSITION":100,"NORMAL":101,"TEXCOORD_0":102},"indices":103,"material":3}]}]}