{"asset":{"version":"2.0","generator":"Blockbench 5.1.6 glTF exporter"},"scenes":[{"nodes":[3,5],"name":"blockbench_export"}],"scene":0,"nodes":[{"name":"base","mesh":0},{"name":"top","mesh":1},{"name":"belt","mesh":2},{"name":"checkout_counter_0_0_0_0","children":[0,1,2]},{"name":"privacy_front","mesh":3},{"name":"privacy_front","children":[4]}],"bufferViews":[{"buffer":0,"byteOffset":0,"byteLength":240,"target":34962,"byteStride":12},{"buffer":0,"byteOffset":240,"byteLength":240,"target":34962,"byteStride":12},{"buffer":0,"byteOffset":480,"byteLength":160,"target":34962,"byteStride":8},{"buffer":0,"byteOffset":640,"byteLength":60,"target":34963},{"buffer":0,"byteOffset":700,"byteLength":432,"target":34962,"byteStride":12},{"buffer":0,"byteOffset":1132,"byteLength":432,"target":34962,"byteStride":12},{"buffer":0,"byteOffset":1564,"byteLength":288,"target":34962,"byteStride":8},{"buffer":0,"byteOffset":1852,"byteLength":108,"target":34963},{"buffer":0,"byteOffset":1960,"byteLength":192,"target":34962,"byteStride":12},{"buffer":0,"byteOffset":2152,"byteLength":192,"target":34962,"byteStride":12},{"buffer":0,"byteOffset":2344,"byteLength":128,"target":34962,"byteStride":8},{"buffer":0,"byteOffset":2472,"byteLength":48,"target":34963},{"buffer":0,"byteOffset":2520,"byteLength":336,"target":34962,"byteStride":12},{"buffer":0,"byteOffset":2856,"byteLength":336,"target":34962,"byteStride":12},{"buffer":0,"byteOffset":3192,"byteLength":224,"target":34962,"byteStride":8},{"buffer":0,"byteOffset":3416,"byteLength":84,"target":34963}],"buffers":[{"byteLength":3500,"uri":"data:application/octet-stream;base64,"}],"accessors":[{"bufferView":0,"componentType":5126,"count":20,"max":[1.5,1.0625,0.5625],"min":[-1.5,0,-0.5625],"type":"VEC3"},{"bufferView":1,"componentType":5126,"count":20,"max":[1,0,1],"min":[-1,-1,-1],"type":"VEC3"},{"bufferView":2,"componentType":5126,"count":20,"max":[1.5,0.5625],"min":[0,0],"type":"VEC2"},{"bufferView":3,"componentType":5123,"count":30,"max":[19],"min":[0],"type":"SCALAR"},{"bufferView":4,"componentType":5126,"count":36,"max":[1.5,1.1875,0.625],"min":[-1.5,1.0625,-0.625],"type":"VEC3"},{"bufferView":5,"componentType":5126,"count":36,"max":[1,1,1],"min":[-1,-1,-1],"type":"VEC3"},{"bufferView":6,"componentType":5126,"count":36,"max":[1.5,0.625],"min":[0,0],"type":"VEC2"},{"bufferView":7,"componentType":5123,"count":54,"max":[35],"min":[0],"type":"SCALAR"},{"bufferView":8,"componentType":5126,"count":16,"max":[0.1875,1.203125,0.5],"min":[-1.3125,1.1875,-0.4375],"type":"VEC3"},{"bufferView":9,"componentType":5126,"count":16,"max":[1,1,1],"min":[-1,0,0],"type":"VEC3"},{"bufferView":10,"componentType":5126,"count":16,"max":[0.75,0.5],"min":[0,0],"type":"VEC2"},{"bufferView":11,"componentType":5123,"count":24,"max":[15],"min":[0],"type":"SCALAR"},{"bufferView":12,"componentType":5126,"count":28,"max":[1.5,1.5625,-0.4375],"min":[-1.5,1.1875,-0.625],"type":"VEC3"},{"bufferView":13,"componentType":5126,"count":28,"max":[1,1,1],"min":[-1,0,-1],"type":"VEC3"},{"bufferView":14,"componentType":5126,"count":28,"max":[1.5,0.1875],"min":[0,0],"type":"VEC2"},{"bufferView":15,"componentType":5123,"count":42,"max":[27],"min":[0],"type":"SCALAR"}],"materials":[{"pbrMetallicRoughness":{"metallicFactor":0,"roughnessFactor":1,"baseColorTexture":{"index":0}},"alphaMode":"MASK","alphaCutoff":0.05,"doubleSided":true},{"pbrMetallicRoughness":{"metallicFactor":0,"roughnessFactor":1,"baseColorTexture":{"index":1}},"alphaMode":"MASK","alphaCutoff":0.05,"doubleSided":true},{"pbrMetallicRoughness":{"metallicFactor":0,"roughnessFactor":1,"baseColorTexture":{"index":2}},"alphaMode":"MASK","alphaCutoff":0.05,"doubleSided":true}],"textures":[{"sampler":0,"source":0,"name":"wood.png"},{"sampler":1,"source":1,"name":"metal.png"},{"sampler":2,"source":2,"name":"rubber.png"}],"samplers":[{"magFilter":9728,"minFilter":9728,"wrapS":10497,"wrapT":10497},{"magFilter":9728,"minFilter":9728,"wrapS":10497,"wrapT":10497},{"magFilter":9728,"minFilter":9728,"wrapS":10497,"wrapT":10497}],"images":[{"mimeType":"image/png","uri":"../textures/wood.png","name":"wood"},{"mimeType":"image/png","uri":"../textures/metal.png","name":"metal"},{"mimeType":"image/png","uri":"../textures/rubber.png","name":"rubber"}],"meshes":[{"primitives":[{"mode":4,"attributes":{"POSITION":0,"NORMAL":1,"TEXCOORD_0":2},"indices":3,"material":0}]},{"primitives":[{"mode":4,"attributes":{"POSITION":4,"NORMAL":5,"TEXCOORD_0":6},"indices":7,"material":1}]},{"primitives":[{"mode":4,"attributes":{"POSITION":8,"NORMAL":9,"TEXCOORD_0":10},"indices":11,"material":2}]},{"primitives":[{"mode":4,"attributes":{"POSITION":12,"NORMAL":13,"TEXCOORD_0":14},"indices":15,"material":0}]}]}