{"asset":{"version":"2.0","generator":"Blockbench 5.1.6 glTF exporter"},"scenes":[{"nodes":[4],"name":"blockbench_export"}],"scene":0,"nodes":[{"name":"rubble","mesh":0},{"name":"rubble","mesh":1},{"name":"rubble","mesh":2},{"name":"rubble","mesh":3},{"name":"rubble","children":[0,1,2,3]}],"bufferViews":[{"buffer":0,"byteOffset":0,"byteLength":288,"target":34962,"byteStride":12},{"buffer":0,"byteOffset":288,"byteLength":288,"target":34962,"byteStride":12},{"buffer":0,"byteOffset":576,"byteLength":192,"target":34962,"byteStride":8},{"buffer":0,"byteOffset":768,"byteLength":72,"target":34963},{"buffer":0,"byteOffset":840,"byteLength":480,"target":34962,"byteStride":12},{"buffer":0,"byteOffset":1320,"byteLength":480,"target":34962,"byteStride":12},{"buffer":0,"byteOffset":1800,"byteLength":320,"target":34962,"byteStride":8},{"buffer":0,"byteOffset":2120,"byteLength":120,"target":34963},{"buffer":0,"byteOffset":2240,"byteLength":336,"target":34962,"byteStride":12},{"buffer":0,"byteOffset":2576,"byteLength":336,"target":34962,"byteStride":12},{"buffer":0,"byteOffset":2912,"byteLength":224,"target":34962,"byteStride":8},{"buffer":0,"byteOffset":3136,"byteLength":84,"target":34963},{"buffer":0,"byteOffset":3220,"byteLength":288,"target":34962,"byteStride":12},{"buffer":0,"byteOffset":3508,"byteLength":288,"target":34962,"byteStride":12},{"buffer":0,"byteOffset":3796,"byteLength":192,"target":34962,"byteStride":8},{"buffer":0,"byteOffset":3988,"byteLength":72,"target":34963}],"buffers":[{"byteLength":4060,"uri":"data:application/octet-stream;base64,"}],"accessors":[{"bufferView":0,"componentType":5126,"count":24,"max":[-0.1875,0.3125,0.0625],"min":[-0.75,0,-0.5],"type":"VEC3"},{"bufferView":1,"componentType":5126,"count":24,"max":[1,1,1],"min":[-1,-1,-1],"type":"VEC3"},{"bufferView":2,"componentType":5126,"count":24,"max":[0.28125,0.28125],"min":[0,0],"type":"VEC2"},{"bufferView":3,"componentType":5123,"count":36,"max":[23],"min":[0],"type":"SCALAR"},{"bufferView":4,"componentType":5126,"count":40,"max":[0.75,0.5,0.5],"min":[0,0,-0.25],"type":"VEC3"},{"bufferView":5,"componentType":5126,"count":40,"max":[1,1,1],"min":[-1,-1,-1],"type":"VEC3"},{"bufferView":6,"componentType":5126,"count":40,"max":[0.375,0.375],"min":[0,0],"type":"VEC2"},{"bufferView":7,"componentType":5123,"count":60,"max":[39],"min":[0],"type":"SCALAR"},{"bufferView":8,"componentType":5126,"count":28,"max":[0.3125,0.25,0.9375],"min":[-0.25,0,0.375],"type":"VEC3"},{"bufferView":9,"componentType":5126,"count":28,"max":[1,1,1],"min":[-1,-1,-1],"type":"VEC3"},{"bufferView":10,"componentType":5126,"count":28,"max":[0.28125,0.28125],"min":[0,0],"type":"VEC2"},{"bufferView":11,"componentType":5123,"count":42,"max":[27],"min":[0],"type":"SCALAR"},{"bufferView":12,"componentType":5126,"count":24,"max":[1,0.1875,0.8125],"min":[0.6875,0,0.5],"type":"VEC3"},{"bufferView":13,"componentType":5126,"count":24,"max":[1,1,1],"min":[-1,-1,-1],"type":"VEC3"},{"bufferView":14,"componentType":5126,"count":24,"max":[0.15625,0.15625],"min":[0,0],"type":"VEC2"},{"bufferView":15,"componentType":5123,"count":36,"max":[23],"min":[0],"type":"SCALAR"}],"materials":[{"pbrMetallicRoughness":{"metallicFactor":0,"roughnessFactor":1,"baseColorTexture":{"index":0}},"alphaMode":"MASK","alphaCutoff":0.05,"doubleSided":true},{"pbrMetallicRoughness":{"metallicFactor":0,"roughnessFactor":1,"baseColorTexture":{"index":1}},"alphaMode":"MASK","alphaCutoff":0.05,"doubleSided":true}],"textures":[{"sampler":0,"source":0,"name":"stone.png"},{"sampler":1,"source":1,"name":"brick.png"}],"samplers":[{"magFilter":9728,"minFilter":9728,"wrapS":10497,"wrapT":10497},{"magFilter":9728,"minFilter":9728,"wrapS":10497,"wrapT":10497}],"images":[{"mimeType":"image/png","uri":"../textures/stone.png","name":"stone"},{"mimeType":"image/png","uri":"../textures/brick.png","name":"brick"}],"meshes":[{"primitives":[{"mode":4,"attributes":{"POSITION":0,"NORMAL":1,"TEXCOORD_0":2},"indices":3,"material":0}]},{"primitives":[{"mode":4,"attributes":{"POSITION":4,"NORMAL":5,"TEXCOORD_0":6},"indices":7,"material":1}]},{"primitives":[{"mode":4,"attributes":{"POSITION":8,"NORMAL":9,"TEXCOORD_0":10},"indices":11,"material":0}]},{"primitives":[{"mode":4,"attributes":{"POSITION":12,"NORMAL":13,"TEXCOORD_0":14},"indices":15,"material":1}]}]}