{"asset":{"version":"2.0","generator":"Blockbench 5.1.6 glTF exporter"},"scenes":[{"nodes":[16],"name":"blockbench_export"}],"scene":0,"nodes":[{"name":"debris","mesh":0},{"name":"debris","mesh":1},{"name":"debris","mesh":2},{"name":"debris","mesh":3},{"name":"debris","mesh":4},{"name":"debris","mesh":5},{"name":"debris","mesh":6},{"name":"debris","mesh":7},{"name":"debris","mesh":8},{"name":"debris","mesh":9},{"name":"debris","mesh":10},{"name":"debris","mesh":11},{"name":"debris","mesh":12},{"name":"debris","mesh":13},{"name":"debris","mesh":14},{"name":"debris","mesh":15},{"name":"debris","children":[0,1,2,3,4,5,6,7,8,9,10,11,12,13,14,15]}],"bufferViews":[{"buffer":0,"byteOffset":0,"byteLength":288,"target":34962,"byteStride":12},{"buffer":0,"byteOffset":288,"byteLength":288,"target":34962,"byteStride":12},{"buffer":0,"byteOffset":576,"byteLength":192,"target":34962,"byteStride":8},{"buffer":0,"byteOffset":768,"byteLength":72,"target":34963},{"buffer":0,"byteOffset":840,"byteLength":288,"target":34962,"byteStride":12},{"buffer":0,"byteOffset":1128,"byteLength":288,"target":34962,"byteStride":12},{"buffer":0,"byteOffset":1416,"byteLength":192,"target":34962,"byteStride":8},{"buffer":0,"byteOffset":1608,"byteLength":72,"target":34963},{"buffer":0,"byteOffset":1680,"byteLength":288,"target":34962,"byteStride":12},{"buffer":0,"byteOffset":1968,"byteLength":288,"target":34962,"byteStride":12},{"buffer":0,"byteOffset":2256,"byteLength":192,"target":34962,"byteStride":8},{"buffer":0,"byteOffset":2448,"byteLength":72,"target":34963},{"buffer":0,"byteOffset":2520,"byteLength":240,"target":34962,"byteStride":12},{"buffer":0,"byteOffset":2760,"byteLength":240,"target":34962,"byteStride":12},{"buffer":0,"byteOffset":3000,"byteLength":160,"target":34962,"byteStride":8},{"buffer":0,"byteOffset":3160,"byteLength":60,"target":34963},{"buffer":0,"byteOffset":3220,"byteLength":288,"target":34962,"byteStride":12},{"buffer":0,"byteOffset":3508,"byteLength":288,"target":34962,"byteStride":12},{"buffer":0,"byteOffset":3796,"byteLength":192,"target":34962,"byteStride":8},{"buffer":0,"byteOffset":3988,"byteLength":72,"target":34963},{"buffer":0,"byteOffset":4060,"byteLength":288,"target":34962,"byteStride":12},{"buffer":0,"byteOffset":4348,"byteLength":288,"target":34962,"byteStride":12},{"buffer":0,"byteOffset":4636,"byteLength":192,"target":34962,"byteStride":8},{"buffer":0,"byteOffset":4828,"byteLength":72,"target":34963},{"buffer":0,"byteOffset":4900,"byteLength":288,"target":34962,"byteStride":12},{"buffer":0,"byteOffset":5188,"byteLength":288,"target":34962,"byteStride":12},{"buffer":0,"byteOffset":5476,"byteLength":192,"target":34962,"byteStride":8},{"buffer":0,"byteOffset":5668,"byteLength":72,"target":34963},{"buffer":0,"byteOffset":5740,"byteLength":288,"target":34962,"byteStride":12},{"buffer":0,"byteOffset":6028,"byteLength":288,"target":34962,"byteStride":12},{"buffer":0,"byteOffset":6316,"byteLength":192,"target":34962,"byteStride":8},{"buffer":0,"byteOffset":6508,"byteLength":72,"target":34963},{"buffer":0,"byteOffset":6580,"byteLength":288,"target":34962,"byteStride":12},{"buffer":0,"byteOffset":6868,"byteLength":288,"target":34962,"byteStride":12},{"buffer":0,"byteOffset":7156,"byteLength":192,"target":34962,"byteStride":8},{"buffer":0,"byteOffset":7348,"byteLength":72,"target":34963},{"buffer":0,"byteOffset":7420,"byteLength":288,"target":34962,"byteStride":12},{"buffer":0,"byteOffset":7708,"byteLength":288,"target":34962,"byteStride":12},{"buffer":0,"byteOffset":7996,"byteLength":192,"target":34962,"byteStride":8},{"buffer":0,"byteOffset":8188,"byteLength":72,"target":34963},{"buffer":0,"byteOffset":8260,"byteLength":288,"target":34962,"byteStride":12},{"buffer":0,"byteOffset":8548,"byteLength":288,"target":34962,"byteStride":12},{"buffer":0,"byteOffset":8836,"byteLength":192,"target":34962,"byteStride":8},{"buffer":0,"byteOffset":9028,"byteLength":72,"target":34963},{"buffer":0,"byteOffset":9100,"byteLength":384,"target":34962,"byteStride":12},{"buffer":0,"byteOffset":9484,"byteLength":384,"target":34962,"byteStride":12},{"buffer":0,"byteOffset":9868,"byteLength":256,"target":34962,"byteStride":8},{"buffer":0,"byteOffset":10124,"byteLength":96,"target":34963},{"buffer":0,"byteOffset":10220,"byteLength":288,"target":34962,"byteStride":12},{"buffer":0,"byteOffset":10508,"byteLength":288,"target":34962,"byteStride":12},{"buffer":0,"byteOffset":10796,"byteLength":192,"target":34962,"byteStride":8},{"buffer":0,"byteOffset":10988,"byteLength":72,"target":34963},{"buffer":0,"byteOffset":11060,"byteLength":288,"target":34962,"byteStride":12},{"buffer":0,"byteOffset":11348,"byteLength":288,"target":34962,"byteStride":12},{"buffer":0,"byteOffset":11636,"byteLength":192,"target":34962,"byteStride":8},{"buffer":0,"byteOffset":11828,"byteLength":72,"target":34963},{"buffer":0,"byteOffset":11900,"byteLength":288,"target":34962,"byteStride":12},{"buffer":0,"byteOffset":12188,"byteLength":288,"target":34962,"byteStride":12},{"buffer":0,"byteOffset":12476,"byteLength":192,"target":34962,"byteStride":8},{"buffer":0,"byteOffset":12668,"byteLength":72,"target":34963},{"buffer":0,"byteOffset":12740,"byteLength":240,"target":34962,"byteStride":12},{"buffer":0,"byteOffset":12980,"byteLength":240,"target":34962,"byteStride":12},{"buffer":0,"byteOffset":13220,"byteLength":160,"target":34962,"byteStride":8},{"buffer":0,"byteOffset":13380,"byteLength":60,"target":34963}],"buffers":[{"byteLength":13440,"uri":"data:application/octet-stream;base64,"}],"accessors":[{"bufferView":0,"componentType":5126,"count":24,"max":[-0.9375,0.125,-0.75],"min":[-1.375,0,-1.125],"type":"VEC3"},{"bufferView":1,"componentType":5126,"count":24,"max":[1,1,1],"min":[-1,-1,-1],"type":"VEC3"},{"bufferView":2,"componentType":5126,"count":24,"max":[0.21875,0.1875],"min":[0,0],"type":"VEC2"},{"bufferView":3,"componentType":5123,"count":36,"max":[23],"min":[0],"type":"SCALAR"},{"bufferView":4,"componentType":5126,"count":24,"max":[-0.1875,0.3125,-0.6875],"min":[-0.6875,0,-1.125],"type":"VEC3"},{"bufferView":5,"componentType":5126,"count":24,"max":[1,1,1],"min":[-1,-1,-1],"type":"VEC3"},{"bufferView":6,"componentType":5126,"count":24,"max":[0.25,0.21875],"min":[0,0],"type":"VEC2"},{"bufferView":7,"componentType":5123,"count":36,"max":[23],"min":[0],"type":"SCALAR"},{"bufferView":8,"componentType":5126,"count":24,"max":[0.5625,0.5,-0.625],"min":[0,0,-1.125],"type":"VEC3"},{"bufferView":9,"componentType":5126,"count":24,"max":[1,1,1],"min":[-1,-1,-1],"type":"VEC3"},{"bufferView":10,"componentType":5126,"count":24,"max":[0.28125,0.25],"min":[0,0],"type":"VEC2"},{"bufferView":11,"componentType":5123,"count":36,"max":[23],"min":[0],"type":"SCALAR"},{"bufferView":12,"componentType":5126,"count":20,"max":[1.125,0.125,-0.5625],"min":[0.6875,0,-1.125],"type":"VEC3"},{"bufferView":13,"componentType":5126,"count":20,"max":[1,1,0],"min":[-1,-1,-1],"type":"VEC3"},{"bufferView":14,"componentType":5126,"count":20,"max":[0.28125,0.28125],"min":[0,0],"type":"VEC2"},{"bufferView":15,"componentType":5123,"count":30,"max":[19],"min":[0],"type":"SCALAR"},{"bufferView":16,"componentType":5126,"count":24,"max":[-0.875,0.3125,-0.1875],"min":[-1.375,0,-0.5625],"type":"VEC3"},{"bufferView":17,"componentType":5126,"count":24,"max":[1,1,1],"min":[-1,-1,-1],"type":"VEC3"},{"bufferView":18,"componentType":5126,"count":24,"max":[0.25,0.1875],"min":[0,0],"type":"VEC2"},{"bufferView":19,"componentType":5123,"count":36,"max":[23],"min":[0],"type":"SCALAR"},{"bufferView":20,"componentType":5126,"count":24,"max":[-0.125,0.5,-0.125],"min":[-0.6875,0,-0.5625],"type":"VEC3"},{"bufferView":21,"componentType":5126,"count":24,"max":[1,1,1],"min":[-1,-1,-1],"type":"VEC3"},{"bufferView":22,"componentType":5126,"count":24,"max":[0.28125,0.25],"min":[0,0],"type":"VEC2"},{"bufferView":23,"componentType":5123,"count":36,"max":[23],"min":[0],"type":"SCALAR"},{"bufferView":24,"componentType":5126,"count":24,"max":[0.4375,0.125,-0.0625],"min":[0,0,-0.5625],"type":"VEC3"},{"bufferView":25,"componentType":5126,"count":24,"max":[1,1,1],"min":[-1,-1,-1],"type":"VEC3"},{"bufferView":26,"componentType":5126,"count":24,"max":[0.25,0.25],"min":[0,0],"type":"VEC2"},{"bufferView":27,"componentType":5123,"count":36,"max":[23],"min":[0],"type":"SCALAR"},{"bufferView":28,"componentType":5126,"count":24,"max":[1.1875,0.3125,0],"min":[0.6875,0,-0.5625],"type":"VEC3"},{"bufferView":29,"componentType":5126,"count":24,"max":[1,1,0],"min":[-1,-1,-1],"type":"VEC3"},{"bufferView":30,"componentType":5126,"count":24,"max":[0.28125,0.28125],"min":[0,0],"type":"VEC2"},{"bufferView":31,"componentType":5123,"count":36,"max":[23],"min":[0],"type":"SCALAR"},{"bufferView":32,"componentType":5126,"count":24,"max":[-0.8125,0.5,0.375],"min":[-1.375,0,0],"type":"VEC3"},{"bufferView":33,"componentType":5126,"count":24,"max":[1,1,1],"min":[-1,-1,-1],"type":"VEC3"},{"bufferView":34,"componentType":5126,"count":24,"max":[0.28125,0.25],"min":[0,0],"type":"VEC2"},{"bufferView":35,"componentType":5123,"count":36,"max":[23],"min":[0],"type":"SCALAR"},{"bufferView":36,"componentType":5126,"count":24,"max":[-0.25,0.125,0.4375],"min":[-0.6875,0,0],"type":"VEC3"},{"bufferView":37,"componentType":5126,"count":24,"max":[1,1,1],"min":[-1,-1,-1],"type":"VEC3"},{"bufferView":38,"componentType":5126,"count":24,"max":[0.21875,0.21875],"min":[0,0],"type":"VEC2"},{"bufferView":39,"componentType":5123,"count":36,"max":[23],"min":[0],"type":"SCALAR"},{"bufferView":40,"componentType":5126,"count":24,"max":[0.5,0.3125,0.5],"min":[0,0,0],"type":"VEC3"},{"bufferView":41,"componentType":5126,"count":24,"max":[1,1,1],"min":[-1,-1,-1],"type":"VEC3"},{"bufferView":42,"componentType":5126,"count":24,"max":[0.25,0.25],"min":[0,0],"type":"VEC2"},{"bufferView":43,"componentType":5123,"count":36,"max":[23],"min":[0],"type":"SCALAR"},{"bufferView":44,"componentType":5126,"count":32,"max":[1.25,0.5,0.5625],"min":[0.6875,0,0],"type":"VEC3"},{"bufferView":45,"componentType":5126,"count":32,"max":[1,1,1],"min":[-1,-1,-1],"type":"VEC3"},{"bufferView":46,"componentType":5126,"count":32,"max":[0.28125,0.28125],"min":[0,0],"type":"VEC2"},{"bufferView":47,"componentType":5123,"count":48,"max":[31],"min":[0],"type":"SCALAR"},{"bufferView":48,"componentType":5126,"count":24,"max":[-0.9375,0.125,0.9375],"min":[-1.375,0,0.5625],"type":"VEC3"},{"bufferView":49,"componentType":5126,"count":24,"max":[1,1,1],"min":[-1,-1,-1],"type":"VEC3"},{"bufferView":50,"componentType":5126,"count":24,"max":[0.21875,0.1875],"min":[0,0],"type":"VEC2"},{"bufferView":51,"componentType":5123,"count":36,"max":[23],"min":[0],"type":"SCALAR"},{"bufferView":52,"componentType":5126,"count":24,"max":[-0.1875,0.3125,1],"min":[-0.6875,0,0.5625],"type":"VEC3"},{"bufferView":53,"componentType":5126,"count":24,"max":[1,1,1],"min":[-1,-1,-1],"type":"VEC3"},{"bufferView":54,"componentType":5126,"count":24,"max":[0.25,0.21875],"min":[0,0],"type":"VEC2"},{"bufferView":55,"componentType":5123,"count":36,"max":[23],"min":[0],"type":"SCALAR"},{"bufferView":56,"componentType":5126,"count":24,"max":[0.5625,0.5,1.0625],"min":[0,0,0.5625],"type":"VEC3"},{"bufferView":57,"componentType":5126,"count":24,"max":[1,1,1],"min":[-1,-1,-1],"type":"VEC3"},{"bufferView":58,"componentType":5126,"count":24,"max":[0.28125,0.25],"min":[0,0],"type":"VEC2"},{"bufferView":59,"componentType":5123,"count":36,"max":[23],"min":[0],"type":"SCALAR"},{"bufferView":60,"componentType":5126,"count":20,"max":[1.125,0.125,1.125],"min":[0.6875,0,0.5625],"type":"VEC3"},{"bufferView":61,"componentType":5126,"count":20,"max":[1,1,1],"min":[-1,-1,0],"type":"VEC3"},{"bufferView":62,"componentType":5126,"count":20,"max":[0.28125,0.28125],"min":[0,0],"type":"VEC2"},{"bufferView":63,"componentType":5123,"count":30,"max":[19],"min":[0],"type":"SCALAR"}],"materials":[{"pbrMetallicRoughness":{"metallicFactor":0,"roughnessFactor":1,"baseColorTexture":{"index":0}},"alphaMode":"MASK","alphaCutoff":0.05,"doubleSided":true},{"pbrMetallicRoughness":{"metallicFactor":0,"roughnessFactor":1,"baseColorTexture":{"index":1}},"alphaMode":"MASK","alphaCutoff":0.05,"doubleSided":true},{"pbrMetallicRoughness":{"metallicFactor":0,"roughnessFactor":1,"baseColorTexture":{"index":2}},"alphaMode":"MASK","alphaCutoff":0.05,"doubleSided":true}],"textures":[{"sampler":0,"source":0,"name":"brick_red.png"},{"sampler":1,"source":1,"name":"stone.png"},{"sampler":2,"source":2,"name":"wood_dark.png"}],"samplers":[{"magFilter":9728,"minFilter":9728,"wrapS":10497,"wrapT":10497},{"magFilter":9728,"minFilter":9728,"wrapS":10497,"wrapT":10497},{"magFilter":9728,"minFilter":9728,"wrapS":10497,"wrapT":10497}],"images":[{"mimeType":"image/png","uri":"../textures/brick_red.png","name":"brick_red"},{"mimeType":"image/png","uri":"../textures/stone.png","name":"stone"},{"mimeType":"image/png","uri":"../textures/wood_dark.png","name":"wood_dark"}],"meshes":[{"primitives":[{"mode":4,"attributes":{"POSITION":0,"NORMAL":1,"TEXCOORD_0":2},"indices":3,"material":0}]},{"primitives":[{"mode":4,"attributes":{"POSITION":4,"NORMAL":5,"TEXCOORD_0":6},"indices":7,"material":1}]},{"primitives":[{"mode":4,"attributes":{"POSITION":8,"NORMAL":9,"TEXCOORD_0":10},"indices":11,"material":2}]},{"primitives":[{"mode":4,"attributes":{"POSITION":12,"NORMAL":13,"TEXCOORD_0":14},"indices":15,"material":0}]},{"primitives":[{"mode":4,"attributes":{"POSITION":16,"NORMAL":17,"TEXCOORD_0":18},"indices":19,"material":1}]},{"primitives":[{"mode":4,"attributes":{"POSITION":20,"NORMAL":21,"TEXCOORD_0":22},"indices":23,"material":2}]},{"primitives":[{"mode":4,"attributes":{"POSITION":24,"NORMAL":25,"TEXCOORD_0":26},"indices":27,"material":0}]},{"primitives":[{"mode":4,"attributes":{"POSITION":28,"NORMAL":29,"TEXCOORD_0":30},"indices":31,"material":1}]},{"primitives":[{"mode":4,"attributes":{"POSITION":32,"NORMAL":33,"TEXCOORD_0":34},"indices":35,"material":2}]},{"primitives":[{"mode":4,"attributes":{"POSITION":36,"NORMAL":37,"TEXCOORD_0":38},"indices":39,"material":0}]},{"primitives":[{"mode":4,"attributes":{"POSITION":40,"NORMAL":41,"TEXCOORD_0":42},"indices":43,"material":1}]},{"primitives":[{"mode":4,"attributes":{"POSITION":44,"NORMAL":45,"TEXCOORD_0":46},"indices":47,"material":2}]},{"primitives":[{"mode":4,"attributes":{"POSITION":48,"NORMAL":49,"TEXCOORD_0":50},"indices":51,"material":0}]},{"primitives":[{"mode":4,"attributes":{"POSITION":52,"NORMAL":53,"TEXCOORD_0":54},"indices":55,"material":1}]},{"primitives":[{"mode":4,"attributes":{"POSITION":56,"NORMAL":57,"TEXCOORD_0":58},"indices":59,"material":2}]},{"primitives":[{"mode":4,"attributes":{"POSITION":60,"NORMAL":61,"TEXCOORD_0":62},"indices":63,"material":0}]}]}