{"asset":{"version":"2.0","generator":"Blockbench 5.1.6 glTF exporter"},"scenes":[{"nodes":[2,7],"name":"blockbench_export"}],"scene":0,"nodes":[{"name":"upright","mesh":0},{"name":"upright","mesh":1},{"name":"upright","children":[0,1]},{"name":"shelf","mesh":2},{"name":"shelf","mesh":3},{"name":"shelf","mesh":4},{"name":"shelf","mesh":5},{"name":"shelf","children":[3,4,5,6]}],"bufferViews":[{"buffer":0,"byteOffset":0,"byteLength":384,"target":34962,"byteStride":12},{"buffer":0,"byteOffset":384,"byteLength":384,"target":34962,"byteStride":12},{"buffer":0,"byteOffset":768,"byteLength":256,"target":34962,"byteStride":8},{"buffer":0,"byteOffset":1024,"byteLength":96,"target":34963},{"buffer":0,"byteOffset":1120,"byteLength":384,"target":34962,"byteStride":12},{"buffer":0,"byteOffset":1504,"byteLength":384,"target":34962,"byteStride":12},{"buffer":0,"byteOffset":1888,"byteLength":256,"target":34962,"byteStride":8},{"buffer":0,"byteOffset":2144,"byteLength":96,"target":34963},{"buffer":0,"byteOffset":2240,"byteLength":192,"target":34962,"byteStride":12},{"buffer":0,"byteOffset":2432,"byteLength":192,"target":34962,"byteStride":12},{"buffer":0,"byteOffset":2624,"byteLength":128,"target":34962,"byteStride":8},{"buffer":0,"byteOffset":2752,"byteLength":48,"target":34963},{"buffer":0,"byteOffset":2800,"byteLength":192,"target":34962,"byteStride":12},{"buffer":0,"byteOffset":2992,"byteLength":192,"target":34962,"byteStride":12},{"buffer":0,"byteOffset":3184,"byteLength":128,"target":34962,"byteStride":8},{"buffer":0,"byteOffset":3312,"byteLength":48,"target":34963},{"buffer":0,"byteOffset":3360,"byteLength":192,"target":34962,"byteStride":12},{"buffer":0,"byteOffset":3552,"byteLength":192,"target":34962,"byteStride":12},{"buffer":0,"byteOffset":3744,"byteLength":128,"target":34962,"byteStride":8},{"buffer":0,"byteOffset":3872,"byteLength":48,"target":34963},{"buffer":0,"byteOffset":3920,"byteLength":192,"target":34962,"byteStride":12},{"buffer":0,"byteOffset":4112,"byteLength":192,"target":34962,"byteStride":12},{"buffer":0,"byteOffset":4304,"byteLength":128,"target":34962,"byteStride":8},{"buffer":0,"byteOffset":4432,"byteLength":48,"target":34963}],"buffers":[{"byteLength":4480,"uri":"data:application/octet-stream;base64,"}],"accessors":[{"bufferView":0,"componentType":5126,"count":32,"max":[-0.75,2,0.4375],"min":[-0.875,0,-0.4375],"type":"VEC3"},{"bufferView":1,"componentType":5126,"count":32,"max":[1,1,1],"min":[-1,-1,-1],"type":"VEC3"},{"bufferView":2,"componentType":5126,"count":32,"max":[0.4375,1],"min":[0,0],"type":"VEC2"},{"bufferView":3,"componentType":5123,"count":48,"max":[31],"min":[0],"type":"SCALAR"},{"bufferView":4,"componentType":5126,"count":32,"max":[0.875,2,0.4375],"min":[0.75,0,-0.4375],"type":"VEC3"},{"bufferView":5,"componentType":5126,"count":32,"max":[1,1,1],"min":[-1,-1,-1],"type":"VEC3"},{"bufferView":6,"componentType":5126,"count":32,"max":[0.4375,1],"min":[0,0],"type":"VEC2"},{"bufferView":7,"componentType":5123,"count":48,"max":[31],"min":[0],"type":"SCALAR"},{"bufferView":8,"componentType":5126,"count":16,"max":[0.75,0.125,0.4375],"min":[-0.75,0,-0.4375],"type":"VEC3"},{"bufferView":9,"componentType":5126,"count":16,"max":[0,1,1],"min":[0,-1,-1],"type":"VEC3"},{"bufferView":10,"componentType":5126,"count":16,"max":[0.75,0.4375],"min":[0,0],"type":"VEC2"},{"bufferView":11,"componentType":5123,"count":24,"max":[15],"min":[0],"type":"SCALAR"},{"bufferView":12,"componentType":5126,"count":16,"max":[0.75,0.75,0.4375],"min":[-0.75,0.625,-0.4375],"type":"VEC3"},{"bufferView":13,"componentType":5126,"count":16,"max":[0,1,1],"min":[0,-1,-1],"type":"VEC3"},{"bufferView":14,"componentType":5126,"count":16,"max":[0.75,0.4375],"min":[0,0],"type":"VEC2"},{"bufferView":15,"componentType":5123,"count":24,"max":[15],"min":[0],"type":"SCALAR"},{"bufferView":16,"componentType":5126,"count":16,"max":[0.75,1.375,0.4375],"min":[-0.75,1.25,-0.4375],"type":"VEC3"},{"bufferView":17,"componentType":5126,"count":16,"max":[0,1,1],"min":[0,-1,-1],"type":"VEC3"},{"bufferView":18,"componentType":5126,"count":16,"max":[0.75,0.4375],"min":[0,0],"type":"VEC2"},{"bufferView":19,"componentType":5123,"count":24,"max":[15],"min":[0],"type":"SCALAR"},{"bufferView":20,"componentType":5126,"count":16,"max":[0.75,2,0.4375],"min":[-0.75,1.875,-0.4375],"type":"VEC3"},{"bufferView":21,"componentType":5126,"count":16,"max":[0,1,1],"min":[0,-1,-1],"type":"VEC3"},{"bufferView":22,"componentType":5126,"count":16,"max":[0.75,0.4375],"min":[0,0],"type":"VEC2"},{"bufferView":23,"componentType":5123,"count":24,"max":[15],"min":[0],"type":"SCALAR"}],"materials":[{"pbrMetallicRoughness":{"metallicFactor":0,"roughnessFactor":1,"baseColorTexture":{"index":0}},"alphaMode":"MASK","alphaCutoff":0.05,"doubleSided":true},{"pbrMetallicRoughness":{"metallicFactor":0,"roughnessFactor":1,"baseColorTexture":{"index":1}},"alphaMode":"MASK","alphaCutoff":0.05,"doubleSided":true}],"textures":[{"sampler":0,"source":0,"name":"wood_dark.png"},{"sampler":1,"source":1,"name":"wood.png"}],"samplers":[{"magFilter":9728,"minFilter":9728,"wrapS":10497,"wrapT":10497},{"magFilter":9728,"minFilter":9728,"wrapS":10497,"wrapT":10497}],"images":[{"mimeType":"image/png","uri":"../textures/wood_dark.png","name":"wood_dark"},{"mimeType":"image/png","uri":"../textures/wood.png","name":"wood"}],"meshes":[{"primitives":[{"mode":4,"attributes":{"POSITION":0,"NORMAL":1,"TEXCOORD_0":2},"indices":3,"material":0}]},{"primitives":[{"mode":4,"attributes":{"POSITION":4,"NORMAL":5,"TEXCOORD_0":6},"indices":7,"material":0}]},{"primitives":[{"mode":4,"attributes":{"POSITION":8,"NORMAL":9,"TEXCOORD_0":10},"indices":11,"material":1}]},{"primitives":[{"mode":4,"attributes":{"POSITION":12,"NORMAL":13,"TEXCOORD_0":14},"indices":15,"material":1}]},{"primitives":[{"mode":4,"attributes":{"POSITION":16,"NORMAL":17,"TEXCOORD_0":18},"indices":19,"material":1}]},{"primitives":[{"mode":4,"attributes":{"POSITION":20,"NORMAL":21,"TEXCOORD_0":22},"indices":23,"material":1}]}]}