{"asset":{"version":"2.0","generator":"Blockbench 5.1.6 glTF exporter"},"scenes":[{"nodes":[8],"name":"blockbench_export"}],"scene":0,"nodes":[{"name":"awning","mesh":0},{"name":"awning","mesh":1},{"name":"awning","mesh":2},{"name":"awning","mesh":3},{"name":"awning","mesh":4},{"name":"awning","mesh":5},{"name":"awning","mesh":6},{"name":"awning","mesh":7},{"name":"awning","children":[0,1,2,3,4,5,6,7]}],"bufferViews":[{"buffer":0,"byteOffset":0,"byteLength":240,"target":34962,"byteStride":12},{"buffer":0,"byteOffset":240,"byteLength":240,"target":34962,"byteStride":12},{"buffer":0,"byteOffset":480,"byteLength":160,"target":34962,"byteStride":8},{"buffer":0,"byteOffset":640,"byteLength":60,"target":34963},{"buffer":0,"byteOffset":700,"byteLength":192,"target":34962,"byteStride":12},{"buffer":0,"byteOffset":892,"byteLength":192,"target":34962,"byteStride":12},{"buffer":0,"byteOffset":1084,"byteLength":128,"target":34962,"byteStride":8},{"buffer":0,"byteOffset":1212,"byteLength":48,"target":34963},{"buffer":0,"byteOffset":1260,"byteLength":192,"target":34962,"byteStride":12},{"buffer":0,"byteOffset":1452,"byteLength":192,"target":34962,"byteStride":12},{"buffer":0,"byteOffset":1644,"byteLength":128,"target":34962,"byteStride":8},{"buffer":0,"byteOffset":1772,"byteLength":48,"target":34963},{"buffer":0,"byteOffset":1820,"byteLength":192,"target":34962,"byteStride":12},{"buffer":0,"byteOffset":2012,"byteLength":192,"target":34962,"byteStride":12},{"buffer":0,"byteOffset":2204,"byteLength":128,"target":34962,"byteStride":8},{"buffer":0,"byteOffset":2332,"byteLength":48,"target":34963},{"buffer":0,"byteOffset":2380,"byteLength":192,"target":34962,"byteStride":12},{"buffer":0,"byteOffset":2572,"byteLength":192,"target":34962,"byteStride":12},{"buffer":0,"byteOffset":2764,"byteLength":128,"target":34962,"byteStride":8},{"buffer":0,"byteOffset":2892,"byteLength":48,"target":34963},{"buffer":0,"byteOffset":2940,"byteLength":192,"target":34962,"byteStride":12},{"buffer":0,"byteOffset":3132,"byteLength":192,"target":34962,"byteStride":12},{"buffer":0,"byteOffset":3324,"byteLength":128,"target":34962,"byteStride":8},{"buffer":0,"byteOffset":3452,"byteLength":48,"target":34963},{"buffer":0,"byteOffset":3500,"byteLength":192,"target":34962,"byteStride":12},{"buffer":0,"byteOffset":3692,"byteLength":192,"target":34962,"byteStride":12},{"buffer":0,"byteOffset":3884,"byteLength":128,"target":34962,"byteStride":8},{"buffer":0,"byteOffset":4012,"byteLength":48,"target":34963},{"buffer":0,"byteOffset":4060,"byteLength":240,"target":34962,"byteStride":12},{"buffer":0,"byteOffset":4300,"byteLength":240,"target":34962,"byteStride":12},{"buffer":0,"byteOffset":4540,"byteLength":160,"target":34962,"byteStride":8},{"buffer":0,"byteOffset":4700,"byteLength":60,"target":34963}],"buffers":[{"byteLength":4760,"uri":"data:application/octet-stream;base64,"}],"accessors":[{"bufferView":0,"componentType":5126,"count":20,"max":[-0.75,0.125,0.75],"min":[-1,0,-0.75],"type":"VEC3"},{"bufferView":1,"componentType":5126,"count":20,"max":[0,1,1],"min":[-1,-1,-1],"type":"VEC3"},{"bufferView":2,"componentType":5126,"count":20,"max":[0.75,0.75],"min":[0,0],"type":"VEC2"},{"bufferView":3,"componentType":5123,"count":30,"max":[19],"min":[0],"type":"SCALAR"},{"bufferView":4,"componentType":5126,"count":16,"max":[-0.5,0.125,0.75],"min":[-0.75,0,-0.75],"type":"VEC3"},{"bufferView":5,"componentType":5126,"count":16,"max":[0,1,1],"min":[0,-1,-1],"type":"VEC3"},{"bufferView":6,"componentType":5126,"count":16,"max":[0.125,0.75],"min":[0,0],"type":"VEC2"},{"bufferView":7,"componentType":5123,"count":24,"max":[15],"min":[0],"type":"SCALAR"},{"bufferView":8,"componentType":5126,"count":16,"max":[-0.25,0.125,0.75],"min":[-0.5,0,-0.75],"type":"VEC3"},{"bufferView":9,"componentType":5126,"count":16,"max":[0,1,1],"min":[0,-1,-1],"type":"VEC3"},{"bufferView":10,"componentType":5126,"count":16,"max":[0.125,0.75],"min":[0,0],"type":"VEC2"},{"bufferView":11,"componentType":5123,"count":24,"max":[15],"min":[0],"type":"SCALAR"},{"bufferView":12,"componentType":5126,"count":16,"max":[0,0.125,0.75],"min":[-0.25,0,-0.75],"type":"VEC3"},{"bufferView":13,"componentType":5126,"count":16,"max":[0,1,1],"min":[0,-1,-1],"type":"VEC3"},{"bufferView":14,"componentType":5126,"count":16,"max":[0.125,0.75],"min":[0,0],"type":"VEC2"},{"bufferView":15,"componentType":5123,"count":24,"max":[15],"min":[0],"type":"SCALAR"},{"bufferView":16,"componentType":5126,"count":16,"max":[0.25,0.125,0.75],"min":[0,0,-0.75],"type":"VEC3"},{"bufferView":17,"componentType":5126,"count":16,"max":[0,1,1],"min":[0,-1,-1],"type":"VEC3"},{"bufferView":18,"componentType":5126,"count":16,"max":[0.125,0.75],"min":[0,0],"type":"VEC2"},{"bufferView":19,"componentType":5123,"count":24,"max":[15],"min":[0],"type":"SCALAR"},{"bufferView":20,"componentType":5126,"count":16,"max":[0.5,0.125,0.75],"min":[0.25,0,-0.75],"type":"VEC3"},{"bufferView":21,"componentType":5126,"count":16,"max":[0,1,1],"min":[0,-1,-1],"type":"VEC3"},{"bufferView":22,"componentType":5126,"count":16,"max":[0.125,0.75],"min":[0,0],"type":"VEC2"},{"bufferView":23,"componentType":5123,"count":24,"max":[15],"min":[0],"type":"SCALAR"},{"bufferView":24,"componentType":5126,"count":16,"max":[0.75,0.125,0.75],"min":[0.5,0,-0.75],"type":"VEC3"},{"bufferView":25,"componentType":5126,"count":16,"max":[0,1,1],"min":[0,-1,-1],"type":"VEC3"},{"bufferView":26,"componentType":5126,"count":16,"max":[0.125,0.75],"min":[0,0],"type":"VEC2"},{"bufferView":27,"componentType":5123,"count":24,"max":[15],"min":[0],"type":"SCALAR"},{"bufferView":28,"componentType":5126,"count":20,"max":[1,0.125,0.75],"min":[0.75,0,-0.75],"type":"VEC3"},{"bufferView":29,"componentType":5126,"count":20,"max":[1,1,1],"min":[0,-1,-1],"type":"VEC3"},{"bufferView":30,"componentType":5126,"count":20,"max":[0.75,0.75],"min":[0,0],"type":"VEC2"},{"bufferView":31,"componentType":5123,"count":30,"max":[19],"min":[0],"type":"SCALAR"}],"materials":[{"pbrMetallicRoughness":{"metallicFactor":0,"roughnessFactor":1,"baseColorTexture":{"index":0}},"alphaMode":"MASK","alphaCutoff":0.05,"doubleSided":true},{"pbrMetallicRoughness":{"metallicFactor":0,"roughnessFactor":1,"baseColorTexture":{"index":1}},"alphaMode":"MASK","alphaCutoff":0.05,"doubleSided":true}],"textures":[{"sampler":0,"source":0,"name":"cream.png"},{"sampler":1,"source":1,"name":"fabric.png"}],"samplers":[{"magFilter":9728,"minFilter":9728,"wrapS":10497,"wrapT":10497},{"magFilter":9728,"minFilter":9728,"wrapS":10497,"wrapT":10497}],"images":[{"mimeType":"image/png","uri":"../textures/cream.png","name":"cream"},{"mimeType":"image/png","uri":"../textures/fabric.png","name":"fabric"}],"meshes":[{"primitives":[{"mode":4,"attributes":{"POSITION":0,"NORMAL":1,"TEXCOORD_0":2},"indices":3,"material":0}]},{"primitives":[{"mode":4,"attributes":{"POSITION":4,"NORMAL":5,"TEXCOORD_0":6},"indices":7,"material":1}]},{"primitives":[{"mode":4,"attributes":{"POSITION":8,"NORMAL":9,"TEXCOORD_0":10},"indices":11,"material":0}]},{"primitives":[{"mode":4,"attributes":{"POSITION":12,"NORMAL":13,"TEXCOORD_0":14},"indices":15,"material":1}]},{"primitives":[{"mode":4,"attributes":{"POSITION":16,"NORMAL":17,"TEXCOORD_0":18},"indices":19,"material":0}]},{"primitives":[{"mode":4,"attributes":{"POSITION":20,"NORMAL":21,"TEXCOORD_0":22},"indices":23,"material":1}]},{"primitives":[{"mode":4,"attributes":{"POSITION":24,"NORMAL":25,"TEXCOORD_0":26},"indices":27,"material":0}]},{"primitives":[{"mode":4,"attributes":{"POSITION":28,"NORMAL":29,"TEXCOORD_0":30},"indices":31,"material":1}]}]}