{"asset":{"version":"2.0","generator":"Blockbench 5.1.6 glTF exporter"},"scenes":[{"nodes":[6,8,10,12,14],"name":"blockbench_export"}],"scene":0,"nodes":[{"name":"cabinet","mesh":0},{"name":"worktop","mesh":1},{"name":"door_panel","mesh":2},{"name":"pull","mesh":3},{"name":"door_panel","mesh":4},{"name":"pull","mesh":5},{"name":"kitchen_counter_0_0_0_0","children":[0,1,2,3,4,5]},{"name":"basin","mesh":6},{"name":"basin","children":[7]},{"name":"basin_inside","mesh":7},{"name":"basin_inside","children":[9]},{"name":"tap","mesh":8},{"name":"tap","children":[11]},{"name":"tap_spout","mesh":9},{"name":"tap_spout","children":[13]}],"bufferViews":[{"buffer":0,"byteOffset":0,"byteLength":528,"target":34962,"byteStride":12},{"buffer":0,"byteOffset":528,"byteLength":528,"target":34962,"byteStride":12},{"buffer":0,"byteOffset":1056,"byteLength":352,"target":34962,"byteStride":8},{"buffer":0,"byteOffset":1408,"byteLength":132,"target":34963},{"buffer":0,"byteOffset":1540,"byteLength":576,"target":34962,"byteStride":12},{"buffer":0,"byteOffset":2116,"byteLength":576,"target":34962,"byteStride":12},{"buffer":0,"byteOffset":2692,"byteLength":384,"target":34962,"byteStride":8},{"buffer":0,"byteOffset":3076,"byteLength":144,"target":34963},{"buffer":0,"byteOffset":3220,"byteLength":384,"target":34962,"byteStride":12},{"buffer":0,"byteOffset":3604,"byteLength":384,"target":34962,"byteStride":12},{"buffer":0,"byteOffset":3988,"byteLength":256,"target":34962,"byteStride":8},{"buffer":0,"byteOffset":4244,"byteLength":96,"target":34963},{"buffer":0,"byteOffset":4340,"byteLength":240,"target":34962,"byteStride":12},{"buffer":0,"byteOffset":4580,"byteLength":240,"target":34962,"byteStride":12},{"buffer":0,"byteOffset":4820,"byteLength":160,"target":34962,"byteStride":8},{"buffer":0,"byteOffset":4980,"byteLength":60,"target":34963},{"buffer":0,"byteOffset":5040,"byteLength":384,"target":34962,"byteStride":12},{"buffer":0,"byteOffset":5424,"byteLength":384,"target":34962,"byteStride":12},{"buffer":0,"byteOffset":5808,"byteLength":256,"target":34962,"byteStride":8},{"buffer":0,"byteOffset":6064,"byteLength":96,"target":34963},{"buffer":0,"byteOffset":6160,"byteLength":240,"target":34962,"byteStride":12},{"buffer":0,"byteOffset":6400,"byteLength":240,"target":34962,"byteStride":12},{"buffer":0,"byteOffset":6640,"byteLength":160,"target":34962,"byteStride":8},{"buffer":0,"byteOffset":6800,"byteLength":60,"target":34963},{"buffer":0,"byteOffset":6860,"byteLength":432,"target":34962,"byteStride":12},{"buffer":0,"byteOffset":7292,"byteLength":432,"target":34962,"byteStride":12},{"buffer":0,"byteOffset":7724,"byteLength":288,"target":34962,"byteStride":8},{"buffer":0,"byteOffset":8012,"byteLength":108,"target":34963},{"buffer":0,"byteOffset":8120,"byteLength":240,"target":34962,"byteStride":12},{"buffer":0,"byteOffset":8360,"byteLength":240,"target":34962,"byteStride":12},{"buffer":0,"byteOffset":8600,"byteLength":160,"target":34962,"byteStride":8},{"buffer":0,"byteOffset":8760,"byteLength":60,"target":34963},{"buffer":0,"byteOffset":8820,"byteLength":192,"target":34962,"byteStride":12},{"buffer":0,"byteOffset":9012,"byteLength":192,"target":34962,"byteStride":12},{"buffer":0,"byteOffset":9204,"byteLength":128,"target":34962,"byteStride":8},{"buffer":0,"byteOffset":9332,"byteLength":48,"target":34963},{"buffer":0,"byteOffset":9380,"byteLength":288,"target":34962,"byteStride":12},{"buffer":0,"byteOffset":9668,"byteLength":288,"target":34962,"byteStride":12},{"buffer":0,"byteOffset":9956,"byteLength":192,"target":34962,"byteStride":8},{"buffer":0,"byteOffset":10148,"byteLength":72,"target":34963}],"buffers":[{"byteLength":10220,"uri":"data:application/octet-stream;base64,"}],"accessors":[{"bufferView":0,"componentType":5126,"count":44,"max":[1,1,0.5],"min":[-1,0,-0.5],"type":"VEC3"},{"bufferView":1,"componentType":5126,"count":44,"max":[1,0,1],"min":[-1,-1,-1],"type":"VEC3"},{"bufferView":2,"componentType":5126,"count":44,"max":[1,0.5],"min":[0,0],"type":"VEC2"},{"bufferView":3,"componentType":5123,"count":66,"max":[43],"min":[0],"type":"SCALAR"},{"bufferView":4,"componentType":5126,"count":48,"max":[1,1.125,0.5625],"min":[-1,1,-0.5625],"type":"VEC3"},{"bufferView":5,"componentType":5126,"count":48,"max":[1,1,1],"min":[-1,-1,-1],"type":"VEC3"},{"bufferView":6,"componentType":5126,"count":48,"max":[1,0.5625],"min":[0,0],"type":"VEC2"},{"bufferView":7,"componentType":5123,"count":72,"max":[47],"min":[0],"type":"SCALAR"},{"bufferView":8,"componentType":5126,"count":32,"max":[-0.125,0.875,-0.5],"min":[-0.8125,0.125,-0.5625],"type":"VEC3"},{"bufferView":9,"componentType":5126,"count":32,"max":[1,1,0],"min":[-1,-1,-1],"type":"VEC3"},{"bufferView":10,"componentType":5126,"count":32,"max":[0.34375,0.375],"min":[0,0],"type":"VEC2"},{"bufferView":11,"componentType":5123,"count":48,"max":[31],"min":[0],"type":"SCALAR"},{"bufferView":12,"componentType":5126,"count":20,"max":[-0.25,0.8125,-0.5625],"min":[-0.4375,0.75,-0.625],"type":"VEC3"},{"bufferView":13,"componentType":5126,"count":20,"max":[1,1,0],"min":[-1,-1,-1],"type":"VEC3"},{"bufferView":14,"componentType":5126,"count":20,"max":[0.09375,0.03125],"min":[0,0],"type":"VEC2"},{"bufferView":15,"componentType":5123,"count":30,"max":[19],"min":[0],"type":"SCALAR"},{"bufferView":16,"componentType":5126,"count":32,"max":[0.875,0.875,-0.5],"min":[0.1875,0.125,-0.5625],"type":"VEC3"},{"bufferView":17,"componentType":5126,"count":32,"max":[1,1,0],"min":[-1,-1,-1],"type":"VEC3"},{"bufferView":18,"componentType":5126,"count":32,"max":[0.34375,0.375],"min":[0,0],"type":"VEC2"},{"bufferView":19,"componentType":5123,"count":48,"max":[31],"min":[0],"type":"SCALAR"},{"bufferView":20,"componentType":5126,"count":20,"max":[0.75,0.8125,-0.5625],"min":[0.5625,0.75,-0.625],"type":"VEC3"},{"bufferView":21,"componentType":5126,"count":20,"max":[1,1,0],"min":[-1,-1,-1],"type":"VEC3"},{"bufferView":22,"componentType":5126,"count":20,"max":[0.09375,0.03125],"min":[0,0],"type":"VEC2"},{"bufferView":23,"componentType":5123,"count":30,"max":[19],"min":[0],"type":"SCALAR"},{"bufferView":24,"componentType":5126,"count":36,"max":[0.625,1.1875,0.3125],"min":[-0.625,1.125,-0.3125],"type":"VEC3"},{"bufferView":25,"componentType":5126,"count":36,"max":[1,1,1],"min":[-1,0,-1],"type":"VEC3"},{"bufferView":26,"componentType":5126,"count":36,"max":[0.625,0.3125],"min":[0,0],"type":"VEC2"},{"bufferView":27,"componentType":5123,"count":54,"max":[35],"min":[0],"type":"SCALAR"},{"bufferView":28,"componentType":5126,"count":20,"max":[0.5,1.1953125,0.1875],"min":[-0.5,1.1875,-0.1875],"type":"VEC3"},{"bufferView":29,"componentType":5126,"count":20,"max":[1,1,1],"min":[-1,0,-1],"type":"VEC3"},{"bufferView":30,"componentType":5126,"count":20,"max":[0.5,0.1875],"min":[0,0],"type":"VEC2"},{"bufferView":31,"componentType":5123,"count":30,"max":[19],"min":[0],"type":"SCALAR"},{"bufferView":32,"componentType":5126,"count":16,"max":[0.0625,1.4375,0.4375],"min":[-0.0625,1.125,0.3125],"type":"VEC3"},{"bufferView":33,"componentType":5126,"count":16,"max":[1,0,1],"min":[-1,0,-1],"type":"VEC3"},{"bufferView":34,"componentType":5126,"count":16,"max":[0.0625,0.1875],"min":[0,0.03125],"type":"VEC2"},{"bufferView":35,"componentType":5123,"count":24,"max":[15],"min":[0],"type":"SCALAR"},{"bufferView":36,"componentType":5126,"count":24,"max":[0.0625,1.5,0.4375],"min":[-0.0625,1.4375,0.125],"type":"VEC3"},{"bufferView":37,"componentType":5126,"count":24,"max":[1,1,1],"min":[-1,-1,-1],"type":"VEC3"},{"bufferView":38,"componentType":5126,"count":24,"max":[0.15625,0.15625],"min":[0,0],"type":"VEC2"},{"bufferView":39,"componentType":5123,"count":36,"max":[23],"min":[0],"type":"SCALAR"}],"materials":[{"pbrMetallicRoughness":{"metallicFactor":0,"roughnessFactor":1,"baseColorTexture":{"index":0}},"alphaMode":"MASK","alphaCutoff":0.05,"doubleSided":true},{"pbrMetallicRoughness":{"metallicFactor":0,"roughnessFactor":1,"baseColorTexture":{"index":1}},"alphaMode":"MASK","alphaCutoff":0.05,"doubleSided":true},{"pbrMetallicRoughness":{"metallicFactor":0,"roughnessFactor":1,"baseColorTexture":{"index":2}},"alphaMode":"MASK","alphaCutoff":0.05,"doubleSided":true},{"pbrMetallicRoughness":{"metallicFactor":0,"roughnessFactor":1,"baseColorTexture":{"index":3}},"alphaMode":"MASK","alphaCutoff":0.05,"doubleSided":true},{"pbrMetallicRoughness":{"metallicFactor":0,"roughnessFactor":1,"baseColorTexture":{"index":4}},"alphaMode":"MASK","alphaCutoff":0.05,"doubleSided":true}],"textures":[{"sampler":0,"source":0,"name":"wood.png"},{"sampler":1,"source":1,"name":"stone.png"},{"sampler":2,"source":2,"name":"wood_floor.png"},{"sampler":3,"source":3,"name":"metal.png"},{"sampler":4,"source":4,"name":"glass.png"}],"samplers":[{"magFilter":9728,"minFilter":9728,"wrapS":10497,"wrapT":10497},{"magFilter":9728,"minFilter":9728,"wrapS":10497,"wrapT":10497},{"magFilter":9728,"minFilter":9728,"wrapS":10497,"wrapT":10497},{"magFilter":9728,"minFilter":9728,"wrapS":10497,"wrapT":10497},{"magFilter":9728,"minFilter":9728,"wrapS":10497,"wrapT":10497}],"images":[{"mimeType":"image/png","uri":"../textures/wood.png","name":"wood"},{"mimeType":"image/png","uri":"../textures/stone.png","name":"stone"},{"mimeType":"image/png","uri":"../textures/wood_floor.png","name":"wood_floor"},{"mimeType":"image/png","uri":"../textures/metal.png","name":"metal"},{"mimeType":"image/png","uri":"../textures/glass.png","name":"glass"}],"meshes":[{"primitives":[{"mode":4,"attributes":{"POSITION":0,"NORMAL":1,"TEXCOORD_0":2},"indices":3,"material":0}]},{"primitives":[{"mode":4,"attributes":{"POSITION":4,"NORMAL":5,"TEXCOORD_0":6},"indices":7,"material":1}]},{"primitives":[{"mode":4,"attributes":{"POSITION":8,"NORMAL":9,"TEXCOORD_0":10},"indices":11,"material":2}]},{"primitives":[{"mode":4,"attributes":{"POSITION":12,"NORMAL":13,"TEXCOORD_0":14},"indices":15,"material":3}]},{"primitives":[{"mode":4,"attributes":{"POSITION":16,"NORMAL":17,"TEXCOORD_0":18},"indices":19,"material":2}]},{"primitives":[{"mode":4,"attributes":{"POSITION":20,"NORMAL":21,"TEXCOORD_0":22},"indices":23,"material":3}]},{"primitives":[{"mode":4,"attributes":{"POSITION":24,"NORMAL":25,"TEXCOORD_0":26},"indices":27,"material":3}]},{"primitives":[{"mode":4,"attributes":{"POSITION":28,"NORMAL":29,"TEXCOORD_0":30},"indices":31,"material":4}]},{"primitives":[{"mode":4,"attributes":{"POSITION":32,"NORMAL":33,"TEXCOORD_0":34},"indices":35,"material":3}]},{"primitives":[{"mode":4,"attributes":{"POSITION":36,"NORMAL":37,"TEXCOORD_0":38},"indices":39,"material":3}]}]}