{"asset":{"version":"2.0","generator":"Blockbench 5.1.6 glTF exporter"},"scenes":[{"nodes":[1,3,6,9],"name":"blockbench_export"}],"scene":0,"nodes":[{"name":"base","mesh":0},{"name":"base","children":[0]},{"name":"back","mesh":1},{"name":"back","children":[2]},{"name":"arm","mesh":2},{"name":"arm","mesh":3},{"name":"arm","children":[4,5]},{"name":"seat_cushion","mesh":4},{"name":"seat_cushion","mesh":5},{"name":"seat_cushion","children":[7,8]}],"bufferViews":[{"buffer":0,"byteOffset":0,"byteLength":912,"target":34962,"byteStride":12},{"buffer":0,"byteOffset":912,"byteLength":912,"target":34962,"byteStride":12},{"buffer":0,"byteOffset":1824,"byteLength":608,"target":34962,"byteStride":8},{"buffer":0,"byteOffset":2432,"byteLength":228,"target":34963},{"buffer":0,"byteOffset":2660,"byteLength":624,"target":34962,"byteStride":12},{"buffer":0,"byteOffset":3284,"byteLength":624,"target":34962,"byteStride":12},{"buffer":0,"byteOffset":3908,"byteLength":416,"target":34962,"byteStride":8},{"buffer":0,"byteOffset":4324,"byteLength":156,"target":34963},{"buffer":0,"byteOffset":4480,"byteLength":288,"target":34962,"byteStride":12},{"buffer":0,"byteOffset":4768,"byteLength":288,"target":34962,"byteStride":12},{"buffer":0,"byteOffset":5056,"byteLength":192,"target":34962,"byteStride":8},{"buffer":0,"byteOffset":5248,"byteLength":72,"target":34963},{"buffer":0,"byteOffset":5320,"byteLength":240,"target":34962,"byteStride":12},{"buffer":0,"byteOffset":5560,"byteLength":240,"target":34962,"byteStride":12},{"buffer":0,"byteOffset":5800,"byteLength":160,"target":34962,"byteStride":8},{"buffer":0,"byteOffset":5960,"byteLength":60,"target":34963},{"buffer":0,"byteOffset":6020,"byteLength":144,"target":34962,"byteStride":12},{"buffer":0,"byteOffset":6164,"byteLength":144,"target":34962,"byteStride":12},{"buffer":0,"byteOffset":6308,"byteLength":96,"target":34962,"byteStride":8},{"buffer":0,"byteOffset":6404,"byteLength":36,"target":34963},{"buffer":0,"byteOffset":6440,"byteLength":192,"target":34962,"byteStride":12},{"buffer":0,"byteOffset":6632,"byteLength":192,"target":34962,"byteStride":12},{"buffer":0,"byteOffset":6824,"byteLength":128,"target":34962,"byteStride":8},{"buffer":0,"byteOffset":6952,"byteLength":48,"target":34963}],"buffers":[{"byteLength":7000,"uri":"data:application/octet-stream;base64,"}],"accessors":[{"bufferView":0,"componentType":5126,"count":76,"max":[1.375,0.5,0.625],"min":[-1.375,0,-0.625],"type":"VEC3"},{"bufferView":1,"componentType":5126,"count":76,"max":[1,1,1],"min":[-1,-1,-1],"type":"VEC3"},{"bufferView":2,"componentType":5126,"count":76,"max":[1.375,0.625],"min":[0,0],"type":"VEC2"},{"bufferView":3,"componentType":5123,"count":114,"max":[75],"min":[0],"type":"SCALAR"},{"bufferView":4,"componentType":5126,"count":52,"max":[1.375,1.25,0.6875],"min":[-1.375,0.5,0.375],"type":"VEC3"},{"bufferView":5,"componentType":5126,"count":52,"max":[1,1,1],"min":[-1,-1,-1],"type":"VEC3"},{"bufferView":6,"componentType":5126,"count":52,"max":[1.375,0.375],"min":[0,0],"type":"VEC2"},{"bufferView":7,"componentType":5123,"count":78,"max":[51],"min":[0],"type":"SCALAR"},{"bufferView":8,"componentType":5126,"count":24,"max":[-0.9375,1.125,0.625],"min":[-1.3125,0.375,-0.625],"type":"VEC3"},{"bufferView":9,"componentType":5126,"count":24,"max":[1,1,1],"min":[-1,0,-1],"type":"VEC3"},{"bufferView":10,"componentType":5126,"count":24,"max":[0.5,0.5],"min":[0,0],"type":"VEC2"},{"bufferView":11,"componentType":5123,"count":36,"max":[23],"min":[0],"type":"SCALAR"},{"bufferView":12,"componentType":5126,"count":20,"max":[1.3125,1.125,0.625],"min":[0.9375,0.375,-0.625],"type":"VEC3"},{"bufferView":13,"componentType":5126,"count":20,"max":[1,1,1],"min":[-1,0,-1],"type":"VEC3"},{"bufferView":14,"componentType":5126,"count":20,"max":[0.5,0.5],"min":[0,0],"type":"VEC2"},{"bufferView":15,"componentType":5123,"count":30,"max":[19],"min":[0],"type":"SCALAR"},{"bufferView":16,"componentType":5126,"count":12,"max":[-0.0625,0.75,0.375],"min":[-0.9375,0.5,-0.5625],"type":"VEC3"},{"bufferView":17,"componentType":5126,"count":12,"max":[1,1,0],"min":[0,0,-1],"type":"VEC3"},{"bufferView":18,"componentType":5126,"count":12,"max":[0.46875,0.46875],"min":[0,0],"type":"VEC2"},{"bufferView":19,"componentType":5123,"count":18,"max":[11],"min":[0],"type":"SCALAR"},{"bufferView":20,"componentType":5126,"count":16,"max":[0.875,0.75,0.375],"min":[0,0.5,-0.5625],"type":"VEC3"},{"bufferView":21,"componentType":5126,"count":16,"max":[1,1,0],"min":[-1,0,-1],"type":"VEC3"},{"bufferView":22,"componentType":5126,"count":16,"max":[0.46875,0.46875],"min":[0,0],"type":"VEC2"},{"bufferView":23,"componentType":5123,"count":24,"max":[15],"min":[0],"type":"SCALAR"}],"materials":[{"pbrMetallicRoughness":{"metallicFactor":0,"roughnessFactor":1,"baseColorTexture":{"index":0}},"alphaMode":"MASK","alphaCutoff":0.05,"doubleSided":true},{"pbrMetallicRoughness":{"metallicFactor":0,"roughnessFactor":1,"baseColorTexture":{"index":1}},"alphaMode":"MASK","alphaCutoff":0.05,"doubleSided":true}],"textures":[{"sampler":0,"source":0,"name":"wood_dark.png"},{"sampler":1,"source":1,"name":"fabric.png"}],"samplers":[{"magFilter":9728,"minFilter":9728,"wrapS":10497,"wrapT":10497},{"magFilter":9728,"minFilter":9728,"wrapS":10497,"wrapT":10497}],"images":[{"mimeType":"image/png","uri":"../textures/wood_dark.png","name":"wood_dark"},{"mimeType":"image/png","uri":"../textures/fabric.png","name":"fabric"}],"meshes":[{"primitives":[{"mode":4,"attributes":{"POSITION":0,"NORMAL":1,"TEXCOORD_0":2},"indices":3,"material":0}]},{"primitives":[{"mode":4,"attributes":{"POSITION":4,"NORMAL":5,"TEXCOORD_0":6},"indices":7,"material":1}]},{"primitives":[{"mode":4,"attributes":{"POSITION":8,"NORMAL":9,"TEXCOORD_0":10},"indices":11,"material":1}]},{"primitives":[{"mode":4,"attributes":{"POSITION":12,"NORMAL":13,"TEXCOORD_0":14},"indices":15,"material":1}]},{"primitives":[{"mode":4,"attributes":{"POSITION":16,"NORMAL":17,"TEXCOORD_0":18},"indices":19,"material":1}]},{"primitives":[{"mode":4,"attributes":{"POSITION":20,"NORMAL":21,"TEXCOORD_0":22},"indices":23,"material":1}]}]}