{"asset":{"version":"2.0","generator":"Blockbench 5.1.6 glTF exporter"},"scenes":[{"nodes":[16,20,37],"name":"blockbench_export"}],"scene":0,"nodes":[{"name":"tread","mesh":0},{"name":"tread","mesh":1},{"name":"tread","mesh":2},{"name":"tread","mesh":3},{"name":"tread","mesh":4},{"name":"tread","mesh":5},{"name":"tread","mesh":6},{"name":"tread","mesh":7},{"name":"tread","mesh":8},{"name":"tread","mesh":9},{"name":"tread","mesh":10},{"name":"tread","mesh":11},{"name":"tread","mesh":12},{"name":"tread","mesh":13},{"name":"tread","mesh":14},{"name":"tread","mesh":15},{"name":"tread","children":[0,1,2,3,4,5,6,7,8,9,10,11,12,13,14,15]},{"name":"rail_post","mesh":16},{"name":"rail_post","mesh":17},{"name":"rail_post","mesh":18},{"name":"rail_post","children":[17,18,19]},{"name":"rail","mesh":19},{"name":"rail","mesh":20},{"name":"rail","mesh":21},{"name":"rail","mesh":22},{"name":"rail","mesh":23},{"name":"rail","mesh":24},{"name":"rail","mesh":25},{"name":"rail","mesh":26},{"name":"rail","mesh":27},{"name":"rail","mesh":28},{"name":"rail","mesh":29},{"name":"rail","mesh":30},{"name":"rail","mesh":31},{"name":"rail","mesh":32},{"name":"rail","mesh":33},{"name":"rail","mesh":34},{"name":"rail","children":[21,22,23,24,25,26,27,28,29,30,31,32,33,34,35,36]}],"bufferViews":[{"buffer":0,"byteOffset":0,"byteLength":288,"target":34962,"byteStride":12},{"buffer":0,"byteOffset":288,"byteLength":288,"target":34962,"byteStride":12},{"buffer":0,"byteOffset":576,"byteLength":192,"target":34962,"byteStride":8},{"buffer":0,"byteOffset":768,"byteLength":72,"target":34963},{"buffer":0,"byteOffset":840,"byteLength":240,"target":34962,"byteStride":12},{"buffer":0,"byteOffset":1080,"byteLength":240,"target":34962,"byteStride":12},{"buffer":0,"byteOffset":1320,"byteLength":160,"target":34962,"byteStride":8},{"buffer":0,"byteOffset":1480,"byteLength":60,"target":34963},{"buffer":0,"byteOffset":1540,"byteLength":240,"target":34962,"byteStride":12},{"buffer":0,"byteOffset":1780,"byteLength":240,"target":34962,"byteStride":12},{"buffer":0,"byteOffset":2020,"byteLength":160,"target":34962,"byteStride":8},{"buffer":0,"byteOffset":2180,"byteLength":60,"target":34963},{"buffer":0,"byteOffset":2240,"byteLength":240,"target":34962,"byteStride":12},{"buffer":0,"byteOffset":2480,"byteLength":240,"target":34962,"byteStride":12},{"buffer":0,"byteOffset":2720,"byteLength":160,"target":34962,"byteStride":8},{"buffer":0,"byteOffset":2880,"byteLength":60,"target":34963},{"buffer":0,"byteOffset":2940,"byteLength":240,"target":34962,"byteStride":12},{"buffer":0,"byteOffset":3180,"byteLength":240,"target":34962,"byteStride":12},{"buffer":0,"byteOffset":3420,"byteLength":160,"target":34962,"byteStride":8},{"buffer":0,"byteOffset":3580,"byteLength":60,"target":34963},{"buffer":0,"byteOffset":3640,"byteLength":240,"target":34962,"byteStride":12},{"buffer":0,"byteOffset":3880,"byteLength":240,"target":34962,"byteStride":12},{"buffer":0,"byteOffset":4120,"byteLength":160,"target":34962,"byteStride":8},{"buffer":0,"byteOffset":4280,"byteLength":60,"target":34963},{"buffer":0,"byteOffset":4340,"byteLength":240,"target":34962,"byteStride":12},{"buffer":0,"byteOffset":4580,"byteLength":240,"target":34962,"byteStride":12},{"buffer":0,"byteOffset":4820,"byteLength":160,"target":34962,"byteStride":8},{"buffer":0,"byteOffset":4980,"byteLength":60,"target":34963},{"buffer":0,"byteOffset":5040,"byteLength":240,"target":34962,"byteStride":12},{"buffer":0,"byteOffset":5280,"byteLength":240,"target":34962,"byteStride":12},{"buffer":0,"byteOffset":5520,"byteLength":160,"target":34962,"byteStride":8},{"buffer":0,"byteOffset":5680,"byteLength":60,"target":34963},{"buffer":0,"byteOffset":5740,"byteLength":288,"target":34962,"byteStride":12},{"buffer":0,"byteOffset":6028,"byteLength":288,"target":34962,"byteStride":12},{"buffer":0,"byteOffset":6316,"byteLength":192,"target":34962,"byteStride":8},{"buffer":0,"byteOffset":6508,"byteLength":72,"target":34963},{"buffer":0,"byteOffset":6580,"byteLength":240,"target":34962,"byteStride":12},{"buffer":0,"byteOffset":6820,"byteLength":240,"target":34962,"byteStride":12},{"buffer":0,"byteOffset":7060,"byteLength":160,"target":34962,"byteStride":8},{"buffer":0,"byteOffset":7220,"byteLength":60,"target":34963},{"buffer":0,"byteOffset":7280,"byteLength":240,"target":34962,"byteStride":12},{"buffer":0,"byteOffset":7520,"byteLength":240,"target":34962,"byteStride":12},{"buffer":0,"byteOffset":7760,"byteLength":160,"target":34962,"byteStride":8},{"buffer":0,"byteOffset":7920,"byteLength":60,"target":34963},{"buffer":0,"byteOffset":7980,"byteLength":240,"target":34962,"byteStride":12},{"buffer":0,"byteOffset":8220,"byteLength":240,"target":34962,"byteStride":12},{"buffer":0,"byteOffset":8460,"byteLength":160,"target":34962,"byteStride":8},{"buffer":0,"byteOffset":8620,"byteLength":60,"target":34963},{"buffer":0,"byteOffset":8680,"byteLength":240,"target":34962,"byteStride":12},{"buffer":0,"byteOffset":8920,"byteLength":240,"target":34962,"byteStride":12},{"buffer":0,"byteOffset":9160,"byteLength":160,"target":34962,"byteStride":8},{"buffer":0,"byteOffset":9320,"byteLength":60,"target":34963},{"buffer":0,"byteOffset":9380,"byteLength":240,"target":34962,"byteStride":12},{"buffer":0,"byteOffset":9620,"byteLength":240,"target":34962,"byteStride":12},{"buffer":0,"byteOffset":9860,"byteLength":160,"target":34962,"byteStride":8},{"buffer":0,"byteOffset":10020,"byteLength":60,"target":34963},{"buffer":0,"byteOffset":10080,"byteLength":240,"target":34962,"byteStride":12},{"buffer":0,"byteOffset":10320,"byteLength":240,"target":34962,"byteStride":12},{"buffer":0,"byteOffset":10560,"byteLength":160,"target":34962,"byteStride":8},{"buffer":0,"byteOffset":10720,"byteLength":60,"target":34963},{"buffer":0,"byteOffset":10780,"byteLength":336,"target":34962,"byteStride":12},{"buffer":0,"byteOffset":11116,"byteLength":336,"target":34962,"byteStride":12},{"buffer":0,"byteOffset":11452,"byteLength":224,"target":34962,"byteStride":8},{"buffer":0,"byteOffset":11676,"byteLength":84,"target":34963},{"buffer":0,"byteOffset":11760,"byteLength":240,"target":34962,"byteStride":12},{"buffer":0,"byteOffset":12000,"byteLength":240,"target":34962,"byteStride":12},{"buffer":0,"byteOffset":12240,"byteLength":160,"target":34962,"byteStride":8},{"buffer":0,"byteOffset":12400,"byteLength":60,"target":34963},{"buffer":0,"byteOffset":12460,"byteLength":240,"target":34962,"byteStride":12},{"buffer":0,"byteOffset":12700,"byteLength":240,"target":34962,"byteStride":12},{"buffer":0,"byteOffset":12940,"byteLength":160,"target":34962,"byteStride":8},{"buffer":0,"byteOffset":13100,"byteLength":60,"target":34963},{"buffer":0,"byteOffset":13160,"byteLength":240,"target":34962,"byteStride":12},{"buffer":0,"byteOffset":13400,"byteLength":240,"target":34962,"byteStride":12},{"buffer":0,"byteOffset":13640,"byteLength":160,"target":34962,"byteStride":8},{"buffer":0,"byteOffset":13800,"byteLength":60,"target":34963},{"buffer":0,"byteOffset":13860,"byteLength":288,"target":34962,"byteStride":12},{"buffer":0,"byteOffset":14148,"byteLength":288,"target":34962,"byteStride":12},{"buffer":0,"byteOffset":14436,"byteLength":192,"target":34962,"byteStride":8},{"buffer":0,"byteOffset":14628,"byteLength":72,"target":34963},{"buffer":0,"byteOffset":14700,"byteLength":288,"target":34962,"byteStride":12},{"buffer":0,"byteOffset":14988,"byteLength":288,"target":34962,"byteStride":12},{"buffer":0,"byteOffset":15276,"byteLength":192,"target":34962,"byteStride":8},{"buffer":0,"byteOffset":15468,"byteLength":72,"target":34963},{"buffer":0,"byteOffset":15540,"byteLength":288,"target":34962,"byteStride":12},{"buffer":0,"byteOffset":15828,"byteLength":288,"target":34962,"byteStride":12},{"buffer":0,"byteOffset":16116,"byteLength":192,"target":34962,"byteStride":8},{"buffer":0,"byteOffset":16308,"byteLength":72,"target":34963},{"buffer":0,"byteOffset":16380,"byteLength":288,"target":34962,"byteStride":12},{"buffer":0,"byteOffset":16668,"byteLength":288,"target":34962,"byteStride":12},{"buffer":0,"byteOffset":16956,"byteLength":192,"target":34962,"byteStride":8},{"buffer":0,"byteOffset":17148,"byteLength":72,"target":34963},{"buffer":0,"byteOffset":17220,"byteLength":288,"target":34962,"byteStride":12},{"buffer":0,"byteOffset":17508,"byteLength":288,"target":34962,"byteStride":12},{"buffer":0,"byteOffset":17796,"byteLength":192,"target":34962,"byteStride":8},{"buffer":0,"byteOffset":17988,"byteLength":72,"target":34963},{"buffer":0,"byteOffset":18060,"byteLength":288,"target":34962,"byteStride":12},{"buffer":0,"byteOffset":18348,"byteLength":288,"target":34962,"byteStride":12},{"buffer":0,"byteOffset":18636,"byteLength":192,"target":34962,"byteStride":8},{"buffer":0,"byteOffset":18828,"byteLength":72,"target":34963},{"buffer":0,"byteOffset":18900,"byteLength":288,"target":34962,"byteStride":12},{"buffer":0,"byteOffset":19188,"byteLength":288,"target":34962,"byteStride":12},{"buffer":0,"byteOffset":19476,"byteLength":192,"target":34962,"byteStride":8},{"buffer":0,"byteOffset":19668,"byteLength":72,"target":34963},{"buffer":0,"byteOffset":19740,"byteLength":240,"target":34962,"byteStride":12},{"buffer":0,"byteOffset":19980,"byteLength":240,"target":34962,"byteStride":12},{"buffer":0,"byteOffset":20220,"byteLength":160,"target":34962,"byteStride":8},{"buffer":0,"byteOffset":20380,"byteLength":60,"target":34963},{"buffer":0,"byteOffset":20440,"byteLength":288,"target":34962,"byteStride":12},{"buffer":0,"byteOffset":20728,"byteLength":288,"target":34962,"byteStride":12},{"buffer":0,"byteOffset":21016,"byteLength":192,"target":34962,"byteStride":8},{"buffer":0,"byteOffset":21208,"byteLength":72,"target":34963},{"buffer":0,"byteOffset":21280,"byteLength":288,"target":34962,"byteStride":12},{"buffer":0,"byteOffset":21568,"byteLength":288,"target":34962,"byteStride":12},{"buffer":0,"byteOffset":21856,"byteLength":192,"target":34962,"byteStride":8},{"buffer":0,"byteOffset":22048,"byteLength":72,"target":34963},{"buffer":0,"byteOffset":22120,"byteLength":288,"target":34962,"byteStride":12},{"buffer":0,"byteOffset":22408,"byteLength":288,"target":34962,"byteStride":12},{"buffer":0,"byteOffset":22696,"byteLength":192,"target":34962,"byteStride":8},{"buffer":0,"byteOffset":22888,"byteLength":72,"target":34963},{"buffer":0,"byteOffset":22960,"byteLength":288,"target":34962,"byteStride":12},{"buffer":0,"byteOffset":23248,"byteLength":288,"target":34962,"byteStride":12},{"buffer":0,"byteOffset":23536,"byteLength":192,"target":34962,"byteStride":8},{"buffer":0,"byteOffset":23728,"byteLength":72,"target":34963},{"buffer":0,"byteOffset":23800,"byteLength":288,"target":34962,"byteStride":12},{"buffer":0,"byteOffset":24088,"byteLength":288,"target":34962,"byteStride":12},{"buffer":0,"byteOffset":24376,"byteLength":192,"target":34962,"byteStride":8},{"buffer":0,"byteOffset":24568,"byteLength":72,"target":34963},{"buffer":0,"byteOffset":24640,"byteLength":288,"target":34962,"byteStride":12},{"buffer":0,"byteOffset":24928,"byteLength":288,"target":34962,"byteStride":12},{"buffer":0,"byteOffset":25216,"byteLength":192,"target":34962,"byteStride":8},{"buffer":0,"byteOffset":25408,"byteLength":72,"target":34963},{"buffer":0,"byteOffset":25480,"byteLength":288,"target":34962,"byteStride":12},{"buffer":0,"byteOffset":25768,"byteLength":288,"target":34962,"byteStride":12},{"buffer":0,"byteOffset":26056,"byteLength":192,"target":34962,"byteStride":8},{"buffer":0,"byteOffset":26248,"byteLength":72,"target":34963},{"buffer":0,"byteOffset":26320,"byteLength":288,"target":34962,"byteStride":12},{"buffer":0,"byteOffset":26608,"byteLength":288,"target":34962,"byteStride":12},{"buffer":0,"byteOffset":26896,"byteLength":192,"target":34962,"byteStride":8},{"buffer":0,"byteOffset":27088,"byteLength":72,"target":34963}],"buffers":[{"byteLength":27160,"uri":"data:application/octet-stream;base64,"}],"accessors":[{"bufferView":0,"componentType":5126,"count":24,"max":[0.875,0.125,-1.75],"min":[-0.875,0,-2],"type":"VEC3"},{"bufferView":1,"componentType":5126,"count":24,"max":[1,1,0],"min":[-1,-1,-1],"type":"VEC3"},{"bufferView":2,"componentType":5126,"count":24,"max":[0.875,0.125],"min":[0,0],"type":"VEC2"},{"bufferView":3,"componentType":5123,"count":36,"max":[23],"min":[0],"type":"SCALAR"},{"bufferView":4,"componentType":5126,"count":20,"max":[0.875,0.25,-1.5],"min":[-0.875,0,-1.75],"type":"VEC3"},{"bufferView":5,"componentType":5126,"count":20,"max":[1,1,0],"min":[-1,-1,-1],"type":"VEC3"},{"bufferView":6,"componentType":5126,"count":20,"max":[0.875,0.125],"min":[0,0],"type":"VEC2"},{"bufferView":7,"componentType":5123,"count":30,"max":[19],"min":[0],"type":"SCALAR"},{"bufferView":8,"componentType":5126,"count":20,"max":[0.875,0.375,-1.25],"min":[-0.875,0,-1.5],"type":"VEC3"},{"bufferView":9,"componentType":5126,"count":20,"max":[1,1,0],"min":[-1,-1,-1],"type":"VEC3"},{"bufferView":10,"componentType":5126,"count":20,"max":[0.875,0.1875],"min":[0,0],"type":"VEC2"},{"bufferView":11,"componentType":5123,"count":30,"max":[19],"min":[0],"type":"SCALAR"},{"bufferView":12,"componentType":5126,"count":20,"max":[0.875,0.5,-1],"min":[-0.875,0,-1.25],"type":"VEC3"},{"bufferView":13,"componentType":5126,"count":20,"max":[1,1,0],"min":[-1,-1,-1],"type":"VEC3"},{"bufferView":14,"componentType":5126,"count":20,"max":[0.875,0.25],"min":[0,0],"type":"VEC2"},{"bufferView":15,"componentType":5123,"count":30,"max":[19],"min":[0],"type":"SCALAR"},{"bufferView":16,"componentType":5126,"count":20,"max":[0.875,0.625,-0.75],"min":[-0.875,0,-1],"type":"VEC3"},{"bufferView":17,"componentType":5126,"count":20,"max":[1,1,0],"min":[-1,-1,-1],"type":"VEC3"},{"bufferView":18,"componentType":5126,"count":20,"max":[0.875,0.3125],"min":[0,0],"type":"VEC2"},{"bufferView":19,"componentType":5123,"count":30,"max":[19],"min":[0],"type":"SCALAR"},{"bufferView":20,"componentType":5126,"count":20,"max":[0.875,0.75,-0.5],"min":[-0.875,0,-0.75],"type":"VEC3"},{"bufferView":21,"componentType":5126,"count":20,"max":[1,1,0],"min":[-1,-1,-1],"type":"VEC3"},{"bufferView":22,"componentType":5126,"count":20,"max":[0.875,0.375],"min":[0,0],"type":"VEC2"},{"bufferView":23,"componentType":5123,"count":30,"max":[19],"min":[0],"type":"SCALAR"},{"bufferView":24,"componentType":5126,"count":20,"max":[0.875,0.875,-0.25],"min":[-0.875,0,-0.5],"type":"VEC3"},{"bufferView":25,"componentType":5126,"count":20,"max":[1,1,0],"min":[-1,-1,-1],"type":"VEC3"},{"bufferView":26,"componentType":5126,"count":20,"max":[0.875,0.4375],"min":[0,0],"type":"VEC2"},{"bufferView":27,"componentType":5123,"count":30,"max":[19],"min":[0],"type":"SCALAR"},{"bufferView":28,"componentType":5126,"count":20,"max":[0.875,1,0],"min":[-0.875,0,-0.25],"type":"VEC3"},{"bufferView":29,"componentType":5126,"count":20,"max":[1,1,0],"min":[-1,-1,-1],"type":"VEC3"},{"bufferView":30,"componentType":5126,"count":20,"max":[0.875,0.5],"min":[0,0],"type":"VEC2"},{"bufferView":31,"componentType":5123,"count":30,"max":[19],"min":[0],"type":"SCALAR"},{"bufferView":32,"componentType":5126,"count":24,"max":[0.875,1.125,0.25],"min":[-0.875,0,0],"type":"VEC3"},{"bufferView":33,"componentType":5126,"count":24,"max":[1,1,0],"min":[-1,-1,-1],"type":"VEC3"},{"bufferView":34,"componentType":5126,"count":24,"max":[0.875,0.5625],"min":[0,0],"type":"VEC2"},{"bufferView":35,"componentType":5123,"count":36,"max":[23],"min":[0],"type":"SCALAR"},{"bufferView":36,"componentType":5126,"count":20,"max":[0.875,1.25,0.5],"min":[-0.875,0,0.25],"type":"VEC3"},{"bufferView":37,"componentType":5126,"count":20,"max":[1,1,0],"min":[-1,-1,-1],"type":"VEC3"},{"bufferView":38,"componentType":5126,"count":20,"max":[0.875,0.625],"min":[0,0],"type":"VEC2"},{"bufferView":39,"componentType":5123,"count":30,"max":[19],"min":[0],"type":"SCALAR"},{"bufferView":40,"componentType":5126,"count":20,"max":[0.875,1.375,0.75],"min":[-0.875,0,0.5],"type":"VEC3"},{"bufferView":41,"componentType":5126,"count":20,"max":[1,1,0],"min":[-1,-1,-1],"type":"VEC3"},{"bufferView":42,"componentType":5126,"count":20,"max":[0.875,0.6875],"min":[0,0],"type":"VEC2"},{"bufferView":43,"componentType":5123,"count":30,"max":[19],"min":[0],"type":"SCALAR"},{"bufferView":44,"componentType":5126,"count":20,"max":[0.875,1.5,1],"min":[-0.875,0,0.75],"type":"VEC3"},{"bufferView":45,"componentType":5126,"count":20,"max":[1,1,0],"min":[-1,-1,-1],"type":"VEC3"},{"bufferView":46,"componentType":5126,"count":20,"max":[0.875,0.75],"min":[0,0],"type":"VEC2"},{"bufferView":47,"componentType":5123,"count":30,"max":[19],"min":[0],"type":"SCALAR"},{"bufferView":48,"componentType":5126,"count":20,"max":[0.875,1.625,1.25],"min":[-0.875,0,1],"type":"VEC3"},{"bufferView":49,"componentType":5126,"count":20,"max":[1,1,0],"min":[-1,-1,-1],"type":"VEC3"},{"bufferView":50,"componentType":5126,"count":20,"max":[0.875,0.8125],"min":[0,0],"type":"VEC2"},{"bufferView":51,"componentType":5123,"count":30,"max":[19],"min":[0],"type":"SCALAR"},{"bufferView":52,"componentType":5126,"count":20,"max":[0.875,1.75,1.5],"min":[-0.875,0,1.25],"type":"VEC3"},{"bufferView":53,"componentType":5126,"count":20,"max":[1,1,0],"min":[-1,-1,-1],"type":"VEC3"},{"bufferView":54,"componentType":5126,"count":20,"max":[0.875,0.875],"min":[0,0],"type":"VEC2"},{"bufferView":55,"componentType":5123,"count":30,"max":[19],"min":[0],"type":"SCALAR"},{"bufferView":56,"componentType":5126,"count":20,"max":[0.875,1.875,1.75],"min":[-0.875,0,1.5],"type":"VEC3"},{"bufferView":57,"componentType":5126,"count":20,"max":[1,1,0],"min":[-1,-1,-1],"type":"VEC3"},{"bufferView":58,"componentType":5126,"count":20,"max":[0.875,0.9375],"min":[0,0],"type":"VEC2"},{"bufferView":59,"componentType":5123,"count":30,"max":[19],"min":[0],"type":"SCALAR"},{"bufferView":60,"componentType":5126,"count":28,"max":[0.875,2,2],"min":[-0.875,0,1.75],"type":"VEC3"},{"bufferView":61,"componentType":5126,"count":28,"max":[1,1,1],"min":[-1,-1,-1],"type":"VEC3"},{"bufferView":62,"componentType":5126,"count":28,"max":[0.875,1],"min":[0,0],"type":"VEC2"},{"bufferView":63,"componentType":5123,"count":42,"max":[27],"min":[0],"type":"SCALAR"},{"bufferView":64,"componentType":5126,"count":20,"max":[-0.875,0.75,-1.75],"min":[-1,0.0625,-1.875],"type":"VEC3"},{"bufferView":65,"componentType":5126,"count":20,"max":[1,0,1],"min":[-1,-1,-1],"type":"VEC3"},{"bufferView":66,"componentType":5126,"count":20,"max":[0.0625,0.375],"min":[0,0],"type":"VEC2"},{"bufferView":67,"componentType":5123,"count":30,"max":[19],"min":[0],"type":"SCALAR"},{"bufferView":68,"componentType":5126,"count":20,"max":[-0.875,1.75,0.125],"min":[-1,1,0],"type":"VEC3"},{"bufferView":69,"componentType":5126,"count":20,"max":[1,0,1],"min":[-1,-1,-1],"type":"VEC3"},{"bufferView":70,"componentType":5126,"count":20,"max":[0.0625,0.375],"min":[0,0],"type":"VEC2"},{"bufferView":71,"componentType":5123,"count":30,"max":[19],"min":[0],"type":"SCALAR"},{"bufferView":72,"componentType":5126,"count":20,"max":[-0.875,2.625,2],"min":[-1,1.9375,1.875],"type":"VEC3"},{"bufferView":73,"componentType":5126,"count":20,"max":[1,0,1],"min":[-1,-1,-1],"type":"VEC3"},{"bufferView":74,"componentType":5126,"count":20,"max":[0.0625,0.375],"min":[0,0],"type":"VEC2"},{"bufferView":75,"componentType":5123,"count":30,"max":[19],"min":[0],"type":"SCALAR"},{"bufferView":76,"componentType":5126,"count":24,"max":[-0.875,0.875,-1.75],"min":[-1,0.75,-2],"type":"VEC3"},{"bufferView":77,"componentType":5126,"count":24,"max":[1,1,1],"min":[-1,-1,-1],"type":"VEC3"},{"bufferView":78,"componentType":5126,"count":24,"max":[0.125,0.125],"min":[0,0],"type":"VEC2"},{"bufferView":79,"componentType":5123,"count":36,"max":[23],"min":[0],"type":"SCALAR"},{"bufferView":80,"componentType":5126,"count":24,"max":[-0.875,1,-1.5],"min":[-1,0.875,-1.75],"type":"VEC3"},{"bufferView":81,"componentType":5126,"count":24,"max":[1,1,1],"min":[-1,-1,-1],"type":"VEC3"},{"bufferView":82,"componentType":5126,"count":24,"max":[0.125,0.125],"min":[0,0],"type":"VEC2"},{"bufferView":83,"componentType":5123,"count":36,"max":[23],"min":[0],"type":"SCALAR"},{"bufferView":84,"componentType":5126,"count":24,"max":[-0.875,1.125,-1.25],"min":[-1,1,-1.5],"type":"VEC3"},{"bufferView":85,"componentType":5126,"count":24,"max":[1,1,1],"min":[-1,-1,-1],"type":"VEC3"},{"bufferView":86,"componentType":5126,"count":24,"max":[0.125,0.125],"min":[0,0],"type":"VEC2"},{"bufferView":87,"componentType":5123,"count":36,"max":[23],"min":[0],"type":"SCALAR"},{"bufferView":88,"componentType":5126,"count":24,"max":[-0.875,1.25,-1],"min":[-1,1.125,-1.25],"type":"VEC3"},{"bufferView":89,"componentType":5126,"count":24,"max":[1,1,1],"min":[-1,-1,-1],"type":"VEC3"},{"bufferView":90,"componentType":5126,"count":24,"max":[0.125,0.125],"min":[0,0],"type":"VEC2"},{"bufferView":91,"componentType":5123,"count":36,"max":[23],"min":[0],"type":"SCALAR"},{"bufferView":92,"componentType":5126,"count":24,"max":[-0.875,1.375,-0.75],"min":[-1,1.25,-1],"type":"VEC3"},{"bufferView":93,"componentType":5126,"count":24,"max":[1,1,1],"min":[-1,-1,-1],"type":"VEC3"},{"bufferView":94,"componentType":5126,"count":24,"max":[0.125,0.125],"min":[0,0],"type":"VEC2"},{"bufferView":95,"componentType":5123,"count":36,"max":[23],"min":[0],"type":"SCALAR"},{"bufferView":96,"componentType":5126,"count":24,"max":[-0.875,1.5,-0.5],"min":[-1,1.375,-0.75],"type":"VEC3"},{"bufferView":97,"componentType":5126,"count":24,"max":[1,1,1],"min":[-1,-1,-1],"type":"VEC3"},{"bufferView":98,"componentType":5126,"count":24,"max":[0.125,0.125],"min":[0,0],"type":"VEC2"},{"bufferView":99,"componentType":5123,"count":36,"max":[23],"min":[0],"type":"SCALAR"},{"bufferView":100,"componentType":5126,"count":24,"max":[-0.875,1.625,-0.25],"min":[-1,1.5,-0.5],"type":"VEC3"},{"bufferView":101,"componentType":5126,"count":24,"max":[1,1,1],"min":[-1,-1,-1],"type":"VEC3"},{"bufferView":102,"componentType":5126,"count":24,"max":[0.125,0.125],"min":[0,0],"type":"VEC2"},{"bufferView":103,"componentType":5123,"count":36,"max":[23],"min":[0],"type":"SCALAR"},{"bufferView":104,"componentType":5126,"count":20,"max":[-0.875,1.75,0],"min":[-1,1.625,-0.25],"type":"VEC3"},{"bufferView":105,"componentType":5126,"count":20,"max":[1,1,0],"min":[-1,-1,-1],"type":"VEC3"},{"bufferView":106,"componentType":5126,"count":20,"max":[0.125,0.125],"min":[0,0],"type":"VEC2"},{"bufferView":107,"componentType":5123,"count":30,"max":[19],"min":[0],"type":"SCALAR"},{"bufferView":108,"componentType":5126,"count":24,"max":[-0.875,1.875,0.25],"min":[-1,1.75,0],"type":"VEC3"},{"bufferView":109,"componentType":5126,"count":24,"max":[1,1,1],"min":[-1,-1,-1],"type":"VEC3"},{"bufferView":110,"componentType":5126,"count":24,"max":[0.125,0.125],"min":[0,0],"type":"VEC2"},{"bufferView":111,"componentType":5123,"count":36,"max":[23],"min":[0],"type":"SCALAR"},{"bufferView":112,"componentType":5126,"count":24,"max":[-0.875,2,0.5],"min":[-1,1.875,0.25],"type":"VEC3"},{"bufferView":113,"componentType":5126,"count":24,"max":[1,1,1],"min":[-1,-1,-1],"type":"VEC3"},{"bufferView":114,"componentType":5126,"count":24,"max":[0.125,0.125],"min":[0,0],"type":"VEC2"},{"bufferView":115,"componentType":5123,"count":36,"max":[23],"min":[0],"type":"SCALAR"},{"bufferView":116,"componentType":5126,"count":24,"max":[-0.875,2.125,0.75],"min":[-1,2,0.5],"type":"VEC3"},{"bufferView":117,"componentType":5126,"count":24,"max":[1,1,1],"min":[-1,-1,-1],"type":"VEC3"},{"bufferView":118,"componentType":5126,"count":24,"max":[0.125,0.125],"min":[0,0],"type":"VEC2"},{"bufferView":119,"componentType":5123,"count":36,"max":[23],"min":[0],"type":"SCALAR"},{"bufferView":120,"componentType":5126,"count":24,"max":[-0.875,2.25,1],"min":[-1,2.125,0.75],"type":"VEC3"},{"bufferView":121,"componentType":5126,"count":24,"max":[1,1,1],"min":[-1,-1,-1],"type":"VEC3"},{"bufferView":122,"componentType":5126,"count":24,"max":[0.125,0.125],"min":[0,0],"type":"VEC2"},{"bufferView":123,"componentType":5123,"count":36,"max":[23],"min":[0],"type":"SCALAR"},{"bufferView":124,"componentType":5126,"count":24,"max":[-0.875,2.375,1.25],"min":[-1,2.25,1],"type":"VEC3"},{"bufferView":125,"componentType":5126,"count":24,"max":[1,1,1],"min":[-1,-1,-1],"type":"VEC3"},{"bufferView":126,"componentType":5126,"count":24,"max":[0.125,0.125],"min":[0,0],"type":"VEC2"},{"bufferView":127,"componentType":5123,"count":36,"max":[23],"min":[0],"type":"SCALAR"},{"bufferView":128,"componentType":5126,"count":24,"max":[-0.875,2.5,1.5],"min":[-1,2.375,1.25],"type":"VEC3"},{"bufferView":129,"componentType":5126,"count":24,"max":[1,1,1],"min":[-1,-1,-1],"type":"VEC3"},{"bufferView":130,"componentType":5126,"count":24,"max":[0.125,0.125],"min":[0,0],"type":"VEC2"},{"bufferView":131,"componentType":5123,"count":36,"max":[23],"min":[0],"type":"SCALAR"},{"bufferView":132,"componentType":5126,"count":24,"max":[-0.875,2.625,1.75],"min":[-1,2.5,1.5],"type":"VEC3"},{"bufferView":133,"componentType":5126,"count":24,"max":[1,1,1],"min":[-1,-1,-1],"type":"VEC3"},{"bufferView":134,"componentType":5126,"count":24,"max":[0.125,0.125],"min":[0,0],"type":"VEC2"},{"bufferView":135,"componentType":5123,"count":36,"max":[23],"min":[0],"type":"SCALAR"},{"bufferView":136,"componentType":5126,"count":24,"max":[-0.875,2.75,2],"min":[-1,2.625,1.75],"type":"VEC3"},{"bufferView":137,"componentType":5126,"count":24,"max":[1,1,1],"min":[-1,-1,-1],"type":"VEC3"},{"bufferView":138,"componentType":5126,"count":24,"max":[0.125,0.125],"min":[0,0],"type":"VEC2"},{"bufferView":139,"componentType":5123,"count":36,"max":[23],"min":[0],"type":"SCALAR"}],"materials":[{"pbrMetallicRoughness":{"metallicFactor":0,"roughnessFactor":1,"baseColorTexture":{"index":0}},"alphaMode":"MASK","alphaCutoff":0.05,"doubleSided":true},{"pbrMetallicRoughness":{"metallicFactor":0,"roughnessFactor":1,"baseColorTexture":{"index":1}},"alphaMode":"MASK","alphaCutoff":0.05,"doubleSided":true}],"textures":[{"sampler":0,"source":0,"name":"wood_floor.png"},{"sampler":1,"source":1,"name":"metal.png"}],"samplers":[{"magFilter":9728,"minFilter":9728,"wrapS":10497,"wrapT":10497},{"magFilter":9728,"minFilter":9728,"wrapS":10497,"wrapT":10497}],"images":[{"mimeType":"image/png","uri":"../textures/wood_floor.png","name":"wood_floor"},{"mimeType":"image/png","uri":"../textures/metal.png","name":"metal"}],"meshes":[{"primitives":[{"mode":4,"attributes":{"POSITION":0,"NORMAL":1,"TEXCOORD_0":2},"indices":3,"material":0}]},{"primitives":[{"mode":4,"attributes":{"POSITION":4,"NORMAL":5,"TEXCOORD_0":6},"indices":7,"material":0}]},{"primitives":[{"mode":4,"attributes":{"POSITION":8,"NORMAL":9,"TEXCOORD_0":10},"indices":11,"material":0}]},{"primitives":[{"mode":4,"attributes":{"POSITION":12,"NORMAL":13,"TEXCOORD_0":14},"indices":15,"material":0}]},{"primitives":[{"mode":4,"attributes":{"POSITION":16,"NORMAL":17,"TEXCOORD_0":18},"indices":19,"material":0}]},{"primitives":[{"mode":4,"attributes":{"POSITION":20,"NORMAL":21,"TEXCOORD_0":22},"indices":23,"material":0}]},{"primitives":[{"mode":4,"attributes":{"POSITION":24,"NORMAL":25,"TEXCOORD_0":26},"indices":27,"material":0}]},{"primitives":[{"mode":4,"attributes":{"POSITION":28,"NORMAL":29,"TEXCOORD_0":30},"indices":31,"material":0}]},{"primitives":[{"mode":4,"attributes":{"POSITION":32,"NORMAL":33,"TEXCOORD_0":34},"indices":35,"material":0}]},{"primitives":[{"mode":4,"attributes":{"POSITION":36,"NORMAL":37,"TEXCOORD_0":38},"indices":39,"material":0}]},{"primitives":[{"mode":4,"attributes":{"POSITION":40,"NORMAL":41,"TEXCOORD_0":42},"indices":43,"material":0}]},{"primitives":[{"mode":4,"attributes":{"POSITION":44,"NORMAL":45,"TEXCOORD_0":46},"indices":47,"material":0}]},{"primitives":[{"mode":4,"attributes":{"POSITION":48,"NORMAL":49,"TEXCOORD_0":50},"indices":51,"material":0}]},{"primitives":[{"mode":4,"attributes":{"POSITION":52,"NORMAL":53,"TEXCOORD_0":54},"indices":55,"material":0}]},{"primitives":[{"mode":4,"attributes":{"POSITION":56,"NORMAL":57,"TEXCOORD_0":58},"indices":59,"material":0}]},{"primitives":[{"mode":4,"attributes":{"POSITION":60,"NORMAL":61,"TEXCOORD_0":62},"indices":63,"material":0}]},{"primitives":[{"mode":4,"attributes":{"POSITION":64,"NORMAL":65,"TEXCOORD_0":66},"indices":67,"material":1}]},{"primitives":[{"mode":4,"attributes":{"POSITION":68,"NORMAL":69,"TEXCOORD_0":70},"indices":71,"material":1}]},{"primitives":[{"mode":4,"attributes":{"POSITION":72,"NORMAL":73,"TEXCOORD_0":74},"indices":75,"material":1}]},{"primitives":[{"mode":4,"attributes":{"POSITION":76,"NORMAL":77,"TEXCOORD_0":78},"indices":79,"material":1}]},{"primitives":[{"mode":4,"attributes":{"POSITION":80,"NORMAL":81,"TEXCOORD_0":82},"indices":83,"material":1}]},{"primitives":[{"mode":4,"attributes":{"POSITION":84,"NORMAL":85,"TEXCOORD_0":86},"indices":87,"material":1}]},{"primitives":[{"mode":4,"attributes":{"POSITION":88,"NORMAL":89,"TEXCOORD_0":90},"indices":91,"material":1}]},{"primitives":[{"mode":4,"attributes":{"POSITION":92,"NORMAL":93,"TEXCOORD_0":94},"indices":95,"material":1}]},{"primitives":[{"mode":4,"attributes":{"POSITION":96,"NORMAL":97,"TEXCOORD_0":98},"indices":99,"material":1}]},{"primitives":[{"mode":4,"attributes":{"POSITION":100,"NORMAL":101,"TEXCOORD_0":102},"indices":103,"material":1}]},{"primitives":[{"mode":4,"attributes":{"POSITION":104,"NORMAL":105,"TEXCOORD_0":106},"indices":107,"material":1}]},{"primitives":[{"mode":4,"attributes":{"POSITION":108,"NORMAL":109,"TEXCOORD_0":110},"indices":111,"material":1}]},{"primitives":[{"mode":4,"attributes":{"POSITION":112,"NORMAL":113,"TEXCOORD_0":114},"indices":115,"material":1}]},{"primitives":[{"mode":4,"attributes":{"POSITION":116,"NORMAL":117,"TEXCOORD_0":118},"indices":119,"material":1}]},{"primitives":[{"mode":4,"attributes":{"POSITION":120,"NORMAL":121,"TEXCOORD_0":122},"indices":123,"material":1}]},{"primitives":[{"mode":4,"attributes":{"POSITION":124,"NORMAL":125,"TEXCOORD_0":126},"indices":127,"material":1}]},{"primitives":[{"mode":4,"attributes":{"POSITION":128,"NORMAL":129,"TEXCOORD_0":130},"indices":131,"material":1}]},{"primitives":[{"mode":4,"attributes":{"POSITION":132,"NORMAL":133,"TEXCOORD_0":134},"indices":135,"material":1}]},{"primitives":[{"mode":4,"attributes":{"POSITION":136,"NORMAL":137,"TEXCOORD_0":138},"indices":139,"material":1}]}]}