{"asset":{"version":"2.0","generator":"Blockbench 5.1.6 glTF exporter"},"scenes":[{"nodes":[4,8],"name":"blockbench_export"}],"scene":0,"nodes":[{"name":"post","mesh":0},{"name":"post","mesh":1},{"name":"post","mesh":2},{"name":"post","mesh":3},{"name":"post","children":[0,1,2,3]},{"name":"deck","mesh":4},{"name":"deck","mesh":5},{"name":"deck","mesh":6},{"name":"deck","children":[5,6,7]}],"bufferViews":[{"buffer":0,"byteOffset":0,"byteLength":864,"target":34962,"byteStride":12},{"buffer":0,"byteOffset":864,"byteLength":864,"target":34962,"byteStride":12},{"buffer":0,"byteOffset":1728,"byteLength":576,"target":34962,"byteStride":8},{"buffer":0,"byteOffset":2304,"byteLength":216,"target":34963},{"buffer":0,"byteOffset":2520,"byteLength":864,"target":34962,"byteStride":12},{"buffer":0,"byteOffset":3384,"byteLength":864,"target":34962,"byteStride":12},{"buffer":0,"byteOffset":4248,"byteLength":576,"target":34962,"byteStride":8},{"buffer":0,"byteOffset":4824,"byteLength":216,"target":34963},{"buffer":0,"byteOffset":5040,"byteLength":864,"target":34962,"byteStride":12},{"buffer":0,"byteOffset":5904,"byteLength":864,"target":34962,"byteStride":12},{"buffer":0,"byteOffset":6768,"byteLength":576,"target":34962,"byteStride":8},{"buffer":0,"byteOffset":7344,"byteLength":216,"target":34963},{"buffer":0,"byteOffset":7560,"byteLength":864,"target":34962,"byteStride":12},{"buffer":0,"byteOffset":8424,"byteLength":864,"target":34962,"byteStride":12},{"buffer":0,"byteOffset":9288,"byteLength":576,"target":34962,"byteStride":8},{"buffer":0,"byteOffset":9864,"byteLength":216,"target":34963},{"buffer":0,"byteOffset":10080,"byteLength":480,"target":34962,"byteStride":12},{"buffer":0,"byteOffset":10560,"byteLength":480,"target":34962,"byteStride":12},{"buffer":0,"byteOffset":11040,"byteLength":320,"target":34962,"byteStride":8},{"buffer":0,"byteOffset":11360,"byteLength":120,"target":34963},{"buffer":0,"byteOffset":11480,"byteLength":480,"target":34962,"byteStride":12},{"buffer":0,"byteOffset":11960,"byteLength":480,"target":34962,"byteStride":12},{"buffer":0,"byteOffset":12440,"byteLength":320,"target":34962,"byteStride":8},{"buffer":0,"byteOffset":12760,"byteLength":120,"target":34963},{"buffer":0,"byteOffset":12880,"byteLength":480,"target":34962,"byteStride":12},{"buffer":0,"byteOffset":13360,"byteLength":480,"target":34962,"byteStride":12},{"buffer":0,"byteOffset":13840,"byteLength":320,"target":34962,"byteStride":8},{"buffer":0,"byteOffset":14160,"byteLength":120,"target":34963}],"buffers":[{"byteLength":14280,"uri":"data:application/octet-stream;base64,"}],"accessors":[{"bufferView":0,"componentType":5126,"count":72,"max":[-1.75,3,-0.625],"min":[-1.875,0,-0.75],"type":"VEC3"},{"bufferView":1,"componentType":5126,"count":72,"max":[1,1,1],"min":[-1,-1,-1],"type":"VEC3"},{"bufferView":2,"componentType":5126,"count":72,"max":[0.0625,1.5],"min":[0,0],"type":"VEC2"},{"bufferView":3,"componentType":5123,"count":108,"max":[71],"min":[0],"type":"SCALAR"},{"bufferView":4,"componentType":5126,"count":72,"max":[-1.75,3,0.75],"min":[-1.875,0,0.625],"type":"VEC3"},{"bufferView":5,"componentType":5126,"count":72,"max":[1,1,1],"min":[-1,-1,-1],"type":"VEC3"},{"bufferView":6,"componentType":5126,"count":72,"max":[0.0625,1.5],"min":[0,0],"type":"VEC2"},{"bufferView":7,"componentType":5123,"count":108,"max":[71],"min":[0],"type":"SCALAR"},{"bufferView":8,"componentType":5126,"count":72,"max":[1.875,3,-0.625],"min":[1.75,0,-0.75],"type":"VEC3"},{"bufferView":9,"componentType":5126,"count":72,"max":[1,1,1],"min":[-1,-1,-1],"type":"VEC3"},{"bufferView":10,"componentType":5126,"count":72,"max":[0.0625,1.5],"min":[0,0],"type":"VEC2"},{"bufferView":11,"componentType":5123,"count":108,"max":[71],"min":[0],"type":"SCALAR"},{"bufferView":12,"componentType":5126,"count":72,"max":[1.875,3,0.75],"min":[1.75,0,0.625],"type":"VEC3"},{"bufferView":13,"componentType":5126,"count":72,"max":[1,1,1],"min":[-1,-1,-1],"type":"VEC3"},{"bufferView":14,"componentType":5126,"count":72,"max":[0.0625,1.5],"min":[0,0],"type":"VEC2"},{"bufferView":15,"componentType":5123,"count":108,"max":[71],"min":[0],"type":"SCALAR"},{"bufferView":16,"componentType":5126,"count":40,"max":[1.875,0.3125,0.75],"min":[-1.875,0.1875,-0.75],"type":"VEC3"},{"bufferView":17,"componentType":5126,"count":40,"max":[1,1,1],"min":[-1,-1,-1],"type":"VEC3"},{"bufferView":18,"componentType":5126,"count":40,"max":[1.875,0.75],"min":[0,0],"type":"VEC2"},{"bufferView":19,"componentType":5123,"count":60,"max":[39],"min":[0],"type":"SCALAR"},{"bufferView":20,"componentType":5126,"count":40,"max":[1.875,1.5,0.75],"min":[-1.875,1.375,-0.75],"type":"VEC3"},{"bufferView":21,"componentType":5126,"count":40,"max":[1,1,1],"min":[-1,-1,-1],"type":"VEC3"},{"bufferView":22,"componentType":5126,"count":40,"max":[1.875,0.75],"min":[0,0],"type":"VEC2"},{"bufferView":23,"componentType":5123,"count":60,"max":[39],"min":[0],"type":"SCALAR"},{"bufferView":24,"componentType":5126,"count":40,"max":[1.875,2.75,0.75],"min":[-1.875,2.625,-0.75],"type":"VEC3"},{"bufferView":25,"componentType":5126,"count":40,"max":[1,1,1],"min":[-1,-1,-1],"type":"VEC3"},{"bufferView":26,"componentType":5126,"count":40,"max":[1.875,0.75],"min":[0,0],"type":"VEC2"},{"bufferView":27,"componentType":5123,"count":60,"max":[39],"min":[0],"type":"SCALAR"}],"materials":[{"pbrMetallicRoughness":{"metallicFactor":0,"roughnessFactor":1,"baseColorTexture":{"index":0}},"alphaMode":"MASK","alphaCutoff":0.05,"doubleSided":true},{"pbrMetallicRoughness":{"metallicFactor":0,"roughnessFactor":1,"baseColorTexture":{"index":1}},"alphaMode":"MASK","alphaCutoff":0.05,"doubleSided":true}],"textures":[{"sampler":0,"source":0,"name":"paint.png"},{"sampler":1,"source":1,"name":"metal.png"}],"samplers":[{"magFilter":9728,"minFilter":9728,"wrapS":10497,"wrapT":10497},{"magFilter":9728,"minFilter":9728,"wrapS":10497,"wrapT":10497}],"images":[{"mimeType":"image/png","uri":"../textures/paint.png","name":"paint"},{"mimeType":"image/png","uri":"../textures/metal.png","name":"metal"}],"meshes":[{"primitives":[{"mode":4,"attributes":{"POSITION":0,"NORMAL":1,"TEXCOORD_0":2},"indices":3,"material":0}]},{"primitives":[{"mode":4,"attributes":{"POSITION":4,"NORMAL":5,"TEXCOORD_0":6},"indices":7,"material":0}]},{"primitives":[{"mode":4,"attributes":{"POSITION":8,"NORMAL":9,"TEXCOORD_0":10},"indices":11,"material":0}]},{"primitives":[{"mode":4,"attributes":{"POSITION":12,"NORMAL":13,"TEXCOORD_0":14},"indices":15,"material":0}]},{"primitives":[{"mode":4,"attributes":{"POSITION":16,"NORMAL":17,"TEXCOORD_0":18},"indices":19,"material":1}]},{"primitives":[{"mode":4,"attributes":{"POSITION":20,"NORMAL":21,"TEXCOORD_0":22},"indices":23,"material":1}]},{"primitives":[{"mode":4,"attributes":{"POSITION":24,"NORMAL":25,"TEXCOORD_0":26},"indices":27,"material":1}]}]}