{"asset":{"version":"2.0","generator":"Blockbench 5.1.6 glTF exporter"},"scenes":[{"nodes":[1,3,5,10],"name":"blockbench_export"}],"scene":0,"nodes":[{"name":"oven","mesh":0},{"name":"oven","children":[0]},{"name":"oven_glass","mesh":1},{"name":"oven_glass","children":[2]},{"name":"top","mesh":2},{"name":"top","children":[4]},{"name":"burner","mesh":3},{"name":"burner","mesh":4},{"name":"burner","mesh":5},{"name":"burner","mesh":6},{"name":"burner","children":[6,7,8,9]}],"bufferViews":[{"buffer":0,"byteOffset":0,"byteLength":384,"target":34962,"byteStride":12},{"buffer":0,"byteOffset":384,"byteLength":384,"target":34962,"byteStride":12},{"buffer":0,"byteOffset":768,"byteLength":256,"target":34962,"byteStride":8},{"buffer":0,"byteOffset":1024,"byteLength":96,"target":34963},{"buffer":0,"byteOffset":1120,"byteLength":240,"target":34962,"byteStride":12},{"buffer":0,"byteOffset":1360,"byteLength":240,"target":34962,"byteStride":12},{"buffer":0,"byteOffset":1600,"byteLength":160,"target":34962,"byteStride":8},{"buffer":0,"byteOffset":1760,"byteLength":60,"target":34963},{"buffer":0,"byteOffset":1820,"byteLength":624,"target":34962,"byteStride":12},{"buffer":0,"byteOffset":2444,"byteLength":624,"target":34962,"byteStride":12},{"buffer":0,"byteOffset":3068,"byteLength":416,"target":34962,"byteStride":8},{"buffer":0,"byteOffset":3484,"byteLength":156,"target":34963},{"buffer":0,"byteOffset":3640,"byteLength":240,"target":34962,"byteStride":12},{"buffer":0,"byteOffset":3880,"byteLength":240,"target":34962,"byteStride":12},{"buffer":0,"byteOffset":4120,"byteLength":160,"target":34962,"byteStride":8},{"buffer":0,"byteOffset":4280,"byteLength":60,"target":34963},{"buffer":0,"byteOffset":4340,"byteLength":240,"target":34962,"byteStride":12},{"buffer":0,"byteOffset":4580,"byteLength":240,"target":34962,"byteStride":12},{"buffer":0,"byteOffset":4820,"byteLength":160,"target":34962,"byteStride":8},{"buffer":0,"byteOffset":4980,"byteLength":60,"target":34963},{"buffer":0,"byteOffset":5040,"byteLength":240,"target":34962,"byteStride":12},{"buffer":0,"byteOffset":5280,"byteLength":240,"target":34962,"byteStride":12},{"buffer":0,"byteOffset":5520,"byteLength":160,"target":34962,"byteStride":8},{"buffer":0,"byteOffset":5680,"byteLength":60,"target":34963},{"buffer":0,"byteOffset":5740,"byteLength":240,"target":34962,"byteStride":12},{"buffer":0,"byteOffset":5980,"byteLength":240,"target":34962,"byteStride":12},{"buffer":0,"byteOffset":6220,"byteLength":160,"target":34962,"byteStride":8},{"buffer":0,"byteOffset":6380,"byteLength":60,"target":34963}],"buffers":[{"byteLength":6440,"uri":"data:application/octet-stream;base64,"}],"accessors":[{"bufferView":0,"componentType":5126,"count":32,"max":[0.75,1.0625,0.5625],"min":[-0.75,0,-0.5625],"type":"VEC3"},{"bufferView":1,"componentType":5126,"count":32,"max":[1,0,1],"min":[-1,-1,-1],"type":"VEC3"},{"bufferView":2,"componentType":5126,"count":32,"max":[0.75,0.5625],"min":[0,0],"type":"VEC2"},{"bufferView":3,"componentType":5123,"count":48,"max":[31],"min":[0],"type":"SCALAR"},{"bufferView":4,"componentType":5126,"count":20,"max":[0.5625,0.8125,-0.5625],"min":[-0.5625,0.1875,-0.59375],"type":"VEC3"},{"bufferView":5,"componentType":5126,"count":20,"max":[1,1,0],"min":[-1,-1,-1],"type":"VEC3"},{"bufferView":6,"componentType":5126,"count":20,"max":[0.5625,0.3125],"min":[0,0],"type":"VEC2"},{"bufferView":7,"componentType":5123,"count":30,"max":[19],"min":[0],"type":"SCALAR"},{"bufferView":8,"componentType":5126,"count":52,"max":[0.75,1.125,0.5625],"min":[-0.75,1.0625,-0.5625],"type":"VEC3"},{"bufferView":9,"componentType":5126,"count":52,"max":[1,1,1],"min":[-1,0,-1],"type":"VEC3"},{"bufferView":10,"componentType":5126,"count":52,"max":[0.75,0.5625],"min":[0,0],"type":"VEC2"},{"bufferView":11,"componentType":5123,"count":78,"max":[51],"min":[0],"type":"SCALAR"},{"bufferView":12,"componentType":5126,"count":20,"max":[-0.1875,1.1875,-0.0625],"min":[-0.5,1.125,-0.375],"type":"VEC3"},{"bufferView":13,"componentType":5126,"count":20,"max":[1,1,1],"min":[-1,0,-1],"type":"VEC3"},{"bufferView":14,"componentType":5126,"count":20,"max":[0.15625,0.15625],"min":[0,0],"type":"VEC2"},{"bufferView":15,"componentType":5123,"count":30,"max":[19],"min":[0],"type":"SCALAR"},{"bufferView":16,"componentType":5126,"count":20,"max":[-0.1875,1.1875,0.4375],"min":[-0.5,1.125,0.125],"type":"VEC3"},{"bufferView":17,"componentType":5126,"count":20,"max":[1,1,1],"min":[-1,0,-1],"type":"VEC3"},{"bufferView":18,"componentType":5126,"count":20,"max":[0.15625,0.15625],"min":[0,0],"type":"VEC2"},{"bufferView":19,"componentType":5123,"count":30,"max":[19],"min":[0],"type":"SCALAR"},{"bufferView":20,"componentType":5126,"count":20,"max":[0.5,1.1875,-0.0625],"min":[0.1875,1.125,-0.375],"type":"VEC3"},{"bufferView":21,"componentType":5126,"count":20,"max":[1,1,1],"min":[-1,0,-1],"type":"VEC3"},{"bufferView":22,"componentType":5126,"count":20,"max":[0.15625,0.15625],"min":[0,0],"type":"VEC2"},{"bufferView":23,"componentType":5123,"count":30,"max":[19],"min":[0],"type":"SCALAR"},{"bufferView":24,"componentType":5126,"count":20,"max":[0.5,1.1875,0.4375],"min":[0.1875,1.125,0.125],"type":"VEC3"},{"bufferView":25,"componentType":5126,"count":20,"max":[1,1,1],"min":[-1,0,-1],"type":"VEC3"},{"bufferView":26,"componentType":5126,"count":20,"max":[0.15625,0.15625],"min":[0,0],"type":"VEC2"},{"bufferView":27,"componentType":5123,"count":30,"max":[19],"min":[0],"type":"SCALAR"}],"materials":[{"pbrMetallicRoughness":{"metallicFactor":0,"roughnessFactor":1,"baseColorTexture":{"index":0}},"alphaMode":"MASK","alphaCutoff":0.05,"doubleSided":true},{"pbrMetallicRoughness":{"metallicFactor":0,"roughnessFactor":1,"baseColorTexture":{"index":1}},"alphaMode":"MASK","alphaCutoff":0.05,"doubleSided":true},{"pbrMetallicRoughness":{"metallicFactor":0,"roughnessFactor":1,"baseColorTexture":{"index":2}},"alphaMode":"MASK","alphaCutoff":0.05,"doubleSided":true},{"pbrMetallicRoughness":{"metallicFactor":0,"roughnessFactor":1,"baseColorTexture":{"index":3}},"alphaMode":"MASK","alphaCutoff":0.05,"doubleSided":true}],"textures":[{"sampler":0,"source":0,"name":"cream.png"},{"sampler":1,"source":1,"name":"glass.png"},{"sampler":2,"source":2,"name":"metal.png"},{"sampler":3,"source":3,"name":"rubber.png"}],"samplers":[{"magFilter":9728,"minFilter":9728,"wrapS":10497,"wrapT":10497},{"magFilter":9728,"minFilter":9728,"wrapS":10497,"wrapT":10497},{"magFilter":9728,"minFilter":9728,"wrapS":10497,"wrapT":10497},{"magFilter":9728,"minFilter":9728,"wrapS":10497,"wrapT":10497}],"images":[{"mimeType":"image/png","uri":"../textures/cream.png","name":"cream"},{"mimeType":"image/png","uri":"../textures/glass.png","name":"glass"},{"mimeType":"image/png","uri":"../textures/metal.png","name":"metal"},{"mimeType":"image/png","uri":"../textures/rubber.png","name":"rubber"}],"meshes":[{"primitives":[{"mode":4,"attributes":{"POSITION":0,"NORMAL":1,"TEXCOORD_0":2},"indices":3,"material":0}]},{"primitives":[{"mode":4,"attributes":{"POSITION":4,"NORMAL":5,"TEXCOORD_0":6},"indices":7,"material":1}]},{"primitives":[{"mode":4,"attributes":{"POSITION":8,"NORMAL":9,"TEXCOORD_0":10},"indices":11,"material":2}]},{"primitives":[{"mode":4,"attributes":{"POSITION":12,"NORMAL":13,"TEXCOORD_0":14},"indices":15,"material":3}]},{"primitives":[{"mode":4,"attributes":{"POSITION":16,"NORMAL":17,"TEXCOORD_0":18},"indices":19,"material":3}]},{"primitives":[{"mode":4,"attributes":{"POSITION":20,"NORMAL":21,"TEXCOORD_0":22},"indices":23,"material":3}]},{"primitives":[{"mode":4,"attributes":{"POSITION":24,"NORMAL":25,"TEXCOORD_0":26},"indices":27,"material":3}]}]}