{"asset":{"version":"2.0","generator":"Blockbench 5.1.6 glTF exporter"},"scenes":[{"nodes":[1,3,5,7,9],"name":"blockbench_export"}],"scene":0,"nodes":[{"name":"base","mesh":0},{"name":"base","children":[0]},{"name":"pole","mesh":1},{"name":"pole","children":[2]},{"name":"arm","mesh":2},{"name":"arm","children":[4]},{"name":"shade","mesh":3},{"name":"shade","children":[6]},{"name":"lamp","mesh":4},{"name":"lamp","children":[8]}],"bufferViews":[{"buffer":0,"byteOffset":0,"byteLength":432,"target":34962,"byteStride":12},{"buffer":0,"byteOffset":432,"byteLength":432,"target":34962,"byteStride":12},{"buffer":0,"byteOffset":864,"byteLength":288,"target":34962,"byteStride":8},{"buffer":0,"byteOffset":1152,"byteLength":108,"target":34963},{"buffer":0,"byteOffset":1260,"byteLength":192,"target":34962,"byteStride":12},{"buffer":0,"byteOffset":1452,"byteLength":192,"target":34962,"byteStride":12},{"buffer":0,"byteOffset":1644,"byteLength":128,"target":34962,"byteStride":8},{"buffer":0,"byteOffset":1772,"byteLength":48,"target":34963},{"buffer":0,"byteOffset":1820,"byteLength":288,"target":34962,"byteStride":12},{"buffer":0,"byteOffset":2108,"byteLength":288,"target":34962,"byteStride":12},{"buffer":0,"byteOffset":2396,"byteLength":192,"target":34962,"byteStride":8},{"buffer":0,"byteOffset":2588,"byteLength":72,"target":34963},{"buffer":0,"byteOffset":2660,"byteLength":528,"target":34962,"byteStride":12},{"buffer":0,"byteOffset":3188,"byteLength":528,"target":34962,"byteStride":12},{"buffer":0,"byteOffset":3716,"byteLength":352,"target":34962,"byteStride":8},{"buffer":0,"byteOffset":4068,"byteLength":132,"target":34963},{"buffer":0,"byteOffset":4200,"byteLength":240,"target":34962,"byteStride":12},{"buffer":0,"byteOffset":4440,"byteLength":240,"target":34962,"byteStride":12},{"buffer":0,"byteOffset":4680,"byteLength":160,"target":34962,"byteStride":8},{"buffer":0,"byteOffset":4840,"byteLength":60,"target":34963}],"buffers":[{"byteLength":4900,"uri":"data:application/octet-stream;base64,"}],"accessors":[{"bufferView":0,"componentType":5126,"count":36,"max":[0.25,0.25,0.25],"min":[-0.25,0,-0.25],"type":"VEC3"},{"bufferView":1,"componentType":5126,"count":36,"max":[1,1,1],"min":[-1,-1,-1],"type":"VEC3"},{"bufferView":2,"componentType":5126,"count":36,"max":[0.25,0.25],"min":[0,0],"type":"VEC2"},{"bufferView":3,"componentType":5123,"count":54,"max":[35],"min":[0],"type":"SCALAR"},{"bufferView":4,"componentType":5126,"count":16,"max":[0.0625,4.125,0.0625],"min":[-0.0625,0.25,-0.0625],"type":"VEC3"},{"bufferView":5,"componentType":5126,"count":16,"max":[1,0,1],"min":[-1,0,-1],"type":"VEC3"},{"bufferView":6,"componentType":5126,"count":16,"max":[0.0625,2],"min":[0,0.0625],"type":"VEC2"},{"bufferView":7,"componentType":5123,"count":24,"max":[15],"min":[0],"type":"SCALAR"},{"bufferView":8,"componentType":5126,"count":24,"max":[0.9375,4.25,0.0625],"min":[-0.0625,4.125,-0.0625],"type":"VEC3"},{"bufferView":9,"componentType":5126,"count":24,"max":[1,1,1],"min":[-1,-1,-1],"type":"VEC3"},{"bufferView":10,"componentType":5126,"count":24,"max":[0.5,0.0625],"min":[0,0],"type":"VEC2"},{"bufferView":11,"componentType":5123,"count":36,"max":[23],"min":[0],"type":"SCALAR"},{"bufferView":12,"componentType":5126,"count":44,"max":[1.25,4.125,0.25],"min":[0.625,3.875,-0.25],"type":"VEC3"},{"bufferView":13,"componentType":5126,"count":44,"max":[1,1,1],"min":[-1,-1,-1],"type":"VEC3"},{"bufferView":14,"componentType":5126,"count":44,"max":[0.3125,0.25],"min":[0,0],"type":"VEC2"},{"bufferView":15,"componentType":5123,"count":66,"max":[43],"min":[0],"type":"SCALAR"},{"bufferView":16,"componentType":5126,"count":20,"max":[1.1875,3.875,0.1875],"min":[0.6875,3.8125,-0.1875],"type":"VEC3"},{"bufferView":17,"componentType":5126,"count":20,"max":[1,0,1],"min":[-1,-1,-1],"type":"VEC3"},{"bufferView":18,"componentType":5126,"count":20,"max":[0.25,0.1875],"min":[0,0],"type":"VEC2"},{"bufferView":19,"componentType":5123,"count":30,"max":[19],"min":[0],"type":"SCALAR"}],"materials":[{"pbrMetallicRoughness":{"metallicFactor":0,"roughnessFactor":1,"baseColorTexture":{"index":0}},"alphaMode":"MASK","alphaCutoff":0.05,"doubleSided":true},{"pbrMetallicRoughness":{"metallicFactor":0,"roughnessFactor":1,"baseColorTexture":{"index":1}},"alphaMode":"MASK","alphaCutoff":0.05,"doubleSided":true}],"textures":[{"sampler":0,"source":0,"name":"metal.png"},{"sampler":1,"source":1,"name":"cream.png"}],"samplers":[{"magFilter":9728,"minFilter":9728,"wrapS":10497,"wrapT":10497},{"magFilter":9728,"minFilter":9728,"wrapS":10497,"wrapT":10497}],"images":[{"mimeType":"image/png","uri":"../textures/metal.png","name":"metal"},{"mimeType":"image/png","uri":"../textures/cream.png","name":"cream"}],"meshes":[{"primitives":[{"mode":4,"attributes":{"POSITION":0,"NORMAL":1,"TEXCOORD_0":2},"indices":3,"material":0}]},{"primitives":[{"mode":4,"attributes":{"POSITION":4,"NORMAL":5,"TEXCOORD_0":6},"indices":7,"material":0}]},{"primitives":[{"mode":4,"attributes":{"POSITION":8,"NORMAL":9,"TEXCOORD_0":10},"indices":11,"material":0}]},{"primitives":[{"mode":4,"attributes":{"POSITION":12,"NORMAL":13,"TEXCOORD_0":14},"indices":15,"material":0}]},{"primitives":[{"mode":4,"attributes":{"POSITION":16,"NORMAL":17,"TEXCOORD_0":18},"indices":19,"material":1}]}]}