{"asset":{"version":"2.0","generator":"Blockbench 5.1.6 glTF exporter"},"scenes":[{"nodes":[1,3],"name":"blockbench_export"}],"scene":0,"nodes":[{"name":"tire","mesh":0},{"name":"tire","children":[0]},{"name":"rim","mesh":1},{"name":"rim","children":[2]}],"bufferViews":[{"buffer":0,"byteOffset":0,"byteLength":1440,"target":34962,"byteStride":12},{"buffer":0,"byteOffset":1440,"byteLength":1440,"target":34962,"byteStride":12},{"buffer":0,"byteOffset":2880,"byteLength":960,"target":34962,"byteStride":8},{"buffer":0,"byteOffset":3840,"byteLength":288,"target":34963},{"buffer":0,"byteOffset":4128,"byteLength":1440,"target":34962,"byteStride":12},{"buffer":0,"byteOffset":5568,"byteLength":1440,"target":34962,"byteStride":12},{"buffer":0,"byteOffset":7008,"byteLength":960,"target":34962,"byteStride":8},{"buffer":0,"byteOffset":7968,"byteLength":288,"target":34963}],"buffers":[{"byteLength":8256,"uri":"data:application/octet-stream;base64,"}],"accessors":[{"bufferView":0,"componentType":5126,"count":120,"max":[0.1875,0.875,0.4375],"min":[-0.1875,0,-0.4375],"type":"VEC3"},{"bufferView":1,"componentType":5126,"count":120,"max":[1,0.9659258127212524,0.9659258127212524],"min":[-1,-0.9659258127212524,-0.9659258127212524],"type":"VEC3"},{"bufferView":2,"componentType":5126,"count":120,"max":[0.4375,0.4375],"min":[0,0],"type":"VEC2"},{"bufferView":3,"componentType":5123,"count":144,"max":[119],"min":[0],"type":"SCALAR"},{"bufferView":4,"componentType":5126,"count":120,"max":[0.20624999701976776,0.65625,0.21875],"min":[0.18125000596046448,0.21875,-0.21875],"type":"VEC3"},{"bufferView":5,"componentType":5126,"count":120,"max":[1,0.9659258127212524,0.9659258127212524],"min":[-1,-0.9659258127212524,-0.9659258127212524],"type":"VEC3"},{"bufferView":6,"componentType":5126,"count":120,"max":[0.21875,0.21875],"min":[0,0],"type":"VEC2"},{"bufferView":7,"componentType":5123,"count":144,"max":[119],"min":[0],"type":"SCALAR"}],"materials":[{"pbrMetallicRoughness":{"metallicFactor":0,"roughnessFactor":1,"baseColorTexture":{"index":0}},"alphaMode":"MASK","alphaCutoff":0.05,"doubleSided":true},{"pbrMetallicRoughness":{"metallicFactor":0,"roughnessFactor":1,"baseColorTexture":{"index":1}},"alphaMode":"MASK","alphaCutoff":0.05,"doubleSided":true}],"textures":[{"sampler":0,"source":0,"name":"rubber.png"},{"sampler":1,"source":1,"name":"metal.png"}],"samplers":[{"magFilter":9728,"minFilter":9728,"wrapS":10497,"wrapT":10497},{"magFilter":9728,"minFilter":9728,"wrapS":10497,"wrapT":10497}],"images":[{"mimeType":"image/png","uri":"../textures/rubber.png","name":"rubber"},{"mimeType":"image/png","uri":"../textures/metal.png","name":"metal"}],"meshes":[{"primitives":[{"mode":4,"attributes":{"POSITION":0,"NORMAL":1,"TEXCOORD_0":2},"indices":3,"material":0}]},{"primitives":[{"mode":4,"attributes":{"POSITION":4,"NORMAL":5,"TEXCOORD_0":6},"indices":7,"material":1}]}]}