{"asset":{"version":"2.0","generator":"Blockbench 5.1.6 glTF exporter"},"scenes":[{"nodes":[3,7],"name":"blockbench_export"}],"scene":0,"nodes":[{"name":"tire","mesh":0},{"name":"tire","mesh":1},{"name":"tire","mesh":2},{"name":"tire","children":[0,1,2]},{"name":"rim","mesh":3},{"name":"rim","mesh":4},{"name":"rim","mesh":5},{"name":"rim","children":[4,5,6]}],"bufferViews":[{"buffer":0,"byteOffset":0,"byteLength":1440,"target":34962,"byteStride":12},{"buffer":0,"byteOffset":1440,"byteLength":1440,"target":34962,"byteStride":12},{"buffer":0,"byteOffset":2880,"byteLength":960,"target":34962,"byteStride":8},{"buffer":0,"byteOffset":3840,"byteLength":288,"target":34963},{"buffer":0,"byteOffset":4128,"byteLength":1440,"target":34962,"byteStride":12},{"buffer":0,"byteOffset":5568,"byteLength":1440,"target":34962,"byteStride":12},{"buffer":0,"byteOffset":7008,"byteLength":960,"target":34962,"byteStride":8},{"buffer":0,"byteOffset":7968,"byteLength":288,"target":34963},{"buffer":0,"byteOffset":8256,"byteLength":1440,"target":34962,"byteStride":12},{"buffer":0,"byteOffset":9696,"byteLength":1440,"target":34962,"byteStride":12},{"buffer":0,"byteOffset":11136,"byteLength":960,"target":34962,"byteStride":8},{"buffer":0,"byteOffset":12096,"byteLength":288,"target":34963},{"buffer":0,"byteOffset":12384,"byteLength":1440,"target":34962,"byteStride":12},{"buffer":0,"byteOffset":13824,"byteLength":1440,"target":34962,"byteStride":12},{"buffer":0,"byteOffset":15264,"byteLength":960,"target":34962,"byteStride":8},{"buffer":0,"byteOffset":16224,"byteLength":288,"target":34963},{"buffer":0,"byteOffset":16512,"byteLength":1440,"target":34962,"byteStride":12},{"buffer":0,"byteOffset":17952,"byteLength":1440,"target":34962,"byteStride":12},{"buffer":0,"byteOffset":19392,"byteLength":960,"target":34962,"byteStride":8},{"buffer":0,"byteOffset":20352,"byteLength":288,"target":34963},{"buffer":0,"byteOffset":20640,"byteLength":1440,"target":34962,"byteStride":12},{"buffer":0,"byteOffset":22080,"byteLength":1440,"target":34962,"byteStride":12},{"buffer":0,"byteOffset":23520,"byteLength":960,"target":34962,"byteStride":8},{"buffer":0,"byteOffset":24480,"byteLength":288,"target":34963}],"buffers":[{"byteLength":24768,"uri":"data:application/octet-stream;base64,"}],"accessors":[{"bufferView":0,"componentType":5126,"count":120,"max":[0.5,0.3125,0.5],"min":[-0.5,0,-0.5],"type":"VEC3"},{"bufferView":1,"componentType":5126,"count":120,"max":[0.9659258127212524,1,0.9659258127212524],"min":[-0.9659258127212524,-1,-0.9659258127212524],"type":"VEC3"},{"bufferView":2,"componentType":5126,"count":120,"max":[0.5,0.5],"min":[0,0],"type":"VEC2"},{"bufferView":3,"componentType":5123,"count":144,"max":[119],"min":[0],"type":"SCALAR"},{"bufferView":4,"componentType":5126,"count":120,"max":[0.5,0.6875,0.5],"min":[-0.5,0.375,-0.5],"type":"VEC3"},{"bufferView":5,"componentType":5126,"count":120,"max":[0.9659258127212524,1,0.9659258127212524],"min":[-0.9659258127212524,-1,-0.9659258127212524],"type":"VEC3"},{"bufferView":6,"componentType":5126,"count":120,"max":[0.5,0.5],"min":[0,0],"type":"VEC2"},{"bufferView":7,"componentType":5123,"count":144,"max":[119],"min":[0],"type":"SCALAR"},{"bufferView":8,"componentType":5126,"count":120,"max":[0.5,1.0625,0.5],"min":[-0.5,0.75,-0.5],"type":"VEC3"},{"bufferView":9,"componentType":5126,"count":120,"max":[0.9659258127212524,1,0.9659258127212524],"min":[-0.9659258127212524,-1,-0.9659258127212524],"type":"VEC3"},{"bufferView":10,"componentType":5126,"count":120,"max":[0.5,0.5],"min":[0,0],"type":"VEC2"},{"bufferView":11,"componentType":5123,"count":144,"max":[119],"min":[0],"type":"SCALAR"},{"bufferView":12,"componentType":5126,"count":120,"max":[0.21875,0.3265624940395355,0.21875],"min":[-0.21875,0.3109374940395355,-0.21875],"type":"VEC3"},{"bufferView":13,"componentType":5126,"count":120,"max":[0.9659258127212524,1,0.9659258127212524],"min":[-0.9659258127212524,-1,-0.9659258127212524],"type":"VEC3"},{"bufferView":14,"componentType":5126,"count":120,"max":[0.21875,0.21875],"min":[0,0],"type":"VEC2"},{"bufferView":15,"componentType":5123,"count":144,"max":[119],"min":[0],"type":"SCALAR"},{"bufferView":16,"componentType":5126,"count":120,"max":[0.21875,0.7015625238418579,0.21875],"min":[-0.21875,0.6859375238418579,-0.21875],"type":"VEC3"},{"bufferView":17,"componentType":5126,"count":120,"max":[0.9659258127212524,1,0.9659258127212524],"min":[-0.9659258127212524,-1,-0.9659258127212524],"type":"VEC3"},{"bufferView":18,"componentType":5126,"count":120,"max":[0.21875,0.21875],"min":[0,0],"type":"VEC2"},{"bufferView":19,"componentType":5123,"count":144,"max":[119],"min":[0],"type":"SCALAR"},{"bufferView":20,"componentType":5126,"count":120,"max":[0.21875,1.076562523841858,0.21875],"min":[-0.21875,1.060937523841858,-0.21875],"type":"VEC3"},{"bufferView":21,"componentType":5126,"count":120,"max":[0.9659258127212524,1,0.9659258127212524],"min":[-0.9659258127212524,-1,-0.9659258127212524],"type":"VEC3"},{"bufferView":22,"componentType":5126,"count":120,"max":[0.21875,0.21875],"min":[0,0],"type":"VEC2"},{"bufferView":23,"componentType":5123,"count":144,"max":[119],"min":[0],"type":"SCALAR"}],"materials":[{"pbrMetallicRoughness":{"metallicFactor":0,"roughnessFactor":1,"baseColorTexture":{"index":0}},"alphaMode":"MASK","alphaCutoff":0.05,"doubleSided":true},{"pbrMetallicRoughness":{"metallicFactor":0,"roughnessFactor":1,"baseColorTexture":{"index":1}},"alphaMode":"MASK","alphaCutoff":0.05,"doubleSided":true}],"textures":[{"sampler":0,"source":0,"name":"rubber.png"},{"sampler":1,"source":1,"name":"metal.png"}],"samplers":[{"magFilter":9728,"minFilter":9728,"wrapS":10497,"wrapT":10497},{"magFilter":9728,"minFilter":9728,"wrapS":10497,"wrapT":10497}],"images":[{"mimeType":"image/png","uri":"../textures/rubber.png","name":"rubber"},{"mimeType":"image/png","uri":"../textures/metal.png","name":"metal"}],"meshes":[{"primitives":[{"mode":4,"attributes":{"POSITION":0,"NORMAL":1,"TEXCOORD_0":2},"indices":3,"material":0}]},{"primitives":[{"mode":4,"attributes":{"POSITION":4,"NORMAL":5,"TEXCOORD_0":6},"indices":7,"material":0}]},{"primitives":[{"mode":4,"attributes":{"POSITION":8,"NORMAL":9,"TEXCOORD_0":10},"indices":11,"material":0}]},{"primitives":[{"mode":4,"attributes":{"POSITION":12,"NORMAL":13,"TEXCOORD_0":14},"indices":15,"material":1}]},{"primitives":[{"mode":4,"attributes":{"POSITION":16,"NORMAL":17,"TEXCOORD_0":18},"indices":19,"material":1}]},{"primitives":[{"mode":4,"attributes":{"POSITION":20,"NORMAL":21,"TEXCOORD_0":22},"indices":23,"material":1}]}]}