{"asset":{"version":"2.0","generator":"Blockbench 5.1.6 glTF exporter"},"scenes":[{"nodes":[1,5,9],"name":"blockbench_export"}],"scene":0,"nodes":[{"name":"tool_board","mesh":0},{"name":"tool_board","children":[0]},{"name":"tool_handle","mesh":1},{"name":"tool_handle","mesh":2},{"name":"tool_handle","mesh":3},{"name":"tool_handle","children":[2,3,4]},{"name":"tool_head","mesh":4},{"name":"tool_head","mesh":5},{"name":"tool_head","mesh":6},{"name":"tool_head","children":[6,7,8]}],"bufferViews":[{"buffer":0,"byteOffset":0,"byteLength":1296,"target":34962,"byteStride":12},{"buffer":0,"byteOffset":1296,"byteLength":1296,"target":34962,"byteStride":12},{"buffer":0,"byteOffset":2592,"byteLength":864,"target":34962,"byteStride":8},{"buffer":0,"byteOffset":3456,"byteLength":324,"target":34963},{"buffer":0,"byteOffset":3780,"byteLength":192,"target":34962,"byteStride":12},{"buffer":0,"byteOffset":3972,"byteLength":192,"target":34962,"byteStride":12},{"buffer":0,"byteOffset":4164,"byteLength":128,"target":34962,"byteStride":8},{"buffer":0,"byteOffset":4292,"byteLength":48,"target":34963},{"buffer":0,"byteOffset":4340,"byteLength":192,"target":34962,"byteStride":12},{"buffer":0,"byteOffset":4532,"byteLength":192,"target":34962,"byteStride":12},{"buffer":0,"byteOffset":4724,"byteLength":128,"target":34962,"byteStride":8},{"buffer":0,"byteOffset":4852,"byteLength":48,"target":34963},{"buffer":0,"byteOffset":4900,"byteLength":192,"target":34962,"byteStride":12},{"buffer":0,"byteOffset":5092,"byteLength":192,"target":34962,"byteStride":12},{"buffer":0,"byteOffset":5284,"byteLength":128,"target":34962,"byteStride":8},{"buffer":0,"byteOffset":5412,"byteLength":48,"target":34963},{"buffer":0,"byteOffset":5460,"byteLength":288,"target":34962,"byteStride":12},{"buffer":0,"byteOffset":5748,"byteLength":288,"target":34962,"byteStride":12},{"buffer":0,"byteOffset":6036,"byteLength":192,"target":34962,"byteStride":8},{"buffer":0,"byteOffset":6228,"byteLength":72,"target":34963},{"buffer":0,"byteOffset":6300,"byteLength":288,"target":34962,"byteStride":12},{"buffer":0,"byteOffset":6588,"byteLength":288,"target":34962,"byteStride":12},{"buffer":0,"byteOffset":6876,"byteLength":192,"target":34962,"byteStride":8},{"buffer":0,"byteOffset":7068,"byteLength":72,"target":34963},{"buffer":0,"byteOffset":7140,"byteLength":288,"target":34962,"byteStride":12},{"buffer":0,"byteOffset":7428,"byteLength":288,"target":34962,"byteStride":12},{"buffer":0,"byteOffset":7716,"byteLength":192,"target":34962,"byteStride":8},{"buffer":0,"byteOffset":7908,"byteLength":72,"target":34963}],"buffers":[{"byteLength":7980,"uri":"data:application/octet-stream;base64,"}],"accessors":[{"bufferView":0,"componentType":5126,"count":108,"max":[0.75,1.125,0.0625],"min":[-0.75,0,-0.0625],"type":"VEC3"},{"bufferView":1,"componentType":5126,"count":108,"max":[1,1,1],"min":[-1,-1,-1],"type":"VEC3"},{"bufferView":2,"componentType":5126,"count":108,"max":[0.75,0.5625],"min":[0,0],"type":"VEC2"},{"bufferView":3,"componentType":5123,"count":162,"max":[107],"min":[0],"type":"SCALAR"},{"bufferView":4,"componentType":5126,"count":16,"max":[-0.375,0.75,-0.0625],"min":[-0.5,0.1875,-0.125],"type":"VEC3"},{"bufferView":5,"componentType":5126,"count":16,"max":[1,0,0],"min":[-1,-1,-1],"type":"VEC3"},{"bufferView":6,"componentType":5126,"count":16,"max":[0.0625,0.28125],"min":[0,0],"type":"VEC2"},{"bufferView":7,"componentType":5123,"count":24,"max":[15],"min":[0],"type":"SCALAR"},{"bufferView":8,"componentType":5126,"count":16,"max":[0,0.75,-0.0625],"min":[-0.125,0.1875,-0.125],"type":"VEC3"},{"bufferView":9,"componentType":5126,"count":16,"max":[1,0,0],"min":[-1,-1,-1],"type":"VEC3"},{"bufferView":10,"componentType":5126,"count":16,"max":[0.0625,0.28125],"min":[0,0],"type":"VEC2"},{"bufferView":11,"componentType":5123,"count":24,"max":[15],"min":[0],"type":"SCALAR"},{"bufferView":12,"componentType":5126,"count":16,"max":[0.375,0.75,-0.0625],"min":[0.25,0.1875,-0.125],"type":"VEC3"},{"bufferView":13,"componentType":5126,"count":16,"max":[1,0,0],"min":[-1,-1,-1],"type":"VEC3"},{"bufferView":14,"componentType":5126,"count":16,"max":[0.0625,0.28125],"min":[0,0],"type":"VEC2"},{"bufferView":15,"componentType":5123,"count":24,"max":[15],"min":[0],"type":"SCALAR"},{"bufferView":16,"componentType":5126,"count":24,"max":[-0.3125,0.9375,-0.0625],"min":[-0.5625,0.75,-0.125],"type":"VEC3"},{"bufferView":17,"componentType":5126,"count":24,"max":[1,1,0],"min":[-1,-1,-1],"type":"VEC3"},{"bufferView":18,"componentType":5126,"count":24,"max":[0.125,0.09375],"min":[0,0],"type":"VEC2"},{"bufferView":19,"componentType":5123,"count":36,"max":[23],"min":[0],"type":"SCALAR"},{"bufferView":20,"componentType":5126,"count":24,"max":[0.0625,0.9375,-0.0625],"min":[-0.1875,0.75,-0.125],"type":"VEC3"},{"bufferView":21,"componentType":5126,"count":24,"max":[1,1,0],"min":[-1,-1,-1],"type":"VEC3"},{"bufferView":22,"componentType":5126,"count":24,"max":[0.125,0.09375],"min":[0,0],"type":"VEC2"},{"bufferView":23,"componentType":5123,"count":36,"max":[23],"min":[0],"type":"SCALAR"},{"bufferView":24,"componentType":5126,"count":24,"max":[0.4375,0.9375,-0.0625],"min":[0.1875,0.75,-0.125],"type":"VEC3"},{"bufferView":25,"componentType":5126,"count":24,"max":[1,1,0],"min":[-1,-1,-1],"type":"VEC3"},{"bufferView":26,"componentType":5126,"count":24,"max":[0.125,0.09375],"min":[0,0],"type":"VEC2"},{"bufferView":27,"componentType":5123,"count":36,"max":[23],"min":[0],"type":"SCALAR"}],"materials":[{"pbrMetallicRoughness":{"metallicFactor":0,"roughnessFactor":1,"baseColorTexture":{"index":0}},"alphaMode":"MASK","alphaCutoff":0.05,"doubleSided":true},{"pbrMetallicRoughness":{"metallicFactor":0,"roughnessFactor":1,"baseColorTexture":{"index":1}},"alphaMode":"MASK","alphaCutoff":0.05,"doubleSided":true}],"textures":[{"sampler":0,"source":0,"name":"wood_dark.png"},{"sampler":1,"source":1,"name":"metal.png"}],"samplers":[{"magFilter":9728,"minFilter":9728,"wrapS":10497,"wrapT":10497},{"magFilter":9728,"minFilter":9728,"wrapS":10497,"wrapT":10497}],"images":[{"mimeType":"image/png","uri":"../textures/wood_dark.png","name":"wood_dark"},{"mimeType":"image/png","uri":"../textures/metal.png","name":"metal"}],"meshes":[{"primitives":[{"mode":4,"attributes":{"POSITION":0,"NORMAL":1,"TEXCOORD_0":2},"indices":3,"material":0}]},{"primitives":[{"mode":4,"attributes":{"POSITION":4,"NORMAL":5,"TEXCOORD_0":6},"indices":7,"material":1}]},{"primitives":[{"mode":4,"attributes":{"POSITION":8,"NORMAL":9,"TEXCOORD_0":10},"indices":11,"material":1}]},{"primitives":[{"mode":4,"attributes":{"POSITION":12,"NORMAL":13,"TEXCOORD_0":14},"indices":15,"material":1}]},{"primitives":[{"mode":4,"attributes":{"POSITION":16,"NORMAL":17,"TEXCOORD_0":18},"indices":19,"material":1}]},{"primitives":[{"mode":4,"attributes":{"POSITION":20,"NORMAL":21,"TEXCOORD_0":22},"indices":23,"material":1}]},{"primitives":[{"mode":4,"attributes":{"POSITION":24,"NORMAL":25,"TEXCOORD_0":26},"indices":27,"material":1}]}]}