{"asset":{"version":"2.0","generator":"Blockbench 5.1.6 glTF exporter"},"scenes":[{"nodes":[1,5,9,12],"name":"blockbench_export"}],"scene":0,"nodes":[{"name":"cabinet","mesh":0},{"name":"cabinet","children":[0]},{"name":"drawer","mesh":1},{"name":"drawer","mesh":2},{"name":"drawer","mesh":3},{"name":"drawer","children":[2,3,4]},{"name":"pull","mesh":4},{"name":"pull","mesh":5},{"name":"pull","mesh":6},{"name":"pull","children":[6,7,8]},{"name":"wheel","mesh":7},{"name":"wheel","mesh":8},{"name":"wheel","children":[10,11]}],"bufferViews":[{"buffer":0,"byteOffset":0,"byteLength":816,"target":34962,"byteStride":12},{"buffer":0,"byteOffset":816,"byteLength":816,"target":34962,"byteStride":12},{"buffer":0,"byteOffset":1632,"byteLength":544,"target":34962,"byteStride":8},{"buffer":0,"byteOffset":2176,"byteLength":204,"target":34963},{"buffer":0,"byteOffset":2380,"byteLength":384,"target":34962,"byteStride":12},{"buffer":0,"byteOffset":2764,"byteLength":384,"target":34962,"byteStride":12},{"buffer":0,"byteOffset":3148,"byteLength":256,"target":34962,"byteStride":8},{"buffer":0,"byteOffset":3404,"byteLength":96,"target":34963},{"buffer":0,"byteOffset":3500,"byteLength":384,"target":34962,"byteStride":12},{"buffer":0,"byteOffset":3884,"byteLength":384,"target":34962,"byteStride":12},{"buffer":0,"byteOffset":4268,"byteLength":256,"target":34962,"byteStride":8},{"buffer":0,"byteOffset":4524,"byteLength":96,"target":34963},{"buffer":0,"byteOffset":4620,"byteLength":384,"target":34962,"byteStride":12},{"buffer":0,"byteOffset":5004,"byteLength":384,"target":34962,"byteStride":12},{"buffer":0,"byteOffset":5388,"byteLength":256,"target":34962,"byteStride":8},{"buffer":0,"byteOffset":5644,"byteLength":96,"target":34963},{"buffer":0,"byteOffset":5740,"byteLength":240,"target":34962,"byteStride":12},{"buffer":0,"byteOffset":5980,"byteLength":240,"target":34962,"byteStride":12},{"buffer":0,"byteOffset":6220,"byteLength":160,"target":34962,"byteStride":8},{"buffer":0,"byteOffset":6380,"byteLength":60,"target":34963},{"buffer":0,"byteOffset":6440,"byteLength":240,"target":34962,"byteStride":12},{"buffer":0,"byteOffset":6680,"byteLength":240,"target":34962,"byteStride":12},{"buffer":0,"byteOffset":6920,"byteLength":160,"target":34962,"byteStride":8},{"buffer":0,"byteOffset":7080,"byteLength":60,"target":34963},{"buffer":0,"byteOffset":7140,"byteLength":240,"target":34962,"byteStride":12},{"buffer":0,"byteOffset":7380,"byteLength":240,"target":34962,"byteStride":12},{"buffer":0,"byteOffset":7620,"byteLength":160,"target":34962,"byteStride":8},{"buffer":0,"byteOffset":7780,"byteLength":60,"target":34963},{"buffer":0,"byteOffset":7840,"byteLength":240,"target":34962,"byteStride":12},{"buffer":0,"byteOffset":8080,"byteLength":240,"target":34962,"byteStride":12},{"buffer":0,"byteOffset":8320,"byteLength":160,"target":34962,"byteStride":8},{"buffer":0,"byteOffset":8480,"byteLength":60,"target":34963},{"buffer":0,"byteOffset":8540,"byteLength":240,"target":34962,"byteStride":12},{"buffer":0,"byteOffset":8780,"byteLength":240,"target":34962,"byteStride":12},{"buffer":0,"byteOffset":9020,"byteLength":160,"target":34962,"byteStride":8},{"buffer":0,"byteOffset":9180,"byteLength":60,"target":34963}],"buffers":[{"byteLength":9240,"uri":"data:application/octet-stream;base64,"}],"accessors":[{"bufferView":0,"componentType":5126,"count":68,"max":[0.8125,1.375,0.5],"min":[-0.8125,0.125,-0.5],"type":"VEC3"},{"bufferView":1,"componentType":5126,"count":68,"max":[1,1,1],"min":[-1,-1,-1],"type":"VEC3"},{"bufferView":2,"componentType":5126,"count":68,"max":[0.8125,0.625],"min":[0,0],"type":"VEC2"},{"bufferView":3,"componentType":5123,"count":102,"max":[67],"min":[0],"type":"SCALAR"},{"bufferView":4,"componentType":5126,"count":32,"max":[0.75,0.5625,-0.5],"min":[-0.75,0.3125,-0.5625],"type":"VEC3"},{"bufferView":5,"componentType":5126,"count":32,"max":[1,1,0],"min":[-1,-1,-1],"type":"VEC3"},{"bufferView":6,"componentType":5126,"count":32,"max":[0.75,0.125],"min":[0,0],"type":"VEC2"},{"bufferView":7,"componentType":5123,"count":48,"max":[31],"min":[0],"type":"SCALAR"},{"bufferView":8,"componentType":5126,"count":32,"max":[0.75,0.875,-0.5],"min":[-0.75,0.625,-0.5625],"type":"VEC3"},{"bufferView":9,"componentType":5126,"count":32,"max":[1,1,0],"min":[-1,-1,-1],"type":"VEC3"},{"bufferView":10,"componentType":5126,"count":32,"max":[0.75,0.125],"min":[0,0],"type":"VEC2"},{"bufferView":11,"componentType":5123,"count":48,"max":[31],"min":[0],"type":"SCALAR"},{"bufferView":12,"componentType":5126,"count":32,"max":[0.75,1.1875,-0.5],"min":[-0.75,0.9375,-0.5625],"type":"VEC3"},{"bufferView":13,"componentType":5126,"count":32,"max":[1,1,0],"min":[-1,-1,-1],"type":"VEC3"},{"bufferView":14,"componentType":5126,"count":32,"max":[0.75,0.125],"min":[0,0],"type":"VEC2"},{"bufferView":15,"componentType":5123,"count":48,"max":[31],"min":[0],"type":"SCALAR"},{"bufferView":16,"componentType":5126,"count":20,"max":[0.5,0.5,-0.5625],"min":[-0.5,0.4375,-0.625],"type":"VEC3"},{"bufferView":17,"componentType":5126,"count":20,"max":[1,1,0],"min":[-1,-1,-1],"type":"VEC3"},{"bufferView":18,"componentType":5126,"count":20,"max":[0.5,0.03125],"min":[0,0],"type":"VEC2"},{"bufferView":19,"componentType":5123,"count":30,"max":[19],"min":[0],"type":"SCALAR"},{"bufferView":20,"componentType":5126,"count":20,"max":[0.5,0.8125,-0.5625],"min":[-0.5,0.75,-0.625],"type":"VEC3"},{"bufferView":21,"componentType":5126,"count":20,"max":[1,1,0],"min":[-1,-1,-1],"type":"VEC3"},{"bufferView":22,"componentType":5126,"count":20,"max":[0.5,0.03125],"min":[0,0],"type":"VEC2"},{"bufferView":23,"componentType":5123,"count":30,"max":[19],"min":[0],"type":"SCALAR"},{"bufferView":24,"componentType":5126,"count":20,"max":[0.5,1.125,-0.5625],"min":[-0.5,1.0625,-0.625],"type":"VEC3"},{"bufferView":25,"componentType":5126,"count":20,"max":[1,1,0],"min":[-1,-1,-1],"type":"VEC3"},{"bufferView":26,"componentType":5126,"count":20,"max":[0.5,0.03125],"min":[0,0],"type":"VEC2"},{"bufferView":27,"componentType":5123,"count":30,"max":[19],"min":[0],"type":"SCALAR"},{"bufferView":28,"componentType":5126,"count":20,"max":[-0.5,0.125,0.3125],"min":[-0.6875,0,-0.3125],"type":"VEC3"},{"bufferView":29,"componentType":5126,"count":20,"max":[1,0,1],"min":[-1,-1,-1],"type":"VEC3"},{"bufferView":30,"componentType":5126,"count":20,"max":[0.3125,0.3125],"min":[0,0],"type":"VEC2"},{"bufferView":31,"componentType":5123,"count":30,"max":[19],"min":[0],"type":"SCALAR"},{"bufferView":32,"componentType":5126,"count":20,"max":[0.6875,0.125,0.3125],"min":[0.5,0,-0.3125],"type":"VEC3"},{"bufferView":33,"componentType":5126,"count":20,"max":[1,0,1],"min":[-1,-1,-1],"type":"VEC3"},{"bufferView":34,"componentType":5126,"count":20,"max":[0.3125,0.3125],"min":[0,0],"type":"VEC2"},{"bufferView":35,"componentType":5123,"count":30,"max":[19],"min":[0],"type":"SCALAR"}],"materials":[{"pbrMetallicRoughness":{"metallicFactor":0,"roughnessFactor":1,"baseColorTexture":{"index":0}},"alphaMode":"MASK","alphaCutoff":0.05,"doubleSided":true},{"pbrMetallicRoughness":{"metallicFactor":0,"roughnessFactor":1,"baseColorTexture":{"index":1}},"alphaMode":"MASK","alphaCutoff":0.05,"doubleSided":true},{"pbrMetallicRoughness":{"metallicFactor":0,"roughnessFactor":1,"baseColorTexture":{"index":2}},"alphaMode":"MASK","alphaCutoff":0.05,"doubleSided":true},{"pbrMetallicRoughness":{"metallicFactor":0,"roughnessFactor":1,"baseColorTexture":{"index":3}},"alphaMode":"MASK","alphaCutoff":0.05,"doubleSided":true}],"textures":[{"sampler":0,"source":0,"name":"rust.png"},{"sampler":1,"source":1,"name":"paint.png"},{"sampler":2,"source":2,"name":"metal.png"},{"sampler":3,"source":3,"name":"rubber.png"}],"samplers":[{"magFilter":9728,"minFilter":9728,"wrapS":10497,"wrapT":10497},{"magFilter":9728,"minFilter":9728,"wrapS":10497,"wrapT":10497},{"magFilter":9728,"minFilter":9728,"wrapS":10497,"wrapT":10497},{"magFilter":9728,"minFilter":9728,"wrapS":10497,"wrapT":10497}],"images":[{"mimeType":"image/png","uri":"../textures/rust.png","name":"rust"},{"mimeType":"image/png","uri":"../textures/paint.png","name":"paint"},{"mimeType":"image/png","uri":"../textures/metal.png","name":"metal"},{"mimeType":"image/png","uri":"../textures/rubber.png","name":"rubber"}],"meshes":[{"primitives":[{"mode":4,"attributes":{"POSITION":0,"NORMAL":1,"TEXCOORD_0":2},"indices":3,"material":0}]},{"primitives":[{"mode":4,"attributes":{"POSITION":4,"NORMAL":5,"TEXCOORD_0":6},"indices":7,"material":1}]},{"primitives":[{"mode":4,"attributes":{"POSITION":8,"NORMAL":9,"TEXCOORD_0":10},"indices":11,"material":1}]},{"primitives":[{"mode":4,"attributes":{"POSITION":12,"NORMAL":13,"TEXCOORD_0":14},"indices":15,"material":1}]},{"primitives":[{"mode":4,"attributes":{"POSITION":16,"NORMAL":17,"TEXCOORD_0":18},"indices":19,"material":2}]},{"primitives":[{"mode":4,"attributes":{"POSITION":20,"NORMAL":21,"TEXCOORD_0":22},"indices":23,"material":2}]},{"primitives":[{"mode":4,"attributes":{"POSITION":24,"NORMAL":25,"TEXCOORD_0":26},"indices":27,"material":2}]},{"primitives":[{"mode":4,"attributes":{"POSITION":28,"NORMAL":29,"TEXCOORD_0":30},"indices":31,"material":3}]},{"primitives":[{"mode":4,"attributes":{"POSITION":32,"NORMAL":33,"TEXCOORD_0":34},"indices":35,"material":3}]}]}