{"asset":{"version":"2.0","generator":"Blockbench 5.1.6 glTF exporter"},"scenes":[{"nodes":[2,5,7],"name":"blockbench_export"}],"scene":0,"nodes":[{"name":"column","mesh":0},{"name":"column","mesh":1},{"name":"column","children":[0,1]},{"name":"arm","mesh":2},{"name":"arm","mesh":3},{"name":"arm","children":[3,4]},{"name":"bridge","mesh":4},{"name":"bridge","children":[6]}],"bufferViews":[{"buffer":0,"byteOffset":0,"byteLength":432,"target":34962,"byteStride":12},{"buffer":0,"byteOffset":432,"byteLength":432,"target":34962,"byteStride":12},{"buffer":0,"byteOffset":864,"byteLength":288,"target":34962,"byteStride":8},{"buffer":0,"byteOffset":1152,"byteLength":108,"target":34963},{"buffer":0,"byteOffset":1260,"byteLength":432,"target":34962,"byteStride":12},{"buffer":0,"byteOffset":1692,"byteLength":432,"target":34962,"byteStride":12},{"buffer":0,"byteOffset":2124,"byteLength":288,"target":34962,"byteStride":8},{"buffer":0,"byteOffset":2412,"byteLength":108,"target":34963},{"buffer":0,"byteOffset":2520,"byteLength":384,"target":34962,"byteStride":12},{"buffer":0,"byteOffset":2904,"byteLength":384,"target":34962,"byteStride":12},{"buffer":0,"byteOffset":3288,"byteLength":256,"target":34962,"byteStride":8},{"buffer":0,"byteOffset":3544,"byteLength":96,"target":34963},{"buffer":0,"byteOffset":3640,"byteLength":384,"target":34962,"byteStride":12},{"buffer":0,"byteOffset":4024,"byteLength":384,"target":34962,"byteStride":12},{"buffer":0,"byteOffset":4408,"byteLength":256,"target":34962,"byteStride":8},{"buffer":0,"byteOffset":4664,"byteLength":96,"target":34963},{"buffer":0,"byteOffset":4760,"byteLength":288,"target":34962,"byteStride":12},{"buffer":0,"byteOffset":5048,"byteLength":288,"target":34962,"byteStride":12},{"buffer":0,"byteOffset":5336,"byteLength":192,"target":34962,"byteStride":8},{"buffer":0,"byteOffset":5528,"byteLength":72,"target":34963}],"buffers":[{"byteLength":5600,"uri":"data:application/octet-stream;base64,"}],"accessors":[{"bufferView":0,"componentType":5126,"count":36,"max":[-1.125,2.5,0.25],"min":[-1.375,0,-0.25],"type":"VEC3"},{"bufferView":1,"componentType":5126,"count":36,"max":[1,0,1],"min":[-1,-1,-1],"type":"VEC3"},{"bufferView":2,"componentType":5126,"count":36,"max":[0.25,1.375],"min":[0,0],"type":"VEC2"},{"bufferView":3,"componentType":5123,"count":54,"max":[35],"min":[0],"type":"SCALAR"},{"bufferView":4,"componentType":5126,"count":36,"max":[1.375,2.5,0.25],"min":[1.125,0,-0.25],"type":"VEC3"},{"bufferView":5,"componentType":5126,"count":36,"max":[1,0,1],"min":[-1,-1,-1],"type":"VEC3"},{"bufferView":6,"componentType":5126,"count":36,"max":[0.25,1.375],"min":[0,0],"type":"VEC2"},{"bufferView":7,"componentType":5123,"count":54,"max":[35],"min":[0],"type":"SCALAR"},{"bufferView":8,"componentType":5126,"count":32,"max":[-1.125,0.4375,1.5],"min":[-1.375,0.25,-1.5],"type":"VEC3"},{"bufferView":9,"componentType":5126,"count":32,"max":[1,1,1],"min":[-1,-1,-1],"type":"VEC3"},{"bufferView":10,"componentType":5126,"count":32,"max":[1.5,1.5],"min":[0,0],"type":"VEC2"},{"bufferView":11,"componentType":5123,"count":48,"max":[31],"min":[0],"type":"SCALAR"},{"bufferView":12,"componentType":5126,"count":32,"max":[1.375,0.4375,1.5],"min":[1.125,0.25,-1.5],"type":"VEC3"},{"bufferView":13,"componentType":5126,"count":32,"max":[1,1,1],"min":[-1,-1,-1],"type":"VEC3"},{"bufferView":14,"componentType":5126,"count":32,"max":[1.5,1.5],"min":[0,0],"type":"VEC2"},{"bufferView":15,"componentType":5123,"count":48,"max":[31],"min":[0],"type":"SCALAR"},{"bufferView":16,"componentType":5126,"count":24,"max":[1.375,2.75,0.25],"min":[-1.375,2.5,-0.25],"type":"VEC3"},{"bufferView":17,"componentType":5126,"count":24,"max":[1,1,1],"min":[-1,-1,-1],"type":"VEC3"},{"bufferView":18,"componentType":5126,"count":24,"max":[1.375,0.25],"min":[0,0],"type":"VEC2"},{"bufferView":19,"componentType":5123,"count":36,"max":[23],"min":[0],"type":"SCALAR"}],"materials":[{"pbrMetallicRoughness":{"metallicFactor":0,"roughnessFactor":1,"baseColorTexture":{"index":0}},"alphaMode":"MASK","alphaCutoff":0.05,"doubleSided":true},{"pbrMetallicRoughness":{"metallicFactor":0,"roughnessFactor":1,"baseColorTexture":{"index":1}},"alphaMode":"MASK","alphaCutoff":0.05,"doubleSided":true}],"textures":[{"sampler":0,"source":0,"name":"paint.png"},{"sampler":1,"source":1,"name":"metal.png"}],"samplers":[{"magFilter":9728,"minFilter":9728,"wrapS":10497,"wrapT":10497},{"magFilter":9728,"minFilter":9728,"wrapS":10497,"wrapT":10497}],"images":[{"mimeType":"image/png","uri":"../textures/paint.png","name":"paint"},{"mimeType":"image/png","uri":"../textures/metal.png","name":"metal"}],"meshes":[{"primitives":[{"mode":4,"attributes":{"POSITION":0,"NORMAL":1,"TEXCOORD_0":2},"indices":3,"material":0}]},{"primitives":[{"mode":4,"attributes":{"POSITION":4,"NORMAL":5,"TEXCOORD_0":6},"indices":7,"material":0}]},{"primitives":[{"mode":4,"attributes":{"POSITION":8,"NORMAL":9,"TEXCOORD_0":10},"indices":11,"material":1}]},{"primitives":[{"mode":4,"attributes":{"POSITION":12,"NORMAL":13,"TEXCOORD_0":14},"indices":15,"material":1}]},{"primitives":[{"mode":4,"attributes":{"POSITION":16,"NORMAL":17,"TEXCOORD_0":18},"indices":19,"material":0}]}]}