{"asset":{"version":"2.0","generator":"Blockbench 5.1.6 glTF exporter"},"scenes":[{"nodes":[1,4],"name":"blockbench_export"}],"scene":0,"nodes":[{"name":"wall","mesh":0},{"name":"wall","children":[0]},{"name":"post","mesh":1},{"name":"post","mesh":2},{"name":"post","children":[2,3]}],"bufferViews":[{"buffer":0,"byteOffset":0,"byteLength":192,"target":34962,"byteStride":12},{"buffer":0,"byteOffset":192,"byteLength":192,"target":34962,"byteStride":12},{"buffer":0,"byteOffset":384,"byteLength":128,"target":34962,"byteStride":8},{"buffer":0,"byteOffset":512,"byteLength":48,"target":34963},{"buffer":0,"byteOffset":560,"byteLength":336,"target":34962,"byteStride":12},{"buffer":0,"byteOffset":896,"byteLength":336,"target":34962,"byteStride":12},{"buffer":0,"byteOffset":1232,"byteLength":224,"target":34962,"byteStride":8},{"buffer":0,"byteOffset":1456,"byteLength":84,"target":34963},{"buffer":0,"byteOffset":1540,"byteLength":336,"target":34962,"byteStride":12},{"buffer":0,"byteOffset":1876,"byteLength":336,"target":34962,"byteStride":12},{"buffer":0,"byteOffset":2212,"byteLength":224,"target":34962,"byteStride":8},{"buffer":0,"byteOffset":2436,"byteLength":84,"target":34963}],"buffers":[{"byteLength":2520,"uri":"data:application/octet-stream;base64,"}],"accessors":[{"bufferView":0,"componentType":5126,"count":16,"max":[0.875,2,0.125],"min":[-0.875,0,-0.125],"type":"VEC3"},{"bufferView":1,"componentType":5126,"count":16,"max":[0,1,1],"min":[0,-1,-1],"type":"VEC3"},{"bufferView":2,"componentType":5126,"count":16,"max":[0.9375,1],"min":[0.0625,0],"type":"VEC2"},{"bufferView":3,"componentType":5123,"count":24,"max":[15],"min":[0],"type":"SCALAR"},{"bufferView":4,"componentType":5126,"count":28,"max":[-0.875,2,0.1875],"min":[-1,0,-0.1875],"type":"VEC3"},{"bufferView":5,"componentType":5126,"count":28,"max":[1,1,1],"min":[-1,-1,-1],"type":"VEC3"},{"bufferView":6,"componentType":5126,"count":28,"max":[0.1875,1],"min":[0,0],"type":"VEC2"},{"bufferView":7,"componentType":5123,"count":42,"max":[27],"min":[0],"type":"SCALAR"},{"bufferView":8,"componentType":5126,"count":28,"max":[1,2,0.1875],"min":[0.875,0,-0.1875],"type":"VEC3"},{"bufferView":9,"componentType":5126,"count":28,"max":[1,1,1],"min":[-1,-1,-1],"type":"VEC3"},{"bufferView":10,"componentType":5126,"count":28,"max":[0.1875,1],"min":[0,0],"type":"VEC2"},{"bufferView":11,"componentType":5123,"count":42,"max":[27],"min":[0],"type":"SCALAR"}],"materials":[{"pbrMetallicRoughness":{"metallicFactor":0,"roughnessFactor":1,"baseColorTexture":{"index":0}},"alphaMode":"MASK","alphaCutoff":0.05,"doubleSided":true},{"pbrMetallicRoughness":{"metallicFactor":0,"roughnessFactor":1,"baseColorTexture":{"index":1}},"alphaMode":"MASK","alphaCutoff":0.05,"doubleSided":true}],"textures":[{"sampler":0,"source":0,"name":"wood.png"},{"sampler":1,"source":1,"name":"wood_dark.png"}],"samplers":[{"magFilter":9728,"minFilter":9728,"wrapS":10497,"wrapT":10497},{"magFilter":9728,"minFilter":9728,"wrapS":10497,"wrapT":10497}],"images":[{"mimeType":"image/png","uri":"../textures/wood.png","name":"wood"},{"mimeType":"image/png","uri":"../textures/wood_dark.png","name":"wood_dark"}],"meshes":[{"primitives":[{"mode":4,"attributes":{"POSITION":0,"NORMAL":1,"TEXCOORD_0":2},"indices":3,"material":0}]},{"primitives":[{"mode":4,"attributes":{"POSITION":4,"NORMAL":5,"TEXCOORD_0":6},"indices":7,"material":1}]},{"primitives":[{"mode":4,"attributes":{"POSITION":8,"NORMAL":9,"TEXCOORD_0":10},"indices":11,"material":1}]}]}