{"asset":{"version":"2.0","generator":"Blockbench 5.1.6 glTF exporter"},"scenes":[{"nodes":[1,3,6,8,10,12,15],"name":"blockbench_export"}],"scene":0,"nodes":[{"name":"sill_wall","mesh":0},{"name":"sill_wall","children":[0]},{"name":"header","mesh":1},{"name":"header","children":[2]},{"name":"jamb","mesh":2},{"name":"jamb","mesh":3},{"name":"jamb","children":[4,5]},{"name":"sill","mesh":4},{"name":"sill","children":[7]},{"name":"mullion","mesh":5},{"name":"mullion","children":[9]},{"name":"crossbar","mesh":6},{"name":"crossbar","children":[11]},{"name":"post","mesh":7},{"name":"post","mesh":8},{"name":"post","children":[13,14]}],"bufferViews":[{"buffer":0,"byteOffset":0,"byteLength":336,"target":34962,"byteStride":12},{"buffer":0,"byteOffset":336,"byteLength":336,"target":34962,"byteStride":12},{"buffer":0,"byteOffset":672,"byteLength":224,"target":34962,"byteStride":8},{"buffer":0,"byteOffset":896,"byteLength":84,"target":34963},{"buffer":0,"byteOffset":980,"byteLength":288,"target":34962,"byteStride":12},{"buffer":0,"byteOffset":1268,"byteLength":288,"target":34962,"byteStride":12},{"buffer":0,"byteOffset":1556,"byteLength":192,"target":34962,"byteStride":8},{"buffer":0,"byteOffset":1748,"byteLength":72,"target":34963},{"buffer":0,"byteOffset":1820,"byteLength":336,"target":34962,"byteStride":12},{"buffer":0,"byteOffset":2156,"byteLength":336,"target":34962,"byteStride":12},{"buffer":0,"byteOffset":2492,"byteLength":224,"target":34962,"byteStride":8},{"buffer":0,"byteOffset":2716,"byteLength":84,"target":34963},{"buffer":0,"byteOffset":2800,"byteLength":336,"target":34962,"byteStride":12},{"buffer":0,"byteOffset":3136,"byteLength":336,"target":34962,"byteStride":12},{"buffer":0,"byteOffset":3472,"byteLength":224,"target":34962,"byteStride":8},{"buffer":0,"byteOffset":3696,"byteLength":84,"target":34963},{"buffer":0,"byteOffset":3780,"byteLength":960,"target":34962,"byteStride":12},{"buffer":0,"byteOffset":4740,"byteLength":960,"target":34962,"byteStride":12},{"buffer":0,"byteOffset":5700,"byteLength":640,"target":34962,"byteStride":8},{"buffer":0,"byteOffset":6340,"byteLength":240,"target":34963},{"buffer":0,"byteOffset":6580,"byteLength":384,"target":34962,"byteStride":12},{"buffer":0,"byteOffset":6964,"byteLength":384,"target":34962,"byteStride":12},{"buffer":0,"byteOffset":7348,"byteLength":256,"target":34962,"byteStride":8},{"buffer":0,"byteOffset":7604,"byteLength":96,"target":34963},{"buffer":0,"byteOffset":7700,"byteLength":288,"target":34962,"byteStride":12},{"buffer":0,"byteOffset":7988,"byteLength":288,"target":34962,"byteStride":12},{"buffer":0,"byteOffset":8276,"byteLength":192,"target":34962,"byteStride":8},{"buffer":0,"byteOffset":8468,"byteLength":72,"target":34963},{"buffer":0,"byteOffset":8540,"byteLength":528,"target":34962,"byteStride":12},{"buffer":0,"byteOffset":9068,"byteLength":528,"target":34962,"byteStride":12},{"buffer":0,"byteOffset":9596,"byteLength":352,"target":34962,"byteStride":8},{"buffer":0,"byteOffset":9948,"byteLength":132,"target":34963},{"buffer":0,"byteOffset":10080,"byteLength":528,"target":34962,"byteStride":12},{"buffer":0,"byteOffset":10608,"byteLength":528,"target":34962,"byteStride":12},{"buffer":0,"byteOffset":11136,"byteLength":352,"target":34962,"byteStride":8},{"buffer":0,"byteOffset":11488,"byteLength":132,"target":34963}],"buffers":[{"byteLength":11620,"uri":"data:application/octet-stream;base64,"}],"accessors":[{"bufferView":0,"componentType":5126,"count":28,"max":[0.875,0.75,0.125],"min":[-0.875,0,-0.125],"type":"VEC3"},{"bufferView":1,"componentType":5126,"count":28,"max":[0,0,1],"min":[0,-1,-1],"type":"VEC3"},{"bufferView":2,"componentType":5126,"count":28,"max":[0.9375,0.375],"min":[0.0625,0],"type":"VEC2"},{"bufferView":3,"componentType":5123,"count":42,"max":[27],"min":[0],"type":"SCALAR"},{"bufferView":4,"componentType":5126,"count":24,"max":[0.875,2,0.125],"min":[-0.875,1.6875,-0.125],"type":"VEC3"},{"bufferView":5,"componentType":5126,"count":24,"max":[0,1,1],"min":[0,-1,-1],"type":"VEC3"},{"bufferView":6,"componentType":5126,"count":24,"max":[0.9375,0.15625],"min":[0.0625,0],"type":"VEC2"},{"bufferView":7,"componentType":5123,"count":36,"max":[23],"min":[0],"type":"SCALAR"},{"bufferView":8,"componentType":5126,"count":28,"max":[-0.625,1.6875,0.125],"min":[-0.875,0.75,-0.125],"type":"VEC3"},{"bufferView":9,"componentType":5126,"count":28,"max":[1,0,1],"min":[0,0,-1],"type":"VEC3"},{"bufferView":10,"componentType":5126,"count":28,"max":[0.1875,0.46875],"min":[0,0],"type":"VEC2"},{"bufferView":11,"componentType":5123,"count":42,"max":[27],"min":[0],"type":"SCALAR"},{"bufferView":12,"componentType":5126,"count":28,"max":[0.875,1.6875,0.125],"min":[0.625,0.75,-0.125],"type":"VEC3"},{"bufferView":13,"componentType":5126,"count":28,"max":[0,0,1],"min":[-1,0,-1],"type":"VEC3"},{"bufferView":14,"componentType":5126,"count":28,"max":[0.125,0.46875],"min":[0,0],"type":"VEC2"},{"bufferView":15,"componentType":5123,"count":42,"max":[27],"min":[0],"type":"SCALAR"},{"bufferView":16,"componentType":5126,"count":80,"max":[0.6875,0.8125,0.1875],"min":[-0.6875,0.6875,-0.1875],"type":"VEC3"},{"bufferView":17,"componentType":5126,"count":80,"max":[1,1,1],"min":[-1,-1,-1],"type":"VEC3"},{"bufferView":18,"componentType":5126,"count":80,"max":[0.6875,0.1875],"min":[0,0],"type":"VEC2"},{"bufferView":19,"componentType":5123,"count":120,"max":[79],"min":[0],"type":"SCALAR"},{"bufferView":20,"componentType":5126,"count":32,"max":[0.0625,1.6875,0.125],"min":[-0.0625,0.8125,-0.0625],"type":"VEC3"},{"bufferView":21,"componentType":5126,"count":32,"max":[1,0,1],"min":[-1,0,-1],"type":"VEC3"},{"bufferView":22,"componentType":5126,"count":32,"max":[0.09375,0.4375],"min":[0,0],"type":"VEC2"},{"bufferView":23,"componentType":5123,"count":48,"max":[31],"min":[0],"type":"SCALAR"},{"bufferView":24,"componentType":5126,"count":24,"max":[0.625,1.3125,0.125],"min":[-0.625,1.25,-0.0625],"type":"VEC3"},{"bufferView":25,"componentType":5126,"count":24,"max":[0,1,1],"min":[0,-1,-1],"type":"VEC3"},{"bufferView":26,"componentType":5126,"count":24,"max":[0.625,0.09375],"min":[0,0],"type":"VEC2"},{"bufferView":27,"componentType":5123,"count":36,"max":[23],"min":[0],"type":"SCALAR"},{"bufferView":28,"componentType":5126,"count":44,"max":[-0.875,2,0.1875],"min":[-1,0,-0.1875],"type":"VEC3"},{"bufferView":29,"componentType":5126,"count":44,"max":[1,1,1],"min":[-1,-1,-1],"type":"VEC3"},{"bufferView":30,"componentType":5126,"count":44,"max":[0.1875,1],"min":[0,0],"type":"VEC2"},{"bufferView":31,"componentType":5123,"count":66,"max":[43],"min":[0],"type":"SCALAR"},{"bufferView":32,"componentType":5126,"count":44,"max":[1,2,0.1875],"min":[0.875,0,-0.1875],"type":"VEC3"},{"bufferView":33,"componentType":5126,"count":44,"max":[1,1,1],"min":[-1,-1,-1],"type":"VEC3"},{"bufferView":34,"componentType":5126,"count":44,"max":[0.1875,1],"min":[0,0],"type":"VEC2"},{"bufferView":35,"componentType":5123,"count":66,"max":[43],"min":[0],"type":"SCALAR"}],"materials":[{"pbrMetallicRoughness":{"metallicFactor":0,"roughnessFactor":1,"baseColorTexture":{"index":0}},"alphaMode":"MASK","alphaCutoff":0.05,"doubleSided":true},{"pbrMetallicRoughness":{"metallicFactor":0,"roughnessFactor":1,"baseColorTexture":{"index":1}},"alphaMode":"MASK","alphaCutoff":0.05,"doubleSided":true},{"pbrMetallicRoughness":{"metallicFactor":0,"roughnessFactor":1,"baseColorTexture":{"index":2}},"alphaMode":"MASK","alphaCutoff":0.05,"doubleSided":true}],"textures":[{"sampler":0,"source":0,"name":"wood.png"},{"sampler":1,"source":1,"name":"metal.png"},{"sampler":2,"source":2,"name":"wood_dark.png"}],"samplers":[{"magFilter":9728,"minFilter":9728,"wrapS":10497,"wrapT":10497},{"magFilter":9728,"minFilter":9728,"wrapS":10497,"wrapT":10497},{"magFilter":9728,"minFilter":9728,"wrapS":10497,"wrapT":10497}],"images":[{"mimeType":"image/png","uri":"../textures/wood.png","name":"wood"},{"mimeType":"image/png","uri":"../textures/metal.png","name":"metal"},{"mimeType":"image/png","uri":"../textures/wood_dark.png","name":"wood_dark"}],"meshes":[{"primitives":[{"mode":4,"attributes":{"POSITION":0,"NORMAL":1,"TEXCOORD_0":2},"indices":3,"material":0}]},{"primitives":[{"mode":4,"attributes":{"POSITION":4,"NORMAL":5,"TEXCOORD_0":6},"indices":7,"material":0}]},{"primitives":[{"mode":4,"attributes":{"POSITION":8,"NORMAL":9,"TEXCOORD_0":10},"indices":11,"material":0}]},{"primitives":[{"mode":4,"attributes":{"POSITION":12,"NORMAL":13,"TEXCOORD_0":14},"indices":15,"material":0}]},{"primitives":[{"mode":4,"attributes":{"POSITION":16,"NORMAL":17,"TEXCOORD_0":18},"indices":19,"material":0}]},{"primitives":[{"mode":4,"attributes":{"POSITION":20,"NORMAL":21,"TEXCOORD_0":22},"indices":23,"material":1}]},{"primitives":[{"mode":4,"attributes":{"POSITION":24,"NORMAL":25,"TEXCOORD_0":26},"indices":27,"material":1}]},{"primitives":[{"mode":4,"attributes":{"POSITION":28,"NORMAL":29,"TEXCOORD_0":30},"indices":31,"material":2}]},{"primitives":[{"mode":4,"attributes":{"POSITION":32,"NORMAL":33,"TEXCOORD_0":34},"indices":35,"material":2}]}]}