{"asset":{"version":"2.0","generator":"Blockbench 5.1.6 glTF exporter"},"scenes":[{"nodes":[8],"name":"blockbench_export"}],"scene":0,"nodes":[{"name":"broken_masonry","mesh":0},{"name":"broken_masonry","mesh":1},{"name":"broken_masonry","mesh":2},{"name":"broken_masonry","mesh":3},{"name":"broken_masonry","mesh":4},{"name":"broken_masonry","mesh":5},{"name":"broken_masonry","mesh":6},{"name":"broken_masonry","mesh":7},{"name":"broken_masonry","children":[0,1,2,3,4,5,6,7]}],"bufferViews":[{"buffer":0,"byteOffset":0,"byteLength":288,"target":34962,"byteStride":12},{"buffer":0,"byteOffset":288,"byteLength":288,"target":34962,"byteStride":12},{"buffer":0,"byteOffset":576,"byteLength":192,"target":34962,"byteStride":8},{"buffer":0,"byteOffset":768,"byteLength":72,"target":34963},{"buffer":0,"byteOffset":840,"byteLength":240,"target":34962,"byteStride":12},{"buffer":0,"byteOffset":1080,"byteLength":240,"target":34962,"byteStride":12},{"buffer":0,"byteOffset":1320,"byteLength":160,"target":34962,"byteStride":8},{"buffer":0,"byteOffset":1480,"byteLength":60,"target":34963},{"buffer":0,"byteOffset":1540,"byteLength":240,"target":34962,"byteStride":12},{"buffer":0,"byteOffset":1780,"byteLength":240,"target":34962,"byteStride":12},{"buffer":0,"byteOffset":2020,"byteLength":160,"target":34962,"byteStride":8},{"buffer":0,"byteOffset":2180,"byteLength":60,"target":34963},{"buffer":0,"byteOffset":2240,"byteLength":240,"target":34962,"byteStride":12},{"buffer":0,"byteOffset":2480,"byteLength":240,"target":34962,"byteStride":12},{"buffer":0,"byteOffset":2720,"byteLength":160,"target":34962,"byteStride":8},{"buffer":0,"byteOffset":2880,"byteLength":60,"target":34963},{"buffer":0,"byteOffset":2940,"byteLength":240,"target":34962,"byteStride":12},{"buffer":0,"byteOffset":3180,"byteLength":240,"target":34962,"byteStride":12},{"buffer":0,"byteOffset":3420,"byteLength":160,"target":34962,"byteStride":8},{"buffer":0,"byteOffset":3580,"byteLength":60,"target":34963},{"buffer":0,"byteOffset":3640,"byteLength":192,"target":34962,"byteStride":12},{"buffer":0,"byteOffset":3832,"byteLength":192,"target":34962,"byteStride":12},{"buffer":0,"byteOffset":4024,"byteLength":128,"target":34962,"byteStride":8},{"buffer":0,"byteOffset":4152,"byteLength":48,"target":34963},{"buffer":0,"byteOffset":4200,"byteLength":240,"target":34962,"byteStride":12},{"buffer":0,"byteOffset":4440,"byteLength":240,"target":34962,"byteStride":12},{"buffer":0,"byteOffset":4680,"byteLength":160,"target":34962,"byteStride":8},{"buffer":0,"byteOffset":4840,"byteLength":60,"target":34963},{"buffer":0,"byteOffset":4900,"byteLength":288,"target":34962,"byteStride":12},{"buffer":0,"byteOffset":5188,"byteLength":288,"target":34962,"byteStride":12},{"buffer":0,"byteOffset":5476,"byteLength":192,"target":34962,"byteStride":8},{"buffer":0,"byteOffset":5668,"byteLength":72,"target":34963}],"buffers":[{"byteLength":5740,"uri":"data:application/octet-stream;base64,"}],"accessors":[{"bufferView":0,"componentType":5126,"count":24,"max":[-0.75,1.875,0.125],"min":[-1,0,-0.125],"type":"VEC3"},{"bufferView":1,"componentType":5126,"count":24,"max":[1,1,1],"min":[-1,-1,-1],"type":"VEC3"},{"bufferView":2,"componentType":5126,"count":24,"max":[0.125,0.9375],"min":[0,0],"type":"VEC2"},{"bufferView":3,"componentType":5123,"count":36,"max":[23],"min":[0],"type":"SCALAR"},{"bufferView":4,"componentType":5126,"count":20,"max":[-0.5,1.5,0.125],"min":[-0.75,0,-0.125],"type":"VEC3"},{"bufferView":5,"componentType":5126,"count":20,"max":[1,1,1],"min":[0,-1,-1],"type":"VEC3"},{"bufferView":6,"componentType":5126,"count":20,"max":[0.125,0.75],"min":[0,0],"type":"VEC2"},{"bufferView":7,"componentType":5123,"count":30,"max":[19],"min":[0],"type":"SCALAR"},{"bufferView":8,"componentType":5126,"count":20,"max":[-0.25,1.125,0.125],"min":[-0.5,0,-0.125],"type":"VEC3"},{"bufferView":9,"componentType":5126,"count":20,"max":[1,1,1],"min":[0,-1,-1],"type":"VEC3"},{"bufferView":10,"componentType":5126,"count":20,"max":[0.125,0.5625],"min":[0,0],"type":"VEC2"},{"bufferView":11,"componentType":5123,"count":30,"max":[19],"min":[0],"type":"SCALAR"},{"bufferView":12,"componentType":5126,"count":20,"max":[0,0.75,0.125],"min":[-0.25,0,-0.125],"type":"VEC3"},{"bufferView":13,"componentType":5126,"count":20,"max":[1,1,1],"min":[0,-1,-1],"type":"VEC3"},{"bufferView":14,"componentType":5126,"count":20,"max":[0.125,0.375],"min":[0,0],"type":"VEC2"},{"bufferView":15,"componentType":5123,"count":30,"max":[19],"min":[0],"type":"SCALAR"},{"bufferView":16,"componentType":5126,"count":20,"max":[0.25,0.5,0.125],"min":[0,0,-0.125],"type":"VEC3"},{"bufferView":17,"componentType":5126,"count":20,"max":[1,1,1],"min":[0,-1,-1],"type":"VEC3"},{"bufferView":18,"componentType":5126,"count":20,"max":[0.125,0.25],"min":[0,0],"type":"VEC2"},{"bufferView":19,"componentType":5123,"count":30,"max":[19],"min":[0],"type":"SCALAR"},{"bufferView":20,"componentType":5126,"count":16,"max":[0.5,0.25,0.125],"min":[0.25,0,-0.125],"type":"VEC3"},{"bufferView":21,"componentType":5126,"count":16,"max":[0,1,1],"min":[0,-1,-1],"type":"VEC3"},{"bufferView":22,"componentType":5126,"count":16,"max":[0.125,0.125],"min":[0,0],"type":"VEC2"},{"bufferView":23,"componentType":5123,"count":24,"max":[15],"min":[0],"type":"SCALAR"},{"bufferView":24,"componentType":5126,"count":20,"max":[0.75,0.5625,0.125],"min":[0.5,0,-0.125],"type":"VEC3"},{"bufferView":25,"componentType":5126,"count":20,"max":[0,1,1],"min":[-1,-1,-1],"type":"VEC3"},{"bufferView":26,"componentType":5126,"count":20,"max":[0.125,0.28125],"min":[0,0],"type":"VEC2"},{"bufferView":27,"componentType":5123,"count":30,"max":[19],"min":[0],"type":"SCALAR"},{"bufferView":28,"componentType":5126,"count":24,"max":[1,1.0625,0.125],"min":[0.75,0,-0.125],"type":"VEC3"},{"bufferView":29,"componentType":5126,"count":24,"max":[1,1,1],"min":[-1,-1,-1],"type":"VEC3"},{"bufferView":30,"componentType":5126,"count":24,"max":[0.125,0.53125],"min":[0,0],"type":"VEC2"},{"bufferView":31,"componentType":5123,"count":36,"max":[23],"min":[0],"type":"SCALAR"}],"materials":[{"pbrMetallicRoughness":{"metallicFactor":0,"roughnessFactor":1,"baseColorTexture":{"index":0}},"alphaMode":"MASK","alphaCutoff":0.05,"doubleSided":true}],"textures":[{"sampler":0,"source":0,"name":"brick_red.png"}],"samplers":[{"magFilter":9728,"minFilter":9728,"wrapS":10497,"wrapT":10497}],"images":[{"mimeType":"image/png","uri":"../textures/brick_red.png","name":"brick_red"}],"meshes":[{"primitives":[{"mode":4,"attributes":{"POSITION":0,"NORMAL":1,"TEXCOORD_0":2},"indices":3,"material":0}]},{"primitives":[{"mode":4,"attributes":{"POSITION":4,"NORMAL":5,"TEXCOORD_0":6},"indices":7,"material":0}]},{"primitives":[{"mode":4,"attributes":{"POSITION":8,"NORMAL":9,"TEXCOORD_0":10},"indices":11,"material":0}]},{"primitives":[{"mode":4,"attributes":{"POSITION":12,"NORMAL":13,"TEXCOORD_0":14},"indices":15,"material":0}]},{"primitives":[{"mode":4,"attributes":{"POSITION":16,"NORMAL":17,"TEXCOORD_0":18},"indices":19,"material":0}]},{"primitives":[{"mode":4,"attributes":{"POSITION":20,"NORMAL":21,"TEXCOORD_0":22},"indices":23,"material":0}]},{"primitives":[{"mode":4,"attributes":{"POSITION":24,"NORMAL":25,"TEXCOORD_0":26},"indices":27,"material":0}]},{"primitives":[{"mode":4,"attributes":{"POSITION":28,"NORMAL":29,"TEXCOORD_0":30},"indices":31,"material":0}]}]}