{"asset":{"version":"2.0","generator":"Blockbench 5.1.6 glTF exporter"},"scenes":[{"nodes":[1,3,6],"name":"blockbench_export"}],"scene":0,"nodes":[{"name":"frame","mesh":0},{"name":"frame","children":[0]},{"name":"face","mesh":1},{"name":"face","children":[2]},{"name":"hand","mesh":2},{"name":"hand","mesh":3},{"name":"hand","children":[4,5]}],"bufferViews":[{"buffer":0,"byteOffset":0,"byteLength":432,"target":34962,"byteStride":12},{"buffer":0,"byteOffset":432,"byteLength":432,"target":34962,"byteStride":12},{"buffer":0,"byteOffset":864,"byteLength":288,"target":34962,"byteStride":8},{"buffer":0,"byteOffset":1152,"byteLength":108,"target":34963},{"buffer":0,"byteOffset":1260,"byteLength":480,"target":34962,"byteStride":12},{"buffer":0,"byteOffset":1740,"byteLength":480,"target":34962,"byteStride":12},{"buffer":0,"byteOffset":2220,"byteLength":320,"target":34962,"byteStride":8},{"buffer":0,"byteOffset":2540,"byteLength":120,"target":34963},{"buffer":0,"byteOffset":2660,"byteLength":192,"target":34962,"byteStride":12},{"buffer":0,"byteOffset":2852,"byteLength":192,"target":34962,"byteStride":12},{"buffer":0,"byteOffset":3044,"byteLength":128,"target":34962,"byteStride":8},{"buffer":0,"byteOffset":3172,"byteLength":48,"target":34963},{"buffer":0,"byteOffset":3220,"byteLength":240,"target":34962,"byteStride":12},{"buffer":0,"byteOffset":3460,"byteLength":240,"target":34962,"byteStride":12},{"buffer":0,"byteOffset":3700,"byteLength":160,"target":34962,"byteStride":8},{"buffer":0,"byteOffset":3860,"byteLength":60,"target":34963}],"buffers":[{"byteLength":3920,"uri":"data:application/octet-stream;base64,"}],"accessors":[{"bufferView":0,"componentType":5126,"count":36,"max":[0.3125,0.625,0.0625],"min":[-0.3125,0,-0.0625],"type":"VEC3"},{"bufferView":1,"componentType":5126,"count":36,"max":[1,1,1],"min":[-1,-1,-1],"type":"VEC3"},{"bufferView":2,"componentType":5126,"count":36,"max":[0.3125,0.3125],"min":[0,0],"type":"VEC2"},{"bufferView":3,"componentType":5123,"count":54,"max":[35],"min":[0],"type":"SCALAR"},{"bufferView":4,"componentType":5126,"count":40,"max":[0.25,0.5625,-0.0625],"min":[-0.25,0.0625,-0.078125],"type":"VEC3"},{"bufferView":5,"componentType":5126,"count":40,"max":[1,1,0],"min":[-1,-1,-1],"type":"VEC3"},{"bufferView":6,"componentType":5126,"count":40,"max":[0.25,0.25],"min":[0,0],"type":"VEC2"},{"bufferView":7,"componentType":5123,"count":60,"max":[39],"min":[0],"type":"SCALAR"},{"bufferView":8,"componentType":5126,"count":16,"max":[0.0625,0.4375,-0.078125],"min":[0,0.25,-0.09375],"type":"VEC3"},{"bufferView":9,"componentType":5126,"count":16,"max":[1,1,0],"min":[-1,0,-1],"type":"VEC3"},{"bufferView":10,"componentType":5126,"count":16,"max":[0.03125,0.09375],"min":[0,0],"type":"VEC2"},{"bufferView":11,"componentType":5123,"count":24,"max":[15],"min":[0],"type":"SCALAR"},{"bufferView":12,"componentType":5126,"count":20,"max":[0.1875,0.25,-0.078125],"min":[0,0.1875,-0.09375],"type":"VEC3"},{"bufferView":13,"componentType":5126,"count":20,"max":[1,1,0],"min":[-1,-1,-1],"type":"VEC3"},{"bufferView":14,"componentType":5126,"count":20,"max":[0.09375,0.03125],"min":[0,0],"type":"VEC2"},{"bufferView":15,"componentType":5123,"count":30,"max":[19],"min":[0],"type":"SCALAR"}],"materials":[{"pbrMetallicRoughness":{"metallicFactor":0,"roughnessFactor":1,"baseColorTexture":{"index":0}},"alphaMode":"MASK","alphaCutoff":0.05,"doubleSided":true},{"pbrMetallicRoughness":{"metallicFactor":0,"roughnessFactor":1,"baseColorTexture":{"index":1}},"alphaMode":"MASK","alphaCutoff":0.05,"doubleSided":true},{"pbrMetallicRoughness":{"metallicFactor":0,"roughnessFactor":1,"baseColorTexture":{"index":2}},"alphaMode":"MASK","alphaCutoff":0.05,"doubleSided":true}],"textures":[{"sampler":0,"source":0,"name":"wood_dark.png"},{"sampler":1,"source":1,"name":"cream.png"},{"sampler":2,"source":2,"name":"rubber.png"}],"samplers":[{"magFilter":9728,"minFilter":9728,"wrapS":10497,"wrapT":10497},{"magFilter":9728,"minFilter":9728,"wrapS":10497,"wrapT":10497},{"magFilter":9728,"minFilter":9728,"wrapS":10497,"wrapT":10497}],"images":[{"mimeType":"image/png","uri":"../textures/wood_dark.png","name":"wood_dark"},{"mimeType":"image/png","uri":"../textures/cream.png","name":"cream"},{"mimeType":"image/png","uri":"../textures/rubber.png","name":"rubber"}],"meshes":[{"primitives":[{"mode":4,"attributes":{"POSITION":0,"NORMAL":1,"TEXCOORD_0":2},"indices":3,"material":0}]},{"primitives":[{"mode":4,"attributes":{"POSITION":4,"NORMAL":5,"TEXCOORD_0":6},"indices":7,"material":1}]},{"primitives":[{"mode":4,"attributes":{"POSITION":8,"NORMAL":9,"TEXCOORD_0":10},"indices":11,"material":2}]},{"primitives":[{"mode":4,"attributes":{"POSITION":12,"NORMAL":13,"TEXCOORD_0":14},"indices":15,"material":2}]}]}