{"asset":{"version":"2.0","generator":"Blockbench 5.1.6 glTF exporter"},"scenes":[{"nodes":[1,3,6],"name":"blockbench_export"}],"scene":0,"nodes":[{"name":"cabinet","mesh":0},{"name":"cabinet","children":[0]},{"name":"seam","mesh":1},{"name":"seam","children":[2]},{"name":"pull","mesh":2},{"name":"pull","mesh":3},{"name":"pull","children":[4,5]}],"bufferViews":[{"buffer":0,"byteOffset":0,"byteLength":720,"target":34962,"byteStride":12},{"buffer":0,"byteOffset":720,"byteLength":720,"target":34962,"byteStride":12},{"buffer":0,"byteOffset":1440,"byteLength":480,"target":34962,"byteStride":8},{"buffer":0,"byteOffset":1920,"byteLength":180,"target":34963},{"buffer":0,"byteOffset":2100,"byteLength":240,"target":34962,"byteStride":12},{"buffer":0,"byteOffset":2340,"byteLength":240,"target":34962,"byteStride":12},{"buffer":0,"byteOffset":2580,"byteLength":160,"target":34962,"byteStride":8},{"buffer":0,"byteOffset":2740,"byteLength":60,"target":34963},{"buffer":0,"byteOffset":2800,"byteLength":240,"target":34962,"byteStride":12},{"buffer":0,"byteOffset":3040,"byteLength":240,"target":34962,"byteStride":12},{"buffer":0,"byteOffset":3280,"byteLength":160,"target":34962,"byteStride":8},{"buffer":0,"byteOffset":3440,"byteLength":60,"target":34963},{"buffer":0,"byteOffset":3500,"byteLength":240,"target":34962,"byteStride":12},{"buffer":0,"byteOffset":3740,"byteLength":240,"target":34962,"byteStride":12},{"buffer":0,"byteOffset":3980,"byteLength":160,"target":34962,"byteStride":8},{"buffer":0,"byteOffset":4140,"byteLength":60,"target":34963}],"buffers":[{"byteLength":4200,"uri":"data:application/octet-stream;base64,"}],"accessors":[{"bufferView":0,"componentType":5126,"count":60,"max":[0.8125,2,0.5],"min":[-0.8125,0,-0.5],"type":"VEC3"},{"bufferView":1,"componentType":5126,"count":60,"max":[1,1,1],"min":[-1,-1,-1],"type":"VEC3"},{"bufferView":2,"componentType":5126,"count":60,"max":[0.8125,1],"min":[0,0],"type":"VEC2"},{"bufferView":3,"componentType":5123,"count":90,"max":[59],"min":[0],"type":"SCALAR"},{"bufferView":4,"componentType":5126,"count":20,"max":[0.03125,1.9375,-0.5],"min":[-0.03125,0.0625,-0.53125],"type":"VEC3"},{"bufferView":5,"componentType":5126,"count":20,"max":[1,1,0],"min":[-1,-1,-1],"type":"VEC3"},{"bufferView":6,"componentType":5126,"count":20,"max":[0.03125,0.9375],"min":[0,0],"type":"VEC2"},{"bufferView":7,"componentType":5123,"count":30,"max":[19],"min":[0],"type":"SCALAR"},{"bufferView":8,"componentType":5126,"count":20,"max":[-0.125,1.125,-0.5],"min":[-0.1875,0.875,-0.625],"type":"VEC3"},{"bufferView":9,"componentType":5126,"count":20,"max":[1,1,0],"min":[-1,-1,-1],"type":"VEC3"},{"bufferView":10,"componentType":5126,"count":20,"max":[0.0625,0.125],"min":[0,0],"type":"VEC2"},{"bufferView":11,"componentType":5123,"count":30,"max":[19],"min":[0],"type":"SCALAR"},{"bufferView":12,"componentType":5126,"count":20,"max":[0.1875,1.125,-0.5],"min":[0.125,0.875,-0.625],"type":"VEC3"},{"bufferView":13,"componentType":5126,"count":20,"max":[1,1,0],"min":[-1,-1,-1],"type":"VEC3"},{"bufferView":14,"componentType":5126,"count":20,"max":[0.0625,0.125],"min":[0,0],"type":"VEC2"},{"bufferView":15,"componentType":5123,"count":30,"max":[19],"min":[0],"type":"SCALAR"}],"materials":[{"pbrMetallicRoughness":{"metallicFactor":0,"roughnessFactor":1,"baseColorTexture":{"index":0}},"alphaMode":"MASK","alphaCutoff":0.05,"doubleSided":true},{"pbrMetallicRoughness":{"metallicFactor":0,"roughnessFactor":1,"baseColorTexture":{"index":1}},"alphaMode":"MASK","alphaCutoff":0.05,"doubleSided":true},{"pbrMetallicRoughness":{"metallicFactor":0,"roughnessFactor":1,"baseColorTexture":{"index":2}},"alphaMode":"MASK","alphaCutoff":0.05,"doubleSided":true}],"textures":[{"sampler":0,"source":0,"name":"wood.png"},{"sampler":1,"source":1,"name":"wood_dark.png"},{"sampler":2,"source":2,"name":"brass.png"}],"samplers":[{"magFilter":9728,"minFilter":9728,"wrapS":10497,"wrapT":10497},{"magFilter":9728,"minFilter":9728,"wrapS":10497,"wrapT":10497},{"magFilter":9728,"minFilter":9728,"wrapS":10497,"wrapT":10497}],"images":[{"mimeType":"image/png","uri":"../textures/wood.png","name":"wood"},{"mimeType":"image/png","uri":"../textures/wood_dark.png","name":"wood_dark"},{"mimeType":"image/png","uri":"../textures/brass.png","name":"brass"}],"meshes":[{"primitives":[{"mode":4,"attributes":{"POSITION":0,"NORMAL":1,"TEXCOORD_0":2},"indices":3,"material":0}]},{"primitives":[{"mode":4,"attributes":{"POSITION":4,"NORMAL":5,"TEXCOORD_0":6},"indices":7,"material":1}]},{"primitives":[{"mode":4,"attributes":{"POSITION":8,"NORMAL":9,"TEXCOORD_0":10},"indices":11,"material":2}]},{"primitives":[{"mode":4,"attributes":{"POSITION":12,"NORMAL":13,"TEXCOORD_0":14},"indices":15,"material":2}]}]}