{"asset":{"version":"2.0","generator":"Blockbench 5.1.6 glTF exporter"},"scenes":[{"nodes":[3,7],"name":"blockbench_export"}],"scene":0,"nodes":[{"name":"blade","mesh":0},{"name":"blade","mesh":1},{"name":"blade","mesh":2},{"name":"blade","children":[0,1,2]},{"name":"leaf","mesh":3},{"name":"leaf","mesh":4},{"name":"leaf","mesh":5},{"name":"leaf","children":[4,5,6]}],"bufferViews":[{"buffer":0,"byteOffset":0,"byteLength":480,"target":34962,"byteStride":12},{"buffer":0,"byteOffset":480,"byteLength":480,"target":34962,"byteStride":12},{"buffer":0,"byteOffset":960,"byteLength":320,"target":34962,"byteStride":8},{"buffer":0,"byteOffset":1280,"byteLength":120,"target":34963},{"buffer":0,"byteOffset":1400,"byteLength":480,"target":34962,"byteStride":12},{"buffer":0,"byteOffset":1880,"byteLength":480,"target":34962,"byteStride":12},{"buffer":0,"byteOffset":2360,"byteLength":320,"target":34962,"byteStride":8},{"buffer":0,"byteOffset":2680,"byteLength":120,"target":34963},{"buffer":0,"byteOffset":2800,"byteLength":480,"target":34962,"byteStride":12},{"buffer":0,"byteOffset":3280,"byteLength":480,"target":34962,"byteStride":12},{"buffer":0,"byteOffset":3760,"byteLength":320,"target":34962,"byteStride":8},{"buffer":0,"byteOffset":4080,"byteLength":120,"target":34963},{"buffer":0,"byteOffset":4200,"byteLength":384,"target":34962,"byteStride":12},{"buffer":0,"byteOffset":4584,"byteLength":384,"target":34962,"byteStride":12},{"buffer":0,"byteOffset":4968,"byteLength":256,"target":34962,"byteStride":8},{"buffer":0,"byteOffset":5224,"byteLength":96,"target":34963},{"buffer":0,"byteOffset":5320,"byteLength":384,"target":34962,"byteStride":12},{"buffer":0,"byteOffset":5704,"byteLength":384,"target":34962,"byteStride":12},{"buffer":0,"byteOffset":6088,"byteLength":256,"target":34962,"byteStride":8},{"buffer":0,"byteOffset":6344,"byteLength":96,"target":34963},{"buffer":0,"byteOffset":6440,"byteLength":384,"target":34962,"byteStride":12},{"buffer":0,"byteOffset":6824,"byteLength":384,"target":34962,"byteStride":12},{"buffer":0,"byteOffset":7208,"byteLength":256,"target":34962,"byteStride":8},{"buffer":0,"byteOffset":7464,"byteLength":96,"target":34963}],"buffers":[{"byteLength":7560,"uri":"data:application/octet-stream;base64,"}],"accessors":[{"bufferView":0,"componentType":5126,"count":40,"max":[-0.25,0.375,0.0625],"min":[-0.3125,0,0],"type":"VEC3"},{"bufferView":1,"componentType":5126,"count":40,"max":[1,1,1],"min":[-1,-1,-1],"type":"VEC3"},{"bufferView":2,"componentType":5126,"count":40,"max":[0.03125,0.1875],"min":[0,0],"type":"VEC2"},{"bufferView":3,"componentType":5123,"count":60,"max":[39],"min":[0],"type":"SCALAR"},{"bufferView":4,"componentType":5126,"count":40,"max":[0.0625,0.5625,0.25],"min":[0,0,0.1875],"type":"VEC3"},{"bufferView":5,"componentType":5126,"count":40,"max":[1,1,1],"min":[-1,-1,-1],"type":"VEC3"},{"bufferView":6,"componentType":5126,"count":40,"max":[0.03125,0.28125],"min":[0,0],"type":"VEC2"},{"bufferView":7,"componentType":5123,"count":60,"max":[39],"min":[0],"type":"SCALAR"},{"bufferView":8,"componentType":5126,"count":40,"max":[0.3125,0.3125,-0.0625],"min":[0.25,0,-0.125],"type":"VEC3"},{"bufferView":9,"componentType":5126,"count":40,"max":[1,1,1],"min":[-1,-1,-1],"type":"VEC3"},{"bufferView":10,"componentType":5126,"count":40,"max":[0.03125,0.15625],"min":[0,0],"type":"VEC2"},{"bufferView":11,"componentType":5123,"count":60,"max":[39],"min":[0],"type":"SCALAR"},{"bufferView":12,"componentType":5126,"count":32,"max":[-0.125,0.25,0.0625],"min":[-0.4375,0.1875,0],"type":"VEC3"},{"bufferView":13,"componentType":5126,"count":32,"max":[1,1,1],"min":[-1,-1,-1],"type":"VEC3"},{"bufferView":14,"componentType":5126,"count":32,"max":[0.15625,0.03125],"min":[0,0],"type":"VEC2"},{"bufferView":15,"componentType":5123,"count":48,"max":[31],"min":[0],"type":"SCALAR"},{"bufferView":16,"componentType":5126,"count":32,"max":[0.1875,0.34375,0.25],"min":[-0.125,0.28125,0.1875],"type":"VEC3"},{"bufferView":17,"componentType":5126,"count":32,"max":[1,1,1],"min":[-1,-1,-1],"type":"VEC3"},{"bufferView":18,"componentType":5126,"count":32,"max":[0.15625,0.03125],"min":[0,0],"type":"VEC2"},{"bufferView":19,"componentType":5123,"count":48,"max":[31],"min":[0],"type":"SCALAR"},{"bufferView":20,"componentType":5126,"count":32,"max":[0.4375,0.21875,-0.0625],"min":[0.125,0.15625,-0.125],"type":"VEC3"},{"bufferView":21,"componentType":5126,"count":32,"max":[1,1,1],"min":[-1,-1,-1],"type":"VEC3"},{"bufferView":22,"componentType":5126,"count":32,"max":[0.15625,0.03125],"min":[0,0],"type":"VEC2"},{"bufferView":23,"componentType":5123,"count":48,"max":[31],"min":[0],"type":"SCALAR"}],"materials":[{"pbrMetallicRoughness":{"metallicFactor":0,"roughnessFactor":1,"baseColorTexture":{"index":0}},"alphaMode":"MASK","alphaCutoff":0.05,"doubleSided":true}],"textures":[{"sampler":0,"source":0,"name":"grass.png"}],"samplers":[{"magFilter":9728,"minFilter":9728,"wrapS":10497,"wrapT":10497}],"images":[{"mimeType":"image/png","uri":"../textures/grass.png","name":"grass"}],"meshes":[{"primitives":[{"mode":4,"attributes":{"POSITION":0,"NORMAL":1,"TEXCOORD_0":2},"indices":3,"material":0}]},{"primitives":[{"mode":4,"attributes":{"POSITION":4,"NORMAL":5,"TEXCOORD_0":6},"indices":7,"material":0}]},{"primitives":[{"mode":4,"attributes":{"POSITION":8,"NORMAL":9,"TEXCOORD_0":10},"indices":11,"material":0}]},{"primitives":[{"mode":4,"attributes":{"POSITION":12,"NORMAL":13,"TEXCOORD_0":14},"indices":15,"material":0}]},{"primitives":[{"mode":4,"attributes":{"POSITION":16,"NORMAL":17,"TEXCOORD_0":18},"indices":19,"material":0}]},{"primitives":[{"mode":4,"attributes":{"POSITION":20,"NORMAL":21,"TEXCOORD_0":22},"indices":23,"material":0}]}]}