{"asset":{"version":"2.0","generator":"Blockbench 5.1.6 glTF exporter"},"scenes":[{"nodes":[7,9],"name":"blockbench_export"}],"scene":0,"nodes":[{"name":"tool_board","mesh":0},{"name":"tool_handle","mesh":1},{"name":"tool_head","mesh":2},{"name":"tool_handle","mesh":3},{"name":"tool_head","mesh":4},{"name":"tool_handle","mesh":5},{"name":"tool_head","mesh":6},{"name":"tool_set_0_0_0_0","children":[0,1,2,3,4,5,6]},{"name":"vise","mesh":7},{"name":"vise","children":[8]}],"bufferViews":[{"buffer":0,"byteOffset":0,"byteLength":2304,"target":34962,"byteStride":12},{"buffer":0,"byteOffset":2304,"byteLength":2304,"target":34962,"byteStride":12},{"buffer":0,"byteOffset":4608,"byteLength":1536,"target":34962,"byteStride":8},{"buffer":0,"byteOffset":6144,"byteLength":576,"target":34963},{"buffer":0,"byteOffset":6720,"byteLength":96,"target":34962,"byteStride":12},{"buffer":0,"byteOffset":6816,"byteLength":96,"target":34962,"byteStride":12},{"buffer":0,"byteOffset":6912,"byteLength":64,"target":34962,"byteStride":8},{"buffer":0,"byteOffset":6976,"byteLength":24,"target":34963},{"buffer":0,"byteOffset":7000,"byteLength":96,"target":34962,"byteStride":12},{"buffer":0,"byteOffset":7096,"byteLength":96,"target":34962,"byteStride":12},{"buffer":0,"byteOffset":7192,"byteLength":64,"target":34962,"byteStride":8},{"buffer":0,"byteOffset":7256,"byteLength":24,"target":34963},{"buffer":0,"byteOffset":7280,"byteLength":96,"target":34962,"byteStride":12},{"buffer":0,"byteOffset":7376,"byteLength":96,"target":34962,"byteStride":12},{"buffer":0,"byteOffset":7472,"byteLength":64,"target":34962,"byteStride":8},{"buffer":0,"byteOffset":7536,"byteLength":24,"target":34963},{"buffer":0,"byteOffset":7560,"byteLength":96,"target":34962,"byteStride":12},{"buffer":0,"byteOffset":7656,"byteLength":96,"target":34962,"byteStride":12},{"buffer":0,"byteOffset":7752,"byteLength":64,"target":34962,"byteStride":8},{"buffer":0,"byteOffset":7816,"byteLength":24,"target":34963},{"buffer":0,"byteOffset":7840,"byteLength":96,"target":34962,"byteStride":12},{"buffer":0,"byteOffset":7936,"byteLength":96,"target":34962,"byteStride":12},{"buffer":0,"byteOffset":8032,"byteLength":64,"target":34962,"byteStride":8},{"buffer":0,"byteOffset":8096,"byteLength":24,"target":34963},{"buffer":0,"byteOffset":8120,"byteLength":96,"target":34962,"byteStride":12},{"buffer":0,"byteOffset":8216,"byteLength":96,"target":34962,"byteStride":12},{"buffer":0,"byteOffset":8312,"byteLength":64,"target":34962,"byteStride":8},{"buffer":0,"byteOffset":8376,"byteLength":24,"target":34963},{"buffer":0,"byteOffset":8400,"byteLength":336,"target":34962,"byteStride":12},{"buffer":0,"byteOffset":8736,"byteLength":336,"target":34962,"byteStride":12},{"buffer":0,"byteOffset":9072,"byteLength":224,"target":34962,"byteStride":8},{"buffer":0,"byteOffset":9296,"byteLength":84,"target":34963}],"buffers":[{"byteLength":9380,"uri":"data:application/octet-stream;base64,"}],"accessors":[{"bufferView":0,"componentType":5126,"count":192,"max":[0.75,0.125,0.5625],"min":[-0.75,0,-0.5625],"type":"VEC3"},{"bufferView":1,"componentType":5126,"count":192,"max":[1,1,1],"min":[-1,-1,-1],"type":"VEC3"},{"bufferView":2,"componentType":5126,"count":192,"max":[0.75,0.5625],"min":[0,0],"type":"VEC2"},{"bufferView":3,"componentType":5123,"count":288,"max":[191],"min":[0],"type":"SCALAR"},{"bufferView":4,"componentType":5126,"count":8,"max":[-0.375,0.125,0.1875],"min":[-0.5,0,-0.375],"type":"VEC3"},{"bufferView":5,"componentType":5126,"count":8,"max":[0,1,0],"min":[0,-1,0],"type":"VEC3"},{"bufferView":6,"componentType":5126,"count":8,"max":[0.0625,0.28125],"min":[0,0],"type":"VEC2"},{"bufferView":7,"componentType":5123,"count":12,"max":[7],"min":[0],"type":"SCALAR"},{"bufferView":8,"componentType":5126,"count":8,"max":[-0.3125,0.125,0.375],"min":[-0.5625,0,0.1875],"type":"VEC3"},{"bufferView":9,"componentType":5126,"count":8,"max":[0,1,0],"min":[0,-1,0],"type":"VEC3"},{"bufferView":10,"componentType":5126,"count":8,"max":[0.125,0.09375],"min":[0,0],"type":"VEC2"},{"bufferView":11,"componentType":5123,"count":12,"max":[7],"min":[0],"type":"SCALAR"},{"bufferView":12,"componentType":5126,"count":8,"max":[0,0.125,0.1875],"min":[-0.125,0,-0.375],"type":"VEC3"},{"bufferView":13,"componentType":5126,"count":8,"max":[0,1,0],"min":[0,-1,0],"type":"VEC3"},{"bufferView":14,"componentType":5126,"count":8,"max":[0.0625,0.28125],"min":[0,0],"type":"VEC2"},{"bufferView":15,"componentType":5123,"count":12,"max":[7],"min":[0],"type":"SCALAR"},{"bufferView":16,"componentType":5126,"count":8,"max":[0.0625,0.125,0.375],"min":[-0.1875,0,0.1875],"type":"VEC3"},{"bufferView":17,"componentType":5126,"count":8,"max":[0,1,0],"min":[0,-1,0],"type":"VEC3"},{"bufferView":18,"componentType":5126,"count":8,"max":[0.125,0.09375],"min":[0,0],"type":"VEC2"},{"bufferView":19,"componentType":5123,"count":12,"max":[7],"min":[0],"type":"SCALAR"},{"bufferView":20,"componentType":5126,"count":8,"max":[0.375,0.125,0.1875],"min":[0.25,0,-0.375],"type":"VEC3"},{"bufferView":21,"componentType":5126,"count":8,"max":[0,1,0],"min":[0,-1,0],"type":"VEC3"},{"bufferView":22,"componentType":5126,"count":8,"max":[0.0625,0.28125],"min":[0,0],"type":"VEC2"},{"bufferView":23,"componentType":5123,"count":12,"max":[7],"min":[0],"type":"SCALAR"},{"bufferView":24,"componentType":5126,"count":8,"max":[0.4375,0.125,0.375],"min":[0.1875,0,0.1875],"type":"VEC3"},{"bufferView":25,"componentType":5126,"count":8,"max":[0,1,0],"min":[0,-1,0],"type":"VEC3"},{"bufferView":26,"componentType":5126,"count":8,"max":[0.125,0.09375],"min":[0,0],"type":"VEC2"},{"bufferView":27,"componentType":5123,"count":12,"max":[7],"min":[0],"type":"SCALAR"},{"bufferView":28,"componentType":5126,"count":28,"max":[0.9375,0.5625,0.625],"min":[0.4375,0.125,0.125],"type":"VEC3"},{"bufferView":29,"componentType":5126,"count":28,"max":[1,1,1],"min":[-1,-1,-1],"type":"VEC3"},{"bufferView":30,"componentType":5126,"count":28,"max":[0.25,0.25],"min":[0,0],"type":"VEC2"},{"bufferView":31,"componentType":5123,"count":42,"max":[27],"min":[0],"type":"SCALAR"}],"materials":[{"pbrMetallicRoughness":{"metallicFactor":0,"roughnessFactor":1,"baseColorTexture":{"index":0}},"alphaMode":"MASK","alphaCutoff":0.05,"doubleSided":true},{"pbrMetallicRoughness":{"metallicFactor":0,"roughnessFactor":1,"baseColorTexture":{"index":1}},"alphaMode":"MASK","alphaCutoff":0.05,"doubleSided":true}],"textures":[{"sampler":0,"source":0,"name":"wood_dark.png"},{"sampler":1,"source":1,"name":"metal.png"}],"samplers":[{"magFilter":9728,"minFilter":9728,"wrapS":10497,"wrapT":10497},{"magFilter":9728,"minFilter":9728,"wrapS":10497,"wrapT":10497}],"images":[{"mimeType":"image/png","uri":"../textures/wood_dark.png","name":"wood_dark"},{"mimeType":"image/png","uri":"../textures/metal.png","name":"metal"}],"meshes":[{"primitives":[{"mode":4,"attributes":{"POSITION":0,"NORMAL":1,"TEXCOORD_0":2},"indices":3,"material":0}]},{"primitives":[{"mode":4,"attributes":{"POSITION":4,"NORMAL":5,"TEXCOORD_0":6},"indices":7,"material":1}]},{"primitives":[{"mode":4,"attributes":{"POSITION":8,"NORMAL":9,"TEXCOORD_0":10},"indices":11,"material":1}]},{"primitives":[{"mode":4,"attributes":{"POSITION":12,"NORMAL":13,"TEXCOORD_0":14},"indices":15,"material":1}]},{"primitives":[{"mode":4,"attributes":{"POSITION":16,"NORMAL":17,"TEXCOORD_0":18},"indices":19,"material":1}]},{"primitives":[{"mode":4,"attributes":{"POSITION":20,"NORMAL":21,"TEXCOORD_0":22},"indices":23,"material":1}]},{"primitives":[{"mode":4,"attributes":{"POSITION":24,"NORMAL":25,"TEXCOORD_0":26},"indices":27,"material":1}]},{"primitives":[{"mode":4,"attributes":{"POSITION":28,"NORMAL":29,"TEXCOORD_0":30},"indices":31,"material":1}]}]}