{"asset":{"version":"2.0","generator":"Blockbench 5.1.6 glTF exporter"},"scenes":[{"nodes":[4,6,8,10],"name":"blockbench_export"}],"scene":0,"nodes":[{"name":"leg","mesh":0},{"name":"leg","mesh":1},{"name":"leg","mesh":2},{"name":"leg","mesh":3},{"name":"leg","children":[0,1,2,3]},{"name":"top","mesh":4},{"name":"top","children":[5]},{"name":"drawer","mesh":5},{"name":"drawer","children":[7]},{"name":"pull","mesh":6},{"name":"pull","children":[9]}],"bufferViews":[{"buffer":0,"byteOffset":0,"byteLength":240,"target":34962,"byteStride":12},{"buffer":0,"byteOffset":240,"byteLength":240,"target":34962,"byteStride":12},{"buffer":0,"byteOffset":480,"byteLength":160,"target":34962,"byteStride":8},{"buffer":0,"byteOffset":640,"byteLength":60,"target":34963},{"buffer":0,"byteOffset":700,"byteLength":240,"target":34962,"byteStride":12},{"buffer":0,"byteOffset":940,"byteLength":240,"target":34962,"byteStride":12},{"buffer":0,"byteOffset":1180,"byteLength":160,"target":34962,"byteStride":8},{"buffer":0,"byteOffset":1340,"byteLength":60,"target":34963},{"buffer":0,"byteOffset":1400,"byteLength":336,"target":34962,"byteStride":12},{"buffer":0,"byteOffset":1736,"byteLength":336,"target":34962,"byteStride":12},{"buffer":0,"byteOffset":2072,"byteLength":224,"target":34962,"byteStride":8},{"buffer":0,"byteOffset":2296,"byteLength":84,"target":34963},{"buffer":0,"byteOffset":2380,"byteLength":336,"target":34962,"byteStride":12},{"buffer":0,"byteOffset":2716,"byteLength":336,"target":34962,"byteStride":12},{"buffer":0,"byteOffset":3052,"byteLength":224,"target":34962,"byteStride":8},{"buffer":0,"byteOffset":3276,"byteLength":84,"target":34963},{"buffer":0,"byteOffset":3360,"byteLength":768,"target":34962,"byteStride":12},{"buffer":0,"byteOffset":4128,"byteLength":768,"target":34962,"byteStride":12},{"buffer":0,"byteOffset":4896,"byteLength":512,"target":34962,"byteStride":8},{"buffer":0,"byteOffset":5408,"byteLength":192,"target":34963},{"buffer":0,"byteOffset":5600,"byteLength":432,"target":34962,"byteStride":12},{"buffer":0,"byteOffset":6032,"byteLength":432,"target":34962,"byteStride":12},{"buffer":0,"byteOffset":6464,"byteLength":288,"target":34962,"byteStride":8},{"buffer":0,"byteOffset":6752,"byteLength":108,"target":34963},{"buffer":0,"byteOffset":6860,"byteLength":240,"target":34962,"byteStride":12},{"buffer":0,"byteOffset":7100,"byteLength":240,"target":34962,"byteStride":12},{"buffer":0,"byteOffset":7340,"byteLength":160,"target":34962,"byteStride":8},{"buffer":0,"byteOffset":7500,"byteLength":60,"target":34963}],"buffers":[{"byteLength":7560,"uri":"data:application/octet-stream;base64,"}],"accessors":[{"bufferView":0,"componentType":5126,"count":20,"max":[-0.8125,0.875,-0.3125],"min":[-0.9375,0,-0.4375],"type":"VEC3"},{"bufferView":1,"componentType":5126,"count":20,"max":[1,0,1],"min":[-1,-1,-1],"type":"VEC3"},{"bufferView":2,"componentType":5126,"count":20,"max":[0.0625,0.4375],"min":[0,0],"type":"VEC2"},{"bufferView":3,"componentType":5123,"count":30,"max":[19],"min":[0],"type":"SCALAR"},{"bufferView":4,"componentType":5126,"count":20,"max":[-0.8125,0.875,0.4375],"min":[-0.9375,0,0.3125],"type":"VEC3"},{"bufferView":5,"componentType":5126,"count":20,"max":[1,0,1],"min":[-1,-1,-1],"type":"VEC3"},{"bufferView":6,"componentType":5126,"count":20,"max":[0.0625,0.4375],"min":[0,0],"type":"VEC2"},{"bufferView":7,"componentType":5123,"count":30,"max":[19],"min":[0],"type":"SCALAR"},{"bufferView":8,"componentType":5126,"count":28,"max":[0.9375,0.875,-0.3125],"min":[0.8125,0,-0.4375],"type":"VEC3"},{"bufferView":9,"componentType":5126,"count":28,"max":[1,0,1],"min":[-1,-1,-1],"type":"VEC3"},{"bufferView":10,"componentType":5126,"count":28,"max":[0.0625,0.4375],"min":[0,0],"type":"VEC2"},{"bufferView":11,"componentType":5123,"count":42,"max":[27],"min":[0],"type":"SCALAR"},{"bufferView":12,"componentType":5126,"count":28,"max":[0.9375,0.875,0.4375],"min":[0.8125,0,0.3125],"type":"VEC3"},{"bufferView":13,"componentType":5126,"count":28,"max":[1,0,1],"min":[-1,-1,-1],"type":"VEC3"},{"bufferView":14,"componentType":5126,"count":28,"max":[0.0625,0.4375],"min":[0,0],"type":"VEC2"},{"bufferView":15,"componentType":5123,"count":42,"max":[27],"min":[0],"type":"SCALAR"},{"bufferView":16,"componentType":5126,"count":64,"max":[1,1.0625,0.5],"min":[-1,0.875,-0.5],"type":"VEC3"},{"bufferView":17,"componentType":5126,"count":64,"max":[1,1,1],"min":[-1,-1,-1],"type":"VEC3"},{"bufferView":18,"componentType":5126,"count":64,"max":[1,0.5],"min":[0,0],"type":"VEC2"},{"bufferView":19,"componentType":5123,"count":96,"max":[63],"min":[0],"type":"SCALAR"},{"bufferView":20,"componentType":5126,"count":36,"max":[0.875,0.875,0.4375],"min":[0.375,0.3125,-0.4375],"type":"VEC3"},{"bufferView":21,"componentType":5126,"count":36,"max":[1,0,1],"min":[-1,-1,-1],"type":"VEC3"},{"bufferView":22,"componentType":5126,"count":36,"max":[0.4375,0.4375],"min":[0,0],"type":"VEC2"},{"bufferView":23,"componentType":5123,"count":54,"max":[35],"min":[0],"type":"SCALAR"},{"bufferView":24,"componentType":5126,"count":20,"max":[0.75,0.6875,-0.4375],"min":[0.5625,0.625,-0.5],"type":"VEC3"},{"bufferView":25,"componentType":5126,"count":20,"max":[1,1,0],"min":[-1,-1,-1],"type":"VEC3"},{"bufferView":26,"componentType":5126,"count":20,"max":[0.09375,0.03125],"min":[0,0],"type":"VEC2"},{"bufferView":27,"componentType":5123,"count":30,"max":[19],"min":[0],"type":"SCALAR"}],"materials":[{"pbrMetallicRoughness":{"metallicFactor":0,"roughnessFactor":1,"baseColorTexture":{"index":0}},"alphaMode":"MASK","alphaCutoff":0.05,"doubleSided":true},{"pbrMetallicRoughness":{"metallicFactor":0,"roughnessFactor":1,"baseColorTexture":{"index":1}},"alphaMode":"MASK","alphaCutoff":0.05,"doubleSided":true},{"pbrMetallicRoughness":{"metallicFactor":0,"roughnessFactor":1,"baseColorTexture":{"index":2}},"alphaMode":"MASK","alphaCutoff":0.05,"doubleSided":true}],"textures":[{"sampler":0,"source":0,"name":"metal.png"},{"sampler":1,"source":1,"name":"wood_floor.png"},{"sampler":2,"source":2,"name":"wood.png"}],"samplers":[{"magFilter":9728,"minFilter":9728,"wrapS":10497,"wrapT":10497},{"magFilter":9728,"minFilter":9728,"wrapS":10497,"wrapT":10497},{"magFilter":9728,"minFilter":9728,"wrapS":10497,"wrapT":10497}],"images":[{"mimeType":"image/png","uri":"../textures/metal.png","name":"metal"},{"mimeType":"image/png","uri":"../textures/wood_floor.png","name":"wood_floor"},{"mimeType":"image/png","uri":"../textures/wood.png","name":"wood"}],"meshes":[{"primitives":[{"mode":4,"attributes":{"POSITION":0,"NORMAL":1,"TEXCOORD_0":2},"indices":3,"material":0}]},{"primitives":[{"mode":4,"attributes":{"POSITION":4,"NORMAL":5,"TEXCOORD_0":6},"indices":7,"material":0}]},{"primitives":[{"mode":4,"attributes":{"POSITION":8,"NORMAL":9,"TEXCOORD_0":10},"indices":11,"material":0}]},{"primitives":[{"mode":4,"attributes":{"POSITION":12,"NORMAL":13,"TEXCOORD_0":14},"indices":15,"material":0}]},{"primitives":[{"mode":4,"attributes":{"POSITION":16,"NORMAL":17,"TEXCOORD_0":18},"indices":19,"material":1}]},{"primitives":[{"mode":4,"attributes":{"POSITION":20,"NORMAL":21,"TEXCOORD_0":22},"indices":23,"material":2}]},{"primitives":[{"mode":4,"attributes":{"POSITION":24,"NORMAL":25,"TEXCOORD_0":26},"indices":27,"material":0}]}]}