{"asset":{"version":"2.0","generator":"Blockbench 5.1.6 glTF exporter"},"scenes":[{"nodes":[0],"name":"blockbench_export"}],"scene":0,"nodes":[{"name":"meadow_oak_young_top","mesh":0}],"bufferViews":[{"buffer":0,"byteOffset":0,"byteLength":14112,"target":34962,"byteStride":12},{"buffer":0,"byteOffset":14112,"byteLength":14112,"target":34962,"byteStride":12},{"buffer":0,"byteOffset":28224,"byteLength":9408,"target":34962,"byteStride":8},{"buffer":0,"byteOffset":37632,"byteLength":300,"target":34963},{"buffer":0,"byteOffset":37932,"byteLength":1200,"target":34963},{"buffer":0,"byteOffset":39132,"byteLength":612,"target":34963},{"buffer":0,"byteOffset":39744,"byteLength":984,"target":34963},{"buffer":0,"byteOffset":40728,"byteLength":432,"target":34963}],"buffers":[{"byteLength":41160,"uri":"data:application/octet-stream;base64,"}],"accessors":[{"bufferView":0,"componentType":5126,"count":1176,"max":[1,3,1.25],"min":[-1.5,0,-1],"type":"VEC3"},{"bufferView":1,"componentType":5126,"count":1176,"max":[1,1,1],"min":[-1,-1,-1],"type":"VEC3"},{"bufferView":2,"componentType":5126,"count":1176,"max":[1.75,1.75],"min":[0,0],"type":"VEC2"},{"bufferView":3,"componentType":5123,"count":150,"max":[99],"min":[0],"type":"SCALAR"},{"bufferView":4,"componentType":5123,"count":600,"max":[499],"min":[100],"type":"SCALAR"},{"bufferView":5,"componentType":5123,"count":306,"max":[703],"min":[500],"type":"SCALAR"},{"bufferView":6,"componentType":5123,"count":492,"max":[1031],"min":[704],"type":"SCALAR"},{"bufferView":7,"componentType":5123,"count":216,"max":[1175],"min":[1032],"type":"SCALAR"}],"materials":[{"pbrMetallicRoughness":{"metallicFactor":0,"roughnessFactor":1,"baseColorTexture":{"index":0}},"alphaMode":"MASK","alphaCutoff":0.05,"doubleSided":true},{"pbrMetallicRoughness":{"metallicFactor":0,"roughnessFactor":1,"baseColorTexture":{"index":1}},"alphaMode":"MASK","alphaCutoff":0.05,"doubleSided":true},{"pbrMetallicRoughness":{"metallicFactor":0,"roughnessFactor":1,"baseColorTexture":{"index":2}},"alphaMode":"MASK","alphaCutoff":0.05,"doubleSided":true},{"pbrMetallicRoughness":{"metallicFactor":0,"roughnessFactor":1,"baseColorTexture":{"index":3}},"alphaMode":"MASK","alphaCutoff":0.05,"doubleSided":true},{"pbrMetallicRoughness":{"metallicFactor":0,"roughnessFactor":1,"baseColorTexture":{"index":4}},"alphaMode":"MASK","alphaCutoff":0.05,"doubleSided":true}],"textures":[{"sampler":0,"source":0,"name":"meadow_oak_young.png"},{"sampler":1,"source":1,"name":"oak_leaf_mid.png"},{"sampler":2,"source":2,"name":"oak_leaf_light.png"},{"sampler":3,"source":3,"name":"oak_leaf_shade.png"},{"sampler":4,"source":4,"name":"oak_leaf_deep.png"}],"samplers":[{"magFilter":9728,"minFilter":9728,"wrapS":33071,"wrapT":33071},{"magFilter":9728,"minFilter":9728,"wrapS":10497,"wrapT":10497},{"magFilter":9728,"minFilter":9728,"wrapS":10497,"wrapT":10497},{"magFilter":9728,"minFilter":9728,"wrapS":10497,"wrapT":10497},{"magFilter":9728,"minFilter":9728,"wrapS":10497,"wrapT":10497}],"images":[{"mimeType":"image/png","name":"meadow_oak_young.png","uri":"../textures/meadow_oak_young.png"},{"mimeType":"image/png","name":"oak_leaf_mid.png","uri":"../textures/oak_leaf_mid.png"},{"mimeType":"image/png","name":"oak_leaf_light.png","uri":"../textures/oak_leaf_light.png"},{"mimeType":"image/png","name":"oak_leaf_shade.png","uri":"../textures/oak_leaf_shade.png"},{"mimeType":"image/png","name":"oak_leaf_deep.png","uri":"../textures/oak_leaf_deep.png"}],"meshes":[{"primitives":[{"mode":4,"attributes":{"POSITION":0,"NORMAL":1,"TEXCOORD_0":2},"indices":3,"material":0},{"mode":4,"attributes":{"POSITION":0,"NORMAL":1,"TEXCOORD_0":2},"indices":4,"material":1},{"mode":4,"attributes":{"POSITION":0,"NORMAL":1,"TEXCOORD_0":2},"indices":5,"material":2},{"mode":4,"attributes":{"POSITION":0,"NORMAL":1,"TEXCOORD_0":2},"indices":6,"material":3},{"mode":4,"attributes":{"POSITION":0,"NORMAL":1,"TEXCOORD_0":2},"indices":7,"material":4}]}]}