{"asset":{"version":"2.0","generator":"Blockbench 5.1.6 glTF exporter"},"scenes":[{"nodes":[0],"name":"blockbench_export"}],"scene":0,"nodes":[{"name":"meadow_oak_broad_stump","mesh":0}],"bufferViews":[{"buffer":0,"byteOffset":0,"byteLength":1008,"target":34962,"byteStride":12},{"buffer":0,"byteOffset":1008,"byteLength":1008,"target":34962,"byteStride":12},{"buffer":0,"byteOffset":2016,"byteLength":672,"target":34962,"byteStride":8},{"buffer":0,"byteOffset":2688,"byteLength":252,"target":34963}],"buffers":[{"byteLength":2940,"uri":"data:application/octet-stream;base64,"}],"accessors":[{"bufferView":0,"componentType":5126,"count":84,"max":[0.375,0.5,0.375],"min":[-0.375,0,-0.3125],"type":"VEC3"},{"bufferView":1,"componentType":5126,"count":84,"max":[1,1,1],"min":[-1,-1,-1],"type":"VEC3"},{"bufferView":2,"componentType":5126,"count":84,"max":[1,0.8541666865348816],"min":[0,0],"type":"VEC2"},{"bufferView":3,"componentType":5123,"count":126,"max":[83],"min":[0],"type":"SCALAR"}],"materials":[{"pbrMetallicRoughness":{"metallicFactor":0,"roughnessFactor":1,"baseColorTexture":{"index":0}},"alphaMode":"MASK","alphaCutoff":0.05,"doubleSided":true}],"textures":[{"sampler":0,"source":0,"name":"meadow_oak_broad.png"}],"samplers":[{"magFilter":9728,"minFilter":9728,"wrapS":33071,"wrapT":33071}],"images":[{"mimeType":"image/png","name":"meadow_oak_broad.png","uri":"../textures/meadow_oak_broad.png"}],"meshes":[{"primitives":[{"mode":4,"attributes":{"POSITION":0,"NORMAL":1,"TEXCOORD_0":2},"indices":3,"material":0}]}]}