{"asset":{"version":"2.0","generator":"Blockbench 5.1.6 glTF exporter"},"scenes":[{"nodes":[0],"name":"blockbench_export"}],"scene":0,"nodes":[{"name":"meadow_oak_leaning_stump","mesh":0}],"bufferViews":[{"buffer":0,"byteOffset":0,"byteLength":528,"target":34962,"byteStride":12},{"buffer":0,"byteOffset":528,"byteLength":528,"target":34962,"byteStride":12},{"buffer":0,"byteOffset":1056,"byteLength":352,"target":34962,"byteStride":8},{"buffer":0,"byteOffset":1408,"byteLength":132,"target":34963}],"buffers":[{"byteLength":1540,"uri":"data:application/octet-stream;base64,"}],"accessors":[{"bufferView":0,"componentType":5126,"count":44,"max":[0.25,0.5,0.25],"min":[-0.3125,0,-0.25],"type":"VEC3"},{"bufferView":1,"componentType":5126,"count":44,"max":[1,1,1],"min":[-1,-1,-1],"type":"VEC3"},{"bufferView":2,"componentType":5126,"count":44,"max":[0.46875,0.9375],"min":[0,0],"type":"VEC2"},{"bufferView":3,"componentType":5123,"count":66,"max":[43],"min":[0],"type":"SCALAR"}],"materials":[{"pbrMetallicRoughness":{"metallicFactor":0,"roughnessFactor":1,"baseColorTexture":{"index":0}},"alphaMode":"MASK","alphaCutoff":0.05,"doubleSided":true}],"textures":[{"sampler":0,"source":0,"name":"meadow_oak_leaning.png"}],"samplers":[{"magFilter":9728,"minFilter":9728,"wrapS":33071,"wrapT":33071}],"images":[{"mimeType":"image/png","name":"meadow_oak_leaning.png","uri":"../textures/meadow_oak_leaning.png"}],"meshes":[{"primitives":[{"mode":4,"attributes":{"POSITION":0,"NORMAL":1,"TEXCOORD_0":2},"indices":3,"material":0}]}]}