{"asset":{"version":"2.0","generator":"Blockbench 5.1.6 glTF exporter"},"scenes":[{"nodes":[0],"name":"blockbench_export"}],"scene":0,"nodes":[{"name":"meadow_oak_top","mesh":0}],"bufferViews":[{"buffer":0,"byteOffset":0,"byteLength":44496,"target":34962,"byteStride":12},{"buffer":0,"byteOffset":44496,"byteLength":44496,"target":34962,"byteStride":12},{"buffer":0,"byteOffset":88992,"byteLength":29664,"target":34962,"byteStride":8},{"buffer":0,"byteOffset":118656,"byteLength":1092,"target":34963},{"buffer":0,"byteOffset":119748,"byteLength":3360,"target":34963},{"buffer":0,"byteOffset":123108,"byteLength":1980,"target":34963},{"buffer":0,"byteOffset":125088,"byteLength":3156,"target":34963},{"buffer":0,"byteOffset":128244,"byteLength":1536,"target":34963}],"buffers":[{"byteLength":129780,"uri":"data:application/octet-stream;base64,"}],"accessors":[{"bufferView":0,"componentType":5126,"count":3708,"max":[2,4.75,1.75],"min":[-2.25,0,-2],"type":"VEC3"},{"bufferView":1,"componentType":5126,"count":3708,"max":[1,1,1],"min":[-1,-1,-1],"type":"VEC3"},{"bufferView":2,"componentType":5126,"count":3708,"max":[1.75,1.75],"min":[0,0],"type":"VEC2"},{"bufferView":3,"componentType":5123,"count":546,"max":[363],"min":[0],"type":"SCALAR"},{"bufferView":4,"componentType":5123,"count":1680,"max":[1483],"min":[364],"type":"SCALAR"},{"bufferView":5,"componentType":5123,"count":990,"max":[2143],"min":[1484],"type":"SCALAR"},{"bufferView":6,"componentType":5123,"count":1578,"max":[3195],"min":[2144],"type":"SCALAR"},{"bufferView":7,"componentType":5123,"count":768,"max":[3707],"min":[3196],"type":"SCALAR"}],"materials":[{"pbrMetallicRoughness":{"metallicFactor":0,"roughnessFactor":1,"baseColorTexture":{"index":0}},"alphaMode":"MASK","alphaCutoff":0.05,"doubleSided":true},{"pbrMetallicRoughness":{"metallicFactor":0,"roughnessFactor":1,"baseColorTexture":{"index":1}},"alphaMode":"MASK","alphaCutoff":0.05,"doubleSided":true},{"pbrMetallicRoughness":{"metallicFactor":0,"roughnessFactor":1,"baseColorTexture":{"index":2}},"alphaMode":"MASK","alphaCutoff":0.05,"doubleSided":true},{"pbrMetallicRoughness":{"metallicFactor":0,"roughnessFactor":1,"baseColorTexture":{"index":3}},"alphaMode":"MASK","alphaCutoff":0.05,"doubleSided":true},{"pbrMetallicRoughness":{"metallicFactor":0,"roughnessFactor":1,"baseColorTexture":{"index":4}},"alphaMode":"MASK","alphaCutoff":0.05,"doubleSided":true}],"textures":[{"sampler":0,"source":0,"name":"meadow_oak.png"},{"sampler":1,"source":1,"name":"oak_leaf_mid.png"},{"sampler":2,"source":2,"name":"oak_leaf_light.png"},{"sampler":3,"source":3,"name":"oak_leaf_shade.png"},{"sampler":4,"source":4,"name":"oak_leaf_deep.png"}],"samplers":[{"magFilter":9728,"minFilter":9728,"wrapS":33071,"wrapT":33071},{"magFilter":9728,"minFilter":9728,"wrapS":10497,"wrapT":10497},{"magFilter":9728,"minFilter":9728,"wrapS":10497,"wrapT":10497},{"magFilter":9728,"minFilter":9728,"wrapS":10497,"wrapT":10497},{"magFilter":9728,"minFilter":9728,"wrapS":10497,"wrapT":10497}],"images":[{"mimeType":"image/png","name":"meadow_oak.png","uri":"../textures/meadow_oak.png"},{"mimeType":"image/png","name":"oak_leaf_mid.png","uri":"../textures/oak_leaf_mid.png"},{"mimeType":"image/png","name":"oak_leaf_light.png","uri":"../textures/oak_leaf_light.png"},{"mimeType":"image/png","name":"oak_leaf_shade.png","uri":"../textures/oak_leaf_shade.png"},{"mimeType":"image/png","name":"oak_leaf_deep.png","uri":"../textures/oak_leaf_deep.png"}],"meshes":[{"primitives":[{"mode":4,"attributes":{"POSITION":0,"NORMAL":1,"TEXCOORD_0":2},"indices":3,"material":0},{"mode":4,"attributes":{"POSITION":0,"NORMAL":1,"TEXCOORD_0":2},"indices":4,"material":1},{"mode":4,"attributes":{"POSITION":0,"NORMAL":1,"TEXCOORD_0":2},"indices":5,"material":2},{"mode":4,"attributes":{"POSITION":0,"NORMAL":1,"TEXCOORD_0":2},"indices":6,"material":3},{"mode":4,"attributes":{"POSITION":0,"NORMAL":1,"TEXCOORD_0":2},"indices":7,"material":4}]}]}