{"asset":{"version":"2.0","generator":"Blockbench 5.1.6 glTF exporter"},"scenes":[{"nodes":[0],"name":"blockbench_export"}],"scene":0,"nodes":[{"name":"stump_brackets","mesh":0}],"bufferViews":[{"buffer":0,"byteOffset":0,"byteLength":11280,"target":34962,"byteStride":12},{"buffer":0,"byteOffset":11280,"byteLength":11280,"target":34962,"byteStride":12},{"buffer":0,"byteOffset":22560,"byteLength":7520,"target":34962,"byteStride":8},{"buffer":0,"byteOffset":30080,"byteLength":2820,"target":34963}],"buffers":[{"byteLength":32900,"uri":"data:application/octet-stream;base64,"}],"accessors":[{"bufferView":0,"componentType":5126,"count":940,"max":[0.4375,0.5,0.4375],"min":[-0.3125,0,-0.4375],"type":"VEC3"},{"bufferView":1,"componentType":5126,"count":940,"max":[1,1,1],"min":[-1,-1,-1],"type":"VEC3"},{"bufferView":2,"componentType":5126,"count":940,"max":[0.921875,0.9715909361839294],"min":[0.015625,0.9147727489471436],"type":"VEC2"},{"bufferView":3,"componentType":5123,"count":1410,"max":[939],"min":[0],"type":"SCALAR"}],"materials":[{"pbrMetallicRoughness":{"metallicFactor":0,"roughnessFactor":1,"baseColorTexture":{"index":0}},"alphaMode":"MASK","alphaCutoff":0.05,"doubleSided":true}],"textures":[{"sampler":0,"source":0,"name":"terrain_atlas.png"}],"samplers":[{"magFilter":9728,"minFilter":9728,"wrapS":33071,"wrapT":33071}],"images":[{"mimeType":"image/png","name":"terrain_atlas.png","uri":"../../shared/textures/terrain_atlas.png"}],"meshes":[{"primitives":[{"mode":4,"attributes":{"POSITION":0,"NORMAL":1,"TEXCOORD_0":2},"indices":3,"material":0}]}]}