{"asset":{"version":"2.0","generator":"Blockbench 5.1.6 glTF exporter"},"scenes":[{"nodes":[0],"name":"blockbench_export"}],"scene":0,"nodes":[{"name":"boulder_large","mesh":0}],"bufferViews":[{"buffer":0,"byteOffset":0,"byteLength":54720,"target":34962,"byteStride":12},{"buffer":0,"byteOffset":54720,"byteLength":54720,"target":34962,"byteStride":12},{"buffer":0,"byteOffset":109440,"byteLength":36480,"target":34962,"byteStride":8},{"buffer":0,"byteOffset":145920,"byteLength":13680,"target":34963}],"buffers":[{"byteLength":159600,"uri":"data:application/octet-stream;base64,"}],"accessors":[{"bufferView":0,"componentType":5126,"count":4560,"max":[0.5625,0.6875,0.6875],"min":[-0.6875,0,-0.75],"type":"VEC3"},{"bufferView":1,"componentType":5126,"count":4560,"max":[1,1,1],"min":[-1,0,-1],"type":"VEC3"},{"bufferView":2,"componentType":5126,"count":4560,"max":[0.734375,0.9488636255264282],"min":[0.515625,0.9375],"type":"VEC2"},{"bufferView":3,"componentType":5123,"count":6840,"max":[4559],"min":[0],"type":"SCALAR"}],"materials":[{"pbrMetallicRoughness":{"metallicFactor":0,"roughnessFactor":1,"baseColorTexture":{"index":0}},"alphaMode":"MASK","alphaCutoff":0.05,"doubleSided":true}],"textures":[{"sampler":0,"source":0,"name":"terrain_atlas.png"}],"samplers":[{"magFilter":9728,"minFilter":9728,"wrapS":33071,"wrapT":33071}],"images":[{"mimeType":"image/png","name":"terrain_atlas.png","uri":"../../shared/textures/terrain_atlas.png"}],"meshes":[{"primitives":[{"mode":4,"attributes":{"POSITION":0,"NORMAL":1,"TEXCOORD_0":2},"indices":3,"material":0}]}]}