{"asset":{"version":"2.0","generator":"Blockbench 5.1.6 glTF exporter"},"scenes":[{"nodes":[0],"name":"blockbench_export"}],"scene":0,"nodes":[{"name":"bush_round","mesh":0}],"bufferViews":[{"buffer":0,"byteOffset":0,"byteLength":30000,"target":34962,"byteStride":12},{"buffer":0,"byteOffset":30000,"byteLength":30000,"target":34962,"byteStride":12},{"buffer":0,"byteOffset":60000,"byteLength":20000,"target":34962,"byteStride":8},{"buffer":0,"byteOffset":80000,"byteLength":180,"target":34963},{"buffer":0,"byteOffset":80180,"byteLength":2220,"target":34963},{"buffer":0,"byteOffset":82400,"byteLength":1392,"target":34963},{"buffer":0,"byteOffset":83792,"byteLength":1728,"target":34963},{"buffer":0,"byteOffset":85520,"byteLength":1980,"target":34963}],"buffers":[{"byteLength":87500,"uri":"data:application/octet-stream;base64,"}],"accessors":[{"bufferView":0,"componentType":5126,"count":2500,"max":[0.8125,1.1875,0.5625],"min":[-0.9375,0,-0.8125],"type":"VEC3"},{"bufferView":1,"componentType":5126,"count":2500,"max":[1,1,1],"min":[-1,-1,-1],"type":"VEC3"},{"bufferView":2,"componentType":5126,"count":2500,"max":[1.0625,1.0625],"min":[0,0],"type":"VEC2"},{"bufferView":3,"componentType":5123,"count":90,"max":[59],"min":[0],"type":"SCALAR"},{"bufferView":4,"componentType":5123,"count":1110,"max":[799],"min":[60],"type":"SCALAR"},{"bufferView":5,"componentType":5123,"count":696,"max":[1263],"min":[800],"type":"SCALAR"},{"bufferView":6,"componentType":5123,"count":864,"max":[1839],"min":[1264],"type":"SCALAR"},{"bufferView":7,"componentType":5123,"count":990,"max":[2499],"min":[1840],"type":"SCALAR"}],"materials":[{"pbrMetallicRoughness":{"metallicFactor":0,"roughnessFactor":1,"baseColorTexture":{"index":0}},"alphaMode":"MASK","alphaCutoff":0.05,"doubleSided":true},{"pbrMetallicRoughness":{"metallicFactor":0,"roughnessFactor":1,"baseColorTexture":{"index":1}},"alphaMode":"MASK","alphaCutoff":0.05,"doubleSided":true},{"pbrMetallicRoughness":{"metallicFactor":0,"roughnessFactor":1,"baseColorTexture":{"index":2}},"alphaMode":"MASK","alphaCutoff":0.05,"doubleSided":true},{"pbrMetallicRoughness":{"metallicFactor":0,"roughnessFactor":1,"baseColorTexture":{"index":3}},"alphaMode":"MASK","alphaCutoff":0.05,"doubleSided":true},{"pbrMetallicRoughness":{"metallicFactor":0,"roughnessFactor":1,"baseColorTexture":{"index":4}},"alphaMode":"MASK","alphaCutoff":0.05,"doubleSided":true}],"textures":[{"sampler":0,"source":0,"name":"terrain_atlas.png"},{"sampler":1,"source":1,"name":"oak_leaf_deep.png"},{"sampler":2,"source":2,"name":"oak_leaf_shade.png"},{"sampler":3,"source":3,"name":"oak_leaf_mid.png"},{"sampler":4,"source":4,"name":"oak_leaf_light.png"}],"samplers":[{"magFilter":9728,"minFilter":9728,"wrapS":33071,"wrapT":33071},{"magFilter":9728,"minFilter":9728,"wrapS":10497,"wrapT":10497},{"magFilter":9728,"minFilter":9728,"wrapS":10497,"wrapT":10497},{"magFilter":9728,"minFilter":9728,"wrapS":10497,"wrapT":10497},{"magFilter":9728,"minFilter":9728,"wrapS":10497,"wrapT":10497}],"images":[{"mimeType":"image/png","name":"terrain_atlas.png","uri":"../../shared/textures/terrain_atlas.png"},{"mimeType":"image/png","name":"oak_leaf_deep.png","uri":"../../trees/textures/oak_leaf_deep.png"},{"mimeType":"image/png","name":"oak_leaf_shade.png","uri":"../../trees/textures/oak_leaf_shade.png"},{"mimeType":"image/png","name":"oak_leaf_mid.png","uri":"../../trees/textures/oak_leaf_mid.png"},{"mimeType":"image/png","name":"oak_leaf_light.png","uri":"../../trees/textures/oak_leaf_light.png"}],"meshes":[{"primitives":[{"mode":4,"attributes":{"POSITION":0,"NORMAL":1,"TEXCOORD_0":2},"indices":3,"material":0},{"mode":4,"attributes":{"POSITION":0,"NORMAL":1,"TEXCOORD_0":2},"indices":4,"material":1},{"mode":4,"attributes":{"POSITION":0,"NORMAL":1,"TEXCOORD_0":2},"indices":5,"material":2},{"mode":4,"attributes":{"POSITION":0,"NORMAL":1,"TEXCOORD_0":2},"indices":6,"material":3},{"mode":4,"attributes":{"POSITION":0,"NORMAL":1,"TEXCOORD_0":2},"indices":7,"material":4}]}]}