{"asset":{"version":"2.0","generator":"Blockbench 5.1.6 glTF exporter"},"scenes":[{"nodes":[0],"name":"blockbench_export"}],"scene":0,"nodes":[{"name":"bush_berry","mesh":0}],"bufferViews":[{"buffer":0,"byteOffset":0,"byteLength":29424,"target":34962,"byteStride":12},{"buffer":0,"byteOffset":29424,"byteLength":29424,"target":34962,"byteStride":12},{"buffer":0,"byteOffset":58848,"byteLength":19616,"target":34962,"byteStride":8},{"buffer":0,"byteOffset":78464,"byteLength":1620,"target":34963},{"buffer":0,"byteOffset":80084,"byteLength":1776,"target":34963},{"buffer":0,"byteOffset":81860,"byteLength":1212,"target":34963},{"buffer":0,"byteOffset":83072,"byteLength":1128,"target":34963},{"buffer":0,"byteOffset":84200,"byteLength":1620,"target":34963}],"buffers":[{"byteLength":85820,"uri":"data:application/octet-stream;base64,"}],"accessors":[{"bufferView":0,"componentType":5126,"count":2452,"max":[0.6875,1.125,0.625],"min":[-0.8125,0,-0.6875],"type":"VEC3"},{"bufferView":1,"componentType":5126,"count":2452,"max":[1,1,1],"min":[-1,-1,-1],"type":"VEC3"},{"bufferView":2,"componentType":5126,"count":2452,"max":[1.0625,1.0625],"min":[0,0],"type":"VEC2"},{"bufferView":3,"componentType":5123,"count":810,"max":[539],"min":[0],"type":"SCALAR"},{"bufferView":4,"componentType":5123,"count":888,"max":[1131],"min":[540],"type":"SCALAR"},{"bufferView":5,"componentType":5123,"count":606,"max":[1535],"min":[1132],"type":"SCALAR"},{"bufferView":6,"componentType":5123,"count":564,"max":[1911],"min":[1536],"type":"SCALAR"},{"bufferView":7,"componentType":5123,"count":810,"max":[2451],"min":[1912],"type":"SCALAR"}],"materials":[{"pbrMetallicRoughness":{"metallicFactor":0,"roughnessFactor":1,"baseColorTexture":{"index":0}},"alphaMode":"MASK","alphaCutoff":0.05,"doubleSided":true},{"pbrMetallicRoughness":{"metallicFactor":0,"roughnessFactor":1,"baseColorTexture":{"index":1}},"alphaMode":"MASK","alphaCutoff":0.05,"doubleSided":true},{"pbrMetallicRoughness":{"metallicFactor":0,"roughnessFactor":1,"baseColorTexture":{"index":2}},"alphaMode":"MASK","alphaCutoff":0.05,"doubleSided":true},{"pbrMetallicRoughness":{"metallicFactor":0,"roughnessFactor":1,"baseColorTexture":{"index":3}},"alphaMode":"MASK","alphaCutoff":0.05,"doubleSided":true},{"pbrMetallicRoughness":{"metallicFactor":0,"roughnessFactor":1,"baseColorTexture":{"index":4}},"alphaMode":"MASK","alphaCutoff":0.05,"doubleSided":true}],"textures":[{"sampler":0,"source":0,"name":"terrain_atlas.png"},{"sampler":1,"source":1,"name":"oak_leaf_deep.png"},{"sampler":2,"source":2,"name":"oak_leaf_shade.png"},{"sampler":3,"source":3,"name":"oak_leaf_mid.png"},{"sampler":4,"source":4,"name":"oak_leaf_light.png"}],"samplers":[{"magFilter":9728,"minFilter":9728,"wrapS":33071,"wrapT":33071},{"magFilter":9728,"minFilter":9728,"wrapS":10497,"wrapT":10497},{"magFilter":9728,"minFilter":9728,"wrapS":10497,"wrapT":10497},{"magFilter":9728,"minFilter":9728,"wrapS":10497,"wrapT":10497},{"magFilter":9728,"minFilter":9728,"wrapS":10497,"wrapT":10497}],"images":[{"mimeType":"image/png","name":"terrain_atlas.png","uri":"../../shared/textures/terrain_atlas.png"},{"mimeType":"image/png","name":"oak_leaf_deep.png","uri":"../../trees/textures/oak_leaf_deep.png"},{"mimeType":"image/png","name":"oak_leaf_shade.png","uri":"../../trees/textures/oak_leaf_shade.png"},{"mimeType":"image/png","name":"oak_leaf_mid.png","uri":"../../trees/textures/oak_leaf_mid.png"},{"mimeType":"image/png","name":"oak_leaf_light.png","uri":"../../trees/textures/oak_leaf_light.png"}],"meshes":[{"primitives":[{"mode":4,"attributes":{"POSITION":0,"NORMAL":1,"TEXCOORD_0":2},"indices":3,"material":0},{"mode":4,"attributes":{"POSITION":0,"NORMAL":1,"TEXCOORD_0":2},"indices":4,"material":1},{"mode":4,"attributes":{"POSITION":0,"NORMAL":1,"TEXCOORD_0":2},"indices":5,"material":2},{"mode":4,"attributes":{"POSITION":0,"NORMAL":1,"TEXCOORD_0":2},"indices":6,"material":3},{"mode":4,"attributes":{"POSITION":0,"NORMAL":1,"TEXCOORD_0":2},"indices":7,"material":4}]}]}