{"asset":{"version":"2.0","generator":"Blockbench 5.1.6 glTF exporter"},"scenes":[{"nodes":[0],"name":"blockbench_export"}],"scene":0,"nodes":[{"name":"bush_wide","mesh":0}],"bufferViews":[{"buffer":0,"byteOffset":0,"byteLength":32448,"target":34962,"byteStride":12},{"buffer":0,"byteOffset":32448,"byteLength":32448,"target":34962,"byteStride":12},{"buffer":0,"byteOffset":64896,"byteLength":21632,"target":34962,"byteStride":8},{"buffer":0,"byteOffset":86528,"byteLength":240,"target":34963},{"buffer":0,"byteOffset":86768,"byteLength":2508,"target":34963},{"buffer":0,"byteOffset":89276,"byteLength":1200,"target":34963},{"buffer":0,"byteOffset":90476,"byteLength":1428,"target":34963},{"buffer":0,"byteOffset":91904,"byteLength":2736,"target":34963}],"buffers":[{"byteLength":94640,"uri":"data:application/octet-stream;base64,"}],"accessors":[{"bufferView":0,"componentType":5126,"count":2704,"max":[1.0625,1,0.4375],"min":[-1.1875,0,-0.6875],"type":"VEC3"},{"bufferView":1,"componentType":5126,"count":2704,"max":[1,1,1],"min":[-1,-1,-1],"type":"VEC3"},{"bufferView":2,"componentType":5126,"count":2704,"max":[1.0625,1.0625],"min":[0,0],"type":"VEC2"},{"bufferView":3,"componentType":5123,"count":120,"max":[79],"min":[0],"type":"SCALAR"},{"bufferView":4,"componentType":5123,"count":1254,"max":[915],"min":[80],"type":"SCALAR"},{"bufferView":5,"componentType":5123,"count":600,"max":[1315],"min":[916],"type":"SCALAR"},{"bufferView":6,"componentType":5123,"count":714,"max":[1791],"min":[1316],"type":"SCALAR"},{"bufferView":7,"componentType":5123,"count":1368,"max":[2703],"min":[1792],"type":"SCALAR"}],"materials":[{"pbrMetallicRoughness":{"metallicFactor":0,"roughnessFactor":1,"baseColorTexture":{"index":0}},"alphaMode":"MASK","alphaCutoff":0.05,"doubleSided":true},{"pbrMetallicRoughness":{"metallicFactor":0,"roughnessFactor":1,"baseColorTexture":{"index":1}},"alphaMode":"MASK","alphaCutoff":0.05,"doubleSided":true},{"pbrMetallicRoughness":{"metallicFactor":0,"roughnessFactor":1,"baseColorTexture":{"index":2}},"alphaMode":"MASK","alphaCutoff":0.05,"doubleSided":true},{"pbrMetallicRoughness":{"metallicFactor":0,"roughnessFactor":1,"baseColorTexture":{"index":3}},"alphaMode":"MASK","alphaCutoff":0.05,"doubleSided":true},{"pbrMetallicRoughness":{"metallicFactor":0,"roughnessFactor":1,"baseColorTexture":{"index":4}},"alphaMode":"MASK","alphaCutoff":0.05,"doubleSided":true}],"textures":[{"sampler":0,"source":0,"name":"terrain_atlas.png"},{"sampler":1,"source":1,"name":"oak_leaf_deep.png"},{"sampler":2,"source":2,"name":"oak_leaf_shade.png"},{"sampler":3,"source":3,"name":"oak_leaf_mid.png"},{"sampler":4,"source":4,"name":"oak_leaf_light.png"}],"samplers":[{"magFilter":9728,"minFilter":9728,"wrapS":33071,"wrapT":33071},{"magFilter":9728,"minFilter":9728,"wrapS":10497,"wrapT":10497},{"magFilter":9728,"minFilter":9728,"wrapS":10497,"wrapT":10497},{"magFilter":9728,"minFilter":9728,"wrapS":10497,"wrapT":10497},{"magFilter":9728,"minFilter":9728,"wrapS":10497,"wrapT":10497}],"images":[{"mimeType":"image/png","name":"terrain_atlas.png","uri":"../../shared/textures/terrain_atlas.png"},{"mimeType":"image/png","name":"oak_leaf_deep.png","uri":"../../trees/textures/oak_leaf_deep.png"},{"mimeType":"image/png","name":"oak_leaf_shade.png","uri":"../../trees/textures/oak_leaf_shade.png"},{"mimeType":"image/png","name":"oak_leaf_mid.png","uri":"../../trees/textures/oak_leaf_mid.png"},{"mimeType":"image/png","name":"oak_leaf_light.png","uri":"../../trees/textures/oak_leaf_light.png"}],"meshes":[{"primitives":[{"mode":4,"attributes":{"POSITION":0,"NORMAL":1,"TEXCOORD_0":2},"indices":3,"material":0},{"mode":4,"attributes":{"POSITION":0,"NORMAL":1,"TEXCOORD_0":2},"indices":4,"material":1},{"mode":4,"attributes":{"POSITION":0,"NORMAL":1,"TEXCOORD_0":2},"indices":5,"material":2},{"mode":4,"attributes":{"POSITION":0,"NORMAL":1,"TEXCOORD_0":2},"indices":6,"material":3},{"mode":4,"attributes":{"POSITION":0,"NORMAL":1,"TEXCOORD_0":2},"indices":7,"material":4}]}]}